# Blender v2.90.1 OBJ File: 'Santa_Belt.blend'
# www.blender.org
mtllib Santa_Belt.mtl
o Santa_Belt_geo_Santa_Belt_Voxel.001
v 4.443906 -1.499737 -0.585640
v 4.443906 -1.499736 4.351181
v 4.443906 -0.018690 -0.585640
v 4.443906 -0.018689 4.351181
v 3.909415 -1.499736 3.799873
v 3.909415 -1.499737 -0.012295
v 3.909415 -0.018690 -0.012295
v 3.909415 -0.018689 3.799873
v 1.481813 -1.499736 4.351181
v 1.481813 -0.018689 4.351181
v 1.481813 -1.993418 3.799873
v 1.481813 -0.018689 3.799873
v 1.481813 0.474992 3.799872
v 1.481813 -1.499736 3.799873
v 0.000767 -0.512372 4.351181
v 0.000767 -1.006054 4.351182
v 0.988131 -1.993418 4.351182
v 1.481813 -1.993418 4.844865
v 0.988131 -1.499736 4.844864
v 0.988131 -1.499736 4.351182
v 0.988131 -0.018689 4.844864
v 1.481813 0.474993 4.844864
v 0.988131 -0.018689 4.351182
v -0.492914 -1.006054 4.844865
v 0.000767 -0.512372 4.844865
v 0.000767 -1.006054 4.844865
v -1.480279 -1.499736 3.799873
v -1.480279 -0.018689 3.799873
v -1.480279 -1.993418 3.799873
v -1.480279 0.474992 3.799872
v -1.480279 -1.499736 4.351181
v -3.907881 -1.499736 3.799873
v -4.442370 -1.499737 -0.585640
v -3.907881 -1.499737 -0.012295
v -4.442370 -1.499736 4.351181
v -4.442370 -0.018690 -0.585640
v -3.907881 -0.018690 -0.012295
v -4.442370 -0.018689 4.351181
v -3.907881 -0.018689 3.799873
v -0.986597 -1.993418 4.351182
v -1.480279 -1.993418 4.844865
v -0.986597 -1.499736 4.351182
v -0.986597 -1.006054 4.351182
v -0.492915 -0.512372 4.844865
v -1.480279 -0.512372 5.338546
v -0.492915 -1.006054 5.338546
v -0.492915 -0.512372 5.338546
v -0.986597 -1.499736 4.844864
v -0.986597 -1.006054 4.844865
v -1.480279 -0.018689 4.351182
v -0.986597 -0.512372 4.844865
v -1.480279 -1.006054 5.338546
v -1.480279 -0.512372 4.844865
v -1.480279 -1.006054 4.844865
v -0.986597 -0.018689 4.844864
v -0.986597 -0.018689 4.351182
v -0.986597 -0.512372 4.351182
v -1.480279 0.474993 4.844864
vt 0.073338 0.781139
vt 0.019011 0.781139
vt 0.562286 0.781139
vt 0.019011 0.622063
vt 0.562285 0.622063
vt 0.562286 0.785046
vt 0.073338 0.622063
vt 0.073338 0.785046
vt 0.507958 0.785046
vt 0.073338 0.627922
vt 0.507958 0.627922
vt 0.562285 0.627922
vt 0.915437 0.528806
vt 0.915437 0.592607
vt 0.915437 0.592607
vt 0.823731 0.654676
vt 0.888742 0.654676
vt 0.888742 0.654676
vt 0.016452 0.969471
vt 0.984423 0.969471
vt 0.930647 0.969471
vt 0.016452 0.812018
vt 0.984423 0.812018
vt 0.984423 0.973346
vt 0.984423 0.973346
vt 0.984423 0.812018
vt 0.661766 0.812018
vt 0.933577 0.815924
vt 0.987353 0.815924
vt 0.019382 0.815924
vt 0.607990 0.973346
vt 0.607990 0.812018
vt 0.500438 0.865794
vt 0.599146 0.784009
vt 0.599146 0.720209
vt 0.599146 0.720209
vt 0.599146 0.528806
vt 0.599146 0.528806
vt 0.599146 0.465005
vt 0.596433 0.780591
vt 0.596433 0.780591
vt 0.660234 0.780591
vt 0.599146 0.784009
vt 0.660234 0.528806
vt 0.660234 0.720209
vt 0.660234 0.720209
vt 0.976913 0.779369
vt 0.976913 0.719578
vt 0.976913 0.659787
vt 0.915437 0.656408
vt 0.915437 0.720209
vt 0.915437 0.720209
vt 0.599146 0.465005
vt 0.979238 0.465005
vt 0.596433 0.465005
vt 0.596433 0.465005
vt 0.660234 0.528806
vt 0.758719 0.657606
vt 0.693708 0.657606
vt 0.693708 0.592595
vt 0.696637 0.592595
vt 0.696637 0.657606
vt 0.696637 0.657606
vt 0.758719 0.595524
vt 0.693708 0.595524
vt 0.693708 0.595524
vt 0.823731 0.654676
vt 0.758719 0.654676
vt 0.979238 0.720209
vt 0.596433 0.720209
vt 0.596433 0.784009
vt 0.500438 0.919570
vt 0.392885 0.919570
vt 0.392885 0.973346
vt 0.661766 0.812018
vt 0.661766 0.973346
vt 0.339109 0.973346
vt 0.392885 0.812018
vt 0.392885 0.865794
vt 0.979238 0.465005
vt 0.596433 0.528806
vt 0.979238 0.780591
vt 0.976138 0.784009
vt 0.976138 0.720209
vt 0.976138 0.720209
vt 0.976138 0.528806
vt 0.976138 0.528806
vt 0.976138 0.465005
vt 0.976138 0.784009
vt 0.596433 0.784009
vt 0.693708 0.654676
vt 0.693708 0.654676
vt 0.979238 0.780591
vt 0.070228 0.969471
vt 0.339109 0.969471
vt 0.339109 0.969471
vt 0.758719 0.592595
vt 0.758719 0.657606
vt 0.930647 0.969471
vt 0.984423 0.969471
vt 0.661766 0.969471
vt 0.070228 0.812018
vt 0.339109 0.812018
vt 0.758719 0.654676
vt 0.930647 0.973346
vt 0.930647 0.812018
vt 0.070228 0.812018
vt 0.339109 0.973346
vt 0.339109 0.812018
vt 0.016452 0.812018
vt 0.930647 0.812018
vt 0.930647 0.973346
vt 0.823731 0.595524
vt 0.823731 0.595524
vt 0.933577 0.815924
vt 0.664696 0.815924
vt 0.664696 0.815924
vt 0.562286 0.781139
vt 0.019011 0.781139
vt 0.073338 0.781139
vt 0.342039 0.815924
vt 0.342039 0.815924
vt 0.073158 0.815924
vt 0.073338 0.785046
vt 0.073338 0.622063
vt 0.507958 0.622063
vt 0.562285 0.622063
vt 0.019011 0.622063
vt 0.019011 0.785046
vt 0.073338 0.627922
vt 0.019011 0.627922
vt 0.562285 0.627922
vt 0.976138 0.465005
vt 0.979238 0.784009
vt 0.758719 0.595524
vt 0.888742 0.592595
vt 0.888742 0.657606
vt 0.915437 0.780591
vt 0.976138 0.656408
vt 0.979238 0.656408
vt 0.888742 0.595524
vt 0.888742 0.595524
vt 0.886789 0.592595
vt 0.886789 0.657606
vt 0.886789 0.657606
vt 0.979238 0.592607
vt 0.976138 0.592607
vt 0.507958 0.781139
vt 0.019011 0.785046
vt 0.507958 0.622063
vt 0.019011 0.627922
vt 0.915437 0.528806
vt 0.070228 0.969471
vt 0.016452 0.973346
vt 0.661766 0.973346
vt 0.073158 0.815924
vt 0.976913 0.586741
vt 0.976913 0.514114
vt 0.976913 0.477800
vt 0.915437 0.656408
vt 0.758719 0.592595
vt 0.696637 0.592595
vt 0.979238 0.784009
vt 0.979238 0.528806
vt 0.016452 0.969471
vt 0.661766 0.969471
vt 0.070228 0.973346
vt 0.070228 0.973346
vt 0.016452 0.973346
vt 0.987353 0.815924
vt 0.507958 0.781139
vt 0.019382 0.815924
vt 0.507958 0.785046
vt 0.562286 0.785046
vt 0.507958 0.627922
vt 0.886789 0.592595
vn -0.0000 -1.0000 0.0000
vn 1.0000 0.0000 0.0000
vn -1.0000 0.0000 0.0000
vn 0.0000 1.0000 -0.0000
vn 0.0000 0.0000 -1.0000
vn 0.0000 0.0000 1.0000
usemtl Material
s off
f 6/1/1 1/2/1 2/3/1
f 3/4/2 4/5/2 2/6/2
f 7/7/3 6/8/3 5/9/3
f 7/10/4 8/11/4 4/12/4
f 55/13/2 51/14/2 57/15/2
f 49/16/1 52/17/1 54/18/1
f 33/19/1 1/20/1 6/21/1
f 36/22/5 3/23/5 1/24/5
f 2/25/6 4/26/6 10/27/6
f 7/28/4 3/29/4 36/30/4
f 20/31/6 23/32/6 15/33/6
f 11/34/2 14/35/2 9/36/2
f 10/37/2 12/38/2 13/39/2
f 11/40/1 18/41/1 17/42/1
f 18/43/2 11/34/2 9/36/2
f 23/44/3 20/45/3 19/46/3
f 31/47/3 54/48/3 53/49/3
f 49/50/2 48/51/2 42/52/2
f 10/37/2 22/53/2 18/43/2
f 22/53/2 10/37/2 13/39/2
f 58/54/4 22/55/4 13/56/4
f 21/57/6 22/55/6 58/54/6
f 24/58/6 26/59/6 25/60/6
f 25/61/2 26/62/2 16/63/2
f 44/64/4 25/65/4 15/66/4
f 43/67/1 24/68/1 49/16/1
f 27/69/5 14/70/5 11/71/5
f 16/72/6 43/73/6 42/74/6
f 12/75/5 14/76/5 27/77/5
f 56/78/6 57/79/6 15/33/6
f 30/80/5 13/56/5 12/81/5
f 17/42/1 18/41/1 41/82/1
f 29/83/3 31/84/3 27/85/3
f 28/86/3 50/87/3 30/88/3
f 29/83/3 41/89/3 31/84/3
f 21/57/6 19/46/6 18/90/6
f 16/91/1 26/92/1 24/68/1
f 29/93/1 11/40/1 17/42/1
f 32/94/1 27/95/1 31/96/1
f 47/97/2 46/98/2 24/58/2
f 5/99/1 2/100/1 9/101/1
f 39/102/5 28/103/5 27/77/5
f 49/16/1 24/68/1 46/104/1
f 6/105/6 7/106/6 37/107/6
f 31/108/6 50/109/6 38/110/6
f 12/75/5 8/111/5 5/112/5
f 44/64/4 57/113/4 51/114/4
f 8/115/4 12/116/4 10/117/4
f 35/118/1 33/119/1 34/120/1
f 50/121/4 28/122/4 39/123/4
f 34/124/2 37/125/2 39/126/2
f 38/127/3 36/128/3 33/129/3
f 37/130/4 36/131/4 38/132/4
f 50/87/3 58/133/3 30/88/3
f 19/46/6 48/51/6 41/134/6
f 23/44/1 21/57/1 55/13/1
f 47/135/4 44/64/4 51/114/4
f 45/136/6 52/137/6 46/98/6
f 48/51/4 19/46/4 20/45/4
f 40/138/1 41/82/1 29/93/1
f 31/84/3 41/89/3 54/139/3
f 54/140/6 41/134/6 48/51/6
f 45/141/4 51/114/4 53/142/4
f 53/143/3 54/144/3 52/145/3
f 53/146/6 51/14/6 55/13/6
f 50/87/3 53/147/3 58/133/3
f 6/1/1 2/3/1 5/148/1
f 3/4/2 2/6/2 1/149/2
f 7/7/3 5/9/3 8/150/3
f 7/10/4 4/12/4 3/151/4
f 55/13/2 57/15/2 56/152/2
f 33/19/1 6/21/1 34/153/1
f 36/22/5 1/24/5 33/154/5
f 2/25/6 10/27/6 9/155/6
f 7/28/4 36/30/4 37/156/4
f 20/31/6 15/33/6 16/72/6
f 23/44/3 19/46/3 21/57/3
f 31/157/3 53/158/3 50/159/3
f 49/50/2 42/52/2 43/160/2
f 10/37/2 18/43/2 9/36/2
f 58/54/4 13/56/4 30/80/4
f 21/57/6 58/54/6 55/13/6
f 24/58/6 25/60/6 44/161/6
f 25/61/2 16/63/2 15/162/2
f 44/64/4 15/66/4 57/113/4
f 27/69/5 11/71/5 29/163/5
f 16/72/6 42/74/6 20/31/6
f 12/75/5 27/77/5 28/103/5
f 56/78/6 15/33/6 23/32/6
f 30/80/5 12/81/5 28/164/5
f 17/42/1 41/82/1 40/138/1
f 21/57/6 18/90/6 22/55/6
f 16/91/1 24/68/1 43/67/1
f 29/93/1 17/42/1 40/138/1
f 32/94/1 31/96/1 35/165/1
f 47/97/2 24/58/2 44/161/2
f 5/99/1 9/101/1 14/166/1
f 39/102/5 27/77/5 32/167/5
f 49/16/1 46/104/1 52/17/1
f 6/105/6 37/107/6 34/168/6
f 31/108/6 38/110/6 35/169/6
f 12/75/5 5/112/5 14/76/5
f 8/115/4 10/117/4 4/170/4
f 35/118/1 34/120/1 32/171/1
f 50/121/4 39/123/4 38/172/4
f 34/124/2 39/126/2 32/173/2
f 38/127/3 33/129/3 35/174/3
f 37/130/4 38/132/4 39/175/4
f 19/46/6 41/134/6 18/90/6
f 23/44/1 55/13/1 56/152/1
f 47/135/4 51/114/4 45/141/4
f 45/136/6 46/98/6 47/97/6
f 48/51/4 20/45/4 42/52/4
f 54/140/6 48/51/6 49/50/6
f 53/143/3 52/145/3 45/176/3
f 53/146/6 55/13/6 58/54/6
