# Blender v2.79 (sub 0) OBJ File: 'cupid_bow.blend'
# www.blender.org
o cupid_arrow
v -0.018000 -0.054000 0.625405
v 0.018000 -0.054000 0.625405
v 0.018000 -0.054000 0.589405
v -0.018000 0.090000 0.337405
v 0.018000 0.090000 0.337405
v 0.018000 0.054000 0.337405
v 0.018000 0.018000 0.589405
v 0.018000 0.018000 0.301405
v 0.018000 0.054000 0.301405
v 0.018000 0.018000 -0.562595
v -0.018000 0.018000 -0.562595
v -0.018000 0.018000 0.301405
v -0.018000 -0.054000 0.337405
v -0.018000 -0.090000 0.337405
v -0.018000 -0.018000 0.301405
v -0.018000 -0.018000 -0.562595
v 0.018000 -0.018000 -0.562595
v -0.018000 0.018000 0.589405
v -0.018000 -0.018000 0.589405
v 0.018000 -0.018000 0.589405
v 0.018000 -0.018000 0.301405
v 0.018000 -0.054000 0.337405
v -0.018000 -0.054000 0.301405
v -0.018000 0.054000 0.337405
v 0.018000 -0.054000 0.301405
v 0.018000 -0.090000 0.337405
v -0.018000 -0.054000 0.589405
v 0.018000 0.090000 0.625405
v -0.018000 0.090000 0.625405
v -0.018000 0.054000 0.625405
v -0.018000 0.054000 0.301405
v 0.018000 0.054000 0.625405
v -0.018000 0.054000 0.589405
v 0.018000 0.054000 0.589405
v -0.018000 -0.090000 0.625405
v 0.018000 -0.090000 0.625405
v 0.036000 0.018000 -0.742595
v 0.036000 0.054000 -0.742595
v 0.036000 0.054000 -0.706595
v -0.036000 0.018000 -0.562595
v -0.036000 -0.018000 -0.562595
v 0.036000 -0.018000 -0.562595
v -0.036000 0.126000 -0.670595
v -0.036000 0.126000 -0.562595
v 0.036000 0.126000 -0.562595
v -0.036000 -0.018000 -0.778595
v -0.036000 0.018000 -0.778595
v 0.036000 0.018000 -0.778595
v -0.036000 0.090000 -0.526595
v 0.036000 0.090000 -0.526595
v 0.036000 0.090000 -0.562595
v 0.036000 0.018000 -0.526595
v -0.036000 0.054000 -0.742595
v 0.036000 -0.090000 -0.706595
v -0.036000 -0.090000 -0.706595
v -0.036000 -0.054000 -0.706595
v -0.036000 -0.090000 -0.526595
v 0.036000 -0.090000 -0.526595
v 0.036000 -0.018000 -0.526595
v 0.036000 -0.054000 -0.706595
v 0.036000 -0.054000 -0.742595
v 0.036000 -0.018000 -0.742595
v 0.036000 -0.090000 -0.562595
v 0.036000 0.126000 -0.670595
v 0.036000 0.090000 -0.670595
v -0.036000 -0.054000 -0.742595
v -0.036000 -0.018000 -0.742595
v 0.036000 -0.018000 -0.778595
v 0.036000 0.018000 -0.562595
v -0.036000 -0.126000 -0.562595
v 0.036000 -0.126000 -0.562595
v -0.036000 0.054000 -0.706595
v -0.036000 0.090000 -0.562595
v -0.036000 0.090000 -0.706595
v -0.036000 0.090000 -0.670595
v -0.036000 0.018000 -0.742595
v 0.036000 0.090000 -0.706595
v -0.036000 -0.018000 -0.526595
v 0.036000 -0.126000 -0.670595
v -0.036000 -0.126000 -0.670595
v -0.036000 -0.090000 -0.670595
v -0.036000 -0.090000 -0.562595
v 0.036000 -0.090000 -0.670595
v -0.036000 0.018000 -0.526595
vt 0.605255 0.096162
vt 0.578934 0.153852
vt 0.578934 0.096162
vt 0.842056 0.432580
vt 0.815750 0.413354
vt 0.815750 0.432580
vt 0.684204 0.172979
vt 0.736832 0.211446
vt 0.684204 0.211446
vt 0.578934 0.172975
vt 0.526306 0.153741
vt 0.578934 0.153741
vt 0.815781 0.172975
vt 0.763153 0.153741
vt 0.815781 0.153741
vt 0.763168 0.230664
vt 0.736847 0.413354
vt 0.736847 0.230664
vt 0.815796 0.394235
vt 0.789474 0.413461
vt 0.789474 0.394235
vt 0.710510 0.980668
vt 0.684189 0.403749
vt 0.684189 0.980668
vt 0.789459 0.211446
vt 0.815781 0.172979
vt 0.815781 0.211446
vt 0.815781 0.076820
vt 0.763153 0.057591
vt 0.763153 0.076820
vt 0.657883 0.980729
vt 0.684204 0.403863
vt 0.684204 0.980729
vt 0.921051 0.172975
vt 0.973679 0.153741
vt 0.921051 0.153741
vt 0.789490 0.211431
vt 0.763168 0.394120
vt 0.763168 0.211431
vt 0.763336 0.394120
vt 0.789658 0.211431
vt 0.789658 0.394120
vt 0.526306 0.057591
vt 0.578934 0.076820
vt 0.578934 0.057591
vt 0.842056 0.413354
vt 0.815735 0.432580
vt 0.815735 0.413354
vt 0.789474 0.432473
vt 0.763168 0.413247
vt 0.763168 0.432473
vt 0.763153 0.413247
vt 0.736847 0.432473
vt 0.736847 0.413247
vt 0.789474 0.394235
vt 0.815796 0.413461
vt 0.789474 0.413461
vt 0.789474 0.211534
vt 0.763153 0.394227
vt 0.763153 0.211534
vt 0.815796 0.394235
vt 0.789474 0.394235
vt 0.815781 0.096162
vt 0.842102 0.153852
vt 0.842102 0.096162
vt 1.000000 0.153852
vt 0.973679 0.096162
vt 0.973679 0.153852
vt 0.736832 0.173085
vt 0.684204 0.153852
vt 0.736832 0.153852
vt 0.605255 0.173085
vt 0.657883 0.153852
vt 0.657883 0.173085
vt 0.736847 0.413354
vt 0.763168 0.230664
vt 0.763168 0.413354
vt 0.815781 0.076820
vt 0.763153 0.096051
vt 0.763153 0.076820
vt 0.763168 0.432473
vt 0.736847 0.413247
vt 0.736847 0.432473
vt 0.789474 0.211541
vt 0.815796 0.394235
vt 0.789474 0.394235
vt 0.894730 0.057700
vt 0.868408 0.057700
vt 0.868408 0.076930
vt 0.815781 0.172975
vt 0.763153 0.153741
vt 0.815781 0.153741
vt 0.894714 0.172979
vt 0.868408 0.211446
vt 0.868408 0.172979
vt 0.579025 0.211446
vt 0.605347 0.172979
vt 0.605347 0.211446
vt 0.763153 0.172979
vt 0.736832 0.211446
vt 0.736832 0.172979
vt 0.684204 0.211557
vt 0.657883 0.403863
vt 0.657883 0.211557
vt 0.657883 0.403764
vt 0.631561 0.980668
vt 0.631561 0.403764
vt 0.789474 0.394235
vt 0.815796 0.413461
vt 0.789474 0.413461
vt 0.578934 0.172975
vt 0.526306 0.153741
vt 0.578934 0.153741
vt 0.947357 0.076930
vt 0.947357 0.057700
vt 0.921051 0.057700
vt 0.684204 0.211446
vt 0.657883 0.172979
vt 0.684204 0.172979
vt 0.815781 0.211446
vt 0.842087 0.172979
vt 0.842087 0.211446
vt 0.605255 0.211446
vt 0.657883 0.172979
vt 0.657883 0.211446
vt 0.763153 0.211446
vt 0.789459 0.172979
vt 0.789459 0.211446
vt 0.736832 0.211557
vt 0.710510 0.403863
vt 0.710510 0.211557
vt 0.842102 0.096051
vt 0.842102 0.153741
vt 0.894730 0.153741
vt 0.578934 0.076820
vt 0.526306 0.096051
vt 0.526306 0.076820
vt 0.710312 0.999772
vt 0.684265 0.980744
vt 0.710312 0.980744
vt 0.815781 0.038360
vt 0.763153 0.057591
vt 0.815781 0.057591
vt 0.921036 0.172979
vt 0.894714 0.211446
vt 0.894714 0.172979
vt 0.815735 0.413354
vt 0.789429 0.432580
vt 0.789429 0.413354
vt 0.763168 0.230767
vt 0.736847 0.413461
vt 0.736847 0.230767
vt 0.684204 0.038469
vt 0.657883 0.057700
vt 0.657883 0.038469
vt 0.763168 0.230767
vt 0.736847 0.413461
vt 0.736847 0.230767
vt 0.526306 0.096051
vt 0.578934 0.153741
vt 0.526306 0.153741
vt 0.868408 0.211446
vt 0.842087 0.172979
vt 0.868408 0.172979
vt 0.526306 0.057591
vt 0.578934 0.038360
vt 0.578934 0.057591
vt 0.789474 0.211534
vt 0.763153 0.394227
vt 0.763153 0.211534
vt 0.736832 0.096162
vt 0.605255 0.076930
vt 0.631577 0.076930
vt 0.815750 0.432580
vt 0.789429 0.413354
vt 0.789429 0.432580
vt 0.789474 0.394235
vt 0.815796 0.413461
vt 0.789474 0.413461
vt 0.631577 0.057700
vt 0.710526 0.076930
vt 0.736832 0.076930
vt 0.710510 0.980729
vt 0.736832 0.403863
vt 0.736832 0.980729
vt 0.894730 0.153852
vt 0.921051 0.153852
vt 0.763153 0.096162
vt 0.763153 0.153852
vt 0.605255 0.153852
vt 0.710526 0.057700
vt 0.789474 0.413247
vt 0.763153 0.432473
vt 0.763153 0.413247
vt 0.815781 0.153741
vt 0.763153 0.096051
vt 0.763153 0.153741
vt 0.842102 0.076930
vt 0.947357 0.172979
vt 0.921036 0.211446
vt 0.921036 0.172979
vt 0.973679 0.076930
vt 0.894730 0.038469
vt 0.921051 0.038469
vt 0.973679 0.096051
vt 0.684204 0.057700
vt 0.894730 0.172975
vt 0.842102 0.172975
vt 0.842056 0.413354
vt 0.736832 0.172979
vt 0.526306 0.172975
vt 0.763153 0.172975
vt 0.763168 0.413354
vt 0.815796 0.413461
vt 0.710510 0.403749
vt 0.789459 0.172979
vt 0.815781 0.057591
vt 0.973679 0.172975
vt 0.789490 0.394120
vt 0.763336 0.211431
vt 0.526306 0.076820
vt 0.842056 0.432580
vt 0.789474 0.413247
vt 0.763153 0.432473
vt 0.815796 0.394235
vt 0.815796 0.211541
vt 0.815781 0.153852
vt 1.000000 0.096162
vt 0.684204 0.173085
vt 0.736847 0.230664
vt 0.815781 0.096051
vt 0.763168 0.413247
vt 0.815796 0.211541
vt 0.763153 0.172975
vt 0.894714 0.211446
vt 0.579025 0.172979
vt 0.763153 0.211446
vt 0.815796 0.394235
vt 0.526306 0.172975
vt 0.657883 0.211446
vt 0.815781 0.172979
vt 0.605255 0.172979
vt 0.763153 0.172979
vt 0.578934 0.096051
vt 0.684265 0.999772
vt 0.763153 0.038360
vt 0.921036 0.211446
vt 0.815735 0.432580
vt 0.763168 0.413461
vt 0.763168 0.413461
vt 0.578934 0.096051
vt 0.842087 0.211446
vt 0.526306 0.038360
vt 0.789474 0.394227
vt 0.815750 0.413354
vt 0.815796 0.394235
vt 0.789474 0.432473
vt 0.815781 0.096051
vt 0.947357 0.211446
vn -1.0000 0.0000 0.0000
vn 0.0000 0.0000 1.0000
vn 0.0000 1.0000 0.0000
vn 0.0000 -1.0000 0.0000
vn 1.0000 0.0000 -0.0000
vn 0.0000 0.0000 -1.0000
s 1
f 75/1/1 44/2/1 43/3/1
f 35/4/2 2/5/2 1/6/2
f 52/7/2 49/8/2 84/9/2
f 78/10/3 42/11/3 41/12/3
f 58/13/4 82/14/4 63/15/4
f 7/16/5 9/17/5 34/18/5
f 22/19/4 23/20/4 25/21/4
f 8/22/3 11/23/3 12/24/3
f 74/25/6 39/26/6 72/27/6
f 56/28/4 61/29/4 60/30/4
f 16/31/1 12/32/1 11/33/1
f 59/34/5 63/35/5 42/36/5
f 32/37/5 5/38/5 28/39/5
f 22/40/5 36/41/5 26/42/5
f 53/43/3 39/44/3 38/45/3
f 28/46/2 30/47/2 32/48/2
f 4/49/6 6/50/6 24/51/6
f 25/52/6 15/53/6 21/54/6
f 1/55/3 3/56/3 27/57/3
f 29/58/1 24/59/1 30/60/1
f 29/58/3 5/61/3 4/62/3
f 64/63/5 51/64/5 65/65/5
f 71/66/5 83/67/5 63/68/5
f 57/69/1 41/70/1 82/71/1
f 49/72/1 40/73/1 84/74/1
f 21/75/5 3/76/5 25/77/5
f 54/78/4 81/79/4 55/80/4
f 31/81/6 8/82/6 12/83/6
f 36/84/4 14/85/4 26/86/4
f 37/87/5 38/88/5 39/89/5
f 52/90/4 40/91/4 69/92/4
f 61/93/6 67/94/6 62/95/6
f 70/96/2 63/97/2 82/98/2
f 45/99/2 73/100/2 51/101/2
f 18/102/1 15/103/1 19/104/1
f 15/105/4 17/106/4 21/107/4
f 24/108/3 9/109/3 31/110/3
f 49/111/3 51/112/3 73/113/3
f 60/114/5 61/115/5 62/116/5
f 40/117/2 42/118/2 69/119/2
f 53/120/6 37/121/6 76/122/6
f 57/123/2 59/124/2 78/125/2
f 43/126/6 65/127/6 75/128/6
f 20/129/5 8/130/5 7/131/5
f 65/132/5 51/133/5 69/134/5
f 74/135/3 65/136/3 77/137/3
f 18/138/2 20/139/2 7/140/2
f 48/141/3 76/142/3 37/143/3
f 54/144/6 56/145/6 60/146/6
f 34/147/2 18/148/2 7/149/2
f 33/150/1 12/151/1 18/152/1
f 46/153/1 76/154/1 47/155/1
f 19/156/1 23/157/1 27/158/1
f 64/159/3 44/160/3 45/161/3
f 46/162/6 48/163/6 68/164/6
f 67/165/4 68/166/4 62/167/4
f 1/168/1 14/169/1 35/170/1
f 81/171/1 82/71/1 41/70/1
f 75/1/1 74/172/1 72/173/1
f 27/174/2 20/175/2 19/176/2
f 32/177/4 33/178/4 34/179/4
f 72/173/1 53/180/1 76/154/1
f 56/181/1 55/182/1 81/171/1
f 10/183/5 21/184/5 17/185/5
f 60/114/5 69/186/5 42/187/5
f 80/188/1 70/189/1 82/71/1
f 40/73/1 73/190/1 75/1/1
f 66/191/1 56/181/1 72/173/1
f 26/192/6 13/193/6 22/194/6
f 70/195/4 79/196/4 71/197/4
f 39/89/5 77/198/5 65/65/5
f 56/181/1 41/70/1 40/73/1
f 79/199/6 81/200/6 83/201/6
f 83/67/5 54/202/5 60/114/5
f 48/203/5 62/116/5 68/204/5
f 72/173/1 56/181/1 40/73/1
f 63/35/5 83/205/5 42/36/5
f 60/114/5 37/87/5 39/89/5
f 37/87/5 60/114/5 62/116/5
f 39/89/5 65/132/5 69/134/5
f 40/73/1 75/1/1 72/173/1
f 67/206/1 72/173/1 76/154/1
f 67/206/1 66/191/1 72/173/1
f 42/187/5 83/67/5 60/114/5
f 52/207/5 51/133/5 50/208/5
f 75/1/1 73/190/1 44/2/1
f 35/4/2 36/209/2 2/5/2
f 52/7/2 50/210/2 49/8/2
f 78/10/3 59/211/3 42/11/3
f 58/13/4 57/212/4 82/14/4
f 7/16/5 8/213/5 9/17/5
f 22/19/4 13/214/4 23/20/4
f 8/22/3 10/215/3 11/23/3
f 74/25/6 77/216/6 39/26/6
f 56/28/4 66/217/4 61/29/4
f 16/31/1 15/103/1 12/32/1
f 59/34/5 58/218/5 63/35/5
f 32/37/5 6/219/5 5/38/5
f 22/40/5 2/220/5 36/41/5
f 53/43/3 72/221/3 39/44/3
f 28/46/2 29/222/2 30/47/2
f 4/49/6 5/223/6 6/50/6
f 25/52/6 23/224/6 15/53/6
f 1/55/3 2/225/3 3/56/3
f 29/58/1 4/62/1 24/59/1
f 29/58/3 28/226/3 5/61/3
f 64/63/5 45/227/5 51/64/5
f 71/66/5 79/228/5 83/67/5
f 57/69/1 78/229/1 41/70/1
f 49/72/1 73/190/1 40/73/1
f 21/75/5 20/230/5 3/76/5
f 54/78/4 83/231/4 81/79/4
f 31/81/6 9/232/6 8/82/6
f 36/84/4 35/233/4 14/85/4
f 52/90/4 84/234/4 40/91/4
f 61/93/6 66/235/6 67/94/6
f 70/96/2 71/236/2 63/97/2
f 45/99/2 44/237/2 73/100/2
f 18/102/1 12/32/1 15/103/1
f 15/105/4 16/31/4 17/106/4
f 24/108/3 6/238/3 9/109/3
f 49/111/3 50/239/3 51/112/3
f 40/117/2 41/240/2 42/118/2
f 53/120/6 38/241/6 37/121/6
f 57/123/2 58/242/2 59/124/2
f 43/126/6 64/243/6 65/127/6
f 20/129/5 21/184/5 8/130/5
f 74/135/3 75/244/3 65/136/3
f 18/138/2 19/245/2 20/139/2
f 48/141/3 47/246/3 76/142/3
f 54/144/6 55/247/6 56/145/6
f 34/147/2 33/248/2 18/148/2
f 33/150/1 31/249/1 12/151/1
f 46/153/1 67/206/1 76/154/1
f 19/156/1 15/250/1 23/157/1
f 64/159/3 43/251/3 44/160/3
f 46/162/6 47/252/6 48/163/6
f 67/165/4 46/253/4 68/166/4
f 1/168/1 13/254/1 14/169/1
f 81/171/1 80/188/1 82/71/1
f 27/174/2 3/255/2 20/175/2
f 32/177/4 30/256/4 33/178/4
f 10/183/5 8/130/5 21/184/5
f 60/114/5 39/89/5 69/186/5
f 26/192/6 14/257/6 13/193/6
f 70/195/4 80/258/4 79/196/4
f 56/181/1 81/171/1 41/70/1
f 79/199/6 80/259/6 81/200/6
f 48/203/5 37/87/5 62/116/5
f 52/207/5 69/134/5 51/133/5
