# Blender v2.79 (sub 0) OBJ File: 'cupid_bow.blend'
# www.blender.org
o cupid_bow
v 0.050000 -1.250000 -0.049875
v 0.050000 -1.250000 -0.249875
v 0.050000 -1.150000 -0.249875
v -0.050000 -1.050000 -0.349875
v 0.050000 -1.050000 -0.349875
v 0.050000 -1.150000 -0.349875
v 0.050000 -1.150000 0.050125
v -0.050000 -1.150000 0.050125
v -0.050000 -1.150000 -0.049875
v -0.050000 -0.350000 -0.149875
v -0.050000 -0.350000 -0.249875
v -0.050000 -0.450000 -0.249875
v 0.050000 -0.450000 -0.249875
v 0.050000 -0.550000 -0.249875
v -0.050000 -0.550000 -0.249875
v 0.050000 -0.850000 -0.149875
v 0.050000 -0.850000 -0.049875
v -0.050000 -0.850000 -0.049875
v -0.050000 -0.850000 -0.149875
v -0.050000 -0.550000 -0.149875
v -0.050000 -0.450000 -0.149875
v 0.050000 -0.350000 -0.149875
v -0.050000 -0.150000 -0.349875
v 0.050000 -0.150000 -0.349875
v 0.050000 -0.450000 -0.349875
v -0.050000 -0.450000 -0.349875
v -0.050000 -0.750000 0.050125
v -0.025000 -0.050000 -0.224875
v 0.025000 -0.050000 -0.224875
v 0.050000 -0.050000 -0.249875
v 0.050000 -0.550000 -0.149875
v 0.050000 -0.450000 -0.149875
v 0.050000 -0.450000 -0.049875
v 0.050000 -1.050000 -0.249875
v 0.050000 -0.050000 -0.149875
v -0.050000 -0.050000 -0.149875
v -0.050000 -0.150000 -0.149875
v -0.050000 -0.750000 -0.049875
v -0.050000 -0.550000 -0.049875
v 0.050000 -0.150000 -0.249875
v 0.050000 -0.350000 -0.249875
v -0.050000 -1.050000 -0.249875
v -0.050000 -1.150000 -0.349875
v -0.050000 -0.150000 -0.249875
v 0.050000 -0.150000 -0.149875
v 0.025000 -0.050000 -0.174875
v -0.050000 -1.250000 -0.049875
v 0.050000 -1.150000 -0.049875
v -0.050000 -0.450000 -0.049875
v -0.050000 -1.150000 -0.249875
v -0.050000 -1.250000 -0.249875
v 0.050000 -0.750000 0.050125
v -0.050000 -0.050000 -0.249875
v -0.025000 -0.050000 -0.174875
v 0.050000 -0.750000 -0.049875
v -0.025000 0.050000 -0.174875
v -0.025000 0.050000 -0.224875
v 0.025000 0.050000 -0.224875
v 0.025000 0.050000 -0.174875
v -0.050000 0.450000 -0.249875
v -0.050000 0.550000 -0.249875
v 0.050000 0.550000 -0.249875
v -0.050000 0.850000 -0.149875
v -0.050000 0.850000 -0.049875
v 0.050000 0.850000 -0.049875
v 0.050000 0.850000 -0.149875
v 0.050000 0.550000 -0.149875
v 0.050000 0.450000 -0.149875
v -0.050000 0.350000 -0.149875
v 0.050000 0.350000 -0.149875
v 0.050000 0.150000 -0.349875
v -0.050000 0.150000 -0.349875
v -0.050000 0.450000 -0.349875
v 0.050000 0.450000 -0.349875
v 0.050000 1.150000 0.050125
v 0.050000 0.750000 0.050125
v -0.050000 0.050000 -0.249875
v -0.050000 0.550000 -0.149875
v -0.050000 0.450000 -0.149875
v -0.050000 0.450000 -0.049875
v -0.050000 1.050000 -0.349875
v -0.050000 1.050000 -0.249875
v -0.050000 1.150000 -0.249875
v -0.050000 0.050000 -0.149875
v 0.050000 0.050000 -0.149875
v 0.050000 0.150000 -0.149875
v 0.050000 0.750000 -0.049875
v 0.050000 0.550000 -0.049875
v -0.050000 0.150000 -0.249875
v -0.050000 0.350000 -0.249875
v 0.050000 1.050000 -0.249875
v 0.050000 1.050000 -0.349875
v 0.050000 1.150000 -0.349875
v 0.050000 0.150000 -0.249875
v -0.050000 0.150000 -0.149875
v 0.050000 1.250000 -0.049875
v -0.050000 1.250000 -0.049875
v -0.050000 1.150000 -0.049875
v 0.050000 0.350000 -0.249875
v 0.050000 0.450000 -0.049875
v 0.050000 1.150000 -0.249875
v 0.050000 1.150000 -0.049875
v -0.050000 1.150000 -0.349875
v -0.050000 1.250000 -0.249875
v 0.050000 1.250000 -0.249875
v -0.050000 1.150000 0.050125
v -0.050000 0.750000 0.050125
v 0.050000 0.050000 -0.249875
v 0.050000 0.450000 -0.249875
v -0.050000 0.750000 -0.049875
vt 0.157803 0.346154
vt 0.210434 0.307695
vt 0.157803 0.307695
vt 0.157906 0.961457
vt 0.210537 0.999910
vt 0.210537 0.961457
vt 0.421059 0.999910
vt 0.368431 0.961457
vt 0.368431 0.999910
vt 0.210537 0.961457
vt 0.105274 0.999910
vt 0.210537 0.999910
vt 0.157803 0.461541
vt 0.210434 0.423074
vt 0.157803 0.423074
vt 0.157906 0.961457
vt 0.105274 0.999910
vt 0.157906 0.999910
vt 0.421059 0.999910
vt 0.315796 0.961457
vt 0.315796 0.999910
vt 0.157803 0.269235
vt 0.105173 0.307695
vt 0.263062 0.884614
vt 0.210434 0.923066
vt 0.263062 0.923066
vt 0.197376 0.499879
vt 0.171062 0.461427
vt 0.197376 0.461427
vt 0.473694 0.999910
vt 0.421059 0.961457
vt 0.421059 0.999910
vt 0.105274 0.999910
vt 0.157906 0.961457
vt 0.105274 0.961457
vt 0.052629 0.346101
vt 0.000035 0.307634
vt 0.052629 0.307634
vt 0.052629 0.922990
vt 0.000060 0.769136
vt 0.052629 0.769136
vt 0.052549 0.038470
vt 0.052549 0.192312
vt 0.105173 0.153852
vt 0.407898 0.971070
vt 0.407898 0.990297
vt 0.421059 0.999910
vt 0.421066 0.692186
vt 0.421066 0.653733
vt 0.473701 0.653733
vt 0.210434 0.269235
vt 0.263138 0.307794
vt 0.315773 0.269334
vt 0.315773 0.307794
vt 0.105173 0.192312
vt 0.105173 0.269235
vt 0.315804 0.538346
vt 0.368439 0.538346
vt 0.368439 0.615266
vt 0.000058 0.499940
vt 0.052629 0.538346
vt 0.000042 0.538346
vt 0.052629 0.961351
vt 0.000031 0.922883
vt 0.052629 0.922883
vt 0.315773 0.961625
vt 0.263138 0.923158
vt 0.315773 0.923158
vt 0.381584 0.990297
vt 0.368431 0.999910
vt 0.315773 0.653932
vt 0.263138 0.692399
vt 0.263138 0.653932
vt 0.263062 0.423074
vt 0.263062 0.307695
vt 0.210434 0.346154
vt 0.368431 0.961457
vt 0.421059 0.999910
vt 0.421059 0.961457
vt 0.000059 0.653749
vt 0.052629 0.653749
vt 0.052629 0.692216
vt 0.210434 0.615373
vt 0.157803 0.653840
vt 0.210434 0.653840
vt 0.368439 0.038370
vt 0.473701 -0.000030
vt 0.473701 0.038370
vt 0.052649 0.961457
vt 0.105274 0.999910
vt 0.105274 0.961457
vt 0.052629 0.076892
vt 0.000035 0.038434
vt 0.052629 0.038434
vt 0.368439 0.499879
vt 0.421066 0.538346
vt 0.157906 0.961457
vt 0.105274 0.999910
vt 0.157906 0.999910
vt 0.421059 0.999910
vt 0.315796 0.961457
vt 0.315796 0.999910
vt 0.210537 0.961457
vt 0.105274 0.999910
vt 0.210537 0.999910
vt 0.052649 0.961457
vt 0.105274 0.999910
vt 0.105274 0.961457
vt 0.263168 0.999910
vt 0.210537 0.961457
vt 0.210537 0.999910
vt 0.000032 0.000069
vt 0.052629 0.038434
vt 0.000046 0.038434
vt 0.263138 0.500093
vt 0.315773 0.538545
vt 0.263138 0.538545
vt 0.381584 0.971070
vt 0.368431 0.961457
vt 0.473694 0.999910
vt 0.421059 0.961457
vt 0.421059 0.999910
vt 0.368431 0.961457
vt 0.315796 0.999910
vt 0.368431 0.999910
vt 0.368439 0.653733
vt 0.315804 0.653733
vt 0.368439 0.269128
vt 0.421066 0.307588
vt 0.368439 0.307588
vt 0.421059 0.961457
vt 0.263168 0.999910
vt 0.210537 0.961457
vt 0.210537 0.999910
vt 0.473701 0.769105
vt 0.526321 0.769105
vt 0.473701 0.807572
vt 0.526321 0.922960
vt 0.473701 0.922960
vt 0.276314 0.461541
vt 0.302628 0.500001
vt 0.276314 0.500001
vt 0.315796 0.999910
vt 0.368431 0.961457
vt 0.315796 0.961457
vt 0.368439 0.346048
vt 0.421066 0.346048
vt 0.263138 0.538545
vt 0.315773 0.653932
vt 0.263138 0.653932
vt 0.368439 0.076831
vt 0.315804 0.038370
vt 0.263176 0.961457
vt 0.315796 0.999910
vt 0.315796 0.961457
vt 0.315773 0.423181
vt 0.263138 0.307794
vt 0.315773 0.307794
vt 0.052649 0.961457
vt 0.105274 0.999910
vt 0.105274 0.961457
vt 0.473701 0.961427
vt 0.368439 0.922960
vt 0.000031 0.884538
vt 0.052629 0.922990
vt 0.000031 0.922990
vt 0.315773 0.923158
vt 0.263138 0.807771
vt 0.315773 0.807771
vt 0.526321 0.038370
vt 0.526321 0.192208
vt 0.473701 0.153749
vt 0.118433 0.990297
vt 0.118433 0.971070
vt 0.105274 0.961457
vt 0.157803 0.692292
vt 0.105173 0.653840
vt 0.263138 0.000140
vt 0.315773 0.038569
vt 0.263138 0.038569
vt 0.315773 0.077030
vt 0.263138 0.038569
vt 0.315773 0.038569
vt 0.473701 0.192208
vt 0.473701 0.269128
vt 0.421066 0.269128
vt 0.263062 0.538453
vt 0.210434 0.538453
vt 0.052629 0.461381
vt 0.000057 0.422921
vt 0.052629 0.422921
vt 0.421059 0.999910
vt 0.368431 0.961457
vt 0.368431 0.999910
vt 0.473701 0.307588
vt 0.144749 0.971070
vt 0.157906 0.961457
vt 0.052629 0.346101
vt 0.000058 0.423028
vt 0.000033 0.346101
vt 0.315804 0.422967
vt 0.315804 0.307588
vt 0.421066 0.461435
vt 0.368439 0.422967
vt 0.421066 0.422967
vt 0.052629 0.307634
vt 0.000050 0.307634
vt 0.000049 0.269166
vt 0.473694 0.999910
vt 0.421059 0.961457
vt 0.421059 0.999910
vt 0.263138 0.038569
vt 0.315773 0.153951
vt 0.263138 0.153951
vt 0.000053 0.038434
vt 0.052629 0.192269
vt 0.000055 0.192269
vt 0.105173 0.961534
vt 0.105173 0.923066
vt 0.315804 0.884507
vt 0.315804 0.922960
vt 0.263138 0.884706
vt 0.315773 0.923158
vt 0.263138 0.923158
vt 0.052649 0.961457
vt 0.105274 0.999910
vt 0.105274 0.961457
vt 0.210434 0.038470
vt 0.105173 0.000069
vt 0.105173 0.038470
vt 0.407890 0.461541
vt 0.381577 0.500001
vt 0.407890 0.500001
vt 0.210537 0.999910
vt 0.157906 0.961457
vt 0.157906 0.999910
vt 0.315773 0.807771
vt 0.263138 0.692399
vt 0.315773 0.692399
vt 0.315781 0.461427
vt 0.263145 0.422967
vt 0.315781 0.422967
vt 0.000059 0.615266
vt 0.052629 0.653749
vt 0.000059 0.653749
vt 0.144749 0.990297
vt 0.157906 0.999910
vt 0.368439 0.692186
vt 0.263062 0.653840
vt 0.210434 0.499986
vt 0.157803 0.538453
vt 0.105274 0.999910
vt 0.263176 0.961457
vt 0.315796 0.999910
vt 0.315796 0.961457
vt 0.105173 0.769212
vt 0.052549 0.769212
vt 0.105173 0.807679
vt 0.052549 0.923066
vt 0.473694 0.999910
vt 0.421059 0.961457
vt 0.421059 0.999910
vt 0.000059 0.615266
vt 0.052629 0.538346
vt 0.052629 0.615266
vt 0.210434 0.692292
vt 0.039474 0.500001
vt 0.013158 0.461541
vt 0.039474 0.461541
vt 0.052629 0.769136
vt 0.000060 0.769136
vt 0.421066 0.807572
vt 0.000048 0.192269
vt 0.052629 0.192269
vt 0.157803 0.807679
vt 0.263138 0.153951
vt 0.315773 0.269334
vt 0.263138 0.269334
vt 0.157803 0.153852
vt 0.421066 0.153749
vt 0.210434 0.076932
vt 0.263062 0.038470
vt 0.157906 0.999910
vt 0.421059 0.961457
vt 0.105274 0.961457
vt 0.210434 0.461541
vt 0.105274 0.961457
vt 0.421059 0.961457
vt 0.210434 0.884614
vt 0.171062 0.499879
vt 0.473694 0.961457
vt 0.157906 0.999910
vt 0.000036 0.346101
vt 0.000031 0.922990
vt 0.263138 0.269334
vt 0.052629 0.499940
vt 0.000052 0.961351
vt 0.263138 0.961625
vt 0.315773 0.692399
vt 0.368431 0.999910
vt 0.157803 0.615373
vt 0.368439 -0.000030
vt 0.052649 0.999910
vt 0.000035 0.076892
vt 0.421066 0.499879
vt 0.105274 0.961457
vt 0.421059 0.961457
vt 0.105274 0.961457
vt 0.052649 0.999910
vt 0.263168 0.961457
vt 0.052629 0.000069
vt 0.315773 0.500093
vt 0.473694 0.961457
vt 0.315796 0.961457
vt 0.263168 0.961457
vt 0.302628 0.461541
vt 0.368431 0.999910
vt 0.315773 0.538545
vt 0.315804 0.076831
vt 0.263176 0.999910
vt 0.263138 0.423181
vt 0.052649 0.999910
vt 0.368439 0.961427
vt 0.052629 0.884538
vt 0.263138 0.923158
vt 0.315773 0.000140
vt 0.263138 0.077030
vt 0.000039 0.461381
vt 0.421059 0.961457
vt 0.052629 0.423028
vt 0.368439 0.461435
vt 0.473694 0.961457
vt 0.315773 0.038569
vt 0.052629 0.038434
vt 0.210434 0.961534
vt 0.368439 0.884507
vt 0.315773 0.884706
vt 0.052649 0.999910
vt 0.210434 0.000069
vt 0.381577 0.461541
vt 0.210537 0.961457
vt 0.263138 0.807771
vt 0.263145 0.461427
vt 0.421066 0.615266
vt 0.052629 0.615266
vt 0.157803 0.499986
vt 0.263176 0.999910
vt 0.473694 0.961457
vt 0.000042 0.538346
vt 0.013158 0.500001
vt 0.315773 0.153951
vt 0.263062 0.076932
vn -1.0000 0.0000 0.0000
vn 0.0000 -1.0000 0.0000
vn 0.0000 1.0000 0.0000
vn 0.0000 0.0000 1.0000
vn 1.0000 0.0000 -0.0000
vn 0.0000 0.0000 -1.0000
s 1
f 10/1/1 12/2/1 21/3/1
f 19/4/2 17/5/2 18/6/2
f 41/7/3 10/8/3 22/9/3
f 47/10/2 2/11/2 1/12/2
f 36/13/1 44/14/1 37/15/1
f 69/16/2 99/17/2 70/18/2
f 105/19/3 97/20/3 96/21/3
f 20/22/1 49/23/1 21/3/1
f 81/24/1 83/25/1 103/26/1
f 28/27/1 56/28/1 57/29/1
f 74/30/3 60/31/3 109/32/3
f 40/33/2 37/34/2 44/35/2
f 69/36/4 68/37/4 79/38/4
f 8/39/4 52/40/4 27/41/4
f 8/42/1 27/43/1 18/44/1
f 28/45/3 29/46/3 30/47/3
f 31/48/5 32/49/5 33/50/5
f 15/51/1 21/3/1 12/2/1
f 13/52/6 15/53/6 12/54/6
f 38/55/1 39/56/1 20/22/1
f 24/57/5 40/58/5 41/59/5
f 35/60/4 37/61/4 45/62/4
f 47/63/4 48/64/4 9/65/4
f 104/66/6 101/67/6 83/68/6
f 29/46/3 46/69/3 35/70/3
f 60/71/6 62/72/6 109/73/6
f 23/74/1 26/75/1 11/76/1
f 95/77/3 94/78/3 89/79/3
f 33/80/4 49/81/4 39/82/4
f 90/83/1 79/84/1 60/85/1
f 18/44/1 27/43/1 38/55/1
f 101/86/5 96/87/5 102/88/5
f 81/89/2 91/90/2 82/91/2
f 82/92/4 101/93/4 83/94/4
f 30/95/5 45/96/5 40/58/5
f 20/97/2 14/98/2 31/99/2
f 3/100/3 9/101/3 48/102/3
f 98/103/2 101/104/2 102/105/2
f 26/106/2 13/107/2 12/108/2
f 76/109/2 110/110/2 87/111/2
f 96/112/4 98/113/4 102/114/4
f 108/115/6 89/116/6 94/117/6
f 46/69/3 54/118/3 36/119/3
f 24/120/3 44/121/3 40/122/3
f 63/123/3 65/124/3 66/125/3
f 13/126/5 25/127/5 41/59/5
f 11/76/1 26/75/1 12/2/1
f 62/128/5 68/129/5 109/130/5
f 54/118/3 28/45/3 53/131/3
f 7/132/2 9/133/2 48/134/2
f 55/135/5 52/136/5 17/137/5
f 7/138/5 48/139/5 17/137/5
f 29/140/6 57/141/6 58/142/6
f 33/143/3 21/144/3 49/145/3
f 99/146/5 68/129/5 70/147/5
f 71/148/6 73/149/6 74/150/6
f 91/151/5 93/152/5 101/86/5
f 106/153/3 102/154/3 98/155/3
f 23/156/6 25/157/6 26/158/6
f 43/159/2 3/160/2 50/161/2
f 1/162/5 3/163/5 48/139/5
f 34/164/4 50/165/4 3/166/4
f 98/167/6 65/168/6 64/169/6
f 75/170/5 76/171/5 65/172/5
f 58/173/2 57/174/2 77/175/2
f 78/176/1 79/84/1 80/177/1
f 2/178/6 50/179/6 3/180/6
f 4/181/6 6/182/6 43/183/6
f 87/184/5 88/185/5 67/186/5
f 72/187/1 89/188/1 90/83/1
f 84/189/4 86/190/4 95/191/4
f 62/192/3 78/193/3 67/194/3
f 67/186/5 100/195/5 68/129/5
f 57/174/2 56/196/2 84/197/2
f 90/198/4 94/199/4 99/200/4
f 71/201/5 74/202/5 99/146/5
f 85/203/5 94/204/5 86/205/5
f 80/206/4 100/207/4 88/208/4
f 5/209/3 42/210/3 34/211/3
f 65/172/5 76/171/5 87/184/5
f 48/212/6 18/213/6 17/214/6
f 75/215/4 107/216/4 76/217/4
f 97/218/1 83/25/1 98/219/1
f 5/220/5 3/163/5 6/221/5
f 92/222/6 103/223/6 93/224/6
f 72/225/2 94/226/2 89/227/2
f 50/228/1 47/229/1 9/230/1
f 46/231/5 58/232/5 59/233/5
f 100/234/2 79/235/2 68/236/2
f 63/237/6 67/238/6 78/239/6
f 53/240/6 40/241/6 44/242/6
f 41/59/5 32/49/5 13/126/5
f 22/243/4 21/244/4 32/245/4
f 56/196/2 59/246/2 85/247/2
f 13/126/5 31/48/5 14/248/5
f 60/85/1 73/249/1 90/83/1
f 99/146/5 74/202/5 109/130/5
f 77/250/1 95/251/1 89/188/1
f 59/246/2 58/173/2 108/252/2
f 27/253/3 55/254/3 38/255/3
f 110/256/1 107/257/1 64/258/1
f 106/259/1 98/219/1 64/258/1
f 93/260/3 83/261/3 101/262/3
f 41/263/4 44/264/4 11/265/4
f 60/85/1 78/176/1 61/266/1
f 54/267/4 59/268/4 56/269/4
f 38/270/4 55/271/4 39/82/4
f 16/272/5 31/48/5 55/135/5
f 87/273/4 110/274/4 88/208/4
f 63/275/1 78/176/1 110/256/1
f 16/276/6 20/277/6 31/278/6
f 9/230/1 8/42/1 18/44/1
f 53/131/3 28/45/3 30/47/3
f 55/135/5 31/48/5 33/50/5
f 19/279/1 38/55/1 20/22/1
f 25/127/5 24/57/5 41/59/5
f 30/47/3 29/46/3 35/70/3
f 44/14/1 23/74/1 11/76/1
f 55/271/4 33/80/4 39/82/4
f 19/279/1 18/44/1 38/55/1
f 35/70/3 46/69/3 36/119/3
f 36/119/3 54/118/3 53/131/3
f 16/272/5 55/135/5 17/137/5
f 52/136/5 7/138/5 17/137/5
f 102/88/5 75/170/5 65/172/5
f 108/252/2 58/173/2 77/175/2
f 110/256/1 78/176/1 80/177/1
f 66/280/5 87/184/5 67/186/5
f 73/249/1 72/187/1 90/83/1
f 77/175/2 57/174/2 84/197/2
f 94/204/5 71/201/5 99/146/5
f 110/274/4 80/206/4 88/208/4
f 66/280/5 65/172/5 87/184/5
f 84/197/2 56/196/2 85/247/2
f 85/247/2 59/246/2 108/252/2
f 63/275/1 110/256/1 64/258/1
f 107/257/1 106/259/1 64/258/1
f 42/281/1 43/282/1 50/228/1
f 10/1/1 11/76/1 12/2/1
f 19/4/2 16/283/2 17/5/2
f 41/7/3 11/284/3 10/8/3
f 47/10/2 51/285/2 2/11/2
f 36/13/1 53/286/1 44/14/1
f 69/16/2 90/287/2 99/17/2
f 105/19/3 104/288/3 97/20/3
f 20/22/1 39/56/1 49/23/1
f 81/24/1 82/289/1 83/25/1
f 28/27/1 54/290/1 56/28/1
f 74/30/3 73/291/3 60/31/3
f 40/33/2 45/292/2 37/34/2
f 69/36/4 70/293/4 68/37/4
f 8/39/4 7/294/4 52/40/4
f 15/51/1 20/22/1 21/3/1
f 13/52/6 14/295/6 15/53/6
f 35/60/4 36/296/4 37/61/4
f 47/63/4 1/297/4 48/64/4
f 104/66/6 105/298/6 101/67/6
f 60/71/6 61/299/6 62/72/6
f 95/77/3 86/300/3 94/78/3
f 90/83/1 69/301/1 79/84/1
f 101/86/5 105/302/5 96/87/5
f 81/89/2 92/303/2 91/90/2
f 82/92/4 91/304/4 101/93/4
f 30/95/5 35/305/5 45/96/5
f 20/97/2 15/306/2 14/98/2
f 3/100/3 50/307/3 9/101/3
f 98/103/2 83/308/2 101/104/2
f 26/106/2 25/309/2 13/107/2
f 76/109/2 107/310/2 110/110/2
f 96/112/4 97/311/4 98/113/4
f 108/115/6 77/312/6 89/116/6
f 24/120/3 23/313/3 44/121/3
f 63/123/3 64/314/3 65/124/3
f 62/128/5 67/186/5 68/129/5
f 7/132/2 8/315/2 9/133/2
f 29/140/6 28/316/6 57/141/6
f 33/143/3 32/317/3 21/144/3
f 99/146/5 109/130/5 68/129/5
f 71/148/6 72/318/6 73/149/6
f 91/151/5 92/319/5 93/152/5
f 106/153/3 75/320/3 102/154/3
f 23/156/6 24/321/6 25/157/6
f 43/159/2 6/322/2 3/160/2
f 1/162/5 2/323/5 3/163/5
f 34/164/4 42/324/4 50/165/4
f 98/167/6 102/325/6 65/168/6
f 2/178/6 51/326/6 50/179/6
f 4/181/6 5/327/6 6/182/6
f 84/189/4 85/328/4 86/190/4
f 62/192/3 61/329/3 78/193/3
f 67/186/5 88/185/5 100/195/5
f 90/198/4 89/330/4 94/199/4
f 85/203/5 108/331/5 94/204/5
f 5/209/3 4/332/3 42/210/3
f 48/212/6 9/333/6 18/213/6
f 75/215/4 106/334/4 107/216/4
f 97/218/1 104/335/1 83/25/1
f 5/220/5 34/336/5 3/163/5
f 92/222/6 81/337/6 103/223/6
f 72/225/2 71/338/2 94/226/2
f 50/228/1 51/339/1 47/229/1
f 46/231/5 29/340/5 58/232/5
f 100/234/2 80/341/2 79/235/2
f 63/237/6 66/342/6 67/238/6
f 53/240/6 30/343/6 40/241/6
f 41/59/5 22/344/5 32/49/5
f 22/243/4 10/345/4 21/244/4
f 13/126/5 32/49/5 31/48/5
f 77/250/1 84/346/1 95/251/1
f 27/253/3 52/347/3 55/254/3
f 93/260/3 103/348/3 83/261/3
f 41/263/4 40/349/4 44/264/4
f 60/85/1 79/84/1 78/176/1
f 54/267/4 46/350/4 59/268/4
f 16/276/6 19/351/6 20/277/6
f 42/281/1 4/352/1 43/282/1
