# WaveFront *.obj file (generated by CINEMA 4D)

v -4.20000076293945 8.59999847412109 -4.19999885559082
v -4.20000076293945 5.19999885559082 -4.1999979019165
v -4.1999979019165 8.60000038146973 4.20000076293945
v -4.1999979019165 5.20000076293945 4.20000219345093
v 4.20000076293945 8.60000038146973 4.1999979019165
v 4.20000076293945 5.20000076293945 4.19999885559082
v 4.1999979019165 8.59999847412109 -4.20000076293945
v 4.1999979019165 5.19999885559082 -4.20000076293945
v 4 8.39999961853027 -0.00100199994631
v 4 5.40000009536743 -0.00100199994631
v 4 8.39999961853027 0.01139799971133
v 4 5.40000009536743 0.01139899995178
v 9.5 8.39999961853027 0.01139600016177
v 9.5 5.40000009536743 0.01139700040221
v 9.5 8.39999961853027 -0.00100399996154
v 9.5 5.40000009536743 -0.00100399996154
v -9.5 8.39999961853027 -0.00099800003227
v -9.5 5.40000009536743 -0.00099700002465
v -9.5 8.39999961853027 0.01140299998224
v -9.5 5.40000009536743 0.01140299998224
v -4 8.39999961853027 0.01140100043267
v -4 5.40000009536743 0.01140100043267
v -4 8.39999961853027 -0.0010000000475
v -4 5.40000009536743 -0.00099900003988
# 24 vertices

vn -1 0 0
vn 1 0 0
vn 0 1 0
vn 0 -1 0
vn 0 0 -1
vn 0 0 1
# 6 normals

vt 0.25 0.53329467773438 0
vt 0.00003051757812 0.73329162597656 0
vt 0.00003051757812 0.53329467773438 0
vt 0.25 0.73329162597656 0
vt 0.75 0.53329467773438 0
vt 0.5 0.73329162597656 0
vt 0.5 0.53329467773438 0
vt 0.75 0.73329162597656 0
vt 0.5 0 0
vt 0.25 0 0
vt 0.75 0 0
vt 1 0.53329467773438 0
vt 1 0.73329162597656 0
vt 0.375 0.79995727539062 0
vt 0.203125 0.99996948242188 0
vt 0.203125 0.79995727539062 0
vt 0.375 0.99996948242188 0
vt 0.171875 0.79995727539062 0
vt 0.00003051757812 0.99996948242188 0
vt 0.00003051757812 0.79995727539062 0
vt 0.171875 0.99996948242188 0
# 21 texture coordinates

o grogu_hat_cube.003
usemtl Mat
f 1/3/1 2/2/1 3/1/1
f 2/2/1 4/4/1 3/1/1
f 5/7/2 6/6/2 7/5/2
f 6/6/2 8/8/2 7/5/2
f 5/7/3 7/9/3 3/1/3
f 7/9/3 1/10/3 3/1/3
f 8/11/4 6/5/4 2/9/4
f 6/5/4 4/7/4 2/9/4
f 7/5/5 8/8/5 1/12/5
f 8/8/5 2/13/5 1/12/5
f 3/1/6 4/4/6 5/7/6
f 4/4/6 6/6/6 5/7/6
f 15/16/5 16/15/5 9/14/5
f 16/15/5 10/17/5 9/14/5
f 11/20/6 12/19/6 13/18/6
f 12/19/6 14/21/6 13/18/6
f 23/14/5 24/17/5 17/16/5
f 24/17/5 18/15/5 17/16/5
f 19/18/6 20/21/6 21/20/6
f 20/21/6 22/19/6 21/20/6

