# WaveFront *.obj file (generated by CINEMA 4D)

v -9.42050552368164 195.28863525390625 -21.5728645324707
v -15.12200832366943 199.74200439453125 -21.5728645324707
v -9.42050552368164 195.28863525390625 22.1771354675293
v -15.12200832366943 199.74200439453125 22.1771354675293
v 34.67131805419922 196.74234008789062 22.1771354675293
v 34.67131805419922 202.99234008789062 22.1771354675293
v 34.67131805419922 196.74234008789062 -21.5728645324707
v 34.67131805419922 202.99234008789062 -21.5728645324707
v -6.67264366149902 196.04872131347656 -21.5728645324707
v 8.10849189758301 212.55072021484375 1.86463510990143
v 11.23406887054443 213.19508361816406 1.86463510990143
v 11.23406887054443 213.19508361816406 -1.26036489009857
v 8.23367786407471 214.67478942871094 -1.26036489009857
v 8.23367786407471 214.67478942871094 1.86463510990143
v 11.2968225479126 214.05612182617188 1.86463510990143
v 11.2968225479126 214.05612182617188 -1.26036489009857
v 9.97067260742188 217.9036865234375 -1.26036489009857
v 9.97067260742188 217.9036865234375 1.86463510990143
v 12.175048828125 215.68867492675781 1.86463510990143
v 12.175048828125 215.68867492675781 -1.26036489009857
v -6.23073291778564 196.14254760742188 -18.4478645324707
v -6.23073291778564 196.14254760742188 19.0521354675293
v 31.54631996154785 196.74092102050781 19.0521354675293
v 31.54631996154785 196.74092102050781 -18.4478645324707
v -5.95368051528931 193.61569213867188 -18.4478645324707
v -5.95368051528931 193.61569213867188 19.0521354675293
v 31.54631996154785 193.61569213867188 19.0521354675293
v 31.54631996154785 193.61569213867188 -18.4478645324707
v -7.68512773513794 207.91694641113281 18.40444564819336
v -7.68512773513794 207.91694641113281 -17.80017471313477
v 30.89863014221191 208.57687377929688 -17.80017471313477
v 30.89863014221191 208.57687377929688 18.40444564819336
v -0.63706350326538 211.48580932617188 11.27625560760498
v -0.63706350326538 211.48580932617188 -10.6719856262207
v 21.01511001586914 211.8009033203125 -10.6719856262207
v 21.01511001586914 211.8009033203125 11.27625560760498
v -3.52277708053589 202.85252380371094 22.1771354675293
v -0.13390259444714 208.57687377929688 18.40444564819336
v 2.53274869918823 211.53138732910156 11.27625560760498
v 0.77252382040024 211.50570678710938 11.27625560760498
v -8.03788566589355 202.14779663085938 -21.5728645324707
v -4.38071250915527 208.38090515136719 -17.80017471313477
v -4.38115644454956 208.380859375 18.40413475036621
v 8.10849189758301 212.55072021484375 -1.26036489009857
v 0.79165452718735 211.50570678710938 -10.6719856262207
v 2.53274869918823 211.53138732910156 -10.6719856262207
v -0.13390259444714 208.57687377929688 -17.80017471313477
v -3.52277708053589 202.85252380371094 -21.5728645324707
v -2.9644467830658 196.62750244140625 -21.5728645324707
v -0.6078622341156 196.74015808105469 -18.4478645324707
v -0.59653776884079 193.61569213867188 -18.4478645324707
v -0.59653776884079 193.61569213867188 19.0521354675293
v -0.6078622341156 196.74015808105469 19.0521354675293
v -2.9644467830658 196.62750244140625 22.1771354675293
v -8.06191635131836 202.14241027832031 22.1771354675293
v -6.69237995147705 196.04429626464844 22.1771354675293
v -3.83601140975952 196.53448486328125 19.0521354675293
v -3.65776228904724 193.61569213867188 19.0521354675293
v -3.65776228904724 193.61569213867188 -18.4478645324707
v -3.83601140975952 196.53448486328125 -18.4478645324707
# 60 vertices

vn -0.61556422710419 -0.78808671236038 0
vn -0.61556422710419 -0.78808671236038 0
vn 0 0 0
vn -0.0170727930963 0.33163303136826 0.94325399398804
vn -0.00106953631621 0.29216915369034 0.95636606216431
vn 0 0 1
vn 1 0 0
vn 0.92154431343079 0.38827323913574 0
vn 0.98097449541092 0.19413661956787 0
vn 0 0 -1
vn -0.00106953713112 0.29216915369034 -0.95636606216431
vn -0.01395960059017 0.25329729914665 -0.96728777885437
vn 0.7088063955307 0.70540308952332 0
vn 0 -1 0
vn -0.14835724234581 0.98272931575775 -0.11060363799334
vn -0.08592920005322 0.98715358972549 -0.13469971716404
vn -0.07990169525146 0.99111378192902 0.10634468495846
vn -0.02531101368368 0.98474061489105 0.17217801511288
vn 0.05495416000485 0.98215508460999 0.17986503243446
vn 0.03144814074039 0.99293631315231 -0.11440499871969
vn 0.080103084445 0.98029202222824 -0.18058530986309
vn -0.99826771020889 0.05883476138115 0
vn -0.93948090076447 0.34260132908821 0
vn -0.97952026128769 0.20134550333023 0
vn 0.99735468626022 -0.07268860936165 0
vn 0.93791991472244 -0.3468519449234 0
vn 0.97759473323822 -0.21049599349499 0
vn -0.8806579709053 0.47375255823135 0
vn -0.8806579709053 0.47375255823135 0
vn 0.8806603550911 -0.47374820709229 0
vn -0.05822041258216 0.80142289400101 0.59525763988495
vn -0.44295680522919 0.81269252300262 0.37857639789581
vn -0.20362724363804 0.96854346990585 0.14303669333458
vn 0.0009954754496 -0.99996483325958 0.00832566898316
vn 0.00023891466844 -0.99999994039536 -0.00021518701396
vn 0.0003106436925 -0.99999994039536 0.00014345800446
vn 0.00117594143376 -0.99993771314621 -0.01110112015158
vn 0.05532657727599 -0.99838757514954 -0.01269517745823
vn 0.23671397566795 -0.97157484292984 -0.00296046235599
vn 0.21016240119934 -0.97626930475235 -0.05224902555346
vn 0.23656050860882 -0.97161662578583 -0.0004936211626
vn 0.02223112806678 -0.99972754716873 0.00711373053491
vn 0 0 1
vn -0.99404287338257 -0.10898999869823 0
vn -0.99404287338257 -0.10898999124765 0
vn -0.73970967531204 0.67292618751526 0
vn -0.7397096157074 0.67292618751526 0
vn 0.39380604028702 0.81964671611786 -0.41604822874069
vn 0.281120210886 0.87075304985046 0.40343588590622
vn -0.37925687432289 0.91136413812637 -0.15993645787239
vn -0.02996691316366 0.77141541242599 -0.6356258392334
vn -0.01716560125351 0.80832517147064 0.58848595619202
vn -0.0608947314322 0.28739282488823 0.95587509870529
vn -0.06454857438803 0.1898507475853 0.97968882322311
vn -0.05543780699372 0.2986373603344 -0.95275515317917
vn -0.08432531356812 0.77009910345078 -0.63232636451721
vn -0.01994735375047 0.96249461174011 -0.27056658267975
vn -0.05282092839479 0.92203372716904 -0.38348892331123
vn -0.0199665222317 0.96249324083328 0.27057000994682
vn -0.01389803923666 0.96832889318466 0.2492910027504
vn 0 0 -1
vn -0.06552012264729 0.46664860844612 -0.88201254606247
vn -0.09247045218945 0.36739382147789 -0.92545717954636
vn 0.19437804818153 -0.98091900348663 0.00388125842437
vn 0.26259776949883 -0.96489542722702 -0.00438109319657
vn 0 -1 0
vn 0.16450566053391 -0.98568683862686 -0.03686873614788
vn 0 0 1
vn 0.16223679482937 -0.98642909526825 0.02523553743958
vn 0.07891096174717 -0.99660277366638 0.02357997186482
vn 0.12656578421593 -0.99195426702499 0.00280903931707
vn 0.07376586645842 -0.99720561504364 0.01181105896831
vn -0.61556422710419 -0.78808671236038 0
vn 0 -1 0
# 74 normals

vt 0.00003051757812 0.94442749023438 0.5
vt 0.00003051757812 0.83334350585938 0.5
vt 0.25 0.83334350585938 0.5
vt 0.25 0.94442749023438 0.5
vt 0.28572082519531 0.83334350585938 0.5
vt 0.5 0.83334350585938 0.5
vt 0.5 0.94442749023438 0.5
vt 0.28572082519531 0.94442749023438 0.5
vt 0.50001525878906 0.94442749023438 0.5
vt 0.50001525878906 0.83334350585938 0.5
vt 0.75 0.83334350585938 0.5
vt 0.75 0.94442749023438 0.5
vt 0.75001525878906 0.94442749023438 0.5
vt 0.75001525878906 0.83334350585938 0.5
vt 0.96429443359375 0.83334350585938 0.5
vt 0.96429443359375 0.94442749023438 0.5
vt 0.19999694824219 0.72222900390625 0.5
vt 0.19999694824219 0.66667175292969 0.5
vt 0.2166633605957 0.66667175292969 0.5
vt 0.2166633605957 0.72222900390625 0.5
vt 0.51666259765625 0.77777862548828 0.5
vt 0.51666259765625 0.15873718261719 0.5
vt 0.73332214355469 0.15873718261719 0.5
vt 0.73332214355469 0.77777862548828 0.5
vt 0.31228637695312 0.67083740234375 0.5
vt 0.36606597900391 0.50632476806641 0.5
vt 0.38392639160156 0.50632476806641 0.5
vt 0.43770599365234 0.67083740234375 0.5
vt 0.38392639160156 0.44679260253906 0.5
vt 0.43770599365234 0.2601318359375 0.5
vt 0.43770599365234 0.61216735839844 0.5
vt 0.36606597900391 0.44679260253906 0.5
vt 0.31228637695312 0.2601318359375 0.5
vt 0.31228637695312 0.61216735839844 0.5
vt 0.18337631225586 0.83334350585938 0.5
vt 0.18337631225586 0.77778625488281 0.5
vt 0.19997406005859 0.77778625488281 0.5
vt 0.19997406005859 0.83334350585938 0.5
vt 0.31228637695312 0.64569854736328 0.5
vt 0.21671295166016 0.83334350585938 0.5
vt 0.21671295166016 0.77778625488281 0.5
vt 0.23331069946289 0.77778625488281 0.5
vt 0.23331069946289 0.83334350585938 0.5
vt 0.2334098815918 0.83334350585938 0.5
vt 0.23341369628906 0.77778625488281 0.5
vt 0.25000762939453 0.77778625488281 0.5
vt 0.25000762939453 0.83334350585938 0.5
vt 0.18337631225586 0.72222900390625 0.5
vt 0.19997406005859 0.72222900390625 0.5
vt 0.21660995483398 0.72222900390625 0.5
vt 0.21660995483398 0.77778625488281 0.5
vt 0.20001602172852 0.77778625488281 0.5
vt 0.20001602172852 0.72222900390625 0.5
vt 0.21671295166016 0.72222900390625 0.5
vt 0.23331069946289 0.72222900390625 0.5
vt 0.47843933105469 0.71925354003906 0.5
vt 0.47843933105469 0.761474609375 0.5
vt 0.43770599365234 0.64569854736328 0.5
vt 0.5 0.83333587646484 0.5
vt 0.75 0.83333587646484 0.5
vt 0.75 0.11904907226562 0.5
vt 0.75 0 0.5
vt 0.73332214355469 0.05555725097656 0.5
vt 0.51666259765625 0.05555725097656 0.5
vt 0.5 0 0.5
vt 0.5 0.11904907226562 0.5
vt 0.73214721679688 0.9444580078125 0.5
vt 0.73214721679688 0.99996948242188 0.5
vt 0.51786804199219 0.99996948242188 0.5
vt 0.51786804199219 0.9444580078125 0.5
vt 0.48214721679688 0.9444580078125 0.5
vt 0.48214721679688 0.99996948242188 0.5
vt 0.29847717285156 0.99996948242188 0.5
vt 0.29847717285156 0.9444580078125 0.5
vt 0.23214721679688 0.9444580078125 0.5
vt 0.23214721679688 0.99996948242188 0.5
vt 0.01786804199219 0.99996948242188 0.5
vt 0.01786804199219 0.9444580078125 0.5
vt 0.9515380859375 0.99996948242188 0.5
vt 0.76786804199219 0.99996948242188 0.5
vt 0.76786804199219 0.9444580078125 0.5
vt 0.9515380859375 0.9444580078125 0.5
vt 0.25 0.83333587646484 0.5
vt 0.27155303955078 0.761474609375 0.5
vt 0.25 0.71428680419922 0.5
vt 0.25 0 0.5
vt 0.27155303955078 0.07186889648438 0.5
vt 0.27155303955078 0.6629638671875 0.5
vt 0.47843933105469 0.07186889648438 0.5
vt 0.5 0.71428680419922 0.5
vt 0.47843933105469 0.6629638671875 0.5
vt 0.5 0.78231430053711 0.5
vt 0.25 0.78231430053711 0.5
vt 0.27155303955078 0.71925354003906 0.5
vt 0.21661376953125 0.83334350585938 0.5
vt 0.20001602172852 0.83334350585938 0.5
vt 0.23341369628906 0.72222900390625 0.5
vt 0.25000762939453 0.72222900390625 0.5
vt 0.98469543457031 0.83334350585938 0.5
vt 1 0.83334350585938 0.5
vt 1 0.94442749023438 0.5
vt 0.98469543457031 0.94442749023438 0.5
vt 0.5 0.051025390625 0.5
vt 0.51666259765625 0.09977722167969 0.5
vt 0.96902465820312 0.9444580078125 0.5
vt 0.98214721679688 0.9444580078125 0.5
vt 0.98214721679688 0.99996948242188 0.5
vt 0.96902465820312 0.99996948242188 0.5
vt 0.73332214355469 0.09977722167969 0.5
vt 0.28097534179688 0.99996948242188 0.5
vt 0.26786804199219 0.99996948242188 0.5
vt 0.26786804199219 0.9444580078125 0.5
vt 0.28097534179688 0.9444580078125 0.5
vt 0.75 0.051025390625 0.5
vt 0.26530456542969 0.94442749023438 0.5
vt 0.25001525878906 0.94442749023438 0.5
vt 0.25001525878906 0.83334350585938 0.5
vt 0.26530456542969 0.83334350585938 0.5
# 118 texture coordinates

o Cube.2
usemtl Mat.2
f 4/3/1 2/2/2 1/1/1
f 5/7/6 6/6/5 37/5/4
f 8/11/9 6/10/8 5/9/7
f 48/15/12 8/14/11 7/13/10
f 18/19/13 19/18/13 20/17/13
f 52/23/14 51/22/14 28/21/14
f 10/27/17 44/26/16 34/25/15
f 36/30/19 11/29/18 10/27/17
f 12/32/20 11/29/18 36/30/19
f 44/26/16 12/32/20 35/33/21
f 14/37/24 13/36/23 44/35/22
f 46/34/10 45/39/10 34/25/10
f 16/42/27 15/41/26 11/40/25
f 13/46/10 16/45/10 12/44/10
f 18/49/29 17/48/28 13/36/23
f 14/52/6 15/51/6 19/50/6
f 20/55/30 19/54/30 15/41/26
f 33/28/33 29/57/32 43/56/31
f 23/24/36 24/21/35 7/59/34
f 53/23/38 23/24/36 5/60/37
f 21/64/41 22/63/40 3/62/39
f 7/59/34 24/21/35 50/22/42
f 27/69/7 28/68/7 24/67/7
f 52/73/6 27/72/43 23/71/6
f 25/77/44 26/76/45 22/75/44
f 24/81/10 28/80/10 51/79/10
f 2/83/47 4/59/46 29/57/32
f 31/87/48 8/86/11 48/85/12
f 6/65/8 8/86/9 31/87/48
f 37/90/4 6/65/5 32/89/49
f 30/84/50 29/57/32 33/28/33
f 35/33/21 31/87/48 47/88/51
f 32/89/49 31/87/48 35/33/21
f 38/91/52 32/89/49 36/30/19
f 29/57/32 4/59/54 55/92/53
f 47/88/51 48/85/12 41/93/55
f 37/90/4 38/91/52 43/56/31
f 46/34/57 47/88/51 42/94/56
f 30/84/50 34/25/15 45/39/58
f 43/56/31 38/91/52 39/31/59
f 40/58/60 39/31/59 10/27/17
f 11/95/6 15/51/6 14/52/6
f 17/98/10 20/97/61 16/45/10
f 33/28/33 40/58/60 10/27/17
f 2/83/63 30/84/62 42/94/56
f 1/101/10 2/100/63 41/99/55
f 21/64/41 1/65/65 9/103/64
f 25/107/10 21/106/10 60/105/10
f 26/63/14 25/64/66 59/104/14
f 22/112/6 26/111/6 58/110/6
f 3/62/39 22/63/40 57/109/67
f 4/117/54 3/116/68 56/115/6
f 54/8/6 37/5/4 55/118/53
f 53/23/38 54/61/70 56/114/69
f 52/73/6 53/74/6 57/113/6
f 51/22/14 52/23/14 58/109/14
f 50/82/10 51/79/10 59/108/10
f 49/66/72 50/22/42 60/104/71
f 48/15/12 49/16/10 9/102/10
f 3/4/73 4/3/1 1/1/1
f 54/8/6 5/7/6 37/5/4
f 7/12/7 8/11/9 5/9/7
f 49/16/10 48/15/12 7/13/10
f 17/20/13 18/19/13 20/17/13
f 27/24/74 52/23/14 28/21/14
f 33/28/33 10/27/17 34/25/15
f 39/31/59 36/30/19 10/27/17
f 35/33/21 12/32/20 36/30/19
f 46/34/57 44/26/16 35/33/21
f 10/38/22 14/37/24 44/35/22
f 44/26/16 46/34/57 34/25/15
f 12/43/25 16/42/27 11/40/25
f 44/47/10 13/46/10 12/44/10
f 14/37/24 18/49/29 13/36/23
f 18/53/68 14/52/6 19/50/6
f 16/42/27 20/55/30 15/41/26
f 40/58/60 33/28/33 43/56/31
f 5/60/37 23/24/36 7/59/34
f 54/61/70 53/23/38 5/60/37
f 1/65/65 21/64/41 3/62/39
f 49/66/72 7/59/34 50/22/42
f 23/70/7 27/69/7 24/67/7
f 53/74/6 52/73/6 23/71/6
f 21/78/45 25/77/44 22/75/44
f 50/82/10 24/81/10 51/79/10
f 30/84/50 2/83/47 29/57/32
f 47/88/51 31/87/48 48/85/12
f 32/89/49 6/65/8 31/87/48
f 38/91/52 37/90/4 32/89/49
f 34/25/15 30/84/50 33/28/33
f 46/34/57 35/33/21 47/88/51
f 36/30/19 32/89/49 35/33/21
f 39/31/59 38/91/52 36/30/19
f 43/56/31 29/57/32 55/92/53
f 42/94/56 47/88/51 41/93/55
f 55/92/53 37/90/4 43/56/31
f 45/39/58 46/34/57 42/94/56
f 42/94/56 30/84/50 45/39/58
f 40/58/60 43/56/31 39/31/59
f 10/96/43 11/95/6 14/52/6
f 13/46/10 17/98/10 16/45/10
f 41/93/55 2/83/63 42/94/56
f 9/102/10 1/101/10 41/99/55
f 60/104/71 21/64/41 9/103/64
f 59/108/10 25/107/10 60/105/10
f 58/109/14 26/63/14 59/104/14
f 57/113/6 22/112/6 58/110/6
f 56/114/69 3/62/39 57/109/67
f 55/118/53 4/117/54 56/115/6
f 56/115/6 54/8/6 55/118/53
f 57/109/67 53/23/38 56/114/69
f 58/110/6 52/73/6 57/113/6
f 59/104/14 51/22/14 58/109/14
f 60/105/10 50/82/10 59/108/10
f 9/103/64 49/66/72 60/104/71
f 41/99/55 48/15/12 9/102/10

