# WaveFront *.obj file (generated by CINEMA 4D)

v -4.125 7.77840805053711 4.08837699890137
v -4.3828125 9.16634082794189 5.49359893798828
v 5.84375 9.0673713684082 4.1097583770752
v -4.125 5.91069078445435 6.74705982208252
v 4.3828125 9.0673713684082 4.1097583770752
v 4.125 7.77840805053711 4.08837699890137
v -4.3828125 9.0673713684082 4.1097583770752
v -5.84375 7.77840805053711 4.12550163269043
v 4.3828125 9.16634082794189 5.49359893798828
v 5.84375 8.47355651855469 -4.19328451156616
v 4.125 6.40340805053711 -4.16162300109863
v 4.125 7.77840805053711 -4.16162300109863
v -3.7668125629425 9.65778732299805 3.73002672195435
v 4.3828125 8.374587059021 -5.57712507247925
v -5.22774982452393 9.65778732299805 3.73002672195435
v -5.84375 7.77840805053711 -4.19874811172485
v -4.125 6.40340805053711 -4.16162300109863
v -4.125 7.77840805053711 -4.16162300109863
v -4.3828125 7.77840805053711 -5.58612298965454
v 4.3828125 7.77840805053711 -5.58612298965454
v 5.84375 7.77840805053711 -4.19874811172485
v -4.3828125 8.374587059021 -5.57712507247925
v -5.84375 8.47355651855469 -4.19328451156616
v 5.84375 7.77840805053711 4.12550163269043
v -5.84375 9.0673713684082 4.1097583770752
v 4.3828125 7.77840805053711 5.51287698745728
v -5.22774982452393 9.15185737609863 -3.34415483474731
v -3.7668125629425 9.15185737609863 -3.34415483474731
v -3.7668125629425 9.05288887023926 -4.7279953956604
v -4.3828125 7.77840805053711 5.51287698745728
v -4.125 7.77840805053711 5.46337699890137
v -4.3828125 7.77840805053711 -4.19874811172485
v 4.3828125 7.77840805053711 -4.19874811172485
v 4.3828125 7.77840805053711 4.12550163269043
v -4.125 6.55252742767334 6.99343776702881
v 4.125 7.77840805053711 5.46337699890137
v 5.5 6.40340805053711 4.08837699890137
v 5.5 7.77840805053711 4.08837699890137
v -4.3828125 7.77840805053711 4.12550163269043
v 2.75 5.41793489456177 8.03073310852051
v -2.75 5.41793489456177 8.03073310852051
v 2.75 6.05977153778076 8.2771110534668
v 5.5 6.40340805053711 -4.16162300109863
v 5.5 7.77840805053711 -4.16162300109863
v 4.125 6.40340805053711 -5.53662300109863
v 4.125 7.77840805053711 -5.53662300109863
v -2.75 6.05977153778076 8.2771110534668
v -3.7668125629425 9.75675582885742 5.11386728286743
v 4.125 6.40340805053711 5.46337699890137
v -4.125 7.09090805053711 5.46337699890137
v -4.125 6.40340805053711 -5.53662300109863
v -4.125 7.77840805053711 -5.53662300109863
v -5.5 6.40340805053711 -4.16162300109863
v -5.5 7.77840805053711 -4.16162300109863
v 3.7668125629425 9.75675582885742 5.11386728286743
v -4.125 6.40340805053711 5.46337699890137
v -4.125 6.40340805053711 4.08837699890137
v -5.5 7.77840805053711 4.08837699890137
v 4.3828125 8.47355651855469 -4.19328451156616
v 4.125 7.09090805053711 5.46337699890137
v -4.3828125 8.47355651855469 -4.19328451156616
v -2.75 6.55252742767334 6.99343776702881
v 2.75 6.55252742767334 6.99343776702881
v -5.5 6.40340805053711 4.08837699890137
v -2.75 5.91069078445435 6.74705982208252
v 4.125 6.55252742767334 6.99343776702881
v 5.22774982452393 9.65778732299805 3.73002672195435
v 3.7668125629425 9.65778732299805 3.73002672195435
v 4.125 6.40340805053711 4.08837699890137
v 3.7668125629425 9.05288887023926 -4.7279953956604
v 4.125 5.91069078445435 6.74705982208252
v 3.7668125629425 9.15185737609863 -3.34415483474731
v 2.75 5.91069078445435 6.74705982208252
v 5.22774982452393 9.15185737609863 -3.34415483474731
# 74 vertices

vn 0 0.99745237827301 -0.07133560627699
vn 0 0 0
vn 0 0.94330739974976 0.33192044496536
vn 0 0.94330739974976 0.33192041516304
vn 0 0.93853706121445 0.34517842531204
vn -1 0 0
vn 0 -1 0
vn 0 -1 0
vn 1 0 0
vn 0 -0.93358045816422 -0.35836786031723
vn 0 -0.93358558416367 -0.35835444927216
vn 0 0 1
vn 0 0.37821039557457 0.92571967840195
vn 0 0.54093819856644 0.84106236696243
vn 0 0.54093813896179 0.84106236696243
vn 0 0.19629572331905 0.98054474592209
vn 0 0.01388841681182 0.99990355968475
vn 0 0.01388841681182 0.99990355968475
vn 1 0 0
vn 0 0 -1
vn -1 0 0
vn 0.70710664987564 0.70530545711517 -0.05044187232852
vn 0.70710682868958 0.70530533790588 -0.05044189095497
vn -1 0 0
vn -0.70710664987564 0.70530551671982 -0.0504418797791
vn -0.70710647106171 0.70530569553375 -0.05044192075729
vn 0 0.01509092468768 -0.99988615512848
vn 0 0.78131830692291 -0.62413275241852
vn 0 0.78131830692291 -0.62413275241852
vn 0 0.00785937346518 -0.99996912479401
vn -0.70710664987564 0.70530551671982 -0.05044177174568
vn -0.70710682868958 0.70530533790588 -0.05044150725007
vn 0 0.19518022239208 0.98076736927032
vn 0 0.01221297960728 0.99992543458939
vn 0 -0.35836786031723 0.93358045816422
vn 0 0.78131878376007 -0.62413221597672
vn 0.707106590271 0.70530551671982 -0.05044177174568
vn 0.70710629224777 0.70530587434769 -0.05044154822826
vn 0 0.37771156430244 0.9259232878685
vn 0 0.54093760251999 0.8410627245903
vn 0 0.54093754291534 0.84106278419495
vn -0.70710694789886 0.70530515909195 -0.05044176056981
vn -0.70710742473602 0.70530468225479 -0.05044148862362
vn 0.70710694789886 0.70530515909195 -0.05044175311923
vn 0.70710688829422 0.70530527830124 -0.05044152960181
vn 0.70710647106171 0.70530563592911 -0.05044186115265
vn -0.70710682868958 0.70530533790588 -0.05044183880091
vn 0 0.01509092468768 -0.99988615512848
vn 0 0.78131830692291 -0.62413275241852
vn 0 0.00785937346518 -0.99996912479401
vn -0.70710647106171 0.70530569553375 -0.05044202506542
vn 0 -0.35836786031723 0.93358045816422
vn 0 0.78131872415543 -0.62413221597672
vn 0.70710694789886 0.70530515909195 -0.05044198781252
vn -0.70710653066635 0.70530563592911 -0.05044201761484
vn 0.70710706710815 0.70530503988266 -0.05044198036194
vn 0 0.99745237827301 -0.07133539766073
vn 0 0.99745237827301 -0.07133542746305
vn 0 0.99745243787766 -0.07133507728577
vn 0 0.99745237827301 -0.07133547216654
vn 0 0.99745237827301 -0.07133560627699
vn 0 0.93358045816422 0.35836786031723
vn 0 0.94094574451447 0.33855748176575
vn 0 -0.97015154361725 -0.24249956011772
vn 0 -0.97583347558975 -0.2185155749321
vn 0 -0.93358820676804 -0.35834774374962
vn 0 -0.93359076976776 -0.3583410680294
vn 0 0.99745243787766 -0.07133507728577
vn 0 0.99745243787766 -0.07133507728577
# 69 normals

vt 0.09036636352539 0.48263549804688 1
vt 0.02422428131104 0.48263549804688 1
vt 0.02422428131104 0.11750793457031 1
vt 0.00195771455765 821.171875 1
vt 0.39189910888672 0.5714111328125 1
vt 0.39189910888672 0.64283752441406 1
vt 0.33784484863281 0.64283752441406 1
vt -100000 -99999 1
vt 0.89189147949219 0.9642448425293 1
vt 0.83782958984375 0.92853927612305 1
vt 0.89189147949219 0.92853927612305 1
vt 0.52702331542969 0.642822265625 1
vt 0.47299194335938 0.642822265625 1
vt 0.47299194335938 0.21426391601562 1
vt 0.00003051757812 -0.00003051757812 1
vt 0.56756591796875 0.85711288452148 1
vt 0.51351928710938 0.85711288452148 1
vt 0.51351928710938 0.82139205932617 1
vt 37.8359375 254.99609375 1
vt 0.58108520507812 0 1
vt 0.79730224609375 0 1
vt 0.79730224609375 0.0714111328125 1
vt 59.6650390625 254.99609375 1
vt 0.48582458496094 0.64088439941406 1
vt 0.53665161132812 0.64088439941406 1
vt 0.52711486816406 0.64280700683594 1
vt 0.06757354736328 0.82139205932617 1
vt 0.06757354736328 0.78568649291992 1
vt 0.39189147949219 0.78568649291992 1
vt 39.25 254.99609375 1
vt 0.06753730773926 0.57139587402344 1
vt 0.09032821655273 0.55406188964844 1
vt 0.36907958984375 0.55406188964844 1
vt -100000 -0.00003051757812 1
vt 0.39189147949219 0.71426391601562 1
vt 0.62161254882812 0.78568649291992 1
vt 0.94593811035156 0.78568649291992 1
vt 0.94593811035156 0.85711288452148 1
vt 0.44594573974609 0.78568649291992 1
vt 0.44594573974609 0.85711288452148 1
vt 0.06757354736328 0.92853927612305 1
vt 0.39189147949219 0.92853927612305 1
vt 0.39189147949219 0.99996513128281 1
vt 1 0.78568649291992 1
vt 1 0.85711288452148 1
vt 0.01352143287659 0.92853927612305 1
vt 0.06757354736328 0.99996513128281 1
vt 0.51351928710938 0.92853927612305 1
vt 0.83782958984375 0.99996513128281 1
vt 0.44594573974609 0.92853927612305 1
vt 0.44594573974609 0.99996513128281 1
vt 0.45948028564453 0.92853927612305 1
vt 0.51351928710938 0.99996513128281 1
vt 0.45946502685547 0.49995422363281 1
vt 0.43521881103516 0.48262023925781 1
vt 0.43521881103516 0.11746215820312 1
vt 0.83782958984375 0.85711288452148 1
vt 0.00004453863949 0.07135009765625 1
vt 0.02418327331543 0.11746215820312 1
vt 0.02418327331543 0.48262023925781 1
vt 0.39189147949219 0.85711288452148 1
vt 0.39187622070312 0.00001525878906 1
vt 0.36907958984375 0.0460205078125 1
vt 0.09032821655273 0.0460205078125 1
vt 0.94593811035156 0.71426391601562 1
vt 0.01352143287659 0.78567123413086 1
vt 0.06757354736328 0.78567123413086 1
vt 0.06757354736328 0.85709762573242 1
vt 0.45948791503906 0.92853927612305 1
vt 0.45946502685547 0.85711288452148 1
vt 0.45946502685547 0.92853927612305 1
vt 0.06753730773926 0.49995422363281 1
vt 0.09032821655273 0.48262023925781 1
vt 0.06757354736328 0.71424865722656 1
vt 0.00004453863949 0.78567123413086 1
vt 0.39189147949219 0.82139205932617 1
vt 0.33783721923828 0.85711288452148 1
vt 0.33783721923828 0.82139205932617 1
vt 0.12162780761719 0.85711288452148 1
vt 0.12162780761719 0.82139205932617 1
vt 0.06757354736328 0.85711288452148 1
vt 0.06753730773926 0.07135009765625 1
vt 0.09032821655273 0.11746215820312 1
vt 1 0.71426391601562 1
vt 0.01566171646118 102.6484375 1
vt 0.00004453863949 0.92853927612305 1
vt 0.00004822947085 -0.00003051757812 1
vt 0.45946502685547 0.71426391601562 1
vt 0.45946502685547 0.78568649291992 1
vt 0.39187622070312 0.57139587402344 1
vt 0.36907958984375 0.48262023925781 1
vt 77.11328125 -0.00003051757812 1
vt 0.45946502685547 0.07135009765625 1
vt 0.36907958984375 0.11746215820312 1
vt 76.998046875 -0.00003051757812 1
vt 0.39187622070312 0.49995422363281 1
vt 0.19003677368164 -55.564453125 1
vt 0.06753730773926 0.00001525878906 1
vt 77.5 -0.00003051757812 1
vt 0.39187622070312 0.07135009765625 1
vt 0.94593811035156 0.9642448425293 1
vt 1 0.9642448425293 1
vt 1 0.99996513128281 1
vt 77.34765625 -0.00003051757812 1
vt 0.45948028564453 0.85711288452148 1
vt 0.45948028564453 0.82139205932617 1
vt 65.076171875 59.9296875 1
vt 0.00004453863949 0.49995422363281 1
vt 80.13671875 -0.00003051757812 1
vt 0.89189147949219 0.85711288452148 1
vt 0.37899017333984 -704.5625 1
vt 0.62161254882812 0.71426391601562 1
vt 0.56756591796875 0.78568649291992 1
vt 52.61328125 254.99609375 1
vt 72.2265625 21.59228515625 1
vt 24908.5 127.998046875 1
vt 0.06757354736328 0.71426391601562 1
vt 0.62161254882812 0.85711288452148 1
vt -0.00048466026783 0.00056457519531 1
vt 0.00004727207124 -0.00003051757812 1
vt 76.970703125 0.13514709472656 1
vt 0.01352143287659 0.99996513128281 1
vt 66.88671875 50.8271484375 1
vt 25.25 254.99609375 1
vt 25.875 254.99609375 1
vt 0.45948028564453 0.99996513128281 1
vt 21.9052734375 254.99609375 1
vt 41.1845703125 179.47265625 1
vt 78.005859375 -0.00003051757812 1
vt 76.9921875 0.03681945800781 1
vt 0.75912475585938 51164 1
vt 57.1337890625 254.99609375 1
vt 0.01352143287659 0.85709762573242 1
vt 0.00074219703674 0 1
vt 0.45948791503906 0.85711288452148 1
vt 0.00004453863949 0.71424865722656 1
vt -0.00004176516086 -0.00003051757812 1
vt 77.017578125 -0.00003051757812 1
vt 56.2216796875 103.8203125 1
vt 24.125 254.99609375 1
vt 0.00004453863949 0.85711288452148 1
vt 25.59326171875 254.99609375 1
vt 79.16796875 -0.00003051757812 1
vt 76.96484375 0.17002868652344 1
vt 77.951171875 -0.00003051757812 1
vt 34.5830078125 220.296875 1
vt 43.1513671875 254.99609375 1
vt 78.5 -0.00003051757812 1
vt 0.94593811035156 0.99996513128281 1
vt -0.00197130441666 0.01066589355469 1
vt 0.56756591796875 0.71426391601562 1
vt 60.787109375 254.99609375 1
vt 0.09036636352539 0.11750793457031 1
vt 0.36910247802734 0.48263549804688 1
vt 36.3955078125 254.99609375 1
vt 0.36910247802734 0.04608154296875 1
vt 0.36910247802734 0.11750793457031 1
vt 24.271484375 -2361.4375 1
vt 0.43524169921875 0.11750793457031 1
vt 0.43524169921875 0.48263549804688 1
vt 52.75 111.34765625 1
vt 0.09036636352539 0.55406188964844 1
vt 0.33784484863281 0.71426391601562 1
vt 0.12162971496582 0.71426391601562 1
vt 0.12162971496582 0.64283752441406 1
vt 0.06758689880371 0.5714111328125 1
vt 0.89189147949219 0.99996513128281 1
vt -0.00003098137677 -0.00003051757812 1
vt -0.00003540422767 -0.00003051757812 1
vt 0.52702331542969 0.21426391601562 1
vt 0.52702331542969 0.142822265625 1
vt 0.85134887695312 0.142822265625 1
vt 0.85134887695312 0.642822265625 1
vt 0.85134887695312 0.21426391601562 1
vt 0.90541076660156 0.21426391601562 1
vt 0.85134887695312 0.71424865722656 1
vt 0.56756591796875 0.82139205932617 1
vt 0.58108520507812 0.0714111328125 1
vt 0.85134887695312 0.14283752441406 1
vt 0.52703857421875 0.14283752441406 1
vt 0.85134887695312 0.0714111328125 1
vt 0.47320556640625 0.64280700683594 1
vt 0.47320556640625 0.21420288085938 1
vt 0.52711486816406 0.21420288085938 1
vt 0.53665161132812 0.21611022949219 1
vt 0.48582458496094 0.21611022949219 1
vt 0.52711486816406 0.14285278320312 1
vt 0.53665161132812 0.14530944824219 1
vt 0.84162902832031 0.14530944824219 1
vt 0.85115051269531 0.14285278320312 1
vt 0.85115051269531 0.21420288085938 1
vt 0.8924560546875 0.21611022949219 1
vt 0.84162902832031 0.21611022949219 1
vt 0.8924560546875 0.64088439941406 1
vt 0.90518188476562 0.21420288085938 1
vt 0.90518188476562 0.64280700683594 1
vt 0.85115051269531 0.64280700683594 1
vt 0.84162902832031 0.71168518066406 1
vt 0.84162902832031 0.64088439941406 1
vt -0.00048671662807 13096 1
vt 0.53665161132812 0.71168518066406 1
vt 0.85115051269531 0.71424865722656 1
vt 0.52711486816406 0.71424865722656 1
vt 0.09036636352539 0.04608154296875 1
vt 80.1875 -0.00003051757812 1
vt 76.97265625 0.12765502929688 1
vt 0.36910247802734 0.55406188964844 1
vt 0.06758689880371 0.64283752441406 1
vt 48.6494140625 -2019.09375 1
vt 0.18996047973633 -16341 1
vt 0.90541076660156 0.642822265625 1
vt 45.83203125 254.99609375 1
vt 0.52702331542969 0.71424865722656 1
vt 31.84765625 254.99609375 1
vt 0.52703857421875 0.0714111328125 1
vt -0.00389403104782 0.17497253417969 1
# 216 texture coordinates

o Cube.2
usemtl Mat
f 27/3/1 15/2/1 13/1/1
f 63/7/5 66/6/4 60/5/3
f 31/11/6 1/10/6 50/9/6
f 64/14/7 53/13/8 17/12/7
f 66/18/9 71/17/9 49/16/9
f 73/22/11 40/21/10 41/20/10
f 32/26/7 18/25/7 54/24/7
f 36/29/12 31/28/12 50/27/12
f 55/33/15 48/32/14 2/31/13
f 30/28/18 26/29/17 9/35/16
f 43/38/9 44/37/19 38/36/9
f 37/40/12 38/39/12 6/29/12
f 51/43/20 52/42/20 46/41/20
f 45/45/9 46/44/19 12/37/9
f 11/47/20 12/41/20 44/46/20
f 64/49/6 58/10/21 54/48/6
f 53/51/20 54/50/20 18/42/20
f 17/53/6 18/48/21 52/52/6
f 74/56/22 67/55/23 3/54/22
f 16/48/6 8/10/24 25/57/6
f 15/60/25 27/59/26 23/58/25
f 20/41/27 19/42/27 22/61/27
f 29/64/28 70/63/29 14/62/28
f 24/36/9 21/37/9 10/65/9
f 57/68/12 1/67/12 58/66/12
f 19/69/6 32/48/6 61/17/6
f 32/42/30 16/71/30 23/70/30
f 48/32/31 13/73/32 7/72/31
f 8/75/34 39/67/34 7/74/33
f 73/77/35 71/61/35 66/76/35
f 41/79/35 40/77/35 42/78/35
f 4/81/35 65/79/35 62/80/35
f 27/59/36 28/83/36 61/82/36
f 33/37/9 20/44/9 14/84/9
f 21/86/30 33/41/30 59/81/30
f 34/29/34 24/89/34 3/88/33
f 68/91/37 55/33/38 9/90/37
f 72/94/36 74/56/36 10/93/36
f 67/55/41 68/91/40 5/96/39
f 28/83/42 29/64/43 22/98/42
f 70/63/44 72/94/45 59/100/44
f 41/103/6 47/102/6 62/101/6
f 42/106/9 40/105/9 73/17/9
f 13/73/41 15/60/40 25/108/39
f 39/10/6 30/11/24 2/110/6
f 26/113/9 34/36/9 5/112/9
f 60/76/12 36/29/12 50/27/12
f 9/90/16 55/33/15 2/31/13
f 2/117/13 30/28/18 9/35/16
f 37/118/9 43/38/9 38/36/9
f 69/61/12 37/40/12 6/29/12
f 45/47/20 51/43/20 46/41/20
f 11/38/9 45/45/9 12/37/9
f 43/122/20 11/47/20 44/46/20
f 53/53/24 64/49/6 54/48/6
f 17/43/20 53/51/20 18/42/20
f 51/126/24 17/53/6 52/52/6
f 10/93/46 74/56/22 3/54/22
f 23/17/6 16/48/6 25/57/6
f 25/108/47 15/60/25 23/58/25
f 14/81/48 20/41/27 22/61/27
f 22/98/49 29/64/28 14/62/28
f 3/112/9 24/36/9 10/65/9
f 64/133/12 57/68/12 58/66/12
f 22/135/6 19/69/6 61/17/6
f 61/61/50 32/42/30 23/70/30
f 2/31/51 48/32/31 7/72/31
f 25/136/39 8/75/34 7/74/33
f 63/78/52 73/77/35 66/76/35
f 47/80/52 41/79/35 42/78/35
f 35/27/52 4/81/35 62/80/35
f 23/58/53 27/59/36 61/82/36
f 59/65/9 33/37/9 14/84/9
f 10/141/50 21/86/30 59/81/30
f 5/35/39 34/29/34 3/88/33
f 5/96/54 68/91/37 9/90/37
f 59/100/53 72/94/36 10/93/36
f 3/54/33 67/55/41 5/96/39
f 61/82/55 28/83/42 22/98/42
f 14/62/56 70/63/44 59/100/44
f 65/149/24 41/103/6 62/101/6
f 63/18/9 42/106/9 73/17/9
f 7/72/33 13/73/41 25/108/39
f 7/57/6 39/10/6 2/110/6
f 9/151/9 26/113/9 5/112/9
f 13/1/58 68/154/57 28/153/57
f 28/153/57 72/157/60 70/156/59
f 67/160/61 74/159/61 72/157/60
f 72/157/60 28/153/57 68/154/57
f 68/154/57 13/1/58 48/162/59
f 47/164/62 42/163/62 63/7/5
f 63/7/5 60/5/3 62/165/63
f 62/165/63 60/5/3 50/166/4
f 35/101/6 50/9/6 56/167/6
f 57/49/6 56/167/6 50/9/6
f 49/172/65 56/171/64 57/170/7
f 37/175/7 69/174/7 11/173/7
f 45/176/7 11/173/7 17/12/7
f 69/174/7 57/170/7 17/12/7
f 60/177/9 69/118/9 6/36/9
f 60/177/9 66/18/9 49/16/9
f 56/180/64 49/179/65 65/178/66
f 65/178/66 49/179/65 73/22/11
f 49/179/65 71/181/67 73/22/11
f 8/183/7 16/182/7 54/24/7
f 58/186/7 1/185/7 39/184/7
f 31/188/7 30/187/7 39/184/7
f 30/187/7 31/188/7 36/189/7
f 34/191/7 26/190/7 36/189/7
f 34/191/7 6/193/7 38/192/7
f 24/195/7 38/192/7 44/194/7
f 33/197/7 21/196/7 44/194/7
f 33/197/7 12/199/7 46/198/7
f 20/202/7 46/198/7 52/201/7
f 32/26/7 19/203/7 52/201/7
f 27/3/1 13/1/58 28/153/57
f 29/204/68 28/153/57 70/156/59
f 67/160/61 72/157/60 68/154/57
f 55/207/69 68/154/57 48/162/59
f 47/164/62 63/7/5 62/165/63
f 35/208/4 62/165/63 50/166/4
f 4/149/21 35/101/6 56/167/6
f 1/10/6 57/49/6 50/9/6
f 69/174/7 49/172/65 57/170/7
f 43/211/7 37/175/7 11/173/7
f 51/213/7 45/176/7 17/12/7
f 11/173/7 69/174/7 17/12/7
f 36/113/9 60/177/9 6/36/9
f 69/118/9 60/177/9 49/16/9
f 4/215/67 56/180/64 65/178/66
f 41/20/10 65/178/66 73/22/11
f 58/186/7 8/183/7 54/24/7
f 8/183/7 58/186/7 39/184/7
f 1/185/7 31/188/7 39/184/7
f 26/190/7 30/187/7 36/189/7
f 6/193/7 34/191/7 36/189/7
f 24/195/7 34/191/7 38/192/7
f 21/196/7 24/195/7 44/194/7
f 12/199/7 33/197/7 44/194/7
f 20/202/7 33/197/7 46/198/7
f 19/203/7 20/202/7 52/201/7
f 18/25/7 32/26/7 52/201/7
f 57/170/7 64/14/7 17/12/7
f 16/182/7 32/26/7 54/24/7

