# WaveFront *.obj file (generated by CINEMA 4D)

v 4.72448968887329 6.10903549194336 -0.5661752820015
v 5.82393980026245 8.3793478012085 -2.78944134712219
v 3.31891703605652 4.10903835296631 -3.3035786151886
v 4.41836738586426 6.37935066223145 -5.52684450149536
v 5.70833492279053 4.25651359558105 -3.88058257102966
v 5.40277767181396 7.06167507171631 -2.38220810890198
v 2.73948955535889 5.0103816986084 -5.89735126495361
v 2.43393230438232 7.81554317474365 -4.39897680282593
v 4.96011447906494 5.209303855896 -3.54227137565613
v 4.02710294723511 7.75440979003906 -5.61564970016479
v 1.78358232975006 4.16575622558594 -3.39381694793701
v 0.850570499897 6.710862159729 -5.4671950340271
v 3.26646733283997 4.34871196746826 -3.99034190177917
v 3.10972428321838 7.60804414749146 -3.71222114562988
v 0.1866751909256 4.31212186813354 -5.29724550247192
v 0.02993213199079 7.57145404815674 -5.01912450790405
v 2.59516620635986 4.98905038833618 -3.54726433753967
v 1.81276392936707 7.94790697097778 -5.36789798736572
v -1.03065025806427 3.97225880622864 -3.6415684223175
v -1.81305253505707 6.93111562728882 -5.46220207214355
v 1.26747119426727 4.6588454246521 -3.81302547454834
v 0.20214106142521 8.21056270599365 -3.78502821922302
v -1.93431317806244 3.70960283279419 -5.22443819046021
v -2.99964332580566 7.26132011413574 -5.19644117355347
v -0.79813760519028 4.02476644515991 -3.32039904594421
v 0.15631750226021 7.12075853347778 -5.10512113571167
v -4.40277528762817 4.79940748214722 -3.90434527397156
v -3.44832015037537 7.89539957046509 -5.68906736373901
v -1.62479388713837 4.55791330337524 -4.01516675949097
v -2.18407130241394 7.2790641784668 -5.93269968032837
v -4.57304620742798 4.65311145782471 -3.02016973495483
v -5.13232374191284 7.37426233291626 -4.93770313262939
v -4.08597946166992 3.64261698722839 -4.52743244171143
v -2.92743277549744 6.84760522842407 -5.80169773101807
v -5.81329774856567 5.36762475967407 -1.75920963287354
v -4.65475082397461 8.57261276245117 -3.0334746837616
v -4.24651050567627 3.94712615013123 -3.70410823822021
v -4.40988254547119 7.42226362228394 -4.93844509124756
v -4.73297452926636 5.16543102264404 -0.20972071588039
v -4.89634704589844 8.64056873321533 -1.44405770301819
v -5.56638717651367 4.29548740386963 -1.70136821269989
v -5.26176309585571 7.19032382965088 -3.47010183334351
v -3.88109397888184 5.66018533706665 0.82244801521301
v -3.57646989822388 8.55502223968506 -0.9462856054306
v -3.98169207572937 5.27519416809082 -2.00624179840088
v -5.33157444000244 8.28062915802002 -1.54845368862152
v -3.81128263473511 4.8326940536499 1.40131199359894
v -5.1611647605896 7.83812952041626 1.85910022258759
v -6.0403790473938 5.67457866668701 -0.77337527275085
v -4.8670539855957 9.08120536804199 0.09353244304657
v -4.27580308914185 4.29493284225464 2.25983810424805
v -3.10247826576233 7.70155954360962 3.12674593925476
v -3.79825329780579 4.81884479522705 1.35391628742218
v -5.1078953742981 7.99124336242676 0.40435060858726
v -4.03496170043945 5.64770889282227 4.44953203201294
v -5.34460353851318 8.82010746002197 3.49996638298035
v -5.42195796966553 5.43445158004761 2.10297083854675
v -4.09353637695312 8.59554672241211 2.06848287582397
v -4.81447267532349 5.21361112594604 5.26053333282471
v -3.48605132102966 8.37470626831055 5.22604560852051
v -5.42557334899902 5.11958837509155 4.2228798866272
v -5.41491365432739 8.73790454864502 4.56840133666992
v -1.7040114402771 5.08999872207642 4.41793394088745
v -1.69335186481476 8.70831489562988 4.76345586776733
v -4.63288164138794 6.27019500732422 4.77686738967896
v -3.02663421630859 9.22357845306396 4.52616500854492
v -1.5951452255249 4.60447359085083 4.61669206619263
v 0.01110236905515 7.55785703659058 4.36599016189575
v -1.79776763916016 4.93390321731567 5.71462106704712
v -3.16992664337158 8.04534912109375 4.72385215759277
v 1.06243312358856 5.78270244598389 4.41900491714478
v -0.3097260594368 8.89414882659912 3.42823600769043
v -2.10109901428223 6.13709449768066 4.32068061828613
v -0.03781073540449 8.95228576660156 3.24307990074158
v 0.44460281729698 4.87576627731323 5.89977741241455
v 2.50789093971252 7.69095754623413 4.82217645645142
v 0.12108097225428 5.19243955612183 5.36737871170044
v -0.16341358423233 8.50809001922607 5.0332555770874
v 3.08449149131775 5.31996250152588 4.10960149765015
v 2.79999685287476 8.63561248779297 3.77547812461853
v 1.04314827919006 5.19861650466919 4.18381786346436
v 1.01526153087616 8.62997055053711 4.33854866027832
v 4.4201021194458 5.19808149337769 4.80430841445923
v 4.39221525192261 8.62943553924561 4.95903921127319
v 1.99399220943451 5.80393552780151 4.34216356277466
v 2.855872631073 8.83545398712158 4.65613603591919
v 4.98895120620728 4.99103593826294 3.96959280967712
v 5.85083150863647 8.02255439758301 4.28356504440308
v 4.2759952545166 4.75984907150269 4.35908174514771
v 3.03027415275574 7.75198173522949 4.92985486984253
v 6.08783721923828 6.03739404678345 1.61625301837921
v 4.84211587905884 9.02952671051025 2.1870265007019
v 4.808021068573 5.14380502700806 3.50458860397339
v 4.19587564468384 8.19524478912354 3.68596363067627
v 4.94698143005371 5.35866498947144 0.35879191756248
v 4.33483600616455 8.41010475158691 0.54016691446304
v 5.98681831359863 5.52187395095825 2.40421462059021
v 4.93606424331665 8.46738338470459 2.34617781639099
v 4.2067928314209 4.82371187210083 -0.80193448066711
v 3.15603876113892 7.76922130584717 -0.85997128486633
v 4.58233737945557 5.57433462142944 1.80366218090057
v 5.47940015792847 8.74839687347412 0.04496461898088
v 3.66345691680908 4.27988338470459 -1.00123345851898
v 4.56051969528198 7.45394611358643 -2.75993084907532
v 5.26730155944824 4.31673622131348 -0.62615180015564
v 3.5129976272583 7.46669054031372 0.18792708218098
v 5.62985944747925 5.2987756729126 -3.64470815658569
v 3.87555575370789 8.44873046875 -2.83062934875488
v 4.75178480148315 4.32974338531494 -1.64964294433594
v 4.35163688659668 7.39028120040894 -0.94253969192505
v 4.79122018814087 5.11237096786499 -5.0147533416748
v 4.39107227325439 8.17290878295898 -4.30765008926392
v 0.1866751909256 4.31212186813354 -5.29724550247192
v 0.02993213199079 7.57145404815674 -5.01912450790405
v 2.59516620635986 4.98905038833618 -3.54726433753967
v -1.03065025806427 3.97225880622864 -3.6415684223175
v -1.81305253505707 6.93111562728882 -5.46220207214355
v -1.62479388713837 4.55791330337524 -4.01516675949097
v -2.18407130241394 7.2790641784668 -5.93269968032837
v -5.13232374191284 7.37426233291626 -4.93770313262939
v -4.40988254547119 7.42226362228394 -4.93844509124756
v -4.73297452926636 5.16543102264404 -0.20972071588039
v -4.89634704589844 8.64056873321533 -1.44405770301819
v -3.81128263473511 4.8326940536499 1.40131199359894
v -3.48605132102966 8.37470626831055 5.22604560852051
v 0.12108097225428 5.19243955612183 5.36737871170044
v -0.16341358423233 8.50809001922607 5.0332555770874
v 5.26730155944824 4.31673622131348 -0.62615180015564
v 3.5129976272583 7.46669054031372 0.18792708218098
v 5.62985944747925 5.2987756729126 -3.64470815658569
v 3.87555575370789 8.44873046875 -2.83062934875488
# 131 vertices

vn 0.86394685506821 -0.49712285399437 -0.08040311187506
vn 0.86394691467285 -0.49712282419205 -0.08040311932564
vn 0 0 0
vn 0.57924103736877 0.43225240707397 -0.69111335277557
vn 0.57924103736877 0.4322524368763 -0.69111335277557
vn 0.15635047852993 -0.58874619007111 -0.7930526137352
vn 0.15635046362877 -0.58874624967575 -0.7930526137352
vn 0.38781973719597 0.09686719626188 -0.91663110256195
vn 0.387819647789 0.09686714410782 -0.9166311621666
vn 0.15880301594734 -0.48660629987717 -0.85906690359116
vn 0.37089666724205 0.1185103058815 -0.92108142375946
vn 0.37089669704437 0.11851032823324 -0.92108142375946
vn 0.03080778941512 -0.50629758834839 -0.86180835962296
vn 0.03080779872835 -0.50629758834839 -0.86180835962296
vn -0.27502632141113 -0.59094250202179 -0.75838476419449
vn -0.27502632141113 -0.59094256162643 -0.75838476419449
vn -0.82436794042587 0.07491790503263 -0.56107467412949
vn -0.82436800003052 0.07491788268089 -0.56107461452484
vn -0.99048221111298 -0.08501317352057 -0.10824850946665
vn -0.99048221111298 -0.08501312881708 -0.10824859142303
vn -0.85760432481766 0.33084100484848 0.39377534389496
vn -0.91261041164398 -0.40876263380051 -0.00744224945083
vn -0.91261035203934 -0.40876269340515 -0.0074421945028
vn -0.82507526874542 0.14522092044353 0.54604184627533
vn -0.82507526874542 0.14522096514702 0.54604178667068
vn -0.92699444293976 -0.37393361330032 0.02923906035721
vn -0.92699444293976 -0.37393361330032 0.02923910878599
vn -0.90243810415268 0.38142666220665 0.2002976089716
vn -0.90243810415268 0.38142669200897 0.20029754936695
vn -0.05285596475005 -0.09477277845144 0.99409472942352
vn -0.05285602807999 -0.09477271139622 0.99409472942352
vn 0.07617643475533 0.04313071072102 0.9961611032486
vn 0.07617641240358 0.04313080385327 0.9961611032486
vn 0.27691352367401 0.40028250217438 0.87355184555054
vn 0.27691352367401 0.4002825319767 0.87355184555054
vn -0.25993019342422 0.50544828176498 0.82277476787567
vn -0.25993019342422 0.50544828176498 0.82277476787567
vn 0.38306531310081 0.1250956505537 0.91521149873734
vn 0.38306531310081 0.12509560585022 0.91521149873734
vn -0.18053498864174 -0.04577144235373 0.98250299692154
vn -0.18053498864174 -0.04577143490314 0.98250299692154
vn 0.08830946683884 -0.12742403149605 0.98790919780731
vn 0.08830948919058 -0.12742407619953 0.98790919780731
vn 0.76992613077164 0.20528692007065 0.60421109199524
vn 0.76992607116699 0.20528690516949 0.60421115159988
vn 0.9795435667038 0.19314892590046 0.05646191164851
vn 0.9795435667038 0.19314892590046 0.05646191164851
vn 0.81226640939713 0.27967494726181 -0.51186442375183
vn 0.81226640939713 0.27967497706413 -0.51186442375183
vn 0.92796611785889 -0.34299877285957 -0.14570766687393
vn 0.92796611785889 -0.34299877285957 -0.14570768177509
vn 0.87284886837006 0.42342013120651 0.24259066581726
vn 0.87284880876541 0.42342016100883 0.24259072542191
vn 0.99191784858704 0.12052577733994 0.03965499997139
vn 0.99191784858704 0.12052576988935 0.03965499997139
vn -0.86394685506821 0.49712285399437 0.08040311187506
vn -0.86394685506821 0.49712288379669 0.08040311187506
vn -0.57924103736877 -0.43225240707397 0.69111335277557
vn -0.15635047852993 0.58874619007111 0.7930526137352
vn -0.15635050833225 0.58874613046646 0.79305267333984
vn -0.38781973719597 -0.09686719626188 0.91663110256195
vn -0.38781976699829 -0.09686724096537 0.91663110256195
vn -0.15880301594734 0.48660629987717 0.85906690359116
vn -0.1588030308485 0.48660627007484 0.85906690359116
vn -0.37089666724205 -0.1185103058815 0.92108142375946
vn -0.37089663743973 -0.11851027607918 0.92108142375946
vn -0.03080778941512 0.50629758834839 0.86180835962296
vn -0.03080778196454 0.50629752874374 0.86180835962296
vn 0.27502632141113 0.59094250202179 0.75838476419449
vn 0.2750264108181 0.59094262123108 0.75838470458984
vn 0.82436794042587 -0.07491790503263 0.56107467412949
vn 0.82436794042587 -0.07491792738438 0.56107473373413
vn 0.99048221111298 0.08501317352057 0.10824850946665
vn 0.99048221111298 0.08501321822405 0.10824842751026
vn 0.85760432481766 -0.33084100484848 -0.39377534389496
vn 0.85760432481766 -0.33084100484848 -0.39377537369728
vn 0.91261041164398 0.40876263380051 0.00744224945083
vn 0.91261041164398 0.40876257419586 0.0074423039332
vn 0.82507526874542 -0.14522092044353 -0.54604184627533
vn 0.82507526874542 -0.14522087574005 -0.54604184627533
vn 0.92699444293976 0.37393361330032 -0.02923906035721
vn 0.9269945025444 0.373933583498 -0.02923901192844
vn 0.90243810415268 -0.38142666220665 -0.2002976089716
vn 0.90243810415268 -0.38142663240433 -0.20029765367508
vn 0.05285596475005 0.09477277845144 -0.99409472942352
vn 0.05285589396954 0.09477283805609 -0.99409472942352
vn -0.07617643475533 -0.04313071072102 -0.9961611032486
vn -0.07617645710707 -0.04313061758876 -0.9961611032486
vn -0.27691352367401 -0.40028250217438 -0.87355184555054
vn -0.27691355347633 -0.40028250217438 -0.87355184555054
vn 0.25993019342422 -0.50544828176498 -0.82277476787567
vn 0.2599301636219 -0.50544828176498 -0.82277476787567
vn -0.38306531310081 -0.1250956505537 -0.91521149873734
vn -0.38306522369385 -0.12509569525719 -0.91521149873734
vn 0.18053498864174 0.04577144235373 -0.98250299692154
vn 0.18053498864174 0.04577144607902 -0.98250299692154
vn -0.08830946683884 0.12742403149605 -0.98790919780731
vn -0.08830944448709 0.12742400169373 -0.98790919780731
vn -0.76992613077164 -0.20528692007065 -0.60421109199524
vn -0.76992613077164 -0.20528692007065 -0.60421109199524
vn -0.9795435667038 -0.19314892590046 -0.05646191164851
vn -0.9795435667038 -0.1931489109993 -0.05646191164851
vn -0.81226640939713 -0.27967494726181 0.51186442375183
vn -0.92796611785889 0.34299877285957 0.14570766687393
vn -0.92796611785889 0.34299874305725 0.14570765197277
vn -0.87284886837006 -0.42342013120651 -0.24259066581726
vn -0.8728489279747 -0.42342010140419 -0.24259062111378
vn -0.99191784858704 -0.12052577733994 -0.03965499997139
vn -0.99191784858704 -0.12052577733994 -0.03965500369668
vn 0.86394685506821 -0.49712288379669 -0.08040311187506
vn 0.15635050833225 -0.58874613046646 -0.79305267333984
vn 0.38781976699829 0.09686724096537 -0.91663110256195
vn 0.1588030308485 -0.48660627007484 -0.85906690359116
vn 0.37089663743973 0.11851027607918 -0.92108142375946
vn 0.03080778196454 -0.50629752874374 -0.86180835962296
vn -0.2750264108181 -0.59094262123108 -0.75838470458984
vn -0.82436794042587 0.07491792738438 -0.56107473373413
vn -0.99048221111298 -0.08501321822405 -0.10824842751026
vn -0.85760432481766 0.33084100484848 0.39377537369728
vn -0.91261041164398 -0.40876257419586 -0.0074423039332
vn -0.82507526874542 0.14522087574005 0.54604184627533
vn -0.9269945025444 -0.373933583498 0.02923901192844
vn -0.90243810415268 0.38142663240433 0.20029765367508
vn -0.05285589396954 -0.09477283805609 0.99409472942352
vn 0.07617645710707 0.04313061758876 0.9961611032486
vn 0.27691355347633 0.40028250217438 0.87355184555054
vn -0.2599301636219 0.50544828176498 0.82277476787567
vn 0.38306522369385 0.12509569525719 0.91521149873734
vn -0.18053498864174 -0.04577144607902 0.98250299692154
vn 0.08830944448709 -0.12742400169373 0.98790919780731
vn 0.76992613077164 0.20528692007065 0.60421109199524
vn 0.9795435667038 0.1931489109993 0.05646191164851
vn 0.92796611785889 -0.34299874305725 -0.14570765197277
vn 0.8728489279747 0.42342010140419 0.24259062111378
vn 0.99191784858704 0.12052577733994 0.03965500369668
vn -0.86394691467285 0.49712282419205 0.08040311932564
vn -0.57924103736877 -0.4322524368763 0.69111335277557
vn -0.15635046362877 0.58874624967575 0.7930526137352
vn -0.387819647789 -0.09686714410782 0.9166311621666
vn -0.37089669704437 -0.11851032823324 0.92108142375946
vn -0.03080779872835 0.50629758834839 0.86180835962296
vn 0.27502632141113 0.59094256162643 0.75838476419449
vn 0.82436800003052 -0.07491788268089 0.56107461452484
vn 0.99048221111298 0.08501312881708 0.10824859142303
vn 0.91261035203934 0.40876269340515 0.0074421945028
vn 0.82507526874542 -0.14522096514702 -0.54604178667068
vn 0.92699444293976 0.37393361330032 -0.02923910878599
vn 0.90243810415268 -0.38142669200897 -0.20029754936695
vn 0.05285602807999 0.09477271139622 -0.99409472942352
vn -0.07617641240358 -0.04313080385327 -0.9961611032486
vn -0.27691352367401 -0.4002825319767 -0.87355184555054
vn 0.25993019342422 -0.50544828176498 -0.82277476787567
vn -0.38306531310081 -0.12509560585022 -0.91521149873734
vn 0.18053498864174 0.04577143490314 -0.98250299692154
vn -0.08830948919058 0.12742407619953 -0.98790919780731
vn -0.76992607116699 -0.20528690516949 -0.60421115159988
vn -0.9795435667038 -0.19314892590046 -0.05646191164851
vn -0.81226640939713 -0.27967497706413 0.51186442375183
vn -0.92796611785889 0.34299877285957 0.14570768177509
vn -0.87284880876541 -0.42342016100883 -0.24259072542191
vn -0.99191784858704 -0.12052576988935 -0.03965499997139
# 161 normals

vt 0.5 0.33366668224335 0
vt 1 0.33366668224335 0
vt 1 0.00033330917358 0
vt 0 0.00033330917358 0
vt 0 0.33366668224335 0
vt 0.5 0.00033330917358 0
vt 0.5 1 0
vt 1 1 0
vt 1 0.66666662693024 0
vt 0 1 0
vt 0.5 0.66666662693024 0
vt 0 0.66699993610382 0
vt 0.5 0.66699993610382 0
vt 1 0.66699993610382 0
vt 0 0.66666662693024 0
# 15 texture coordinates

o Leaf_Crown
usemtl Mat
f 4/3/1 2/2/2 1/1/1
f 8/6/4 6/1/5 5/5/4
f 12/9/6 10/8/7 9/7/6
f 16/11/8 14/7/9 13/10/8
f 20/1/10 18/13/10 17/12/10
f 24/2/11 22/14/12 21/13/11
f 28/3/13 26/2/14 25/1/13
f 32/6/15 30/1/16 29/5/15
f 36/9/17 34/8/18 33/7/17
f 40/11/19 38/7/20 37/10/19
f 44/1/21 42/13/21 41/12/21
f 48/2/22 46/14/23 45/13/22
f 52/3/24 50/2/25 49/1/24
f 56/6/26 54/1/27 53/5/26
f 60/9/28 58/8/29 57/7/28
f 64/11/30 62/7/31 61/10/30
f 68/1/32 66/13/33 65/12/32
f 72/2/34 70/14/35 69/13/34
f 76/3/36 74/2/37 73/1/36
f 80/6/38 78/1/39 77/5/38
f 84/9/40 82/8/41 81/7/40
f 88/11/42 86/7/43 85/10/42
f 92/1/44 90/13/45 89/12/44
f 96/2/46 94/14/47 93/13/46
f 100/3/48 98/2/49 97/1/48
f 104/6/50 102/1/51 101/5/50
f 108/9/52 106/8/53 105/7/52
f 112/11/54 110/7/55 109/10/54
f 4/3/56 3/6/57 1/1/56
f 8/6/58 7/4/58 5/5/58
f 12/9/59 11/11/60 9/7/59
f 114/11/61 113/15/62 13/10/61
f 117/1/63 116/5/64 115/12/63
f 24/2/65 23/1/66 21/13/65
f 28/3/67 27/6/68 25/1/67
f 120/6/69 31/4/70 118/5/69
f 36/9/71 35/11/72 33/7/71
f 123/11/73 122/15/74 37/10/73
f 44/1/75 43/5/76 41/12/75
f 48/2/77 124/1/78 45/13/77
f 52/3/79 51/6/80 49/1/79
f 56/6/81 55/4/82 53/5/81
f 125/9/83 59/11/84 57/7/83
f 64/11/85 63/15/86 61/10/85
f 68/1/87 67/5/88 65/12/87
f 72/2/89 71/1/90 69/13/89
f 76/3/91 75/6/92 73/1/91
f 80/6/93 79/4/94 126/5/93
f 84/9/95 83/11/96 81/7/95
f 88/11/97 87/15/98 85/10/97
f 92/1/99 91/5/100 89/12/99
f 96/2/101 95/1/102 93/13/101
f 100/3/103 99/6/103 97/1/103
f 104/6/104 103/4/105 101/5/104
f 131/9/106 130/11/107 128/7/106
f 112/11/108 111/15/109 109/10/108
f 3/6/110 4/3/1 1/1/1
f 7/4/4 8/6/4 5/5/4
f 11/11/111 12/9/6 9/7/6
f 15/15/112 16/11/8 13/10/8
f 19/5/113 20/1/10 17/12/10
f 23/1/114 24/2/11 21/13/11
f 27/6/115 28/3/13 25/1/13
f 31/4/116 32/6/15 29/5/15
f 35/11/117 36/9/17 33/7/17
f 39/15/118 40/11/19 37/10/19
f 43/5/119 44/1/21 41/12/21
f 47/1/120 48/2/22 45/13/22
f 51/6/121 52/3/24 49/1/24
f 55/4/122 56/6/26 53/5/26
f 59/11/123 60/9/28 57/7/28
f 63/15/124 64/11/30 61/10/30
f 67/5/125 68/1/32 65/12/32
f 71/1/126 72/2/34 69/13/34
f 75/6/127 76/3/36 73/1/36
f 79/4/128 80/6/38 77/5/38
f 83/11/129 84/9/40 81/7/40
f 87/15/130 88/11/42 85/10/42
f 91/5/131 92/1/44 89/12/44
f 95/1/132 96/2/46 93/13/46
f 99/6/48 100/3/48 97/1/48
f 103/4/133 104/6/50 101/5/50
f 107/11/134 108/9/52 105/7/52
f 111/15/135 112/11/54 109/10/54
f 2/2/136 4/3/56 1/1/56
f 6/1/137 8/6/58 5/5/58
f 10/8/138 12/9/59 9/7/59
f 14/7/139 114/11/61 13/10/61
f 18/13/63 117/1/63 115/12/63
f 22/14/140 24/2/65 21/13/65
f 26/2/141 28/3/67 25/1/67
f 119/1/142 120/6/69 118/5/69
f 34/8/143 36/9/71 33/7/71
f 121/7/144 123/11/73 37/10/73
f 42/13/75 44/1/75 41/12/75
f 46/14/145 48/2/77 45/13/77
f 50/2/146 52/3/79 49/1/79
f 54/1/147 56/6/81 53/5/81
f 58/8/148 125/9/83 57/7/83
f 62/7/149 64/11/85 61/10/85
f 66/13/150 68/1/87 65/12/87
f 70/14/151 72/2/89 69/13/89
f 74/2/152 76/3/91 73/1/91
f 127/1/153 80/6/93 126/5/93
f 82/8/154 84/9/95 81/7/95
f 86/7/155 88/11/97 85/10/97
f 90/13/156 92/1/99 89/12/99
f 94/14/157 96/2/101 93/13/101
f 98/2/158 100/3/103 97/1/103
f 102/1/159 104/6/104 101/5/104
f 129/8/160 131/9/106 128/7/106
f 110/7/161 112/11/108 109/10/108

