# WaveFront *.obj file (generated by CINEMA 4D)

v -0.5 17.5 -0.5
v -0.5 16.5 -0.5
v 0.5 17.5 -0.5
v 0.5 16.5 -0.5
v 0 17 0
v 2.04999995231628 8.60000038146973 2.04999995231628
v -2.04999995231628 8.60000038146973 2.04999995231628
v 2.04999995231628 8.60000038146973 -2.04999995231628
v -2.04999995231628 8.60000038146973 -2.04999995231628
v -2.45000004768372 8 2.45000004768372
v 2.45000004768372 8 2.45000004768372
v 2.45000004768372 8 -2.45000004768372
v -2.45000004768372 8 -2.45000004768372
v 2.25 8.60000038146973 2.25
v -2.25 8.60000038146973 2.25
v 2.25 8.60000038146973 -2.25
v -2.25 8.60000038146973 -2.25
v -0.5 16.5 0.5
v -0.5 17.5 0.5
v 0.5 16.5 0.5
v 0.5 17.5 0.5
# 21 vertices

vn 0 0.2370893061161 0.97148787975311
vn 0 0 0
vn 0.97148787975311 0.2370893061161 0
vn 0 0.2370893061161 -0.97148787975311
vn -0.97148787975311 0.2370893061161 0
vn 0 0.31622764468193 0.94868332147598
vn 0 0.31622764468193 0.94868332147598
vn 0.94868332147598 0.31622764468193 0
vn 0.94868332147598 0.31622764468193 0
vn 0 0.31622764468193 -0.94868332147598
vn 0 0.31622764468193 -0.94868332147598
vn -0.94868332147598 0.31622764468193 0
vn -0.94868332147598 0.31622764468193 0
vn 0 1 0
vn 0 -1 0
vn -1 0 0
vn 0 0 -1
vn 0 0 -1
vn 0 0 1
vn 1 0 0
vn 0 0.31622764468193 -0.94868332147598
# 21 normals

vt 0.48643493652344 0.05308532714844 0.5
vt 0.62966918945312 0.9364013671875 0.5
vt 0.34319305419922 0.9364013671875 0.5
vt 0.00003051757812 0 0.5
vt 0.82881164550781 0.05308532714844 0.5
vt 0.9720458984375 0.9364013671875 0.5
vt 0.68556213378906 0.9364013671875 0.5
vt 0.64364624023438 0.93684387207031 0.5
vt 0.65762329101562 0.99996948242188 0.5
vt 0.31524658203125 0.99996948242188 0.5
vt 0.98602294921875 0.93684387207031 0.5
vt 1 0.99996948242188 0.5
vt 0.30123901367188 0.97891235351562 0.5
vt 0.31525421142578 0.99996948242188 0.5
vt 0.00004013814032 0.99996948242188 0.5
vt 0.79386901855469 0.10527038574219 0.5
vt 0.79386901855469 0 0.5
vt 0.86373901367188 0 0.5
vt 0.30123901367188 0.54676818847656 0.5
vt 0.31525421142578 0.52569580078125 0.5
vt 0.01402115821838 0.54676818847656 0.5
vt 0.00004013814032 0.52569580078125 0.5
vt 0.01402115821838 0.97891235351562 0.5
vt 0.45149230957031 0.10527038574219 0.5
vt 0.45149230957031 0 0.5
vt 0.5213623046875 0 0.5
vt 0.32921600341797 0.93684387207031 0.5
vt 0.67158508300781 0.93684387207031 0.5
vt 0.86373901367188 0.10527038574219 0.5
vt 0.5213623046875 0.10527038574219 0.5
# 30 texture coordinates

o Pyramid.1
usemtl Mat
f 7/3/1 6/2/1 5/1/1
f 6/7/3 8/6/3 5/5/3
f 8/7/4 9/6/4 5/5/4
f 9/7/5 7/6/5 5/5/5
f 10/10/6 11/9/7 14/8/6
f 11/9/8 12/12/9 16/11/8
f 12/9/10 13/12/11 17/11/10
f 13/9/12 10/12/13 15/11/12
f 15/15/14 14/14/14 6/13/14
f 20/18/15 18/17/15 2/16/15
f 14/14/14 16/20/14 8/19/14
f 3/18/14 1/17/14 19/16/14
f 16/20/14 17/22/14 9/21/14
f 19/18/16 1/17/16 2/16/16
f 17/22/14 15/15/14 7/23/14
f 1/18/17 3/17/18 4/16/17
f 21/26/19 19/25/19 18/24/19
f 3/18/20 21/17/20 20/16/20
f 15/27/7 10/10/6 14/8/6
f 14/28/9 11/9/8 16/11/8
f 16/28/21 12/9/10 17/11/10
f 17/28/13 13/9/12 15/11/12
f 7/23/14 15/15/14 6/13/14
f 4/29/15 20/18/15 2/16/15
f 6/13/14 14/14/14 8/19/14
f 21/29/14 3/18/14 19/16/14
f 8/19/14 16/20/14 9/21/14
f 18/29/16 19/18/16 2/16/16
f 9/21/14 17/22/14 7/23/14
f 2/29/17 1/18/17 4/16/17
f 20/30/19 21/26/19 18/24/19
f 4/29/20 3/18/20 20/16/20

