# WaveFront *.obj file (generated by CINEMA 4D)

v -4.25001430511475 7.54723215103149 -4.25001430511475
v -2.83334279060364 11.52195835113525 -2.83334279060364
v -4.25001430511475 7.54723215103149 4.25001430511475
v -2.83334279060364 11.52195835113525 2.83334279060364
v -4.25001430511475 10.19705009460449 -4.25001430511475
v 4.25001430511475 10.19705009460449 4.25001430511475
v 4.25001430511475 10.19705009460449 -4.25001430511475
v 4.25001430511475 7.54723215103149 -4.25001430511475
v -4.95834970474243 10.19705009460449 4.95834970474243
v -4.95834970474243 10.19705009460449 -4.95834970474243
v 2.83334279060364 11.52195835113525 -2.83334279060364
v 4.95834970474243 10.19705009460449 -4.95834970474243
v 2.83334279060364 11.52195835113525 2.83334279060364
v 4.95834970474243 10.19705009460449 4.95834970474243
v -4.25001430511475 10.19705009460449 4.25001430511475
v 4.25001430511475 7.54723215103149 4.25001430511475
# 16 vertices

vn 0 -0.2582471370697 -0.96607887744904
vn 0 0 0
vn 0.96607887744904 -0.2582471370697 0
vn 0 -0.13023270666599 0.99148344993591
vn 0 0 1
vn 0 -1 0
vn 0 -0.2582471370697 0.96607887744904
vn -0.96607887744904 -0.2582471370697 0
vn -0.99148344993591 -0.13023270666599 0
vn 1 0 0
vn 0 0 -1
vn 0 0 -1
vn -1 0 0
vn 0 1 0
vn -0.68305677175522 0.73036533594131 0
vn -0.68305671215057 0.73036533594131 0
vn 0 0.73036533594131 -0.68305677175522
vn 0 0.73036533594131 -0.68305671215057
vn 0.68305677175522 0.73036533594131 0
vn 0.68305671215057 0.73036533594131 0
vn 0 0.73036533594131 0.68305677175522
vn 0 0.73036533594131 0.68305671215057
vn 0 -0.25824710726738 -0.96607887744904
vn 0.96607887744904 -0.25824710726738 0
vn 0 -0.25824710726738 0.96607887744904
vn -0.96607887744904 -0.25824710726738 0
vn -0.68305677175522 0.73036533594131 0
vn 0 0.73036533594131 -0.68305677175522
vn 0.68305677175522 0.73036533594131 0
vn 0 0.73036533594131 0.68305677175522
# 30 normals

vt 1 0.83334350585938 0.5
vt 1 0.99996948242188 0.5
vt 0.75001525878906 0.99996948242188 0.5
vt 0.00003051757812 0 0.5
vt 0.75 0.83334350585938 0.5
vt 0.75 0.99996948242188 0.5
vt 0.50001525878906 0.99996948242188 0.5
vt 0.25 0.83333587646484 0.5
vt 0.25 0.66667175292969 0.5
vt 0.5 0.66667175292969 0.5
vt 0.5 0 0.5
vt 0.75 0 0.5
vt 0.5 0.83334350585938 0.5
vt 0.5 0.99996948242188 0.5
vt 0.25001525878906 0.99996948242188 0.5
vt 0.25 0.83334350585938 0.5
vt 0.25 0.99996948242188 0.5
vt 0.00003051757812 0.99996948242188 0.5
vt 0.5 0.83333587646484 0.5
vt 0.75 0.66667175292969 0.5
vt -1.75164794921875 0 0.5
vt 0.75 0.83333587646484 0.5
vt 1 0.66667175292969 0.5
vt 0.00003051757812 0.83333587646484 0.5
vt 0.00003051757812 0.66667175292969 0.5
vt 0.29166412353516 0.55555725097656 0.5
vt 0.29166412353516 0.11111450195312 0.5
vt 0.45832824707031 0.11111450195312 0.5
vt 0.25 0 0.5
vt 0.45832824707031 0.55555725097656 0.5
vt 0.75001525878906 0.83334350585938 0.5
vt 0.50001525878906 0.83334350585938 0.5
vt 0.25001525878906 0.83334350585938 0.5
vt 0.00003051757812 0.83334350585938 0.5
vt 1 0.83333587646484 0.5
# 35 texture coordinates

o Cube.4
usemtl Mat
f 8/3/1 1/2/1 10/1/1
f 16/7/3 8/6/3 12/5/3
f 6/10/5 15/9/5 3/8/4
f 16/12/6 3/11/6 1/10/6
f 3/15/4 16/14/4 14/13/7
f 1/18/9 3/17/9 9/16/8
f 7/20/10 6/10/10 16/19/10
f 5/23/11 7/20/12 8/22/11
f 15/9/13 5/25/13 1/24/9
f 11/28/14 2/27/14 4/26/14
f 4/26/15 2/27/16 5/29/15
f 2/27/17 11/28/18 7/11/17
f 11/28/19 13/30/20 6/10/19
f 13/30/21 4/26/22 15/9/21
f 12/31/23 8/3/1 10/1/1
f 14/32/24 16/7/3 12/5/3
f 16/19/4 6/10/5 3/8/4
f 8/20/6 16/12/6 1/10/6
f 9/33/25 3/15/4 14/13/7
f 10/34/26 1/18/9 9/16/8
f 8/22/10 7/20/10 16/19/10
f 1/35/11 5/23/11 8/22/11
f 3/8/9 15/9/13 1/24/9
f 13/30/14 11/28/14 4/26/14
f 15/9/27 4/26/15 5/29/15
f 5/29/28 2/27/17 7/11/17
f 7/11/29 11/28/19 6/10/19
f 6/10/30 13/30/21 15/9/21

