# WaveFront *.obj file (generated by CINEMA 4D)

v 9.65851497650146 6.94820547103882 2.25
v 6.88687515258789 5.80015563964844 2.25
v 6.88687515258789 5.80015563964844 -2.25
v 9.65851497650146 6.94820547103882 -2.25
v 5.73882484436035 8.5717945098877 2.25
v 8.51046466827393 9.71984481811523 2.25
v 8.51046466827393 9.71984481811523 -2.25
v 5.73882484436035 8.5717945098877 -2.25
v 8.58239459991455 2.21926593780518 2.75
v 4.88687515258789 3.75 2.75
v 4.88687515258789 3.75 -2.75
v 8.58239459991455 2.21926593780518 -2.75
v 6.41760492324829 7.44551801681519 2.75
v 10.11312484741211 5.91478395462036 2.75
v 10.11312484741211 5.91478395462036 -2.75
v 6.41760492324829 7.44551801681519 -2.75
v 6.43032455444336 7.4644660949707 3
v 2.89479470252991 11 3
v 2.89479470252991 11 -3
v 6.43032455444336 7.4644660949707 -3
v 5.36966466903687 13.47486972808838 3
v 8.90520572662354 9.93933963775635 3
v 8.90520572662354 9.93933963775635 -3
v 5.36966466903687 13.47486972808838 -3
v 5.38691520690918 9.99999809265137 4
v 5.38691520690918 9.99999809265137 -4.00000190734863
v 5.38691520690918 13.50000190734863 4
v 5.38691520690918 13.50000190734863 -4.00000190734863
v 4.38687515258789 7 5
v -8.11312484741211 7 5
v -8.11312484741211 7 -5
v 4.38687515258789 7 -5
v -8.11312484741211 10 5
v 4.38687515258789 10 5
v 4.38687515258789 10 -5
v -8.11312484741211 10 -5
v 4.88687515258789 3.5 7
v -9.11312484741211 3.5 7
v -9.11312484741211 3.5 -7
v 4.88687515258789 3.5 -7
v -9.11312484741211 7 7
v 4.88687515258789 7 7
v 4.88687515258789 7 -7
v -9.11312484741211 7 -7
v 5.88687515258789 0 8
v -10.11312484741211 0 8
v -10.11312484741211 0 -8
v 5.88687515258789 0 -8
v -10.11312484741211 3.5 8
v 5.88687515258789 3.5 8
v 5.88687515258789 3.5 -8
v -10.11312484741211 3.5 -8
v -4.61308288574219 13.49978923797607 3.99931597709656
v -4.61329412460327 13.5 -4
v -4.61304092407227 9.99999809265137 4
v -8.11295890808105 10 4
v -8.11295890808105 10 -4
v -4.61299991607666 10 -4
# 58 vertices

vn 0.38268318772316 -0.92387962341309 0
vn 0.38268315792084 -0.92387962341309 0
vn 0 0 0
vn -0.38268327713013 0.92387956380844 0
vn 0 0 -1
vn 0 0 1
vn 0 0 1
vn -0.92387956380844 -0.38268339633942 0
vn 0.92387956380844 0.38268336653709 0
vn -0.70710718631744 -0.70710635185242 0
vn 0.70710569620132 0.70710784196854 0
vn -0.70710670948029 0.70710682868958 0
vn 0.70710569620132 -0.70710790157318 0
vn -0.38268336653709 -0.92387956380844 0
vn -0.38268336653709 -0.92387956380844 0
vn 0.38268333673477 0.92387956380844 0
vn -0.92387986183166 0.38268259167671 0
vn 0.92387986183166 -0.38268268108368 0
vn -0.00000009536826 -1 -0.00000011920977
vn -0.00000009536826 -1 -0.00000023841906
vn -0.00000018392652 -1 -0.00000011920953
vn -0.00001072973646 1 0.00001317403439
vn -0.00000019073086 1 0
vn -0.0000001271558 -0.00000000000534 -1
vn -0.00000019073649 0 -1
vn -0.00000019073369 -0.00000000000802 -1
vn -0.00003420115172 0.00009772339399 1
vn 0.00000000005326 0.00019544677343 1
vn -0.00002280073204 0.00013029784895 1
vn 1 0 0
vn 0 -1 0
vn 0 -1 0
vn 0 1 0
vn 0 1 0
vn -1 0 0
vn 0 0 -1
vn 0 0 -1
vn -0.70710718631744 -0.70710635185242 0
vn 0 -1 0
vn 1 0 0
vn -0.00002126874278 1 0.00002634806879
vn -0.00000009536544 -0.00000000000802 -1
vn -0.00006840230344 0 1
vn -0.70711934566498 0.70709425210953 0.00001865547893
vn -0.70714068412781 0.7070729136467 0.00003731095785
vn 0.00000000010651 0.00019544677343 1
vn 1 0.00004800710303 -0.00001064300432
vn 1 0.00001198460268 -0.0000264067985
vn -0.00000027248475 -1 -0.00000011920929
vn -0.00000054496951 -1 0
vn -0.7070979475975 0.70711559057236 0
vn 1 0.0000840296052 0.00000512078941
# 52 normals

vt 0.17189025878906 0.83541071414948 0
vt 0.12504577636719 0.83541071414948 0
vt 0.12504577636719 0.77211725711823 0
vt 0.12501525878906 0.83541071414948 0
vt 0.07817077636719 0.83541071414948 0
vt 0.07817077636719 0.77211725711823 0
vt 0.25000762939453 0.87338984012604 0
vt 0.20316696166992 0.87338984012604 0
vt 0.20316696166992 0.83541071414948 0
vt 0.12501525878906 0.87338984012604 0
vt 0.07817077636719 0.87338984012604 0
vt 0.0625114440918 0.87338984012604 0
vt 0.00005226116627 0.87338984012604 0
vt 0.00005226116627 0.83541071414948 0
vt 0.20312881469727 0.87338984012604 0
vt 0.12505340576172 0.87338984012604 0
vt 0.12505340576172 0.83541071414948 0
vt 0.25000762939453 0.72148859500885 0
vt 0.17193222045898 0.72148859500885 0
vt 0.17193222045898 0.64553034305573 0
vt 0.17188262939453 0.72148859500885 0
vt 0.09380722045898 0.72148859500885 0
vt 0.09380722045898 0.64553034305573 0
vt 0.34375 0.77213251590729 0
vt 0.26567840576172 0.77213251590729 0
vt 0.26567840576172 0.72148859500885 0
vt 0.17188262939453 0.77213251590729 0
vt 0.09380722045898 0.77213251590729 0
vt 0.0937557220459 0.77213251590729 0
vt 0.00006249547005 0.77213251590729 0
vt 0.00006249547005 0.72148859500885 0
vt 0.265625 0.77213251590729 0
vt 0.17193603515625 0.77213251590729 0
vt 0.17193603515625 0.72148859500885 0
vt 0.21875762939453 0.94931757450104 0
vt 0.15629959106445 0.87337458133698 0
vt 0.21875762939453 0.87337458133698 0
vt 0.15625762939453 0.94931757450104 0
vt 0.09379959106445 0.87337458133698 0
vt 0.15625762939453 0.87337458133698 0
vt 0.3125 0.99996149539948 0
vt 0.25004577636719 0.9493328332901 0
vt 0.3125 0.9493328332901 0
vt 0.15625762939453 0.99996149539948 0
vt 0.09379959106445 0.9493328332901 0
vt 0.15625762939453 0.9493328332901 0
vt 0.09375 0.99996149539948 0
vt 0.00006103515625 0.9493328332901 0
vt 0.09375 0.9493328332901 0
vt 0.24999618530273 0.99996149539948 0
vt 0.15630722045898 0.9493328332901 0
vt 0.24999618530273 0.9493328332901 0
vt 0.81248474121094 0.9113689661026 0
vt 0.65626525878906 0.9113689661026 0
vt 0.65626525878906 0.81011164188385 0
vt 0.65623474121094 0.9113689661026 0
vt 0.50001525878906 0.9113689661026 0
vt 0.50001525878906 0.81011164188385 0
vt 0.93746948242188 0.96201288700104 0
vt 0.78125 0.96201288700104 0
vt 0.78125 0.91138422489166 0
vt 0.65623474121094 0.96201288700104 0
vt 0.50001525878906 0.96201288700104 0
vt 0.50001525878906 0.91138422489166 0
vt 0.78123474121094 0.96201288700104 0
vt 0.65625 0.96201288700104 0
vt 0.65625 0.91138422489166 0
vt 0.5625 0.60599482059479 0
vt 0.35940551757812 0.60599482059479 0
vt 0.35940551757812 0.48257410526276 0
vt 0.35938262939453 0.60599482059479 0
vt 0.15628433227539 0.60599482059479 0
vt 0.15628433227539 0.48257410526276 0
vt 0.71875 0.64556086063385 0
vt 0.51565551757812 0.64556086063385 0
vt 0.51565551757812 0.60758173465729 0
vt 0.35938262939453 0.64556086063385 0
vt 0.15628433227539 0.64556086063385 0
vt 0.15628433227539 0.60758173465729 0
vt 0.15625762939453 0.64556086063385 0
vt 0.00003125052899 0.64556086063385 0
vt 0.00003125052899 0.60758173465729 0
vt 0.515625 0.64556086063385 0
vt 0.35940551757812 0.64556086063385 0
vt 0.35940551757812 0.60758173465729 0
vt 0.65625 0.43034327030182 0
vt 0.43753051757812 0.43034327030182 0
vt 0.43753051757812 0.25312006473541 0
vt 0.43750762939453 0.43034327030182 0
vt 0.21878433227539 0.43034327030182 0
vt 0.21878433227539 0.25312006473541 0
vt 0.875 0.48097956180573 0
vt 0.65628051757812 0.48097956180573 0
vt 0.65628051757812 0.43034327030182 0
vt 0.43750762939453 0.48097956180573 0
vt 0.21878433227539 0.48097956180573 0
vt 0.2187614440918 0.48097956180573 0
vt 0.00003719329834 0.48097956180573 0
vt 0.00003719329834 0.43034327030182 0
vt 0.65625 0.48097956180573 0
vt 0.43753051757812 0.48097956180573 0
vt 0.15629959106445 0.94931757450104 0
vt 0.09379959106445 0.94931757450104 0
vt 0.25004577636719 0.99996149539948 0
vt 0.09379959106445 0.99996149539948 0
vt 0.00006103515625 0.99996149539948 0
vt 0.15630722045898 0.99996149539948 0
vt 0.50001525878906 0.2025066614151 0
vt 0.50001525878906 0.00001525878906 0
vt 0.75 0.00001525878906 0
vt 0.25001525878906 0.2025066614151 0
vt 0.25001525878906 0.00001525878906 0
vt 0.5 0.00001525878906 0
vt 0.99996948242188 0.25315058231354 0
vt 0.74998474121094 0.25315058231354 0
vt 0.74998474121094 0.2025181055069 0
vt 0.49996948242188 0.25315058231354 0
vt 0.24998474121094 0.25315058231354 0
vt 0.24998474121094 0.2025181055069 0
vt 0.24996948242188 0.25315058231354 0
vt -0.00003051757812 0.25315058231354 0
vt -0.00003051757812 0.2025181055069 0
vt 0.74996948242188 0.25315058231354 0
vt 0.49998474121094 0.25315058231354 0
vt 0.49998474121094 0.2025181055069 0
vt 0.17189025878906 0.77211725711823 0
vt 0.12501525878906 0.77211725711823 0
vt 0.25000762939453 0.83541071414948 0
vt 0.0625114440918 0.83541071414948 0
vt 0.20312881469727 0.83541071414948 0
vt 0.25000762939453 0.64553034305573 0
vt 0.17188262939453 0.64553034305573 0
vt 0.34375 0.72148859500885 0
vt 0.0937557220459 0.72148859500885 0
vt 0.265625 0.72148859500885 0
vt 0.75 0.2025066614151 0
vt 0.5 0.2025066614151 0
vt 0.99996948242188 0.2025181055069 0
vt 0.49996948242188 0.2025181055069 0
vt 0.24996948242188 0.2025181055069 0
vt 0.74996948242188 0.2025181055069 0
vt 0.81248474121094 0.81011164188385 0
vt 0.65623474121094 0.81011164188385 0
vt 0.93746948242188 0.91138422489166 0
vt 0.65623474121094 0.91138422489166 0
vt 0.78123474121094 0.91138422489166 0
vt 0.5625 0.48257410526276 0
vt 0.35938262939453 0.48257410526276 0
vt 0.71875 0.60758173465729 0
vt 0.35938262939453 0.60758173465729 0
vt 0.15625762939453 0.60758173465729 0
vt 0.515625 0.60758173465729 0
vt 0.65625 0.25312006473541 0
vt 0.43750762939453 0.25312006473541 0
vt 0.875 0.43034327030182 0
vt 0.2187614440918 0.43034327030182 0
vt 0.609375 0.74628412723541 0
vt 0.53125 0.74628412723541 0
vt 0.53125 0.64606440067291 0
vt 0.609375 0.64606440067291 0
vt 0.57031321525574 0.7916556596756 0
vt 0.53125 0.7468181848526 0
vt 0.609375 0.7468181848526 0
vt 0.77343821525574 0.7916556596756 0
vt 0.734375 0.7468181848526 0
vt 0.8125 0.7468181848526 0
vt 0.37508121132851 0.96199911832809 0
vt 0.37508121132851 0.91139799356461 0
vt 0.5001340508461 0.91139799356461 0
vt 0.5001340508461 0.96199911832809 0
vt 0.30251443386078 0.59364104270935 0
vt 0.35938060283661 0.59364104270935 0
vt 0.30251443386078 0.49491620063782 0
vt 0.35938060283661 0.49491620063782 0
# 174 texture coordinates

o Element_#8.2
usemtl Mat
f 2/3/1 3/2/2 4/1/1
f 6/6/4 7/5/4 8/4/4
f 7/9/5 4/8/5 3/7/5
f 5/5/6 2/11/7 1/10/6
f 8/14/8 3/13/8 2/12/8
f 6/17/9 1/16/9 4/15/9
f 18/20/10 19/19/10 20/18/10
f 22/23/11 23/22/11 24/21/11
f 23/26/5 20/25/5 19/24/5
f 21/22/6 18/28/6 17/27/6
f 24/31/12 19/30/12 18/29/12
f 22/34/13 17/33/13 20/32/13
f 9/37/15 10/36/14 12/35/14
f 13/40/16 14/39/16 16/38/16
f 16/43/5 15/42/5 11/41/5
f 14/46/6 13/45/6 9/44/6
f 13/49/17 16/48/17 10/47/17
f 15/52/18 14/51/18 12/50/18
f 55/55/21 58/54/20 26/53/19
f 27/58/22 28/57/23 54/56/22
f 28/61/26 26/60/25 58/59/24
f 53/64/29 55/63/28 25/62/27
f 27/67/30 25/66/30 26/65/30
f 30/70/31 31/69/32 32/68/31
f 34/73/33 35/72/34 36/71/33
f 35/76/5 32/75/5 31/74/5
f 33/79/6 30/78/6 29/77/6
f 36/82/35 31/81/35 30/80/35
f 34/85/30 29/84/30 32/83/30
f 38/88/31 39/87/32 40/86/31
f 42/91/33 43/90/34 44/89/33
f 43/94/5 40/93/5 39/92/5
f 41/90/6 38/96/6 37/95/6
f 44/99/35 39/98/35 38/97/35
f 42/87/30 37/101/30 40/100/30
f 10/36/14 11/102/14 12/35/14
f 14/39/16 15/103/16 16/38/16
f 15/42/5 12/104/36 11/41/5
f 13/45/6 10/105/6 9/44/6
f 16/48/17 11/106/17 10/47/17
f 14/51/18 9/107/18 12/50/18
f 46/110/31 47/109/32 48/108/31
f 50/113/33 51/112/34 52/111/33
f 51/116/5 48/115/5 47/114/5
f 49/119/6 46/118/6 45/117/6
f 52/122/35 47/121/35 46/120/35
f 50/125/30 45/124/30 48/123/30
f 1/126/2 2/3/1 4/1/1
f 5/127/4 6/6/4 8/4/4
f 8/128/37 7/9/5 3/7/5
f 6/4/6 5/5/6 1/10/6
f 5/129/8 8/14/8 2/12/8
f 7/130/9 6/17/9 4/15/9
f 17/131/38 18/20/10 20/18/10
f 21/132/11 22/23/11 24/21/11
f 24/133/36 23/26/5 19/24/5
f 22/21/6 21/22/6 17/27/6
f 21/134/12 24/31/12 18/29/12
f 23/135/13 22/34/13 20/32/13
f 45/136/39 46/110/31 48/108/31
f 49/137/33 50/113/33 52/111/33
f 52/138/5 51/116/5 47/114/5
f 50/139/6 49/119/6 45/117/6
f 49/140/35 52/122/35 46/120/35
f 51/141/40 50/125/30 48/123/30
f 25/142/39 55/55/21 26/53/19
f 53/143/41 27/58/22 54/56/22
f 54/144/42 28/61/26 58/59/24
f 27/145/43 53/64/29 25/62/27
f 28/146/40 27/67/30 26/65/30
f 29/147/39 30/70/31 32/68/31
f 33/148/33 34/73/33 36/71/33
f 36/149/5 35/76/5 31/74/5
f 34/150/6 33/79/6 29/77/6
f 33/151/35 36/82/35 30/80/35
f 35/152/40 34/85/30 32/83/30
f 37/153/39 38/88/31 40/86/31
f 41/154/33 42/91/33 44/89/33
f 44/155/5 43/94/5 39/92/5
f 42/89/6 41/90/6 37/95/6
f 41/156/35 44/99/35 38/97/35
f 43/86/40 42/87/30 40/100/30
f 53/159/44 54/158/45 57/157/44
f 53/163/29 56/162/46 55/161/28
f 58/166/24 57/165/5 54/164/42
f 54/169/47 53/168/48 55/167/47
f 55/173/21 57/172/49 58/171/20
f 57/172/49 55/173/21 56/174/50
f 56/160/51 53/159/44 57/157/44
f 58/170/52 54/169/47 55/167/47

