# WaveFront *.obj file (generated by CINEMA 4D)

v -7 1 2
v -8 1 3
v -7 3 2
v -8 3 2
v -8 3 3
v -7 3 3
v -7 1 3
v -7 1 -4
v -8 1 -4
v -8 1 0
v -7 1 0
v -7 0 -4
v -8 0 -4
v -7 2 0
v -7 2 2
v -7 0 2
v -7 0 0
v -8 2 2
v -8 2 0
v -8 0 0
v -6 3 3
v -7 4 3
v -6 4 3
v -7 4 2
v -6 3 2
v -6 1 2
v -6 4 4
v -5 4 2
v -5 1 4
v -5 1 2
v -6 4 2
v -6 1 4
v -3 1 4
v -3 4 2
v -3 4 4
v -4 1 4
v -4 4 2
v -4 1 2
v -3 1 2
v -4 4 4
v -2 5 3
v -2 5 4
v -3 5 4
v -2 6 4
v -3 6 4
v -3 6 3
v -5 5 4
v -5 5 3
v -5 4 3
v -5 4 4
v -1 7 3
v -2 7 4
v -1 6 4
v -1 6 3
v -2 3 3
v -1 3 4
v -2 3 4
v -1 4 4
v -1 4 3
v -1 3 3
v -2 4 4
v -1 8 4
v -1 7 4
v -1 8 2
v -1 7 2
v 1 8 2
v 1 8 4
v -2 6 2
v -2 7 3
v 1 7 3
v 1 6 3
v 1 6 2
v -2 7 2
v -2 6 3
v 1 4 2
v 1 4 3
v 1 3 3
v -2 4 3
v -2 4 2
v -2 3 2
v -1 3 2
v 1 3 4
v 1 1 4
v 1 1 2
v -1 1 2
v -1 1 4
v 2 7 2
v 1 7 4
v 2 7 4
v 2 6 4
v 1 7 2
v 1 6 4
v -3 5 3
v 2 6 2
v 2 6 3
v 2 5 2
v 2 5 3
v -3 6 2
v -3 5 2
v 2 4 3
v -5 5 2
v 1 3 2
v 2 3 2
v 2 3 4
v 1 4 4
v 2 5 4
v 3 6 2
v 3 6 4
v 3 5 4
v 3 5 2
v 3 1 2
v 4 1 2
v 4 4 2
v 4 4 4
v 4 1 4
v 3 4 4
v 3 4 2
v 3 1 4
v 2 4 2
v 2 4 4
v 5 5 2
v 5 5 4
v 5 4 2
v 5 1 3
v 5 0 3
v 5 1 4
v 5 0 4
v -5 1 3
v -5 0 3
v -5 0 4
v 5 1 2
v 6 3 2
v 6 3 3
v 6 1 2
v 5 3 2
v 6 4 3
v 5 4 4
v 6 4 4
v 6 1 4
v 6 1 3
v 5 4 3
v 7 4 2
v 7 4 3
v 5 3 3
v 7 1 3
v 8 3 2
v 7 1 2
v 8 3 3
v 8 1 3
v 8 1 2
v 7 3 3
v 7 3 2
v 7 1 0
v 8 1 -4
v 8 1 0
v 8 0 -4
v 7 1 -4
v 7 0 -4
v 7 0 0
v 8 0 0
v 8 0 2
v 7 0 2
v 8 2 0
v 7 2 0
v 8 2 2
v 7 2 2
v 8 0 3
v -8 1 2
v -8 0 2
v -8 0 3
# 170 vertices

vn 0 -1 0
vn 0 0 0
vn 0 1 0
vn 0 0 1
vn 0 0 -1
vn 1 0 0
vn -1 0 0
vn 0 1 0
vn 1 0 0
# 9 normals

vt 0 0.875 0
vt 0.0625 0.875 0
vt 0.515625 0.46875 0
vt 0.5 0.46875 0
vt 0.5 0.4375 0
vt 0.515625 0.4375 0
vt 0.265625 0.96875 0
vt 0.25 0.96875 0
vt 0.25 0.90625 0
vt 0.265625 0.90625 0
vt 0.75 0.96875 0
vt 0.765625 0.96875 0
vt 0.765625 0.90625 0
vt 0.75 0.90625 0
vt 0.234375 0.96875 0
vt 0.21875 0.96875 0
vt 0.21875 0.90625 0
vt 0.234375 0.90625 0
vt 0.25 0.125 0
vt 0.265625 0.125 0
vt 0.265625 0.25 0
vt 0.25 0.25 0
vt 0.515625 0.375 0
vt 0.5 0.375 0
vt 0.5 0.25 0
vt 0.515625 0.25 0
vt 0.265625 1 0
vt 0.25 1 0
vt 0.75 1 0
vt 0.765625 1 0
vt 0.1875 1 0
vt 0.125 1 0
vt 0.125 0.96875 0
vt 0.1875 0.96875 0
vt 0.25 0.0625 0
vt 0.265625 0.0625 0
vt 0.25 0.9375 0
vt 0.265625 0.9375 0
vt 0.765625 0.9375 0
vt 0.75 0.9375 0
vt 0.21875 1 0
vt 0.1875 0.9375 0
vt 0.21875 0.9375 0
vt 0.28125 0.90625 0
vt 0.265625 0.875 0
vt 0.28125 0.875 0
vt 0.53125 0.46875 0
vt 0.53125 0.4375 0
vt 0.78125 0.90625 0
vt 0.78125 0.875 0
vt 0.765625 0.875 0
vt 0.125 0.625 0
vt 0.125 0.5 0
vt 0.21875 0.875 0
vt 0.234375 0.875 0
vt 0.28125 0 0
vt 0.296875 0 0
vt 0.296875 0.0625 0
vt 0.28125 0.0625 0
vt 0.546875 0.5 0
vt 0.53125 0.5 0
vt 0.546875 0.4375 0
vt 0.296875 0.96875 0
vt 0.28125 0.96875 0
vt 0.296875 0.875 0
vt 0.78125 0.96875 0
vt 0.796875 0.96875 0
vt 0.796875 0.875 0
vt 0.53125 0.96875 0
vt 0.5 0.96875 0
vt 0.5 0.875 0
vt 0.53125 0.875 0
vt 0.25 0.875 0
vt 0.3125 0.875 0
vt 0.3125 0.5 0
vt 0.25 0.5 0
vt 0.328125 0.96875 0
vt 0.3125 0.96875 0
vt 0.328125 0.875 0
vt 0.8125 0.96875 0
vt 0.828125 0.96875 0
vt 0.828125 0.875 0
vt 0.8125 0.875 0
vt 0.3125 0.375 0
vt 0.375 0.375 0
vt 0.59375 0.5 0
vt 0.578125 0.5 0
vt 0.578125 0.46875 0
vt 0.59375 0.46875 0
vt 0.34375 0.84375 0
vt 0.328125 0.84375 0
vt 0.328125 0.8125 0
vt 0.34375 0.8125 0
vt 0.375 0.25 0
vt 0.3125 0.25 0
vt 0.515625 0.84375 0
vt 0.5 0.84375 0
vt 0.5 0.8125 0
vt 0.515625 0.8125 0
vt 0.25 0.84375 0
vt 0.234375 0.84375 0
vt 0.234375 0.8125 0
vt 0.25 0.8125 0
vt 0.34375 0 0
vt 0.34375 0.03125 0
vt 0.296875 0.03125 0
vt 0.546875 0.46875 0
vt 0.34375 0.875 0
vt 0.296875 0.84375 0
vt 0.1875 0.5 0
vt 0.375 0.5 0
vt 0.1875 0.375 0
vt 0.515625 0.875 0
vt 0.359375 0 0
vt 0.359375 0.03125 0
vt 0.609375 0.5 0
vt 0.609375 0.46875 0
vt 0.359375 0.8125 0
vt 0.34375 0.78125 0
vt 0.359375 0.78125 0
vt 0.4375 0.25 0
vt 0.4375 0.125 0
vt 0.375 0.125 0
vt 0.5 0.78125 0
vt 0.515625 0.78125 0
vt 0.234375 0.78125 0
vt 0.25 0.78125 0
vt 0.359375 0.90625 0
vt 0.34375 0.90625 0
vt 0.359375 0.875 0
vt 0.375 0.625 0
vt 0.4375 0.625 0
vt 0.4375 0.5 0
vt 0.515625 0.90625 0
vt 0.5 0.90625 0
vt 0.25 0.90624988079071 0
vt 0.234375 0.90624988079071 0
vt 0.234375 0.87500017881393 0
vt 0.25 0.87500017881393 0
vt 0.453125 0 0
vt 0.453125 0.03125 0
vt 0.640625 0.5 0
vt 0.609375 0.4375 0
vt 0.640625 0.4375 0
vt 0.390625 0.78125 0
vt 0.359375 0.75 0
vt 0.390625 0.75 0
vt 0.859375 0.78125 0
vt 0.890625 0.78125 0
vt 0.890625 0.75 0
vt 0.859375 0.75 0
vt 0.53125 0.78125 0
vt 0.5 0.75 0
vt 0.53125 0.75 0
vt 0.21875 0.78125 0
vt 0.21875 0.75 0
vt 0.25 0.75 0
vt 0.5625 0.25 0
vt 0.640625 0.46875 0
vt 0.59375 0.4375 0
vt 0.390625 0.8125 0
vt 0.84375 0.8125 0
vt 0.890625 0.8125 0
vt 0.84375 0.78125 0
vt 0.5625 0.125 0
vt 0.21875 0.8125 0
vt 0.359375 0.0625 0
vt 0.34375 0.0625 0
vt 0.5625 0.5 0
vt 0.390625 0.90625 0
vt 0.390625 0.875 0
vt 0.84375 0.90625 0
vt 0.890625 0.90625 0
vt 0.890625 0.875 0
vt 0.84375 0.875 0
vt 0.5625 0.625 0
vt 0.21875 0.90624988079071 0
vt 0.21875 0.87500017881393 0
vt 0.4375 0.875 0
vt 0.5625 0.875 0
vt 0.390625 0.96875 0
vt 0.359375 0.96875 0
vt 0.859375 0.96875 0
vt 0.890625 0.96875 0
vt 0.859375 0.90625 0
vt 0.53125 0.90625 0
vt 0.25 0.96874970197678 0
vt 0.21875 0.96874970197678 0
vt 0.21875 0.90625029802322 0
vt 0.25 0.90625029802322 0
vt 0.390625 0 0
vt 0.40625 0 0
vt 0.40625 0.03125 0
vt 0.390625 0.03125 0
vt 0.65625 0.5 0
vt 0.65625 0.4375 0
vt 0.40625 0.8125 0
vt 0.40625 0.78125 0
vt 0.90625 0.8125 0
vt 0.90625 0.78125 0
vt 0.53125 0.8125 0
vt 0.625 0.375 0
vt 0.65625 0.46875 0
vt 0.578125 0.4375 0
vt 0.40625 0.84375 0
vt 0.828125 0.84375 0
vt 0.90625 0.84375 0
vt 0.828125 0.8125 0
vt 0.625 0.25 0
vt 0.21875 0.84375 0
vt 0.40625 0.875 0
vt 0.90625 0.875 0
vt 0.796875 0.84375 0
vt 0.625 0.5 0
vt 0.40625 0.0625 0
vt 0.390625 0.0625 0
vt 0.40625 0.90625 0
vt 0.90625 0.90625 0
vt 0.6875 0.375 0
vt 0.671875 0.5 0
vt 0.671875 0.4375 0
vt 0.421875 0.84375 0
vt 0.421875 0.8125 0
vt 0.921875 0.84375 0
vt 0.921875 0.8125 0
vt 0.53125 0.84375 0
vt 0.6875 0.875 0
vt 0.75 0.875 0
vt 0.75 0.5 0
vt 0.6875 0.5 0
vt 0.4375 0.96875 0
vt 0.421875 0.96875 0
vt 0.421875 0.875 0
vt 0.921875 0.96875 0
vt 0.9375 0.96875 0
vt 0.9375 0.875 0
vt 0.921875 0.875 0
vt 0.453125 0.0625 0
vt 0.703125 0.5 0
vt 0.703125 0.4375 0
vt 0.453125 0.875 0
vt 0.453125 0.84375 0
vt 0.953125 0.875 0
vt 0.953125 0.84375 0
vt 0.703125 0.46875 0
vt 0.453125 1 0
vt 0.296875 1 0
vt 0.453125 0.96875 0
vt 0.8125 1 0
vt 0.1875 0.875 0
vt 0.515625 1 0
vt 0.5 1 0
vt 0.515625 0.96875 0
vt 0.234375 1 0
vt 0.875 0.875 0
vt 0.875 0.625 0
vt 0.8125 0.625 0
vt 0.46875 0.96875 0
vt 0.453125 0.90625 0
vt 0.46875 0.90625 0
vt 0.953125 0.96875 0
vt 0.96875 0.96875 0
vt 0.96875 0.90625 0
vt 0.953125 0.90625 0
vt 0.46875 0 0
vt 0.46875 0.03125 0
vt 0.71875 0.5 0
vt 0.71875 0.46875 0
vt 0.46875 0.875 0
vt 0.875 0.5 0
vt 0.8125 0.5 0
vt 0.484375 0.90625 0
vt 0.484375 0.875 0
vt 0.734375 0.46875 0
vt 0.734375 0.4375 0
vt 0.984375 0.90625 0
vt 0.984375 0.875 0
vt 1 0.875 0
vt 0.75 0.46875 0
vt 0.75 0.4375 0
vt 0.484375 0.96875 0
vt 0.984375 0.96875 0
vt 1 0.96875 0
vt 1 0.90625 0
vt 0.484375 0.125 0
vt 0.5 0.125 0
vt 0.484375 0.25 0
vt 0.75 0.375 0
vt 0.734375 0.375 0
vt 0.734375 0.25 0
vt 0.75 0.25 0
vt 0.484375 1 0
vt 0.984375 1 0
vt 1 1 0
vt 0.625 1 0
vt 0.5625 1 0
vt 0.5625 0.96875 0
vt 0.625 0.96875 0
vt 0.484375 0.0625 0
vt 0.5 0.0625 0
vt 0.484375 0.9375 0
vt 0.5 0.9375 0
vt 1 0.9375 0
vt 0.984375 0.9375 0
vt 0.53125 1 0
vt 0.53125 0.9375 0
vt 0.5625 0.9375 0
vt 0.25 0.03125 0
vt 0.5 0.03125 0
# 309 texture coordinates

o Element_#29.1
usemtl Mat
f 1/2/1 7/2/1 2/1/1
f 4/5/3 5/4/3 6/3/3
f 5/9/4 2/8/4 7/7/4
f 3/13/5 1/12/5 168/11/5
f 6/9/6 7/8/6 1/7/6
f 4/17/7 168/16/7 2/15/7
f 12/21/1 17/20/1 20/19/1
f 9/25/3 10/24/3 11/23/3
f 10/8/4 20/28/4 17/27/4
f 8/12/5 12/30/5 13/29/5
f 11/33/6 17/32/6 12/31/6
f 9/33/7 13/32/7 20/31/7
f 17/20/1 16/36/1 169/35/1
f 19/24/3 18/5/3 15/6/3
f 18/37/4 169/28/4 16/27/4
f 14/39/5 17/30/5 20/29/5
f 15/42/6 16/31/6 17/41/6
f 19/42/7 20/31/7 169/41/7
f 25/45/1 21/10/1 6/44/1
f 24/6/3 22/3/3 23/47/3
f 22/45/4 6/10/4 21/44/4
f 31/50/5 25/49/5 3/13/5
f 23/53/6 21/52/6 25/52/6
f 24/54/7 3/17/7 6/18/7
f 30/58/1 29/57/1 32/56/1
f 31/48/3 27/61/3 50/60/3
f 27/46/4 32/64/4 29/63/4
f 28/68/5 30/67/5 26/66/5
f 50/71/6 29/70/6 30/69/6
f 31/54/7 26/16/7 32/8/7
f 39/74/1 33/74/1 36/73/1
f 37/76/3 40/76/3 35/75/3
f 40/74/4 36/78/4 33/77/4
f 34/82/5 39/81/5 38/80/5
f 35/71/6 33/70/6 39/69/6
f 37/54/7 38/16/7 36/8/7
f 41/85/1 42/85/1 43/84/1
f 46/88/3 45/87/3 44/86/3
f 45/92/4 43/91/4 42/90/4
f 74/94/5 41/85/5 93/84/5
f 44/98/6 42/97/6 41/96/6
f 46/102/7 93/101/7 43/100/7
f 78/105/1 61/104/1 50/57/1
f 48/107/3 47/60/3 42/86/3
f 47/109/4 50/65/4 61/108/4
f 41/85/5 78/111/5 49/110/5
f 42/97/6 61/71/6 78/113/6
f 48/101/7 49/55/7 50/73/7
f 54/115/1 53/114/1 44/104/1
f 69/89/3 52/86/3 63/116/3
f 52/119/4 44/93/4 53/118/4
f 51/122/5 54/121/5 74/94/5
f 63/124/6 53/98/6 54/99/6
f 69/126/7 74/102/7 44/103/7
f 60/115/1 56/114/1 57/104/1
f 78/89/3 61/86/3 58/116/3
f 61/108/4 57/129/4 56/128/4
f 59/133/5 60/132/5 55/131/5
f 58/71/6 56/135/6 60/134/6
f 78/138/7 55/137/7 57/136/7
f 91/141/1 88/140/1 63/57/1
f 64/143/3 62/116/3 67/142/3
f 62/146/4 63/120/4 88/145/4
f 66/150/5 91/149/5 65/148/5
f 67/153/6 88/124/6 91/152/6
f 64/156/7 65/155/7 63/127/7
f 72/158/1 71/158/1 74/94/1
f 73/160/3 69/89/3 70/159/3
f 69/119/4 74/93/4 71/161/4
f 91/149/5 72/163/5 68/162/5
f 70/165/6 71/158/6 72/158/6
f 73/155/7 68/166/7 74/102/7
f 102/167/1 77/115/1 55/105/1
f 79/111/3 78/111/3 76/169/3
f 78/108/4 55/129/4 77/170/4
f 75/174/5 102/173/5 80/172/5
f 76/169/6 77/176/6 102/176/6
f 79/178/7 80/177/7 55/137/7
f 84/180/1 83/180/1 86/179/1
f 81/143/3 56/116/3 82/142/3
f 56/128/4 86/182/4 83/181/4
f 102/173/5 84/184/5 85/183/5
f 82/135/6 83/70/6 84/69/6
f 81/189/7 85/188/7 86/187/7
f 94/193/1 90/192/1 92/191/1
f 91/144/3 88/142/3 89/195/3
f 88/145/4 92/161/4 90/197/4
f 87/200/5 94/199/5 72/163/5
f 89/124/6 90/98/6 94/201/6
f 91/126/7 72/102/7 92/103/7
f 96/202/1 97/202/1 93/84/1
f 98/204/3 46/88/3 95/203/3
f 46/92/4 93/91/4 97/205/4
f 94/199/5 96/207/5 99/206/5
f 95/209/6 97/202/6 96/202/6
f 98/166/7 99/210/7 93/101/7
f 119/168/1 100/105/1 49/106/1
f 101/62/3 48/107/3 97/203/3
f 48/109/4 49/65/4 100/211/4
f 96/207/5 119/212/5 28/68/5
f 97/202/6 100/214/6 119/214/6
f 101/210/7 28/54/7 49/55/7
f 103/215/1 104/192/1 82/191/1
f 75/144/3 105/142/3 120/195/3
f 105/171/4 82/170/4 104/217/4
f 119/212/5 103/218/5 102/173/5
f 120/71/6 104/135/6 103/186/6
f 75/138/7 102/137/7 82/136/7
f 110/219/1 109/219/1 106/202/1
f 94/196/3 90/195/3 108/220/3
f 90/197/4 106/205/4 109/222/4
f 107/225/5 110/224/5 96/207/5
f 108/98/6 109/97/6 110/226/6
f 94/102/7 96/101/7 106/100/7
f 112/228/1 115/228/1 118/227/1
f 117/230/3 116/230/3 114/229/3
f 116/233/4 118/232/4 115/231/4
f 113/236/5 112/235/5 111/234/5
f 114/71/6 115/70/6 112/69/6
f 117/54/7 111/16/7 118/8/7
f 123/238/1 137/140/1 120/192/1
f 96/196/3 106/195/3 122/239/3
f 106/205/4 120/211/4 137/241/4
f 121/244/5 123/243/5 119/212/5
f 122/97/6 137/71/6 123/72/6
f 96/101/7 119/55/7 120/73/7
f 125/141/1 127/140/1 130/57/1
f 128/107/3 29/60/3 126/239/3
f 29/63/4 130/247/4 127/246/4
f 124/83/5 125/249/5 129/31/5
f 126/70/6 127/252/6 125/251/6
f 128/15/7 129/254/7 130/28/7
f 134/255/1 140/255/1 124/83/1
f 135/257/3 144/257/3 133/256/3
f 144/259/4 124/248/4 140/258/4
f 132/263/5 134/262/5 131/261/5
f 133/113/6 140/253/6 134/69/6
f 135/257/7 131/83/7 124/83/7
f 140/266/1 139/265/1 126/140/1
f 141/245/3 137/239/3 138/267/3
f 137/241/4 126/248/4 139/258/4
f 136/270/5 140/255/5 124/83/5
f 138/71/6 139/70/6 140/253/6
f 141/54/7 124/16/7 126/8/7
f 152/241/1 151/259/1 144/272/1
f 123/240/3 141/245/3 143/274/3
f 141/241/4 144/259/4 151/272/4
f 142/277/5 152/276/5 135/264/5
f 143/113/6 151/134/6 152/186/6
f 123/271/7 135/257/7 144/257/7
f 150/278/1 149/278/1 145/236/1
f 152/275/3 151/274/3 148/279/3
f 151/272/4 145/281/4 149/70/4
f 146/284/5 150/283/5 147/282/5
f 148/134/6 149/253/6 150/69/6
f 152/272/7 147/281/7 145/70/7
f 156/25/1 160/286/1 159/285/1
f 157/290/3 153/289/3 155/288/3
f 153/281/4 159/292/4 160/252/4
f 154/283/5 156/294/5 158/293/5
f 155/297/6 160/296/6 156/295/6
f 157/297/7 158/296/7 159/295/7
f 160/286/1 161/300/1 162/299/1
f 164/289/3 166/275/3 165/280/3
f 166/301/4 162/292/4 161/252/4
f 163/303/5 160/294/5 159/293/5
f 165/306/6 161/305/6 160/296/6
f 164/306/7 159/305/7 162/296/7
f 161/300/1 167/309/1 170/308/1
f 168/5/3 2/4/3 149/279/3
f 2/8/4 170/28/4 167/252/4
f 150/283/5 161/294/5 169/29/5
f 149/253/6 167/251/6 161/305/6
f 168/16/7 169/41/7 170/254/7
f 168/1/1 1/2/1 2/1/1
f 3/6/8 4/5/3 6/3/3
f 6/10/4 5/9/4 7/7/4
f 4/14/5 3/13/5 168/11/5
f 3/10/9 6/9/6 1/7/6
f 5/18/7 4/17/7 2/15/7
f 13/22/1 12/21/1 20/19/1
f 8/26/8 9/25/3 11/23/3
f 11/7/4 10/8/4 17/27/4
f 9/11/5 8/12/5 13/29/5
f 8/34/9 11/33/6 12/31/6
f 10/34/7 9/33/7 20/31/7
f 20/19/1 17/20/1 169/35/1
f 14/23/8 19/24/3 15/6/3
f 15/38/4 18/37/4 16/27/4
f 19/40/5 14/39/5 20/29/5
f 14/43/9 15/42/6 17/41/6
f 18/43/7 19/42/7 169/41/7
f 3/46/1 25/45/1 6/44/1
f 31/48/8 24/6/3 23/47/3
f 23/46/4 22/45/4 21/44/4
f 24/51/5 31/50/5 3/13/5
f 31/53/9 23/53/6 25/52/6
f 22/55/7 24/54/7 6/18/7
f 26/59/1 30/58/1 32/56/1
f 28/62/8 31/48/3 50/60/3
f 50/65/4 27/46/4 29/63/4
f 31/50/5 28/68/5 26/66/5
f 28/72/9 50/71/6 30/69/6
f 27/73/7 31/54/7 32/8/7
f 38/73/1 39/74/1 36/73/1
f 34/75/8 37/76/3 35/75/3
f 35/79/4 40/74/4 33/77/4
f 37/83/5 34/82/5 38/80/5
f 34/72/9 35/71/6 39/69/6
f 40/73/7 37/54/7 36/8/7
f 93/84/1 41/85/1 43/84/1
f 74/89/8 46/88/3 44/86/3
f 44/93/4 45/92/4 42/90/4
f 46/95/5 74/94/5 93/84/5
f 74/99/9 44/98/6 41/96/6
f 45/103/7 46/102/7 43/100/7
f 49/106/1 78/105/1 50/57/1
f 41/89/8 48/107/3 42/86/3
f 42/90/4 47/109/4 61/108/4
f 48/112/5 41/85/5 49/110/5
f 41/96/9 42/97/6 78/113/6
f 47/100/7 48/101/7 50/73/7
f 74/105/1 54/115/1 44/104/1
f 51/117/8 69/89/3 63/116/3
f 63/120/4 52/119/4 53/118/4
f 69/123/5 51/122/5 74/94/5
f 51/125/9 63/124/6 54/99/6
f 52/127/7 69/126/7 44/103/7
f 55/105/1 60/115/1 57/104/1
f 59/117/8 78/89/3 58/116/3
f 58/130/4 61/108/4 56/128/4
f 78/111/5 59/133/5 55/131/5
f 59/113/9 58/71/6 60/134/6
f 61/139/7 78/138/7 57/136/7
f 65/106/1 91/141/1 63/57/1
f 66/144/8 64/143/3 67/142/3
f 67/147/4 62/146/4 88/145/4
f 64/151/5 66/150/5 65/148/5
f 66/154/9 67/153/6 91/152/6
f 62/157/7 64/156/7 63/127/7
f 68/94/1 72/158/1 74/94/1
f 91/144/8 73/160/3 70/159/3
f 70/145/4 69/119/4 71/161/4
f 73/164/5 91/149/5 68/162/5
f 91/165/9 70/165/6 72/158/6
f 69/126/7 73/155/7 74/102/7
f 80/168/1 102/167/1 55/105/1
f 75/169/8 79/111/3 76/169/3
f 76/171/4 78/108/4 77/170/4
f 79/175/5 75/174/5 80/172/5
f 75/169/9 76/169/6 102/176/6
f 78/138/7 79/178/7 55/137/7
f 85/179/1 84/180/1 86/179/1
f 102/144/8 81/143/3 82/142/3
f 82/170/4 56/128/4 83/181/4
f 81/185/5 102/173/5 85/183/5
f 102/186/9 82/135/6 84/69/6
f 56/190/7 81/189/7 86/187/7
f 72/194/1 94/193/1 92/191/1
f 87/196/8 91/144/3 89/195/3
f 89/198/4 88/145/4 90/197/4
f 91/149/5 87/200/5 72/163/5
f 87/152/9 89/124/6 94/201/6
f 88/127/7 91/126/7 92/103/7
f 99/84/1 96/202/1 93/84/1
f 94/196/8 98/204/3 95/203/3
f 95/197/4 46/92/4 97/205/4
f 98/208/5 94/199/5 99/206/5
f 94/209/9 95/209/6 96/202/6
f 46/102/7 98/166/7 93/101/7
f 28/58/1 119/168/1 49/106/1
f 96/196/8 101/62/3 97/203/3
f 97/205/4 48/109/4 100/211/4
f 101/213/5 96/207/5 28/68/5
f 96/202/9 97/202/6 119/214/6
f 48/101/7 101/210/7 49/55/7
f 102/216/1 103/215/1 82/191/1
f 119/196/8 75/144/3 120/195/3
f 120/211/4 105/171/4 104/217/4
f 75/174/5 119/212/5 102/173/5
f 119/72/9 120/71/6 103/186/6
f 105/139/7 75/138/7 82/136/7
f 96/202/1 110/219/1 106/202/1
f 107/221/8 94/196/3 108/220/3
f 108/223/4 90/197/4 109/222/4
f 94/199/5 107/225/5 96/207/5
f 107/201/9 108/98/6 110/226/6
f 90/103/7 94/102/7 106/100/7
f 111/227/1 112/228/1 118/227/1
f 113/229/8 117/230/3 114/229/3
f 114/179/4 116/233/4 115/231/4
f 117/237/5 113/236/5 111/234/5
f 113/72/9 114/71/6 112/69/6
f 116/73/7 117/54/7 118/8/7
f 119/215/1 123/238/1 120/192/1
f 121/240/8 96/196/3 122/239/3
f 122/242/4 106/205/4 137/241/4
f 96/207/5 121/244/5 119/212/5
f 121/226/9 122/97/6 123/72/6
f 106/100/7 96/101/7 120/73/7
f 129/106/1 125/141/1 130/57/1
f 124/245/8 128/107/3 126/239/3
f 126/248/4 29/63/4 127/246/4
f 128/250/5 124/83/5 129/31/5
f 124/253/9 126/70/6 125/251/6
f 29/8/7 128/15/7 130/28/7
f 131/83/1 134/255/1 124/83/1
f 132/256/8 135/257/3 133/256/3
f 133/260/4 144/259/4 140/258/4
f 135/264/5 132/263/5 131/261/5
f 132/72/9 133/113/6 134/69/6
f 144/257/7 135/257/7 124/83/7
f 124/141/1 140/266/1 126/140/1
f 136/268/8 141/245/3 138/267/3
f 138/269/4 137/241/4 139/258/4
f 141/271/5 136/270/5 124/83/5
f 136/113/9 138/71/6 140/253/6
f 137/73/7 141/54/7 126/8/7
f 135/273/1 152/241/1 144/272/1
f 142/275/8 123/240/3 143/274/3
f 143/273/4 141/241/4 151/272/4
f 123/243/5 142/277/5 135/264/5
f 142/72/9 143/113/6 152/186/6
f 141/271/7 123/271/7 144/257/7
f 147/236/1 150/278/1 145/236/1
f 146/280/8 152/275/3 148/279/3
f 148/135/4 151/272/4 149/70/4
f 152/276/5 146/284/5 147/282/5
f 146/186/9 148/134/6 150/69/6
f 151/135/7 152/272/7 145/70/7
f 158/287/1 156/25/1 159/285/1
f 154/291/8 157/290/3 155/288/3
f 155/70/4 153/281/4 160/252/4
f 157/282/5 154/283/5 158/293/5
f 154/298/9 155/297/6 156/295/6
f 153/298/7 157/297/7 159/295/7
f 159/285/1 160/286/1 162/299/1
f 163/288/8 164/289/3 165/280/3
f 165/302/4 166/301/4 161/252/4
f 164/304/5 163/303/5 159/293/5
f 163/307/9 165/306/6 160/296/6
f 166/307/7 164/306/7 162/296/7
f 169/35/1 161/300/1 170/308/1
f 150/280/8 168/5/3 149/279/3
f 149/70/4 2/8/4 167/252/4
f 168/11/5 150/283/5 169/29/5
f 150/69/9 149/253/6 161/305/6
f 2/15/7 168/16/7 170/254/7

