# Blender v2.79 (sub 0) OBJ File: 'ice_bow.blend'
# www.blender.org
o bow_string.3
v 0.002000 1.175000 0.003464
v -0.002000 1.175000 0.003464
v -0.004000 1.175000 0.000000
v -0.002000 1.175000 -0.003464
v 0.002000 1.175000 -0.003464
v 0.004000 1.175000 0.000000
v 0.003000 1.107717 0.014893
v -0.003000 1.107717 0.014893
v -0.006000 1.106514 0.009838
v -0.003000 1.105312 0.004783
v 0.003000 1.105312 0.004783
v 0.006000 1.106514 0.009838
v 0.004000 1.028128 0.043487
v -0.004000 1.028128 0.043487
v -0.008000 1.025598 0.037037
v -0.004000 1.023069 0.030587
v 0.004000 1.023069 0.030587
v 0.008000 1.025598 0.037037
v 0.004000 0.937393 0.084362
v -0.004000 0.937393 0.084362
v -0.008000 0.934376 0.078125
v -0.004000 0.931358 0.071888
v 0.004000 0.931358 0.071888
v 0.008000 0.934376 0.078125
v 0.004000 0.838244 0.135736
v -0.004000 0.838244 0.135736
v -0.008000 0.834971 0.129630
v -0.004000 0.831697 0.123523
v 0.004000 0.831697 0.123523
v 0.008000 0.834971 0.129630
v 0.004000 0.732892 0.194123
v -0.004000 0.732892 0.194123
v -0.008000 0.729506 0.188079
v -0.004000 0.726120 0.182034
v 0.004000 0.726120 0.182034
v 0.008000 0.729506 0.188079
v 0.004000 0.623498 0.256041
v -0.004000 0.623498 0.256041
v -0.008000 0.620106 0.250000
v -0.004000 0.616715 0.243959
v 0.004000 0.616715 0.243959
v 0.008000 0.620106 0.250000
v 0.004000 0.512196 0.318013
v -0.004000 0.512196 0.318013
v -0.008000 0.508895 0.311921
v -0.004000 0.505595 0.305830
v 0.004000 0.505595 0.305830
v 0.008000 0.508895 0.311921
v 0.004000 0.401098 0.376565
v -0.004000 0.401098 0.376565
v -0.008000 0.397996 0.370370
v -0.004000 0.394895 0.364175
v 0.004000 0.394895 0.364175
v 0.008000 0.397996 0.370370
v 0.004000 0.292295 0.428229
v -0.004000 0.292295 0.428229
v -0.008000 0.289534 0.421875
v -0.004000 0.286772 0.415521
v 0.004000 0.286772 0.415521
v 0.008000 0.289534 0.421875
v 0.004000 0.187841 0.469529
v -0.004000 0.187841 0.469529
v -0.008000 0.185631 0.462963
v -0.004000 0.183421 0.456397
v 0.004000 0.183421 0.456397
v 0.008000 0.185631 0.462963
v 0.004000 0.089732 0.496963
v -0.004000 0.089732 0.496963
v -0.008000 0.088412 0.490162
v -0.004000 0.087091 0.483361
v 0.004000 0.087091 0.483361
v 0.008000 0.088412 0.490162
v 0.004000 0.000001 0.506928
v -0.004000 0.000001 0.506928
v -0.008000 0.000000 0.500000
v -0.004000 -0.000001 0.493072
v 0.004000 -0.000001 0.493072
v 0.008000 0.000000 0.500000
v 0.004000 -0.089978 0.496965
v -0.004000 -0.089978 0.496965
v -0.008000 -0.088665 0.490162
v -0.004000 -0.087352 0.483359
v 0.004000 -0.087352 0.483359
v 0.008000 -0.088665 0.490162
v 0.004000 -0.188806 0.469535
v -0.004000 -0.188806 0.469535
v -0.008000 -0.186615 0.462963
v -0.004000 -0.184423 0.456390
v 0.004000 -0.184423 0.456390
v 0.008000 -0.186615 0.462963
v 0.004000 -0.294414 0.428242
v -0.004000 -0.294414 0.428242
v -0.008000 -0.291682 0.421875
v -0.004000 -0.288950 0.415508
v 0.004000 -0.288950 0.415508
v 0.008000 -0.291682 0.421875
v 0.004000 -0.404763 0.376585
v -0.004000 -0.404763 0.376585
v -0.008000 -0.401700 0.370370
v -0.004000 -0.398637 0.364156
v 0.004000 -0.398637 0.364156
v 0.008000 -0.401700 0.370370
v 0.004000 -0.517755 0.318038
v -0.004000 -0.517755 0.318038
v -0.008000 -0.514501 0.311921
v -0.004000 -0.511247 0.305805
v 0.004000 -0.511247 0.305805
v 0.008000 -0.514501 0.311921
v 0.004000 -0.631256 0.256071
v -0.004000 -0.631256 0.256071
v -0.008000 -0.627919 0.250000
v -0.004000 -0.624581 0.243929
v 0.004000 -0.624581 0.243929
v 0.008000 -0.627919 0.250000
v 0.004000 -0.743110 0.194157
v -0.004000 -0.743110 0.194157
v -0.008000 -0.739785 0.188079
v -0.004000 -0.736460 0.182000
v 0.004000 -0.736460 0.182000
v 0.008000 -0.739785 0.188079
v 0.004000 -0.851139 0.135772
v -0.004000 -0.851139 0.135772
v -0.008000 -0.847933 0.129630
v -0.004000 -0.844727 0.123488
v 0.004000 -0.844727 0.123488
v 0.008000 -0.847933 0.129630
v 0.004000 -0.953140 0.084397
v -0.004000 -0.953140 0.084397
v -0.008000 -0.950196 0.078125
v -0.004000 -0.947251 0.071854
v 0.004000 -0.947251 0.071854
v 0.008000 -0.950196 0.078125
v 0.004000 -1.046861 0.043516
v -0.004000 -1.046861 0.043516
v -0.008000 -1.044406 0.037037
v -0.004000 -1.041951 0.030558
v 0.004000 -1.041951 0.030558
v 0.008000 -1.044406 0.037037
v 0.003000 -1.129555 0.014903
v -0.003000 -1.129555 0.014903
v -0.006000 -1.128396 0.009838
v -0.003000 -1.127238 0.004773
v 0.003000 -1.127238 0.004773
v 0.006000 -1.128396 0.009838
v 0.002000 -1.200000 0.003464
v -0.002000 -1.200000 0.003464
v -0.004000 -1.200000 0.000000
v -0.002000 -1.200000 -0.003464
v 0.002000 -1.200000 -0.003464
v 0.004000 -1.200000 0.000000
vt 0.040923 0.419223
vt 0.036923 0.407969
vt 0.038923 0.419223
vt 0.045923 0.408166
vt 0.044923 0.419223
vt 0.048924 0.407969
vt 0.046923 0.419223
vt 0.045923 0.407771
vt 0.044923 0.419223
vt 0.039923 0.407771
vt 0.040923 0.419223
vt 0.039923 0.408166
vt 0.034923 0.394673
vt 0.046923 0.395088
vt 0.050924 0.394673
vt 0.046923 0.394257
vt 0.038923 0.394257
vt 0.038923 0.395088
vt 0.034923 0.379683
vt 0.046923 0.380178
vt 0.050924 0.379683
vt 0.046923 0.379187
vt 0.038923 0.379187
vt 0.038923 0.380178
vt 0.034923 0.363348
vt 0.046923 0.363886
vt 0.050924 0.363348
vt 0.046923 0.362810
vt 0.038923 0.362810
vt 0.038923 0.363886
vt 0.034923 0.346018
vt 0.046923 0.346574
vt 0.050924 0.346018
vt 0.046923 0.345461
vt 0.038923 0.345461
vt 0.038923 0.346574
vt 0.034923 0.328041
vt 0.046923 0.328598
vt 0.050924 0.328041
vt 0.046923 0.327483
vt 0.038923 0.327483
vt 0.038923 0.328598
vt 0.034923 0.309766
vt 0.046923 0.310308
vt 0.050924 0.309766
vt 0.046923 0.309224
vt 0.038923 0.309224
vt 0.038923 0.310308
vt 0.034923 0.291543
vt 0.046923 0.292052
vt 0.050924 0.291543
vt 0.046923 0.291033
vt 0.038923 0.291033
vt 0.038923 0.292052
vt 0.034923 0.273720
vt 0.046923 0.274174
vt 0.050924 0.273720
vt 0.046923 0.273266
vt 0.038923 0.273266
vt 0.038923 0.274174
vt 0.034923 0.256646
vt 0.046923 0.257009
vt 0.050924 0.256646
vt 0.046923 0.256283
vt 0.038923 0.256283
vt 0.038923 0.257009
vt 0.034923 0.240671
vt 0.046923 0.240888
vt 0.050924 0.240671
vt 0.046923 0.240454
vt 0.038923 0.240454
vt 0.038923 0.240888
vt 0.034923 0.226143
vt 0.046923 0.226143
vt 0.050924 0.226143
vt 0.046923 0.226142
vt 0.038923 0.226142
vt 0.038923 0.211357
vt 0.038923 0.226143
vt 0.046923 0.211357
vt 0.050924 0.211573
vt 0.038923 0.211789
vt 0.034923 0.211573
vt 0.038923 0.195117
vt 0.046923 0.195117
vt 0.046923 0.211789
vt 0.050924 0.195477
vt 0.038923 0.195837
vt 0.034923 0.195477
vt 0.038923 0.177763
vt 0.046923 0.177763
vt 0.046923 0.195837
vt 0.050924 0.178212
vt 0.038923 0.178661
vt 0.034923 0.178212
vt 0.038923 0.159630
vt 0.046923 0.159630
vt 0.046923 0.178661
vt 0.050924 0.160134
vt 0.038923 0.160637
vt 0.034923 0.160134
vt 0.038923 0.141063
vt 0.046923 0.141063
vt 0.046923 0.160637
vt 0.050924 0.141598
vt 0.038923 0.142133
vt 0.034923 0.141598
vt 0.038923 0.122412
vt 0.046923 0.122412
vt 0.046923 0.142133
vt 0.050924 0.122961
vt 0.038923 0.123509
vt 0.034923 0.122961
vt 0.038923 0.104032
vt 0.046923 0.104032
vt 0.046923 0.123509
vt 0.050924 0.104578
vt 0.038923 0.105125
vt 0.034923 0.104578
vt 0.038923 0.086280
vt 0.046923 0.086280
vt 0.046923 0.105125
vt 0.050924 0.086807
vt 0.038923 0.087334
vt 0.034923 0.086807
vt 0.038923 0.069519
vt 0.046923 0.069519
vt 0.046923 0.087334
vt 0.050924 0.070003
vt 0.038923 0.070487
vt 0.034923 0.070003
vt 0.038923 0.054119
vt 0.046923 0.054119
vt 0.046923 0.070487
vt 0.050924 0.054522
vt 0.038923 0.054925
vt 0.034923 0.054522
vt 0.039923 0.040530
vt 0.045923 0.040530
vt 0.046923 0.054925
vt 0.048924 0.040720
vt 0.039923 0.040911
vt 0.036923 0.040720
vt 0.040923 0.028954
vt 0.044923 0.028954
vt 0.045923 0.040911
vt 0.046923 0.028954
vt 0.040923 0.028954
vt 0.038923 0.028954
vt 0.044923 0.028954
vn 0.5152 0.1506 0.8437
vn 0.9992 0.0189 -0.0341
vn 0.9987 0.0224 -0.0460
vn -0.5127 0.2250 0.8285
vn -0.5152 0.1506 0.8437
vn -0.9992 0.0189 -0.0341
vn -0.9987 0.0224 -0.0460
vn -0.4877 -0.1772 -0.8548
vn -0.4789 -0.0964 -0.8726
vn 0.4877 -0.1772 -0.8548
vn 0.4788 -0.0964 -0.8726
vn 0.5127 0.2250 0.8285
vn 0.9998 0.0052 -0.0188
vn -0.5069 0.3259 0.7980
vn -0.9998 0.0052 -0.0188
vn -0.4933 -0.3068 -0.8139
vn 0.4933 -0.3068 -0.8139
vn 0.5069 0.3259 0.7980
vn 0.9999 -0.0038 -0.0078
vn -0.5038 0.3762 0.7776
vn -0.9999 -0.0038 -0.0078
vn -0.4962 -0.3781 -0.7815
vn 0.4962 -0.3781 -0.7815
vn 0.5038 0.3762 0.7776
vn 1.0000 -0.0021 -0.0039
vn -0.5019 0.4086 0.7623
vn -1.0000 -0.0021 -0.0039
vn -0.4981 -0.4096 -0.7642
vn 0.4981 -0.4096 -0.7642
vn 0.5019 0.4086 0.7623
vn 1.0000 -0.0007 -0.0012
vn -0.5006 0.4230 0.7552
vn -1.0000 -0.0007 -0.0012
vn -0.4994 -0.4234 -0.7559
vn 0.4994 -0.4234 -0.7559
vn 0.5006 0.4230 0.7552
vn 1.0000 0.0005 0.0009
vn -0.4995 0.4241 0.7554
vn -1.0000 0.0005 0.0009
vn -0.5005 -0.4238 -0.7549
vn 0.5005 -0.4238 -0.7549
vn 0.4995 0.4241 0.7554
vn 1.0000 0.0017 0.0032
vn -0.4984 0.4130 0.7622
vn -1.0000 0.0017 0.0032
vn -0.5016 -0.4121 -0.7606
vn 0.5016 -0.4121 -0.7606
vn 0.4984 0.4130 0.7622
vn 1.0000 0.0030 0.0059
vn -0.4971 0.3884 0.7758
vn -1.0000 0.0030 0.0059
vn -0.5029 -0.3870 -0.7729
vn 0.5029 -0.3870 -0.7729
vn 0.4971 0.3884 0.7758
vn 0.9999 0.0042 0.0097
vn -0.4954 0.3462 0.7967
vn -0.9999 0.0042 0.0097
vn -0.5047 -0.3441 -0.7918
vn 0.5047 -0.3441 -0.7918
vn 0.4954 0.3462 0.7967
vn 0.9998 0.0052 0.0156
vn -0.4930 0.2775 0.8246
vn -0.9998 0.0052 0.0156
vn -0.5073 -0.2750 -0.8167
vn 0.5073 -0.2750 -0.8167
vn 0.4930 0.2775 0.8246
vn 0.9997 0.0049 0.0253
vn -0.4891 0.1661 0.8562
vn -0.9997 0.0049 0.0253
vn -0.5115 -0.1639 -0.8435
vn 0.5115 -0.1639 -0.8435
vn 0.4891 0.1661 0.8562
vn 0.9994 0.0000 0.0351
vn -0.4854 0.0001 0.8743
vn -0.9994 0.0000 0.0351
vn -0.5159 -0.0001 -0.8566
vn 0.5159 -0.0001 -0.8566
vn 0.4892 -0.1652 0.8563
vn 0.4854 0.0001 0.8743
vn -0.4892 -0.1652 0.8563
vn -0.9997 -0.0048 0.0250
vn 0.5114 0.1630 -0.8437
vn 0.9997 -0.0048 0.0250
vn 0.4931 -0.2751 0.8253
vn -0.4931 -0.2751 0.8253
vn -0.5114 0.1630 -0.8437
vn -0.9998 -0.0051 0.0154
vn 0.5071 0.2727 -0.8176
vn 0.9998 -0.0051 0.0154
vn 0.4956 -0.3424 0.7982
vn -0.4956 -0.3424 0.7982
vn -0.5071 0.2727 -0.8176
vn -0.9999 -0.0041 0.0095
vn 0.5045 0.3404 -0.7934
vn 0.9999 -0.0041 0.0095
vn 0.4972 -0.3836 0.7782
vn -0.4972 -0.3836 0.7782
vn -0.5045 0.3404 -0.7934
vn -1.0000 -0.0028 0.0057
vn 0.5028 0.3822 -0.7753
vn 1.0000 -0.0028 0.0057
vn 0.4985 -0.4071 0.7653
vn -0.4985 -0.4071 0.7653
vn -0.5028 0.3822 -0.7753
vn -1.0000 -0.0016 0.0030
vn 0.5015 0.4063 -0.7638
vn 1.0000 -0.0016 0.0030
vn 0.4996 -0.4173 0.7591
vn -0.4996 -0.4173 0.7591
vn -0.5015 0.4063 -0.7638
vn -1.0000 -0.0004 0.0008
vn 0.5004 0.4171 -0.7587
vn 1.0000 -0.0004 0.0008
vn 0.5007 -0.4154 0.7594
vn -0.5007 -0.4154 0.7594
vn -0.5004 0.4171 -0.7587
vn -1.0000 0.0008 -0.0014
vn 0.4993 0.4158 -0.7601
vn 1.0000 0.0008 -0.0014
vn 0.5020 -0.4002 0.7667
vn -0.5020 -0.4002 0.7667
vn -0.4993 0.4158 -0.7601
vn -1.0000 0.0021 -0.0041
vn 0.4980 0.4012 -0.7688
vn 1.0000 0.0021 -0.0041
vn 0.5038 -0.3671 0.7819
vn -0.5038 -0.3671 0.7819
vn -0.4980 0.4012 -0.7688
vn -0.9999 0.0037 -0.0080
vn 0.4962 0.3689 -0.7859
vn 0.9999 0.0037 -0.0080
vn 0.5068 -0.3163 0.8019
vn -0.5068 -0.3163 0.8019
vn -0.4962 0.3689 -0.7859
vn -0.9998 -0.0051 -0.0185
vn 0.4934 0.2978 -0.8173
vn 0.9998 -0.0051 -0.0185
vn 0.5124 -0.2168 0.8309
vn -0.5124 -0.2168 0.8309
vn -0.4934 0.2978 -0.8173
vn -0.9993 -0.0183 -0.0329
vn 0.4881 0.1707 -0.8559
vn 0.9993 -0.0183 -0.0329
vn 0.5147 -0.1442 0.8451
vn -0.5147 -0.1442 0.8451
vn -0.4881 0.1707 -0.8559
vn -0.9988 -0.0217 -0.0440
vn 0.4798 0.0922 -0.8725
vn 0.9988 -0.0217 -0.0440
vn -0.4798 0.0922 -0.8725
s 1
f 1/1/1 12/2/2 6/3/3
f 8/4/4 1/1/1 2/5/5
f 9/6/6 2/5/5 3/7/7
f 10/8/8 3/7/7 4/9/9
f 11/10/10 4/9/9 5/11/11
f 6/3/3 11/10/10 5/11/11
f 7/12/12 18/13/13 12/2/2
f 14/14/14 7/12/12 8/4/4
f 15/15/15 8/4/4 9/6/6
f 16/16/16 9/6/6 10/8/8
f 17/17/17 10/8/8 11/10/10
f 12/2/2 17/17/17 11/10/10
f 13/18/18 24/19/19 18/13/13
f 20/20/20 13/18/18 14/14/14
f 21/21/21 14/14/14 15/15/15
f 22/22/22 15/15/15 16/16/16
f 23/23/23 16/16/16 17/17/17
f 18/13/13 23/23/23 17/17/17
f 19/24/24 30/25/25 24/19/19
f 26/26/26 19/24/24 20/20/20
f 27/27/27 20/20/20 21/21/21
f 28/28/28 21/21/21 22/22/22
f 29/29/29 22/22/22 23/23/23
f 24/19/19 29/29/29 23/23/23
f 25/30/30 36/31/31 30/25/25
f 32/32/32 25/30/30 26/26/26
f 33/33/33 26/26/26 27/27/27
f 34/34/34 27/27/27 28/28/28
f 35/35/35 28/28/28 29/29/29
f 30/25/25 35/35/35 29/29/29
f 31/36/36 42/37/37 36/31/31
f 38/38/38 31/36/36 32/32/32
f 39/39/39 32/32/32 33/33/33
f 40/40/40 33/33/33 34/34/34
f 41/41/41 34/34/34 35/35/35
f 36/31/31 41/41/41 35/35/35
f 37/42/42 48/43/43 42/37/37
f 44/44/44 37/42/42 38/38/38
f 45/45/45 38/38/38 39/39/39
f 46/46/46 39/39/39 40/40/40
f 41/41/41 46/46/46 40/40/40
f 42/37/37 47/47/47 41/41/41
f 43/48/48 54/49/49 48/43/43
f 50/50/50 43/48/48 44/44/44
f 51/51/51 44/44/44 45/45/45
f 52/52/52 45/45/45 46/46/46
f 53/53/53 46/46/46 47/47/47
f 48/43/43 53/53/53 47/47/47
f 49/54/54 60/55/55 54/49/49
f 56/56/56 49/54/54 50/50/50
f 57/57/57 50/50/50 51/51/51
f 58/58/58 51/51/51 52/52/52
f 59/59/59 52/52/52 53/53/53
f 54/49/49 59/59/59 53/53/53
f 55/60/60 66/61/61 60/55/55
f 62/62/62 55/60/60 56/56/56
f 63/63/63 56/56/56 57/57/57
f 64/64/64 57/57/57 58/58/58
f 65/65/65 58/58/58 59/59/59
f 60/55/55 65/65/65 59/59/59
f 61/66/66 72/67/67 66/61/61
f 68/68/68 61/66/66 62/62/62
f 69/69/69 62/62/62 63/63/63
f 70/70/70 63/63/63 64/64/64
f 71/71/71 64/64/64 65/65/65
f 66/61/61 71/71/71 65/65/65
f 67/72/72 78/73/73 72/67/67
f 74/74/74 67/72/72 68/68/68
f 75/75/75 68/68/68 69/69/69
f 76/76/76 69/69/69 70/70/70
f 77/77/77 70/70/70 71/71/71
f 72/67/67 77/77/77 71/71/71
f 79/78/78 78/73/73 73/79/79
f 80/80/80 73/79/79 74/74/74
f 75/75/75 80/80/80 74/74/74
f 76/76/76 81/81/81 75/75/75
f 83/82/82 76/76/76 77/77/77
f 84/83/83 77/77/77 78/73/73
f 85/84/84 84/83/83 79/78/78
f 86/85/85 79/78/78 80/80/80
f 81/81/81 86/85/85 80/80/80
f 82/86/86 87/87/87 81/81/81
f 89/88/88 82/86/86 83/82/82
f 90/89/89 83/82/82 84/83/83
f 91/90/90 90/89/89 85/84/84
f 92/91/91 85/84/84 86/85/85
f 87/87/87 92/91/91 86/85/85
f 88/92/92 93/93/93 87/87/87
f 95/94/94 88/92/92 89/88/88
f 96/95/95 89/88/88 90/89/89
f 97/96/96 96/95/95 91/90/90
f 98/97/97 91/90/90 92/91/91
f 93/93/93 98/97/97 92/91/91
f 94/98/98 99/99/99 93/93/93
f 101/100/100 94/98/98 95/94/94
f 102/101/101 95/94/94 96/95/95
f 103/102/102 102/101/101 97/96/96
f 104/103/103 97/96/96 98/97/97
f 99/99/99 104/103/103 98/97/97
f 100/104/104 105/105/105 99/99/99
f 107/106/106 100/104/104 101/100/100
f 108/107/107 101/100/100 102/101/101
f 109/108/108 108/107/107 103/102/102
f 110/109/109 103/102/102 104/103/103
f 105/105/105 110/109/109 104/103/103
f 106/110/110 111/111/111 105/105/105
f 113/112/112 106/110/110 107/106/106
f 114/113/113 107/106/106 108/107/107
f 115/114/114 114/113/113 109/108/108
f 116/115/115 109/108/108 110/109/109
f 111/111/111 116/115/115 110/109/109
f 112/116/116 117/117/117 111/111/111
f 119/118/118 112/116/116 113/112/112
f 120/119/119 113/112/112 114/113/113
f 121/120/120 120/119/119 115/114/114
f 122/121/121 115/114/114 116/115/115
f 117/117/117 122/121/121 116/115/115
f 118/122/122 123/123/123 117/117/117
f 125/124/124 118/122/122 119/118/118
f 126/125/125 119/118/118 120/119/119
f 127/126/126 126/125/125 121/120/120
f 128/127/127 121/120/120 122/121/121
f 123/123/123 128/127/127 122/121/121
f 124/128/128 129/129/129 123/123/123
f 131/130/130 124/128/128 125/124/124
f 132/131/131 125/124/124 126/125/125
f 133/132/132 132/131/131 127/126/126
f 134/133/133 127/126/126 128/127/127
f 129/129/129 134/133/133 128/127/127
f 130/134/134 135/135/135 129/129/129
f 137/136/136 130/134/134 131/130/130
f 138/137/137 131/130/130 132/131/131
f 139/138/138 138/137/137 133/132/132
f 140/139/139 133/132/132 134/133/133
f 135/135/135 140/139/139 134/133/133
f 136/140/140 141/141/141 135/135/135
f 143/142/142 136/140/140 137/136/136
f 144/143/143 137/136/136 138/137/137
f 145/144/144 144/143/143 139/138/138
f 146/145/145 139/138/138 140/139/139
f 141/141/141 146/145/145 140/139/139
f 142/146/146 147/147/147 141/141/141
f 149/148/148 142/146/146 143/142/142
f 150/149/149 143/142/142 144/143/143
f 1/1/1 7/12/12 12/2/2
f 8/4/4 7/12/12 1/1/1
f 9/6/6 8/4/4 2/5/5
f 10/8/8 9/6/6 3/7/7
f 11/10/10 10/8/8 4/9/9
f 6/3/3 12/2/2 11/10/10
f 7/12/12 13/18/18 18/13/13
f 14/14/14 13/18/18 7/12/12
f 15/15/15 14/14/14 8/4/4
f 16/16/16 15/15/15 9/6/6
f 17/17/17 16/16/16 10/8/8
f 12/2/2 18/13/13 17/17/17
f 13/18/18 19/24/24 24/19/19
f 20/20/20 19/24/24 13/18/18
f 21/21/21 20/20/20 14/14/14
f 22/22/22 21/21/21 15/15/15
f 23/23/23 22/22/22 16/16/16
f 18/13/13 24/19/19 23/23/23
f 19/24/24 25/30/30 30/25/25
f 26/26/26 25/30/30 19/24/24
f 27/27/27 26/26/26 20/20/20
f 28/28/28 27/27/27 21/21/21
f 29/29/29 28/28/28 22/22/22
f 24/19/19 30/25/25 29/29/29
f 25/30/30 31/36/36 36/31/31
f 32/32/32 31/36/36 25/30/30
f 33/33/33 32/32/32 26/26/26
f 34/34/34 33/33/33 27/27/27
f 35/35/35 34/34/34 28/28/28
f 30/25/25 36/31/31 35/35/35
f 31/36/36 37/42/42 42/37/37
f 38/38/38 37/42/42 31/36/36
f 39/39/39 38/38/38 32/32/32
f 40/40/40 39/39/39 33/33/33
f 41/41/41 40/40/40 34/34/34
f 36/31/31 42/37/37 41/41/41
f 37/42/42 43/48/48 48/43/43
f 44/44/44 43/48/48 37/42/42
f 45/45/45 44/44/44 38/38/38
f 46/46/46 45/45/45 39/39/39
f 41/41/41 47/47/47 46/46/46
f 42/37/37 48/43/43 47/47/47
f 43/48/48 49/54/54 54/49/49
f 50/50/50 49/54/54 43/48/48
f 51/51/51 50/50/50 44/44/44
f 52/52/52 51/51/51 45/45/45
f 53/53/53 52/52/52 46/46/46
f 48/43/43 54/49/49 53/53/53
f 49/54/54 55/60/60 60/55/55
f 56/56/56 55/60/60 49/54/54
f 57/57/57 56/56/56 50/50/50
f 58/58/58 57/57/57 51/51/51
f 59/59/59 58/58/58 52/52/52
f 54/49/49 60/55/55 59/59/59
f 55/60/60 61/66/66 66/61/61
f 62/62/62 61/66/66 55/60/60
f 63/63/63 62/62/62 56/56/56
f 64/64/64 63/63/63 57/57/57
f 65/65/65 64/64/64 58/58/58
f 60/55/55 66/61/61 65/65/65
f 61/66/66 67/72/72 72/67/67
f 68/68/68 67/72/72 61/66/66
f 69/69/69 68/68/68 62/62/62
f 70/70/70 69/69/69 63/63/63
f 71/71/71 70/70/70 64/64/64
f 66/61/61 72/67/67 71/71/71
f 67/72/72 73/79/79 78/73/73
f 74/74/74 73/79/79 67/72/72
f 75/75/75 74/74/74 68/68/68
f 76/76/76 75/75/75 69/69/69
f 77/77/77 76/76/76 70/70/70
f 72/67/67 78/73/73 77/77/77
f 79/78/78 84/83/83 78/73/73
f 80/80/80 79/78/78 73/79/79
f 75/75/75 81/81/81 80/80/80
f 76/76/76 82/86/86 81/81/81
f 83/82/82 82/86/86 76/76/76
f 84/83/83 83/82/82 77/77/77
f 85/84/84 90/89/89 84/83/83
f 86/85/85 85/84/84 79/78/78
f 81/81/81 87/87/87 86/85/85
f 82/86/86 88/92/92 87/87/87
f 89/88/88 88/92/92 82/86/86
f 90/89/89 89/88/88 83/82/82
f 91/90/90 96/95/95 90/89/89
f 92/91/91 91/90/90 85/84/84
f 87/87/87 93/93/93 92/91/91
f 88/92/92 94/98/98 93/93/93
f 95/94/94 94/98/98 88/92/92
f 96/95/95 95/94/94 89/88/88
f 97/96/96 102/101/101 96/95/95
f 98/97/97 97/96/96 91/90/90
f 93/93/93 99/99/99 98/97/97
f 94/98/98 100/104/104 99/99/99
f 101/100/100 100/104/104 94/98/98
f 102/101/101 101/100/100 95/94/94
f 103/102/102 108/107/107 102/101/101
f 104/103/103 103/102/102 97/96/96
f 99/99/99 105/105/105 104/103/103
f 100/104/104 106/110/110 105/105/105
f 107/106/106 106/110/110 100/104/104
f 108/107/107 107/106/106 101/100/100
f 109/108/108 114/113/113 108/107/107
f 110/109/109 109/108/108 103/102/102
f 105/105/105 111/111/111 110/109/109
f 106/110/110 112/116/116 111/111/111
f 113/112/112 112/116/116 106/110/110
f 114/113/113 113/112/112 107/106/106
f 115/114/114 120/119/119 114/113/113
f 116/115/115 115/114/114 109/108/108
f 111/111/111 117/117/117 116/115/115
f 112/116/116 118/122/122 117/117/117
f 119/118/118 118/122/122 112/116/116
f 120/119/119 119/118/118 113/112/112
f 121/120/120 126/125/125 120/119/119
f 122/121/121 121/120/120 115/114/114
f 117/117/117 123/123/123 122/121/121
f 118/122/122 124/128/128 123/123/123
f 125/124/124 124/128/128 118/122/122
f 126/125/125 125/124/124 119/118/118
f 127/126/126 132/131/131 126/125/125
f 128/127/127 127/126/126 121/120/120
f 123/123/123 129/129/129 128/127/127
f 124/128/128 130/134/134 129/129/129
f 131/130/130 130/134/134 124/128/128
f 132/131/131 131/130/130 125/124/124
f 133/132/132 138/137/137 132/131/131
f 134/133/133 133/132/132 127/126/126
f 129/129/129 135/135/135 134/133/133
f 130/134/134 136/140/140 135/135/135
f 137/136/136 136/140/140 130/134/134
f 138/137/137 137/136/136 131/130/130
f 139/138/138 144/143/143 138/137/137
f 140/139/139 139/138/138 133/132/132
f 135/135/135 141/141/141 140/139/139
f 136/140/140 142/146/146 141/141/141
f 143/142/142 142/146/146 136/140/140
f 144/143/143 143/142/142 137/136/136
f 145/144/144 150/149/149 144/143/143
f 146/145/145 145/144/144 139/138/138
f 141/141/141 147/147/147 146/145/145
f 142/146/146 148/150/150 147/147/147
f 149/148/148 148/150/150 142/146/146
f 150/149/149 149/148/148 143/142/142
