# Blender v2.79 (sub 0) OBJ File: 'ice_bow.blend'
# www.blender.org
o bow_string.0
v -0.002000 1.175000 -0.003464
v 0.002000 1.175000 -0.003464
v 0.004000 1.175000 0.000000
v 0.002000 1.175000 0.003464
v -0.002000 1.175000 0.003464
v -0.004000 1.175000 -0.000000
v -0.003000 1.101742 -0.005196
v 0.003000 1.101742 -0.005196
v 0.006000 1.101742 -0.000000
v 0.003000 1.101742 0.005196
v -0.003000 1.101742 0.005196
v -0.006000 1.101742 -0.000000
v -0.004000 1.008244 -0.006928
v 0.004000 1.008244 -0.006928
v 0.008000 1.008244 -0.000000
v 0.004000 1.008244 0.006928
v -0.004000 1.008244 0.006928
v -0.008000 1.008244 -0.000000
v -0.004000 0.899234 -0.006928
v 0.004000 0.899234 -0.006928
v 0.008000 0.899234 -0.000000
v 0.004000 0.899234 0.006928
v -0.004000 0.899234 0.006928
v -0.008000 0.899234 -0.000000
v -0.004000 0.779437 -0.006928
v 0.004000 0.779437 -0.006928
v 0.008000 0.779437 -0.000000
v 0.004000 0.779437 0.006928
v -0.004000 0.779437 0.006928
v -0.008000 0.779437 -0.000000
v -0.004000 0.653582 -0.006928
v 0.004000 0.653582 -0.006928
v 0.008000 0.653582 -0.000000
v 0.004000 0.653582 0.006928
v -0.004000 0.653582 0.006928
v -0.008000 0.653582 -0.000000
v -0.004000 0.526394 -0.006928
v 0.004000 0.526394 -0.006928
v 0.008000 0.526394 -0.000000
v 0.004000 0.526394 0.006928
v -0.004000 0.526394 0.006928
v -0.008000 0.526394 -0.000000
v -0.004000 0.402601 -0.006928
v 0.004000 0.402601 -0.006928
v 0.008000 0.402601 -0.000000
v 0.004000 0.402601 0.006928
v -0.004000 0.402601 0.006928
v -0.008000 0.402601 -0.000000
v -0.004000 0.286930 -0.006928
v 0.004000 0.286930 -0.006928
v 0.008000 0.286930 -0.000000
v 0.004000 0.286930 0.006928
v -0.004000 0.286930 0.006928
v -0.008000 0.286930 -0.000000
v -0.004000 0.184107 -0.006928
v 0.004000 0.184107 -0.006928
v 0.008000 0.184107 -0.000000
v 0.004000 0.184107 0.006928
v -0.004000 0.184107 0.006928
v -0.008000 0.184107 -0.000000
v -0.004000 0.098860 -0.006928
v 0.004000 0.098860 -0.006928
v 0.008000 0.098860 -0.000000
v 0.004000 0.098860 0.006928
v -0.004000 0.098860 0.006928
v -0.008000 0.098860 -0.000000
v -0.004000 0.035915 -0.006928
v 0.004000 0.035915 -0.006928
v 0.008000 0.035915 -0.000000
v 0.004000 0.035915 0.006928
v -0.004000 0.035915 0.006928
v -0.008000 0.035915 -0.000000
v -0.004000 -0.000000 -0.006928
v 0.004000 -0.000000 -0.006928
v 0.008000 -0.000000 0.000000
v 0.004000 0.000000 0.006928
v -0.004000 0.000000 0.006928
v -0.008000 -0.000000 -0.000000
v -0.004000 -0.036168 -0.006928
v 0.004000 -0.036168 -0.006928
v 0.008000 -0.036168 0.000000
v 0.004000 -0.036168 0.006928
v -0.004000 -0.036168 0.006928
v -0.008000 -0.036168 -0.000000
v -0.004000 -0.099844 -0.006928
v 0.004000 -0.099844 -0.006928
v 0.008000 -0.099844 0.000000
v 0.004000 -0.099844 0.006928
v -0.004000 -0.099844 0.006928
v -0.008000 -0.099844 -0.000000
v -0.004000 -0.186255 -0.006928
v 0.004000 -0.186255 -0.006928
v 0.008000 -0.186255 0.000000
v 0.004000 -0.186255 0.006928
v -0.004000 -0.186255 0.006928
v -0.008000 -0.186255 -0.000000
v -0.004000 -0.290633 -0.006928
v 0.004000 -0.290633 -0.006928
v 0.008000 -0.290633 0.000000
v 0.004000 -0.290633 0.006928
v -0.004000 -0.290633 0.006928
v -0.008000 -0.290633 0.000000
v -0.004000 -0.408207 -0.006928
v 0.004000 -0.408207 -0.006928
v 0.008000 -0.408207 0.000000
v 0.004000 -0.408207 0.006928
v -0.004000 -0.408207 0.006928
v -0.008000 -0.408207 0.000000
v -0.004000 -0.534206 -0.006928
v 0.004000 -0.534206 -0.006928
v 0.008000 -0.534206 0.000000
v 0.004000 -0.534206 0.006928
v -0.004000 -0.534206 0.006928
v -0.008000 -0.534206 0.000000
v -0.004000 -0.663861 -0.006928
v 0.004000 -0.663861 -0.006928
v 0.008000 -0.663861 0.000000
v 0.004000 -0.663861 0.006928
v -0.004000 -0.663861 0.006928
v -0.008000 -0.663861 0.000000
v -0.004000 -0.792400 -0.006928
v 0.004000 -0.792400 -0.006928
v 0.008000 -0.792400 0.000000
v 0.004000 -0.792400 0.006928
v -0.004000 -0.792400 0.006928
v -0.008000 -0.792400 0.000000
v -0.004000 -0.915054 -0.006928
v 0.004000 -0.915054 -0.006928
v 0.008000 -0.915054 0.000000
v 0.004000 -0.915054 0.006928
v -0.004000 -0.915054 0.006928
v -0.008000 -0.915054 0.000000
v -0.004000 -1.027052 -0.006928
v 0.004000 -1.027052 -0.006928
v 0.008000 -1.027052 0.000000
v 0.004000 -1.027052 0.006928
v -0.004000 -1.027052 0.006928
v -0.008000 -1.027052 0.000000
v -0.003000 -1.123624 -0.005196
v 0.003000 -1.123624 -0.005196
v 0.006000 -1.123624 0.000000
v 0.003000 -1.123624 0.005196
v -0.003000 -1.123624 0.005196
v -0.006000 -1.123624 0.000000
v -0.002000 -1.200000 -0.003464
v 0.002000 -1.200000 -0.003464
v 0.004000 -1.200000 0.000000
v 0.002000 -1.200000 0.003464
v -0.002000 -1.200000 0.003464
v -0.004000 -1.200000 -0.000000
vt 0.054536 0.415522
vt 0.045666 0.428073
vt 0.051579 0.428073
vt 0.054536 0.415522
vt 0.051579 0.428073
vt 0.045666 0.415522
vt 0.045666 0.428073
vt 0.036796 0.415522
vt 0.039752 0.428073
vt 0.036796 0.415522
vt 0.039752 0.428073
vt 0.045666 0.415522
vt 0.057492 0.399502
vt 0.057492 0.399502
vt 0.045666 0.399502
vt 0.033839 0.399502
vt 0.033839 0.399502
vt 0.057492 0.380825
vt 0.045666 0.399502
vt 0.057492 0.380825
vt 0.045666 0.380825
vt 0.033839 0.380825
vt 0.033839 0.380825
vt 0.045666 0.380825
vt 0.057492 0.360300
vt 0.057492 0.360300
vt 0.045666 0.360300
vt 0.033839 0.360300
vt 0.033839 0.360300
vt 0.045666 0.360300
vt 0.057492 0.338737
vt 0.057492 0.338737
vt 0.045666 0.338737
vt 0.033839 0.338737
vt 0.033839 0.338737
vt 0.045666 0.338737
vt 0.057492 0.316946
vt 0.057492 0.316946
vt 0.045666 0.316946
vt 0.033839 0.316946
vt 0.033839 0.316946
vt 0.045666 0.316946
vt 0.057492 0.295736
vt 0.057492 0.295736
vt 0.045666 0.295736
vt 0.033839 0.295736
vt 0.033839 0.295736
vt 0.045666 0.295736
vt 0.057492 0.275918
vt 0.057492 0.275918
vt 0.045666 0.275918
vt 0.033839 0.275918
vt 0.033839 0.275918
vt 0.045666 0.275918
vt 0.057492 0.258301
vt 0.057492 0.258301
vt 0.045666 0.258301
vt 0.033839 0.258301
vt 0.033839 0.258301
vt 0.045666 0.258301
vt 0.057492 0.243696
vt 0.057492 0.243696
vt 0.045666 0.243696
vt 0.033839 0.243696
vt 0.033839 0.243696
vt 0.045666 0.243696
vt 0.057492 0.232911
vt 0.057492 0.232911
vt 0.045666 0.232911
vt 0.033839 0.232911
vt 0.033839 0.232911
vt 0.045666 0.232911
vt 0.057492 0.226758
vt 0.057492 0.226758
vt 0.045666 0.226758
vt 0.033839 0.226758
vt 0.033839 0.226758
vt 0.045666 0.226758
vt 0.057492 0.220561
vt 0.057492 0.220561
vt 0.045666 0.220561
vt 0.033839 0.220561
vt 0.033839 0.220561
vt 0.045666 0.220561
vt 0.057492 0.209651
vt 0.057492 0.209651
vt 0.045666 0.209651
vt 0.033839 0.209651
vt 0.033839 0.209651
vt 0.045666 0.209651
vt 0.057492 0.194846
vt 0.057492 0.194846
vt 0.045666 0.194846
vt 0.033839 0.194846
vt 0.033839 0.194846
vt 0.045666 0.194846
vt 0.057492 0.176963
vt 0.057492 0.176963
vt 0.045666 0.176963
vt 0.033839 0.176963
vt 0.033839 0.176963
vt 0.045666 0.176963
vt 0.057492 0.156819
vt 0.057492 0.156819
vt 0.045666 0.156819
vt 0.033839 0.156819
vt 0.033839 0.156819
vt 0.045666 0.156819
vt 0.057492 0.135231
vt 0.057492 0.135231
vt 0.045666 0.135231
vt 0.033839 0.135231
vt 0.033839 0.135231
vt 0.045666 0.135231
vt 0.057492 0.113017
vt 0.057492 0.113017
vt 0.045666 0.113017
vt 0.033839 0.113017
vt 0.033839 0.113017
vt 0.045666 0.113017
vt 0.057492 0.090994
vt 0.057492 0.090994
vt 0.045666 0.090994
vt 0.033839 0.090994
vt 0.033839 0.090994
vt 0.045666 0.090994
vt 0.057492 0.069980
vt 0.057492 0.069980
vt 0.045666 0.069980
vt 0.033839 0.069980
vt 0.033839 0.069980
vt 0.045666 0.069980
vt 0.057492 0.050791
vt 0.057492 0.050791
vt 0.045666 0.050791
vt 0.033839 0.050791
vt 0.033839 0.050791
vt 0.045666 0.050791
vt 0.054536 0.034245
vt 0.054536 0.034245
vt 0.045666 0.034245
vt 0.036796 0.034245
vt 0.036796 0.034245
vt 0.045666 0.034245
vt 0.051579 0.021159
vt 0.051579 0.021159
vt 0.045666 0.021159
vt 0.039752 0.021159
vt 0.045666 0.021159
vt 0.039752 0.021159
vn -0.4998 0.0243 -0.8657
vn -0.9996 0.0273 0.0000
vn -0.4998 0.0273 -0.8657
vn 0.4998 0.0243 -0.8657
vn 0.4998 0.0273 -0.8657
vn 0.9997 0.0243 0.0000
vn 0.9996 0.0273 0.0000
vn 0.4998 0.0243 0.8657
vn 0.4998 0.0273 0.8657
vn -0.4998 0.0243 0.8657
vn -0.4998 0.0273 0.8657
vn -0.9997 0.0243 0.0000
vn -0.5000 0.0107 -0.8660
vn 0.5000 0.0107 -0.8660
vn 0.9999 0.0107 0.0000
vn 0.5000 0.0107 0.8660
vn -0.5000 0.0107 0.8660
vn -0.5000 0.0000 -0.8660
vn -0.9999 0.0107 0.0000
vn 0.5000 0.0000 -0.8660
vn 1.0000 0.0000 0.0000
vn 0.5000 0.0000 0.8660
vn -0.5000 0.0000 0.8660
vn -1.0000 0.0000 0.0000
vn -0.5000 -0.0103 -0.8660
vn 0.5000 -0.0103 -0.8660
vn 0.9999 -0.0103 0.0000
vn 0.5000 -0.0103 0.8660
vn -0.5000 -0.0103 0.8660
vn -0.9999 -0.0103 0.0000
vn -0.4999 -0.0234 -0.8658
vn 0.4999 -0.0234 -0.8658
vn 0.9997 -0.0234 0.0000
vn 0.4999 -0.0234 0.8658
vn -0.4999 -0.0234 0.8658
vn -0.9997 -0.0234 0.0000
vn -0.4998 -0.0262 -0.8657
vn 0.4998 -0.0262 -0.8657
vn 0.9996 -0.0262 0.0000
vn -0.4998 -0.0262 0.8657
vn -0.9996 -0.0262 0.0000
vn 0.4998 -0.0262 0.8657
s 1
f 7/1/1 6/2/2 1/3/3
f 8/4/4 1/3/3 2/5/5
f 9/6/6 2/5/5 3/7/7
f 10/8/8 3/7/7 4/9/9
f 11/10/10 4/9/9 5/11/11
f 12/12/12 5/11/11 6/2/2
f 13/13/13 12/12/12 7/1/1
f 14/14/14 7/1/1 8/4/4
f 15/15/15 8/4/4 9/6/6
f 16/16/16 9/6/6 10/8/8
f 17/17/17 10/8/8 11/10/10
f 12/12/12 17/17/17 11/10/10
f 19/18/18 18/19/19 13/13/13
f 20/20/20 13/13/13 14/14/14
f 21/21/21 14/14/14 15/15/15
f 22/22/22 15/15/15 16/16/16
f 23/23/23 16/16/16 17/17/17
f 24/24/24 17/17/17 18/19/19
f 25/25/18 24/24/24 19/18/18
f 26/26/20 19/18/18 20/20/20
f 27/27/21 20/20/20 21/21/21
f 28/28/22 21/21/21 22/22/22
f 29/29/23 22/22/22 23/23/23
f 30/30/24 23/23/23 24/24/24
f 31/31/18 30/30/24 25/25/18
f 32/32/20 25/25/18 26/26/20
f 33/33/21 26/26/20 27/27/21
f 34/34/22 27/27/21 28/28/22
f 35/35/23 28/28/22 29/29/23
f 36/36/24 29/29/23 30/30/24
f 37/37/18 36/36/24 31/31/18
f 38/38/20 31/31/18 32/32/20
f 39/39/21 32/32/20 33/33/21
f 40/40/22 33/33/21 34/34/22
f 41/41/23 34/34/22 35/35/23
f 42/42/24 35/35/23 36/36/24
f 43/43/18 42/42/24 37/37/18
f 44/44/20 37/37/18 38/38/20
f 45/45/21 38/38/20 39/39/21
f 46/46/22 39/39/21 40/40/22
f 47/47/23 40/40/22 41/41/23
f 48/48/24 41/41/23 42/42/24
f 49/49/18 48/48/24 43/43/18
f 50/50/20 43/43/18 44/44/20
f 51/51/21 44/44/20 45/45/21
f 52/52/22 45/45/21 46/46/22
f 53/53/23 46/46/22 47/47/23
f 54/54/24 47/47/23 48/48/24
f 55/55/18 54/54/24 49/49/18
f 56/56/20 49/49/18 50/50/20
f 57/57/21 50/50/20 51/51/21
f 58/58/22 51/51/21 52/52/22
f 59/59/23 52/52/22 53/53/23
f 60/60/24 53/53/23 54/54/24
f 61/61/18 60/60/24 55/55/18
f 62/62/20 55/55/18 56/56/20
f 63/63/21 56/56/20 57/57/21
f 64/64/22 57/57/21 58/58/22
f 65/65/23 58/58/22 59/59/23
f 66/66/24 59/59/23 60/60/24
f 67/67/18 66/66/24 61/61/18
f 68/68/20 61/61/18 62/62/20
f 69/69/21 62/62/20 63/63/21
f 70/70/22 63/63/21 64/64/22
f 71/71/23 64/64/22 65/65/23
f 72/72/24 65/65/23 66/66/24
f 73/73/18 72/72/24 67/67/18
f 74/74/20 67/67/18 68/68/20
f 75/75/21 68/68/20 69/69/21
f 76/76/22 69/69/21 70/70/22
f 77/77/23 70/70/22 71/71/23
f 78/78/24 71/71/23 72/72/24
f 79/79/18 78/78/24 73/73/18
f 80/80/20 73/73/18 74/74/20
f 81/81/21 74/74/20 75/75/21
f 82/82/22 75/75/21 76/76/22
f 83/83/23 76/76/22 77/77/23
f 84/84/24 77/77/23 78/78/24
f 85/85/18 84/84/24 79/79/18
f 86/86/20 79/79/18 80/80/20
f 87/87/21 80/80/20 81/81/21
f 88/88/22 81/81/21 82/82/22
f 89/89/23 82/82/22 83/83/23
f 90/90/24 83/83/23 84/84/24
f 91/91/18 90/90/24 85/85/18
f 92/92/20 85/85/18 86/86/20
f 93/93/21 86/86/20 87/87/21
f 94/94/22 87/87/21 88/88/22
f 95/95/23 88/88/22 89/89/23
f 96/96/24 89/89/23 90/90/24
f 97/97/18 96/96/24 91/91/18
f 98/98/20 91/91/18 92/92/20
f 99/99/21 92/92/20 93/93/21
f 100/100/22 93/93/21 94/94/22
f 101/101/23 94/94/22 95/95/23
f 102/102/24 95/95/23 96/96/24
f 103/103/18 102/102/24 97/97/18
f 104/104/20 97/97/18 98/98/20
f 105/105/21 98/98/20 99/99/21
f 106/106/22 99/99/21 100/100/22
f 107/107/23 100/100/22 101/101/23
f 108/108/24 101/101/23 102/102/24
f 109/109/18 108/108/24 103/103/18
f 110/110/20 103/103/18 104/104/20
f 111/111/21 104/104/20 105/105/21
f 112/112/22 105/105/21 106/106/22
f 113/113/23 106/106/22 107/107/23
f 114/114/24 107/107/23 108/108/24
f 115/115/18 114/114/24 109/109/18
f 116/116/20 109/109/18 110/110/20
f 117/117/21 110/110/20 111/111/21
f 118/118/22 111/111/21 112/112/22
f 119/119/23 112/112/22 113/113/23
f 120/120/24 113/113/23 114/114/24
f 121/121/18 120/120/24 115/115/18
f 122/122/20 115/115/18 116/116/20
f 123/123/21 116/116/20 117/117/21
f 124/124/22 117/117/21 118/118/22
f 125/125/23 118/118/22 119/119/23
f 126/126/24 119/119/23 120/120/24
f 127/127/18 126/126/24 121/121/18
f 128/128/20 121/121/18 122/122/20
f 129/129/21 122/122/20 123/123/21
f 130/130/22 123/123/21 124/124/22
f 131/131/23 124/124/22 125/125/23
f 132/132/24 125/125/23 126/126/24
f 133/133/25 132/132/24 127/127/18
f 134/134/26 127/127/18 128/128/20
f 135/135/27 128/128/20 129/129/21
f 136/136/28 129/129/21 130/130/22
f 137/137/29 130/130/22 131/131/23
f 138/138/30 131/131/23 132/132/24
f 139/139/31 138/138/30 133/133/25
f 140/140/32 133/133/25 134/134/26
f 141/141/33 134/134/26 135/135/27
f 142/142/34 135/135/27 136/136/28
f 143/143/35 136/136/28 137/137/29
f 144/144/36 137/137/29 138/138/30
f 145/145/37 144/144/36 139/139/31
f 146/146/38 139/139/31 140/140/32
f 147/147/39 140/140/32 141/141/33
f 142/142/34 147/147/39 141/141/33
f 149/148/40 142/142/34 143/143/35
f 150/149/41 143/143/35 144/144/36
f 7/1/1 12/12/12 6/2/2
f 8/4/4 7/1/1 1/3/3
f 9/6/6 8/4/4 2/5/5
f 10/8/8 9/6/6 3/7/7
f 11/10/10 10/8/8 4/9/9
f 12/12/12 11/10/10 5/11/11
f 13/13/13 18/19/19 12/12/12
f 14/14/14 13/13/13 7/1/1
f 15/15/15 14/14/14 8/4/4
f 16/16/16 15/15/15 9/6/6
f 17/17/17 16/16/16 10/8/8
f 12/12/12 18/19/19 17/17/17
f 19/18/18 24/24/24 18/19/19
f 20/20/20 19/18/18 13/13/13
f 21/21/21 20/20/20 14/14/14
f 22/22/22 21/21/21 15/15/15
f 23/23/23 22/22/22 16/16/16
f 24/24/24 23/23/23 17/17/17
f 25/25/18 30/30/24 24/24/24
f 26/26/20 25/25/18 19/18/18
f 27/27/21 26/26/20 20/20/20
f 28/28/22 27/27/21 21/21/21
f 29/29/23 28/28/22 22/22/22
f 30/30/24 29/29/23 23/23/23
f 31/31/18 36/36/24 30/30/24
f 32/32/20 31/31/18 25/25/18
f 33/33/21 32/32/20 26/26/20
f 34/34/22 33/33/21 27/27/21
f 35/35/23 34/34/22 28/28/22
f 36/36/24 35/35/23 29/29/23
f 37/37/18 42/42/24 36/36/24
f 38/38/20 37/37/18 31/31/18
f 39/39/21 38/38/20 32/32/20
f 40/40/22 39/39/21 33/33/21
f 41/41/23 40/40/22 34/34/22
f 42/42/24 41/41/23 35/35/23
f 43/43/18 48/48/24 42/42/24
f 44/44/20 43/43/18 37/37/18
f 45/45/21 44/44/20 38/38/20
f 46/46/22 45/45/21 39/39/21
f 47/47/23 46/46/22 40/40/22
f 48/48/24 47/47/23 41/41/23
f 49/49/18 54/54/24 48/48/24
f 50/50/20 49/49/18 43/43/18
f 51/51/21 50/50/20 44/44/20
f 52/52/22 51/51/21 45/45/21
f 53/53/23 52/52/22 46/46/22
f 54/54/24 53/53/23 47/47/23
f 55/55/18 60/60/24 54/54/24
f 56/56/20 55/55/18 49/49/18
f 57/57/21 56/56/20 50/50/20
f 58/58/22 57/57/21 51/51/21
f 59/59/23 58/58/22 52/52/22
f 60/60/24 59/59/23 53/53/23
f 61/61/18 66/66/24 60/60/24
f 62/62/20 61/61/18 55/55/18
f 63/63/21 62/62/20 56/56/20
f 64/64/22 63/63/21 57/57/21
f 65/65/23 64/64/22 58/58/22
f 66/66/24 65/65/23 59/59/23
f 67/67/18 72/72/24 66/66/24
f 68/68/20 67/67/18 61/61/18
f 69/69/21 68/68/20 62/62/20
f 70/70/22 69/69/21 63/63/21
f 71/71/23 70/70/22 64/64/22
f 72/72/24 71/71/23 65/65/23
f 73/73/18 78/78/24 72/72/24
f 74/74/20 73/73/18 67/67/18
f 75/75/21 74/74/20 68/68/20
f 76/76/22 75/75/21 69/69/21
f 77/77/23 76/76/22 70/70/22
f 78/78/24 77/77/23 71/71/23
f 79/79/18 84/84/24 78/78/24
f 80/80/20 79/79/18 73/73/18
f 81/81/21 80/80/20 74/74/20
f 82/82/22 81/81/21 75/75/21
f 83/83/23 82/82/22 76/76/22
f 84/84/24 83/83/23 77/77/23
f 85/85/18 90/90/24 84/84/24
f 86/86/20 85/85/18 79/79/18
f 87/87/21 86/86/20 80/80/20
f 88/88/22 87/87/21 81/81/21
f 89/89/23 88/88/22 82/82/22
f 90/90/24 89/89/23 83/83/23
f 91/91/18 96/96/24 90/90/24
f 92/92/20 91/91/18 85/85/18
f 93/93/21 92/92/20 86/86/20
f 94/94/22 93/93/21 87/87/21
f 95/95/23 94/94/22 88/88/22
f 96/96/24 95/95/23 89/89/23
f 97/97/18 102/102/24 96/96/24
f 98/98/20 97/97/18 91/91/18
f 99/99/21 98/98/20 92/92/20
f 100/100/22 99/99/21 93/93/21
f 101/101/23 100/100/22 94/94/22
f 102/102/24 101/101/23 95/95/23
f 103/103/18 108/108/24 102/102/24
f 104/104/20 103/103/18 97/97/18
f 105/105/21 104/104/20 98/98/20
f 106/106/22 105/105/21 99/99/21
f 107/107/23 106/106/22 100/100/22
f 108/108/24 107/107/23 101/101/23
f 109/109/18 114/114/24 108/108/24
f 110/110/20 109/109/18 103/103/18
f 111/111/21 110/110/20 104/104/20
f 112/112/22 111/111/21 105/105/21
f 113/113/23 112/112/22 106/106/22
f 114/114/24 113/113/23 107/107/23
f 115/115/18 120/120/24 114/114/24
f 116/116/20 115/115/18 109/109/18
f 117/117/21 116/116/20 110/110/20
f 118/118/22 117/117/21 111/111/21
f 119/119/23 118/118/22 112/112/22
f 120/120/24 119/119/23 113/113/23
f 121/121/18 126/126/24 120/120/24
f 122/122/20 121/121/18 115/115/18
f 123/123/21 122/122/20 116/116/20
f 124/124/22 123/123/21 117/117/21
f 125/125/23 124/124/22 118/118/22
f 126/126/24 125/125/23 119/119/23
f 127/127/18 132/132/24 126/126/24
f 128/128/20 127/127/18 121/121/18
f 129/129/21 128/128/20 122/122/20
f 130/130/22 129/129/21 123/123/21
f 131/131/23 130/130/22 124/124/22
f 132/132/24 131/131/23 125/125/23
f 133/133/25 138/138/30 132/132/24
f 134/134/26 133/133/25 127/127/18
f 135/135/27 134/134/26 128/128/20
f 136/136/28 135/135/27 129/129/21
f 137/137/29 136/136/28 130/130/22
f 138/138/30 137/137/29 131/131/23
f 139/139/31 144/144/36 138/138/30
f 140/140/32 139/139/31 133/133/25
f 141/141/33 140/140/32 134/134/26
f 142/142/34 141/141/33 135/135/27
f 143/143/35 142/142/34 136/136/28
f 144/144/36 143/143/35 137/137/29
f 145/145/37 150/149/41 144/144/36
f 146/146/38 145/145/37 139/139/31
f 147/147/39 146/146/38 140/140/32
f 142/142/34 148/150/42 147/147/39
f 149/148/40 148/150/42 142/142/34
f 150/149/41 149/148/40 143/143/35
