# Blender v2.92.0 OBJ File: ''
# www.blender.org
mtllib chroma_bunny_ears_inner.mtl
o Flower_FlowerShape_Flower_FlowerShapeShape
v 4.969525 5.155607 -0.463754
v 4.227013 4.440215 0.122027
v 3.904653 5.173772 0.369218
v 4.894726 4.110844 -0.874240
v 3.982785 4.652398 0.311649
v 5.213752 4.943425 -0.653376
v 3.494331 5.076763 0.690893
v 3.455689 4.955544 -0.706448
v 3.663759 3.819817 0.090785
v 3.894823 3.821832 0.386133
v 4.611008 4.965620 0.770292
v 4.650499 4.323026 -0.684618
v 4.904556 5.462784 -0.891155
v 5.148784 5.250601 -1.080777
v 3.250103 5.288946 0.880515
v 5.457980 4.731242 -0.842998
v 4.647165 5.889164 -0.216563
v 3.351229 5.905314 0.321061
v 4.162044 4.747392 -0.305374
v 3.917817 4.959574 -0.115752
v 4.891393 5.676981 -0.406185
v 5.135620 5.464799 -0.595807
v 5.379848 5.252616 -0.785429
v 3.673589 5.171757 0.073870
v 3.224625 4.953529 -1.001796
v 3.829854 4.129008 -0.041268
v 4.060918 4.131024 0.254080
v 3.390720 5.262721 -1.133849
v 3.429362 5.383940 0.263492
v 3.185134 5.596122 0.453114
v 3.585627 4.341191 0.148354
v 5.057487 5.986173 -0.538238
v 4.826424 5.984158 -0.833586
v 4.826424 5.984158 -0.833586
v 5.353520 5.681012 0.184511
v 5.122457 5.678997 -0.110837
v 4.891393 5.676981 -0.406185
v 4.660329 5.674966 -0.701533
v 5.418489 5.373836 0.611912
v 3.302758 4.432155 -1.059365
v 3.533822 4.434170 -0.764017
v 5.187425 5.371820 0.316564
v 3.995949 4.438200 -0.173321
v 4.227013 4.440215 0.122027
v 4.956361 5.369805 0.021216
v 4.725298 5.367790 -0.274132
v 4.494234 5.365775 -0.569480
v 4.263170 5.363760 -0.864828
v 4.032106 5.361744 -1.160176
v 5.252394 5.064644 0.743965
v 5.021330 5.062629 0.448617
v 4.790267 5.060614 0.153269
v 4.559203 5.058599 -0.142079
v 4.328139 5.056583 -0.437427
v 4.097075 5.054568 -0.732775
v 3.866012 5.052553 -1.028123
v 3.468853 4.741346 -1.191418
v 3.699917 4.743361 -0.896070
v 3.930980 4.745377 -0.600722
v 4.162044 4.747392 -0.305374
v 4.393108 4.749407 -0.010026
v 3.634948 5.050538 -1.323471
v 4.855235 4.753437 0.580670
v 5.086299 4.755452 0.876018
v 3.582293 5.907329 0.616409
v 4.813261 6.198356 -0.348616
v 3.595457 5.693131 0.131439
v 3.839684 5.480948 -0.058183
v 5.057487 5.986173 -0.538238
v 3.829854 4.129008 -0.041268
v 3.826521 5.695147 0.426787
v 3.686753 4.957559 -0.411100
v 3.419532 4.032000 0.280407
v 3.650595 4.034015 0.575755
v 4.148880 4.961589 0.179596
v 4.083911 5.268766 -0.247805
v 3.650595 4.034015 0.575755
v 4.582197 6.196341 -0.643964
v 4.070748 5.482964 0.237165
v 4.314975 5.270781 0.047543
v 4.559203 5.058599 -0.142079
v 4.328139 5.056583 -0.437427
v 4.572366 4.844400 -0.627049
v 4.816594 4.632218 -0.816671
v 4.803430 4.846416 -0.331701
v 5.047657 4.634233 -0.521323
v 5.291885 4.422050 -0.710945
v 4.725298 5.367790 -0.274132
v 3.917817 4.959574 -0.115752
v 3.585627 4.341191 0.148354
v 3.816690 4.343206 0.443702
v 4.842072 4.967635 1.065640
v 5.060821 4.420035 -1.006293
v 3.761552 6.002323 -0.000614
v 3.416198 5.598137 0.748462
v 4.813261 6.198356 -0.348616
v 4.582197 6.196341 -0.643964
v 3.894823 3.821832 0.386133
v 5.109293 5.893195 0.374133
v 4.878229 5.891180 0.078785
v 4.647165 5.889164 -0.216563
v 4.416101 5.887149 -0.511911
v 5.174262 5.586018 0.801534
v 3.058530 4.644337 -0.869743
v 3.289594 4.646352 -0.574395
v 4.943198 5.584003 0.506186
v 3.751722 4.650383 0.016301
v 3.982785 4.652398 0.311649
v 4.712134 5.581988 0.210838
v 4.481071 5.579973 -0.084510
v 4.250007 5.577958 -0.379858
v 4.018943 5.575943 -0.675206
v 3.787879 5.573927 -0.970554
v 5.008166 5.276827 0.933587
v 4.777103 5.274811 0.638239
v 4.546039 5.272796 0.342891
v 4.314975 5.270781 0.047543
v 4.083911 5.268766 -0.247805
v 3.852848 5.266751 -0.543153
v 3.621784 5.264736 -0.838501
v 4.005779 5.790140 -0.190236
v 4.481071 5.579973 -0.084510
v 5.125790 4.112859 -0.578892
v 4.060918 4.131024 0.254080
v 4.250007 5.577958 -0.379858
v 4.494234 5.365775 -0.569480
v 3.816690 4.343206 0.443702
v 3.660426 5.385955 0.558840
v 3.419532 4.032000 0.280407
v 3.663759 3.819817 0.090785
v 4.881562 4.325041 -0.389270
v 4.148880 4.961589 0.179596
v 4.738461 5.153592 -0.759102
v 3.995949 4.438200 -0.173321
v 3.751722 4.650383 0.016301
v 4.982689 4.941410 -0.948724
v 4.236843 5.792155 0.105112
v 3.992616 6.004338 0.294734
v 3.263267 5.074748 0.395545
v 3.019040 5.286931 0.585167
v 5.226916 4.729227 -1.138346
v 4.416101 5.887149 -0.511911
v 4.660329 5.674966 -0.701533
v 4.393108 4.749407 -0.010026
vt 0.554300 0.570251
vt 0.507424 0.570251
vt 0.507424 0.617127
vt 0.554300 0.992127
vt 0.554300 0.945251
vt 0.507424 0.945251
vt 0.491800 0.757751
vt 0.491800 0.804627
vt 0.444924 0.804627
vt 0.741800 0.757751
vt 0.741800 0.804627
vt 0.694924 0.804627
vt 0.507424 0.570251
vt 0.507424 0.617127
vt 0.554300 0.992127
vt 0.554300 0.945251
vt 0.507424 0.945251
vt 0.679300 0.632751
vt 0.632424 0.632751
vt 0.632424 0.679627
vt 0.554300 0.804627
vt 0.554300 0.757751
vt 0.554300 0.757751
vt 0.694924 0.804627
vt 0.741800 0.804627
vt 0.741800 0.804627
vt 0.554300 0.867127
vt 0.554300 0.820251
vt 0.554300 0.820251
vt 0.679300 0.632751
vt 0.632424 0.632751
vt 0.507424 0.820251
vt 0.507424 0.867127
vt 0.507424 0.867127
vt 0.319924 0.820251
vt 0.319924 0.867127
vt 0.319924 0.867127
vt 0.741800 0.757751
vt 0.741800 0.757751
vt 0.679300 0.679627
vt 0.616800 0.632751
vt 0.569924 0.632751
vt 0.569924 0.679627
vt 0.366800 0.867127
vt 0.366800 0.820251
vt 0.366800 0.820251
vt 0.694924 0.757751
vt 0.694924 0.804627
vt 0.616800 0.632751
vt 0.569924 0.632751
vt 0.429300 0.695251
vt 0.382424 0.695251
vt 0.382424 0.695251
vt 0.679300 0.632751
vt 0.679300 0.679627
vt 0.632424 0.679627
vt 0.616800 0.632751
vt 0.616800 0.679627
vt 0.569924 0.679627
vt 0.382424 0.742127
vt 0.382424 0.742127
vt 0.741800 0.695251
vt 0.741800 0.742127
vt 0.694924 0.742127
vt 0.491800 0.695251
vt 0.444924 0.695251
vt 0.444924 0.695251
vt 0.679300 0.695251
vt 0.679300 0.742127
vt 0.632424 0.742127
vt 0.616800 0.695251
vt 0.616800 0.742127
vt 0.569924 0.742127
vt 0.616800 0.742127
vt 0.491800 0.742127
vt 0.444924 0.742127
vt 0.429300 0.742127
vt 0.679300 0.742127
vt 0.491800 0.757751
vt 0.491800 0.804627
vt 0.444924 0.804627
vt 0.429300 0.757751
vt 0.429300 0.804627
vt 0.382424 0.804627
vt 0.366800 0.757751
vt 0.366800 0.804627
vt 0.319924 0.804627
vt 0.554300 0.929627
vt 0.554300 0.882751
vt 0.554300 0.882751
vt 0.366800 0.820251
vt 0.366800 0.867127
vt 0.319924 0.867127
vt 0.554300 0.992127
vt 0.554300 0.945251
vt 0.507424 0.945251
vt 0.694924 0.695251
vt 0.694924 0.695251
vt 0.554300 0.992127
vt 0.554300 0.945251
vt 0.507424 0.945251
vt 0.741800 0.804627
vt 0.741800 0.757751
vt 0.507424 0.632751
vt 0.507424 0.679627
vt 0.507424 0.679627
vt 0.507424 0.632751
vt 0.507424 0.679627
vt 0.507424 0.679627
vt 0.319924 0.757751
vt 0.319924 0.757751
vt 0.569924 0.632751
vt 0.569924 0.632751
vt 0.366800 0.867127
vt 0.366800 0.867127
vt 0.694924 0.757751
vt 0.694924 0.804627
vt 0.429300 0.695251
vt 0.382424 0.695251
vt 0.382424 0.695251
vt 0.679300 0.632751
vt 0.507424 0.992127
vt 0.554300 0.992127
vt 0.491800 0.804627
vt 0.382424 0.742127
vt 0.382424 0.742127
vt 0.632424 0.632751
vt 0.632424 0.632751
vt 0.319924 0.757751
vt 0.319924 0.804627
vt 0.319924 0.804627
vt 0.554300 0.757751
vt 0.554300 0.804627
vt 0.507424 0.804627
vt 0.632424 0.679627
vt 0.616800 0.632751
vt 0.569924 0.679627
vt 0.554300 0.945251
vt 0.507424 0.945251
vt 0.507424 0.992127
vt 0.741800 0.695251
vt 0.694924 0.742127
vt 0.554300 0.617127
vt 0.554300 0.570251
vt 0.554300 0.570251
vt 0.679300 0.695251
vt 0.632424 0.695251
vt 0.632424 0.742127
vt 0.616800 0.695251
vt 0.569924 0.695251
vt 0.569924 0.742127
vt 0.507424 0.570251
vt 0.507424 0.617127
vt 0.507424 0.617127
vt 0.491800 0.695251
vt 0.444924 0.742127
vt 0.429300 0.695251
vt 0.694924 0.757751
vt 0.429300 0.742127
vt 0.491800 0.757751
vt 0.444924 0.757751
vt 0.444924 0.804627
vt 0.429300 0.757751
vt 0.382424 0.757751
vt 0.382424 0.804627
vt 0.366800 0.757751
vt 0.319924 0.804627
vt 0.491800 0.695251
vt 0.444924 0.695251
vt 0.444924 0.695251
vt 0.366800 0.820251
vt 0.319924 0.820251
vt 0.319924 0.867127
vt 0.382424 0.804627
vt 0.429300 0.804627
vt 0.429300 0.804627
vt 0.569924 0.742127
vt 0.616800 0.742127
vt 0.616800 0.742127
vt 0.507424 0.882751
vt 0.507424 0.929627
vt 0.507424 0.929627
vt 0.366800 0.757751
vt 0.319924 0.757751
vt 0.741800 0.695251
vt 0.694924 0.695251
vt 0.694924 0.695251
vt 0.554300 0.632751
vt 0.507424 0.632751
vt 0.632424 0.742127
vt 0.679300 0.742127
vt 0.679300 0.742127
vt 0.429300 0.804627
vt 0.491800 0.804627
vt 0.319924 0.820251
vt 0.507424 0.820251
vt 0.507424 0.867127
vt 0.507424 0.867127
vt 0.741800 0.742127
vt 0.741800 0.695251
vt 0.429300 0.757751
vt 0.554300 0.929627
vt 0.554300 0.882751
vt 0.554300 0.882751
vt 0.507424 0.882751
vt 0.507424 0.929627
vt 0.507424 0.929627
vt 0.694924 0.742127
vt 0.554300 0.617127
vt 0.554300 0.570251
vt 0.319924 0.820251
vt 0.554300 0.820251
vt 0.507424 0.820251
vt 0.554300 0.820251
vt 0.554300 0.867127
vt 0.366800 0.757751
vt 0.429300 0.757751
vt 0.382424 0.757751
vt 0.382424 0.804627
vt 0.491800 0.757751
vt 0.444924 0.757751
vt 0.444924 0.804627
vt 0.554300 0.757751
vt 0.507424 0.757751
vt 0.507424 0.804627
vt 0.366800 0.804627
vt 0.694924 0.757751
vt 0.429300 0.695251
vt 0.491800 0.695251
vt 0.444924 0.742127
vt 0.554300 0.695251
vt 0.507424 0.695251
vt 0.507424 0.742127
vt 0.616800 0.695251
vt 0.569924 0.695251
vt 0.569924 0.742127
vt 0.679300 0.695251
vt 0.632424 0.695251
vt 0.632424 0.742127
vt 0.507424 0.882751
vt 0.632424 0.679627
vt 0.616800 0.679627
vt 0.569924 0.679627
vt 0.554300 0.632751
vt 0.554300 0.679627
vt 0.694924 0.742127
vt 0.679300 0.695251
vt 0.616800 0.695251
vt 0.554300 0.695251
vt 0.554300 0.742127
vt 0.507424 0.742127
vt 0.491800 0.742127
vt 0.444924 0.742127
vt 0.554300 0.617127
vt 0.507424 0.992127
vt 0.444924 0.757751
vt 0.507424 0.992127
vt 0.679300 0.679627
vt 0.554300 0.804627
vt 0.554300 0.867127
vt 0.616800 0.679627
vt 0.632424 0.695251
vt 0.569924 0.695251
vt 0.444924 0.757751
vt 0.382424 0.757751
vt 0.554300 0.929627
vt 0.507424 0.992127
vt 0.507424 0.632751
vt 0.679300 0.679627
vt 0.507424 0.757751
vt 0.616800 0.679627
vt 0.741800 0.742127
vt 0.554300 0.617127
vt 0.507424 0.570251
vt 0.491800 0.742127
vt 0.429300 0.742127
vt 0.366800 0.804627
vt 0.507424 0.882751
vt 0.554300 0.679627
vt 0.507424 0.820251
vt 0.741800 0.742127
vt 0.382424 0.757751
vt 0.554300 0.929627
vt 0.554300 0.867127
vt 0.366800 0.804627
vt 0.554300 0.804627
vt 0.429300 0.742127
vt 0.491800 0.742127
vt 0.554300 0.742127
vt 0.632424 0.695251
vt 0.569924 0.695251
vt 0.507424 0.695251
vn 0.6162 0.0054 0.7876
vn -0.6162 -0.0054 -0.7876
vn -0.6513 0.5658 0.5057
vn -0.4429 -0.8245 0.3521
vn 0.4429 0.8245 -0.3521
vn 0.6513 -0.5658 -0.5057
usemtl None
s 1
f 69/1/1 66/2/1 17/3/1
f 73/4/2 90/5/2 26/6/2
f 76/7/2 20/8/2 24/9/2
f 93/10/2 4/11/2 12/12/2
f 78/13/3 142/14/3 17/3/3
f 10/15/1 27/16/1 91/17/1
f 23/18/1 22/19/1 1/20/1
f 61/21/1 53/22/1 117/23/1
f 63/24/4 64/25/4 92/26/4
f 44/27/1 61/28/1 75/29/1
f 14/30/5 13/31/5 22/19/5
f 20/32/3 135/33/3 5/34/3
f 30/35/3 140/36/3 15/37/3
f 64/25/1 50/38/1 114/39/1
f 136/40/6 14/30/6 23/18/6
f 22/41/1 21/42/1 88/43/1
f 139/44/6 29/45/6 128/46/6
f 51/47/2 63/24/2 11/48/2
f 13/49/5 143/50/5 21/42/5
f 48/51/5 49/52/5 113/53/5
f 35/54/6 42/55/6 45/56/6
f 36/57/6 45/58/6 46/59/6
f 49/52/2 56/60/2 120/61/2
f 39/62/6 50/63/6 51/64/6
f 47/65/5 48/66/5 112/67/5
f 42/68/6 51/69/6 52/70/6
f 45/71/6 52/72/6 53/73/6
f 53/73/4 52/72/4 116/74/4
f 47/65/6 54/75/6 55/76/6
f 48/51/6 55/77/6 56/60/6
f 50/38/6 64/25/6 63/24/6
f 52/70/4 51/69/4 115/78/4
f 54/79/6 60/80/6 59/81/6
f 55/82/6 59/83/6 58/84/6
f 56/85/6 58/86/6 57/87/6
f 27/88/1 44/89/1 108/90/1
f 58/91/6 41/92/6 40/93/6
f 77/94/3 127/95/3 31/96/3
f 39/62/5 42/97/5 106/98/5
f 130/99/6 70/100/6 124/101/6
f 12/12/4 4/11/4 123/102/4
f 4/11/6 93/10/6 87/103/6
f 38/104/2 47/105/2 111/106/2
f 142/107/3 125/108/3 122/109/3
f 56/85/5 62/110/5 28/111/5
f 36/57/5 37/112/5 101/113/5
f 40/93/4 41/92/4 105/114/4
f 140/36/4 139/44/4 7/115/4
f 84/116/3 12/12/3 131/117/3
f 121/118/5 94/119/5 138/120/5
f 42/55/1 35/54/1 99/121/1
f 129/122/4 130/99/4 98/123/4
f 24/9/4 20/8/4 132/124/4
f 94/119/3 67/125/3 71/126/3
f 35/54/5 36/127/5 100/128/5
f 18/129/3 30/130/3 95/131/3
f 82/132/2 19/133/2 20/134/2
f 99/121/3 100/128/3 109/135/3
f 100/136/3 101/113/3 110/137/3
f 124/138/1 127/139/1 77/140/1
f 103/141/3 106/98/3 115/142/3
f 37/143/1 32/144/1 96/145/1
f 106/146/3 109/147/3 116/148/3
f 109/149/3 110/150/3 117/151/3
f 33/152/2 38/153/2 102/154/2
f 111/155/3 112/67/3 119/156/3
f 112/157/3 113/53/3 120/61/3
f 114/39/3 115/158/3 11/48/3
f 121/118/2 68/159/2 67/125/2
f 118/160/3 119/161/3 72/162/3
f 119/163/3 120/164/3 8/165/3
f 120/166/3 28/111/3 25/167/3
f 125/168/5 121/169/5 137/170/5
f 8/171/3 25/172/3 104/173/3
f 29/174/4 24/175/4 3/176/4
f 82/177/4 83/178/4 85/179/4
f 43/180/2 26/181/2 90/182/2
f 67/183/5 18/129/5 65/184/5
f 141/185/5 136/186/5 6/187/5
f 21/188/1 17/189/1 122/109/1
f 83/190/4 84/191/4 86/192/4
f 58/84/4 59/83/4 72/193/4
f 62/110/2 57/87/2 25/167/2
f 59/81/4 60/80/4 89/194/4
f 50/63/1 39/62/1 103/141/1
f 41/92/1 58/91/1 8/171/1
f 57/195/2 40/93/2 104/173/2
f 60/196/2 43/197/2 107/198/2
f 93/199/6 141/185/6 16/200/6
f 68/201/2 24/175/2 29/174/2
f 70/202/6 134/203/6 2/204/6
f 135/205/3 31/206/3 127/207/3
f 16/200/1 6/187/1 86/208/1
f 143/209/6 34/210/6 69/1/6
f 29/45/2 139/44/2 140/36/2
f 128/46/1 95/211/1 15/37/1
f 144/212/1 132/213/1 5/34/1
f 19/214/2 134/215/2 135/33/2
f 71/216/1 65/184/1 95/131/1
f 79/217/1 71/218/1 128/219/1
f 80/220/1 79/221/1 3/222/1
f 19/133/6 82/132/6 81/223/6
f 70/100/2 130/99/2 129/122/2
f 134/215/6 19/214/6 144/212/6
f 81/223/1 80/224/1 132/225/1
f 67/183/2 29/226/2 30/130/2
f 87/103/1 86/227/1 131/117/1
f 137/228/1 138/120/1 71/126/1
f 122/229/1 137/170/1 79/230/1
f 88/231/1 122/232/1 80/233/1
f 1/234/1 88/235/1 81/236/1
f 6/237/1 1/238/1 85/239/1
f 2/204/1 5/240/1 127/207/1
f 34/210/2 143/209/2 142/14/2
f 14/30/2 136/40/2 133/241/2
f 13/49/2 133/242/2 126/243/2
f 143/244/2 126/245/2 125/108/2
f 141/185/2 93/199/2 84/246/2
f 134/203/2 70/202/2 31/206/2
f 136/247/2 84/191/2 83/190/2
f 133/248/2 83/178/2 82/177/2
f 126/249/2 82/250/2 76/251/2
f 125/168/2 76/252/2 68/253/2
f 21/254/1 69/1/1 17/3/1
f 9/255/2 73/4/2 26/6/2
f 68/256/2 76/7/2 24/9/2
f 84/116/2 93/10/2 12/12/2
f 66/2/3 78/13/3 17/3/3
f 74/257/1 10/15/1 91/17/1
f 6/258/1 23/18/1 1/20/1
f 75/259/1 61/21/1 117/23/1
f 11/48/4 63/24/4 92/26/4
f 108/260/1 44/27/1 75/29/1
f 23/18/5 14/30/5 22/19/5
f 132/213/3 20/32/3 5/34/3
f 95/211/3 30/35/3 15/37/3
f 92/26/1 64/25/1 114/39/1
f 6/258/6 136/40/6 23/18/6
f 1/261/1 22/41/1 88/43/1
f 7/115/6 139/44/6 128/46/6
f 115/158/2 51/47/2 11/48/2
f 22/41/5 13/49/5 21/42/5
f 112/157/5 48/51/5 113/53/5
f 36/127/6 35/54/6 45/56/6
f 37/112/6 36/57/6 46/59/6
f 113/53/2 49/52/2 120/61/2
f 42/97/6 39/62/6 51/64/6
f 111/155/5 47/65/5 112/67/5
f 45/262/6 42/68/6 52/70/6
f 46/263/6 45/71/6 53/73/6
f 117/151/4 53/73/4 116/74/4
f 48/66/6 47/65/6 55/76/6
f 49/52/6 48/51/6 56/60/6
f 51/47/6 50/38/6 63/24/6
f 116/148/4 52/70/4 115/78/4
f 55/264/6 54/79/6 59/81/6
f 56/265/6 55/82/6 58/84/6
f 62/110/6 56/85/6 57/87/6
f 91/266/1 27/88/1 108/90/1
f 57/195/6 58/91/6 40/93/6
f 129/122/3 77/94/3 31/96/3
f 103/141/5 39/62/5 106/98/5
f 98/267/6 130/99/6 124/101/6
f 131/117/4 12/12/4 123/102/4
f 123/102/6 4/11/6 87/103/6
f 102/268/2 38/104/2 111/106/2
f 17/189/3 142/107/3 122/109/3
f 120/166/5 56/85/5 28/111/5
f 100/136/5 36/57/5 101/113/5
f 104/173/4 40/93/4 105/114/4
f 15/37/4 140/36/4 7/115/4
f 86/227/3 84/116/3 131/117/3
f 137/228/5 121/118/5 138/120/5
f 106/269/1 42/55/1 99/121/1
f 77/140/4 129/122/4 98/123/4
f 3/222/4 24/9/4 132/124/4
f 138/120/3 94/119/3 71/126/3
f 99/121/5 35/54/5 100/128/5
f 65/184/3 18/129/3 95/131/3
f 76/270/2 82/132/2 20/134/2
f 106/269/3 99/121/3 109/135/3
f 109/271/3 100/136/3 110/137/3
f 98/123/1 124/138/1 77/140/1
f 114/272/3 103/141/3 115/142/3
f 101/273/1 37/143/1 96/145/1
f 115/78/3 106/146/3 116/148/3
f 116/74/3 109/149/3 117/151/3
f 97/274/2 33/152/2 102/154/2
f 118/275/3 111/155/3 119/156/3
f 119/276/3 112/157/3 120/61/3
f 92/26/3 114/39/3 11/48/3
f 94/119/2 121/118/2 67/125/2
f 89/194/3 118/160/3 72/162/3
f 72/193/3 119/163/3 8/165/3
f 8/277/3 120/166/3 25/167/3
f 122/229/5 125/168/5 137/170/5
f 105/114/3 8/171/3 104/173/3
f 128/219/4 29/174/4 3/176/4
f 81/236/4 82/177/4 85/179/4
f 107/278/2 43/180/2 90/182/2
f 71/216/5 67/183/5 65/184/5
f 16/200/5 141/185/5 6/187/5
f 88/279/1 21/188/1 122/109/1
f 85/239/4 83/190/4 86/192/4
f 8/165/4 58/84/4 72/193/4
f 28/111/2 62/110/2 25/167/2
f 72/162/4 59/81/4 89/194/4
f 114/272/1 50/63/1 103/141/1
f 105/114/1 41/92/1 8/171/1
f 25/172/2 57/195/2 104/173/2
f 89/280/2 60/196/2 107/198/2
f 87/281/6 93/199/6 16/200/6
f 67/282/2 68/201/2 29/174/2
f 124/283/6 70/202/6 2/204/6
f 5/240/3 135/205/3 127/207/3
f 87/281/1 16/200/1 86/208/1
f 21/254/6 143/209/6 69/1/6
f 30/35/2 29/45/2 140/36/2
f 7/115/1 128/46/1 15/37/1
f 2/284/1 144/212/1 5/34/1
f 20/32/2 19/214/2 135/33/2
f 128/285/1 71/216/1 95/131/1
f 3/176/1 79/217/1 128/219/1
f 132/124/1 80/220/1 3/222/1
f 144/286/6 19/133/6 81/223/6
f 31/96/2 70/100/2 129/122/2
f 2/284/6 134/215/6 144/212/6
f 144/286/1 81/223/1 132/225/1
f 18/129/2 67/183/2 30/130/2
f 123/102/1 87/103/1 131/117/1
f 79/287/1 137/228/1 71/126/1
f 80/288/1 122/229/1 79/230/1
f 81/289/1 88/231/1 80/233/1
f 85/179/1 1/234/1 81/236/1
f 86/192/1 6/237/1 85/239/1
f 124/283/1 2/204/1 127/207/1
f 78/13/2 34/210/2 142/14/2
f 13/31/2 14/30/2 133/241/2
f 143/50/2 13/49/2 126/243/2
f 142/107/2 143/244/2 125/108/2
f 136/186/2 141/185/2 84/246/2
f 135/205/2 134/203/2 31/206/2
f 133/290/2 136/247/2 83/190/2
f 126/291/2 133/248/2 82/177/2
f 125/292/2 126/249/2 76/251/2
f 121/169/2 125/168/2 68/253/2
