# Blender v2.92.0 OBJ File: ''
# www.blender.org
mtllib chroma_bunny_ears.mtl
o Blooms_BloomsShape_Blooms_BloomsShapeShape
v 5.952931 7.224955 -0.771102
v 5.721868 7.222939 -1.066450
v 5.490804 7.220924 -1.361798
v 5.259740 7.218909 -1.657146
v 6.017900 6.917778 -0.343701
v 5.786837 6.915763 -0.639049
v 5.555773 6.913748 -0.934397
v 4.504064 6.717715 -0.586395
v 4.748291 6.505532 -0.776017
v 4.569033 6.410539 -0.158994
v 4.813261 6.198356 -0.348616
v 5.324709 6.911733 -1.229745
v 5.093645 6.909718 -1.525093
v 4.862582 6.907702 -1.820441
v 5.851805 6.608587 -0.211648
v 5.620741 6.606572 -0.506996
v 5.389678 6.604557 -0.802344
v 5.158614 6.602541 -1.097692
v 4.927550 6.600526 -1.393040
v 4.696486 6.598511 -1.688388
v 5.685710 6.299395 -0.079595
v 5.454647 6.297380 -0.374943
v 5.223583 6.295365 -0.670291
v 4.992519 6.293350 -0.965639
v 4.992519 6.293350 -0.965639
v 5.236746 6.081167 -1.155261
v 5.057487 5.986173 -0.538238
v 5.480974 5.868984 -1.344883
v 4.761455 6.291335 -1.260987
v 4.530392 6.289320 -1.556335
v 5.288551 5.988188 -0.242890
v 5.057487 5.986173 -0.538238
v 4.826424 5.984158 -0.833586
v 4.595360 5.982143 -1.128934
v 5.301715 5.773991 -0.727860
v 4.490901 6.931913 -0.101425
v 4.735128 6.719730 -0.291047
v 4.425932 7.239089 -0.528826
v 4.670159 7.026906 -0.718448
v 4.979355 6.507547 -0.480669
v 5.223583 6.295365 -0.670291
v 5.467810 6.083182 -0.859913
v 4.914387 6.814724 -0.908070
v 5.712038 5.870999 -1.049535
v 4.656996 7.241105 -0.233478
v 4.901223 7.028922 -0.423100
v 5.158614 6.602541 -1.097692
v 5.402842 6.390358 -1.287314
v 5.145451 6.816739 -0.612722
v 5.389678 6.604557 -0.802344
v 5.633905 6.392374 -0.991966
v 5.878132 6.180191 -1.181588
v 4.823091 7.550296 -0.365531
v 5.647069 6.178176 -1.476936
v 4.592027 7.548281 -0.660879
v 4.836254 7.336098 -0.850501
v 5.080482 7.123916 -1.040123
v 4.259837 6.929898 -0.396773
v 5.070652 5.771976 -1.023208
v 4.826424 5.984158 -0.833586
v 5.324709 6.911733 -1.229745
v 5.568936 6.699550 -1.419367
v 5.067318 7.338113 -0.555153
v 5.311545 7.125931 -0.744775
v 5.708704 7.437138 -0.581480
v 5.477641 7.435122 -0.876828
v 5.246577 7.433107 -1.172176
v 5.015513 7.431092 -1.467524
v 5.773673 7.129961 -0.154079
v 5.542609 7.127946 -0.449427
v 5.311545 7.125931 -0.744775
v 5.813164 6.487368 -1.608989
v 5.002349 7.645290 -0.982554
v 5.555773 6.913748 -0.934397
v 5.246577 7.433107 -1.172176
v 5.080482 7.123916 -1.040123
v 4.849418 7.121901 -1.335471
v 4.618354 7.119885 -1.630819
v 5.607578 6.820769 -0.022026
v 5.376514 6.818754 -0.317374
v 5.145451 6.816739 -0.612722
v 4.914387 6.814724 -0.908070
v 4.683323 6.812709 -1.203418
v 4.452259 6.810694 -1.498766
v 5.441483 6.511578 0.110027
v 5.210419 6.509562 -0.185321
v 4.979355 6.507547 -0.480669
v 4.748291 6.505532 -0.776017
v 5.490804 7.220924 -1.361798
v 5.735032 7.008742 -1.551420
v 5.800000 6.701565 -1.124019
v 6.044228 6.489383 -1.313641
v 4.517228 6.503517 -1.071365
v 4.286164 6.501502 -1.366713
v 5.044324 6.200371 -0.053268
v 4.813261 6.198356 -0.348616
v 4.582197 6.196341 -0.643964
v 4.351133 6.194325 -0.939312
v 4.582197 6.196341 -0.643964
v 5.233413 7.647305 -0.687206
v 5.477641 7.435122 -0.876828
v 4.337969 6.408524 -0.454342
v 5.721868 7.222939 -1.066450
v 5.966095 7.010757 -1.256072
vt 0.617832 0.321176
vt 0.617832 0.368052
vt 0.570956 0.368052
vt 0.492832 0.446176
vt 0.492832 0.493052
vt 0.445956 0.493052
vt 0.492832 0.321176
vt 0.492832 0.368052
vt 0.445956 0.368052
vt 0.680332 0.383676
vt 0.680332 0.430552
vt 0.633456 0.430552
vt 0.617832 0.383676
vt 0.617832 0.430552
vt 0.570956 0.430552
vt 0.617832 0.321176
vt 0.570956 0.321176
vt 0.570956 0.321176
vt 0.492832 0.383676
vt 0.492832 0.430552
vt 0.445956 0.430552
vt 0.617832 0.368052
vt 0.617832 0.321176
vt 0.555332 0.446176
vt 0.555332 0.493052
vt 0.508456 0.493052
vt 0.555332 0.321176
vt 0.508456 0.321176
vt 0.508456 0.321176
vt 0.430332 0.383676
vt 0.430332 0.430552
vt 0.383456 0.430552
vt 0.680332 0.446176
vt 0.680332 0.493052
vt 0.633456 0.493052
vt 0.617832 0.446176
vt 0.617832 0.493052
vt 0.570956 0.493052
vt 0.445956 0.321176
vt 0.445956 0.368052
vt 0.445956 0.368052
vt 0.492832 0.446176
vt 0.492832 0.493052
vt 0.445956 0.493052
vt 0.430332 0.446176
vt 0.430332 0.493052
vt 0.383456 0.493052
vt 0.617832 0.508676
vt 0.617832 0.555552
vt 0.570956 0.555552
vt 0.492832 0.321176
vt 0.445956 0.321176
vt 0.492832 0.508676
vt 0.492832 0.555552
vt 0.445956 0.555552
vt 0.617832 0.446176
vt 0.617832 0.493052
vt 0.570956 0.493052
vt 0.680332 0.383676
vt 0.633456 0.383676
vt 0.633456 0.383676
vt 0.680332 0.430552
vt 0.680332 0.383676
vt 0.492832 0.508676
vt 0.445956 0.508676
vt 0.445956 0.555552
vt 0.555332 0.508676
vt 0.508456 0.508676
vt 0.508456 0.555552
vt 0.680332 0.446176
vt 0.680332 0.493052
vt 0.633456 0.493052
vt 0.617832 0.508676
vt 0.570956 0.508676
vt 0.570956 0.555552
vt 0.430332 0.446176
vt 0.383456 0.446176
vt 0.383456 0.493052
vt 0.492832 0.446176
vt 0.445956 0.446176
vt 0.445956 0.493052
vt 0.430332 0.383676
vt 0.430332 0.430552
vt 0.383456 0.430552
vt 0.555332 0.446176
vt 0.508456 0.446176
vt 0.508456 0.493052
vt 0.617832 0.446176
vt 0.570956 0.446176
vt 0.570956 0.493052
vt 0.680332 0.446176
vt 0.633456 0.446176
vt 0.633456 0.493052
vt 0.430332 0.446176
vt 0.430332 0.493052
vt 0.383456 0.493052
vt 0.617832 0.508676
vt 0.617832 0.555552
vt 0.570956 0.555552
vt 0.555332 0.508676
vt 0.555332 0.555552
vt 0.508456 0.555552
vt 0.492832 0.383676
vt 0.492832 0.430552
vt 0.445956 0.430552
vt 0.430332 0.383676
vt 0.383456 0.383676
vt 0.383456 0.430552
vt 0.617832 0.321176
vt 0.570956 0.321176
vt 0.570956 0.368052
vt 0.492832 0.383676
vt 0.445956 0.383676
vt 0.445956 0.430552
vt 0.492832 0.321176
vt 0.445956 0.321176
vt 0.445956 0.368052
vt 0.680332 0.383676
vt 0.633456 0.383676
vt 0.633456 0.430552
vt 0.617832 0.383676
vt 0.570956 0.383676
vt 0.570956 0.430552
vt 0.555332 0.383676
vt 0.555332 0.430552
vt 0.508456 0.430552
vt 0.492832 0.383676
vt 0.445956 0.383676
vt 0.445956 0.430552
vt 0.617832 0.383676
vt 0.617832 0.430552
vt 0.570956 0.430552
vt 0.555332 0.383676
vt 0.508456 0.383676
vt 0.508456 0.430552
vt 0.617832 0.383676
vt 0.570956 0.383676
vt 0.570956 0.430552
vt 0.430332 0.383676
vt 0.383456 0.383676
vt 0.383456 0.430552
vt 0.680332 0.446176
vt 0.633456 0.446176
vt 0.633456 0.493052
vt 0.617832 0.446176
vt 0.570956 0.446176
vt 0.570956 0.493052
vt 0.633456 0.430552
vt 0.492832 0.446176
vt 0.445956 0.446176
vt 0.445956 0.493052
vt 0.430332 0.446176
vt 0.383456 0.446176
vt 0.383456 0.493052
vt 0.617832 0.508676
vt 0.570956 0.508676
vt 0.570956 0.555552
vt 0.445956 0.555552
vt 0.492832 0.555552
vt 0.492832 0.555552
vt 0.492832 0.508676
vt 0.445956 0.508676
vt 0.445956 0.555552
vt 0.492832 0.555552
vt 0.445956 0.508676
vt 0.633456 0.430552
vt 0.445956 0.508676
vt 0.617832 0.555552
vt 0.492832 0.321176
vt 0.430332 0.493052
vt 0.555332 0.321176
vt 0.508456 0.368052
vt 0.383456 0.446176
vt 0.680332 0.493052
vt 0.617832 0.555552
vt 0.492832 0.368052
vt 0.555332 0.368052
vt 0.508456 0.368052
vt 0.570956 0.368052
vt 0.383456 0.383676
vt 0.570956 0.321176
vt 0.570956 0.368052
vt 0.445956 0.321176
vt 0.633456 0.383676
vt 0.430332 0.493052
vt 0.383456 0.446176
vt 0.680332 0.493052
vt 0.492832 0.508676
vt 0.383456 0.383676
vt 0.445956 0.446176
vt 0.570956 0.383676
vt 0.445956 0.383676
vt 0.617832 0.368052
vt 0.508456 0.446176
vt 0.633456 0.446176
vt 0.570956 0.446176
vt 0.445956 0.446176
vt 0.570956 0.508676
vt 0.570956 0.446176
vt 0.680332 0.430552
vt 0.555332 0.555552
vt 0.633456 0.446176
vt 0.492832 0.493052
vt 0.555332 0.493052
vt 0.617832 0.493052
vt 0.570956 0.508676
vt 0.508456 0.508676
vt 0.445956 0.383676
vt 0.430332 0.430552
vt 0.617832 0.368052
vt 0.492832 0.430552
vt 0.492832 0.368052
vt 0.680332 0.430552
vt 0.617832 0.430552
vt 0.508456 0.383676
vt 0.492832 0.430552
vt 0.570956 0.383676
vt 0.555332 0.430552
vt 0.617832 0.430552
vt 0.430332 0.430552
vt 0.617832 0.493052
vt 0.492832 0.493052
vt 0.492832 0.368052
vt 0.555332 0.368052
vn 0.6513 -0.5658 -0.5057
vn -0.6162 -0.0054 -0.7876
vn 0.4429 0.8245 -0.3521
vn -0.6513 0.5658 0.5057
vn 0.6162 0.0054 0.7876
vn -0.4429 -0.8245 0.3521
usemtl None
s 1
f 1/1/1 6/2/1 7/3/1
f 43/4/2 9/5/2 8/6/2
f 3/7/1 12/8/1 13/9/1
f 5/10/1 15/11/1 16/12/1
f 6/13/1 16/14/1 17/15/1
f 90/16/3 89/17/3 103/18/3
f 12/19/1 18/20/1 19/21/1
f 62/22/1 90/16/1 104/23/1
f 47/24/2 25/25/2 9/26/2
f 89/27/3 75/28/3 101/29/3
f 13/30/1 19/31/1 20/32/1
f 15/33/1 21/34/1 22/35/1
f 16/36/1 22/37/1 23/38/1
f 73/39/4 56/40/4 63/41/4
f 18/42/1 24/43/1 29/44/1
f 19/45/1 29/46/1 30/47/1
f 22/48/1 31/49/1 32/50/1
f 75/51/3 73/39/3 100/52/3
f 24/53/1 33/54/1 34/55/1
f 48/56/2 26/57/2 25/58/2
f 72/59/3 62/60/3 91/61/3
f 54/62/1 72/59/1 92/63/1
f 40/64/5 37/65/5 10/66/5
f 41/67/5 40/68/5 11/69/5
f 54/70/2 28/71/2 26/72/2
f 42/73/5 41/74/5 27/75/5
f 46/76/5 45/77/5 36/78/5
f 49/79/5 46/80/5 37/81/5
f 56/82/2 39/83/2 38/84/2
f 50/85/5 49/86/5 40/87/5
f 51/88/5 50/89/5 41/90/5
f 52/91/5 51/92/5 42/93/5
f 39/94/2 8/95/2 58/96/2
f 26/97/2 59/98/2 60/99/2
f 25/100/2 60/101/2 99/102/2
f 57/103/2 43/104/2 39/105/2
f 63/106/5 53/107/5 45/108/5
f 65/109/4 66/110/4 71/111/4
f 64/112/5 63/113/5 46/114/5
f 67/115/4 68/116/4 77/117/4
f 69/118/4 70/119/4 80/120/4
f 70/121/4 71/122/4 81/123/4
f 61/124/2 47/125/2 43/126/2
f 76/127/4 77/128/4 83/129/4
f 62/130/2 48/131/2 47/132/2
f 74/133/5 64/134/5 49/135/5
f 91/136/5 74/137/5 50/138/5
f 77/139/4 78/140/4 84/141/4
f 79/142/4 80/143/4 86/144/4
f 80/145/4 81/146/4 87/147/4
f 92/63/5 91/61/5 51/148/5
f 82/149/4 83/150/4 93/151/4
f 83/152/4 84/153/4 94/154/4
f 86/155/4 87/156/4 96/157/4
f 102/158/6 99/159/6 11/160/6
f 88/161/4 93/162/4 98/163/4
f 34/55/6 33/54/6 97/164/6
f 8/165/4 102/158/4 10/66/4
f 72/59/2 54/62/2 48/166/2
f 29/167/2 34/55/2 98/163/2
f 60/99/6 59/98/6 35/168/6
f 101/169/5 100/52/5 63/41/5
f 59/98/1 26/97/1 42/73/1
f 58/96/6 8/95/6 37/170/6
f 103/171/5 101/29/5 64/172/5
f 38/173/4 58/96/4 36/78/4
f 26/72/6 28/71/6 44/174/6
f 28/71/1 54/70/1 52/91/1
f 32/50/6 31/49/6 95/175/6
f 75/51/2 57/176/2 56/40/2
f 89/27/2 61/177/2 57/178/2
f 90/16/2 62/22/2 61/179/2
f 31/49/5 22/48/5 86/155/5
f 56/82/3 55/180/3 53/107/3
f 1/1/3 2/181/3 66/110/3
f 6/2/5 1/1/5 65/109/5
f 104/23/5 103/18/5 74/182/5
f 4/183/2 13/9/2 77/117/2
f 3/7/3 4/183/3 68/116/3
f 5/10/3 6/184/3 70/119/3
f 15/11/5 5/10/5 69/118/5
f 30/47/6 29/46/6 93/185/6
f 20/186/2 30/47/2 94/154/2
f 22/35/6 21/34/6 85/187/6
f 55/180/4 38/84/4 45/108/4
f 21/34/5 15/33/5 79/142/5
f 9/188/2 99/159/2 102/158/2
f 13/30/3 14/189/3 78/140/3
f 14/189/2 20/32/2 84/141/2
f 2/181/1 1/1/1 7/3/1
f 39/190/2 43/4/2 8/6/2
f 4/183/1 3/7/1 13/9/1
f 6/184/1 5/10/1 16/12/1
f 7/191/1 6/13/1 17/15/1
f 104/23/3 90/16/3 103/18/3
f 13/192/1 12/19/1 19/21/1
f 91/193/1 62/22/1 104/23/1
f 43/194/2 47/24/2 9/26/2
f 103/171/3 89/27/3 101/29/3
f 14/189/1 13/30/1 20/32/1
f 16/195/1 15/33/1 22/35/1
f 17/196/1 16/36/1 23/38/1
f 100/52/4 73/39/4 63/41/4
f 19/197/1 18/42/1 29/44/1
f 20/186/1 19/45/1 30/47/1
f 23/198/1 22/48/1 32/50/1
f 101/169/3 75/51/3 100/52/3
f 29/167/1 24/53/1 34/55/1
f 47/199/2 48/56/2 25/58/2
f 92/63/3 72/59/3 91/61/3
f 52/200/1 54/62/1 92/63/1
f 11/160/5 40/64/5 10/66/5
f 27/201/5 41/67/5 11/69/5
f 48/202/2 54/70/2 26/72/2
f 35/168/5 42/73/5 27/75/5
f 37/170/5 46/76/5 36/78/5
f 40/203/5 49/79/5 37/81/5
f 55/180/2 56/82/2 38/84/2
f 41/204/5 50/85/5 40/87/5
f 42/205/5 51/88/5 41/90/5
f 44/174/5 52/91/5 42/93/5
f 38/173/2 39/94/2 58/96/2
f 25/206/2 26/97/2 60/99/2
f 9/207/2 25/100/2 99/102/2
f 56/208/2 57/103/2 39/105/2
f 46/209/5 63/106/5 45/108/5
f 70/210/4 65/109/4 71/111/4
f 49/211/5 64/112/5 46/114/5
f 76/212/4 67/115/4 77/117/4
f 79/213/4 69/118/4 80/120/4
f 80/214/4 70/121/4 81/123/4
f 57/215/2 61/124/2 43/126/2
f 82/216/4 76/127/4 83/129/4
f 61/217/2 62/130/2 47/132/2
f 50/218/5 74/133/5 49/135/5
f 51/219/5 91/136/5 50/138/5
f 83/220/4 77/139/4 84/141/4
f 85/187/4 79/142/4 86/144/4
f 86/221/4 80/145/4 87/147/4
f 52/200/5 92/63/5 51/148/5
f 88/222/4 82/149/4 93/151/4
f 93/185/4 83/152/4 94/154/4
f 95/175/4 86/155/4 96/157/4
f 10/66/6 102/158/6 11/160/6
f 97/164/4 88/161/4 98/163/4
f 98/163/6 34/55/6 97/164/6
f 37/65/4 8/165/4 10/66/4
f 62/60/2 72/59/2 48/166/2
f 93/162/2 29/167/2 98/163/2
f 27/75/6 60/99/6 35/168/6
f 64/223/5 101/169/5 63/41/5
f 35/168/1 59/98/1 42/73/1
f 36/78/6 58/96/6 37/170/6
f 74/224/5 103/171/5 64/172/5
f 45/77/4 38/173/4 36/78/4
f 42/93/6 26/72/6 44/174/6
f 44/174/1 28/71/1 52/91/1
f 96/157/6 32/50/6 95/175/6
f 73/39/2 75/51/2 56/40/2
f 75/28/2 89/27/2 57/178/2
f 89/17/2 90/16/2 61/179/2
f 95/175/5 31/49/5 86/155/5
f 63/106/3 56/82/3 53/107/3
f 65/109/3 1/1/3 66/110/3
f 70/210/5 6/2/5 65/109/5
f 91/193/5 104/23/5 74/182/5
f 68/116/2 4/183/2 77/117/2
f 67/115/3 3/7/3 68/116/3
f 69/118/3 5/10/3 70/119/3
f 79/213/5 15/11/5 69/118/5
f 94/154/6 30/47/6 93/185/6
f 84/153/2 20/186/2 94/154/2
f 86/144/6 22/35/6 85/187/6
f 53/107/4 55/180/4 45/108/4
f 85/187/5 21/34/5 79/142/5
f 8/165/2 9/188/2 102/158/2
f 77/139/3 13/30/3 78/140/3
f 78/140/2 14/189/2 84/141/2
