# Blender v2.79 (sub 0) OBJ File: 'fire_bow.blend'
# www.blender.org
o bow_string_2
v 0.000000 1.112500 -0.000000
v -0.009600 1.045244 0.002955
v 0.009600 1.045244 0.002955
v 0.019200 1.045244 0.014040
v 0.009600 1.045244 0.025125
v -0.009600 1.045244 0.025125
v -0.019200 1.045244 0.014040
v -0.009600 0.967728 0.020752
v 0.009600 0.967728 0.020752
v 0.019200 0.967728 0.031837
v 0.009600 0.967728 0.042922
v -0.009600 0.967728 0.042922
v -0.019200 0.967728 0.031837
v -0.009600 0.881642 0.046915
v 0.009600 0.881642 0.046915
v 0.019200 0.881642 0.058000
v 0.009600 0.881642 0.069085
v -0.009600 0.881642 0.069085
v -0.019200 0.881642 0.058000
v -0.009600 0.788674 0.080758
v 0.009600 0.788674 0.080758
v 0.019200 0.788674 0.091843
v 0.009600 0.788674 0.102928
v -0.009600 0.788674 0.102928
v -0.019200 0.788674 0.091843
v -0.009600 0.690516 0.120386
v 0.009600 0.690516 0.120386
v 0.019200 0.690516 0.131471
v 0.009600 0.690516 0.142556
v -0.009600 0.690516 0.142556
v -0.019200 0.690516 0.131471
v -0.009600 0.588856 0.162896
v 0.009600 0.588856 0.162896
v 0.019200 0.588856 0.173981
v 0.009600 0.588856 0.185066
v -0.009600 0.588856 0.185066
v -0.019200 0.588856 0.173981
v -0.009600 0.485385 0.204724
v 0.009600 0.485385 0.204724
v 0.019200 0.485385 0.215809
v 0.009600 0.485385 0.226894
v -0.009600 0.485385 0.226894
v -0.019200 0.485385 0.215809
v -0.009600 0.381793 0.242086
v 0.009600 0.381793 0.242086
v 0.019200 0.381793 0.253171
v 0.009600 0.381793 0.264256
v -0.009600 0.381793 0.264256
v -0.019200 0.381793 0.253171
v -0.009600 0.279768 0.271470
v 0.009600 0.279768 0.271470
v 0.019200 0.279768 0.282555
v 0.009600 0.279768 0.293640
v -0.009600 0.279768 0.293640
v -0.019200 0.279768 0.282555
v -0.009600 0.181001 0.290119
v 0.009600 0.181001 0.290119
v 0.019200 0.181001 0.301204
v 0.009600 0.181001 0.312290
v -0.009600 0.181001 0.312290
v -0.019200 0.181001 0.301204
v -0.009600 0.087182 0.296449
v 0.009600 0.087182 0.296449
v 0.019200 0.087182 0.307534
v 0.009600 0.087182 0.318619
v -0.009600 0.087182 0.318619
v -0.019200 0.087182 0.307534
v -0.009600 -0.000000 0.296449
v 0.009600 -0.000000 0.296449
v 0.019200 -0.000000 0.307534
v 0.009600 0.000000 0.318619
v -0.009600 0.000000 0.318619
v -0.019200 -0.000000 0.307534
v -0.009600 -0.086943 0.290989
v 0.009600 -0.086943 0.290989
v 0.019200 -0.086943 0.302074
v 0.009600 -0.086943 0.313159
v -0.009600 -0.086943 0.313159
v -0.019200 -0.086943 0.302074
v -0.009600 -0.180133 0.274409
v 0.009600 -0.180133 0.274409
v 0.019200 -0.180133 0.285494
v 0.009600 -0.180133 0.296579
v -0.009600 -0.180133 0.296579
v -0.019200 -0.180133 0.285494
v -0.009600 -0.278010 0.247447
v 0.009600 -0.278010 0.247447
v 0.019200 -0.278010 0.258532
v 0.009600 -0.278010 0.269617
v -0.009600 -0.278010 0.269617
v -0.019200 -0.278010 0.258532
v -0.009600 -0.379015 0.212077
v 0.009600 -0.379015 0.212077
v 0.019200 -0.379015 0.223162
v 0.009600 -0.379015 0.234247
v -0.009600 -0.379015 0.234247
v -0.019200 -0.379015 0.223162
v -0.009600 -0.481587 0.171224
v 0.009600 -0.481587 0.171224
v 0.019200 -0.481587 0.182309
v 0.009600 -0.481587 0.193394
v -0.009600 -0.481587 0.193394
v -0.019200 -0.481587 0.182309
v -0.009600 -0.584169 0.128371
v 0.009600 -0.584169 0.128371
v 0.019200 -0.584169 0.139456
v 0.009600 -0.584169 0.150542
v -0.009600 -0.584169 0.150542
v -0.019200 -0.584169 0.139456
v -0.009600 -0.685199 0.087126
v 0.009600 -0.685199 0.087126
v 0.019200 -0.685199 0.098212
v 0.009600 -0.685199 0.109297
v -0.009600 -0.685199 0.109297
v -0.019200 -0.685199 0.098212
v -0.009600 -0.783118 0.050775
v 0.009600 -0.783118 0.050775
v 0.019200 -0.783118 0.061860
v 0.009600 -0.783118 0.072945
v -0.009600 -0.783118 0.072945
v -0.019200 -0.783118 0.061860
v -0.009600 -0.876368 0.021879
v 0.009600 -0.876368 0.021879
v 0.019200 -0.876368 0.032964
v 0.009600 -0.876368 0.044050
v -0.009600 -0.876368 0.044050
v -0.019200 -0.876368 0.032964
v -0.009600 -0.963387 0.001967
v 0.009600 -0.963387 0.001967
v 0.019200 -0.963387 0.013052
v 0.009600 -0.963387 0.024137
v -0.009600 -0.963387 0.024137
v -0.019200 -0.963387 0.013052
v -0.009600 -1.042618 -0.008662
v 0.009600 -1.042618 -0.008662
v 0.019200 -1.042618 0.002423
v 0.009600 -1.042618 0.013508
v -0.009600 -1.042618 0.013508
v -0.019200 -1.042618 0.002423
v 0.000000 -1.112500 -0.000000
vt 0.057711 0.985582
vt 0.048030 0.926849
vt 0.057711 0.926849
vt 0.048030 0.926849
vt 0.057711 0.926849
vt 0.067391 0.926849
vt 0.067391 0.926849
vt 0.048030 0.859155
vt 0.048030 0.859155
vt 0.057711 0.859155
vt 0.067391 0.859155
vt 0.057711 0.859155
vt 0.048030 0.783978
vt 0.048030 0.783978
vt 0.067391 0.859155
vt 0.057711 0.783978
vt 0.067391 0.783978
vt 0.057711 0.783978
vt 0.048030 0.702791
vt 0.048030 0.702791
vt 0.067391 0.783978
vt 0.057711 0.702791
vt 0.067391 0.702791
vt 0.057711 0.702791
vt 0.048030 0.617072
vt 0.048030 0.617072
vt 0.067391 0.702791
vt 0.057711 0.617072
vt 0.067391 0.617072
vt 0.057711 0.617072
vt 0.048030 0.528294
vt 0.048030 0.528294
vt 0.067391 0.617072
vt 0.057711 0.528294
vt 0.067391 0.528294
vt 0.057711 0.528294
vt 0.048030 0.437935
vt 0.048030 0.437935
vt 0.067391 0.528294
vt 0.057711 0.437935
vt 0.067391 0.437935
vt 0.057711 0.437935
vt 0.048030 0.347470
vt 0.048030 0.347470
vt 0.067391 0.437935
vt 0.057711 0.347470
vt 0.067391 0.347470
vt 0.057711 0.347470
vt 0.048030 0.258374
vt 0.048030 0.258374
vt 0.067391 0.347470
vt 0.057711 0.258374
vt 0.067391 0.258374
vt 0.057711 0.258374
vt 0.048030 0.172123
vt 0.048030 0.172123
vt 0.067391 0.258374
vt 0.057711 0.172123
vt 0.067391 0.172123
vt 0.057711 0.172123
vt 0.048030 0.090192
vt 0.048030 0.090192
vt 0.067391 0.172123
vt 0.057711 0.090192
vt 0.067391 0.090192
vt 0.057711 0.090192
vt 0.048030 0.014058
vt 0.048030 0.014058
vt 0.057711 0.014058
vt 0.067391 0.014058
vt 0.067391 0.090192
vt 0.067391 0.014058
vt 0.057711 0.014058
vt 0.048276 0.016608
vt 0.057957 0.092533
vt 0.057957 0.016608
vt 0.048276 0.092533
vt 0.048276 0.016608
vt 0.057957 0.092533
vt 0.057957 0.016608
vt 0.067637 0.092533
vt 0.067637 0.016608
vt 0.067637 0.092533
vt 0.067637 0.016608
vt 0.048276 0.092533
vt 0.057957 0.173914
vt 0.048276 0.173914
vt 0.057957 0.173914
vt 0.067637 0.173914
vt 0.067637 0.173914
vt 0.048276 0.173914
vt 0.057957 0.259388
vt 0.048276 0.259388
vt 0.057957 0.259388
vt 0.067637 0.259388
vt 0.067637 0.259388
vt 0.048276 0.259388
vt 0.057957 0.347594
vt 0.048276 0.347594
vt 0.057957 0.347594
vt 0.067637 0.347594
vt 0.067637 0.347594
vt 0.048276 0.347594
vt 0.057957 0.437168
vt 0.048276 0.437168
vt 0.057957 0.437168
vt 0.067637 0.437168
vt 0.067637 0.437168
vt 0.048276 0.437168
vt 0.057957 0.526750
vt 0.048276 0.526750
vt 0.057957 0.526750
vt 0.067637 0.526750
vt 0.067637 0.526750
vt 0.048276 0.526750
vt 0.057957 0.614978
vt 0.048276 0.614978
vt 0.057957 0.614978
vt 0.067637 0.614978
vt 0.067637 0.614978
vt 0.048276 0.614978
vt 0.057957 0.700489
vt 0.048276 0.700489
vt 0.057957 0.700489
vt 0.067637 0.700489
vt 0.067637 0.700489
vt 0.048276 0.700489
vt 0.057957 0.781922
vt 0.048276 0.781922
vt 0.057957 0.781922
vt 0.067637 0.781922
vt 0.067637 0.781922
vt 0.048276 0.781922
vt 0.057957 0.857915
vt 0.048276 0.857915
vt 0.057957 0.857915
vt 0.067637 0.857915
vt 0.067637 0.857915
vt 0.048276 0.857915
vt 0.057957 0.927105
vt 0.048276 0.927105
vt 0.057957 0.927105
vt 0.067637 0.927105
vt 0.067637 0.927105
vt 0.048276 0.927105
vt 0.057957 0.988132
vn 0.0000 0.9800 -0.1988
vn -0.4219 -0.0886 -0.9022
vn -0.9918 0.1268 -0.0172
vn 0.4219 -0.0886 -0.9022
vn 0.9918 0.1268 -0.0172
vn 0.4094 0.2813 0.8679
vn -0.4094 0.2813 0.8679
vn -0.4047 -0.2339 -0.8840
vn 0.4047 -0.2339 -0.8840
vn 0.9998 -0.0077 -0.0138
vn -0.4109 0.2362 0.8805
vn -0.9998 -0.0077 -0.0138
vn -0.4013 -0.2885 -0.8693
vn 0.4013 -0.2885 -0.8693
vn 0.4109 0.2362 0.8805
vn 0.9999 -0.0075 -0.0104
vn -0.4058 0.2908 0.8664
vn -0.9999 -0.0075 -0.0104
vn -0.3986 -0.3275 -0.8566
vn 0.3986 -0.3275 -0.8566
vn 0.4058 0.2908 0.8664
vn 0.9999 -0.0055 -0.0065
vn -0.4013 0.3292 0.8547
vn -0.9999 -0.0055 -0.0065
vn -0.3974 -0.3484 -0.8489
vn 0.3974 -0.3484 -0.8489
vn 0.4013 0.3292 0.8547
vn 1.0000 -0.0021 -0.0023
vn -0.3983 0.3490 0.8482
vn -1.0000 -0.0021 -0.0023
vn -0.3982 -0.3492 -0.8482
vn 0.3982 -0.3492 -0.8482
vn 0.3983 0.3490 0.8482
vn 1.0000 0.0020 0.0022
vn -0.3974 0.3486 0.8488
vn -1.0000 0.0020 0.0022
vn -0.4015 -0.3282 -0.8550
vn 0.4015 -0.3282 -0.8550
vn 0.3974 0.3486 0.8488
vn 0.9999 0.0060 0.0072
vn -0.3986 0.3264 0.8571
vn -0.9999 0.0060 0.0072
vn -0.4070 -0.2833 -0.8684
vn 0.4070 -0.2833 -0.8684
vn 0.3986 0.3264 0.8571
vn 0.9999 0.0088 0.0128
vn -0.4015 0.2806 0.8718
vn -0.9999 0.0088 0.0128
vn -0.4136 -0.2126 -0.8853
vn 0.4136 -0.2126 -0.8853
vn 0.4015 0.2806 0.8718
vn 0.9998 0.0093 0.0188
vn -0.4051 0.2098 0.8899
vn -0.9998 0.0093 0.0188
vn -0.4196 -0.1163 -0.9002
vn 0.4196 -0.1163 -0.9002
vn 0.4051 0.2098 0.8899
vn 0.9997 0.0063 0.0246
vn -0.4080 0.1144 0.9058
vn -0.9997 0.0063 0.0246
vn -0.4188 -0.0308 -0.9075
vn 0.4188 -0.0308 -0.9075
vn 0.4080 0.1144 0.9058
vn 0.9999 0.0009 0.0140
vn -0.4121 0.0305 0.9106
vn -0.9999 0.0009 0.0140
vn -0.4186 0.0286 -0.9077
vn 0.4186 0.0286 -0.9077
vn 0.9999 -0.0008 0.0130
vn 0.4123 -0.0284 0.9106
vn 0.4121 0.0305 0.9106
vn -0.4123 -0.0284 0.9106
vn -0.9999 -0.0008 0.0130
vn -0.9997 -0.0056 0.0234
vn 0.4195 0.1093 -0.9011
vn 0.9997 -0.0056 0.0234
vn 0.4085 -0.1076 0.9064
vn -0.4085 -0.1076 0.9064
vn -0.4195 0.1093 -0.9011
vn -0.9998 -0.0087 0.0187
vn 0.4142 0.2026 -0.8873
vn 0.9998 -0.0087 0.0187
vn 0.4057 -0.2000 0.8918
vn -0.4057 -0.2000 0.8918
vn -0.4142 0.2026 -0.8873
vn -0.9998 -0.0088 0.0133
vn 0.4079 0.2741 -0.8709
vn 0.9998 -0.0088 0.0133
vn 0.4021 -0.2713 0.8744
vn -0.4021 -0.2713 0.8744
vn -0.4079 0.2741 -0.8709
vn -0.9999 -0.0065 0.0080
vn 0.4024 0.3220 -0.8570
vn 0.9999 -0.0065 0.0080
vn 0.3990 -0.3200 0.8593
vn -0.3990 -0.3200 0.8593
vn -0.4024 0.3220 -0.8570
vn -1.0000 -0.0028 0.0031
vn 0.3987 0.3470 -0.8489
vn 1.0000 -0.0028 0.0031
vn 0.3974 -0.3461 0.8498
vn -0.3974 -0.3461 0.8498
vn -0.3987 0.3470 -0.8489
vn -1.0000 0.0014 -0.0015
vn 0.3974 0.3500 -0.8483
vn 1.0000 0.0014 -0.0015
vn 0.3979 -0.3504 0.8478
vn -0.3979 -0.3504 0.8478
vn -0.3974 0.3500 -0.8483
vn -0.9999 0.0052 -0.0060
vn 0.3982 0.3320 -0.8550
vn 0.9999 0.0052 -0.0060
vn 0.4007 -0.3336 0.8533
vn -0.4007 -0.3336 0.8533
vn -0.3982 0.3320 -0.8550
vn -0.9999 0.0078 -0.0106
vn 0.4009 0.2936 -0.8678
vn 0.9999 0.0078 -0.0106
vn 0.4054 -0.2960 0.8649
vn -0.4054 -0.2960 0.8649
vn -0.4009 0.2936 -0.8678
vn -0.9998 0.0084 -0.0150
vn 0.4043 0.2359 -0.8837
vn 0.9998 0.0084 -0.0150
vn 0.4110 -0.2385 0.8798
vn -0.4110 -0.2385 0.8798
vn -0.4043 0.2359 -0.8837
vn -0.9998 0.0069 -0.0187
vn 0.4076 0.1614 -0.8988
vn 0.9998 0.0069 -0.0187
vn 0.4163 -0.1635 0.8944
vn -0.4163 -0.1635 0.8944
vn -0.4076 0.1614 -0.8988
vn -0.9921 -0.1233 -0.0238
vn 0.4171 -0.0228 -0.9086
vn 0.9921 -0.1233 -0.0238
vn 0.4210 -0.1716 0.8906
vn -0.4211 -0.1716 0.8906
vn -0.4171 -0.0228 -0.9086
vn 0.0000 -0.9994 -0.0337
s 1
f 1/1/1 2/2/2 7/3/3
f 1/1/1 3/4/4 2/2/2
f 1/1/1 4/5/5 3/4/4
f 1/1/1 5/6/6 4/5/5
f 1/1/1 6/7/7 5/6/6
f 1/1/1 7/3/3 6/7/7
f 8/8/8 7/3/3 2/2/2
f 9/9/9 2/2/2 3/4/4
f 4/5/5 9/9/9 3/4/4
f 5/6/6 10/10/10 4/5/5
f 12/11/11 5/6/6 6/7/7
f 13/12/12 6/7/7 7/3/3
f 14/13/13 13/12/12 8/8/8
f 15/14/14 8/8/8 9/9/9
f 10/10/10 15/14/14 9/9/9
f 11/15/15 16/16/16 10/10/10
f 18/17/17 11/15/15 12/11/11
f 19/18/18 12/11/11 13/12/12
f 20/19/19 19/18/18 14/13/13
f 21/20/20 14/13/13 15/14/14
f 16/16/16 21/20/20 15/14/14
f 17/21/21 22/22/22 16/16/16
f 24/23/23 17/21/21 18/17/17
f 25/24/24 18/17/17 19/18/18
f 26/25/25 25/24/24 20/19/19
f 27/26/26 20/19/19 21/20/20
f 22/22/22 27/26/26 21/20/20
f 23/27/27 28/28/28 22/22/22
f 30/29/29 23/27/27 24/23/23
f 31/30/30 24/23/23 25/24/24
f 32/31/31 31/30/30 26/25/25
f 33/32/32 26/25/25 27/26/26
f 28/28/28 33/32/32 27/26/26
f 29/33/33 34/34/34 28/28/28
f 36/35/35 29/33/33 30/29/29
f 37/36/36 30/29/29 31/30/30
f 38/37/37 37/36/36 32/31/31
f 39/38/38 32/31/31 33/32/32
f 34/34/34 39/38/38 33/32/32
f 35/39/39 40/40/40 34/34/34
f 42/41/41 35/39/39 36/35/35
f 43/42/42 36/35/35 37/36/36
f 44/43/43 43/42/42 38/37/37
f 45/44/44 38/37/37 39/38/38
f 40/40/40 45/44/44 39/38/38
f 41/45/45 46/46/46 40/40/40
f 48/47/47 41/45/45 42/41/41
f 49/48/48 42/41/41 43/42/42
f 50/49/49 49/48/48 44/43/43
f 51/50/50 44/43/43 45/44/44
f 46/46/46 51/50/50 45/44/44
f 47/51/51 52/52/52 46/46/46
f 54/53/53 47/51/51 48/47/47
f 55/54/54 48/47/47 49/48/48
f 56/55/55 55/54/54 50/49/49
f 57/56/56 50/49/49 51/50/50
f 52/52/52 57/56/56 51/50/50
f 53/57/57 58/58/58 52/52/52
f 60/59/59 53/57/57 54/53/53
f 61/60/60 54/53/53 55/54/54
f 62/61/61 61/60/60 56/55/55
f 63/62/62 56/55/55 57/56/56
f 58/58/58 63/62/62 57/56/56
f 59/63/63 64/64/64 58/58/58
f 66/65/65 59/63/63 60/59/59
f 67/66/66 60/59/59 61/60/60
f 68/67/67 67/66/66 62/61/61
f 69/68/68 62/61/61 63/62/62
f 70/69/69 63/62/62 64/64/64
f 71/70/70 64/64/64 65/71/71
f 72/72/72 65/71/71 66/65/65
f 73/73/73 66/65/65 67/66/66
f 68/74/67 79/75/74 73/76/73
f 75/77/75 68/74/67 69/78/68
f 76/79/76 69/78/68 70/80/69
f 77/81/77 70/80/69 71/82/70
f 78/83/78 71/82/70 72/84/72
f 73/76/73 78/83/78 72/84/72
f 74/85/79 85/86/80 79/75/74
f 81/87/81 74/85/79 75/77/75
f 82/88/82 75/77/75 76/79/76
f 83/89/83 76/79/76 77/81/77
f 84/90/84 77/81/77 78/83/78
f 79/75/74 84/90/84 78/83/78
f 80/91/85 91/92/86 85/86/80
f 87/93/87 80/91/85 81/87/81
f 88/94/88 81/87/81 82/88/82
f 89/95/89 82/88/82 83/89/83
f 90/96/90 83/89/83 84/90/84
f 85/86/80 90/96/90 84/90/84
f 86/97/91 97/98/92 91/92/86
f 93/99/93 86/97/91 87/93/87
f 94/100/94 87/93/87 88/94/88
f 95/101/95 88/94/88 89/95/89
f 96/102/96 89/95/89 90/96/90
f 91/92/86 96/102/96 90/96/90
f 92/103/97 103/104/98 97/98/92
f 99/105/99 92/103/97 93/99/93
f 100/106/100 93/99/93 94/100/94
f 101/107/101 94/100/94 95/101/95
f 102/108/102 95/101/95 96/102/96
f 97/98/92 102/108/102 96/102/96
f 98/109/103 109/110/104 103/104/98
f 105/111/105 98/109/103 99/105/99
f 106/112/106 99/105/99 100/106/100
f 107/113/107 100/106/100 101/107/101
f 108/114/108 101/107/101 102/108/102
f 103/104/98 108/114/108 102/108/102
f 104/115/109 115/116/110 109/110/104
f 111/117/111 104/115/109 105/111/105
f 112/118/112 105/111/105 106/112/106
f 113/119/113 106/112/106 107/113/107
f 114/120/114 107/113/107 108/114/108
f 109/110/104 114/120/114 108/114/108
f 110/121/115 121/122/116 115/116/110
f 117/123/117 110/121/115 111/117/111
f 118/124/118 111/117/111 112/118/112
f 119/125/119 112/118/112 113/119/113
f 120/126/120 113/119/113 114/120/114
f 115/116/110 120/126/120 114/120/114
f 116/127/121 127/128/122 121/122/116
f 123/129/123 116/127/121 117/123/117
f 124/130/124 117/123/117 118/124/118
f 125/131/125 118/124/118 119/125/119
f 126/132/126 119/125/119 120/126/120
f 121/122/116 126/132/126 120/126/120
f 122/133/127 133/134/128 127/128/122
f 129/135/129 122/133/127 123/129/123
f 130/136/130 123/129/123 124/130/124
f 131/137/131 124/130/124 125/131/125
f 132/138/132 125/131/125 126/132/126
f 127/128/122 132/138/132 126/132/126
f 128/139/133 139/140/134 133/134/128
f 135/141/135 128/139/133 129/135/129
f 136/142/136 129/135/129 130/136/130
f 137/143/137 130/136/130 131/137/131
f 138/144/138 131/137/131 132/138/132
f 133/134/128 138/144/138 132/138/132
f 134/145/139 140/146/140 139/140/134
f 135/141/135 140/146/140 134/145/139
f 136/142/136 140/146/140 135/141/135
f 137/143/137 140/146/140 136/142/136
f 138/144/138 140/146/140 137/143/137
f 139/140/134 140/146/140 138/144/138
f 8/8/8 13/12/12 7/3/3
f 9/9/9 8/8/8 2/2/2
f 4/5/5 10/10/10 9/9/9
f 5/6/6 11/15/15 10/10/10
f 12/11/11 11/15/15 5/6/6
f 13/12/12 12/11/11 6/7/7
f 14/13/13 19/18/18 13/12/12
f 15/14/14 14/13/13 8/8/8
f 10/10/10 16/16/16 15/14/14
f 11/15/15 17/21/21 16/16/16
f 18/17/17 17/21/21 11/15/15
f 19/18/18 18/17/17 12/11/11
f 20/19/19 25/24/24 19/18/18
f 21/20/20 20/19/19 14/13/13
f 16/16/16 22/22/22 21/20/20
f 17/21/21 23/27/27 22/22/22
f 24/23/23 23/27/27 17/21/21
f 25/24/24 24/23/23 18/17/17
f 26/25/25 31/30/30 25/24/24
f 27/26/26 26/25/25 20/19/19
f 22/22/22 28/28/28 27/26/26
f 23/27/27 29/33/33 28/28/28
f 30/29/29 29/33/33 23/27/27
f 31/30/30 30/29/29 24/23/23
f 32/31/31 37/36/36 31/30/30
f 33/32/32 32/31/31 26/25/25
f 28/28/28 34/34/34 33/32/32
f 29/33/33 35/39/39 34/34/34
f 36/35/35 35/39/39 29/33/33
f 37/36/36 36/35/35 30/29/29
f 38/37/37 43/42/42 37/36/36
f 39/38/38 38/37/37 32/31/31
f 34/34/34 40/40/40 39/38/38
f 35/39/39 41/45/45 40/40/40
f 42/41/41 41/45/45 35/39/39
f 43/42/42 42/41/41 36/35/35
f 44/43/43 49/48/48 43/42/42
f 45/44/44 44/43/43 38/37/37
f 40/40/40 46/46/46 45/44/44
f 41/45/45 47/51/51 46/46/46
f 48/47/47 47/51/51 41/45/45
f 49/48/48 48/47/47 42/41/41
f 50/49/49 55/54/54 49/48/48
f 51/50/50 50/49/49 44/43/43
f 46/46/46 52/52/52 51/50/50
f 47/51/51 53/57/57 52/52/52
f 54/53/53 53/57/57 47/51/51
f 55/54/54 54/53/53 48/47/47
f 56/55/55 61/60/60 55/54/54
f 57/56/56 56/55/55 50/49/49
f 52/52/52 58/58/58 57/56/56
f 53/57/57 59/63/63 58/58/58
f 60/59/59 59/63/63 53/57/57
f 61/60/60 60/59/59 54/53/53
f 62/61/61 67/66/66 61/60/60
f 63/62/62 62/61/61 56/55/55
f 58/58/58 64/64/64 63/62/62
f 59/63/63 65/71/71 64/64/64
f 66/65/65 65/71/71 59/63/63
f 67/66/66 66/65/65 60/59/59
f 68/67/67 73/73/73 67/66/66
f 69/68/68 68/67/67 62/61/61
f 70/69/69 69/68/68 63/62/62
f 71/70/70 70/69/69 64/64/64
f 72/72/72 71/70/70 65/71/71
f 73/73/73 72/72/72 66/65/65
f 68/74/67 74/85/79 79/75/74
f 75/77/75 74/85/79 68/74/67
f 76/79/76 75/77/75 69/78/68
f 77/81/77 76/79/76 70/80/69
f 78/83/78 77/81/77 71/82/70
f 73/76/73 79/75/74 78/83/78
f 74/85/79 80/91/85 85/86/80
f 81/87/81 80/91/85 74/85/79
f 82/88/82 81/87/81 75/77/75
f 83/89/83 82/88/82 76/79/76
f 84/90/84 83/89/83 77/81/77
f 79/75/74 85/86/80 84/90/84
f 80/91/85 86/97/91 91/92/86
f 87/93/87 86/97/91 80/91/85
f 88/94/88 87/93/87 81/87/81
f 89/95/89 88/94/88 82/88/82
f 90/96/90 89/95/89 83/89/83
f 85/86/80 91/92/86 90/96/90
f 86/97/91 92/103/97 97/98/92
f 93/99/93 92/103/97 86/97/91
f 94/100/94 93/99/93 87/93/87
f 95/101/95 94/100/94 88/94/88
f 96/102/96 95/101/95 89/95/89
f 91/92/86 97/98/92 96/102/96
f 92/103/97 98/109/103 103/104/98
f 99/105/99 98/109/103 92/103/97
f 100/106/100 99/105/99 93/99/93
f 101/107/101 100/106/100 94/100/94
f 102/108/102 101/107/101 95/101/95
f 97/98/92 103/104/98 102/108/102
f 98/109/103 104/115/109 109/110/104
f 105/111/105 104/115/109 98/109/103
f 106/112/106 105/111/105 99/105/99
f 107/113/107 106/112/106 100/106/100
f 108/114/108 107/113/107 101/107/101
f 103/104/98 109/110/104 108/114/108
f 104/115/109 110/121/115 115/116/110
f 111/117/111 110/121/115 104/115/109
f 112/118/112 111/117/111 105/111/105
f 113/119/113 112/118/112 106/112/106
f 114/120/114 113/119/113 107/113/107
f 109/110/104 115/116/110 114/120/114
f 110/121/115 116/127/121 121/122/116
f 117/123/117 116/127/121 110/121/115
f 118/124/118 117/123/117 111/117/111
f 119/125/119 118/124/118 112/118/112
f 120/126/120 119/125/119 113/119/113
f 115/116/110 121/122/116 120/126/120
f 116/127/121 122/133/127 127/128/122
f 123/129/123 122/133/127 116/127/121
f 124/130/124 123/129/123 117/123/117
f 125/131/125 124/130/124 118/124/118
f 126/132/126 125/131/125 119/125/119
f 121/122/116 127/128/122 126/132/126
f 122/133/127 128/139/133 133/134/128
f 129/135/129 128/139/133 122/133/127
f 130/136/130 129/135/129 123/129/123
f 131/137/131 130/136/130 124/130/124
f 132/138/132 131/137/131 125/131/125
f 127/128/122 133/134/128 132/138/132
f 128/139/133 134/145/139 139/140/134
f 135/141/135 134/145/139 128/139/133
f 136/142/136 135/141/135 129/135/129
f 137/143/137 136/142/136 130/136/130
f 138/144/138 137/143/137 131/137/131
f 133/134/128 139/140/134 138/144/138
