# Blender v2.79 (sub 0) OBJ File: 'fire_bow.blend'
# www.blender.org
o bow_string_0
v 0.000000 1.112500 -0.000000
v -0.009600 1.045244 -0.011085
v 0.009600 1.045244 -0.011085
v 0.019200 1.045244 -0.000000
v 0.009600 1.045244 0.011085
v -0.009600 1.045244 0.011085
v -0.019200 1.045244 -0.000000
v -0.009600 0.967728 -0.011085
v 0.009600 0.967728 -0.011085
v 0.019200 0.967728 -0.000000
v 0.009600 0.967728 0.011085
v -0.009600 0.967728 0.011085
v -0.019200 0.967728 -0.000000
v -0.009600 0.881642 -0.011085
v 0.009600 0.881642 -0.011085
v 0.019200 0.881642 -0.000000
v 0.009600 0.881642 0.011085
v -0.009600 0.881642 0.011085
v -0.019200 0.881642 -0.000000
v -0.009600 0.788674 -0.011085
v 0.009600 0.788674 -0.011085
v 0.019200 0.788674 -0.000000
v 0.009600 0.788674 0.011085
v -0.009600 0.788674 0.011085
v -0.019200 0.788674 -0.000000
v -0.009600 0.690516 -0.011085
v 0.009600 0.690516 -0.011085
v 0.019200 0.690516 -0.000000
v 0.009600 0.690516 0.011085
v -0.009600 0.690516 0.011085
v -0.019200 0.690516 -0.000000
v -0.009600 0.588856 -0.011085
v 0.009600 0.588856 -0.011085
v 0.019200 0.588856 -0.000000
v 0.009600 0.588856 0.011085
v -0.009600 0.588856 0.011085
v -0.019200 0.588856 -0.000000
v -0.009600 0.485385 -0.011085
v 0.009600 0.485385 -0.011085
v 0.019200 0.485385 -0.000000
v 0.009600 0.485385 0.011085
v -0.009600 0.485385 0.011085
v -0.019200 0.485385 -0.000000
v -0.009600 0.381793 -0.011085
v 0.009600 0.381793 -0.011085
v 0.019200 0.381793 -0.000000
v 0.009600 0.381793 0.011085
v -0.009600 0.381793 0.011085
v -0.019200 0.381793 -0.000000
v -0.009600 0.279768 -0.011085
v 0.009600 0.279768 -0.011085
v 0.019200 0.279768 -0.000000
v 0.009600 0.279768 0.011085
v -0.009600 0.279768 0.011085
v -0.019200 0.279768 -0.000000
v -0.009600 0.181001 -0.011085
v 0.009600 0.181001 -0.011085
v 0.019200 0.181001 -0.000000
v 0.009600 0.181001 0.011085
v -0.009600 0.181001 0.011085
v -0.019200 0.181001 -0.000000
v -0.009600 0.087182 -0.011085
v 0.009600 0.087182 -0.011085
v 0.019200 0.087182 -0.000000
v 0.009600 0.087182 0.011085
v -0.009600 0.087182 0.011085
v -0.019200 0.087182 -0.000000
v -0.009600 -0.000000 -0.011085
v 0.009600 -0.000000 -0.011085
v 0.019200 -0.000000 0.000000
v 0.009600 0.000000 0.011085
v -0.009600 0.000000 0.011085
v -0.019200 -0.000000 -0.000000
v -0.009600 -0.086943 -0.011085
v 0.009600 -0.086943 -0.011085
v 0.019200 -0.086943 0.000000
v 0.009600 -0.086943 0.011085
v -0.009600 -0.086943 0.011085
v -0.019200 -0.086943 -0.000000
v -0.009600 -0.180133 -0.011085
v 0.009600 -0.180133 -0.011085
v 0.019200 -0.180133 0.000000
v 0.009600 -0.180133 0.011085
v -0.009600 -0.180133 0.011085
v -0.019200 -0.180133 -0.000000
v -0.009600 -0.278010 -0.011085
v 0.009600 -0.278010 -0.011085
v 0.019200 -0.278010 0.000000
v 0.009600 -0.278010 0.011085
v -0.009600 -0.278010 0.011085
v -0.019200 -0.278010 -0.000000
v -0.009600 -0.379015 -0.011085
v 0.009600 -0.379015 -0.011085
v 0.019200 -0.379015 0.000000
v 0.009600 -0.379015 0.011085
v -0.009600 -0.379015 0.011085
v -0.019200 -0.379015 -0.000000
v -0.009600 -0.481587 -0.011085
v 0.009600 -0.481587 -0.011085
v 0.019200 -0.481587 0.000000
v 0.009600 -0.481587 0.011085
v -0.009600 -0.481587 0.011085
v -0.019200 -0.481587 -0.000000
v -0.009600 -0.584169 -0.011085
v 0.009600 -0.584169 -0.011085
v 0.019200 -0.584169 0.000000
v 0.009600 -0.584169 0.011085
v -0.009600 -0.584169 0.011085
v -0.019200 -0.584169 0.000000
v -0.009600 -0.685199 -0.011085
v 0.009600 -0.685199 -0.011085
v 0.019200 -0.685199 0.000000
v 0.009600 -0.685199 0.011085
v -0.009600 -0.685199 0.011085
v -0.019200 -0.685199 0.000000
v -0.009600 -0.783118 -0.011085
v 0.009600 -0.783118 -0.011085
v 0.019200 -0.783118 0.000000
v 0.009600 -0.783118 0.011085
v -0.009600 -0.783118 0.011085
v -0.019200 -0.783118 0.000000
v -0.009600 -0.876368 -0.011085
v 0.009600 -0.876368 -0.011085
v 0.019200 -0.876368 0.000000
v 0.009600 -0.876368 0.011085
v -0.009600 -0.876368 0.011085
v -0.019200 -0.876368 0.000000
v -0.009600 -0.963387 -0.011085
v 0.009600 -0.963387 -0.011085
v 0.019200 -0.963387 0.000000
v 0.009600 -0.963387 0.011085
v -0.009600 -0.963387 0.011085
v -0.019200 -0.963387 0.000000
v -0.009600 -1.042618 -0.011085
v 0.009600 -1.042618 -0.011085
v 0.019200 -1.042618 0.000000
v 0.009600 -1.042618 0.011085
v -0.009600 -1.042618 0.011085
v -0.019200 -1.042618 -0.000000
v 0.000000 -1.112500 -0.000000
vt 0.057711 0.985582
vt 0.048030 0.926849
vt 0.057711 0.926849
vt 0.048030 0.926849
vt 0.057711 0.926849
vt 0.067391 0.926849
vt 0.067391 0.926849
vt 0.048030 0.859155
vt 0.048030 0.859155
vt 0.057711 0.859155
vt 0.067391 0.859155
vt 0.067391 0.859155
vt 0.057711 0.859155
vt 0.048030 0.783978
vt 0.048030 0.783978
vt 0.057711 0.783978
vt 0.067391 0.783978
vt 0.067391 0.783978
vt 0.057711 0.783978
vt 0.048030 0.702791
vt 0.048030 0.702791
vt 0.057711 0.702791
vt 0.067391 0.702791
vt 0.067391 0.702791
vt 0.057711 0.702791
vt 0.048030 0.617072
vt 0.048030 0.617072
vt 0.057711 0.617072
vt 0.067391 0.617072
vt 0.067391 0.617072
vt 0.057711 0.617072
vt 0.048030 0.528294
vt 0.048030 0.528294
vt 0.057711 0.528294
vt 0.067391 0.528294
vt 0.067391 0.528294
vt 0.057711 0.528294
vt 0.048030 0.437935
vt 0.048030 0.437935
vt 0.057711 0.437935
vt 0.067391 0.437935
vt 0.067391 0.437935
vt 0.057711 0.437935
vt 0.048030 0.347470
vt 0.048030 0.347470
vt 0.057711 0.347470
vt 0.067391 0.347470
vt 0.067391 0.347470
vt 0.057711 0.347470
vt 0.048030 0.258374
vt 0.048030 0.258374
vt 0.057711 0.258374
vt 0.067391 0.258374
vt 0.067391 0.258374
vt 0.057711 0.258374
vt 0.048030 0.172123
vt 0.048030 0.172123
vt 0.057711 0.172123
vt 0.067391 0.172123
vt 0.067391 0.172123
vt 0.057711 0.172123
vt 0.048030 0.090192
vt 0.048030 0.090192
vt 0.057711 0.090192
vt 0.067391 0.090192
vt 0.067391 0.090192
vt 0.057711 0.090192
vt 0.048030 0.014058
vt 0.048030 0.014058
vt 0.057711 0.014058
vt 0.067391 0.014058
vt 0.067391 0.014058
vt 0.057711 0.014058
vt 0.048276 0.092533
vt 0.057957 0.016608
vt 0.048276 0.016608
vt 0.048276 0.092533
vt 0.048276 0.016608
vt 0.057957 0.092533
vt 0.057957 0.016608
vt 0.067637 0.092533
vt 0.067637 0.016608
vt 0.067637 0.092533
vt 0.067637 0.016608
vt 0.057957 0.092533
vt 0.048276 0.173914
vt 0.048276 0.173914
vt 0.057957 0.173914
vt 0.067637 0.173914
vt 0.067637 0.173914
vt 0.057957 0.173914
vt 0.048276 0.259388
vt 0.048276 0.259388
vt 0.057957 0.259388
vt 0.067637 0.259388
vt 0.067637 0.259388
vt 0.057957 0.259388
vt 0.048276 0.347594
vt 0.048276 0.347594
vt 0.057957 0.347594
vt 0.067637 0.347594
vt 0.067637 0.347594
vt 0.057957 0.347594
vt 0.048276 0.437168
vt 0.048276 0.437168
vt 0.057957 0.437168
vt 0.067637 0.437168
vt 0.067637 0.437168
vt 0.057957 0.437168
vt 0.048276 0.526750
vt 0.048276 0.526750
vt 0.057957 0.526750
vt 0.067637 0.526750
vt 0.067637 0.526750
vt 0.057957 0.526750
vt 0.048276 0.614978
vt 0.048276 0.614978
vt 0.057957 0.614978
vt 0.067637 0.614978
vt 0.067637 0.614978
vt 0.057957 0.614978
vt 0.048276 0.700489
vt 0.048276 0.700489
vt 0.057957 0.700489
vt 0.067637 0.700489
vt 0.067637 0.700489
vt 0.057957 0.700489
vt 0.048276 0.781922
vt 0.048276 0.781922
vt 0.057957 0.781922
vt 0.067637 0.781922
vt 0.067637 0.781922
vt 0.057957 0.781922
vt 0.048276 0.857915
vt 0.048276 0.857915
vt 0.057957 0.857915
vt 0.067637 0.857915
vt 0.067637 0.857915
vt 0.057957 0.857915
vt 0.048276 0.927105
vt 0.048276 0.927105
vt 0.057957 0.927105
vt 0.067637 0.927105
vt 0.057957 0.927105
vt 0.057957 0.988132
vt 0.067637 0.927105
vn 0.0000 1.0000 0.0000
vn -0.4198 0.1007 -0.9020
vn -0.9913 0.1313 0.0000
vn 0.4198 0.1007 -0.9020
vn 0.9913 0.1313 0.0000
vn 0.4198 0.1007 0.9020
vn -0.4198 0.1007 0.9020
vn -0.4155 0.0000 -0.9096
vn 0.4155 0.0000 -0.9096
vn 1.0000 0.0000 0.0000
vn 0.4155 0.0000 0.9096
vn -0.4155 0.0000 0.9096
vn -1.0000 0.0000 0.0000
vn -0.4198 -0.0970 -0.9024
vn 0.4198 -0.0970 -0.9024
vn 0.9919 -0.1268 0.0000
vn -0.4198 -0.0970 0.9024
vn -0.9919 -0.1268 0.0000
vn 0.0000 -1.0000 0.0000
vn 0.4198 -0.0970 0.9024
s 1
f 1/1/1 2/2/2 7/3/3
f 1/1/1 3/4/4 2/2/2
f 1/1/1 4/5/5 3/4/4
f 1/1/1 5/6/6 4/5/5
f 1/1/1 6/7/7 5/6/6
f 1/1/1 7/3/3 6/7/7
f 8/8/8 7/3/3 2/2/2
f 9/9/9 2/2/2 3/4/4
f 10/10/10 3/4/4 4/5/5
f 11/11/11 4/5/5 5/6/6
f 12/12/12 5/6/6 6/7/7
f 13/13/13 6/7/7 7/3/3
f 14/14/8 13/13/13 8/8/8
f 15/15/9 8/8/8 9/9/9
f 16/16/10 9/9/9 10/10/10
f 17/17/11 10/10/10 11/11/11
f 18/18/12 11/11/11 12/12/12
f 19/19/13 12/12/12 13/13/13
f 20/20/8 19/19/13 14/14/8
f 21/21/9 14/14/8 15/15/9
f 22/22/10 15/15/9 16/16/10
f 23/23/11 16/16/10 17/17/11
f 24/24/12 17/17/11 18/18/12
f 25/25/13 18/18/12 19/19/13
f 26/26/8 25/25/13 20/20/8
f 27/27/9 20/20/8 21/21/9
f 28/28/10 21/21/9 22/22/10
f 29/29/11 22/22/10 23/23/11
f 30/30/12 23/23/11 24/24/12
f 31/31/13 24/24/12 25/25/13
f 32/32/8 31/31/13 26/26/8
f 33/33/9 26/26/8 27/27/9
f 34/34/10 27/27/9 28/28/10
f 35/35/11 28/28/10 29/29/11
f 36/36/12 29/29/11 30/30/12
f 37/37/13 30/30/12 31/31/13
f 38/38/8 37/37/13 32/32/8
f 39/39/9 32/32/8 33/33/9
f 40/40/10 33/33/9 34/34/10
f 41/41/11 34/34/10 35/35/11
f 42/42/12 35/35/11 36/36/12
f 43/43/13 36/36/12 37/37/13
f 44/44/8 43/43/13 38/38/8
f 45/45/9 38/38/8 39/39/9
f 46/46/10 39/39/9 40/40/10
f 47/47/11 40/40/10 41/41/11
f 48/48/12 41/41/11 42/42/12
f 49/49/13 42/42/12 43/43/13
f 50/50/8 49/49/13 44/44/8
f 51/51/9 44/44/8 45/45/9
f 52/52/10 45/45/9 46/46/10
f 53/53/11 46/46/10 47/47/11
f 54/54/12 47/47/11 48/48/12
f 55/55/13 48/48/12 49/49/13
f 56/56/8 55/55/13 50/50/8
f 57/57/9 50/50/8 51/51/9
f 58/58/10 51/51/9 52/52/10
f 59/59/11 52/52/10 53/53/11
f 60/60/12 53/53/11 54/54/12
f 61/61/13 54/54/12 55/55/13
f 62/62/8 61/61/13 56/56/8
f 63/63/9 56/56/8 57/57/9
f 64/64/10 57/57/9 58/58/10
f 65/65/11 58/58/10 59/59/11
f 66/66/12 59/59/11 60/60/12
f 67/67/13 60/60/12 61/61/13
f 68/68/8 67/67/13 62/62/8
f 69/69/9 62/62/8 63/63/9
f 70/70/10 63/63/9 64/64/10
f 71/71/11 64/64/10 65/65/11
f 72/72/12 65/65/11 66/66/12
f 73/73/13 66/66/12 67/67/13
f 74/74/8 73/75/13 68/76/8
f 75/77/9 68/76/8 69/78/9
f 76/79/10 69/78/9 70/80/10
f 77/81/11 70/80/10 71/82/11
f 78/83/12 71/82/11 72/84/12
f 79/85/13 72/84/12 73/75/13
f 80/86/8 79/85/13 74/74/8
f 81/87/9 74/74/8 75/77/9
f 82/88/10 75/77/9 76/79/10
f 83/89/11 76/79/10 77/81/11
f 84/90/12 77/81/11 78/83/12
f 85/91/13 78/83/12 79/85/13
f 86/92/8 85/91/13 80/86/8
f 87/93/9 80/86/8 81/87/9
f 88/94/10 81/87/9 82/88/10
f 89/95/11 82/88/10 83/89/11
f 90/96/12 83/89/11 84/90/12
f 91/97/13 84/90/12 85/91/13
f 92/98/8 91/97/13 86/92/8
f 93/99/9 86/92/8 87/93/9
f 94/100/10 87/93/9 88/94/10
f 95/101/11 88/94/10 89/95/11
f 96/102/12 89/95/11 90/96/12
f 97/103/13 90/96/12 91/97/13
f 98/104/8 97/103/13 92/98/8
f 99/105/9 92/98/8 93/99/9
f 100/106/10 93/99/9 94/100/10
f 101/107/11 94/100/10 95/101/11
f 102/108/12 95/101/11 96/102/12
f 103/109/13 96/102/12 97/103/13
f 104/110/8 103/109/13 98/104/8
f 105/111/9 98/104/8 99/105/9
f 106/112/10 99/105/9 100/106/10
f 107/113/11 100/106/10 101/107/11
f 108/114/12 101/107/11 102/108/12
f 109/115/13 102/108/12 103/109/13
f 110/116/8 109/115/13 104/110/8
f 111/117/9 104/110/8 105/111/9
f 112/118/10 105/111/9 106/112/10
f 113/119/11 106/112/10 107/113/11
f 114/120/12 107/113/11 108/114/12
f 115/121/13 108/114/12 109/115/13
f 116/122/8 115/121/13 110/116/8
f 117/123/9 110/116/8 111/117/9
f 118/124/10 111/117/9 112/118/10
f 119/125/11 112/118/10 113/119/11
f 120/126/12 113/119/11 114/120/12
f 121/127/13 114/120/12 115/121/13
f 122/128/8 121/127/13 116/122/8
f 123/129/9 116/122/8 117/123/9
f 124/130/10 117/123/9 118/124/10
f 125/131/11 118/124/10 119/125/11
f 126/132/12 119/125/11 120/126/12
f 127/133/13 120/126/12 121/127/13
f 128/134/8 127/133/13 122/128/8
f 129/135/9 122/128/8 123/129/9
f 130/136/10 123/129/9 124/130/10
f 131/137/11 124/130/10 125/131/11
f 132/138/12 125/131/11 126/132/12
f 133/139/13 126/132/12 127/133/13
f 134/140/14 133/139/13 128/134/8
f 135/141/15 128/134/8 129/135/9
f 130/136/10 135/141/15 129/135/9
f 131/137/11 136/142/16 130/136/10
f 138/143/17 131/137/11 132/138/12
f 139/144/18 132/138/12 133/139/13
f 134/140/14 140/145/19 139/144/18
f 135/141/15 140/145/19 134/140/14
f 136/142/16 140/145/19 135/141/15
f 137/146/20 140/145/19 136/142/16
f 138/143/17 140/145/19 137/146/20
f 139/144/18 140/145/19 138/143/17
f 8/8/8 13/13/13 7/3/3
f 9/9/9 8/8/8 2/2/2
f 10/10/10 9/9/9 3/4/4
f 11/11/11 10/10/10 4/5/5
f 12/12/12 11/11/11 5/6/6
f 13/13/13 12/12/12 6/7/7
f 14/14/8 19/19/13 13/13/13
f 15/15/9 14/14/8 8/8/8
f 16/16/10 15/15/9 9/9/9
f 17/17/11 16/16/10 10/10/10
f 18/18/12 17/17/11 11/11/11
f 19/19/13 18/18/12 12/12/12
f 20/20/8 25/25/13 19/19/13
f 21/21/9 20/20/8 14/14/8
f 22/22/10 21/21/9 15/15/9
f 23/23/11 22/22/10 16/16/10
f 24/24/12 23/23/11 17/17/11
f 25/25/13 24/24/12 18/18/12
f 26/26/8 31/31/13 25/25/13
f 27/27/9 26/26/8 20/20/8
f 28/28/10 27/27/9 21/21/9
f 29/29/11 28/28/10 22/22/10
f 30/30/12 29/29/11 23/23/11
f 31/31/13 30/30/12 24/24/12
f 32/32/8 37/37/13 31/31/13
f 33/33/9 32/32/8 26/26/8
f 34/34/10 33/33/9 27/27/9
f 35/35/11 34/34/10 28/28/10
f 36/36/12 35/35/11 29/29/11
f 37/37/13 36/36/12 30/30/12
f 38/38/8 43/43/13 37/37/13
f 39/39/9 38/38/8 32/32/8
f 40/40/10 39/39/9 33/33/9
f 41/41/11 40/40/10 34/34/10
f 42/42/12 41/41/11 35/35/11
f 43/43/13 42/42/12 36/36/12
f 44/44/8 49/49/13 43/43/13
f 45/45/9 44/44/8 38/38/8
f 46/46/10 45/45/9 39/39/9
f 47/47/11 46/46/10 40/40/10
f 48/48/12 47/47/11 41/41/11
f 49/49/13 48/48/12 42/42/12
f 50/50/8 55/55/13 49/49/13
f 51/51/9 50/50/8 44/44/8
f 52/52/10 51/51/9 45/45/9
f 53/53/11 52/52/10 46/46/10
f 54/54/12 53/53/11 47/47/11
f 55/55/13 54/54/12 48/48/12
f 56/56/8 61/61/13 55/55/13
f 57/57/9 56/56/8 50/50/8
f 58/58/10 57/57/9 51/51/9
f 59/59/11 58/58/10 52/52/10
f 60/60/12 59/59/11 53/53/11
f 61/61/13 60/60/12 54/54/12
f 62/62/8 67/67/13 61/61/13
f 63/63/9 62/62/8 56/56/8
f 64/64/10 63/63/9 57/57/9
f 65/65/11 64/64/10 58/58/10
f 66/66/12 65/65/11 59/59/11
f 67/67/13 66/66/12 60/60/12
f 68/68/8 73/73/13 67/67/13
f 69/69/9 68/68/8 62/62/8
f 70/70/10 69/69/9 63/63/9
f 71/71/11 70/70/10 64/64/10
f 72/72/12 71/71/11 65/65/11
f 73/73/13 72/72/12 66/66/12
f 74/74/8 79/85/13 73/75/13
f 75/77/9 74/74/8 68/76/8
f 76/79/10 75/77/9 69/78/9
f 77/81/11 76/79/10 70/80/10
f 78/83/12 77/81/11 71/82/11
f 79/85/13 78/83/12 72/84/12
f 80/86/8 85/91/13 79/85/13
f 81/87/9 80/86/8 74/74/8
f 82/88/10 81/87/9 75/77/9
f 83/89/11 82/88/10 76/79/10
f 84/90/12 83/89/11 77/81/11
f 85/91/13 84/90/12 78/83/12
f 86/92/8 91/97/13 85/91/13
f 87/93/9 86/92/8 80/86/8
f 88/94/10 87/93/9 81/87/9
f 89/95/11 88/94/10 82/88/10
f 90/96/12 89/95/11 83/89/11
f 91/97/13 90/96/12 84/90/12
f 92/98/8 97/103/13 91/97/13
f 93/99/9 92/98/8 86/92/8
f 94/100/10 93/99/9 87/93/9
f 95/101/11 94/100/10 88/94/10
f 96/102/12 95/101/11 89/95/11
f 97/103/13 96/102/12 90/96/12
f 98/104/8 103/109/13 97/103/13
f 99/105/9 98/104/8 92/98/8
f 100/106/10 99/105/9 93/99/9
f 101/107/11 100/106/10 94/100/10
f 102/108/12 101/107/11 95/101/11
f 103/109/13 102/108/12 96/102/12
f 104/110/8 109/115/13 103/109/13
f 105/111/9 104/110/8 98/104/8
f 106/112/10 105/111/9 99/105/9
f 107/113/11 106/112/10 100/106/10
f 108/114/12 107/113/11 101/107/11
f 109/115/13 108/114/12 102/108/12
f 110/116/8 115/121/13 109/115/13
f 111/117/9 110/116/8 104/110/8
f 112/118/10 111/117/9 105/111/9
f 113/119/11 112/118/10 106/112/10
f 114/120/12 113/119/11 107/113/11
f 115/121/13 114/120/12 108/114/12
f 116/122/8 121/127/13 115/121/13
f 117/123/9 116/122/8 110/116/8
f 118/124/10 117/123/9 111/117/9
f 119/125/11 118/124/10 112/118/10
f 120/126/12 119/125/11 113/119/11
f 121/127/13 120/126/12 114/120/12
f 122/128/8 127/133/13 121/127/13
f 123/129/9 122/128/8 116/122/8
f 124/130/10 123/129/9 117/123/9
f 125/131/11 124/130/10 118/124/10
f 126/132/12 125/131/11 119/125/11
f 127/133/13 126/132/12 120/126/12
f 128/134/8 133/139/13 127/133/13
f 129/135/9 128/134/8 122/128/8
f 130/136/10 129/135/9 123/129/9
f 131/137/11 130/136/10 124/130/10
f 132/138/12 131/137/11 125/131/11
f 133/139/13 132/138/12 126/132/12
f 134/140/14 139/144/18 133/139/13
f 135/141/15 134/140/14 128/134/8
f 130/136/10 136/142/16 135/141/15
f 131/137/11 137/146/20 136/142/16
f 138/143/17 137/146/20 131/137/11
f 139/144/18 138/143/17 132/138/12
