# WaveFront *.obj file (generated by CINEMA 4D)

v 4.1750111579895 4.10988616943359 4.24237728118896
v 4.1750111579895 3.35165452957153 4.24237728118896
v 4.1750111579895 4.10988616943359 -4.11620998382568
v 4.1750111579895 3.35165452957153 -4.11620998382568
v -4.1750111579895 3.35165452957153 -4.11620998382568
v -4.1750111579895 4.10988616943359 -4.11620998382568
v -4.1750111579895 4.10988616943359 4.24237728118896
v -4.1750111579895 3.35165452957153 4.24237728118896
v 0 -0.21379990875721 4.53979015350342
v 3.80628275871277 8.30833053588867 4.53979015350342
v 0 8.70570278167725 4.53979015350342
v 2.34994220733643 -0.10970758646727 4.53979015350342
v -3.37780904769897 10.12846183776855 4.53979015350342
v 1.59146237373352 -0.14787271618843 4.53979015350342
v -1.858069896698 8.61653232574463 4.53979015350342
v -4.34310817718506 1.16576242446899 4.53979015350342
v -3.53470492362976 8.48983001708984 4.53979015350342
v -4.39346981048584 1.78856539726257 4.53979015350342
v -3.24529147148132 10.16811466217041 4.53979015350342
v -2.21819615364075 8.69809722900391 4.53979015350342
v -3.42465901374817 10.16695308685303 4.53979015350342
v -3.22487902641296 10.22673225402832 4.53979015350342
v -4.35592889785767 1.26346719264984 3.906334400177
v -1.858069896698 8.61653327941895 3.906334400177
v -3.60796332359314 10.3795919418335 4.53979015350342
v 3.37780904769897 10.12846183776855 4.53979015350342
v -3.60796332359314 10.3795919418335 3.906334400177
v -4.23786592483521 8.17563915252686 3.906334400177
v 3.24529147148132 10.16811466217041 4.53979015350342
v -3.80628275871277 8.30833053588867 4.53979015350342
v -2.34994220733643 -0.10970758646727 4.53979015350342
v -3.59096956253052 8.42999649047852 4.53979015350342
v -3.80628275871277 8.30833053588867 3.906334400177
v -1.59146237373352 -0.14787271618843 4.53979015350342
v -2.34994220733643 -0.10970767587423 3.906334400177
v 4.23786592483521 8.17563915252686 4.53979015350342
v 4.44013595581055 5.46721792221069 4.53979015350342
v 4.25094366073608 -0.01479460950941 4.53979015350342
v -4.44013595581055 5.46721792221069 3.906334400177
v -4.50159978866577 4.24223947525024 4.53979015350342
v -4.40629053115845 1.88627028465271 3.906334400177
v -4.50159978866577 3.56107378005981 3.906334400177
v 4.50159978866577 4.24223947525024 4.53979015350342
v 4.50159978866577 3.56107378005981 4.53979015350342
v -4.44013595581055 5.46721792221069 4.53979015350342
v -4.50159978866577 3.56107378005981 4.53979015350342
v -4.25094366073608 -0.01479460950941 4.53979015350342
v -3.17949175834656 10.50780010223389 3.906334400177
v 4.34310817718506 1.16576242446899 4.53979015350342
v -4.23786592483521 8.17563915252686 4.53979015350342
v -4.50159978866577 4.24223947525024 3.906334400177
v 4.39346981048584 1.78856539726257 4.53979015350342
v -3.17949175834656 10.50780010223389 4.53979015350342
v -1.59146237373352 -0.14787282049656 3.906334400177
v -2.13089156150818 8.66097736358643 4.53979015350342
v -4.25094366073608 -0.01479470543563 3.906334400177
v 1.59146237373352 -0.14787282049656 3.906334400177
v 0 -0.21379999816418 3.906334400177
v 2.34994220733643 -0.10970767587423 3.906334400177
v 4.25094366073608 -0.01479470543563 3.906334400177
v 4.35592889785767 1.26346719264984 3.906334400177
v 4.40629053115845 1.88627028465271 3.906334400177
v 4.50159978866577 3.56107378005981 3.906334400177
v 4.50159978866577 4.24223947525024 3.906334400177
v 4.44013595581055 5.46721792221069 3.906334400177
v 4.23786592483521 8.17563915252686 3.906334400177
v 3.80628275871277 8.30833053588867 3.906334400177
v 0 8.70570278167725 3.906334400177
v 1.858069896698 8.61653327941895 3.906334400177
v 1.858069896698 8.61653232574463 4.53979015350342
v 3.60796332359314 10.3795919418335 4.53979015350342
v 3.60796332359314 10.3795919418335 3.906334400177
v 3.17949175834656 10.50780010223389 3.906334400177
v 3.17949175834656 10.50780010223389 4.53979015350342
v 3.59096956253052 8.42999649047852 4.53979015350342
v 2.13089156150818 8.66097736358643 4.53979015350342
v 3.42465901374817 10.16695308685303 4.53979015350342
v 3.22487902641296 10.22673225402832 4.53979015350342
v 3.53470492362976 8.48983001708984 4.53979015350342
v 2.21819615364075 8.69809722900391 4.53979015350342
# 80 vertices

vn 0 0 1
vn 0 0 0
vn 1 0 0
vn 0 0 -1
vn -1 0 0
vn 0 -1 0
vn 0 1 0
vn -0.0457833185792 -0.99895137548447 0
vn 0 -1 0
vn -0.05000308156013 -0.9987490773201 0
vn 0.81975573301315 0.57271331548691 0
vn -0.995450258255 0.09528247267008 0
vn -0.04984721168876 -0.99875682592392 0
vn -0.99676543474197 -0.08016000688076 0.0057502691634
vn -0.9967999458313 -0.07985025644302 0.00371905299835
vn -0.99754726886749 -0.06969080120325 0.00653155939654
vn -0.99805855751038 0.06228295341134 0
vn -0.9996874332428 0.02500078082085 0
vn -0.99722760915756 0.07441157847643 0
vn -0.2938266992569 0.95585870742798 0
vn -0.99956482648849 -0.02937506884336 0.0026875063777
vn -0.28666546940804 0.95803076028824 0
vn 0.0457833185792 -0.99895137548447 0
vn 0.05000308156013 -0.9987490773201 0
vn 0.04984721168876 -0.99875682592392 0
vn 0.99676543474197 -0.08016000688076 0.0057502691634
vn 0.9967999458313 -0.07985025644302 0.00371905299835
vn 0.99754726886749 -0.06969080120325 0.00653155939654
vn 0.99956482648849 -0.02937506884336 0.0026875063777
vn 0.9996874332428 0.02500078082085 0
vn 0.99805855751038 0.06228295341134 0
vn 0.99722760915756 0.07441157847643 0
vn 0.2938266992569 0.95585870742798 0
vn 0 1 0
vn 0.04784726724029 0.998854637146 0
vn -0.04784726724029 0.998854637146 0
vn 0.28666546940804 0.95803076028824 0
vn -0.81975573301315 0.57271331548691 0
vn 0.995450258255 0.09528247267008 0
# 39 normals

vt 0.10905021429062 0.99029088020325 0
vt 0.01270374655724 0.98143863677979 0
vt 0.00803266651928 0.8713287115097 0
vt 0 1 0
vt 0.99516546726227 0.9750748872757 0
vt 0.99516546726227 0.01880311965942 0
vt 0.47605472803116 0.01880311965942 0
vt 0.47605472803116 0.9750748872757 0
vt 0.14749145507812 0.99385094642639 0
vt 0.22814986109734 1 0
vt 0.06470669806004 0.02621507644653 0
vt 0.12015216052532 0.17225253582001 0
vt 0.11572736501694 0.16879022121429 0
vt 0.04529123753309 0.01195800304413 0
vt 0.06700700521469 0.00000011920929 0
vt 0.38929271697998 0.00000011920929 0
vt 0.3915930390358 0.02621507644653 0
vt 0.33614760637283 0.17225253582001 0
vt 0.34057235717773 0.16879022121429 0
vt 0.40729558467865 0.1882152557373 0
vt 0.41014719009399 0.19379591941833 0
vt 0.39934384822845 0.03538072109222 0
vt 0.40171825885773 0.03179061412811 0
vt 0.39262759685516 0.0316823720932 0
vt 0.13397926092148 0.17639780044556 0
vt 0.03524005413055 0.20514369010925 0
vt 0.04615253210068 0.19379591941833 0
vt 0.05458145588636 0.03179061412811 0
vt 0.0569559186697 0.03538072109222 0
vt 0.00548026803881 0.81323981285095 0
vt 0.00738289486617 0.86221563816071 0
vt 0.00311512267217 0.47013342380524 0
vt 0 0.58438658714294 0
vt 0.04900412261486 0.1882152557373 0
vt 0.01336655952036 0.21751976013184 0
vt 0 0.64791870117188 0
vt 0.00483047775924 0.80412685871124 0
vt 0.06367217004299 0.0316823720932 0
vt 0.06700700521469 0 0
vt 0.30880832672119 0.99385094642639 0
vt 0.3472495675087 0.99029088020325 0
vt 0.4435960650444 0.98143863677979 0
vt 0.44826710224152 0.8713287115097 0
vt 0.44891691207886 0.86221563816071 0
vt 0.45081961154938 0.81323981285095 0
vt 0.45146930217743 0.80412685871124 0
vt 0.45629978179932 0.64791870117188 0
vt 0.45629978179932 0.58438658714294 0
vt 0.45318466424942 0.47013342380524 0
vt 0.45318472385406 0.47013342380524 0
vt 0.4429332613945 0.21751976013184 0
vt 0.42105978727341 0.20514369010925 0
vt 0.22814986109734 0.16808092594147 0
vt 0.32232052087784 0.17639780044556 0
vt 0.38929271697998 0 0
vt 0.41100853681564 0.01195800304413 0
# 56 texture coordinates

o Mask
usemtl Mat.5
f 16/3/1 47/2/1 31/1/1
f 4/6/3 3/6/3 1/5/3
f 4/6/4 5/7/4 6/7/4
f 5/7/5 8/8/5 7/8/5
f 5/7/6 4/6/6 2/5/6
f 6/7/7 7/8/7 1/5/7
f 8/8/1 2/5/1 1/5/1
f 58/10/9 9/10/9 34/9/8
f 20/13/1 55/12/1 22/11/1
f 54/9/8 34/9/8 31/1/10
f 22/11/1 53/15/1 25/14/1
f 76/18/1 78/17/1 74/16/1
f 79/20/1 80/19/1 76/18/1
f 26/22/1 79/20/1 75/21/1
f 29/24/1 26/22/1 77/23/1
f 80/19/1 29/24/1 78/17/1
f 53/15/11 15/25/11 24/25/11
f 27/14/12 33/26/12 30/26/12
f 35/1/10 31/1/10 47/2/13
f 13/29/1 21/28/1 32/27/1
f 56/2/15 47/2/15 16/3/14
f 23/31/14 16/3/14 18/30/16
f 32/27/1 30/26/1 15/25/1
f 21/28/1 25/14/1 30/26/1
f 51/33/18 40/33/18 45/32/17
f 13/29/1 17/34/1 20/13/1
f 39/32/17 45/32/17 50/35/19
f 28/35/20 50/35/20 30/26/20
f 41/37/16 18/30/16 46/36/21
f 19/38/1 22/11/1 21/28/1
f 42/36/21 46/36/21 40/33/18
f 17/34/1 32/27/1 55/12/1
f 48/39/4 24/25/4 33/26/4
f 55/12/1 15/25/1 53/15/1
f 25/14/22 53/15/22 48/39/22
f 58/10/9 57/40/23 14/40/23
f 57/40/23 59/41/24 12/41/24
f 59/41/24 60/42/25 38/42/25
f 60/42/27 61/44/26 49/43/26
f 61/44/26 62/46/28 52/45/28
f 62/46/28 63/47/29 44/47/29
f 63/47/29 64/48/30 43/48/30
f 64/48/30 65/50/31 37/49/31
f 65/50/31 66/51/32 36/51/32
f 66/51/33 67/52/33 10/52/33
f 69/54/35 68/53/34 11/53/34
f 24/25/36 15/25/36 11/53/34
f 71/56/37 72/56/37 73/55/37
f 74/16/38 73/55/38 69/54/38
f 26/22/1 29/24/1 80/19/1
f 72/56/39 71/56/39 10/52/39
f 73/55/4 72/56/4 67/52/4
f 75/21/1 76/18/1 70/54/1
f 77/23/1 75/21/1 10/52/1
f 78/17/1 77/23/1 71/56/1
f 2/5/3 4/6/3 1/5/3
f 3/6/4 4/6/4 6/7/4
f 6/7/5 5/7/5 7/8/5
f 8/8/6 5/7/6 2/5/6
f 3/6/7 6/7/7 1/5/7
f 7/8/1 8/8/1 1/5/1
f 54/9/8 58/10/9 34/9/8
f 19/38/1 20/13/1 22/11/1
f 35/1/10 54/9/8 31/1/10
f 21/28/1 22/11/1 25/14/1
f 70/54/1 76/18/1 74/16/1
f 75/21/1 79/20/1 76/18/1
f 77/23/1 26/22/1 75/21/1
f 78/17/1 29/24/1 77/23/1
f 76/18/1 80/19/1 78/17/1
f 48/39/11 53/15/11 24/25/11
f 25/14/12 27/14/12 30/26/12
f 56/2/13 35/1/10 47/2/13
f 17/34/1 13/29/1 32/27/1
f 23/31/14 56/2/15 16/3/14
f 41/37/16 23/31/14 18/30/16
f 55/12/1 32/27/1 15/25/1
f 32/27/1 21/28/1 30/26/1
f 39/32/17 51/33/18 45/32/17
f 19/38/1 13/29/1 20/13/1
f 28/35/19 39/32/17 50/35/19
f 33/26/20 28/35/20 30/26/20
f 42/36/21 41/37/16 46/36/21
f 13/29/1 19/38/1 21/28/1
f 51/33/18 42/36/21 40/33/18
f 20/13/1 17/34/1 55/12/1
f 27/14/4 48/39/4 33/26/4
f 22/11/1 55/12/1 53/15/1
f 27/14/22 25/14/22 48/39/22
f 9/10/9 58/10/9 14/40/23
f 14/40/23 57/40/23 12/41/24
f 12/41/24 59/41/24 38/42/25
f 38/42/27 60/42/27 49/43/26
f 49/43/26 61/44/26 52/45/28
f 52/45/28 62/46/28 44/47/29
f 44/47/29 63/47/29 43/48/30
f 43/48/30 64/48/30 37/49/31
f 37/49/31 65/50/31 36/51/32
f 36/51/33 66/51/33 10/52/33
f 70/54/35 69/54/35 11/53/34
f 68/53/34 24/25/36 11/53/34
f 74/16/37 71/56/37 73/55/37
f 70/54/38 74/16/38 69/54/38
f 79/20/1 26/22/1 80/19/1
f 67/52/39 72/56/39 10/52/39
f 69/54/4 73/55/4 67/52/4
f 10/52/1 75/21/1 70/54/1
f 71/56/1 77/23/1 10/52/1
f 74/16/1 78/17/1 71/56/1
f 18/30/1 31/1/1 34/9/1
f 18/30/1 16/3/1 31/1/1
f 46/36/1 34/9/1 9/10/1
f 45/32/1 40/33/1 11/53/1
f 30/26/1 50/35/1 45/32/1
f 37/49/1 70/54/1 11/53/1
f 10/52/1 70/54/1 37/49/1
f 44/47/1 43/48/1 9/10/1
f 52/45/1 44/47/1 14/40/1
f 12/41/1 49/43/1 52/45/1
f 12/41/1 38/42/1 49/43/1
f 11/53/1 40/33/1 9/10/1
f 46/36/1 18/30/1 34/9/1
f 40/33/1 46/36/1 9/10/1
f 15/25/1 45/32/1 11/53/1
f 15/25/1 30/26/1 45/32/1
f 43/48/1 37/49/1 11/53/1
f 36/51/1 10/52/1 37/49/1
f 14/40/1 44/47/1 9/10/1
f 12/41/1 52/45/1 14/40/1
f 43/48/1 11/53/1 9/10/1

