# Blender v2.83.0 OBJ File: 'Steampunk_Bow.blend'
# www.blender.org
mtllib Steampunk_String_02.mtl
o bow_string_02_bow_string_02_Cylinder.004
v -0.011291 -1.835626 0.060601
v 0.011291 -1.835626 0.060601
v 0.011291 -1.835626 0.083159
v 0.000000 -1.835626 0.055929
v 0.015968 -1.835626 0.071880
v 0.000000 -1.835626 0.087831
v -0.011291 -1.835626 0.083159
v -0.015968 -1.835626 0.071880
v 0.000000 1.835626 0.055929
v 0.011291 1.376720 0.088295
v 0.000000 1.376720 0.083621
v 0.011291 1.835626 0.060601
v 0.015968 1.376720 0.099576
v 0.015968 1.835626 0.071880
v 0.011291 1.376720 0.110859
v 0.011291 1.835626 0.083159
v 0.000000 1.376720 0.115533
v 0.000000 1.835626 0.087831
v -0.011291 1.376720 0.110859
v -0.011291 1.835626 0.083159
v -0.015968 1.376720 0.099576
v -0.015968 1.835626 0.071880
v -0.011291 1.376720 0.088295
v -0.011291 1.835626 0.060601
v -0.011291 -0.000000 0.192928
v 0.000000 -0.458906 0.149774
v -0.011291 -0.458906 0.154453
v -0.015968 -0.000000 0.204231
v -0.015968 -0.458906 0.165751
v -0.011291 -0.000000 0.215533
v -0.011291 -0.458906 0.177051
v 0.000000 -0.000000 0.220215
v 0.000000 -0.458906 0.181731
v 0.011291 -0.000000 0.215533
v 0.011291 -0.458906 0.177051
v 0.015968 -0.000000 0.204231
v 0.015968 -0.458906 0.165751
v 0.011291 -0.000000 0.192928
v 0.011291 -0.458906 0.154453
v 0.000000 -0.000000 0.188246
v 0.000000 -0.917814 0.111313
v 0.011291 -1.376720 0.088295
v 0.000000 -1.376720 0.083621
v 0.011291 -0.917814 0.115990
v 0.015968 -1.376720 0.099576
v 0.015968 -0.917814 0.127280
v 0.011291 -1.376720 0.110859
v 0.011291 -0.917814 0.138571
v 0.000000 -1.376720 0.115533
v 0.000000 -0.917814 0.143248
v -0.011291 -1.376720 0.110859
v -0.011291 -0.917814 0.138571
v -0.015968 -1.376720 0.099576
v -0.015968 -0.917814 0.127280
v -0.011291 -1.376720 0.088295
v -0.011291 -0.917814 0.115990
v -0.011291 0.917814 0.115990
v 0.000000 0.458906 0.149774
v -0.011291 0.458906 0.154453
v -0.015968 0.917814 0.127280
v -0.015968 0.458906 0.165751
v -0.011291 0.917814 0.138571
v -0.011291 0.458906 0.177051
v 0.000000 0.917814 0.143248
v 0.000000 0.458906 0.181731
v 0.011291 0.917814 0.138571
v 0.011291 0.458906 0.177051
v 0.015968 0.917814 0.127280
v 0.015968 0.458906 0.165751
v 0.011291 0.917814 0.115990
v 0.011291 0.458906 0.154453
v 0.000000 0.917814 0.111313
v -0.011291 -0.000000 0.192928
v 0.000000 -0.000000 0.188246
v -0.015968 -0.000000 0.204231
v -0.011291 -0.000000 0.215533
v 0.000000 -0.000000 0.220215
v 0.011291 -0.000000 0.215533
v 0.015968 -0.000000 0.204231
v 0.011291 -0.000000 0.192928
v -0.011291 -0.000000 0.192928
v 0.000000 -0.000000 0.188246
v -0.015968 -0.000000 0.204231
v -0.011291 -0.000000 0.215533
v 0.000000 -0.000000 0.220215
v 0.011291 -0.000000 0.215533
v 0.015968 -0.000000 0.204231
v 0.011291 -0.000000 0.192928
vt 0.025515 0.015313
vt 0.025515 0.015313
vt 0.017892 0.015313
vt 0.027093 0.015313
vt 0.021703 0.015313
vt 0.016313 0.015313
vt 0.017892 0.015313
vt 0.021703 0.015313
vt 0.027093 0.985794
vt 0.025515 0.864484
vt 0.027093 0.864484
vt 0.025515 0.985795
vt 0.021703 0.864484
vt 0.021703 0.985795
vt 0.017892 0.864484
vt 0.017892 0.985795
vt 0.016313 0.864484
vt 0.016313 0.985795
vt 0.017892 0.864484
vt 0.017892 0.985795
vt 0.021703 0.864484
vt 0.021703 0.985795
vt 0.025515 0.864484
vt 0.025515 0.985795
vt 0.025515 0.500554
vt 0.027093 0.379244
vt 0.025515 0.379244
vt 0.021703 0.500554
vt 0.021703 0.379244
vt 0.017892 0.500554
vt 0.017892 0.379244
vt 0.016313 0.500554
vt 0.016313 0.379244
vt 0.017892 0.500554
vt 0.017892 0.379244
vt 0.021703 0.500554
vt 0.021703 0.379244
vt 0.025515 0.500554
vt 0.025515 0.379244
vt 0.027093 0.500554
vt 0.027093 0.257934
vt 0.025515 0.136623
vt 0.027093 0.136623
vt 0.025515 0.257934
vt 0.021703 0.136623
vt 0.021703 0.257934
vt 0.017892 0.136623
vt 0.017892 0.257934
vt 0.016313 0.136623
vt 0.016313 0.257934
vt 0.017892 0.136623
vt 0.017892 0.257934
vt 0.021703 0.136623
vt 0.021703 0.257934
vt 0.025515 0.136623
vt 0.025515 0.257934
vt 0.025515 0.743174
vt 0.027093 0.621864
vt 0.025515 0.621864
vt 0.021703 0.743174
vt 0.021703 0.621864
vt 0.017892 0.743174
vt 0.017892 0.621864
vt 0.016313 0.743174
vt 0.016313 0.621864
vt 0.017892 0.743174
vt 0.017892 0.621864
vt 0.021703 0.743174
vt 0.021703 0.621864
vt 0.025515 0.743174
vt 0.025515 0.621864
vt 0.027093 0.743174
vn 0.0000 -1.0000 0.0000
vn 0.0000 -0.0602 -0.9982
vn 0.7065 -0.0426 -0.7065
vn 0.6989 -0.0431 -0.7139
vn 1.0000 -0.0000 -0.0000
vn 0.9999 -0.0009 -0.0147
vn 0.7065 0.0427 0.7064
vn 0.7136 0.0422 0.6993
vn -0.0000 0.0603 0.9982
vn -0.7065 0.0426 0.7064
vn -0.7136 0.0422 0.6993
vn -1.0000 0.0000 -0.0000
vn 0.0000 1.0000 0.0000
vn -0.9999 -0.0009 -0.0147
vn -0.7065 -0.0426 -0.7065
vn -0.6989 -0.0431 -0.7139
vn -0.7177 -0.0000 -0.6964
vn -0.0000 0.0835 -0.9965
vn -0.7064 0.0591 -0.7054
vn -0.9998 -0.0000 0.0204
vn -0.6973 0.0000 0.7168
vn -0.7064 -0.0591 0.7053
vn 0.0000 -0.0000 1.0000
vn -0.0000 -0.0836 0.9965
vn 0.6973 -0.0000 0.7168
vn 0.7064 -0.0591 0.7053
vn 0.9998 0.0000 0.0204
vn 0.7177 0.0000 -0.6964
vn 0.7064 0.0591 -0.7054
vn 0.0000 0.0000 -1.0000
vn -0.0000 0.0717 -0.9974
vn 0.7065 0.0426 -0.7065
vn -0.0000 0.0602 -0.9982
vn 0.7050 0.0510 -0.7073
vn 1.0000 0.0004 -0.0029
vn 0.7065 -0.0427 0.7064
vn 0.7079 -0.0508 0.7045
vn 0.0000 -0.0603 0.9982
vn 0.0000 -0.0721 0.9974
vn -0.7065 -0.0427 0.7064
vn -0.7079 -0.0508 0.7045
vn -1.0000 0.0004 -0.0029
vn -0.7065 0.0426 -0.7065
vn -0.7050 0.0510 -0.7073
vn -0.7050 -0.0510 -0.7073
vn 0.0000 -0.0835 -0.9965
vn -0.7064 -0.0591 -0.7054
vn -1.0000 -0.0004 -0.0029
vn -0.7079 0.0508 0.7045
vn -0.7064 0.0591 0.7053
vn -0.0000 0.0721 0.9974
vn -0.0000 0.0836 0.9965
vn 0.7079 0.0508 0.7045
vn 0.7064 0.0591 0.7053
vn 1.0000 -0.0004 -0.0029
vn 0.7050 -0.0510 -0.7073
vn 0.7064 -0.0591 -0.7054
vn 0.0000 -0.0717 -0.9974
vn -0.6989 0.0431 -0.7139
vn -0.9999 0.0009 -0.0147
vn -0.7136 -0.0422 0.6993
vn 0.7136 -0.0422 0.6993
vn 0.9999 0.0009 -0.0147
vn 0.6989 0.0431 -0.7139
usemtl None.002
s off
f 1/1/1 2/2/1 3/3/1
f 1/1/1 4/4/1 2/2/1
f 2/2/1 5/5/1 3/3/1
f 3/3/1 6/6/1 7/7/1
f 7/7/1 8/8/1 3/3/1
f 8/8/1 1/1/1 3/3/1
s 1
f 9/9/2 10/10/3 11/11/2
f 12/12/4 13/13/5 10/10/3
f 14/14/6 15/15/7 13/13/5
f 16/16/8 17/17/9 15/15/7
f 18/18/9 19/19/10 17/17/9
f 20/20/11 21/21/12 19/19/10
f 16/16/13 14/14/13 22/22/13
f 22/22/14 23/23/15 21/21/12
f 24/24/16 11/11/2 23/23/15
f 25/25/17 26/26/18 27/27/19
f 28/28/20 27/27/19 29/29/12
f 30/30/21 29/29/12 31/31/22
f 32/32/23 31/31/22 33/33/24
f 34/34/25 33/33/24 35/35/26
f 36/36/27 35/35/26 37/37/5
f 38/38/28 37/37/5 39/39/29
f 40/40/30 39/39/29 26/26/18
f 41/41/31 42/42/32 43/43/33
f 44/44/34 45/45/5 42/42/32
f 46/46/35 47/47/36 45/45/5
f 48/48/37 49/49/38 47/47/36
f 50/50/39 51/51/40 49/49/38
f 52/52/41 53/53/12 51/51/40
f 54/54/42 55/55/43 53/53/12
f 56/56/44 43/43/33 55/55/43
f 57/57/45 58/58/46 59/59/47
f 60/60/48 59/59/47 61/61/12
f 62/62/49 61/61/12 63/63/50
f 64/64/51 63/63/50 65/65/52
f 66/66/53 65/65/52 67/67/54
f 68/68/55 67/67/54 69/69/5
f 70/70/56 69/69/5 71/71/57
f 72/72/58 71/71/57 58/58/46
f 26/26/18 44/44/34 41/41/31
f 39/39/29 46/46/35 44/44/34
f 37/37/5 48/48/37 46/46/35
f 35/35/26 50/50/39 48/48/37
f 33/33/24 52/52/41 50/50/39
f 31/31/22 54/54/42 52/52/41
f 29/29/12 56/56/44 54/54/42
f 27/27/19 41/41/31 56/56/44
f 58/58/46 38/38/28 40/40/30
f 71/71/57 36/36/27 38/38/28
f 69/69/5 34/34/25 36/36/27
f 67/67/54 32/32/23 34/34/25
f 65/65/52 30/30/21 32/32/23
f 63/63/50 28/28/20 30/30/21
f 61/61/12 25/25/17 28/28/20
f 59/59/47 40/40/30 25/25/17
f 55/55/43 4/4/33 1/1/59
f 53/53/12 1/1/59 8/8/60
f 51/51/40 8/8/60 7/7/61
f 49/49/38 7/7/61 6/6/38
f 47/47/36 6/6/38 3/3/62
f 45/45/5 3/3/62 5/5/63
f 42/42/32 5/5/63 2/2/64
f 43/43/33 2/2/64 4/4/33
f 23/23/15 72/72/58 57/57/45
f 21/21/12 57/57/45 60/60/48
f 19/19/10 60/60/48 62/62/49
f 17/17/9 62/62/49 64/64/51
f 15/15/7 64/64/51 66/66/53
f 13/13/5 66/66/53 68/68/55
f 10/10/3 68/68/55 70/70/56
f 11/11/2 70/70/56 72/72/58
f 9/9/2 12/12/4 10/10/3
f 12/12/4 14/14/6 13/13/5
f 14/14/6 16/16/8 15/15/7
f 16/16/8 18/18/9 17/17/9
f 18/18/9 20/20/11 19/19/10
f 20/20/11 22/22/14 21/21/12
f 14/14/13 12/12/13 22/22/13
f 12/12/13 9/9/13 22/22/13
f 9/9/13 24/24/13 22/22/13
f 22/22/13 20/20/13 18/18/13
f 18/18/13 16/16/13 22/22/13
f 22/22/14 24/24/16 23/23/15
f 24/24/16 9/9/2 11/11/2
f 25/25/17 40/40/30 26/26/18
f 28/28/20 25/25/17 27/27/19
f 30/30/21 28/28/20 29/29/12
f 32/32/23 30/30/21 31/31/22
f 34/34/25 32/32/23 33/33/24
f 36/36/27 34/34/25 35/35/26
f 38/38/28 36/36/27 37/37/5
f 40/40/30 38/38/28 39/39/29
f 41/41/31 44/44/34 42/42/32
f 44/44/34 46/46/35 45/45/5
f 46/46/35 48/48/37 47/47/36
f 48/48/37 50/50/39 49/49/38
f 50/50/39 52/52/41 51/51/40
f 52/52/41 54/54/42 53/53/12
f 54/54/42 56/56/44 55/55/43
f 56/56/44 41/41/31 43/43/33
f 57/57/45 72/72/58 58/58/46
f 60/60/48 57/57/45 59/59/47
f 62/62/49 60/60/48 61/61/12
f 64/64/51 62/62/49 63/63/50
f 66/66/53 64/64/51 65/65/52
f 68/68/55 66/66/53 67/67/54
f 70/70/56 68/68/55 69/69/5
f 72/72/58 70/70/56 71/71/57
f 26/26/18 39/39/29 44/44/34
f 39/39/29 37/37/5 46/46/35
f 37/37/5 35/35/26 48/48/37
f 35/35/26 33/33/24 50/50/39
f 33/33/24 31/31/22 52/52/41
f 31/31/22 29/29/12 54/54/42
f 29/29/12 27/27/19 56/56/44
f 27/27/19 26/26/18 41/41/31
f 58/58/46 71/71/57 38/38/28
f 71/71/57 69/69/5 36/36/27
f 69/69/5 67/67/54 34/34/25
f 67/67/54 65/65/52 32/32/23
f 65/65/52 63/63/50 30/30/21
f 63/63/50 61/61/12 28/28/20
f 61/61/12 59/59/47 25/25/17
f 59/59/47 58/58/46 40/40/30
f 55/55/43 43/43/33 4/4/33
f 53/53/12 55/55/43 1/1/59
f 51/51/40 53/53/12 8/8/60
f 49/49/38 51/51/40 7/7/61
f 47/47/36 49/49/38 6/6/38
f 45/45/5 47/47/36 3/3/62
f 42/42/32 45/45/5 5/5/63
f 43/43/33 42/42/32 2/2/64
f 23/23/15 11/11/2 72/72/58
f 21/21/12 23/23/15 57/57/45
f 19/19/10 21/21/12 60/60/48
f 17/17/9 19/19/10 62/62/49
f 15/15/7 17/17/9 64/64/51
f 13/13/5 15/15/7 66/66/53
f 10/10/3 13/13/5 68/68/55
f 11/11/2 10/10/3 70/70/56
l 82 88
l 88 87
l 87 86
l 86 85
l 85 84
l 84 83
l 83 81
l 81 82
l 74 80
l 80 79
l 79 78
l 78 77
l 77 76
l 76 75
l 75 73
l 73 74
