# Blender v2.83.0 OBJ File: 'Dog_Ears.blend'
# www.blender.org
mtllib Dog_Mouth.mtl
o dog_mouth_Plane.001
v 1.456371 1.645546 4.110997
v 2.048614 2.517567 4.110997
v 0.776241 1.804647 4.110997
v 1.610333 3.406137 4.110997
v 1.924387 1.924106 4.110997
v 1.379008 2.495336 4.110997
v 2.538162 -2.091751 3.890952
v 0.933843 1.413484 4.267158
v 2.290071 -0.713990 4.164762
v 1.384856 -3.019644 3.616772
v 0.466921 1.603687 4.267158
v 1.219463 -1.392965 4.075740
v 1.421754 0.468956 4.250829
v 0.843192 0.116275 4.226357
v 2.579510 -1.461633 4.062274
v 1.302160 -2.209032 3.856296
v 0.708979 3.854756 4.110997
v 0.358998 1.950231 4.110997
v 0.492717 3.310048 4.110997
v 1.414614 1.721397 4.375168
v 1.964012 2.530333 4.375168
v 0.783687 1.868988 4.375168
v 1.557438 3.354621 4.375168
v 1.848772 1.979805 4.375168
v 1.342847 2.509710 4.596205
v 0.721291 3.770785 4.375168
v 0.396629 2.004040 4.375168
v 0.704445 3.116168 4.596205
v 2.538162 -2.153591 4.100234
v 0.933842 1.413484 4.485385
v 2.290071 -0.737873 4.381680
v 1.384856 -3.081484 3.826055
v 0.466921 1.603687 4.485385
v 1.219463 -1.434965 4.289889
v 1.421754 0.453850 4.468533
v 0.843192 0.101169 4.444061
v 2.579510 -1.503633 4.276422
v 1.302160 -2.270872 4.065578
v 0.839148 3.329081 4.692844
v 0.444499 2.539352 4.631576
v 0.510967 3.570027 4.688998
v 0.830839 2.977144 4.681304
v 0.497120 3.315022 4.783745
v 0.749139 2.820562 4.669765
v 0.888999 3.345698 4.477694
v 0.444499 2.450728 4.423171
v 0.527584 3.625417 4.417582
v 0.886229 2.943910 4.514267
v 0.497120 3.315022 4.581471
v 0.826685 2.809484 4.498419
v 0.548356 2.988116 4.581471
v 0.436159 3.147491 4.802643
v 0.709095 2.923095 4.723937
v 0.546388 2.792645 4.746877
v 0.367765 2.866028 4.753491
v 0.414756 2.913751 4.702033
v 0.457723 3.090572 4.702033
v 0.629186 2.949602 4.702033
v 0.526971 2.867651 4.702033
v 0.000000 2.023591 4.110997
v -1.456371 1.645546 4.110997
v 0.000000 3.900980 4.110997
v -2.048614 2.517567 4.110997
v -0.776241 1.804647 4.110997
v -1.610333 3.406137 4.110997
v 0.000000 3.495373 4.110997
v -1.924387 1.924106 4.110997
v -1.379008 2.495336 4.110997
v 0.000000 -3.122743 3.586308
v -2.538162 -2.091751 3.890952
v 0.000000 1.645036 4.267158
v -0.933843 1.413484 4.267158
v 0.000000 -1.526863 4.049479
v -2.290071 -0.713990 4.164762
v -1.384856 -3.019644 3.616772
v -0.466921 1.603687 4.267158
v -1.219463 -1.392965 4.075740
v -1.421754 0.468956 4.250829
v 0.000000 0.068839 4.223065
v -0.843192 0.116275 4.226357
v 0.000000 -2.326010 3.821731
v -2.579510 -1.461633 4.062274
v -1.302160 -2.209032 3.856296
v -0.708979 3.854756 4.110997
v -0.358998 1.950231 4.110997
v -0.492717 3.310048 4.110997
v 0.000000 2.072093 4.375168
v -1.414614 1.721397 4.375168
v 0.000000 3.813665 4.375168
v -1.964012 2.530333 4.375168
v -0.783687 1.868988 4.375168
v -1.557438 3.354621 4.375168
v 0.000000 3.322544 4.596205
v -1.848772 1.979805 4.375168
v -1.342847 2.509710 4.596205
v -0.721291 3.770785 4.375168
v -0.396629 2.004040 4.375168
v -0.704445 3.116168 4.596205
v 0.000000 -3.184583 3.795590
v -2.538162 -2.153591 4.100234
v 0.000000 1.645036 4.485385
v -0.933842 1.413484 4.485385
v 0.000000 -1.568863 4.263628
v -2.290071 -0.737873 4.381680
v -1.384856 -3.081484 3.826055
v -0.466921 1.603687 4.485385
v -1.219463 -1.434965 4.289889
v -1.421754 0.453850 4.468533
v 0.000000 0.053733 4.440770
v -0.843192 0.101169 4.444061
v 0.000000 -2.387850 4.031013
v -2.579510 -1.503633 4.276422
v -1.302160 -2.270872 4.065578
v 0.000000 2.375952 4.586147
v 0.000000 3.677268 4.692844
v -0.839148 3.329081 4.692844
v -0.444499 2.539352 4.631576
v -0.510967 3.570027 4.688998
v 0.000000 3.425802 4.812635
v -0.830839 2.977144 4.681304
v -0.497120 3.315022 4.783745
v 0.000000 2.985808 4.843709
v -0.749139 2.820562 4.669765
v 0.000000 2.303945 4.404216
v 0.000000 3.727993 4.375901
v -0.888999 3.345698 4.477694
v -0.444499 2.450728 4.423171
v -0.527584 3.625417 4.417582
v 0.000000 3.425802 4.581471
v -0.886229 2.943910 4.514267
v -0.497120 3.315022 4.581471
v 0.000000 3.202753 4.581471
v -0.826685 2.809484 4.498419
v -0.548356 2.988116 4.581471
v -0.436159 3.147491 4.802643
v -0.709095 2.923095 4.723937
v -0.546388 2.792645 4.746877
v -0.367765 2.866028 4.753491
v -0.414756 2.913751 4.702033
v -0.457723 3.090572 4.702033
v -0.629186 2.949602 4.702033
v -0.526971 2.867651 4.702033
vt 0.839920 0.877436
vt 0.905051 0.875274
vt 0.892968 0.932999
vt 0.753713 0.798191
vt 0.862421 0.788845
vt 0.740706 0.930457
vt 0.781290 0.944618
vt 0.847445 0.960093
vt 0.343600 0.564943
vt 0.351641 0.449870
vt 0.394923 0.533657
vt 0.376978 0.698825
vt 0.497626 0.704916
vt 0.384314 0.771217
vt 0.268802 0.710703
vt 0.268802 0.781594
vt 0.268802 0.569151
vt 0.310222 0.432997
vt 0.471950 0.638594
vt 0.391650 0.843125
vt 0.268802 0.852270
vt 0.493958 0.760813
vt 0.705787 0.923322
vt 0.705787 0.780165
vt 0.774748 0.745209
vt 0.836403 0.876038
vt 0.896822 0.874032
vt 0.857276 0.793856
vt 0.774307 0.817050
vt 0.775945 0.753376
vt 0.744366 0.925224
vt 0.843383 0.952716
vt 0.782015 0.938360
vt 0.705787 0.918604
vt 0.705787 0.796976
vt 0.705787 0.749206
vt 0.885613 0.927581
vt 0.343600 0.566283
vt 0.351641 0.449870
vt 0.310222 0.432997
vt 0.497626 0.708642
vt 0.376978 0.702551
vt 0.384314 0.776702
vt 0.268802 0.714428
vt 0.268802 0.787079
vt 0.268802 0.570491
vt 0.268802 0.429329
vt 0.471950 0.640713
vt 0.391650 0.848610
vt 0.268802 0.857756
vt 0.493958 0.766299
vt 0.394923 0.534997
vt 0.268802 0.429329
vt 0.774837 0.554746
vt 0.823051 0.603561
vt 0.824252 0.552715
vt 0.703016 0.538741
vt 0.776838 0.517904
vt 0.756149 0.619614
vt 0.767235 0.666811
vt 0.781956 0.630216
vt 0.766030 0.578950
vt 0.774837 0.554746
vt 0.779239 0.509902
vt 0.831454 0.550314
vt 0.703016 0.538741
vt 0.703016 0.495082
vt 0.703016 0.570966
vt 0.782240 0.601976
vt 0.831054 0.608362
vt 0.811248 0.626183
vt 0.767235 0.679615
vt 0.703016 0.700821
vt 0.703016 0.502411
vt 0.703016 0.690418
vt 0.822451 0.627783
vt 0.779150 0.619380
vt 0.805462 0.611370
vt 0.769146 0.587173
vt 0.762938 0.612720
vt 0.793918 0.607540
vt 0.571654 0.877436
vt 0.506523 0.875274
vt 0.549154 0.788845
vt 0.657862 0.798191
vt 0.636826 0.745209
vt 0.670868 0.930457
vt 0.564129 0.960093
vt 0.630284 0.944618
vt 0.194004 0.564943
vt 0.185962 0.449870
vt 0.227382 0.432997
vt 0.039978 0.704916
vt 0.160626 0.698825
vt 0.153290 0.771217
vt 0.065654 0.638594
vt 0.145954 0.843125
vt 0.043646 0.760813
vt 0.705787 0.740713
vt 0.575172 0.876038
vt 0.514752 0.874032
vt 0.525962 0.927581
vt 0.637268 0.817050
vt 0.554299 0.793856
vt 0.667208 0.925224
vt 0.629560 0.938360
vt 0.568191 0.952716
vt 0.635629 0.753376
vt 0.518607 0.932999
vt 0.194004 0.566283
vt 0.185962 0.449870
vt 0.142681 0.534997
vt 0.160626 0.702551
vt 0.039978 0.708642
vt 0.153290 0.776702
vt 0.227382 0.432997
vt 0.065654 0.640713
vt 0.145954 0.848610
vt 0.043646 0.766299
vt 0.142681 0.533657
vt 0.631195 0.554746
vt 0.629195 0.517904
vt 0.581781 0.552715
vt 0.638798 0.666811
vt 0.649884 0.619614
vt 0.624077 0.630216
vt 0.640003 0.578950
vt 0.631195 0.554746
vt 0.574979 0.608362
vt 0.574579 0.550314
vt 0.626794 0.509902
vt 0.623793 0.601976
vt 0.583582 0.627783
vt 0.594785 0.626183
vt 0.638798 0.679615
vt 0.582981 0.603561
vt 0.626883 0.619380
vt 0.600570 0.611370
vt 0.636887 0.587173
vt 0.612115 0.607540
vt 0.643095 0.612720
vt 0.703016 0.602309
vn 0.0000 0.0000 -1.0000
vn 0.0241 0.0297 -0.9993
vn 0.0036 0.2600 -0.9656
vn 0.0009 0.2741 -0.9617
vn 0.0023 0.0280 -0.9996
vn 0.0102 0.1018 -0.9947
vn 0.0171 0.1035 -0.9945
vn -0.0000 0.2834 -0.9590
vn 0.3261 0.1609 0.9315
vn 0.1555 0.3124 0.9371
vn -0.1461 -0.1538 0.9772
vn -0.0643 -0.2748 0.9593
vn -0.0509 -0.1738 0.9835
vn 0.0244 0.4103 0.9116
vn 0.0566 0.9522 0.3000
vn 0.4308 0.8656 0.2551
vn -0.3204 -0.9183 0.2327
vn -0.1970 -0.9643 0.1770
vn -0.2213 -0.9461 0.2367
vn 0.4860 -0.8166 0.3113
vn 0.8667 0.4275 0.2569
vn 0.9313 -0.1949 0.3077
vn -0.0125 -0.0306 0.9995
vn -0.0035 -0.2595 0.9657
vn -0.0010 -0.2732 0.9620
vn -0.0025 -0.0280 0.9996
vn 0.0022 -0.1085 0.9941
vn -0.0175 -0.1041 0.9944
vn 0.0000 -0.2834 0.9590
vn 0.9980 -0.0606 -0.0179
vn 0.6427 -0.7347 -0.2171
vn 0.3773 0.9261 0.0000
vn 0.9363 0.3446 0.0676
vn 0.8088 0.5846 0.0644
vn 0.8912 0.4526 0.0314
vn 0.0882 0.9961 0.0000
vn 0.0774 -0.9561 -0.2825
vn 0.2581 -0.0377 0.9654
vn 0.1297 0.3391 0.9317
vn -0.1185 -0.3715 0.9208
vn 0.0765 0.0842 0.9935
vn -0.1970 -0.4426 -0.8748
vn -0.0440 -0.5619 -0.8260
vn -0.1989 -0.0312 -0.9795
vn 0.3668 -0.5036 0.7822
vn -0.0221 0.1934 -0.9809
vn 0.9502 0.0217 0.3108
vn 0.2024 0.9570 0.2077
vn 0.2797 -0.8927 0.3533
vn 0.8205 -0.4104 0.3979
vn 0.5789 0.7916 0.1953
vn 0.2531 0.5439 0.8001
vn 0.3192 0.0281 0.9473
vn -0.0924 0.2978 -0.9502
vn 0.6188 -0.7146 0.3262
vn 0.0000 0.0000 1.0000
vn -0.6081 -0.7397 0.2881
vn -0.1419 0.3404 0.9295
vn 0.8247 -0.2856 0.4882
vn -0.0125 0.0306 -0.9995
vn -0.0036 0.2600 -0.9656
vn -0.0009 0.2741 -0.9617
vn -0.0025 0.0280 -0.9996
vn 0.0022 0.1081 -0.9941
vn -0.0171 0.1035 -0.9945
vn -0.3365 -0.0704 0.9390
vn -0.1923 0.2024 0.9602
vn 0.0889 -0.2547 0.9629
vn 0.0643 -0.2748 0.9593
vn 0.0320 -0.1863 0.9820
vn -0.0927 0.3164 0.9441
vn -0.0618 0.9477 0.3132
vn -0.4308 0.8656 0.2551
vn 0.3204 -0.9183 0.2327
vn 0.1970 -0.9643 0.1770
vn 0.2213 -0.9461 0.2367
vn -0.4860 -0.8166 0.3113
vn -0.8667 0.4275 0.2569
vn -0.9313 -0.1949 0.3077
vn 0.0241 -0.0298 0.9993
vn 0.0035 -0.2595 0.9657
vn 0.0010 -0.2732 0.9620
vn 0.0023 -0.0281 0.9996
vn 0.0102 -0.1023 0.9947
vn 0.0175 -0.1041 0.9944
vn -0.9980 -0.0606 -0.0179
vn -0.6427 -0.7347 -0.2171
vn -0.3773 0.9261 0.0000
vn -0.9336 0.3561 0.0392
vn -0.8069 0.5893 0.0409
vn -0.8885 0.4590 0.0000
vn -0.0882 0.9961 0.0000
vn -0.0774 -0.9561 -0.2825
vn -0.2300 0.3279 0.9163
vn -0.0966 0.4281 0.8986
vn 0.1185 -0.3715 0.9208
vn -0.0765 0.0842 0.9935
vn 0.2487 -0.0861 -0.9647
vn 0.1018 -0.4567 -0.8838
vn 0.1678 0.1884 -0.9676
vn -0.3668 -0.5036 0.7822
vn 0.0221 0.1934 -0.9809
vn -0.9743 -0.0303 0.2234
vn -0.2024 0.9570 0.2077
vn -0.2858 -0.8819 0.3750
vn -0.8158 -0.4522 0.3605
vn -0.5789 0.7916 0.1953
vn -0.2531 0.5439 0.8001
vn -0.2815 0.0058 0.9595
vn 0.0924 0.2978 -0.9502
vn -0.6188 -0.7146 0.3262
vn 0.3952 -0.6924 0.6037
vn 0.1419 0.3404 0.9295
vn -0.8247 -0.2856 0.4882
vn 0.0125 0.0306 -0.9995
vn -0.0030 0.1347 -0.9909
vn -0.0076 0.2590 -0.9659
vn 0.0025 0.0280 -0.9996
vn -0.0022 0.1081 -0.9941
vn -0.0014 0.0715 -0.9974
vn 0.0022 0.2622 -0.9650
vn 0.3365 -0.0704 0.9390
vn 0.1923 0.2024 0.9602
vn -0.0889 -0.2547 0.9629
vn 0.1512 -0.2541 0.9553
vn -0.0320 -0.1863 0.9820
vn 0.0927 0.3164 0.9441
vn 0.0618 0.9477 0.3132
vn -0.1650 -0.9616 0.2194
vn -0.0241 -0.0298 0.9993
vn 0.0030 -0.1351 0.9908
vn 0.0076 -0.2585 0.9660
vn -0.0023 -0.0281 0.9996
vn -0.0102 -0.1023 0.9947
vn 0.0015 -0.0716 0.9974
vn -0.0022 -0.2615 0.9652
vn 0.9981 -0.0603 -0.0118
vn 0.9336 0.3561 0.0392
vn 0.8069 0.5893 0.0409
vn 0.8885 0.4590 0.0000
vn 0.2300 0.3279 0.9163
vn 0.0966 0.4281 0.8986
vn 0.0302 -0.3432 0.9388
vn 0.0988 -0.3872 0.9167
vn 0.1682 -0.2091 0.9633
vn 0.0676 0.0703 0.9952
vn -0.2487 -0.0861 -0.9647
vn -0.1018 -0.4567 -0.8838
vn -0.1678 0.1884 -0.9676
vn 0.3750 -0.3143 0.8721
vn 0.1028 0.2627 -0.9594
vn 0.9743 -0.0303 0.2234
vn 0.1767 0.9719 0.1555
vn 0.2858 -0.8819 0.3750
vn 0.8158 -0.4522 0.3605
vn 0.5794 0.7909 0.1969
vn 0.2427 0.5907 0.7695
vn 0.2815 0.0058 0.9595
vn 0.4274 -0.2862 0.8576
vn 0.6183 -0.7232 0.3076
vn -0.3952 -0.6924 0.6037
vn -0.3352 0.4180 0.8443
vn 0.9195 -0.2234 0.3235
vn -0.0241 0.0297 -0.9993
vn 0.0030 0.1347 -0.9909
vn 0.0076 0.2590 -0.9659
vn -0.0023 0.0280 -0.9996
vn -0.0102 0.1018 -0.9947
vn 0.0014 0.0715 -0.9974
vn -0.0022 0.2622 -0.9650
vn -0.3261 0.1609 0.9315
vn -0.1555 0.3124 0.9371
vn 0.1461 -0.1538 0.9772
vn -0.1512 -0.2541 0.9553
vn 0.0509 -0.1738 0.9835
vn -0.0244 0.4103 0.9116
vn -0.0566 0.9522 0.3000
vn 0.1650 -0.9616 0.2194
vn 0.0125 -0.0306 0.9995
vn -0.0030 -0.1351 0.9908
vn -0.0076 -0.2585 0.9660
vn 0.0025 -0.0280 0.9996
vn -0.0022 -0.1085 0.9941
vn -0.0015 -0.0716 0.9974
vn 0.0022 -0.2615 0.9652
vn -0.9981 -0.0603 -0.0118
vn -0.9363 0.3446 0.0676
vn -0.8088 0.5846 0.0644
vn -0.8912 0.4526 0.0314
vn -0.2581 -0.0377 0.9654
vn -0.1297 0.3391 0.9317
vn -0.0988 -0.3872 0.9167
vn -0.0302 -0.3432 0.9388
vn -0.0676 0.0703 0.9952
vn -0.1682 -0.2091 0.9633
vn 0.1970 -0.4426 -0.8748
vn 0.0440 -0.5619 -0.8260
vn 0.1989 -0.0312 -0.9795
vn -0.3750 -0.3143 0.8721
vn -0.1028 0.2627 -0.9594
vn -0.9502 0.0217 0.3108
vn -0.1767 0.9719 0.1555
vn -0.2797 -0.8927 0.3533
vn -0.8205 -0.4104 0.3979
vn -0.5794 0.7909 0.1969
vn -0.2427 0.5907 0.7695
vn -0.4274 -0.2862 0.8576
vn -0.3192 0.0281 0.9473
vn -0.6183 -0.7232 0.3076
vn 0.6081 -0.7397 0.2881
vn 0.3352 0.4180 0.8443
vn -0.9195 -0.2234 0.3235
usemtl Material.002
s off
f 6/1/1 2/2/1 5/3/1
f 19/4/1 4/5/1 6/1/1
f 18/6/1 6/1/1 3/7/1
f 6/1/1 1/8/1 3/7/1
f 14/9/2 8/10/2 13/11/2
f 12/12/3 15/13/3 16/14/3
f 73/15/4 16/14/4 81/16/4
f 79/17/5 11/18/5 14/9/5
f 73/15/6 14/9/6 12/12/6
f 14/9/7 9/19/7 12/12/7
f 81/16/8 10/20/8 69/21/8
f 16/14/8 7/22/8 10/20/8
f 60/23/1 19/4/1 18/6/1
f 66/24/1 17/25/1 19/4/1
f 25/26/9 21/27/9 23/28/9
f 28/29/10 23/28/10 26/30/10
f 27/31/11 25/26/11 28/29/11
f 20/32/12 25/26/12 22/33/12
f 87/34/13 28/29/13 93/35/13
f 93/35/14 26/30/14 89/36/14
f 17/25/15 89/36/15 26/30/15
f 4/5/16 26/30/16 23/28/16
f 3/7/17 27/31/17 18/6/17
f 18/6/18 87/34/18 60/23/18
f 3/7/19 20/32/19 22/33/19
f 1/8/20 24/37/20 20/32/20
f 4/5/21 21/27/21 2/2/21
f 2/2/22 24/37/22 5/3/22
f 36/38/23 30/39/23 33/40/23
f 37/41/24 34/42/24 38/43/24
f 38/43/25 103/44/25 111/45/25
f 109/46/26 33/40/26 101/47/26
f 103/44/27 36/38/27 109/46/27
f 31/48/28 36/38/28 34/42/28
f 32/49/29 111/45/29 99/50/29
f 29/51/29 38/43/29 32/49/29
f 15/13/30 29/51/30 7/22/30
f 7/22/31 32/49/31 10/20/31
f 11/18/32 30/39/32 8/10/32
f 15/13/33 31/48/33 37/41/33
f 9/19/34 35/52/34 31/48/34
f 13/11/35 30/39/35 35/52/35
f 71/53/36 33/40/36 11/18/36
f 10/20/37 99/50/37 69/21/37
f 43/54/38 42/55/38 39/56/38
f 119/57/39 43/54/39 41/58/39
f 55/59/40 40/60/40 54/61/40
f 119/57/41 52/62/41 43/54/41
f 49/63/42 47/64/42 45/65/42
f 129/66/43 125/67/43 47/64/43
f 132/68/1 129/66/1 49/63/1
f 51/69/44 49/63/44 48/70/44
f 54/61/45 40/60/45 44/71/45
f 46/72/46 124/73/46 132/68/46
f 42/55/47 48/70/47 45/65/47
f 115/74/48 41/58/48 47/64/48
f 114/75/49 124/73/49 46/72/49
f 44/71/50 50/76/50 48/70/50
f 41/58/51 39/56/51 45/65/51
f 55/59/52 54/61/52 59/77/52
f 53/78/53 42/55/53 43/54/53
f 51/69/54 50/76/54 46/72/54
f 50/76/55 44/71/55 40/60/55
f 57/79/56 56/80/56 59/77/56
f 52/62/57 57/79/57 58/81/57
f 54/61/58 53/78/58 58/81/58
f 52/62/59 55/59/59 56/80/59
f 68/82/1 63/83/1 65/84/1
f 86/85/1 65/84/1 84/86/1
f 85/87/1 68/82/1 86/85/1
f 61/88/1 68/82/1 64/89/1
f 80/90/60 72/91/60 76/92/60
f 82/93/61 77/94/61 83/95/61
f 83/95/62 73/15/62 81/16/62
f 79/17/63 76/92/63 71/53/63
f 73/15/64 80/90/64 79/17/64
f 74/96/65 80/90/65 77/94/65
f 75/97/8 81/16/8 69/21/8
f 70/98/8 83/95/8 75/97/8
f 60/23/1 86/85/1 66/24/1
f 66/24/1 84/86/1 62/99/1
f 95/100/66 90/101/66 94/102/66
f 98/103/67 92/104/67 95/100/67
f 97/105/68 95/100/68 91/106/68
f 95/100/69 88/107/69 91/106/69
f 87/34/70 98/103/70 97/105/70
f 93/35/71 96/108/71 98/103/71
f 84/86/72 89/36/72 62/99/72
f 65/84/73 96/108/73 84/86/73
f 97/105/74 64/89/74 85/87/74
f 87/34/75 85/87/75 60/23/75
f 64/89/76 88/107/76 61/88/76
f 61/88/77 94/102/77 67/109/77
f 90/101/78 65/84/78 63/83/78
f 94/102/79 63/83/79 67/109/79
f 110/110/80 102/111/80 108/112/80
f 107/113/81 112/114/81 113/115/81
f 103/44/82 113/115/82 111/45/82
f 109/46/83 106/116/83 110/110/83
f 103/44/84 110/110/84 107/113/84
f 110/110/85 104/117/85 107/113/85
f 111/45/29 105/118/29 99/50/29
f 113/115/29 100/119/29 105/118/29
f 100/119/86 82/93/86 70/98/86
f 105/118/87 70/98/87 75/97/87
f 102/111/88 76/92/88 72/91/88
f 82/93/89 104/117/89 74/96/89
f 74/96/90 108/112/90 78/120/90
f 78/120/91 102/111/91 72/91/91
f 106/116/92 71/53/92 76/92/92
f 69/21/93 105/118/93 75/97/93
f 121/121/94 118/122/94 116/123/94
f 119/57/95 115/74/95 118/122/95
f 117/124/96 138/125/96 137/126/96
f 135/127/97 119/57/97 121/121/97
f 131/128/98 130/129/98 126/130/98
f 129/66/99 131/128/99 128/131/99
f 132/68/1 134/132/1 131/128/1
f 134/132/100 133/133/100 130/129/100
f 123/134/101 117/124/101 137/126/101
f 132/68/102 124/73/102 127/135/102
f 120/136/103 116/123/103 126/130/103
f 128/131/104 118/122/104 115/74/104
f 114/75/105 117/124/105 127/135/105
f 123/134/106 120/136/106 130/129/106
f 126/130/107 116/123/107 118/122/107
f 142/137/108 137/126/108 138/125/108
f 121/121/109 136/138/109 135/127/109
f 134/132/110 127/135/110 133/133/110
f 117/124/111 123/134/111 133/133/111
f 140/139/56 141/140/56 142/137/56
f 135/127/112 136/138/112 141/140/112
f 141/140/113 136/138/113 137/126/113
f 139/141/114 138/125/114 135/127/114
f 6/1/1 4/5/1 2/2/1
f 19/4/1 17/25/1 4/5/1
f 18/6/1 19/4/1 6/1/1
f 6/1/1 5/3/1 1/8/1
f 14/9/115 11/18/115 8/10/115
f 12/12/116 9/19/116 15/13/116
f 73/15/117 12/12/117 16/14/117
f 79/17/118 71/53/118 11/18/118
f 73/15/119 79/17/119 14/9/119
f 14/9/120 13/11/120 9/19/120
f 81/16/8 16/14/8 10/20/8
f 16/14/121 15/13/121 7/22/121
f 60/23/1 66/24/1 19/4/1
f 66/24/1 62/99/1 17/25/1
f 25/26/122 24/37/122 21/27/122
f 28/29/123 25/26/123 23/28/123
f 27/31/124 22/33/124 25/26/124
f 20/32/125 24/37/125 25/26/125
f 87/34/126 27/31/126 28/29/126
f 93/35/127 28/29/127 26/30/127
f 17/25/128 62/99/128 89/36/128
f 4/5/16 17/25/16 26/30/16
f 3/7/17 22/33/17 27/31/17
f 18/6/129 27/31/129 87/34/129
f 3/7/19 1/8/19 20/32/19
f 1/8/20 5/3/20 24/37/20
f 4/5/21 23/28/21 21/27/21
f 2/2/22 21/27/22 24/37/22
f 36/38/130 35/52/130 30/39/130
f 37/41/131 31/48/131 34/42/131
f 38/43/132 34/42/132 103/44/132
f 109/46/133 36/38/133 33/40/133
f 103/44/134 34/42/134 36/38/134
f 31/48/135 35/52/135 36/38/135
f 32/49/29 38/43/29 111/45/29
f 29/51/136 37/41/136 38/43/136
f 15/13/137 37/41/137 29/51/137
f 7/22/31 29/51/31 32/49/31
f 11/18/32 33/40/32 30/39/32
f 15/13/138 9/19/138 31/48/138
f 9/19/139 13/11/139 35/52/139
f 13/11/140 8/10/140 30/39/140
f 71/53/36 101/47/36 33/40/36
f 10/20/37 32/49/37 99/50/37
f 43/54/141 39/56/141 41/58/141
f 119/57/142 41/58/142 115/74/142
f 40/60/143 55/59/143 114/75/143
f 114/75/144 55/59/144 122/142/144
f 55/59/145 52/62/145 122/142/145
f 122/142/146 52/62/146 119/57/146
f 49/63/147 45/65/147 48/70/147
f 129/66/148 47/64/148 49/63/148
f 132/68/1 49/63/1 51/69/1
f 51/69/149 48/70/149 50/76/149
f 54/61/150 44/71/150 53/78/150
f 46/72/151 132/68/151 51/69/151
f 42/55/152 45/65/152 39/56/152
f 115/74/153 47/64/153 125/67/153
f 114/75/154 46/72/154 40/60/154
f 44/71/155 48/70/155 42/55/155
f 41/58/156 45/65/156 47/64/156
f 55/59/157 59/77/157 56/80/157
f 53/78/158 43/54/158 52/62/158
f 42/55/159 53/78/159 44/71/159
f 50/76/160 40/60/160 46/72/160
f 57/79/56 59/77/56 58/81/56
f 52/62/161 58/81/161 53/78/161
f 54/61/162 58/81/162 59/77/162
f 52/62/163 56/80/163 57/79/163
f 68/82/1 67/109/1 63/83/1
f 86/85/1 68/82/1 65/84/1
f 85/87/1 64/89/1 68/82/1
f 61/88/1 67/109/1 68/82/1
f 80/90/164 78/120/164 72/91/164
f 82/93/165 74/96/165 77/94/165
f 83/95/166 77/94/166 73/15/166
f 79/17/167 80/90/167 76/92/167
f 73/15/168 77/94/168 80/90/168
f 74/96/169 78/120/169 80/90/169
f 75/97/8 83/95/8 81/16/8
f 70/98/170 82/93/170 83/95/170
f 60/23/1 85/87/1 86/85/1
f 66/24/1 86/85/1 84/86/1
f 95/100/171 92/104/171 90/101/171
f 98/103/172 96/108/172 92/104/172
f 97/105/173 98/103/173 95/100/173
f 95/100/174 94/102/174 88/107/174
f 87/34/175 93/35/175 98/103/175
f 93/35/176 89/36/176 96/108/176
f 84/86/177 96/108/177 89/36/177
f 65/84/73 92/104/73 96/108/73
f 97/105/74 91/106/74 64/89/74
f 87/34/178 97/105/178 85/87/178
f 64/89/76 91/106/76 88/107/76
f 61/88/77 88/107/77 94/102/77
f 90/101/78 92/104/78 65/84/78
f 94/102/79 90/101/79 63/83/79
f 110/110/179 106/116/179 102/111/179
f 107/113/180 104/117/180 112/114/180
f 103/44/181 107/113/181 113/115/181
f 109/46/182 101/47/182 106/116/182
f 103/44/183 109/46/183 110/110/183
f 110/110/184 108/112/184 104/117/184
f 111/45/29 113/115/29 105/118/29
f 113/115/185 112/114/185 100/119/185
f 100/119/186 112/114/186 82/93/186
f 105/118/87 100/119/87 70/98/87
f 102/111/88 106/116/88 76/92/88
f 82/93/187 112/114/187 104/117/187
f 74/96/188 104/117/188 108/112/188
f 78/120/189 108/112/189 102/111/189
f 106/116/92 101/47/92 71/53/92
f 69/21/93 99/50/93 105/118/93
f 121/121/190 116/123/190 120/136/190
f 119/57/191 118/122/191 121/121/191
f 122/142/192 138/125/192 114/75/192
f 114/75/193 138/125/193 117/124/193
f 119/57/194 135/127/194 122/142/194
f 122/142/195 135/127/195 138/125/195
f 131/128/196 126/130/196 128/131/196
f 129/66/197 128/131/197 125/67/197
f 132/68/1 131/128/1 129/66/1
f 134/132/198 130/129/198 131/128/198
f 123/134/199 137/126/199 136/138/199
f 132/68/200 127/135/200 134/132/200
f 120/136/201 126/130/201 130/129/201
f 128/131/202 115/74/202 125/67/202
f 114/75/203 127/135/203 124/73/203
f 123/134/204 130/129/204 133/133/204
f 126/130/205 118/122/205 128/131/205
f 142/137/206 138/125/206 139/141/206
f 136/138/207 120/136/207 123/134/207
f 120/136/208 136/138/208 121/121/208
f 117/124/209 133/133/209 127/135/209
f 140/139/56 142/137/56 139/141/56
f 135/127/210 141/140/210 140/139/210
f 141/140/211 137/126/211 142/137/211
f 139/141/212 135/127/212 140/139/212
