# Blender v2.90.1 OBJ File: '2021_glasses.blend'
# www.blender.org
mtllib 2021_glasses._voxel.mtl
o 2021_glasses_voxel_geo_Cube.2
v -3.584790 1.959252 4.445260
v -4.031368 1.516219 4.445260
v -0.458745 1.516219 4.445260
v 4.453610 1.959252 4.445260
v 4.453610 4.617453 4.445261
v 4.007032 4.174419 4.445260
v 4.453610 4.174420 -0.871143
v 4.007032 4.174420 -0.871143
v 4.007032 4.174420 -0.428108
v -4.477945 4.617453 4.445261
v 4.007032 4.617454 4.002227
v -4.477945 1.959252 4.445260
v -4.031368 2.402286 4.445260
v 0.434410 2.402286 4.445260
v -0.458745 2.402286 4.445260
v -0.458745 1.959252 4.445260
v 0.880988 2.402286 4.002226
v 0.880988 1.959252 4.002226
v 0.434410 1.959252 4.002226
v 0.880988 1.959252 4.445260
v 3.560455 1.959252 4.445260
v -0.905323 2.402286 4.002226
v -0.458745 2.402286 4.002226
v -0.458745 1.959252 4.002226
v -4.477945 4.617454 -0.428108
v -4.031368 4.617454 4.002227
v 4.007032 4.174420 4.002226
v 4.007032 3.731387 0.014925
v 4.007032 3.731386 4.002226
v 4.007032 2.402287 0.014924
v 4.453610 2.402287 0.014924
v 4.453610 3.731387 0.014925
v 4.007032 2.402287 -0.871143
v 0.880988 2.402286 4.445260
v 0.434410 2.402286 4.002226
v 4.007032 1.959252 4.445260
v 4.007032 1.959252 4.002226
v 4.453610 1.959252 4.002226
v 4.007032 1.516219 4.445260
v -3.584790 2.402286 4.445260
v -4.031368 1.959252 4.445260
v -4.031368 1.516219 4.002226
v -4.031368 1.959252 4.002226
v -3.584790 1.959252 4.002226
v 4.007032 2.402286 4.002226
v 4.007032 2.402286 4.445260
v 4.007032 4.617454 -0.428108
v 0.434410 4.174419 4.445260
v 0.434410 1.516219 4.002226
v 0.434410 4.174420 4.002226
v 3.560455 1.959252 4.002226
v 4.007032 1.516219 4.002226
v 3.560455 2.402286 4.002226
v 3.560455 2.402286 4.445260
v 0.434410 1.516219 4.445260
v 0.434410 1.959252 4.445260
v 4.453610 2.402287 -0.871143
v -0.458745 4.174420 4.002226
v 4.453610 4.617454 -0.428108
v 4.453610 4.174420 -0.428108
v 4.453610 3.731386 4.002226
v -0.458745 1.516219 4.002226
v -0.905323 1.959252 4.002226
v -4.031368 4.174420 4.002226
v -4.477945 1.959252 4.002226
v -4.031368 2.402286 4.002226
v -0.905323 1.959252 4.445260
v -4.031368 4.174420 -0.871143
v -4.477945 4.174420 -0.871143
v -4.477945 4.174420 -0.428108
v -4.477945 3.731387 0.014925
v -0.905323 2.402286 4.445260
v -4.031368 4.174419 4.445260
v -4.031368 3.731386 4.002226
v -4.477945 2.402287 0.014924
v -4.031368 2.402287 0.014924
v -4.031368 3.731387 0.014925
v -4.031368 2.402287 -0.871143
v -4.031368 4.174420 -0.428108
v -0.458745 4.174419 4.445260
v -3.584790 2.402286 4.002226
v -4.477945 3.731386 4.002226
v -4.031368 4.617454 -0.428108
v -4.477945 2.402287 -0.871143
v -4.442502 5.131372 4.666777
v -4.442502 4.245305 4.666777
v -3.999470 4.688339 4.666777
v 4.422315 4.245305 4.223743
v 4.422315 4.688339 4.223743
v 4.422315 4.688339 4.666777
v -2.227335 4.245305 4.666777
v 3.979281 7.346540 4.223744
v 3.536247 7.346540 4.223744
v 3.536247 7.346540 4.666778
v -3.556436 5.574405 4.666777
v -3.999470 5.574405 4.666777
v -3.999470 5.131372 4.666777
v 2.361107 6.903506 4.223743
v 2.361107 7.346540 4.223744
v 2.804140 6.017440 4.223743
v -2.670368 6.017439 4.666777
v -3.556436 6.017439 4.666777
v 2.804140 6.903506 4.223743
v 0.588973 6.460474 4.223743
v -3.999470 6.903506 4.666777
v -4.442502 6.903506 4.666777
v -4.442502 6.460473 4.666777
v 1.032006 6.460474 4.223743
v 1.032006 6.903506 4.223743
v -2.227335 6.903506 4.666777
v -2.670368 6.903506 4.666777
v 2.361107 5.574406 4.223743
v -2.670368 7.346540 4.666778
v -3.999470 7.346540 4.666778
v 2.361107 6.017440 4.223743
v 1.032006 5.131373 4.223743
v 1.475039 5.131373 4.223743
v -3.999470 4.688339 4.223743
v -4.442502 4.245305 4.223743
v -4.442502 5.131373 4.223743
v -2.227335 4.245305 4.223743
v 1.475039 5.574406 4.223743
v 2.804140 4.245305 4.223743
v 0.588973 5.131373 4.223743
v -3.556436 5.574406 4.223743
v -3.556436 5.131373 4.223743
v -3.999470 5.131373 4.223743
v 0.588973 4.245305 4.223743
v -2.670368 6.017440 4.223743
v -2.670368 5.574406 4.223743
v 1.032006 4.688339 4.223743
v 1.032006 7.346540 4.666778
v -3.999470 6.903506 4.223743
v -3.999470 6.460474 4.223743
v -4.442502 6.460474 4.223743
v 2.361107 7.346540 4.666778
v 2.361107 6.903506 4.666777
v -2.227335 6.903506 4.223743
v -2.227335 6.017440 4.223743
v 2.804140 6.903506 4.666777
v 0.588973 6.460473 4.666777
v -2.670368 7.346540 4.223744
v -2.670368 6.903506 4.223743
v 0.588973 6.903506 4.666777
v -1.503859 4.688339 4.223743
v -1.503859 4.245305 4.223743
v -1.503859 4.245305 4.666777
v -0.174758 4.688339 4.223743
v -1.503859 4.688339 4.666777
v -0.174758 4.245305 4.223743
v -0.174758 4.688339 4.666777
v -0.174758 4.245305 4.666777
v 3.536247 6.460474 4.223743
v 3.536247 6.903506 4.223743
v 1.032006 6.903506 4.666777
v 3.979281 4.688339 4.223743
v 3.093214 6.460474 4.223743
v 3.093214 6.903506 4.223743
v -1.946892 6.903506 4.223743
v -1.946892 4.688339 4.223743
v -1.946892 4.688339 4.666777
v -1.503859 6.903506 4.223743
v -1.946892 6.903506 4.666777
v 3.536247 4.688339 4.666777
v 3.093214 4.688339 4.666777
v 3.093214 4.245305 4.666777
v 3.093214 4.688339 4.223743
v 3.536247 4.688339 4.223743
v 3.093214 4.245305 4.223743
v -1.503859 6.903506 4.666777
v -0.174758 6.903506 4.223743
v 1.475039 6.017439 4.666777
v 2.361107 6.017439 4.666777
v 1.032006 5.131372 4.666777
v 1.032006 5.574405 4.666777
v 1.475039 5.574405 4.666777
v 3.979281 7.346540 4.666778
v 3.536247 6.460473 4.666777
v 3.979281 4.688339 4.666777
v 0.268276 6.903506 4.223743
v -0.174758 6.903506 4.666777
v 0.268276 4.688339 4.223743
v 0.268276 6.903506 4.666777
v 0.268276 4.688339 4.666777
v -1.503859 7.346540 4.223744
v -0.174758 7.346540 4.223744
v -1.503859 7.346540 4.666778
v -0.174758 7.346540 4.666778
v 2.804140 4.245305 4.666777
v 1.032006 4.688339 4.666777
v 0.588973 4.245305 4.666777
v 0.588973 5.131372 4.666777
v 3.536247 6.903506 4.666777
v 4.422315 4.245305 4.666777
v 3.093214 6.903506 4.666777
v 3.093214 6.460473 4.666777
v -2.227335 4.688339 4.223743
v -2.227335 4.688339 4.666777
v -3.999470 5.574406 4.223743
v -3.556436 5.131372 4.666777
v -3.556436 6.017440 4.223743
v -2.670368 5.574405 4.666777
v -4.442502 6.903506 4.223743
v -3.999470 6.460473 4.666777
v -2.227335 6.017439 4.666777
v -3.999470 7.346540 4.223744
v 2.804140 4.688339 4.223743
v 2.804140 4.688339 4.666777
v 1.032006 5.574406 4.223743
v 1.475039 5.131372 4.666777
v 1.475039 6.017440 4.223743
v 2.361107 5.574405 4.666777
v 0.588973 6.903506 4.223743
v 1.032006 6.460473 4.666777
v 2.804140 6.017439 4.666777
v 1.032006 7.346540 4.223744
vt 0.080078 0.596680
vt 0.049805 0.625000
vt 0.285156 0.625000
vt 0.608398 0.596680
vt 0.608398 0.421875
vt 0.579102 0.450195
vt 0.973633 0.449219
vt 0.973633 0.449219
vt 0.943359 0.449219
vt 0.021484 0.421875
vt 0.579102 0.421875
vt 0.021484 0.596680
vt 0.049805 0.568359
vt 0.343750 0.568359
vt 0.285156 0.568359
vt 0.285156 0.596680
vt 0.374023 0.568359
vt 0.374023 0.596680
vt 0.343750 0.596680
vt 0.374023 0.596680
vt 0.549805 0.596680
vt 0.256836 0.568359
vt 0.285156 0.568359
vt 0.285156 0.596680
vt 0.943359 0.419922
vt 0.623047 0.419922
vt 0.652344 0.419922
vt 0.652344 0.449219
vt 0.914062 0.479492
vt 0.652344 0.479492
vt 0.914062 0.566406
vt 0.914062 0.566406
vt 0.914062 0.479492
vt 0.973633 0.566406
vt 0.374023 0.568359
vt 0.343750 0.568359
vt 0.579102 0.596680
vt 0.579102 0.596680
vt 0.608398 0.596680
vt 0.579102 0.625000
vt 0.080078 0.568359
vt 0.049805 0.596680
vt 0.049805 0.625000
vt 0.049805 0.596680
vt 0.080078 0.596680
vt 0.579102 0.480469
vt 0.579102 0.568359
vt 0.579102 0.568359
vt 0.652344 0.419922
vt 0.943359 0.419922
vt 0.579102 0.450195
vt 0.343750 0.450195
vt 0.343750 0.625000
vt 0.343750 0.450195
vt 0.549805 0.596680
vt 0.579102 0.625000
vt 0.549805 0.568359
vt 0.549805 0.568359
vt 0.343750 0.625000
vt 0.343750 0.596680
vt 0.973633 0.566406
vt 0.285156 0.450195
vt 0.943359 0.419922
vt 0.943359 0.449219
vt 0.623047 0.595703
vt 0.652344 0.595703
vt 0.652344 0.479492
vt 0.623047 0.419922
vt 0.285156 0.625000
vt 0.256836 0.596680
vt 0.049805 0.450195
vt 0.049805 0.421875
vt 0.021484 0.596680
vt 0.049805 0.568359
vt 0.256836 0.596680
vt 0.973633 0.449219
vt 0.973633 0.449219
vt 0.943359 0.449219
vt 0.608398 0.480469
vt 0.914062 0.479492
vt 0.256836 0.568359
vt 0.049805 0.450195
vt 0.049805 0.480469
vt 0.914062 0.566406
vt 0.914062 0.566406
vt 0.914062 0.479492
vt 0.973633 0.566406
vt 0.652344 0.449219
vt 0.943359 0.449219
vt 0.285156 0.450195
vt 0.080078 0.568359
vt 0.623047 0.595703
vt 0.652344 0.479492
vt 0.021484 0.480469
vt 0.943359 0.419922
vt 0.973633 0.566406
vt 0.018555 0.286133
vt 0.018555 0.382812
vt 0.066406 0.333984
vt 0.987305 0.382812
vt 0.987305 0.333984
vt 0.987305 0.333984
vt 0.260742 0.382812
vt 0.938477 0.042969
vt 0.890625 0.042969
vt 0.890625 0.042969
vt 0.115234 0.237305
vt 0.066406 0.237305
vt 0.066406 0.286133
vt 0.617188 0.286133
vt 0.617188 0.286133
vt 0.666016 0.286133
vt 0.212891 0.189453
vt 0.115234 0.189453
vt 0.666016 0.286133
vt 0.666016 0.237305
vt 0.066406 0.092773
vt 0.018555 0.092773
vt 0.018555 0.140625
vt 0.666016 0.237305
vt 0.617188 0.237305
vt 0.260742 0.092773
vt 0.212891 0.092773
vt 0.617188 0.237305
vt 0.212891 0.042969
vt 0.066406 0.042969
vt 0.569336 0.382812
vt 0.569336 0.382812
vt 0.810547 0.382812
vt 0.066406 0.333984
vt 0.018555 0.382812
vt 0.018555 0.286133
vt 0.260742 0.382812
vt 0.810547 0.382812
vt 0.810547 0.333984
vt 0.810547 0.333984
vt 0.617188 0.333984
vt 0.115234 0.237305
vt 0.115234 0.286133
vt 0.066406 0.286133
vt 0.617188 0.333984
vt 0.212891 0.189453
vt 0.212891 0.237305
vt 0.569336 0.286133
vt 0.066406 0.092773
vt 0.066406 0.140625
vt 0.018555 0.140625
vt 0.569336 0.286133
vt 0.260742 0.092773
vt 0.260742 0.189453
vt 0.617188 0.042969
vt 0.761719 0.042969
vt 0.617188 0.092773
vt 0.212891 0.042969
vt 0.212891 0.092773
vt 0.761719 0.092773
vt 0.810547 0.092773
vt 0.761719 0.189453
vt 0.339844 0.333984
vt 0.339844 0.382812
vt 0.339844 0.382812
vt 0.484375 0.333984
vt 0.339844 0.333984
vt 0.484375 0.382812
vt 0.484375 0.333984
vt 0.484375 0.382812
vt 0.890625 0.140625
vt 0.890625 0.092773
vt 0.569336 0.092773
vt 0.569336 0.140625
vt 0.938477 0.333984
vt 0.841797 0.140625
vt 0.841797 0.092773
vt 0.291016 0.092773
vt 0.291016 0.333984
vt 0.291016 0.333984
vt 0.339844 0.092773
vt 0.291016 0.092773
vt 0.890625 0.333984
vt 0.841797 0.333984
vt 0.841797 0.382812
vt 0.666016 0.189453
vt 0.841797 0.333984
vt 0.890625 0.333984
vt 0.841797 0.382812
vt 0.339844 0.092773
vt 0.484375 0.092773
vt 0.938477 0.042969
vt 0.890625 0.140625
vt 0.938477 0.333984
vt 0.533203 0.092773
vt 0.484375 0.092773
vt 0.533203 0.333984
vt 0.533203 0.092773
vt 0.533203 0.333984
vt 0.339844 0.042969
vt 0.484375 0.042969
vt 0.339844 0.042969
vt 0.484375 0.042969
vt 0.761719 0.092773
vt 0.761719 0.042969
vt 0.617188 0.092773
vt 0.810547 0.189453
vt 0.810547 0.092773
vt 0.761719 0.189453
vt 0.617188 0.140625
vt 0.569336 0.140625
vt 0.761719 0.237305
vt 0.890625 0.092773
vt 0.987305 0.382812
vt 0.841797 0.092773
vt 0.841797 0.140625
vt 0.617188 0.042969
vt 0.810547 0.189453
vt 0.617188 0.140625
vt 0.260742 0.333984
vt 0.260742 0.333984
vt 0.066406 0.237305
vt 0.115234 0.286133
vt 0.115234 0.189453
vt 0.212891 0.237305
vt 0.018555 0.092773
vt 0.066406 0.140625
vt 0.260742 0.189453
vt 0.066406 0.042969
vt 0.652344 0.479492
vt 0.652344 0.595703
vt 0.569336 0.092773
vt 0.761719 0.237305
vt 0.666016 0.189453
vn 0.0000 0.0000 1.0000
vn 0.0000 1.0000 0.0000
vn 0.0000 0.0000 -1.0000
vn 1.0000 0.0000 0.0000
vn -1.0000 0.0000 0.0000
vn 0.0000 -1.0000 -0.0000
usemtl Mat.001
s 1
f 1/1/1 2/2/1 3/3/1
f 4/4/1 5/5/1 6/6/1
f 7/7/2 8/8/2 9/9/2
f 10/10/2 5/5/2 11/11/2
f 10/10/1 12/12/1 13/13/1
f 14/14/1 15/15/1 16/16/1
f 17/17/3 18/18/3 19/19/3
f 18/18/2 20/20/2 21/21/2
f 22/22/3 23/23/3 24/24/3
f 25/25/2 10/26/2 26/27/2
f 20/20/4 18/18/4 17/17/4
f 27/28/5 28/29/5 29/30/5
f 30/31/1 31/32/1 32/33/1
f 33/34/5 30/31/5 28/29/5
f 34/35/2 17/17/2 35/36/2
f 9/9/5 8/8/5 28/29/5
f 36/37/6 37/38/6 38/39/6
f 21/21/1 39/40/1 36/37/1
f 40/41/1 13/13/1 41/42/1
f 42/43/3 43/44/3 44/45/3
f 29/46/5 45/47/5 46/48/5
f 11/49/5 47/50/5 28/29/5
f 27/51/6 6/6/6 48/52/6
f 37/38/4 36/37/4 39/40/4
f 49/53/3 19/19/3 18/18/3
f 14/14/4 35/36/4 50/54/4
f 51/55/3 37/38/3 52/56/3
f 46/48/2 45/47/2 53/57/2
f 16/16/6 24/24/6 19/19/6
f 51/55/5 21/21/5 54/58/5
f 49/53/5 55/59/5 56/60/5
f 57/61/4 7/7/4 32/33/4
f 52/56/6 39/40/6 55/59/6
f 58/62/3 50/54/3 35/36/3
f 46/48/1 36/37/1 4/4/1
f 47/50/3 59/63/3 60/64/3
f 32/33/4 7/7/4 60/64/4
f 33/34/3 8/8/3 7/7/3
f 49/53/3 18/18/3 51/55/3
f 33/34/6 57/61/6 31/32/6
f 4/65/4 38/66/4 61/67/4
f 59/63/4 5/68/4 61/67/4
f 24/24/3 62/69/3 63/70/3
f 32/33/6 61/67/6 29/30/6
f 54/58/1 21/21/1 36/37/1
f 1/1/1 41/42/1 2/2/1
f 47/50/5 9/9/5 28/29/5
f 58/62/3 64/71/3 26/72/3
f 15/15/1 14/14/1 48/52/1
f 43/44/3 65/73/3 66/74/3
f 32/33/4 60/64/4 59/63/4
f 67/75/1 3/3/1 16/16/1
f 48/52/1 5/5/1 10/10/1
f 68/76/2 69/77/2 70/78/2
f 59/63/2 47/50/2 11/49/2
f 53/57/3 45/47/3 37/38/3
f 48/52/1 6/6/1 5/5/1
f 11/11/3 27/51/3 50/54/3
f 67/75/2 63/70/2 44/45/2
f 61/79/3 38/39/3 45/47/3
f 70/78/5 69/77/5 71/80/5
f 63/70/5 67/75/5 72/81/5
f 64/71/4 73/82/4 74/83/4
f 75/84/1 76/85/1 77/86/1
f 78/87/4 68/76/4 77/86/4
f 22/22/2 72/81/2 15/15/2
f 26/27/4 64/88/4 77/86/4
f 43/44/6 41/42/6 12/12/6
f 14/14/1 56/60/1 20/20/1
f 55/59/1 39/40/1 21/21/1
f 45/47/3 38/39/3 37/38/3
f 74/83/4 73/82/4 13/13/4
f 77/86/4 68/76/4 79/89/4
f 73/82/6 64/71/6 58/62/6
f 41/42/5 43/44/5 42/43/5
f 26/72/3 11/11/3 50/54/3
f 23/23/5 15/15/5 80/90/5
f 44/45/3 63/70/3 62/69/3
f 66/74/2 13/13/2 40/41/2
f 13/13/1 12/12/1 41/42/1
f 1/1/4 44/45/4 81/91/4
f 3/3/4 62/69/4 24/24/4
f 12/92/5 10/26/5 82/93/5
f 2/2/6 42/43/6 62/69/6
f 82/94/3 74/83/3 66/74/3
f 73/82/1 80/90/1 10/10/1
f 25/25/3 83/95/3 79/89/3
f 25/25/5 70/78/5 71/80/5
f 68/76/3 78/87/3 84/96/3
f 66/74/3 81/91/3 44/45/3
f 84/96/6 78/87/6 76/85/6
f 84/96/5 75/84/5 71/80/5
f 10/26/5 25/25/5 71/80/5
f 23/23/3 35/36/3 19/19/3
f 82/93/6 71/80/6 77/86/6
f 72/81/1 67/75/1 16/16/1
f 20/20/1 56/60/1 55/59/1
f 77/86/4 79/89/4 83/95/4
f 85/97/1 86/98/1 87/99/1
f 88/100/4 89/101/4 90/102/4
f 87/99/1 86/98/1 91/103/1
f 92/104/2 93/105/2 94/106/2
f 95/107/1 96/108/1 97/109/1
f 174/110/6 116/111/6 210/112/6
f 101/113/1 102/114/1 95/107/1
f 210/112/4 117/115/4 176/116/4
f 105/117/1 106/118/1 107/119/1
f 176/116/2 122/120/2 175/121/2
f 110/122/1 111/123/1 101/113/1
f 175/121/5 209/124/5 174/110/5
f 113/125/1 114/126/1 105/117/1
f 191/127/6 128/128/6 189/129/6
f 118/130/3 119/131/3 120/132/3
f 121/133/3 119/131/3 118/130/3
f 189/129/4 123/134/4 208/135/4
f 208/135/2 207/136/2 190/137/2
f 125/138/3 126/139/3 127/140/3
f 190/137/4 131/141/4 174/110/4
f 129/142/3 130/143/3 125/138/3
f 174/110/2 116/111/2 192/144/2
f 133/145/3 134/146/3 135/147/3
f 192/144/5 124/148/5 191/127/5
f 138/149/3 139/150/3 129/142/3
f 216/151/3 99/152/3 109/153/3
f 142/154/3 143/155/3 133/145/3
f 98/156/3 103/157/3 115/158/3
f 145/159/5 146/160/5 147/161/5
f 148/162/2 145/159/2 149/163/2
f 150/164/4 148/162/4 151/165/4
f 146/160/6 150/164/6 152/166/6
f 153/167/3 154/168/3 92/104/3
f 213/169/3 109/153/3 104/170/3
f 156/171/3 89/101/3 88/100/3
f 157/172/3 158/173/3 154/168/3
f 159/174/5 160/175/5 161/176/5
f 162/177/2 159/174/2 163/178/2
f 164/179/1 165/180/1 166/181/1
f 153/167/3 92/104/3 156/171/3
f 211/182/3 115/158/3 122/120/3
f 167/183/3 168/184/3 169/185/3
f 145/159/4 162/177/4 170/186/4
f 160/175/6 145/159/6 149/163/6
f 171/187/5 148/162/5 151/165/5
f 209/124/3 122/120/3 116/111/3
f 207/136/3 123/134/3 131/141/3
f 156/171/4 92/104/4 177/188/4
f 178/189/1 164/179/1 179/190/1
f 180/191/2 171/187/2 181/192/2
f 182/193/4 180/191/4 183/194/4
f 148/162/6 182/193/6 184/195/6
f 185/196/5 162/177/5 170/186/5
f 186/197/2 185/196/2 187/198/2
f 171/187/4 186/197/4 188/199/4
f 162/177/6 171/187/6 181/192/6
f 151/165/1 149/163/1 147/161/1
f 116/111/3 131/141/3 124/148/3
f 137/200/1 136/201/1 155/202/1
f 215/203/1 140/204/1 173/205/1
f 214/206/1 155/202/1 141/207/1
f 212/208/1 173/205/1 176/116/1
f 210/112/1 176/116/1 174/110/1
f 208/135/1 190/137/1 189/129/1
f 174/110/1 192/144/1 190/137/1
f 163/178/1 161/176/1 149/163/1
f 93/105/5 154/168/5 193/209/5
f 109/153/6 98/156/6 137/200/6
f 169/185/6 88/100/6 194/210/6
f 177/188/1 193/209/1 178/189/1
f 195/211/1 196/212/1 178/189/1
f 184/195/1 183/194/1 181/192/1
f 188/199/1 187/198/1 170/186/1
f 98/156/4 99/152/4 136/201/4
f 148/162/3 150/164/3 146/160/3
f 99/152/2 216/151/2 132/213/2
f 154/168/3 93/105/3 92/104/3
f 216/151/5 109/153/5 155/202/5
f 88/100/3 169/185/3 168/184/3
f 164/179/1 166/181/1 194/210/1
f 115/158/6 100/214/6 215/203/6
f 100/214/4 103/157/4 140/204/4
f 160/175/3 159/174/3 162/177/3
f 103/157/2 98/156/2 137/200/2
f 194/210/1 90/102/1 179/190/1
f 98/156/5 115/158/5 173/205/5
f 177/188/1 94/106/1 193/209/1
f 104/170/6 108/215/6 214/206/6
f 180/191/3 182/193/3 148/162/3
f 108/215/4 109/153/4 155/202/4
f 186/197/3 171/187/3 162/177/3
f 89/101/2 156/171/2 179/190/2
f 167/183/5 169/185/5 166/181/5
f 168/184/2 167/183/2 165/180/2
f 153/167/5 168/184/5 164/179/5
f 157/172/6 153/167/6 178/189/6
f 158/173/5 157/172/5 196/212/5
f 154/168/2 158/173/2 195/211/2
f 120/132/5 119/131/5 86/98/5
f 127/140/2 120/132/2 85/97/2
f 118/130/4 127/140/4 97/109/4
f 197/216/2 118/130/2 87/99/2
f 121/133/4 197/216/4 198/217/4
f 119/131/6 121/133/6 91/103/6
f 199/218/5 127/140/5 97/109/5
f 125/138/2 199/218/2 96/108/2
f 126/139/4 125/138/4 95/107/4
f 127/140/6 126/139/6 200/219/6
f 201/220/5 125/138/5 95/107/5
f 129/142/2 201/220/2 102/114/2
f 130/143/4 129/142/4 101/113/4
f 125/138/6 130/143/6 202/221/6
f 203/222/5 135/147/5 107/119/5
f 133/145/2 203/222/2 106/118/2
f 134/146/4 133/145/4 105/117/4
f 135/147/6 134/146/6 204/223/6
f 143/155/5 129/142/5 101/113/5
f 138/149/2 143/155/2 111/123/2
f 139/150/4 138/149/4 110/122/4
f 129/142/6 139/150/6 205/224/6
f 206/225/5 133/145/5 105/117/5
f 142/154/2 206/225/2 114/126/2
f 143/155/4 142/154/4 113/125/4
f 133/145/6 143/155/6 111/123/6
f 67/75/1 1/1/1 3/3/1
f 46/48/1 4/4/1 6/6/1
f 60/64/2 7/7/2 9/9/2
f 26/72/2 10/10/2 11/11/2
f 73/82/1 10/10/1 13/13/1
f 56/60/1 14/14/1 16/16/1
f 35/36/3 17/17/3 19/19/3
f 51/55/2 18/18/2 21/21/2
f 63/70/3 22/22/3 24/24/3
f 83/95/2 25/25/2 26/27/2
f 34/35/4 20/20/4 17/17/4
f 6/6/5 27/51/5 29/46/5
f 28/29/1 30/31/1 32/33/1
f 8/8/5 33/34/5 28/29/5
f 14/14/2 34/35/2 35/36/2
f 4/4/6 36/37/6 38/39/6
f 1/1/1 40/41/1 41/42/1
f 6/6/5 29/46/5 46/48/5
f 27/28/5 11/49/5 28/29/5
f 50/54/6 27/51/6 48/52/6
f 52/56/4 37/38/4 39/40/4
f 48/52/4 14/14/4 50/54/4
f 54/58/2 46/48/2 53/57/2
f 56/60/6 16/16/6 19/19/6
f 53/57/5 51/55/5 54/58/5
f 19/19/5 49/53/5 56/60/5
f 31/32/4 57/61/4 32/33/4
f 49/53/6 52/56/6 55/59/6
f 23/23/3 58/62/3 35/36/3
f 9/9/3 47/50/3 60/64/3
f 57/61/3 33/34/3 7/7/3
f 52/56/3 49/53/3 51/55/3
f 30/31/6 33/34/6 31/32/6
f 5/68/4 4/65/4 61/67/4
f 32/33/4 59/63/4 61/67/4
f 28/29/6 32/33/6 29/30/6
f 46/48/1 54/58/1 36/37/1
f 80/90/1 15/15/1 48/52/1
f 80/90/1 48/52/1 10/10/1
f 79/89/2 68/76/2 70/78/2
f 5/68/2 59/63/2 11/49/2
f 51/55/3 53/57/3 37/38/3
f 1/1/2 67/75/2 44/45/2
f 29/46/3 61/79/3 45/47/3
f 22/22/5 63/70/5 72/81/5
f 77/86/4 64/88/4 74/226/4
f 71/80/1 75/84/1 77/86/1
f 76/85/4 78/87/4 77/86/4
f 23/23/2 22/22/2 15/15/2
f 83/95/4 26/27/4 77/86/4
f 65/73/6 43/44/6 12/12/6
f 34/35/1 14/14/1 20/20/1
f 20/20/1 55/59/1 21/21/1
f 66/74/4 74/83/4 13/13/4
f 80/90/6 73/82/6 58/62/6
f 2/2/5 41/42/5 42/43/5
f 58/62/3 26/72/3 50/54/3
f 58/62/5 23/23/5 80/90/5
f 42/43/3 44/45/3 62/69/3
f 81/91/2 66/74/2 40/41/2
f 40/41/4 1/1/4 81/91/4
f 16/16/4 3/3/4 24/24/4
f 65/227/5 12/92/5 82/93/5
f 3/3/6 2/2/6 62/69/6
f 65/73/3 82/94/3 66/74/3
f 70/78/3 25/25/3 79/89/3
f 69/77/3 68/76/3 84/96/3
f 43/44/3 66/74/3 44/45/3
f 75/84/6 84/96/6 76/85/6
f 69/77/5 84/96/5 71/80/5
f 82/93/5 10/26/5 71/80/5
f 24/24/3 23/23/3 19/19/3
f 74/226/6 82/93/6 77/86/6
f 15/15/1 72/81/1 16/16/1
f 97/109/1 85/97/1 87/99/1
f 194/210/4 88/100/4 90/102/4
f 198/217/1 87/99/1 91/103/1
f 177/188/2 92/104/2 94/106/2
f 200/219/1 95/107/1 97/109/1
f 109/153/2 213/169/2 144/228/2
f 202/221/1 101/113/1 95/107/1
f 213/169/5 104/170/5 141/207/5
f 204/223/1 105/117/1 107/119/1
f 122/120/6 112/229/6 212/208/6
f 205/224/1 110/122/1 101/113/1
f 112/229/4 115/158/4 173/205/4
f 111/123/1 113/125/1 105/117/1
f 115/158/2 211/182/2 172/230/2
f 127/140/3 118/130/3 120/132/3
f 197/216/3 121/133/3 118/130/3
f 211/182/5 122/120/5 176/116/5
f 116/111/6 117/115/6 210/112/6
f 199/218/3 125/138/3 127/140/3
f 117/115/4 122/120/4 176/116/4
f 201/220/3 129/142/3 125/138/3
f 122/120/2 209/124/2 175/121/2
f 203/222/3 133/145/3 135/147/3
f 209/124/5 116/111/5 174/110/5
f 143/155/3 138/149/3 129/142/3
f 128/128/6 123/134/6 189/129/6
f 206/225/3 142/154/3 133/145/3
f 123/134/4 207/136/4 208/135/4
f 149/163/5 145/159/5 147/161/5
f 151/165/2 148/162/2 149/163/2
f 152/166/4 150/164/4 151/165/4
f 147/161/6 146/160/6 152/166/6
f 207/136/2 131/141/2 190/137/2
f 153/167/3 157/172/3 154/168/3
f 163/178/5 159/174/5 161/176/5
f 170/186/2 162/177/2 163/178/2
f 168/184/3 153/167/3 156/171/3
f 149/163/4 145/159/4 170/186/4
f 161/176/6 160/175/6 149/163/6
f 181/192/5 171/187/5 151/165/5
f 131/141/4 116/111/4 174/110/4
f 116/111/2 124/148/2 192/144/2
f 179/190/4 156/171/4 177/188/4
f 177/188/1 178/189/1 179/190/1
f 183/194/2 180/191/2 181/192/2
f 184/195/4 182/193/4 183/194/4
f 151/165/6 148/162/6 184/195/6
f 187/198/5 185/196/5 170/186/5
f 188/199/2 186/197/2 187/198/2
f 181/192/4 171/187/4 188/199/4
f 170/186/6 162/177/6 181/192/6
f 152/166/1 151/165/1 147/161/1
f 124/148/5 128/128/5 191/127/5
f 99/152/3 98/156/3 109/153/3
f 103/157/3 100/214/3 115/158/3
f 109/153/3 108/215/3 104/170/3
f 115/158/3 112/229/3 122/120/3
f 122/120/3 117/115/3 116/111/3
f 123/134/3 128/128/3 131/141/3
f 170/186/1 163/178/1 149/163/1
f 94/106/5 93/105/5 193/209/5
f 131/141/3 128/128/3 124/148/3
f 166/181/6 169/185/6 194/210/6
f 193/209/1 195/211/1 178/189/1
f 151/165/1 184/195/1 181/192/1
f 181/192/1 188/199/1 170/186/1
f 136/201/1 132/213/1 155/202/1
f 145/159/3 148/162/3 146/160/3
f 140/204/1 137/200/1 173/205/1
f 156/171/3 88/100/3 168/184/3
f 179/190/1 164/179/1 194/210/1
f 155/202/1 144/228/1 141/207/1
f 173/205/1 172/230/1 176/116/1
f 145/159/3 160/175/3 162/177/3
f 176/116/1 175/121/1 174/110/1
f 190/137/1 191/127/1 189/129/1
f 171/187/3 180/191/3 148/162/3
f 192/144/1 191/127/1 190/137/1
f 185/196/3 186/197/3 162/177/3
f 90/102/2 89/101/2 179/190/2
f 165/180/5 167/183/5 166/181/5
f 164/179/2 168/184/2 165/180/2
f 178/189/5 153/167/5 164/179/5
f 196/212/6 157/172/6 178/189/6
f 195/211/5 158/173/5 196/212/5
f 193/209/2 154/168/2 195/211/2
f 85/97/5 120/132/5 86/98/5
f 97/109/2 127/140/2 85/97/2
f 87/99/4 118/130/4 97/109/4
f 198/217/2 197/216/2 87/99/2
f 91/103/4 121/133/4 198/217/4
f 86/98/6 119/131/6 91/103/6
f 96/108/5 199/218/5 97/109/5
f 95/107/2 125/138/2 96/108/2
f 200/219/4 126/139/4 95/107/4
f 97/109/6 127/140/6 200/219/6
f 102/114/5 201/220/5 95/107/5
f 101/113/2 129/142/2 102/114/2
f 202/221/4 130/143/4 101/113/4
f 95/107/6 125/138/6 202/221/6
f 106/118/5 203/222/5 107/119/5
f 105/117/2 133/145/2 106/118/2
f 204/223/4 134/146/4 105/117/4
f 107/119/6 135/147/6 204/223/6
f 111/123/5 143/155/5 101/113/5
f 110/122/2 138/149/2 111/123/2
f 205/224/4 139/150/4 110/122/4
f 101/113/6 129/142/6 205/224/6
f 114/126/5 206/225/5 105/117/5
f 113/125/2 142/154/2 114/126/2
f 111/123/4 143/155/4 113/125/4
f 105/117/6 133/145/6 111/123/6
f 172/230/5 211/182/5 176/116/5
f 173/205/2 115/158/2 172/230/2
f 212/208/4 112/229/4 173/205/4
f 176/116/6 122/120/6 212/208/6
f 144/228/5 213/169/5 141/207/5
f 155/202/2 109/153/2 144/228/2
f 214/206/4 108/215/4 155/202/4
f 141/207/6 104/170/6 214/206/6
f 137/200/5 98/156/5 173/205/5
f 140/204/2 103/157/2 137/200/2
f 215/203/4 100/214/4 140/204/4
f 173/205/6 115/158/6 215/203/6
f 132/213/5 216/151/5 155/202/5
f 136/201/2 99/152/2 132/213/2
f 137/200/4 98/156/4 136/201/4
f 155/202/6 109/153/6 137/200/6
