# Blender v2.83.0 OBJ File: '3D_Glasses.blend'
# www.blender.org
mtllib 3D_Glasses.mtl
o 3D_Glasses_Plane
v 0.583724 2.931599 4.206379
v 3.750899 2.814041 4.206379
v 0.583724 4.191988 4.206379
v 3.750899 4.191988 4.206379
v 3.518040 2.673215 4.206379
v 1.097434 2.673215 4.206379
v 0.816583 4.332813 4.206379
v 3.518040 4.332813 4.206379
v 0.338602 2.769561 4.206379
v 0.152768 4.373362 4.206379
v 3.728732 2.446476 4.206379
v 0.967868 2.446476 4.206379
v 0.363752 4.563017 4.206379
v 0.583724 4.191988 4.106379
v 0.583724 2.931599 4.106379
v 3.750899 2.814041 4.106379
v 3.750899 4.191988 4.106379
v 1.097434 2.673215 4.106379
v 3.518040 2.673215 4.106379
v 3.518040 4.332813 4.106379
v 0.816583 4.332813 4.106379
v 4.201910 3.981581 -0.149760
v 4.201910 4.526568 -0.247636
v 4.201910 3.429207 -0.726280
v 4.201910 3.439505 -0.813493
v 4.201910 3.515835 -0.863803
v 4.201910 4.447112 -0.385651
v 4.201910 3.926690 -0.248244
v 4.201910 4.551590 -0.097076
v 4.201910 4.000228 -0.044748
v 4.201910 3.623113 -0.859128
v 4.201910 3.460109 -0.636659
v 4.201910 3.723764 -0.442451
v 0.338602 2.769561 3.906379
v 4.201910 2.708578 3.906379
v 0.152768 4.373362 3.906379
v 3.728732 2.446476 3.906379
v 0.967868 2.446476 3.906379
v 0.363752 4.563017 3.906379
v 4.201910 2.708578 4.206379
v 4.201910 4.563017 4.206379
v 3.943967 4.563017 3.906379
v 3.943967 3.981581 -0.149760
v 3.943967 4.526568 -0.247636
v 3.943967 3.429207 -0.726280
v 3.943967 3.439505 -0.813493
v 3.943967 3.515835 -0.863803
v 3.943967 4.447112 -0.385651
v 3.943967 3.926690 -0.248244
v 3.943967 4.551590 -0.097076
v 3.943967 4.000228 -0.044748
v 3.943967 3.623113 -0.859128
v 3.943967 3.460109 -0.636659
v 3.943967 4.022888 -0.637572
v 3.943967 3.723764 -0.442451
v 3.944155 2.565803 3.906379
v -0.583724 2.931599 4.206379
v -3.750899 2.814041 4.206379
v -0.583724 4.191988 4.206379
v -3.750899 4.191988 4.206379
v -3.518040 2.673215 4.206379
v -1.097434 2.673215 4.206379
v -0.816583 4.332813 4.206379
v -3.518040 4.332813 4.206379
v -0.338602 2.769561 4.206379
v -0.152768 4.373362 4.206379
v -3.728732 2.446476 4.206379
v -0.967868 2.446476 4.206379
v -0.363752 4.563017 4.206379
v -0.583724 4.191988 4.106379
v -0.583724 2.931599 4.106379
v -3.750899 2.814041 4.106379
v -3.750899 4.191988 4.106379
v -1.097434 2.673215 4.106379
v -3.518040 2.673215 4.106379
v -3.518040 4.332813 4.106379
v -0.816583 4.332813 4.106379
v 0.000000 2.818752 4.206379
v 0.000000 4.356965 4.206379
v -4.201910 3.981581 -0.149760
v -4.201910 4.526568 -0.247636
v -4.201910 3.429207 -0.726280
v -4.201910 3.439505 -0.813493
v -4.201910 3.515835 -0.863803
v -4.201910 4.447112 -0.385651
v -4.201910 3.926690 -0.248244
v -4.201910 4.551590 -0.097076
v -4.201910 4.000228 -0.044748
v -4.201910 3.623113 -0.859128
v -4.201910 3.460109 -0.636659
v -4.201910 3.723764 -0.442451
v -0.338602 2.769561 3.906379
v -4.201910 2.708578 3.906379
v -0.152768 4.373362 3.906379
v -3.728732 2.446476 3.906379
v -0.967868 2.446476 3.906379
v -0.363752 4.563017 3.906379
v 0.000000 2.818752 3.906379
v 0.000000 4.356965 3.906379
v -4.201910 2.708578 4.206379
v -4.201910 4.563017 4.206379
v -3.943967 4.563017 3.906379
v -3.943967 3.981581 -0.149760
v -3.943967 4.526568 -0.247636
v -3.943967 3.429207 -0.726280
v -3.943967 3.439505 -0.813493
v -3.943967 3.515835 -0.863803
v -3.943967 4.447112 -0.385651
v -3.943967 3.926690 -0.248244
v -3.943967 4.551590 -0.097076
v -3.943967 4.000228 -0.044748
v -3.943967 3.623113 -0.859128
v -3.943967 3.460109 -0.636659
v -3.943967 4.022888 -0.637572
v -3.943967 3.723764 -0.442451
v -3.944155 2.565803 3.906379
vt 0.904178 0.353458
vt 0.930835 0.369579
vt 0.930835 0.369579
vt 0.568260 0.369579
vt 0.594918 0.353458
vt 0.594918 0.353458
vt 0.568260 0.513867
vt 0.568260 0.369579
vt 0.543078 0.327104
vt 0.518925 0.348816
vt 0.904178 0.543447
vt 0.627070 0.543447
vt 0.612237 0.569404
vt 0.581486 0.621743
vt 0.581486 0.621743
vt 0.060629 0.620256
vt 0.930835 0.527326
vt 0.930835 0.527326
vt 0.568260 0.513867
vt 0.904178 0.543447
vt 0.904178 0.353458
vt 0.627070 0.543447
vt 0.945279 0.282041
vt 0.979536 0.261324
vt 0.979536 0.058612
vt 0.540199 0.532418
vt 0.612237 0.569404
vt 0.928298 0.569404
vt 0.928298 0.569404
vt 0.501436 0.526786
vt 0.540199 0.532418
vt 0.518925 0.348816
vt 0.952959 0.555743
vt 0.501436 0.350693
vt 0.501436 0.350693
vt 0.601153 0.703044
vt 0.619030 0.635336
vt 0.588340 0.695902
vt 0.626420 0.729445
vt 0.626420 0.729445
vt 0.574678 0.693476
vt 0.588340 0.695902
vt 0.681239 0.756496
vt 0.680630 0.742539
vt 0.680630 0.742539
vt 0.601153 0.703044
vt 0.601074 0.624998
vt 0.601074 0.624998
vt 0.663347 0.767767
vt 0.674693 0.766427
vt 0.674693 0.766427
vt 0.651687 0.763747
vt 0.651687 0.763747
vt 0.681239 0.756496
vt 0.663347 0.767767
vt 0.651805 0.690528
vt 0.060629 0.861522
vt 0.574678 0.693476
vt 0.483909 0.880908
vt 0.459504 0.886938
vt 0.453330 0.883497
vt 0.961497 0.963685
vt 0.805380 0.963685
vt 0.973668 0.844002
vt 0.769797 0.945415
vt 0.771220 0.844002
vt 0.750650 0.942634
vt 0.759289 0.854726
vt 0.750650 0.855653
vt 0.973679 0.956937
vt 0.446747 0.882328
vt 0.199071 0.972245
vt 0.199071 0.847050
vt 0.450028 0.847766
vt 0.459465 0.849334
vt 0.468117 0.854315
vt 0.497797 0.905968
vt 0.471677 0.899658
vt 0.498090 0.912692
vt 0.483851 0.916185
vt 0.494936 0.917477
vt 0.489469 0.918123
vt 0.982467 0.539399
vt 0.982467 0.327104
vt 0.543078 0.327104
vt 0.952938 0.327104
vt 0.021598 0.620256
vt 0.945279 0.037895
vt 0.547863 0.037895
vt 0.589180 0.282041
vt 0.513607 0.058612
vt 0.513607 0.244030
vt 0.501436 0.526786
vt 0.021598 0.861522
vt 0.060629 0.880098
vt 0.619030 0.635336
vt 0.098695 0.353458
vt 0.072037 0.369579
vt 0.072037 0.369579
vt 0.434612 0.369579
vt 0.407955 0.353458
vt 0.407955 0.353458
vt 0.434612 0.513867
vt 0.434612 0.369579
vt 0.483948 0.348816
vt 0.459795 0.327104
vt 0.098695 0.543447
vt 0.390636 0.569404
vt 0.375803 0.543447
vt 0.581486 0.621743
vt 0.060629 0.620256
vt 0.581486 0.621743
vt 0.072037 0.527326
vt 0.072037 0.527326
vt 0.434612 0.513867
vt 0.098695 0.543447
vt 0.098695 0.353458
vt 0.375803 0.543447
vt 0.050814 0.282041
vt 0.016558 0.058612
vt 0.016558 0.261324
vt 0.462674 0.532418
vt 0.390636 0.569404
vt 0.074575 0.569404
vt 0.074575 0.569404
vt 0.462674 0.532418
vt 0.483948 0.348816
vt 0.049913 0.555743
vt 0.601153 0.703044
vt 0.588340 0.695902
vt 0.619030 0.635336
vt 0.626420 0.729445
vt 0.626420 0.729445
vt 0.574678 0.693476
vt 0.588340 0.695902
vt 0.681239 0.756496
vt 0.680630 0.742539
vt 0.680630 0.742539
vt 0.601153 0.703044
vt 0.601074 0.624998
vt 0.601074 0.624998
vt 0.663347 0.767767
vt 0.674693 0.766427
vt 0.674693 0.766427
vt 0.651687 0.763747
vt 0.651687 0.763747
vt 0.681239 0.756496
vt 0.663347 0.767767
vt 0.651805 0.690528
vt 0.060629 0.861522
vt 0.574678 0.693476
vt 0.483909 0.880908
vt 0.453330 0.883497
vt 0.459504 0.886938
vt 0.539804 0.963685
vt 0.527633 0.844002
vt 0.695921 0.963685
vt 0.730082 0.844002
vt 0.731504 0.945415
vt 0.742012 0.854726
vt 0.527622 0.956937
vt 0.446747 0.882328
vt 0.199071 0.847050
vt 0.199071 0.972245
vt 0.450028 0.847766
vt 0.468117 0.854315
vt 0.459465 0.849334
vt 0.471677 0.899658
vt 0.497797 0.905968
vt 0.483851 0.916185
vt 0.498090 0.912692
vt 0.489469 0.918123
vt 0.494936 0.917477
vt 0.020406 0.539399
vt 0.020406 0.327104
vt 0.459795 0.327104
vt 0.049935 0.327104
vt 0.021598 0.620256
vt 0.050814 0.037895
vt 0.406914 0.282041
vt 0.448230 0.037895
vt 0.482487 0.244030
vt 0.482487 0.058612
vt 0.060629 0.880098
vt 0.021598 0.861522
vt 0.619030 0.635336
vn -0.5175 -0.8557 0.0000
vn 0.5175 -0.8557 0.0000
vn 1.0000 0.0000 0.0000
vn 0.0000 0.0000 1.0000
vn 0.0000 1.0000 -0.0029
vn -1.0000 0.0000 0.0000
vn 0.4493 0.8934 0.0000
vn -0.5175 0.8557 0.0000
vn 0.0000 -1.0000 0.0000
vn 0.0000 1.0000 0.0000
vn -0.4567 -0.8896 0.0000
vn -0.1438 -0.9896 0.0000
vn -0.6685 0.7437 0.0000
vn 0.4845 -0.8748 0.0000
vn -0.1067 0.9943 0.0000
vn 0.0000 -0.6914 0.7225
vn 0.0000 -0.9846 0.1748
vn 0.0000 0.0435 -0.9991
vn 0.0000 -0.8735 0.4868
vn 0.0000 0.8666 -0.4989
vn 0.0000 -0.9931 -0.1173
vn 0.0000 -0.5931 0.8052
vn 0.0000 -0.5503 -0.8349
vn 0.0000 0.9865 -0.1639
vn 0.0000 -0.9454 0.3260
vn 0.0000 0.4847 -0.8747
vn 0.0000 -0.9505 -0.3107
vn 0.0000 0.0000 -1.0000
vn -1.0000 -0.0001 0.0000
vn 0.0031 1.0000 -0.0027
vn 0.0000 0.5106 -0.8598
vn 0.0274 0.4980 -0.8667
vn 0.4618 -0.8337 -0.3027
vn -0.4493 0.8934 0.0000
vn 0.5175 0.8557 0.0000
vn 0.4567 -0.8896 0.0000
vn 0.1438 -0.9896 0.0000
vn 0.6685 0.7437 0.0000
vn -0.4845 -0.8748 0.0000
vn 0.1067 0.9943 0.0000
vn 1.0000 -0.0001 0.0000
vn -0.0031 1.0000 -0.0027
vn -0.0274 0.4980 -0.8667
vn -0.4618 -0.8337 -0.3027
usemtl Material.001
s off
f 8/1/1 17/2/1 4/3/1
f 3/4/2 21/5/2 7/6/2
f 1/7/3 14/8/3 3/4/3
f 3/4/4 13/9/4 10/10/4
f 5/11/4 6/12/4 12/13/4
f 29/14/5 50/15/5 42/16/5
f 4/3/6 16/17/6 2/18/6
f 6/12/7 15/19/7 1/7/7
f 2/18/8 19/20/8 5/11/8
f 7/6/9 20/21/9 8/1/9
f 5/11/10 18/22/10 6/12/10
f 19/23/4 16/24/4 17/25/4
f 9/26/11 38/27/11 12/13/11
f 12/13/9 37/28/9 11/29/9
f 78/30/12 34/31/12 9/26/12
f 13/9/13 36/32/13 10/10/13
f 11/29/14 37/28/14 56/33/14
f 10/10/15 99/34/15 79/35/15
f 28/36/3 27/37/3 22/38/3
f 28/36/16 55/39/16 33/40/16
f 30/41/17 43/42/17 22/38/17
f 26/43/18 52/44/18 31/45/18
f 22/38/19 49/46/19 28/36/19
f 27/37/20 44/47/20 23/48/20
f 24/49/21 46/50/21 25/51/21
f 33/40/22 53/52/22 32/53/22
f 25/51/23 47/54/23 26/43/23
f 23/48/24 50/15/24 29/14/24
f 32/53/25 45/55/25 24/49/25
f 31/45/26 52/44/26 54/56/26
f 35/57/27 51/58/27 30/41/27
f 54/59/6 49/60/6 43/61/6
f 37/62/28 38/63/28 42/64/28
f 38/63/28 34/65/28 39/66/28
f 42/64/28 38/63/28 39/66/28
f 34/65/28 98/67/28 36/68/28
f 98/67/28 99/69/28 36/68/28
f 36/68/28 39/66/28 34/65/28
f 56/70/28 37/62/28 42/64/28
f 51/71/29 56/72/29 42/73/29
f 42/73/6 50/74/6 51/71/6
f 50/74/6 44/75/6 48/76/6
f 51/71/6 50/74/6 48/76/6
f 48/76/6 54/59/6 43/61/6
f 51/71/6 48/76/6 43/61/6
f 54/59/6 52/77/6 55/78/6
f 52/77/6 47/79/6 53/80/6
f 55/78/6 52/77/6 53/80/6
f 47/79/6 46/81/6 45/82/6
f 45/82/6 53/80/6 47/79/6
f 55/78/6 49/60/6 54/59/6
f 8/1/1 20/21/1 17/2/1
f 3/4/2 14/8/2 21/5/2
f 1/7/3 15/19/3 14/8/3
f 3/4/4 7/6/4 13/9/4
f 3/4/4 10/10/4 79/35/4
f 79/35/4 78/30/4 3/4/4
f 78/30/4 9/26/4 1/7/4
f 3/4/4 78/30/4 1/7/4
f 12/13/4 11/29/4 5/11/4
f 11/29/4 40/83/4 2/18/4
f 5/11/4 11/29/4 2/18/4
f 41/84/4 13/9/4 8/1/4
f 13/9/4 7/6/4 8/1/4
f 41/84/4 8/1/4 4/3/4
f 41/84/4 4/3/4 40/83/4
f 4/3/4 2/18/4 40/83/4
f 1/7/4 9/26/4 12/13/4
f 6/12/4 1/7/4 12/13/4
f 39/85/10 13/9/10 42/86/10
f 13/9/10 41/84/10 42/86/10
f 41/87/30 29/14/30 42/16/30
f 4/3/6 17/2/6 16/17/6
f 6/12/7 18/22/7 15/19/7
f 2/18/8 16/17/8 19/20/8
f 7/6/9 21/5/9 20/21/9
f 5/11/10 19/20/10 18/22/10
f 17/25/4 20/88/4 19/23/4
f 20/88/4 21/89/4 18/90/4
f 21/89/4 14/91/4 15/92/4
f 15/92/4 18/90/4 21/89/4
f 18/90/4 19/23/4 20/88/4
f 9/26/11 34/31/11 38/27/11
f 12/13/9 38/27/9 37/28/9
f 78/30/12 98/93/12 34/31/12
f 13/9/13 39/85/13 36/32/13
f 35/57/14 40/94/14 56/95/14
f 40/83/14 11/29/14 56/33/14
f 10/10/15 36/32/15 99/34/15
f 33/40/3 32/53/3 31/45/3
f 32/53/3 24/49/3 31/45/3
f 24/49/3 25/51/3 26/43/3
f 26/43/3 31/45/3 24/49/3
f 31/45/3 27/37/3 33/40/3
f 33/40/3 27/37/3 28/36/3
f 27/37/3 23/48/3 22/38/3
f 23/48/3 29/14/3 30/41/3
f 22/38/3 23/48/3 30/41/3
f 29/14/3 41/87/3 30/41/3
f 41/87/3 40/94/3 35/57/3
f 30/41/3 41/87/3 35/57/3
f 28/36/16 49/46/16 55/39/16
f 30/41/17 51/58/17 43/42/17
f 26/43/18 47/54/18 52/44/18
f 22/38/19 43/42/19 49/46/19
f 27/37/20 48/96/20 44/47/20
f 24/49/21 45/55/21 46/50/21
f 33/40/22 55/39/22 53/52/22
f 25/51/23 46/50/23 47/54/23
f 23/48/24 44/47/24 50/15/24
f 32/53/25 53/52/25 45/55/25
f 48/96/31 27/37/31 54/56/31
f 27/37/32 31/45/32 54/56/32
f 35/57/33 56/95/33 51/58/33
f 64/97/2 60/98/2 73/99/2
f 59/100/1 63/101/1 77/102/1
f 57/103/6 59/100/6 70/104/6
f 59/100/4 66/105/4 69/106/4
f 61/107/4 68/108/4 62/109/4
f 87/110/5 102/111/5 110/112/5
f 60/98/3 58/113/3 72/114/3
f 62/109/34 57/103/34 71/115/34
f 58/113/35 61/107/35 75/116/35
f 63/101/9 64/97/9 76/117/9
f 61/107/10 62/109/10 74/118/10
f 75/119/4 73/120/4 72/121/4
f 65/122/36 68/108/36 96/123/36
f 68/108/9 67/124/9 95/125/9
f 78/30/37 65/122/37 92/126/37
f 69/106/38 66/105/38 94/127/38
f 67/124/39 116/128/39 95/125/39
f 66/105/40 79/35/40 99/34/40
f 86/129/6 80/130/6 85/131/6
f 86/129/16 91/132/16 115/133/16
f 88/134/17 80/130/17 103/135/17
f 84/136/18 89/137/18 112/138/18
f 80/130/19 86/129/19 109/139/19
f 85/131/20 81/140/20 104/141/20
f 82/142/21 83/143/21 106/144/21
f 91/132/22 90/145/22 113/146/22
f 83/143/23 84/136/23 107/147/23
f 81/140/24 87/110/24 110/112/24
f 90/145/25 82/142/25 105/148/25
f 89/137/26 114/149/26 112/138/26
f 93/150/27 88/134/27 111/151/27
f 114/152/3 103/153/3 109/154/3
f 95/155/28 102/156/28 96/157/28
f 96/157/28 97/158/28 92/159/28
f 102/156/28 97/158/28 96/157/28
f 92/159/28 94/160/28 98/67/28
f 98/67/28 94/160/28 99/69/28
f 94/160/28 92/159/28 97/158/28
f 116/161/28 102/156/28 95/155/28
f 111/162/41 102/163/41 116/164/41
f 102/163/3 111/162/3 110/165/3
f 110/165/3 108/166/3 104/167/3
f 111/162/3 108/166/3 110/165/3
f 108/166/3 103/153/3 114/152/3
f 111/162/3 103/153/3 108/166/3
f 114/152/3 115/168/3 112/169/3
f 112/169/3 113/170/3 107/171/3
f 115/168/3 113/170/3 112/169/3
f 107/171/3 105/172/3 106/173/3
f 105/172/3 107/171/3 113/170/3
f 115/168/3 114/152/3 109/154/3
f 64/97/2 73/99/2 76/117/2
f 59/100/1 77/102/1 70/104/1
f 57/103/6 70/104/6 71/115/6
f 59/100/4 69/106/4 63/101/4
f 59/100/4 79/35/4 66/105/4
f 79/35/4 59/100/4 78/30/4
f 78/30/4 57/103/4 65/122/4
f 59/100/4 57/103/4 78/30/4
f 68/108/4 61/107/4 67/124/4
f 67/124/4 58/113/4 100/174/4
f 61/107/4 58/113/4 67/124/4
f 101/175/4 64/97/4 69/106/4
f 69/106/4 64/97/4 63/101/4
f 101/175/4 60/98/4 64/97/4
f 101/175/4 100/174/4 60/98/4
f 60/98/4 100/174/4 58/113/4
f 57/103/4 68/108/4 65/122/4
f 62/109/4 68/108/4 57/103/4
f 97/176/10 102/177/10 69/106/10
f 69/106/10 102/177/10 101/175/10
f 101/178/42 102/111/42 87/110/42
f 60/98/3 72/114/3 73/99/3
f 62/109/34 71/115/34 74/118/34
f 58/113/35 75/116/35 72/114/35
f 63/101/9 76/117/9 77/102/9
f 61/107/10 74/118/10 75/116/10
f 73/120/4 75/119/4 76/179/4
f 76/179/4 74/180/4 77/181/4
f 77/181/4 71/182/4 70/183/4
f 71/182/4 77/181/4 74/180/4
f 74/180/4 76/179/4 75/119/4
f 65/122/36 96/123/36 92/126/36
f 68/108/9 95/125/9 96/123/9
f 78/30/37 92/126/37 98/93/37
f 69/106/38 94/127/38 97/176/38
f 93/150/39 116/184/39 100/185/39
f 100/174/39 116/128/39 67/124/39
f 66/105/40 99/34/40 94/127/40
f 91/132/6 89/137/6 90/145/6
f 90/145/6 89/137/6 82/142/6
f 82/142/6 84/136/6 83/143/6
f 84/136/6 82/142/6 89/137/6
f 89/137/6 91/132/6 85/131/6
f 91/132/6 86/129/6 85/131/6
f 85/131/6 80/130/6 81/140/6
f 81/140/6 88/134/6 87/110/6
f 80/130/6 88/134/6 81/140/6
f 87/110/6 88/134/6 101/178/6
f 101/178/6 93/150/6 100/185/6
f 88/134/6 93/150/6 101/178/6
f 86/129/16 115/133/16 109/139/16
f 88/134/17 103/135/17 111/151/17
f 84/136/18 112/138/18 107/147/18
f 80/130/19 109/139/19 103/135/19
f 85/131/20 104/141/20 108/186/20
f 82/142/21 106/144/21 105/148/21
f 91/132/22 113/146/22 115/133/22
f 83/143/23 107/147/23 106/144/23
f 81/140/24 110/112/24 104/141/24
f 90/145/25 105/148/25 113/146/25
f 108/186/31 114/149/31 85/131/31
f 85/131/43 114/149/43 89/137/43
f 93/150/44 111/151/44 116/184/44
