# Blender v2.91.0 OBJ File: 'aprils_fools_hat.blend'
# www.blender.org
mtllib aprilsFools_glasses.mtl
o april_fools_glasses_Plane.004
v -1.500000 0.500000 4.400000
v 1.500000 0.500000 4.400000
v -1.500000 1.400000 4.400000
v 1.500000 1.400000 4.400000
v -1.500000 0.500000 3.800000
v 1.500000 0.500000 3.800000
v -1.500000 1.400000 3.800000
v 1.500000 1.400000 3.800000
v 0.400000 3.400000 4.500000
v 4.500000 3.800000 4.500000
v 4.500000 4.300000 4.500000
v 4.500000 3.800000 1.000000
v 4.500000 4.300000 0.500000
v 4.500000 3.300000 1.000000
v 4.500000 3.300000 0.500000
v 0.400000 3.900000 3.800000
v 3.600000 3.800000 3.800000
v 3.800000 3.800000 3.800000
v 3.600000 4.300000 3.800000
v 3.800000 4.300000 3.800000
v 3.800000 3.800000 1.000000
v 3.800000 4.300000 0.500000
v 3.800000 3.300000 1.000000
v 3.800000 3.300000 0.500000
v 0.400000 3.900000 4.500000
v 0.900000 3.650000 3.800000
v 0.900000 3.650000 4.500000
v 0.400000 2.400000 4.500000
v 0.900000 2.900000 4.500000
v 0.900000 4.100000 4.500000
v 0.400000 4.600000 4.500000
v 3.100000 2.900000 4.500000
v 3.100000 4.100000 4.500000
v 3.600000 2.400000 4.500000
v 3.600000 4.600000 4.500000
v 0.400000 3.400000 3.800000
v 0.400000 2.400000 3.800000
v 0.900000 2.900000 3.800000
v 0.900000 4.100000 3.800000
v 0.400000 4.600000 3.800000
v 3.100000 2.900000 3.800000
v 3.100000 4.100000 3.800000
v 3.600000 4.600000 3.800000
v 3.600000 2.400000 3.800000
v 3.600000 3.800000 4.500000
v 3.600000 4.300000 4.500000
v -0.400000 3.400000 4.500000
v -4.500000 3.800000 4.500000
v -4.500000 4.300000 4.500000
v -4.500000 3.800000 1.000000
v -4.500000 4.300000 0.500000
v -4.500000 3.300000 1.000000
v -4.500000 3.300000 0.500000
v -0.400000 3.900000 3.800000
v -3.600000 3.800000 3.800000
v -4.000000 3.800000 3.800000
v -3.600000 4.300000 3.800000
v -4.000000 4.300000 3.800000
v -4.000000 3.800000 1.000000
v -4.000000 4.300000 0.500000
v -4.000000 3.300000 1.000000
v -4.000000 3.300000 0.500000
v -0.400000 3.900000 4.500000
v -0.900000 3.650000 3.800000
v -0.900000 3.650000 4.500000
v -0.400000 2.400000 4.500000
v -0.900000 2.900000 4.500000
v -0.900000 4.100000 4.500000
v -0.400000 4.600000 4.500000
v -3.100000 2.900000 4.500000
v -3.100000 4.100000 4.500000
v -3.600000 2.400000 4.500000
v -3.600000 4.600000 4.500000
v -0.400000 3.400000 3.800000
v -0.400000 2.400000 3.800000
v -0.900000 2.900000 3.800000
v -0.900000 4.100000 3.800000
v -0.400000 4.600000 3.800000
v -3.100000 2.900000 3.800000
v -3.100000 4.100000 3.800000
v -3.600000 4.600000 3.800000
v -3.600000 2.400000 3.800000
v -3.600000 3.800000 4.500000
v -3.600000 4.300000 4.500000
v 0.300000 4.600000 4.700000
v 3.700000 4.600000 4.700000
v 0.300000 5.400000 4.700000
v 3.700000 5.400000 4.700000
v 0.300000 4.600000 3.800000
v 3.700000 4.600000 3.800000
v 0.300000 5.400000 3.800000
v 3.700000 5.400000 3.800000
v -0.300000 4.600000 4.700000
v -3.700000 4.600000 4.700000
v -0.300000 5.400000 4.700000
v -3.700000 5.400000 4.700000
v -0.300000 4.600000 3.800000
v -3.700000 4.600000 3.800000
v -0.300000 5.400000 3.800000
v -3.700000 5.400000 3.800000
v 0.400000 3.400000 4.400001
v 0.400000 2.300000 4.600000
v 1.400000 1.400000 4.600000
v 1.400000 2.300000 4.600000
v 0.400000 3.400000 3.800000
v 0.400000 2.300000 3.800000
v 1.400000 1.400000 3.800000
v 1.400000 2.300000 3.800000
v 0.000000 1.400000 4.600000
v -0.400000 3.400000 4.400001
v -0.400000 2.300000 4.600000
v -1.400000 1.400000 4.600000
v -1.400000 2.300000 4.600000
v 0.000000 1.400000 3.800000
v -0.400000 3.400000 3.800000
v -0.400000 2.300000 3.800000
v -1.400000 1.400000 3.800000
v -1.400000 2.300000 3.800000
v 5.000000 3.800000 1.000000
v 3.800000 3.800000 1.500000
v 3.800000 3.800000 1.000000
v 3.800000 2.300000 1.000000
v 4.500000 2.300000 1.000000
v 4.500000 2.300000 1.500000
v 5.000000 3.800000 1.500000
v 5.000000 2.800000 1.500000
v 5.000000 2.800000 1.000000
v 3.800000 2.300000 1.500000
v 4.500000 2.800000 1.500000
v 4.500000 2.800000 1.000000
v -5.000000 3.800000 1.000000
v -3.800000 3.800000 1.500000
v -3.800000 3.800000 1.000000
v -3.800000 2.300000 1.000000
v -4.500000 2.300000 1.000000
v -4.500000 2.300000 1.500000
v -5.000000 3.800000 1.500000
v -5.000000 2.800000 1.500000
v -5.000000 2.800000 1.000000
v -3.800000 2.300000 1.500000
v -4.500000 2.800000 1.500000
v -4.500000 2.800000 1.000000
vt 0.634307 0.797454
vt 0.267379 0.687375
vt 0.267379 0.797454
vt 0.267379 0.687375
vt 0.634307 0.797454
vt 0.267379 0.797454
vt 0.621926 0.797454
vt 0.621926 0.687375
vt 0.621926 0.797454
vt 0.279761 0.687375
vt 0.279761 0.797454
vt 0.279761 0.687375
vt 0.634307 0.701442
vt 0.267379 0.701442
vt 0.634307 0.701442
vt 0.267379 0.783387
vt 0.634307 0.783387
vt 0.267379 0.783387
vt 0.456325 0.299076
vt 0.543783 0.244414
vt 0.543783 0.299076
vt 0.893616 0.255347
vt 0.992007 0.200685
vt 0.893616 0.200685
vt 0.536898 0.444188
vt 0.926198 0.499803
vt 0.981812 0.444188
vt 0.981812 0.555417
vt 0.543783 0.249297
vt 0.456325 0.249297
vt 0.456325 0.249297
vt 0.456325 0.291263
vt 0.543783 0.291263
vt 0.543783 0.291263
vt 0.893616 0.200685
vt 0.937345 0.255347
vt 0.893616 0.255347
vt 0.592513 0.444188
vt 0.926198 0.499803
vt 0.592513 0.499803
vt 0.981812 0.555417
vt 0.981812 0.444189
vt 0.926198 0.551899
vt 0.981812 0.551899
vt 0.926198 0.551899
vt 0.930218 0.499803
vt 0.930218 0.555417
vt 0.930218 0.499803
vt 0.937345 0.208067
vt 0.893616 0.208067
vt 0.992007 0.208067
vt 0.592513 0.495526
vt 0.926198 0.495526
vt 0.536898 0.495526
vt 0.977793 0.555417
vt 0.977793 0.444188
vt 0.977793 0.555417
vt 0.893616 0.247534
vt 0.937345 0.247534
vt 0.992007 0.247534
vt 0.981812 0.448465
vt 0.592513 0.448465
vt 0.536898 0.448465
vt 0.543783 0.299076
vt 0.598444 0.353737
vt 0.598444 0.271745
vt 0.590632 0.271745
vt 0.590632 0.222550
vt 0.590632 0.222550
vt 0.598444 0.222550
vt 0.893616 0.167888
vt 0.543783 0.167888
vt 0.543783 0.408399
vt 0.838955 0.353737
vt 0.598444 0.353737
vt 0.543783 0.408399
vt 0.598444 0.222550
vt 0.543783 0.167888
vt 0.893616 0.167888
vt 0.838955 0.353737
vt 0.543783 0.400586
vt 0.893616 0.400586
vt 0.543783 0.400586
vt 0.838955 0.222550
vt 0.598444 0.271745
vt 0.838955 0.361120
vt 0.598444 0.361120
vt 0.838955 0.361120
vt 0.885804 0.408399
vt 0.885804 0.255347
vt 0.885804 0.255347
vt 0.551595 0.299076
vt 0.551595 0.408399
vt 0.551595 0.299076
vt 0.590632 0.353737
vt 0.590632 0.271745
vt 0.543783 0.244414
vt 0.598444 0.214737
vt 0.838955 0.214737
vt 0.598444 0.214737
vt 0.893616 0.175271
vt 0.543783 0.175271
vt 0.893616 0.175271
vt 0.551595 0.167888
vt 0.551595 0.244414
vt 0.551595 0.244414
vt 0.893616 0.408399
vt 0.885804 0.200685
vt 0.885804 0.167888
vt 0.885804 0.200685
vt 0.838955 0.222550
vt 0.846767 0.222550
vt 0.846767 0.353737
vt 0.846767 0.222550
vt 0.106491 0.255347
vt 0.008101 0.200685
vt 0.008101 0.255347
vt 0.536898 0.444188
vt 0.926198 0.499803
vt 0.536898 0.499803
vt 0.981812 0.555417
vt 0.981812 0.444188
vt 0.062762 0.255347
vt 0.106491 0.200685
vt 0.106491 0.255347
vt 0.592513 0.444188
vt 0.926198 0.499803
vt 0.981812 0.444189
vt 0.981812 0.555417
vt 0.981812 0.551899
vt 0.926198 0.551899
vt 0.926198 0.551899
vt 0.930218 0.555417
vt 0.930218 0.499803
vt 0.930218 0.499803
vt 0.106491 0.208067
vt 0.062762 0.208067
vt 0.008101 0.208067
vt 0.926198 0.495526
vt 0.592513 0.495526
vt 0.536898 0.495526
vt 0.977793 0.444188
vt 0.977793 0.555417
vt 0.977793 0.555417
vt 0.106491 0.247534
vt 0.062762 0.247534
vt 0.106491 0.247534
vt 0.981812 0.448465
vt 0.592513 0.448465
vt 0.981812 0.448465
vt 0.401663 0.353737
vt 0.456325 0.299076
vt 0.401663 0.271745
vt 0.409476 0.222550
vt 0.409476 0.271745
vt 0.409476 0.222550
vt 0.106491 0.167888
vt 0.401663 0.222550
vt 0.456325 0.167888
vt 0.161153 0.353737
vt 0.456325 0.408399
vt 0.401663 0.353737
vt 0.401663 0.271745
vt 0.456325 0.244414
vt 0.401663 0.222550
vt 0.456325 0.167888
vt 0.106491 0.167888
vt 0.456325 0.408399
vt 0.161153 0.353737
vt 0.106491 0.400586
vt 0.456325 0.400586
vt 0.456325 0.400586
vt 0.161153 0.222550
vt 0.106491 0.200685
vt 0.401663 0.361120
vt 0.161153 0.361120
vt 0.161153 0.361120
vt 0.114304 0.408399
vt 0.114304 0.255347
vt 0.114304 0.408399
vt 0.448512 0.408399
vt 0.448512 0.299076
vt 0.448512 0.299076
vt 0.409476 0.271745
vt 0.409476 0.353737
vt 0.456325 0.244414
vt 0.161153 0.214737
vt 0.401663 0.214737
vt 0.401663 0.214737
vt 0.456325 0.175271
vt 0.106491 0.175271
vt 0.106491 0.175271
vt 0.448512 0.167888
vt 0.448512 0.244414
vt 0.448512 0.167888
vt 0.161153 0.222550
vt 0.114304 0.167888
vt 0.114304 0.200685
vt 0.114304 0.200685
vt 0.153340 0.353737
vt 0.153340 0.222550
vt 0.153340 0.222550
vt 0.106491 0.408399
vt 0.634307 0.687375
vt 0.634307 0.687375
vt 0.621926 0.687375
vt 0.279761 0.797454
vt 0.267379 0.701442
vt 0.634307 0.783387
vt 0.992007 0.255347
vt 0.536898 0.499803
vt 0.926198 0.555417
vt 0.543783 0.249297
vt 0.456325 0.291263
vt 0.937345 0.200685
vt 0.926198 0.555417
vt 0.981812 0.551899
vt 0.930218 0.555417
vt 0.893616 0.208067
vt 0.926198 0.495526
vt 0.977793 0.444189
vt 0.893616 0.247534
vt 0.981812 0.448465
vt 0.893616 0.408399
vt 0.893616 0.400586
vt 0.598444 0.361120
vt 0.885804 0.408399
vt 0.551595 0.408399
vt 0.590632 0.353737
vt 0.838955 0.214737
vt 0.543783 0.175271
vt 0.551595 0.167888
vt 0.885804 0.167888
vt 0.846767 0.353737
vt 0.926198 0.555417
vt 0.062762 0.200685
vt 0.592513 0.499803
vt 0.926198 0.555417
vt 0.981812 0.551899
vt 0.930218 0.555417
vt 0.106491 0.208067
vt 0.926198 0.495526
vt 0.977793 0.444189
vt 0.008101 0.247534
vt 0.536898 0.448465
vt 0.106491 0.408399
vt 0.106491 0.400586
vt 0.401663 0.361120
vt 0.114304 0.255347
vt 0.448512 0.408399
vt 0.409476 0.353737
vt 0.161153 0.214737
vt 0.456325 0.175271
vt 0.448512 0.244414
vt 0.114304 0.167888
vt 0.153340 0.353737
vt 0.896794 0.111730
vt 0.526027 0.024490
vt 0.526027 0.111730
vt 0.526027 0.024490
vt 0.896794 0.111730
vt 0.526027 0.111730
vt 0.886026 0.111730
vt 0.886026 0.024490
vt 0.886026 0.111730
vt 0.537429 0.024490
vt 0.537429 0.111730
vt 0.537429 0.024490
vt 0.896794 0.032092
vt 0.526027 0.032092
vt 0.896794 0.032092
vt 0.526027 0.106028
vt 0.896794 0.106028
vt 0.526027 0.106028
vt 0.100245 0.024490
vt 0.471013 0.111730
vt 0.100245 0.111730
vt 0.471013 0.111730
vt 0.100245 0.024490
vt 0.100245 0.111730
vt 0.460244 0.024490
vt 0.460244 0.111730
vt 0.460244 0.111730
vt 0.111648 0.111730
vt 0.111648 0.024490
vt 0.111648 0.024490
vt 0.100245 0.032092
vt 0.471013 0.032092
vt 0.471013 0.032092
vt 0.471013 0.106028
vt 0.100245 0.106028
vt 0.100245 0.106028
vt 0.896794 0.024490
vt 0.896794 0.024490
vt 0.886026 0.024490
vt 0.537429 0.111730
vt 0.526027 0.032092
vt 0.896794 0.106028
vt 0.471013 0.024490
vt 0.471013 0.024490
vt 0.460244 0.024490
vt 0.111648 0.111730
vt 0.100245 0.032092
vt 0.471013 0.106028
vt 0.489307 0.557868
vt 0.400728 0.557868
vt 0.445017 0.657519
vt 0.400728 0.557868
vt 0.489307 0.436072
vt 0.489307 0.557868
vt 0.600030 0.657519
vt 0.600030 0.557868
vt 0.445017 0.657519
vt 0.489307 0.444685
vt 0.400728 0.444685
vt 0.400728 0.444685
vt 0.600030 0.657519
vt 0.477618 0.557868
vt 0.477618 0.436072
vt 0.477618 0.557868
vt 0.445017 0.648291
vt 0.600030 0.648291
vt 0.445017 0.648291
vt 0.600030 0.566481
vt 0.489307 0.566481
vt 0.600030 0.566481
vt 0.588341 0.657519
vt 0.588341 0.557868
vt 0.588341 0.657519
vt 0.290004 0.657519
vt 0.290004 0.657519
vt 0.290004 0.557868
vt 0.410571 0.436072
vt 0.410571 0.557868
vt 0.410571 0.557868
vt 0.290004 0.648291
vt 0.400728 0.566481
vt 0.290004 0.566481
vt 0.290004 0.566481
vt 0.299847 0.557868
vt 0.299847 0.657519
vt 0.299847 0.657519
vt 0.400728 0.436072
vt 0.489307 0.436072
vt 0.881574 0.679245
vt 0.826416 0.600448
vt 0.920972 0.600448
vt 0.744274 0.679245
vt 0.689116 0.718644
vt 0.744274 0.718644
vt 0.689116 0.712236
vt 0.744274 0.712235
vt 0.744274 0.712236
vt 0.689116 0.607314
vt 0.783672 0.607314
vt 0.783672 0.607314
vt 0.744274 0.679245
vt 0.783672 0.679245
vt 0.920972 0.679245
vt 0.736492 0.718644
vt 0.736492 0.679245
vt 0.736492 0.718644
vt 0.783672 0.600448
vt 0.689116 0.600448
vt 0.881574 0.718644
vt 0.826416 0.718644
vt 0.696439 0.600448
vt 0.696439 0.718644
vt 0.696439 0.600448
vt 0.775891 0.600448
vt 0.775891 0.679245
vt 0.775891 0.600448
vt 0.881574 0.824189
vt 0.826416 0.745392
vt 0.826416 0.863587
vt 0.744274 0.824189
vt 0.744274 0.863587
vt 0.689116 0.863587
vt 0.744274 0.857179
vt 0.689116 0.857179
vt 0.744274 0.857179
vt 0.783672 0.752258
vt 0.689116 0.752258
vt 0.783672 0.752258
vt 0.783672 0.824189
vt 0.744274 0.824189
vt 0.920972 0.824189
vt 0.920972 0.745392
vt 0.736492 0.824189
vt 0.736492 0.863587
vt 0.736492 0.863587
vt 0.783672 0.745392
vt 0.689116 0.745392
vt 0.881574 0.863587
vt 0.696439 0.863587
vt 0.696439 0.745392
vt 0.696439 0.745392
vt 0.775891 0.745392
vt 0.775891 0.824189
vt 0.775891 0.824189
vt 0.400728 0.436072
vt 0.489307 0.444685
vt 0.600030 0.557868
vt 0.477618 0.436072
vt 0.600030 0.648291
vt 0.489307 0.566481
vt 0.588341 0.557868
vt 0.290004 0.557868
vt 0.410571 0.436072
vt 0.290004 0.648291
vt 0.400728 0.566481
vt 0.299847 0.557868
vt 0.689116 0.712235
vt 0.689116 0.607314
vt 0.783672 0.679245
vt 0.736492 0.679245
vt 0.696439 0.718644
vt 0.775891 0.679245
vt 0.689116 0.857179
vt 0.689116 0.752258
vt 0.783672 0.824189
vt 0.736492 0.824189
vt 0.696439 0.863587
vt 0.775891 0.745392
vn 0.0000 0.0000 1.0000
vn 0.0000 0.0000 -1.0000
vn 1.0000 0.0000 0.0000
vn -1.0000 0.0000 0.0000
vn 0.0000 1.0000 0.0000
vn 0.0000 -1.0000 0.0000
vn 0.0000 0.1789 0.9839
usemtl Material
s off
f 2/1/1 3/2/1 1/3/1
f 7/4/2 6/5/2 5/6/2
f 6/7/3 4/8/3 2/9/3
f 7/10/4 1/11/4 3/12/4
f 8/13/5 3/14/5 4/15/5
f 5/16/6 2/17/6 1/18/6
f 74/19/2 16/20/2 36/21/2
f 45/22/1 11/23/1 46/24/1
f 11/25/3 12/26/3 13/27/3
f 12/26/3 15/28/3 13/27/3
f 25/29/5 54/30/5 63/31/5
f 47/32/6 36/33/6 9/34/6
f 19/35/2 18/36/2 17/37/2
f 20/38/4 21/39/4 18/40/4
f 24/41/4 21/39/4 22/42/4
f 23/43/6 15/44/6 14/45/6
f 21/46/1 14/47/1 12/48/1
f 20/49/5 46/50/5 11/51/5
f 18/52/6 12/53/6 10/54/6
f 24/55/2 13/56/2 15/57/2
f 45/58/6 18/59/6 10/60/6
f 13/61/5 20/62/5 11/63/5
f 9/64/1 29/65/1 27/66/1
f 27/67/3 39/68/3 30/69/3
f 30/70/1 35/71/1 31/72/1
f 28/73/1 32/74/1 29/65/1
f 36/21/2 38/75/2 37/76/2
f 39/77/2 16/20/2 40/78/2
f 43/79/2 39/77/2 40/78/2
f 41/80/2 37/76/2 38/75/2
f 37/81/6 34/82/6 28/83/6
f 33/84/1 46/24/1 35/71/1
f 16/20/2 26/85/2 36/21/2
f 41/86/5 29/87/5 32/88/5
f 34/89/3 17/90/3 45/91/3
f 36/92/4 28/93/4 9/94/4
f 29/95/3 26/96/3 27/67/3
f 30/70/1 25/97/1 27/66/1
f 39/98/6 33/99/6 30/100/6
f 43/101/5 31/102/5 35/103/5
f 27/66/1 25/97/1 9/64/1
f 31/104/4 16/105/4 25/106/4
f 41/80/2 17/37/2 44/107/2
f 19/108/3 35/109/3 46/110/3
f 42/111/2 43/79/2 19/35/2
f 42/112/4 32/113/4 33/114/4
f 19/35/2 17/37/2 42/111/2
f 33/84/1 45/22/1 46/24/1
f 32/74/1 45/22/1 33/84/1
f 83/115/1 49/116/1 48/117/1
f 49/118/4 50/119/4 48/120/4
f 53/121/4 50/119/4 51/122/4
f 56/123/2 57/124/2 55/125/2
f 58/126/3 59/127/3 60/128/3
f 59/127/3 62/129/3 60/128/3
f 53/130/6 61/131/6 52/132/6
f 52/133/1 59/134/1 50/135/1
f 84/136/5 58/137/5 49/138/5
f 50/139/6 56/140/6 48/141/6
f 51/142/2 62/143/2 53/144/2
f 83/145/6 56/146/6 55/147/6
f 51/148/5 58/149/5 60/150/5
f 67/151/1 47/152/1 65/153/1
f 77/154/4 65/155/4 68/156/4
f 73/157/1 68/158/1 69/159/1
f 70/160/1 66/161/1 67/151/1
f 74/19/2 76/162/2 64/163/2
f 54/164/2 77/165/2 78/166/2
f 77/165/2 81/167/2 78/166/2
f 75/168/2 79/169/2 76/162/2
f 72/170/6 75/171/6 66/172/6
f 71/173/1 73/157/1 84/174/1
f 54/164/2 74/19/2 64/163/2
f 67/175/5 79/176/5 70/177/5
f 72/178/4 55/179/4 82/180/4
f 66/181/3 74/182/3 47/183/3
f 64/184/4 67/185/4 65/155/4
f 68/158/1 63/186/1 69/159/1
f 71/187/6 77/188/6 68/189/6
f 69/190/5 81/191/5 73/192/5
f 65/153/1 47/152/1 63/186/1
f 69/193/3 54/194/3 78/195/3
f 79/169/2 55/125/2 80/196/2
f 73/197/4 57/198/4 84/199/4
f 80/196/2 57/124/2 81/167/2
f 70/200/3 80/201/3 71/202/3
f 57/124/2 80/196/2 55/125/2
f 71/173/1 84/174/1 83/115/1
f 70/160/1 83/115/1 72/203/1
f 63/186/1 9/64/1 25/97/1
f 2/1/1 4/204/1 3/2/1
f 7/4/2 8/205/2 6/5/2
f 6/7/3 8/206/3 4/8/3
f 7/10/4 5/207/4 1/11/4
f 8/13/5 7/208/5 3/14/5
f 5/16/6 6/209/6 2/17/6
f 74/19/2 54/164/2 16/20/2
f 45/22/1 10/210/1 11/23/1
f 11/25/3 10/211/3 12/26/3
f 12/26/3 14/212/3 15/28/3
f 25/29/5 16/213/5 54/30/5
f 47/32/6 74/214/6 36/33/6
f 19/35/2 20/215/2 18/36/2
f 20/38/4 22/42/4 21/39/4
f 24/41/4 23/216/4 21/39/4
f 23/43/6 24/217/6 15/44/6
f 21/46/1 23/218/1 14/47/1
f 20/49/5 19/219/5 46/50/5
f 18/52/6 21/220/6 12/53/6
f 24/55/2 22/221/2 13/56/2
f 45/58/6 17/222/6 18/59/6
f 13/61/5 22/223/5 20/62/5
f 9/64/1 28/73/1 29/65/1
f 27/67/3 26/96/3 39/68/3
f 30/70/1 33/84/1 35/71/1
f 28/73/1 34/224/1 32/74/1
f 36/21/2 26/85/2 38/75/2
f 39/77/2 26/85/2 16/20/2
f 43/79/2 42/111/2 39/77/2
f 41/80/2 44/107/2 37/76/2
f 37/81/6 44/225/6 34/82/6
f 41/86/5 38/226/5 29/87/5
f 34/89/3 44/227/3 17/90/3
f 36/92/4 37/228/4 28/93/4
f 29/95/3 38/229/3 26/96/3
f 30/70/1 31/72/1 25/97/1
f 39/98/6 42/230/6 33/99/6
f 43/101/5 40/231/5 31/102/5
f 31/104/4 40/232/4 16/105/4
f 41/80/2 42/111/2 17/37/2
f 19/108/3 43/233/3 35/109/3
f 42/112/4 41/234/4 32/113/4
f 32/74/1 34/224/1 45/22/1
f 83/115/1 84/174/1 49/116/1
f 49/118/4 51/122/4 50/119/4
f 53/121/4 52/235/4 50/119/4
f 56/123/2 58/236/2 57/124/2
f 58/126/3 56/237/3 59/127/3
f 59/127/3 61/238/3 62/129/3
f 53/130/6 62/239/6 61/131/6
f 52/133/1 61/240/1 59/134/1
f 84/136/5 57/241/5 58/137/5
f 50/139/6 59/242/6 56/140/6
f 51/142/2 60/243/2 62/143/2
f 83/145/6 48/244/6 56/146/6
f 51/148/5 49/245/5 58/149/5
f 67/151/1 66/161/1 47/152/1
f 77/154/4 64/184/4 65/155/4
f 73/157/1 71/173/1 68/158/1
f 70/160/1 72/203/1 66/161/1
f 74/19/2 75/168/2 76/162/2
f 54/164/2 64/163/2 77/165/2
f 77/165/2 80/196/2 81/167/2
f 75/168/2 82/246/2 79/169/2
f 72/170/6 82/247/6 75/171/6
f 67/175/5 76/248/5 79/176/5
f 72/178/4 83/249/4 55/179/4
f 66/181/3 75/250/3 74/182/3
f 64/184/4 76/251/4 67/185/4
f 68/158/1 65/153/1 63/186/1
f 71/187/6 80/252/6 77/188/6
f 69/190/5 78/253/5 81/191/5
f 69/193/3 63/254/3 54/194/3
f 79/169/2 82/246/2 55/125/2
f 73/197/4 81/255/4 57/198/4
f 70/200/3 79/256/3 80/201/3
f 70/160/1 71/173/1 83/115/1
f 63/186/1 47/152/1 9/64/1
usemtl Material.001
f 86/257/1 87/258/1 85/259/1
f 91/260/2 90/261/2 89/262/2
f 90/263/3 88/264/3 86/265/3
f 91/266/4 85/267/4 87/268/4
f 92/269/5 87/270/5 88/271/5
f 89/272/6 86/273/6 85/274/6
f 95/275/1 94/276/1 93/277/1
f 98/278/2 99/279/2 97/280/2
f 96/281/4 98/282/4 94/283/4
f 93/284/3 99/285/3 95/286/3
f 95/287/5 100/288/5 96/289/5
f 94/290/6 97/291/6 93/292/6
f 86/257/1 88/293/1 87/258/1
f 91/260/2 92/294/2 90/261/2
f 90/263/3 92/295/3 88/264/3
f 91/266/4 89/296/4 85/267/4
f 92/269/5 91/297/5 87/270/5
f 89/272/6 90/298/6 86/273/6
f 95/275/1 96/299/1 94/276/1
f 98/278/2 100/300/2 99/279/2
f 96/281/4 100/301/4 98/282/4
f 93/284/3 97/302/3 99/285/3
f 95/287/5 99/303/5 100/288/5
f 94/290/6 98/304/6 97/291/6
usemtl Material.002
f 102/305/1 111/306/1 109/307/1
f 116/308/2 105/309/2 106/310/2
f 102/305/1 103/311/1 104/312/1
f 114/313/2 116/308/2 106/310/2
f 101/314/5 115/315/5 110/316/5
f 106/310/2 107/317/2 114/313/2
f 106/318/3 101/319/3 102/320/3
f 114/321/6 103/322/6 109/323/6
f 108/324/5 102/325/5 104/326/5
f 107/327/3 104/328/3 103/329/3
f 111/306/1 112/330/1 109/307/1
f 116/308/2 117/331/2 118/332/2
f 110/333/4 116/334/4 111/335/4
f 112/336/6 114/321/6 109/323/6
f 111/337/5 118/338/5 113/339/5
f 113/340/4 117/341/4 112/342/4
f 110/343/7 102/305/7 101/344/7
f 130/345/2 121/346/2 119/347/2
f 129/348/1 128/349/1 124/350/1
f 128/351/6 123/352/6 124/353/6
f 121/354/5 125/355/5 119/356/5
f 130/357/6 126/358/6 129/348/6
f 127/359/2 130/345/2 119/347/2
f 123/360/3 129/361/3 124/362/3
f 125/363/1 129/348/1 126/358/1
f 120/364/1 129/348/1 125/363/1
f 123/365/2 122/366/2 130/345/2
f 121/367/4 128/368/4 120/369/4
f 125/370/3 127/371/3 119/372/3
f 142/373/2 133/374/2 134/375/2
f 141/376/1 136/377/1 140/378/1
f 135/379/6 140/380/6 136/381/6
f 137/382/5 133/383/5 131/384/5
f 138/385/6 142/386/6 141/376/6
f 139/387/2 131/388/2 142/373/2
f 141/389/4 135/390/4 136/391/4
f 137/392/1 138/385/1 141/376/1
f 141/376/1 132/393/1 137/392/1
f 135/394/2 142/373/2 134/375/2
f 140/395/3 133/396/3 132/397/3
f 137/398/4 139/399/4 138/400/4
f 116/308/2 115/401/2 105/309/2
f 102/305/1 109/307/1 103/311/1
f 101/314/5 105/402/5 115/315/5
f 106/310/2 108/403/2 107/317/2
f 106/318/3 105/404/3 101/319/3
f 114/321/6 107/405/6 103/322/6
f 108/324/5 106/406/5 102/325/5
f 107/327/3 108/407/3 104/328/3
f 111/306/1 113/408/1 112/330/1
f 116/308/2 114/313/2 117/331/2
f 110/333/4 115/409/4 116/334/4
f 112/336/6 117/410/6 114/321/6
f 111/337/5 116/411/5 118/338/5
f 113/340/4 118/412/4 117/341/4
f 110/343/7 111/306/7 102/305/7
f 130/345/2 122/366/2 121/346/2
f 128/351/6 122/413/6 123/352/6
f 121/354/5 120/414/5 125/355/5
f 130/357/6 127/415/6 126/358/6
f 123/360/3 130/416/3 129/361/3
f 120/364/1 128/349/1 129/348/1
f 121/367/4 122/417/4 128/368/4
f 125/370/3 126/418/3 127/371/3
f 142/373/2 131/388/2 133/374/2
f 135/379/6 134/419/6 140/380/6
f 137/382/5 132/420/5 133/383/5
f 138/385/6 139/421/6 142/386/6
f 141/389/4 142/422/4 135/390/4
f 141/376/1 140/378/1 132/393/1
f 140/395/3 134/423/3 133/396/3
f 137/398/4 131/424/4 139/399/4
