# WaveFront *.obj file (generated by CINEMA 4D)

v -63 44.19779205322266 -75
v 63 50.44779205322266 0
v 56.70000076293945 44.19779205322266 0
v 50.40000152587891 19.19779205322266 -6.25
v 50.40000152587891 12.94779109954834 0
v 6.30000019073486 19.19779205322266 0
v 56.70000076293945 37.94779205322266 -6.25
v 6.30000019073486 12.94779109954834 0
v 63 37.94779205322266 -6.25
v 6.30000019073486 6.69779109954834 0
v 6.30000019073486 19.19779205322266 -6.25
v 63 12.94779109954834 0
v 56.70000076293945 37.94779205322266 -62.5
v 50.40000152587891 12.94779109954834 -6.25
v 56.70000076293945 19.19779205322266 -62.5
v 56.70000076293945 12.94779109954834 0
v 56.70000076293945 12.94779109954834 -6.25
v 56.70000076293945 19.19779205322266 -75
v 6.30000019073486 44.19779205322266 0
v 63 19.19779205322266 -62.5
v 6.30000019073486 6.69779109954834 -6.25
v -56.70000076293945 44.19779205322266 -6.25
v 12.60000038146973 19.19779205322266 0
v -63 50.44779205322266 -68.75
v 6.30000019073486 44.19779205322266 -6.25
v 63 19.19779205322266 -75
v 56.70000076293945 19.19779205322266 0
v 63 37.94779205322266 -62.5
v 12.60000038146973 19.19779205322266 -6.25
v 56.70000076293945 44.19779205322266 -75
v 12.60000038146973 12.94779109954834 0
v 56.70000076293945 6.69779109954834 0
v 12.60000038146973 12.94779109954834 -6.25
v 63 12.94779109954834 -6.25
v 56.70000076293945 6.69779109954834 -6.25
v 50.40000152587891 19.19779205322266 0
v 56.70000076293945 19.19779205322266 -6.25
v 63 44.19779205322266 -68.75
v 6.30000019073486 12.94779109954834 -6.25
v -6.30000019073486 12.94779109954834 -6.25
v 56.70000076293945 44.19779205322266 -6.25
v 56.70000076293945 50.44779205322266 -6.25
v 63 44.19779205322266 -75
v 63 50.44779205322266 -68.75
v 56.70000076293945 44.19779205322266 -68.75
v 56.70000076293945 50.44779205322266 -68.75
v -56.70000076293945 50.44779205322266 -68.75
v -63 50.44779205322266 0
v -56.70000076293945 44.19779205322266 0
v -50.40000152587891 19.19779205322266 -6.25
v -50.40000152587891 12.94779109954834 0
v -6.30000019073486 19.19779205322266 0
v -56.70000076293945 37.94779205322266 -6.25
v -6.30000019073486 12.94779109954834 0
v -63 37.94779205322266 -6.25
v -6.30000019073486 6.69779109954834 0
v -6.30000019073486 19.19779205322266 -6.25
v -63 12.94779109954834 0
v -56.70000076293945 37.94779205322266 -62.5
v -50.40000152587891 12.94779109954834 -6.25
v -56.70000076293945 19.19779205322266 -62.5
v -56.70000076293945 12.94779109954834 0
v -56.70000076293945 12.94779109954834 -6.25
v -56.70000076293945 19.19779205322266 -75
v -6.30000019073486 44.19779205322266 0
v -63 19.19779205322266 -62.5
v -6.30000019073486 6.69779109954834 -6.25
v -56.70000076293945 44.19779205322266 -68.75
v -12.60000038146973 19.19779205322266 0
v -56.70000076293945 50.44779205322266 -6.25
v -6.30000019073486 44.19779205322266 -6.25
v -63 19.19779205322266 -75
v -56.70000076293945 19.19779205322266 0
v -63 37.94779205322266 -62.5
v -12.60000038146973 19.19779205322266 -6.25
v -56.70000076293945 44.19779205322266 -75
v -12.60000038146973 12.94779109954834 0
v -56.70000076293945 6.69779109954834 0
v -12.60000038146973 12.94779109954834 -6.25
v -63 12.94779109954834 -6.25
v -56.70000076293945 6.69779109954834 -6.25
v -50.40000152587891 19.19779205322266 0
v -56.70000076293945 19.19779205322266 -6.25
v -63 44.19779205322266 -68.75
# 84 vertices

vn 0 0 1
vn 0 0 0
vn 0 1 0
vn 0 0 -1
vn 1 0 0
vn -1 0 0
vn 0 0 1
vn 0 1 0
vn 0 -1 0
vn 0 -1 0
vn 1 0 0
vn 0 0 -1
vn 0 1 0
vn 0 0 1
vn 0 -1 0
vn -1 0 0
# 16 normals

vt 0.328125 1 0
vt 0.203125 1 0
vt 0.21875 0.94736844301224 0
vt 0.484375 0.68421053886414 0
vt 0.5 0.63157898187637 0
vt 0.5 0.94736844301224 0
vt 0.484375 0.0526317358017 0
vt 0.484375 0 0
vt 0.5 0 0
vt 0.484375 0.57894724607468 0
vt 0.1875 0.63157898187637 0
vt 0.203125 0.89473688602448 0
vt 0.1875 0.94736844301224 0
vt 0.328125 0.94736844301224 0
vt 0.328125 0.89473688602448 0
vt 0.359375 0.89473688602448 0
vt 0.828125 0.94736844301224 0
vt 0.8125 0.94736844301224 0
vt 0.8125 0.89473688602448 0
vt 0.46875 0.63157898187637 0
vt 0.375 0.63157898187637 0
vt 0.375 0.57894724607468 0
vt 0.859375 0.94736844301224 0
vt 0.859375 0.89473688602448 0
vt 0.875 0.89473688602448 0
vt 0.203125 0.57894724607468 0
vt 0.1875 0.0526317358017 0
vt 0.515625 0.89473688602448 0
vt 0.515625 0.94736844301224 0
vt 0.171875 0.7368420958519 0
vt 0.03125 0.7368420958519 0
vt 0.171875 0.68421053886414 0
vt 1 0.7368420958519 0
vt 1 0.89473670721054 0
vt 0.984375 0.89473670721054 0
vt 0.03125 0.89473688602448 0
vt 0 0.89473688602448 0
vt 0.359375 0.57894724607468 0
vt 0 0.68421053886414 0
vt 0.015625 0.68421053886414 0
vt 0.8125 0.0526317358017 0
vt 0.796875 0.0526317358017 0
vt 0.796875 0 0
vt 0.484375 0.94736844301224 0
vt 0.484375 1 0
vt 0.46875 0.94736844301224 0
vt 0.203125 0.94736844301224 0
vt 0.21875 0.89473688602448 0
vt 0.96875 0.94736844301224 0
vt 0.984375 0.94736844301224 0
vt 0.984375 1 0
vt 0.1875 0.89473688602448 0
vt 0.171875 0.89473688602448 0
vt 0.015625 0.63157898187637 0
vt 0.171875 0.63157898187637 0
vt 0.671875 0 0
vt 0.5 1 0
vt 0.828125 1 0
vt 0.515625 0.68421053886414 0
vt 0.5 0.89473688602448 0
vt 0.703125 1 0
vt 0.703125 0.94736844301224 0
vt 0.71875 0.94736844301224 0
vt 0.46875 0.57894724607468 0
vt 0.484375 0.63157898187637 0
vt 0.671875 0.0526317358017 0
vt 0.640625 0.0526317358017 0
vt 0.640625 0 0
vt 0.171875 0.94736844301224 0
vt 0.1875 1 0
vt 0.171875 1 0
vt 0.65625 0.7368420958519 0
vt 0.6875 0.68421053886414 0
vt 0.6875 0.89473688602448 0
vt 0.828125 0.89473688602448 0
vt 0.828125 0.68421053886414 0
vt 0.859375 0.68421053886414 0
vt 0.484375 0.89473688602448 0
vt 0.6875 0.63157898187637 0
vt 0.703125 0.63157898187637 0
vt 0.671875 0.68421053886414 0
vt 0.703125 0.68421053886414 0
vt 0.703125 0.89473688602448 0
vt 0.8125 0.52631568908691 0
vt 0.8125 0.63157898187637 0
vt 0.796875 0.63157898187637 0
vt 0.515625 0.7368420958519 0
vt 0.671875 0.63157898187637 0
vt 0.875 0.94736844301224 0
vt 0.859375 1 0
vt 0.46875 0.89473688602448 0
vt 0.984375 0.63157898187637 0
vt 0.984375 0.68421053886414 0
vt 0.359375 0.68421053886414 0
vt 0.984375 0.89473688602448 0
vt 1 0.94736844301224 0
vt 0.3125 0.94736844301224 0
vt 0.1875 0 0
vt 0.203125 0 0
vt 0.5 0.0526317358017 0
vt 0.71875 0.89473688602448 0
vt 0.21875 0.57894724607468 0
vt 0.3125 0.57894724607468 0
vt 0.3125 0.63157898187637 0
vt 0.6875 0.94736844301224 0
vt 0.6875 0.7368420958519 0
vt 0.5 0.68421053886414 0
vt 0.703125 0.7368420958519 0
vt 0.703125 0.89473670721054 0
vt 0.6875 0.89473670721054 0
vt 0.328125 0.63157898187637 0
vt 0.515625 0.63157898187637 0
vt 0.515625 0 0
vt 0.515625 0.0526317358017 0
vt 0.375 0.94736844301224 0
vt 0.359375 0.94736844301224 0
vt 0.359375 1 0
vt 0.1875 0.68421053886414 0
vt 0.21875 0.63157898187637 0
vt 0.203125 0.63157898187637 0
vt 0.515625 1 0
vt 0.984375 0.7368420958519 0
vt 0.328125 0.68421053886414 0
vt 0.203125 0.68421053886414 0
vt 1 0.63157898187637 0
vt 1 0.89473688602448 0
vt 0.96875 0.89473688602448 0
vt 0.515625 0.52631568908691 0
vt 0.5 0.52631568908691 0
vt 0.3125 0.89473688602448 0
vt 0.203125 0.0526317358017 0
vt 0.359375 0.63157898187637 0
vt 0.8125 0 0
vt 0.65625 0.89473688602448 0
vt 0.796875 0.52631568908691 0
vt 0.328125 0.57894724607468 0
vt 0.375 0.89473688602448 0
vt 1 0.68421053886414 0
# 138 texture coordinates

o Cube.2
usemtl Mat
f 51/3/1 78/2/1 56/1/1
f 12/6/1 2/5/1 3/4/1
f 43/9/3 30/8/3 45/7/3
f 48/11/3 2/5/3 42/10/3
f 48/11/1 58/13/1 73/12/1
f 6/16/1 52/15/1 54/14/1
f 29/19/4 33/18/4 39/17/4
f 33/22/3 31/21/3 5/20/3
f 75/25/4 57/24/4 40/23/4
f 24/27/3 48/11/3 70/26/3
f 31/6/5 33/29/5 29/28/5
f 41/32/6 13/31/6 7/30/6
f 15/35/1 20/34/7 28/33/1
f 18/37/6 15/36/6 13/31/6
f 23/21/3 29/22/8 11/38/3
f 45/40/6 30/39/6 13/31/6
f 16/43/9 17/42/10 34/41/9
f 5/46/1 32/45/7 16/44/1
f 82/48/1 73/12/1 62/47/1
f 81/51/4 63/50/4 60/49/4
f 7/30/6 37/53/6 27/52/6
f 42/55/6 46/54/6 13/31/6
f 41/42/9 3/43/9 19/56/9
f 17/29/5 16/6/5 32/57/5
f 21/58/4 39/17/4 33/18/4
f 6/60/5 11/28/5 25/59/5
f 14/63/4 17/62/4 35/61/4
f 27/65/3 37/10/8 4/64/3
f 54/68/9 40/67/10 39/66/9
f 14/69/6 5/13/6 36/52/6
f 21/71/6 10/70/6 8/13/6
f 26/74/5 43/73/11 28/72/5
f 35/42/9 32/43/9 10/56/9
f 71/77/4 25/76/4 11/75/4
f 27/78/1 16/44/1 12/6/1
f 46/80/4 44/79/12 38/73/4
f 28/72/5 43/73/11 38/81/5
f 18/83/4 30/82/4 43/73/4
f 21/58/4 33/18/4 14/63/4
f 18/86/9 26/85/9 20/84/9
f 12/6/5 34/29/5 9/87/5
f 44/88/5 2/5/5 9/87/5
f 40/23/4 67/90/4 79/89/4
f 28/84/9 9/41/9 7/42/9
f 36/91/1 5/46/1 16/44/1
f 51/3/1 62/47/1 78/2/1
f 46/54/6 45/40/6 13/31/6
f 71/77/4 22/93/4 70/92/4
f 52/15/1 6/16/1 19/94/1
f 63/50/4 80/96/4 83/95/4
f 28/72/5 38/81/5 44/88/5
f 77/97/1 56/1/1 54/14/1
f 19/94/1 2/5/1 48/11/1
f 76/99/3 1/98/3 84/27/3
f 44/100/3 46/7/3 42/10/3
f 4/101/4 37/83/4 17/62/4
f 19/94/1 3/4/1 2/5/1
f 42/80/4 41/82/4 25/76/4
f 77/104/3 79/103/8 60/102/3
f 9/106/4 34/105/4 37/83/4
f 84/40/6 1/39/6 74/31/6
f 79/69/6 77/13/6 69/52/6
f 22/59/5 49/107/5 53/87/5
f 66/110/1 61/109/7 59/108/1
f 64/74/5 76/73/11 59/72/5
f 75/103/3 69/104/3 52/111/3
f 70/112/5 22/59/5 59/72/5
f 63/114/9 62/113/9 58/9/9
f 6/16/1 8/116/1 31/115/1
f 10/117/1 32/45/7 5/46/1
f 37/83/4 34/105/4 17/62/4
f 53/87/5 49/107/5 73/60/5
f 59/72/5 76/73/11 68/81/5
f 49/113/9 22/114/10 71/67/9
f 62/13/6 63/69/6 81/71/6
f 70/92/4 42/80/4 25/76/4
f 57/53/6 52/52/6 65/118/6
f 60/49/4 79/89/4 67/90/4
f 83/26/3 73/120/3 82/119/3
f 73/12/1 58/13/1 62/47/1
f 51/6/5 60/29/5 50/28/5
f 56/57/5 67/121/5 40/29/5
f 58/13/6 48/11/6 55/30/6
f 78/113/9 81/114/10 67/67/9
f 55/33/4 53/122/12 83/95/4
f 49/124/1 65/123/1 48/11/1
f 24/125/4 47/92/12 68/93/4
f 24/54/6 84/40/6 74/31/6
f 76/93/4 64/95/4 72/126/4
f 83/95/4 50/127/12 60/49/4
f 72/5/9 64/112/9 61/128/9
f 72/37/6 66/36/6 74/31/6
f 48/11/6 24/54/6 74/31/6
f 57/24/4 11/75/4 39/17/4
f 55/100/9 74/129/10 59/128/9
f 69/130/1 77/97/1 54/14/1
f 31/115/1 8/116/1 10/117/1
f 59/72/5 68/81/5 47/88/5
f 77/97/1 51/3/1 56/1/1
f 27/78/1 12/6/1 3/4/1
f 38/100/3 43/9/3 45/7/3
f 70/26/3 48/11/3 42/10/3
f 49/124/1 48/11/1 73/12/1
f 8/116/1 6/16/1 54/14/1
f 11/75/4 29/19/4 39/17/4
f 14/64/13 33/22/3 5/20/3
f 79/89/4 75/25/4 40/23/4
f 47/131/13 24/27/3 70/26/3
f 23/60/5 31/6/5 29/28/5
f 3/118/6 41/32/6 7/30/6
f 13/122/14 15/35/1 28/33/1
f 30/39/6 18/37/6 13/31/6
f 6/132/3 23/21/3 11/38/3
f 12/133/15 16/43/9 34/41/9
f 51/3/1 82/48/1 62/47/1
f 3/118/6 7/30/6 27/52/6
f 41/32/6 42/55/6 13/31/6
f 25/66/9 41/42/9 19/56/9
f 35/121/5 17/29/5 32/57/5
f 19/107/5 6/60/5 25/59/5
f 36/20/3 27/65/3 4/64/3
f 8/56/15 54/68/9 39/66/9
f 4/53/6 14/69/6 36/52/6
f 39/69/6 21/71/6 8/13/6
f 20/134/5 26/74/5 28/72/5
f 21/66/9 35/42/9 10/56/9
f 57/24/4 71/77/4 11/75/4
f 45/82/4 46/80/4 38/73/4
f 26/74/4 18/83/4 43/73/4
f 35/61/4 21/58/4 14/63/4
f 15/135/9 18/86/9 20/84/9
f 2/5/5 12/6/5 9/87/5
f 28/72/5 44/88/5 9/87/5
f 13/135/9 28/84/9 7/42/9
f 27/78/1 36/91/1 16/44/1
f 65/123/1 52/15/1 19/94/1
f 65/123/1 19/94/1 48/11/1
f 68/131/3 76/99/3 84/27/3
f 2/5/3 44/100/3 42/10/3
f 14/63/4 4/101/4 17/62/4
f 51/119/3 77/104/3 60/102/3
f 7/108/4 9/106/4 37/83/4
f 75/53/6 79/69/6 69/52/6
f 59/72/5 22/59/5 53/87/5
f 74/106/14 66/110/1 59/108/1
f 61/134/5 64/74/5 59/72/5
f 57/136/13 75/103/3 52/111/3
f 47/88/5 70/112/5 59/72/5
f 80/100/9 63/114/9 58/9/9
f 23/137/1 6/16/1 31/115/1
f 31/115/1 10/117/1 5/46/1
f 83/28/5 53/87/5 73/60/5
f 65/68/15 49/113/9 71/67/9
f 78/70/6 62/13/6 81/71/6
f 71/77/4 70/92/4 25/76/4
f 71/32/6 57/53/6 65/118/6
f 81/51/4 60/49/4 67/90/4
f 50/102/13 83/26/3 82/119/3
f 82/60/5 51/6/5 50/28/5
f 54/6/5 56/57/5 40/29/5
f 80/69/16 58/13/6 55/30/6
f 56/68/15 78/113/9 67/67/9
f 80/96/4 55/33/4 83/95/4
f 84/138/4 24/125/4 68/93/4
f 1/138/4 76/93/4 72/126/4
f 63/50/4 83/95/4 60/49/4
f 66/129/9 72/5/9 61/128/9
f 1/39/6 72/37/6 74/31/6
f 55/30/6 48/11/6 74/31/6
f 40/23/4 57/24/4 39/17/4
f 53/114/15 55/100/9 59/128/9
f 52/15/1 69/130/1 54/14/1

