# WaveFront *.obj file (generated by CINEMA 4D)

v -63 44.19779205322266 -75
v 63 50.44779205322266 0
v 56.70000076293945 44.19779205322266 0
v 50.40000152587891 19.19779205322266 -6.25
v 50.40000152587891 12.94779109954834 0
v 6.30000019073486 19.19779205322266 0
v 56.70000076293945 37.94779205322266 -6.25
v 6.30000019073486 12.94779109954834 0
v 63 37.94779205322266 -6.25
v 6.30000019073486 6.69779109954834 0
v 6.30000019073486 19.19779205322266 -6.25
v 63 12.94779109954834 0
v 56.70000076293945 37.94779205322266 -62.5
v 50.40000152587891 12.94779109954834 -6.25
v 56.70000076293945 19.19779205322266 -62.5
v 56.70000076293945 12.94779109954834 0
v 56.70000076293945 12.94779109954834 -6.25
v 56.70000076293945 19.19779205322266 -75
v 6.30000019073486 44.19779205322266 0
v 63 19.19779205322266 -62.5
v 6.30000019073486 6.69779109954834 -6.25
v -56.70000076293945 44.19779205322266 -6.25
v 12.60000038146973 19.19779205322266 0
v -63 50.44779205322266 -68.75
v 6.30000019073486 44.19779205322266 -6.25
v 63 19.19779205322266 -75
v 56.70000076293945 19.19779205322266 0
v 63 37.94779205322266 -62.5
v 12.60000038146973 19.19779205322266 -6.25
v 56.70000076293945 44.19779205322266 -75
v 12.60000038146973 12.94779109954834 0
v 56.70000076293945 6.69779109954834 0
v 12.60000038146973 12.94779109954834 -6.25
v 63 12.94779109954834 -6.25
v 56.70000076293945 6.69779109954834 -6.25
v 50.40000152587891 19.19779205322266 0
v 56.70000076293945 19.19779205322266 -6.25
v 63 44.19779205322266 -68.75
v 6.30000019073486 12.94779109954834 -6.25
v -6.30000019073486 12.94779109954834 -6.25
v 56.70000076293945 44.19779205322266 -6.25
v 56.70000076293945 50.44779205322266 -6.25
v 63 44.19779205322266 -75
v 63 50.44779205322266 -68.75
v 56.70000076293945 44.19779205322266 -68.75
v 56.70000076293945 50.44779205322266 -68.75
v -56.70000076293945 50.44779205322266 -68.75
v -63 50.44779205322266 0
v -56.70000076293945 44.19779205322266 0
v -50.40000152587891 19.19779205322266 -6.25
v -50.40000152587891 12.94779109954834 0
v -6.30000019073486 19.19779205322266 0
v -56.70000076293945 37.94779205322266 -6.25
v -6.30000019073486 12.94779109954834 0
v -63 37.94779205322266 -6.25
v -6.30000019073486 6.69779109954834 0
v -6.30000019073486 19.19779205322266 -6.25
v -63 12.94779109954834 0
v -56.70000076293945 37.94779205322266 -62.5
v -50.40000152587891 12.94779109954834 -6.25
v -56.70000076293945 19.19779205322266 -62.5
v -56.70000076293945 12.94779109954834 0
v -56.70000076293945 12.94779109954834 -6.25
v -56.70000076293945 19.19779205322266 -75
v -6.30000019073486 44.19779205322266 0
v -63 19.19779205322266 -62.5
v -6.30000019073486 6.69779109954834 -6.25
v -56.70000076293945 44.19779205322266 -68.75
v -12.60000038146973 19.19779205322266 0
v -56.70000076293945 50.44779205322266 -6.25
v -6.30000019073486 44.19779205322266 -6.25
v -63 19.19779205322266 -75
v -56.70000076293945 19.19779205322266 0
v -63 37.94779205322266 -62.5
v -12.60000038146973 19.19779205322266 -6.25
v -56.70000076293945 44.19779205322266 -75
v -12.60000038146973 12.94779109954834 0
v -56.70000076293945 6.69779109954834 0
v -12.60000038146973 12.94779109954834 -6.25
v -63 12.94779109954834 -6.25
v -56.70000076293945 6.69779109954834 -6.25
v -50.40000152587891 19.19779205322266 0
v -56.70000076293945 19.19779205322266 -6.25
v -63 44.19779205322266 -68.75
v -12.60000038146973 44.19779205322266 -3.125
v -50.40000152587891 12.94779109954834 -3.125
v -12.60000038146973 12.94779109954834 -3.125
v -12.60000038146973 19.19779205322266 -3.125
v -6.30000019073486 19.19779205322266 -3.125
v -6.30000019073486 44.19779205322266 -3.125
v 50.40000152587891 19.19779205322266 -3.125
v -56.70000076293945 19.19779205322266 -3.125
v 12.60000038146973 44.19779205322266 -3.125
v 50.40000152587891 12.94779109954834 -3.125
v 12.60000038146973 12.94779109954834 -3.125
v 12.60000038146973 19.19779205322266 -3.125
v 6.30000019073486 19.19779205322266 -3.125
v 6.30000019073486 44.19779205322266 -3.125
v 56.70000076293945 44.19779205322266 -3.125
v 56.70000076293945 19.19779205322266 -3.125
v 50.40000152587891 44.19779205322266 -3.125
v -50.40000152587891 19.19779205322266 -3.125
v -50.40000152587891 44.19779205322266 -3.125
v -56.70000076293945 44.19779205322266 -3.125
# 104 vertices

vn -1 0 0
vn 0 0 0
vn 0 0 -1
vn 0 0 -1
vn 0 -1 0
vn 0 -1 0
vn 0 0 1
vn 1 0 0
vn 1 0 0
vn 0 1 0
vn -1 0 0
vn 0 1 0
vn 0 0 1
vn 0 -1 0
vn -1 0 0
vn 0 0 1
vn 0 1 0
# 17 normals

vt 0.03125 0.7368420958519 0
vt 0.015625 0.68421053886414 0
vt 0.015625 0.63157898187637 0
vt 1 0.89473688602448 0
vt 0.984375 0.89473688602448 0
vt 0.984375 0.68421053886414 0
vt 0.96875 0.94736850261688 0
vt 0.96875 0.89473688602448 0
vt 0.515625 0.5263158082962 0
vt 0.515625 0.63157898187637 0
vt 0.5 0.63157898187637 0
vt 0.03125 0.89473688602448 0
vt 0 0.89473688602448 0
vt 0.828125 0.94736850261688 0
vt 0.828125 0.89473688602448 0
vt 0.859375 0.89473688602448 0
vt 0.5 0.5263158082962 0
vt 0.5 0.0526317358017 0
vt 0.359375 1 0
vt 0.359375 0.94736850261688 0
vt 0.375 0.94736850261688 0
vt 0.671875 0.63157898187637 0
vt 0.671875 0.68421053886414 0
vt 0.65625 0.7368420958519 0
vt 0.71875 0.94736850261688 0
vt 0.828125 1 0
vt 0.703125 1 0
vt 0.515625 0.7368420958519 0
vt 0.515625 0.68421053886414 0
vt 0.5078125 0.68421053886414 0
vt 0.859375 1 0
vt 0.984375 1 0
vt 0.1875 0.63157898187637 0
vt 0.171875 0.7368420958519 0
vt 0.328125 0.94736850261688 0
vt 0.3125 0.89473688602448 0
vt 0.328125 0.89473688602448 0
vt 0.171875 0.68421053886414 0
vt 0.1796875 0.68421053886414 0
vt 0.5078125 0.89473688602448 0
vt 0.5 0.89473688602448 0
vt 0.5 0.68421053886414 0
vt 0.515625 0.89473688602448 0
vt 0.515625 0.94736850261688 0
vt 0.21875 0.60526323318481 0
vt 0.21875 0.57894736528397 0
vt 0.3125 0.57894736528397 0
vt 0.1796875 0.94736850261688 0
vt 0.171875 0.94736850261688 0
vt 0.171875 0.89473688602448 0
vt 0.3125 0.60526323318481 0
vt 0.328125 0.57894736528397 0
vt 0.1796875 0.89473688602448 0
vt 0.640625 0.02631592750549 0
vt 0.640625 0.0526317358017 0
vt 0.515625 0.0526317358017 0
vt 0.1875 0.89473688602448 0
vt 0.1875 0.94736850261688 0
vt 0.46875 0.60526323318481 0
vt 0.46875 0.63157898187637 0
vt 0.375 0.63157898187637 0
vt 0.5078125 0.94736850261688 0
vt 0.5 0.94736850261688 0
vt 0.375 0.60526323318481 0
vt 0.359375 0.63157898187637 0
vt 0.671875 0.02631592750549 0
vt 0.671875 0 0
vt 0.796875 0 0
vt 0.21875 0.94736850261688 0
vt 0.21875 0.89473688602448 0
vt 0.21875 0.68421053886414 0
vt 0.3125 0.68421053886414 0
vt 0.328125 0.68421053886414 0
vt 0.203125 0.89473688602448 0
vt 0.375 0.89473688602448 0
vt 0.46875 0.89473688602448 0
vt 0.46875 0.68421053886414 0
vt 0.484375 0.68421053886414 0
vt 0.375 0.68421053886414 0
vt 0.359375 0.89473688602448 0
vt 0.328125 1 0
vt 0.3125 0.94736850261688 0
vt 0.484375 0.89473688602448 0
vt 0.484375 0.0526317358017 0
vt 0.5 0 0
vt 0.484375 0.57894736528397 0
vt 0.203125 0.57894736528397 0
vt 0.203125 0.68421053886414 0
vt 0.8125 0.89473688602448 0
vt 0.46875 0.57894736528397 0
vt 0.859375 0.94736850261688 0
vt 0.875 0.89473688602448 0
vt 0.875 0.94736850261688 0
vt 0.1875 0.0526317358017 0
vt 0.203125 0.0526317358017 0
vt 0.5 0.7368420958519 0
vt 0.484375 0.7368420958519 0
vt 0 0.68421053886414 0
vt 0.359375 0.57894736528397 0
vt 0.359375 0.60526323318481 0
vt 0.8125 0.0526317358017 0
vt 0.8125 0 0
vt 0.484375 0.94736850261688 0
vt 0.46875 0.94736850261688 0
vt 0.203125 0.94736850261688 0
vt 0.984375 0.94736850261688 0
vt 0.484375 0.60526323318481 0
vt 0.171875 0.63157898187637 0
vt 0.796875 0.02631592750549 0
vt 0.671875 0.0526317358017 0
vt 0.5 1 0
vt 0.515625 1 0
vt 0.8125 0.94736850261688 0
vt 0.71875 0.89473688602448 0
vt 0.640625 0 0
vt 0.171875 1 0
vt 0.6875 0.89473688602448 0
vt 0.65625 0.89473688602448 0
vt 0.796875 0.0526317358017 0
vt 0.859375 0.68421053886414 0
vt 0.6875 0.68421053886414 0
vt 0.703125 0.63157898187637 0
vt 0.703125 0.68421053886414 0
vt 0.703125 0.89473688602448 0
vt 0.8125 0.5263158082962 0
vt 0.796875 0.63157898187637 0
vt 0.796875 0.5263158082962 0
vt 0.984375 0.63157898187637 0
vt 0.828125 0.68421053886414 0
vt 0.359375 0.68421053886414 0
vt 1 0.94736850261688 0
vt 0.203125 0 0
vt 0.703125 0.94736850261688 0
vt 0.21875 0.63157898187637 0
vt 0.6875 0.7368420958519 0
vt 0.703125 0.7368420958519 0
vt 0.203125 0.63157898187637 0
vt 0.203125 0.60526323318481 0
vt 0.203125 0.7368420958519 0
vt 0.1875 0.7368420958519 0
vt 0.328125 0.63157898187637 0
vt 0.328125 0.60526323318481 0
vt 0.515625 0.02631592750549 0
vt 0.1875 1 0
vt 0.1875 0.68421053886414 0
vt 0.515625 0 0
vt 1 0.63157898187637 0
vt 1 0.68421053886414 0
vt 0.203125 1 0
vt 0.484375 0 0
vt 0.375 0.57894736528397 0
vt 0.484375 1 0
vt 0.484375 0.63157898187637 0
vt 0.6875 0.63157898187637 0
vt 0.8125 0.63157898187637 0
vt 1 0.7368420958519 0
vt 0.1875 0 0
vt 0.6875 0.94736850261688 0
vt 0.3125 0.63157898187637 0
vt 0.984375 0.7368420958519 0
# 160 texture coordinates

o Cube.3
usemtl Mat
f 24/3/1 84/2/1 74/1/1
f 76/6/3 64/5/3 72/4/3
f 83/5/3 50/8/4 60/7/3
f 72/11/5 64/10/5 61/9/5
f 72/13/1 66/12/1 74/1/1
f 57/16/3 11/15/3 39/14/3
f 55/18/5 74/17/6 59/9/5
f 31/21/7 8/20/7 10/19/7
f 59/24/8 68/23/8 47/22/8
f 35/27/3 21/26/3 14/25/3
f 22/29/8 53/28/8 59/24/8
f 53/28/8 22/29/8 104/30/8
f 81/32/3 60/7/3 67/31/3
f 55/34/1 48/33/1 74/1/1
f 52/37/7 69/36/7 54/35/7
f 99/39/1 41/38/1 7/34/1
f 49/42/8 73/41/8 92/40/8
f 53/28/8 104/30/8 92/40/8
f 60/44/8 50/43/9 102/40/8
f 79/47/10 60/46/10 86/45/10
f 75/50/1 79/49/1 87/48/1
f 57/52/10 75/47/10 88/51/10
f 71/38/1 57/50/1 89/53/1
f 22/56/5 71/55/5 90/54/5
f 7/34/1 37/50/1 100/53/1
f 99/39/1 100/53/1 27/57/1
f 5/58/1 36/57/11 91/53/1
f 31/61/10 5/60/10 94/59/10
f 23/41/8 31/63/8 95/62/8
f 6/65/10 23/61/10 96/64/10
f 19/42/8 6/41/8 97/40/8
f 3/68/5 19/67/5 98/66/5
f 88/36/7 102/70/7 86/69/7
f 103/71/7 102/70/7 88/36/7
f 90/73/7 85/72/7 88/36/7
f 92/74/7 102/70/7 103/71/7
f 91/76/7 96/75/7 95/21/7
f 99/78/7 101/77/7 91/76/7
f 97/80/7 96/75/7 93/79/7
f 93/79/7 96/75/7 91/76/7
f 77/82/7 51/69/7 56/81/7
f 27/83/7 12/63/7 3/78/7
f 38/18/10 43/85/10 45/84/10
f 70/87/10 48/33/10 42/86/10
f 49/88/7 48/33/7 73/74/7
f 8/20/7 6/80/7 54/35/7
f 11/15/3 29/89/3 39/14/3
f 94/59/10 14/90/10 95/64/10
f 79/93/3 75/92/3 40/91/3
f 47/95/12 24/94/10 70/87/10
f 96/40/8 95/62/8 29/43/8
f 13/97/13 15/83/7 28/96/7
f 30/98/1 18/13/1 13/1/1
f 97/100/10 96/64/10 11/99/10
f 12/102/14 16/68/5 34/101/5
f 36/76/7 5/104/7 16/103/7
f 51/69/7 82/70/7 62/105/7
f 81/32/3 63/106/3 60/7/3
f 100/107/10 37/86/10 91/59/10
f 41/38/1 42/108/1 13/1/1
f 98/66/5 25/110/5 99/109/5
f 35/112/8 17/44/8 32/111/8
f 14/25/3 21/26/3 33/113/3
f 98/30/8 97/40/8 25/29/8
f 14/25/3 4/114/3 35/27/3
f 91/59/10 36/60/10 100/107/10
f 8/67/14 54/115/5 39/110/5
f 91/53/1 4/50/1 94/48/1
f 39/49/1 21/116/1 8/58/1
f 20/118/8 26/117/8 28/24/8
f 21/110/5 35/119/5 10/67/5
f 57/16/3 71/120/3 11/15/3
f 27/83/7 36/76/7 12/63/7
f 45/123/3 46/122/3 38/121/3
f 26/117/3 18/124/3 43/121/3
f 15/127/5 18/126/5 20/125/5
f 2/11/8 12/63/8 9/28/8
f 28/24/8 44/22/8 9/28/8
f 40/91/3 67/31/3 79/93/3
f 13/127/5 28/125/5 7/119/5
f 25/129/3 71/120/3 70/128/3
f 65/73/7 52/37/7 19/130/7
f 63/106/3 80/131/3 83/5/3
f 69/36/7 77/82/7 54/35/7
f 19/130/7 3/78/7 48/33/7
f 68/95/10 76/132/10 84/94/10
f 2/11/10 44/18/10 42/86/10
f 4/114/3 37/124/3 17/133/3
f 70/128/3 42/122/3 25/129/3
f 86/45/10 51/134/10 87/51/10
f 7/136/3 9/135/3 37/124/3
f 84/2/1 1/98/1 74/1/1
f 88/53/1 87/48/1 69/57/1
f 92/138/10 73/137/10 102/45/10
f 74/140/13 66/57/7 59/139/7
f 61/118/8 64/117/8 59/24/8
f 89/142/10 88/51/10 52/141/10
f 47/22/8 70/10/8 59/24/8
f 80/18/5 63/56/5 58/85/5
f 23/75/7 6/80/7 31/21/7
f 31/21/7 10/19/7 5/104/7
f 90/54/5 65/115/5 104/143/5
f 78/144/1 62/58/1 81/116/1
f 90/39/1 89/53/1 65/145/1
f 102/45/10 50/46/10 92/138/10
f 102/40/8 82/41/8 86/62/8
f 54/63/8 56/111/8 40/44/8
f 80/49/15 58/58/1 55/34/1
f 56/115/14 78/146/5 67/55/5
f 49/88/7 65/73/7 48/33/7
f 84/148/3 24/147/3 68/6/3
f 48/33/1 24/3/1 74/1/1
f 1/148/3 76/6/3 72/4/3
f 66/17/5 72/11/5 61/9/5
f 40/91/3 57/16/3 39/14/3
f 53/56/14 55/18/5 59/9/5
f 104/30/8 49/42/8 92/40/8
f 83/43/8 53/28/8 92/40/8
f 86/62/8 60/44/8 102/40/8
f 87/51/10 79/47/10 86/45/10
f 88/53/1 75/50/1 87/48/1
f 89/142/10 57/52/10 88/51/10
f 90/39/1 71/38/1 89/53/1
f 104/143/5 22/56/5 90/54/5
f 99/39/1 7/34/1 100/53/1
f 3/145/1 99/39/1 27/57/1
f 94/48/15 5/58/1 91/53/1
f 95/64/10 31/61/10 94/59/10
f 96/40/8 23/41/8 95/62/8
f 97/100/10 6/65/10 96/64/10
f 98/30/8 19/42/8 97/40/8
f 99/109/5 3/68/5 98/66/5
f 87/82/7 88/36/7 86/69/7
f 85/72/7 103/71/7 88/36/7
f 89/37/7 90/73/7 88/36/7
f 104/88/13 92/74/7 103/71/7
f 94/104/7 91/76/7 95/21/7
f 100/83/7 99/78/7 91/76/7
f 98/130/13 97/80/7 93/79/7
f 101/77/7 93/79/7 91/76/7
f 51/69/7 78/149/7 56/81/7
f 12/63/7 2/11/7 3/78/7
f 43/85/10 30/150/10 45/84/10
f 48/33/10 2/11/10 42/86/10
f 48/33/7 58/58/7 73/74/7
f 6/80/7 52/37/7 54/35/7
f 29/89/3 33/113/3 39/14/3
f 14/90/10 33/151/10 95/64/10
f 75/92/3 57/16/3 40/91/3
f 24/94/10 48/33/10 70/87/10
f 95/62/8 33/44/8 29/43/8
f 41/38/1 13/1/1 7/34/1
f 15/83/7 20/41/16 28/96/7
f 18/13/1 15/12/1 13/1/1
f 96/64/10 29/151/17 11/99/10
f 45/2/1 30/98/1 13/1/1
f 16/68/5 17/119/6 34/101/5
f 5/104/7 32/152/16 16/103/7
f 82/70/7 73/74/7 62/105/7
f 63/106/3 83/5/3 60/7/3
f 37/86/10 4/90/10 91/59/10
f 42/108/1 46/3/1 13/1/1
f 25/110/5 41/119/5 99/109/5
f 17/44/8 16/63/8 32/111/8
f 21/26/3 39/14/3 33/113/3
f 97/40/8 11/43/8 25/29/8
f 4/114/3 17/133/3 35/27/3
f 36/60/10 27/153/10 100/107/10
f 54/115/5 40/55/6 39/110/5
f 4/50/1 14/49/1 94/48/1
f 21/116/1 10/144/1 8/58/1
f 26/117/8 43/121/9 28/24/8
f 35/119/5 32/68/5 10/67/5
f 71/120/3 25/129/3 11/15/3
f 36/76/7 16/103/7 12/63/7
f 46/122/3 44/154/4 38/121/3
f 28/24/8 43/121/9 38/23/8
f 18/124/3 30/123/3 43/121/3
f 18/126/5 26/155/5 20/125/5
f 12/63/8 34/44/8 9/28/8
f 44/22/8 2/11/8 9/28/8
f 67/31/3 60/7/3 79/93/3
f 28/125/5 9/101/5 7/119/5
f 51/69/7 62/105/7 78/149/7
f 46/3/1 45/2/1 13/1/1
f 71/120/3 22/6/3 70/128/3
f 52/37/7 6/80/7 19/130/7
f 80/131/3 55/156/3 83/5/3
f 28/24/8 38/23/8 44/22/8
f 77/82/7 56/81/7 54/35/7
f 3/78/7 2/11/7 48/33/7
f 76/132/10 1/157/10 84/94/10
f 44/18/10 46/84/10 42/86/10
f 37/124/3 34/158/3 17/133/3
f 42/122/3 41/123/3 25/129/3
f 51/134/10 77/159/10 87/51/10
f 9/135/3 34/158/3 37/124/3
f 1/98/1 72/13/1 74/1/1
f 87/48/1 77/58/1 69/57/1
f 73/137/10 82/134/10 102/45/10
f 66/57/7 61/74/16 59/139/7
f 64/117/8 76/121/9 59/24/8
f 88/51/10 69/159/10 52/141/10
f 70/10/8 22/29/8 59/24/8
f 63/56/5 62/146/5 58/85/5
f 6/80/7 8/20/7 31/21/7
f 10/19/7 32/152/16 5/104/7
f 59/24/8 76/121/9 68/23/8
f 65/115/5 49/146/5 104/143/5
f 62/58/1 63/49/1 81/116/1
f 89/53/1 52/57/1 65/145/1
f 50/46/10 83/87/10 92/138/10
f 73/74/7 58/58/7 62/105/7
f 82/41/8 51/63/8 86/62/8
f 56/111/8 67/112/8 40/44/8
f 58/58/1 48/33/1 55/34/1
f 78/146/5 81/56/6 67/55/5
f 55/156/3 53/160/4 83/5/3
f 65/73/7 19/130/7 48/33/7
f 24/147/3 47/128/4 68/6/3

