# WaveFront *.obj file (generated by CINEMA 4D)

v 9.92795848846436 -0.88925522565842 -3.59775018692017
v 9.99292850494385 -0.90431755781174 -3.36720490455627
v 9.76291084289551 -0.92850685119629 -3.30384874343872
v 9.69797801971436 -0.91384053230286 -3.53439021110535
v 7.05810976028442 -0.67632061243057 -2.88229274749756
v 7.36416530609131 -0.72492802143097 -2.96184730529785
v 7.44249153137207 -0.73866182565689 -2.65187096595764
v 7.13651609420776 -0.68950921297073 -2.57235550880432
v 13.44421100616455 3.8822226524353 -4.38526344299316
v 12.84589576721191 4.04531240463257 -4.59209537506104
v 9.87712860107422 -1.49721348285675 -3.49933648109436
v 9.45306015014648 -0.41871783137321 -3.57266521453857
v 9.88395214080811 -0.24232724308968 -3.68935918807983
v 10.00700378417969 -0.23602116107941 -3.22543883323669
v 9.57598114013672 -0.41207772493362 -3.10872292518616
v 12.56484699249268 0.37383171916008 -4.07069683074951
v 12.4911413192749 0.39585736393929 -4.29802894592285
v 12.26950931549072 0.33329883217812 -4.23188829421997
v 12.34307956695557 0.31186133623123 -4.00454139709473
v 13.79695510864258 3.49258327484131 -4.6753888130188
v 13.02995109558105 4.4842586517334 -4.65413999557495
v 13.14899730682373 4.50003147125244 -4.18940448760986
v 7.09495115280151 -0.3250640630722 -2.47511005401611
v 7.55841779708862 -0.29032844305038 -2.59507513046265
v 7.43895578384399 -0.30152073502541 -3.05983757972717
v 6.97550106048584 -0.33641639351845 -2.93987035751343
v 13.52611541748047 4.05991697311401 -4.66255712509155
v 12.96494102478027 4.06108522415161 -4.12735986709595
v 13.60408496856689 4.0538182258606 -4.43564224243164
v 7.04855489730835 -1.47002291679382 -2.76822590827942
v 13.3666296005249 3.88792443275452 -4.61226463317871
v 12.52920532226562 -0.22270691394806 -4.24619245529175
v 11.91879081726074 0.7065908908844 -4.24129819869995
v 12.26277923583984 1.02639961242676 -4.34026718139648
v 12.3818244934082 1.04217219352722 -3.87553143501282
v 12.03783702850342 0.72236359119415 -3.77656245231628
# 36 vertices

vn -0.09879840165377 -0.14685150980949 -0.98421210050583
vn -0.10046291351318 -0.09782716631889 -0.99011969566345
vn 0 0 0
vn 0.22818860411644 -0.22002312541008 0.94843018054962
vn 0.25988107919693 -0.2211742401123 0.93997007608414
vn 0.24031396210194 -0.19992917776108 0.94988292455673
vn -0.26073855161667 -0.17999774217606 -0.94848102331162
vn -0.27414864301682 -0.18002519011497 -0.94468694925308
vn -0.26916739344597 -0.1338277310133 -0.95375001430511
vn 0.86246120929718 0.41817924380302 -0.28510844707489
vn -0.95344394445419 -0.18025898933411 0.24176704883575
vn -0.94999414682388 -0.18874157965183 0.24877242743969
vn -0.23379670083523 -0.17983824014664 -0.95550894737244
vn -0.2563034594059 -0.20294539630413 -0.94505113363266
vn 0.94485980272293 -0.21931570768356 -0.24318826198578
vn 0.94716101884842 -0.21472230553627 -0.23828631639481
vn 0.63454461097717 0.74839758872986 -0.19301342964172
vn 0.63394463062286 0.75021708011627 -0.18785248696804
vn -0.88203579187393 -0.41057279706001 0.23117710649967
vn -0.8776707649231 -0.41571336984634 0.23848773539066
vn -0.23069074749947 -0.15941767394543 -0.95987904071808
vn -0.24571844935417 -0.16370703279972 -0.95541739463806
vn -0.24982467293739 -0.1343397796154 -0.9589267373085
vn 0.95287483930588 -0.12445217370987 -0.27666077017784
vn 0.30027958750725 -0.2296651750803 0.92578941583633
vn 0.28093886375427 -0.232930123806 0.93103003501892
vn 0.28175765275955 -0.2608086168766 0.92335879802704
vn -0.93085503578186 -0.27114304900169 0.24492935836315
vn -0.21809643507004 -0.08212237805128 -0.97246587276459
vn -0.64627224206924 -0.73577797412872 0.20239309966564
vn -0.20046606659889 -0.15071658790112 -0.96803814172745
vn -0.22103309631348 -0.17190293967724 -0.95999675989151
vn 0.96428418159485 0.03071167506278 -0.26308315992355
vn 0.96589946746826 0.03410255163908 -0.256661683321
vn 0.33857372403145 -0.22285415232182 0.91416841745377
vn 0.30939695239067 -0.21397133171558 0.92654722929001
vn 0.42503848671913 -0.08266106247902 0.90139305591583
vn 0.45401856303215 -0.06476862728596 0.88863503932953
vn -0.87615239620209 -0.41551446914673 0.24434538185596
vn -0.16498798131943 -0.12528724968433 -0.9783056974411
vn 0.91331154108047 0.31729504466057 -0.2553151845932
vn 0.91444092988968 0.32200920581818 -0.24516895413399
vn 0.42238384485245 -0.1793616861105 0.88849383592606
vn -0.72786611318588 -0.65825563669205 0.19212108850479
vn -0.71575474739075 -0.66727930307388 0.20599384605885
vn 0.87026172876358 -0.43073228001595 -0.23898570239544
vn 0.21223595738411 -0.219358086586 0.95228040218353
vn 0.20357093214989 -0.2598275244236 0.94395369291306
vn -0.96790415048599 0.04712954908609 0.24686090648174
vn 0.34606367349625 -0.28376165032387 0.89427024126053
vn 0.95166748762131 0.0329726934433 -0.3053552210331
vn -0.25952145457268 -0.09649495780468 -0.96090441942215
vn -0.29676261544228 -0.95035886764526 0.09354150295258
vn -0.28398281335831 -0.95305287837982 0.10509018599987
vn 0.48219931125641 -0.1987646073103 0.85321539640427
vn -0.09689269959927 -0.19551737606525 -0.97590202093124
vn -0.95676702260971 -0.17175243794918 0.23472952842712
vn 0.94251096248627 -0.22389808297157 -0.24807797372341
vn 0.63512539863586 0.74655538797379 -0.19816853106022
vn -0.88631355762482 -0.40539154410362 0.22384361922741
vn 0.96261560916901 0.02731909789145 -0.26949009299278
vn 0.39549615979195 -0.10044414550066 0.91295880079269
vn -0.2184100151062 -0.22911411523819 -0.9485799074173
vn 0.91206669807434 0.31254079937935 -0.26542916893959
vn 0.32728144526482 -0.1811878234148 0.92739301919937
vn -0.73967128992081 -0.64895510673523 0.17816750705242
vn -0.30945226550102 -0.94737589359283 0.08196438848972
# 67 normals

vt 0.5 0 1
vt 0.00003051757812 0 1
vt 0.00003051757812 0.99996948242188 1
vt 0.00003051757812 -0.03048706054688 16
vt 0.4444580078125 0 1
vt 100000 -99999 0
vt 0.4444580078125 0.99996948242188 1
vt 1 0.50004577636719 1
vt 0.02506065368652 -101.1484375 0.00314795970917
vt 0.5 0.99996948242188 1
vt 0.02480983734131 0.62843322753906 0.00156632065773
vt 100000 -13202.576171875 0
vt 100000 0.99998641014099 0
vt 0.050612449646 0.99990117549896 0.00635719299316
vt 100000 100001 0
vt 0.00000000065919 1 0
vt 0.00000001206702 1.00000035762787 0
vt 100000 1.00000023841858 0
vt 0 0.99921298027039 0
vt -100000 37331 -0.00890016555786
vt 0.01204061508179 -98.13671875 0.0001220703125
vt -7.9857177734375 26.3740234375 -0.00155633687973
vt 195.26327514648438 -99999 0
vt 0 0 0
vt 0.01167273521423 -715.765625 100000
vt 100000 1 0
vt 100000 1 0
vt 873.6961669921875 -99999 0
vt 0 1 0
vt -7.7672119140625 1.00039100646973 0.00018912926316
vt 0.02506065368652 -101.1484375 0.00311732292175
vt -2236.625 1.12429618835449 -79648
vt 0.015625 -101.1484375 0.00313264131546
vt -100000 1 0
vt 100000 1 0
vt 0.00273597240448 0.98740839958191 1940.46875
vt 100000 0.99999994039536 0
vt 0.02506113052368 -1641.40625 0.00314795970917
vt 0.02506113052368 -101.650390625 0.00311732292175
vt 0.02506113052368 -101.650390625 0.00313264131546
vt 0.02506113052368 -101.6328125 0.00313264131546
vt 0.02493858337402 -101.1484375 0.0031173825264
vt 0.02506113052368 -89.603515625 0.00313264131546
vt 0.02457094192505 -99.6484375 0.00313264131546
vt 0.015625 -101.1484375 0.0031173825264
vt 0.02506113052368 -101.650390625 0.001953125
# 46 texture coordinates

o Cube
usemtl Mat.3
f 10/3/1 21/2/2 27/1/1
f 24/3/6 23/2/5 8/5/4
f 30/8/9 5/7/8 6/5/7
f 27/10/10 29/1/10 20/8/10
f 23/3/11 26/2/12 5/5/11
f 26/3/14 25/2/13 6/5/7
f 25/3/15 24/2/16 7/5/15
f 21/3/17 22/2/18 29/1/17
f 15/3/19 12/2/20 4/1/19
f 11/8/23 4/10/22 1/1/21
f 11/8/24 1/10/24 2/1/24
f 11/8/27 2/10/26 3/1/25
f 11/8/28 3/10/28 4/1/28
f 31/10/29 27/1/29 20/8/29
f 9/10/30 31/1/30 20/8/30
f 12/3/32 13/2/31 1/1/21
f 13/3/33 14/2/34 2/1/33
f 14/3/36 15/2/35 3/1/25
f 22/3/37 28/2/38 9/1/37
f 18/1/39 32/8/39 19/10/39
f 33/2/40 34/3/40 17/10/40
f 34/3/41 35/2/42 16/1/41
f 35/3/43 36/2/43 19/1/43
f 36/3/44 33/2/45 18/1/44
f 30/8/46 6/7/46 7/5/46
f 30/8/48 7/7/47 8/5/4
f 30/8/49 8/7/49 5/5/49
f 19/1/50 32/8/50 16/10/50
f 16/1/51 32/8/51 17/10/51
f 17/10/52 32/8/52 18/1/52
f 28/3/53 10/2/54 31/1/53
f 29/10/55 9/1/55 20/8/55
f 31/10/56 10/3/1 27/1/1
f 7/7/47 24/3/6 8/5/4
f 8/7/57 23/3/11 5/5/11
f 5/7/8 26/3/14 6/5/7
f 6/7/58 25/3/15 7/5/15
f 27/10/59 21/3/17 29/1/17
f 3/10/60 15/3/19 4/1/19
f 4/10/22 12/3/32 1/1/21
f 1/10/61 13/3/33 2/1/33
f 2/10/26 14/3/36 3/1/25
f 29/10/62 22/3/37 9/1/37
f 18/1/63 33/2/63 17/10/63
f 17/10/64 34/3/41 16/1/41
f 16/10/65 35/3/65 19/1/65
f 19/10/66 36/3/44 18/1/44
f 9/10/67 28/3/53 31/1/53

