# Blender v2.79 (sub 0) OBJ File: ''
# www.blender.org
mtllib Fairy_Wings_v2_Model.mtl
o Cube.2
v 0.000000 0.000000 -0.090530
v -0.536725 -0.695719 0.090529
v -0.536725 -0.695719 -0.090530
v -8.818555 6.694474 0.090530
v -8.084802 4.855588 0.090530
v -6.871495 7.000629 0.090531
v -6.708800 2.296263 0.090530
v -5.871405 1.268210 -0.090530
v -5.871405 1.268210 0.090529
v -5.365645 5.720562 -0.090529
v -8.084825 4.855643 -0.090529
v -6.871495 7.000629 -0.090529
v -1.937819 -0.326124 0.090529
v -1.937820 -0.326124 -0.090530
v -0.822618 0.962522 0.090530
v -0.822627 0.962530 -0.090530
v -3.051882 0.016236 0.090529
v -3.051881 0.016235 -0.090530
v -4.312415 0.501699 -0.090530
v -4.312415 0.501699 0.090529
v -7.384838 3.424015 0.090530
v -8.982168 7.125272 -0.090529
v -8.982165 7.125299 0.090530
v -7.384745 3.423807 -0.090529
v -9.072960 7.498433 0.090531
v -9.103862 7.859878 0.090531
v -9.072965 7.498466 -0.090529
v -9.110922 8.188470 -0.090528
v -9.110922 8.188470 0.090531
v -8.914176 8.306377 -0.090528
v -8.711981 8.265307 0.090531
v -7.859587 7.683740 -0.090528
v -8.711998 8.265323 -0.090528
v -5.365648 5.720565 0.090530
v -3.796248 4.213736 0.090530
v -3.796240 4.213729 -0.090529
v -8.914161 8.306364 0.090531
v 0.000000 -0.000000 0.090530
v -7.859591 7.683744 0.090531
v -6.708805 2.296274 -0.090529
v -9.103862 7.859859 -0.090529
v -8.818562 6.694491 -0.090529
v -0.353123 -4.487146 -0.081625
v -0.609620 -5.133683 0.081471
v -0.609620 -5.133683 -0.081626
v -2.403834 -3.280492 0.081467
v -2.479052 -5.323246 0.081469
v -1.822740 -3.219340 0.081468
v -1.475775 -5.722326 -0.081626
v -1.475775 -5.722326 0.081470
v -3.241815 -3.556764 -0.081631
v -3.539958 -4.441028 -0.081629
v -3.496422 -3.692590 -0.081631
v -0.735663 -5.550374 -0.081626
v -0.162998 -3.935215 0.081471
v -0.163004 -3.935207 -0.081625
v -0.875222 -5.728095 0.081470
v -0.875222 -5.728095 -0.081626
v -1.015610 -5.799884 -0.081626
v -3.096131 -4.899345 0.081469
v -3.539948 -4.441083 0.081468
v -3.726081 -4.247099 0.081466
v -3.780966 -4.068732 -0.081630
v -3.780959 -4.068708 0.081466
v -3.096097 -4.899548 -0.081627
v -3.745502 -3.932174 0.081466
v -3.676047 -3.819725 0.081465
v -3.745501 -3.932143 -0.081630
v -3.496422 -3.692590 0.081465
v -2.901575 -3.410284 0.081466
v -2.403829 -3.280498 -0.081629
v -2.901586 -3.410267 -0.081630
v -1.822740 -3.219340 -0.081629
v -1.007039 -3.180038 0.081469
v -1.007036 -3.180042 -0.081627
v -0.459147 -3.230530 0.081470
v -0.459143 -3.230537 -0.081626
v -3.241805 -3.556779 0.081466
v -0.353123 -4.487146 0.081471
v -1.015610 -5.799884 0.081470
v -0.735662 -5.550375 0.081470
v -2.479053 -5.323236 -0.081627
v -3.676051 -3.819741 -0.081631
v -3.726085 -4.247081 -0.081630
vt 0.912903 0.086594
vt 0.919968 0.271423
vt 0.919968 0.271423
vt 0.092888 0.357521
vt 0.227329 0.530594
vt 0.181782 0.025421
vt 0.433517 0.719482
vt 0.531647 0.753632
vt 0.531647 0.753632
vt 0.328880 0.000061
vt 0.227325 0.530594
vt 0.181782 0.025421
vt 0.825531 0.420387
vt 0.825531 0.420387
vt 0.818954 0.060287
vt 0.818954 0.060287
vt 0.747940 0.531433
vt 0.747940 0.531433
vt 0.655075 0.642105
vt 0.655075 0.642105
vt 0.338913 0.646469
vt 0.061839 0.315758
vt 0.061838 0.315758
vt 0.338928 0.646484
vt 0.037683 0.272118
vt 0.017352 0.221497
vt 0.037681 0.272118
vt 0.000031 0.172394
vt 0.000031 0.172394
vt 0.004490 0.125549
vt 0.017485 0.102188
vt 0.093363 0.066010
vt 0.017483 0.102188
vt 0.328880 0.000061
vt 0.491104 0.000015
vt 0.491112 0.000000
vt 0.004492 0.125549
vt 0.912903 0.086594
vt 0.093363 0.066010
vt 0.433517 0.719482
vt 0.017353 0.221497
vt 0.092888 0.357521
vt 0.963974 0.534988
vt 0.983566 0.671249
vt 0.983566 0.671249
vt 0.791367 0.651413
vt 0.892838 0.974182
vt 0.819458 0.556915
vt 0.967392 0.888031
vt 0.967392 0.888031
vt 0.760574 0.816406
vt 0.790207 0.995041
vt 0.753891 0.874451
vt 0.998322 0.753311
vt 0.945694 0.422890
vt 0.945694 0.422890
vt 1.000000 0.800888
vt 1.000000 0.800888
vt 0.996155 0.832413
vt 0.837753 0.999939
vt 0.790207 0.995056
vt 0.770187 0.992737
vt 0.758026 0.973557
vt 0.758026 0.973557
vt 0.837769 0.999969
vt 0.752869 0.947525
vt 0.750793 0.920181
vt 0.752869 0.947510
vt 0.753891 0.874451
vt 0.771301 0.744171
vt 0.791367 0.651413
vt 0.771301 0.744171
vt 0.819458 0.556915
vt 0.861298 0.431358
vt 0.861298 0.431358
vt 0.893372 0.358757
vt 0.893372 0.358757
vt 0.760574 0.816406
vt 0.963974 0.534988
vt 0.996155 0.832413
vt 0.998322 0.753311
vt 0.892838 0.974182
vt 0.750793 0.920181
vt 0.770187 0.992737
vn 0.7918 -0.6108 0.0000
vn -0.0000 -0.0000 1.0000
vn -0.8186 -0.5743 -0.0000
vn -0.7753 -0.6315 -0.0000
vn -0.0000 0.0000 -1.0000
vn -0.2551 -0.9669 -0.0000
vn -0.2680 -0.9634 0.0000
vn -0.2809 -0.9597 0.0000
vn 0.7529 0.6582 -0.0000
vn 0.7602 0.6497 -0.0000
vn 0.7454 0.6666 -0.0000
vn -0.3268 -0.9451 0.0000
vn -0.3870 -0.9221 0.0000
vn -0.4143 -0.9101 0.0000
vn -0.4412 -0.8974 0.0000
vn -0.9142 -0.4052 -0.0000
vn -0.8855 -0.4646 0.0001
vn -0.9319 -0.3628 0.0000
vn -0.9551 -0.2963 0.0000
vn -0.9551 -0.2963 0.0001
vn -0.8720 -0.4896 0.0001
vn -0.9825 -0.1865 0.0000
vn -0.9986 -0.0534 0.0000
vn -0.9907 -0.1359 0.0000
vn -0.9998 -0.0215 0.0000
vn -0.5140 0.8578 0.0000
vn -0.5140 0.8578 0.0001
vn 0.5636 0.8261 0.0000
vn 0.5661 0.8243 -0.0000
vn 0.5957 0.8032 -0.0000
vn 0.6220 0.7830 -0.0000
vn 0.6629 0.7487 -0.0000
vn 0.6779 0.7352 -0.0000
vn 0.7156 0.6985 0.0000
vn 0.1990 0.9800 0.0001
vn 0.9377 -0.3473 -0.0000
vn 0.9442 -0.3294 -0.0000
vn -0.4709 -0.8822 0.0005
vn -0.3033 -0.9529 -0.0000
vn -0.2352 -0.9720 -0.0000
vn 0.8871 -0.4615 -0.0000
vn 0.9455 -0.3257 -0.0000
vn 0.9455 -0.3257 -0.0001
vn 0.7865 -0.6176 -0.0000
vn 0.4553 -0.8903 0.0000
vn -0.1662 -0.9861 0.0000
vn -0.7200 -0.6940 -0.0001
vn -0.6707 -0.7418 0.0007
vn -0.7200 -0.6940 -0.0002
vn -0.7215 -0.6924 -0.0001
vn -0.9558 -0.2941 0.0000
vn -0.9558 -0.2940 0.0001
vn -0.6197 -0.7849 0.0007
vn -0.9382 0.3461 0.0000
vn -0.9679 0.2513 0.0000
vn -0.8508 0.5256 0.0000
vn -0.8987 0.4385 0.0000
vn -0.5430 0.8397 -0.0000
vn -0.5777 0.8162 -0.0000
vn -0.5072 0.8618 0.0000
vn -0.4459 0.8951 0.0001
vn -0.3008 0.9537 0.0001
vn -0.1790 0.9839 -0.0000
vn -0.3486 0.9373 0.0001
vn -0.0859 0.9963 -0.0000
vn -0.0670 0.9978 -0.0000
vn -0.0015 1.0000 -0.0000
vn 0.0452 0.9990 -0.0000
vn 0.0918 0.9958 -0.0000
vn -0.4208 0.9071 0.0001
vn 0.9219 0.3874 0.0000
vn -0.4708 -0.8823 -0.0000
vn -0.8507 0.5256 -0.0000
vn -0.5778 0.8162 -0.0001
vn -0.1790 0.9838 -0.0000
usemtl Mat.1
s 1
f 1/1/1 2/2/1 3/3/1
f 4/4/2 5/5/2 6/6/2
f 7/7/3 8/8/4 9/9/4
f 10/10/5 11/11/5 12/12/5
f 3/3/6 13/13/7 14/14/8
f 15/15/9 1/1/10 16/16/11
f 14/14/8 17/17/12 18/18/12
f 17/17/12 19/19/13 18/18/12
f 20/20/14 8/8/15 19/19/13
f 11/11/16 21/21/17 5/5/16
f 4/4/18 11/11/16 5/5/16
f 22/22/19 4/4/18 23/23/20
f 24/24/21 7/7/3 21/21/17
f 25/25/22 22/22/19 23/23/20
f 26/26/23 27/27/24 25/25/22
f 28/28/25 26/26/23 29/29/25
f 29/29/26 30/30/27 28/28/26
f 31/31/28 32/32/29 33/33/28
f 32/32/29 6/6/30 12/12/31
f 12/12/31 34/34/32 10/10/33
f 10/10/33 35/35/34 36/36/34
f 37/37/35 33/33/35 30/30/35
f 35/35/34 16/16/11 36/36/34
f 1/1/1 38/38/1 2/2/1
f 2/2/2 38/38/2 15/15/2
f 15/15/2 35/35/2 17/17/2
f 34/34/2 6/6/2 5/5/2
f 39/39/2 31/31/2 25/25/2
f 37/37/2 29/29/2 26/26/2
f 26/26/2 25/25/2 31/31/2
f 23/23/2 4/4/2 39/39/2
f 5/5/2 21/21/2 34/34/2
f 7/7/2 9/9/2 35/35/2
f 20/20/2 17/17/2 35/35/2
f 13/13/2 2/2/2 15/15/2
f 35/35/2 9/9/2 20/20/2
f 31/31/2 37/37/2 26/26/2
f 25/25/2 23/23/2 39/39/2
f 21/21/2 35/35/2 34/34/2
f 17/17/2 13/13/2 15/15/2
f 21/21/2 7/7/2 35/35/2
f 4/4/2 6/6/2 39/39/2
f 7/7/3 40/40/3 8/8/4
f 41/41/5 28/28/5 30/30/5
f 30/30/5 33/33/5 41/41/5
f 32/32/5 12/12/5 42/42/5
f 10/10/5 36/36/5 24/24/5
f 16/16/5 1/1/5 3/3/5
f 3/3/5 14/14/5 16/16/5
f 18/18/5 19/19/5 36/36/5
f 8/8/5 40/40/5 36/36/5
f 24/24/5 11/11/5 10/10/5
f 42/42/5 22/22/5 32/32/5
f 27/27/5 41/41/5 33/33/5
f 33/33/5 32/32/5 27/27/5
f 36/36/5 19/19/5 8/8/5
f 14/14/5 18/18/5 16/16/5
f 40/40/5 24/24/5 36/36/5
f 22/22/5 27/27/5 32/32/5
f 12/12/5 11/11/5 42/42/5
f 18/18/5 36/36/5 16/16/5
f 3/3/6 2/2/6 13/13/7
f 15/15/9 38/38/10 1/1/10
f 14/14/8 13/13/7 17/17/12
f 17/17/12 20/20/14 19/19/13
f 20/20/14 9/9/15 8/8/15
f 11/11/16 24/24/21 21/21/17
f 4/4/18 42/42/18 11/11/16
f 22/22/19 42/42/18 4/4/18
f 24/24/21 40/40/3 7/7/3
f 25/25/22 27/27/24 22/22/19
f 26/26/23 41/41/23 27/27/24
f 28/28/25 41/41/23 26/26/23
f 29/29/26 37/37/27 30/30/27
f 31/31/28 39/39/29 32/32/29
f 32/32/29 39/39/29 6/6/30
f 12/12/31 6/6/30 34/34/32
f 10/10/33 34/34/32 35/35/34
f 37/37/35 31/31/35 33/33/35
f 35/35/34 15/15/9 16/16/11
f 43/43/36 44/44/37 45/45/37
f 46/46/2 47/47/2 48/48/2
f 47/47/38 49/49/39 50/50/40
f 51/51/5 52/52/5 53/53/5
f 44/44/37 54/54/41 45/45/37
f 55/55/42 43/43/36 56/56/43
f 54/54/41 57/57/44 58/58/44
f 57/57/45 59/59/45 58/58/45
f 59/59/46 50/50/40 49/49/39
f 52/52/47 60/60/48 61/61/49
f 62/62/50 52/52/47 61/61/49
f 63/63/51 62/62/51 64/64/52
f 65/65/53 47/47/38 60/60/48
f 66/66/54 63/63/55 64/64/55
f 67/67/56 68/68/57 66/66/54
f 53/53/58 67/67/59 69/69/60
f 69/69/60 51/51/61 53/53/58
f 70/70/62 71/71/63 72/72/64
f 71/71/63 48/48/65 73/73/66
f 73/73/66 74/74/67 75/75/68
f 75/75/68 76/76/69 77/77/69
f 78/78/70 72/72/64 51/51/61
f 76/76/71 56/56/71 77/77/71
f 43/43/36 79/79/36 44/44/37
f 44/44/2 79/79/2 48/48/2
f 55/55/2 76/76/2 74/74/2
f 74/74/2 48/48/2 79/79/2
f 46/46/2 70/70/2 60/60/2
f 78/78/2 69/69/2 61/61/2
f 67/67/2 66/66/2 62/62/2
f 64/64/2 62/62/2 66/66/2
f 61/61/2 60/60/2 78/78/2
f 47/47/2 50/50/2 44/44/2
f 80/80/2 57/57/2 81/81/2
f 79/79/2 55/55/2 74/74/2
f 80/80/2 81/81/2 50/50/2
f 60/60/2 47/47/2 46/46/2
f 67/67/2 62/62/2 69/69/2
f 70/70/2 78/78/2 60/60/2
f 44/44/2 48/48/2 47/47/2
f 50/50/2 81/81/2 44/44/2
f 69/69/2 62/62/2 61/61/2
f 47/47/38 82/82/72 49/49/39
f 83/83/5 53/53/5 84/84/5
f 51/51/5 72/72/5 65/65/5
f 71/71/5 73/73/5 82/82/5
f 75/75/5 77/77/5 56/56/5
f 56/56/5 43/43/5 75/75/5
f 45/45/5 54/54/5 49/49/5
f 58/58/5 59/59/5 54/54/5
f 49/49/5 82/82/5 45/45/5
f 65/65/5 52/52/5 51/51/5
f 84/84/5 63/63/5 68/68/5
f 68/68/5 83/83/5 84/84/5
f 72/72/5 71/71/5 65/65/5
f 75/75/5 43/43/5 73/73/5
f 54/54/5 59/59/5 49/49/5
f 82/82/5 73/73/5 45/45/5
f 84/84/5 53/53/5 52/52/5
f 73/73/5 43/43/5 45/45/5
f 82/82/5 65/65/5 71/71/5
f 44/44/37 81/81/41 54/54/41
f 55/55/42 79/79/36 43/43/36
f 54/54/41 81/81/41 57/57/44
f 57/57/45 80/80/45 59/59/45
f 59/59/46 80/80/46 50/50/40
f 52/52/47 65/65/53 60/60/48
f 62/62/50 84/84/50 52/52/47
f 63/63/51 84/84/51 62/62/51
f 65/65/53 82/82/72 47/47/38
f 66/66/54 68/68/57 63/63/55
f 67/67/56 83/83/73 68/68/57
f 53/53/58 83/83/74 67/67/59
f 69/69/60 78/78/70 51/51/61
f 70/70/62 46/46/75 71/71/63
f 71/71/63 46/46/75 48/48/65
f 73/73/66 48/48/65 74/74/67
f 75/75/68 74/74/67 76/76/69
f 78/78/70 70/70/62 72/72/64
f 76/76/71 55/55/71 56/56/71
