# WaveFront *.obj file (generated by CINEMA 4D)

v -2.47353219985962 -2.42471313476562 0.01247399672866
v -2.21807718276978 -1.63872838020325 0.01247399672866
v -1.73731434345245 -2.03219747543335 0.01247399672866
v -1.55751657485962 -1.34509491920471 0.01247399672866
v -1.73731434345245 -2.03219747543335 -0.01247399672866
v -1.55751657485962 -1.34509491920471 -0.01247399672866
v -2.47353219985962 -2.42471313476562 -0.01247399672866
v -2.21807718276978 -1.63872838020325 -0.01247399672866
v -11.23778438568115 4.64269161224365 0.01247399672866
v -12.39984703063965 6.25537872314453 0.01247399672866
v -7.95986461639404 3.87540221214294 0.01247399672866
v -10.50583171844482 6.09483194351196 0.01247399672866
v -7.95986461639404 3.87540221214294 -0.01247399672866
v -10.50583171844482 6.09483194351196 -0.01247399672866
v -11.23778438568115 4.64269161224365 -0.01247399672866
v -12.39984703063965 6.25537872314453 -0.01247399672866
v -8.27762317657471 0.80063128471375 0.01247399672866
v -9.91159820556641 1.19432556629181 0.01247399672866
v -6.65545320510864 1.25150215625763 0.01247399672866
v -8.35562992095947 1.69058561325073 0.01247399672866
v -6.65545320510864 1.25150215625763 -0.01247399672866
v -8.35562992095947 1.69058561325073 -0.01247399672866
v -8.27762317657471 0.80063128471375 -0.01247399672866
v -9.91159820556641 1.19432556629181 -0.01247399672866
v -5.42483901977539 -1.00727295875549 0.01247399672866
v -5.02035617828369 -0.62575441598892 0.01247399672866
v -4.66016530990601 -1.15537846088409 0.01247399672866
v -3.90342235565186 -0.5742506980896 0.01247399672866
v -4.66016530990601 -1.15537846088409 -0.01247399672866
v -3.90342235565186 -0.5742506980896 -0.01247399672866
v -5.42483901977539 -1.00727295875549 -0.01247399672866
v -5.02035617828369 -0.62575441598892 -0.01247399672866
v -7.20230102539062 4.32841873168945 0.01247399672866
v -6.18293190002441 5.62063694000244 0.01247399672866
v -1.87430286407471 -0.9122828245163 0.01247399672866
v -1.87430286407471 -0.9122828245163 -0.01247399672866
v -7.20230102539062 4.32841873168945 -0.01247399672866
v -6.18293190002441 5.62063694000244 -0.01247399672866
v -12.23354816436768 7.67532396316528 0.01247399672866
v -11.1317663192749 9.68295288085938 0.01247399672866
v -12.23354816436768 7.67532396316528 -0.01247399672866
v -11.1317663192749 9.68295288085938 -0.01247399672866
v -14.71675300598145 11.40512657165527 0.01247399672866
v -14.63099193572998 11.56139755249023 0.01247399672866
v -14.71675300598145 11.40512657165527 -0.01247399672866
v -14.63099193572998 11.56139755249023 -0.01247399672866
v -5.29082345962524 -3.05552291870117 0.01247399672866
v -5.29082345962524 -3.05552291870117 -0.01247399672866
v -6.09731578826904 -2.07980918884277 0.01247399672866
v -6.09731578826904 -2.07980918884277 -0.01247399672866
v -7.2749547958374 -3.36899304389954 0.01247399672866
v -7.2749547958374 -3.36899304389954 -0.01247399672866
v -7.39052248001099 -3.22917652130127 0.01247399672866
v -7.39052248001099 -3.22917652130127 -0.01247399672866
v -10.08739852905273 0.23088690638542 0.01247399672866
v -10.08739852905273 0.23088690638542 -0.01247399672866
v -9.00643253326416 -0.77309966087341 0.01247399672866
v -9.00643253326416 -0.77309966087341 -0.01247399672866
v -11.64562797546387 -0.2605302631855 0.01247399672866
v -11.64562797546387 -0.2605302631855 -0.01247399672866
v -11.62723064422607 -0.40558737516403 0.01247399672866
v -11.62723064422607 -0.40558737516403 -0.01247399672866
v -14.25715637207031 5.15968561172485 0.01247399672866
v -14.25715637207031 5.15968561172485 -0.01247399672866
v -14.02933216094971 3.20848107337952 0.01247399672866
v -14.02933216094971 3.20848107337952 -0.01247399672866
v -16.23113822937012 5.14753580093384 0.01247399672866
v -16.23113822937012 5.14753580093384 -0.01247399672866
v -16.26690292358398 5.00726222991943 0.01247399672866
v -16.26690292358398 5.00726222991943 -0.01247399672866
v -4.52225732803345 2.21426105499268 0.01247399672866
v -4.40407180786133 2.17563581466675 0.01247399672866
v -4.21893072128296 2.41033267974854 0.01247399672866
v -4.52744150161743 0.6529541015625 -0.01247399672866
v -5.89201831817627 5.38302183151245 0.01247399672866
v -4.52744150161743 0.6529541015625 0.01247399672866
v -1.87290060520172 -0.910793364048 0.01247399672866
v -1.87343418598175 -0.91051876544952 0.01247399672866
v -1.87290060520172 -0.910793364048 -0.01247399672866
v -4.52225732803345 2.21426105499268 -0.01247399672866
v -4.40407180786133 2.17563581466675 -0.01247399672866
v -4.21893072128296 2.41033267974854 -0.01247399672866
v -5.89201831817627 5.38302183151245 -0.01247399672866
v -5.73858451843262 2.54364824295044 -0.01247399672866
v -1.87325048446655 -0.91061329841614 0.01247399672866
v -1.87325048446655 -0.91061329841614 -0.01247399672866
v -2.61366152763367 -0.52964025735855 0.01247399672866
v -3.58486795425415 0.12627989053726 0.01247399672866
v -3.58486795425415 0.12627989053726 -0.01247399672866
v -4.8978271484375 1.55429065227509 -0.01247399672866
v -2.61366152763367 -0.52964025735855 -0.01247399672866
v -5.73858451843262 2.54364824295044 0.01247399672866
v -4.8978271484375 1.55429065227509 0.01247399672866
v -5.82608699798584 3.77963423728943 0.01247399672866
v -3.65683245658875 1.93142342567444 0.01247399672866
v -1.87290060520172 -0.910793364048 -0.00000000000001
v -5.89201831817627 5.38302183151245 -0.00000000000001
v -4.52225589752197 2.21425986289978 -0.00000000000001
v -3.58486795425415 0.12627989053726 -0.00000000000001
v -2.61366152763367 -0.52964025735855 -0.00000000000001
v -3.65683245658875 1.93142342567444 -0.01247399672866
v -4.52744150161743 0.6529541015625 -0.00000000000001
v -5.82608699798584 3.77963423728943 -0.01247399672866
v -5.73858451843262 2.54364824295044 -0.00000000000001
v -4.8978271484375 1.55429065227509 -0.00000000000001
# 105 vertices

vn 0 0 1
vn 0 0 0
vn 0.96742659807205 -0.25315165519714 0
vn 0 0 -1
vn -0.95103055238724 0.30909699201584 0
vn -0.40619733929634 0.91378539800644 0
vn 0.47046330571175 -0.882419526577 0
vn 0.65711313486099 0.75379198789597 0
vn 0 0 -1
vn -0.81131291389465 -0.58461213111877 0
vn 0.0844624042511 0.99642664194107 0
vn -0.22791734337807 -0.97368049621582 0
vn 0.25005322694778 0.96823209524155 0
vn -0.23423936963081 -0.97217893600464 0
vn -0.30385926365852 0.95271694660187 0
vn -0.3038592338562 0.95271694660187 0
vn 0.26779168844223 -0.96347683668137 0
vn 0.60906380414963 -0.79312121868134 0
vn -0.68615472316742 0.72745567560196 0
vn -0.04606275632977 0.99893856048584 0
vn -0.19015078246593 -0.98175489902496 0
vn 0 0 1
vn 0.72809904813766 -0.68547195196152 0
vn -0.87666082382202 0.48110899329185 0
vn 0.63259154558182 0.77448558807373 0
vn 0.63259154558182 0.77448558807373 0
vn -0.61934351921082 -0.78512012958527 0
vn 0.63447844982147 0.77294057607651 0
vn -0.55386823415756 -0.83260434865952 0
vn 0.47297632694244 0.88107514381409 0
vn -0.83239316940308 -0.55418556928635 0
vn -0.99205303192139 -0.12582029402256 0
vn -0.96900016069412 0.24706004559994 0
vn -0.77078008651733 -0.63710123300552 0
vn 0 0 1
vn 0 0 1
vn 0.53140938282013 -0.84711515903473 0
vn 0 0 -1
vn -0.40654975175858 0.91362863779068 0
vn 0.15605303645134 -0.98774868249893 0
vn -0.66431546211243 0.74745231866837 0
vn 0.16365279257298 -0.98651802539825 0
vn -0.07569416612387 0.99713110923767 0
vn -0.13887038826942 -0.99031054973602 0
vn -0.30076667666435 0.95369774103165 0
vn 0.29356691241264 0.95593851804733 0
vn -0.1782508790493 -0.98398506641388 0
vn -0.1782508790493 -0.98398506641388 0
vn -0.00615485943854 0.99998104572296 0
vn -0.62654626369476 -0.7793841958046 0
vn 0.65711313486099 0.75379198789597 0
vn -0.81131291389465 -0.58461213111877 0
vn 0.0844624042511 0.99642664194107 0
vn -0.22791734337807 -0.97368049621582 0
vn 0.25005322694778 0.96823209524155 0
vn -0.23423936963081 -0.97217893600464 0
vn -0.19015078246593 -0.98175489902496 0
vn -0.61934357881546 -0.78512006998062 -0.00000400497674
vn 0.29356691241264 0.95593851804733 0
vn 0 0 1
vn -0.62654632329941 -0.77938413619995 0.00000000000003
# 61 normals

vt 0.93772578239441 0.93675446510315 0
vt 0.95509254932404 0.88411116600037 0
vt 1 0.86444437503815 0
vt 0 1 0
vt 0.98777663707733 0.91046476364136 0
vt 0.34189850091934 0.46339750289917 0
vt 0.26289713382721 0.35538375377655 0
vt 0.39165949821472 0.3661367893219 0
vt 0.5647439956665 0.51478862762451 0
vt 0.54314148426056 0.72072899341583 0
vt 0.43205773830414 0.69436037540436 0
vt 0.5378383398056 0.66112208366394 0
vt 0.65342283248901 0.69053077697754 0
vt 0.73708462715149 0.84181785583496 0
vt 0.76458299160004 0.8162647485733 0
vt 0.84051632881165 0.81281518936157 0
vt 0.78907012939453 0.85173761844635 0
vt 0.61624610424042 0.48444676399231 0
vt 0.68554663658142 0.39789724349976 0
vt 0.70532405376434 0.41381204128265 0
vt 0.70980632305145 0.52120292186737 0
vt 0.81906688213348 0.61291527748108 0
vt 0.80648028850555 0.6286346912384 0
vt 0.79844558238983 0.62604761123657 0
vt 0.9785590171814 0.83535599708557 0
vt 0.97846364974976 0.83545565605164 0
vt 0.10538503527641 0.01046669483185 0
vt 0.11121541261673 0 0
vt 0.79844570159912 0.62604773044586 0
vt 0.27420270442963 0.26027941703796 0
vt 0.34910607337952 0.12581348419189 0
vt 0.31417179107666 0.79180300235748 0
vt 0.31542253494263 0.80151855945587 0
vt 0.85728049278259 0.64499139785767 0
vt 0 0.43897950649261 0
vt 0.00243139266968 0.42958426475525 0
vt 0.60345005989075 0.99063539505005 0
vt 0.61130678653717 1 0
vt 0.97853517532349 0.83534383773804 0
vt 0.97852265834808 0.83533751964569 0
vt 0.92819917201996 0.80982720851898 0
vt 0.74619555473328 0.97900450229645 0
vt 0.69136714935303 0.91365373134613 0
vt 0.86217296123505 0.7658953666687 0
vt 0.49359434843063 0.82613360881805 0
vt 0.42010617256165 0.75888907909393 0
vt 0.79809319972992 0.73062002658844 0
vt 0.13663014769554 0.42877054214478 0
vt 0.15211853384972 0.55945730209351 0
vt 0.77291297912598 0.67025077342987 0
vt 0.71575510501862 0.60398614406586 0
# 51 texture coordinates

o tech_wings_wing
usemtl Mat.1
f 4/3/1 2/2/1 1/1/1
f 6/3/3 4/3/3 3/5/3
f 8/2/4 6/3/4 5/5/4
f 2/2/5 8/2/5 7/1/5
f 6/3/6 8/2/6 2/2/6
f 3/5/7 1/1/7 7/1/7
f 12/8/1 10/7/1 9/6/1
f 14/8/8 12/8/8 11/9/8
f 16/7/9 14/8/9 13/9/9
f 10/7/10 16/7/10 15/6/10
f 14/8/11 16/7/11 10/7/11
f 11/9/12 9/6/12 15/6/12
f 20/12/1 18/11/1 17/10/1
f 22/12/13 20/12/13 19/13/13
f 24/11/9 22/12/9 21/13/9
f 18/11/14 24/11/14 23/10/14
f 22/12/15 24/11/16 18/11/15
f 19/13/17 17/10/17 23/10/17
f 28/16/1 26/15/1 25/14/1
f 30/16/18 28/16/18 27/17/18
f 32/15/4 30/16/4 29/17/4
f 26/15/19 32/15/19 31/14/19
f 30/16/20 32/15/20 26/15/20
f 27/17/21 25/14/21 31/14/21
f 75/20/1 34/19/1 33/18/1
f 33/18/22 73/22/22 94/21/22
f 33/18/1 71/24/1 72/23/1
f 35/26/23 36/26/23 79/25/23
f 96/25/23 77/25/23 35/26/23
f 37/18/4 82/22/4 81/23/4
f 38/19/9 83/20/9 103/21/9
f 103/21/9 82/22/9 37/18/9
f 44/28/24 46/28/24 45/27/24
f 97/20/25 34/19/25 75/20/25
f 97/20/26 83/20/26 38/19/26
f 33/18/27 37/18/27 80/24/27
f 98/29/27 71/24/27 33/18/27
f 38/19/9 37/18/9 41/30/9
f 34/19/28 38/19/28 42/31/28
f 33/18/1 34/19/1 40/31/1
f 37/18/29 33/18/29 39/30/29
f 42/31/9 41/30/9 45/27/9
f 40/31/30 42/31/30 46/28/30
f 39/30/1 40/31/1 44/28/1
f 41/30/31 39/30/31 43/27/31
f 62/33/32 61/33/32 59/32/32
f 95/34/1 73/22/1 72/23/1
f 81/23/9 82/22/9 101/34/9
f 67/36/33 68/36/33 70/35/33
f 52/38/34 51/38/34 53/37/34
f 79/25/9 36/26/9 86/39/9
f 78/40/35 35/26/35 77/25/35
f 47/42/36 85/39/36 87/41/36
f 85/39/35 47/42/35 35/26/35
f 36/26/37 35/26/37 47/42/37
f 50/43/4 86/39/4 36/26/4
f 36/26/38 48/42/38 50/43/38
f 86/39/9 50/43/9 91/41/9
f 50/43/39 49/43/39 87/41/39
f 100/41/39 91/41/39 50/43/39
f 47/42/1 49/43/1 53/37/1
f 48/42/40 47/42/40 51/38/40
f 50/43/9 48/42/9 52/38/9
f 49/43/41 50/43/41 54/37/41
f 55/46/35 57/45/35 88/44/35
f 58/45/42 89/44/42 99/44/42
f 88/44/42 57/45/42 58/45/42
f 89/44/9 58/45/9 56/46/9
f 56/46/43 55/46/43 76/47/43
f 102/47/43 74/47/43 56/46/43
f 57/45/1 55/46/1 59/32/1
f 58/45/44 57/45/44 61/33/44
f 56/46/38 58/45/38 62/33/38
f 55/46/45 56/46/45 60/32/45
f 90/50/9 66/49/9 64/48/9
f 64/48/46 63/48/46 92/51/46
f 104/51/46 84/51/46 64/48/46
f 63/48/1 65/49/1 93/50/1
f 66/49/47 90/50/47 105/50/47
f 93/50/48 65/49/48 66/49/48
f 64/48/38 66/49/38 70/35/38
f 63/48/49 64/48/49 68/36/49
f 65/49/1 63/48/1 67/36/1
f 66/49/50 65/49/50 69/35/50
f 3/5/1 4/3/1 1/1/1
f 5/5/3 6/3/3 3/5/3
f 7/1/9 8/2/9 5/5/9
f 1/1/5 2/2/5 7/1/5
f 4/3/6 6/3/6 2/2/6
f 5/5/7 3/5/7 7/1/7
f 11/9/1 12/8/1 9/6/1
f 13/9/51 14/8/51 11/9/51
f 15/6/9 16/7/9 13/9/9
f 9/6/52 10/7/52 15/6/52
f 12/8/53 14/8/53 10/7/53
f 13/9/54 11/9/54 15/6/54
f 19/13/1 20/12/1 17/10/1
f 21/13/55 22/12/55 19/13/55
f 23/10/9 24/11/9 21/13/9
f 17/10/56 18/11/56 23/10/56
f 20/12/16 22/12/15 18/11/15
f 21/13/17 19/13/17 23/10/17
f 27/17/1 28/16/1 25/14/1
f 29/17/18 30/16/18 27/17/18
f 31/14/9 32/15/9 29/17/9
f 25/14/19 26/15/19 31/14/19
f 28/16/20 30/16/20 26/15/20
f 29/17/57 27/17/57 31/14/57
f 94/21/1 75/20/1 33/18/1
f 73/22/1 33/18/1 72/23/1
f 96/25/23 35/26/23 79/25/23
f 80/24/9 37/18/9 81/23/9
f 37/18/9 38/19/9 103/21/9
f 43/27/24 44/28/24 45/27/24
f 34/19/26 97/20/26 38/19/26
f 98/29/58 33/18/58 80/24/58
f 42/31/38 38/19/38 41/30/38
f 40/31/28 34/19/28 42/31/28
f 39/30/36 33/18/36 40/31/36
f 41/30/29 37/18/29 39/30/29
f 46/28/38 42/31/38 45/27/38
f 44/28/30 40/31/30 46/28/30
f 43/27/36 39/30/36 44/28/36
f 45/27/31 41/30/31 43/27/31
f 60/32/32 62/33/32 59/32/32
f 69/35/33 67/36/33 70/35/33
f 54/37/34 52/38/34 53/37/34
f 49/43/1 47/42/1 87/41/1
f 48/42/37 36/26/37 47/42/37
f 100/41/39 50/43/39 87/41/39
f 51/38/1 47/42/1 53/37/1
f 52/38/40 48/42/40 51/38/40
f 54/37/4 50/43/4 52/38/4
f 53/37/41 49/43/41 54/37/41
f 76/47/1 55/46/1 88/44/1
f 99/44/42 88/44/42 58/45/42
f 74/47/38 89/44/38 56/46/38
f 102/47/43 56/46/43 76/47/43
f 61/33/1 57/45/1 59/32/1
f 62/33/44 58/45/44 61/33/44
f 60/32/4 56/46/4 62/33/4
f 59/32/45 55/46/45 60/32/45
f 84/51/9 90/50/9 64/48/9
f 104/51/59 64/48/59 92/51/59
f 92/51/1 63/48/1 93/50/1
f 105/50/47 93/50/47 66/49/47
f 68/36/9 64/48/9 70/35/9
f 67/36/49 63/48/49 68/36/49
f 69/35/60 65/49/60 67/36/60
f 70/35/61 66/49/61 69/35/61

