# WaveFront *.obj file (generated by CINEMA 4D)

v 1.59082055091858 0.40876266360283 0.17606717348099
v 2.28278756141663 0.17826534807682 -0.68651551008224
v 0.74033623933792 0.57076901197433 -0.54948538541794
v 1.43230319023132 0.34027171134949 -1.41206812858582
v 0.82820236682892 0.52426445484161 -0.35573810338974
v 0.9812753200531 -0.39430201053619 -1.65681624412537
v -0.71162450313568 0.77277892827988 -0.71235227584839
v -0.5585515499115 -0.14578758180141 -2.01343035697937
v -0.2852286696434 0.5781038403511 -0.77522242069244
v -0.86371898651123 -0.29675042629242 -1.98351836204529
v -1.75195145606995 0.6752273440361 -0.14332750439644
v -2.33044171333313 -0.19962693750858 -1.35162341594696
v -1.2997670173645 0.54976683855057 -0.37318322062492
v -2.48723530769348 -0.30216306447983 -1.02443933486938
v -2.21653008460999 0.85219544172287 0.90278017520905
v -3.40399837493896 0.00026557195815 0.25152397155762
v -2.0468807220459 0.59910434484482 0.61438870429993
v -3.56890559196472 0.1801606118679 0.35376137495041
v -2.27657294273376 0.45273578166962 2.19103622436523
v -3.79859781265259 0.03379205986857 1.93040895462036
v -2.09420371055603 0.62685853242874 2.62167429924011
v -3.6162588596344 0.15871338546276 2.77719974517822
v -1.65012419223785 -0.8930960893631 2.39247679710388
v -3.17217946052551 -1.36124122142792 2.54800248146057
v -1.70905947685242 -0.93538373708725 2.58340525627136
v -3.29446029663086 -1.1510317325592 2.58317041397095
v -1.49355661869049 -2.51965260505676 2.52298521995544
v -3.07895755767822 -2.73530054092407 2.52275037765503
v -1.70039522647858 -2.13996767997742 2.16599011421204
v -3.10698795318604 -2.89272236824036 2.04409980773926
v -0.94318950176239 -3.54897880554199 2.12956261634827
v -2.34978222846985 -4.30173349380493 2.00767207145691
v -1.36686563491821 -3.24763560295105 2.39163684844971
v -2.15354132652283 -4.56615447998047 1.94147086143494
v -0.0356356240809 -4.11150074005127 2.59550833702087
v -0.82231140136719 -5.43001985549927 2.1453423500061
v -0.65775519609451 -3.84829449653625 2.15374517440796
v -0.23412446677685 -5.39059734344482 2.19663071632385
v 0.8732402920723 -3.42258071899414 2.34034848213196
v 1.29687094688416 -4.96488380432129 2.38323426246643
v 0.48440951108932 -3.70174479484558 2.31055355072021
v 1.56510674953461 -4.86522912979126 2.11460065841675
v 1.66009795665741 -2.61748051643372 2.35668039321899
v 2.74079513549805 -3.78096485137939 2.16072750091553
v 1.46902656555176 -3.07987070083618 2.56296300888062
v 2.93053412437439 -3.5255823135376 2.08826661109924
v 1.90049493312836 -1.54338693618774 2.44871282577515
v 3.36200261116028 -1.98909866809845 1.9740161895752
v 1.90692806243896 -1.67341661453247 2.59972310066223
v 3.40214848518372 -2.13710951805115 2.26911067962646
v 2.3372220993042 -0.14507177472115 2.40221571922302
v 3.83244252204895 -0.60876476764679 2.07160329818726
v 2.49302315711975 -0.24267579615116 2.8740029335022
v 3.92785358428955 -0.06861905008554 2.18773365020752
v 1.85341095924377 0.74098742008209 1.7862057685852
v 3.28824138641357 0.91504418849945 1.09993648529053
v 2.00474309921265 0.17657665908337 1.66207373142242
v 3.40098357200623 0.26212948560715 0.88541853427887
v 1.22352647781372 0.29971614480019 0.27119740843773
v 2.6197669506073 0.38526898622513 -0.50545781850815
v 1.31664764881134 0.53386962413788 -0.01693459227681
v 1.86432003974915 0.02843756228685 -1.4327712059021
v -0.18670023977756 0.35003933310509 -0.53283339738846
v 0.36097213625908 -0.1553927063942 -1.9486700296402
v 0.01220199093223 0.41822710633278 -0.80108416080475
v 0.01811980828643 -0.04896600544453 -1.65068387985229
v -0.95634198188782 0.37607619166374 -0.78465181589127
v -0.95042419433594 -0.09111689031124 -1.63425159454346
v -0.81747758388519 0.53560906648636 -0.76369023323059
v -1.84020781517029 -0.36296361684799 -1.60427927970886
v -1.93881523609161 0.76624220609665 0.35407987236977
v -2.96154546737671 -0.13233049213886 -0.48650920391083
v -1.69523286819458 0.58768266439438 0.12108809500933
v -3.01245880126953 -0.1469968110323 -0.41291746497154
v -2.28827118873596 0.57089203596115 1.60703003406525
v -3.60549712181091 -0.16378745436668 1.07302451133728
v -2.54820442199707 0.73201638460159 1.56706714630127
v -3.73559737205505 0.30932068824768 1.79028487205505
v -2.11460733413696 0.03121600300074 2.5464916229248
v -3.30200028419495 -0.39147967100143 2.76970934867859
v -1.84377634525299 -0.18983145058155 2.64436936378479
v -3.4139142036438 -0.48447772860527 2.73297452926636
v -1.56992793083191 -1.7381706237793 2.34830689430237
v -3.14006567001343 -2.03281688690186 2.43691205978394
v -1.69552087783813 -1.58477771282196 2.4456148147583
v -3.23824524879456 -1.9944566488266 2.55590772628784
v -1.32182765007019 -3.09383368492126 2.0673246383667
v -2.86455202102661 -3.5035126209259 2.17761754989624
v -1.55747103691101 -2.72739100456238 2.45066404342651
v -2.73104882240295 -3.73132848739624 2.03254342079163
v -0.52908450365067 -3.95194387435913 2.50443577766418
v -1.70266222953796 -4.95588159561157 2.0863151550293
v -1.25214028358459 -3.7914400100708 2.36805272102356
v -1.14715659618378 -5.36184597015381 2.0802960395813
v 0.34284397959709 -3.70105361938477 2.45668339729309
v 0.44782775640488 -5.27145957946777 2.16892647743225
v -0.05994765087962 -3.77562928199768 2.24333763122559
v 0.63565927743912 -5.21360635757446 2.15194368362427
v 1.37823355197906 -3.08892941474915 2.38503551483154
v 2.07384037971497 -4.52690649032593 2.29364156723022
v 1.01513624191284 -3.43373656272888 2.5040590763092
v 2.34224987030029 -4.29628419876099 2.27000522613525
v 1.84783041477203 -2.08822154998779 2.26697421073914
v 3.17494416236877 -2.95076870918274 2.03292012214661
v 1.6640932559967 -2.36762070655823 2.60398244857788
v 3.16199684143066 -2.82269191741943 2.27353572845459
v 2.10521101951599 -0.83376890420914 2.4912257194519
v 3.60311460494995 -1.28884017467499 2.16077899932861
v 2.25522375106812 -1.01343297958374 2.84351205825806
v 3.74903106689453 -1.33146739006042 2.36665368080139
v 2.36654949188232 0.45331493020058 2.214022397995
v 3.86035680770874 0.13528053462505 1.73716402053833
v 2.23674488067627 0.05617097392678 2.29227924346924
v 3.66521191596985 0.42628082633018 1.67381298542023
v 1.55555403232574 0.300836622715 0.86535328626633
v 2.98402118682861 0.67094647884369 0.24688699841499
v 1.81222999095917 0.00516595738009 1.04717171192169
v 3.00811886787415 0.56140714883804 0.14138732850552
v 0.88299214839935 -0.10975163429976 -0.25025305151939
v 2.07888102531433 0.4464895427227 -1.15603744983673
# 120 vertices

vn 0.24058204889297 0.9683974981308 -0.06577707827091
vn 0.24058203399181 0.9683974981308 -0.06577707082033
vn 0 0 0
vn 0.25426191091537 0.80391520261765 -0.53765344619751
vn 0.25426197052002 0.80391520261765 -0.53765344619751
vn -0.17010237276554 0.83507043123245 -0.52318501472473
vn -0.34768471121788 0.82508343458176 -0.44536808133125
vn -0.34768471121788 0.82508343458176 -0.44536805152893
vn -0.27291965484619 0.96076595783234 0.04943299293518
vn -0.27291965484619 0.96076595783234 0.04943301156163
vn 0.13425368070602 -0.10929115116596 0.98490172624588
vn 0.13425377011299 -0.10929119586945 0.98490172624588
vn 0.0049442993477 -0.03743772953749 0.99928671121597
vn 0.00494429841638 -0.03743772953749 0.99928671121597
vn -0.05637652426958 -0.05606833472848 0.99683398008347
vn -0.05637662485242 -0.05606830492616 0.99683398008347
vn -0.2569106221199 -0.17144283652306 0.95110690593719
vn -0.25691056251526 -0.17144280672073 0.95110690593719
vn -0.11955312639475 -0.00523170828819 0.99281400442123
vn -0.1195530667901 -0.00523161003366 0.99281400442123
vn 0.06203002855182 -0.10946433991194 0.99205332994461
vn 0.06203002482653 -0.10946433991194 0.99205332994461
vn 0.30479922890663 -0.0147808091715 0.9523019194603
vn 0.30479925870895 -0.01478087715805 0.9523019194603
vn 0.23315334320068 0.05978770181537 0.97060030698776
vn 0.23315335810184 0.05978770181537 0.97060030698776
vn 0.1897342056036 0.78115272521973 0.59481203556061
vn 0.18973419070244 0.78115272521973 0.59481203556061
vn -0.00912362337112 0.99559915065765 0.09326861053705
vn -0.00912363175303 0.99559915065765 0.09326861053705
vn 0.00018678838387 0.94181191921234 -0.3361402451992
vn 0.00018677674234 0.94181191921234 -0.33614021539688
vn -0.0462581962347 0.87517958879471 -0.48158159852028
vn -0.0462582372129 0.87517958879471 -0.48158159852028
vn -0.31661328673363 0.81475061178207 -0.48573395609856
vn -0.42994430661201 0.88828402757645 -0.16155312955379
vn -0.42994430661201 0.88828402757645 -0.16155314445496
vn -0.15720671415329 0.76888942718506 0.61975407600403
vn -0.15720675885677 0.76888936758041 0.61975413560867
vn 0.08766584098339 -0.17210723459721 0.98116958141327
vn 0.08766584098339 -0.17210723459721 0.98116958141327
vn 0.12555299699306 -0.21186788380146 0.96919989585876
vn 0.12555301189423 -0.21186789870262 0.96919989585876
vn -0.22109150886536 -0.14331418275833 0.96466553211212
vn -0.22109147906303 -0.14331416785717 0.96466553211212
vn -0.04420962929726 -0.18291887640953 0.98213350772858
vn -0.04420970007777 -0.18291898071766 0.98213344812393
vn -0.05507737770677 -0.08984650671482 0.99443155527115
vn 0.20289848744869 0.04677473753691 0.97808194160461
vn 0.20289850234985 0.04677465558052 0.97808194160461
vn 0.21803462505341 0.00903624668717 0.97589921951294
vn 0.21803461015224 0.00903624296188 0.97589921951294
vn 0.35141807794571 0.34658187627792 0.86970472335815
vn 0.35141807794571 0.34658190608025 0.86970472335815
vn -0.14718821644783 0.96078526973724 0.2350047826767
vn -0.14718818664551 0.96078526973724 0.2350047826767
vn -0.32256704568863 0.9348691701889 0.148223310709
vn 0.24058204889297 0.96839743852615 -0.06577707827091
vn 0.25426188111305 0.80391526222229 -0.53765332698822
vn -0.34768468141556 0.82508337497711 -0.44536808133125
vn -0.27291962504387 0.96076595783234 0.04943297430873
vn 0.13425359129906 -0.10929110646248 0.98490172624588
vn 0.00494430027902 -0.03743773326278 0.99928671121597
vn -0.05637642741203 -0.05606836825609 0.99683398008347
vn -0.25691065192223 -0.17144285142422 0.95110684633255
vn -0.11955318599939 -0.00523180654272 0.99281400442123
vn 0.06203003227711 -0.10946433991194 0.99205332994461
vn 0.30479919910431 -0.01478074118495 0.9523019194603
vn 0.18973419070244 0.78115266561508 0.59481209516525
vn -0.0091236140579 0.99559915065765 0.09326861053705
vn 0.0001868000254 0.94181191921234 -0.3361402451992
vn -0.0462581589818 0.87517958879471 -0.48158165812492
vn -0.42994427680969 0.88828402757645 -0.16155312955379
vn -0.15720668435097 0.76888942718506 0.61975407600403
vn 0.08766583353281 -0.17210721969604 0.98116964101791
vn 0.12555301189423 -0.2118678689003 0.96919989585876
vn -0.22109152376652 -0.14331418275833 0.96466553211212
vn -0.04420956224203 -0.1829187721014 0.98213350772858
vn 0.20289847254753 0.04677482321858 0.97808194160461
vn 0.21803463995457 0.00903625041246 0.97589921951294
vn 0.35141810774803 0.3465818464756 0.86970472335815
vn -0.14718826115131 0.96078526973724 0.23500476777554
vn -0.32256707549095 0.9348691701889 0.14822332561016
# 83 normals

vt 0 1 0
vt 0 0 0
vt 0.5 0 0
vt 0.5 1 0
vt 1 0 0
vt 1 1 0
# 6 texture coordinates

o Plane.1_0
usemtl Mat.1
f 4/3/1 3/2/2 1/1/1
f 8/3/4 7/2/5 5/1/4
f 12/3/6 11/2/6 9/1/6
f 16/3/7 15/2/8 13/1/7
f 20/3/9 19/2/10 17/1/9
f 24/3/11 23/2/12 21/1/11
f 28/3/13 27/2/14 25/1/13
f 32/3/15 31/2/16 29/1/15
f 36/3/17 35/2/18 33/1/17
f 40/3/19 39/2/20 37/1/19
f 44/3/21 43/2/22 41/1/21
f 48/3/23 47/2/24 45/1/23
f 52/3/25 51/2/26 49/1/25
f 56/3/27 55/2/28 53/1/27
f 60/3/29 59/2/30 57/1/29
f 64/5/31 63/3/32 61/4/31
f 68/5/33 67/3/34 65/4/33
f 72/5/35 71/3/35 69/4/35
f 76/5/36 75/3/37 73/4/36
f 80/5/38 79/3/39 77/4/38
f 84/5/40 83/3/41 81/4/40
f 88/5/42 87/3/43 85/4/42
f 92/5/44 91/3/45 89/4/44
f 96/5/46 95/3/47 93/4/46
f 100/5/48 99/3/48 97/4/48
f 104/5/49 103/3/50 101/4/49
f 108/5/51 107/3/52 105/4/51
f 112/5/53 111/3/54 109/4/53
f 116/5/55 115/3/56 113/4/55
f 120/5/57 119/3/57 117/4/57
f 2/4/58 4/3/1 1/1/1
f 6/4/59 8/3/4 5/1/4
f 10/4/6 12/3/6 9/1/6
f 14/4/60 16/3/7 13/1/7
f 18/4/61 20/3/9 17/1/9
f 22/4/62 24/3/11 21/1/11
f 26/4/63 28/3/13 25/1/13
f 30/4/64 32/3/15 29/1/15
f 34/4/65 36/3/17 33/1/17
f 38/4/66 40/3/19 37/1/19
f 42/4/67 44/3/21 41/1/21
f 46/4/68 48/3/23 45/1/23
f 50/4/25 52/3/25 49/1/25
f 54/4/69 56/3/27 53/1/27
f 58/4/70 60/3/29 57/1/29
f 62/6/71 64/5/31 61/4/31
f 66/6/72 68/5/33 65/4/33
f 70/6/35 72/5/35 69/4/35
f 74/6/73 76/5/36 73/4/36
f 78/6/74 80/5/38 77/4/38
f 82/6/75 84/5/40 81/4/40
f 86/6/76 88/5/42 85/4/42
f 90/6/77 92/5/44 89/4/44
f 94/6/78 96/5/46 93/4/46
f 98/6/48 100/5/48 97/4/48
f 102/6/79 104/5/49 101/4/49
f 106/6/80 108/5/51 105/4/51
f 110/6/81 112/5/53 109/4/53
f 114/6/82 116/5/55 113/4/55
f 118/6/83 120/5/57 117/4/57

