# WaveFront *.obj file (generated by CINEMA 4D)

v 0 1.17528486251831 -0.02700824663043
v 0 1.17528486251831 -0.00014448302682
v 0 0.88146364688873 0.20010828971863
v -0.01899554952979 1.17528486251831 0.01885106787086
v -0.02414596267045 0.88146364688873 0.25840181112289
v -0.02619403228164 0.58764243125916 0.427878677845
v 0 0 0.57360500097275
v 0 0.29382121562958 0.54000121355057
v 0 0.58764243125916 0.43872860074043
v 0 0.88146364688873 0.26840338110924
v 0 1.17528486251831 0.02671928144991
v 0 0.58764243125916 0.36464068293571
v -0.02677055448294 0.29382121562958 0.52891248464584
v -0.0268540084362 0 0.56248170137405
v 0 0.29382121562958 0.46428266167641
v -0.02686376497149 1.17528486251831 -0.00014448302682
v 0.0268540084362 0 0.56248170137405
v 0.02677055448294 0.29382121562958 0.52891248464584
v 0.02619403228164 0.58764243125916 0.427878677845
v 0.02414596267045 0.88146364688873 0.25840181112289
v 0.01899554952979 1.17528486251831 0.01885106787086
v 0 0 0.49765038490295
v -0.0341475494206 0.88146364688873 0.23425585031509
v -0.03704395517707 0.58764243125916 0.40168464183807
v -0.03785928338766 0.29382121562958 0.50214195251465
v 0.03797730430961 0 0.53562772274017
v 0.03785928338766 0.29382121562958 0.50214195251465
v 0.03704395517707 0.58764243125916 0.40168464183807
v 0.0341475494206 0.88146364688873 0.23425585031509
v 0.02686376497149 1.17528486251831 -0.00014448302682
v -0.0268540084362 0 0.50877368450165
v -0.03797730430961 0 0.53562772274017
v -0.02677055448294 0.29382121562958 0.47537139058113
v -0.01899554952979 1.17528486251831 -0.01914003305137
v 0.0268540084362 0 0.50877368450165
v 0.02677055448294 0.29382121562958 0.47537139058113
v 0.02619403228164 0.58764243125916 0.37549060583115
v 0.02414596267045 0.88146364688873 0.21010987460613
v 0.01899554952979 1.17528486251831 -0.01914003305137
v -0.02619403228164 0.58764243125916 0.37549060583115
v -0.02414596267045 0.88146364688873 0.21010987460613
v 0 -1.17528486251831 -0.02700824663043
v 0 -1.17528486251831 -0.00014448302682
v 0 -0.88146364688873 0.20010828971863
v -0.01899554952979 -1.17528486251831 0.01885106787086
v -0.02414596267045 -0.88146364688873 0.25840181112289
v -0.02619403228164 -0.58764243125916 0.427878677845
v 0 -0.29382121562958 0.54000121355057
v 0 -0.58764243125916 0.43872860074043
v 0 -0.88146364688873 0.26840338110924
v 0 -1.17528486251831 0.02671928144991
v 0 -0.58764243125916 0.36464068293571
v -0.02677055448294 -0.29382121562958 0.52891248464584
v 0 -0.29382121562958 0.46428266167641
v -0.02686376497149 -1.17528486251831 -0.00014448302682
v 0.02677055448294 -0.29382121562958 0.52891248464584
v 0.02619403228164 -0.58764243125916 0.427878677845
v 0.02414596267045 -0.88146364688873 0.25840181112289
v 0.01899554952979 -1.17528486251831 0.01885106787086
v -0.0341475494206 -0.88146364688873 0.23425585031509
v -0.03704395517707 -0.58764243125916 0.40168464183807
v -0.03785928338766 -0.29382121562958 0.50214195251465
v 0.03785928338766 -0.29382121562958 0.50214195251465
v 0.03704395517707 -0.58764243125916 0.40168464183807
v 0.0341475494206 -0.88146364688873 0.23425585031509
v 0.02686376497149 -1.17528486251831 -0.00014448302682
v -0.02677055448294 -0.29382121562958 0.47537139058113
v -0.01899554952979 -1.17528486251831 -0.01914003305137
v 0.02677055448294 -0.29382121562958 0.47537139058113
v 0.02619403228164 -0.58764243125916 0.37549060583115
v 0.02414596267045 -0.88146364688873 0.21010987460613
v 0.01899554952979 -1.17528486251831 -0.01914003305137
v -0.02619403228164 -0.58764243125916 0.37549060583115
v -0.02414596267045 -0.88146364688873 0.21010987460613
# 74 vertices

vn 0.00452331034467 -0.40700721740723 -0.91341376304626
vn 0.0050321999006 -0.55189204216003 -0.83390039205551
vn -0.33115124702454 -0.50118505954742 -0.79947006702423
vn 0 0 0
vn -0.37195399403572 -0.23513634502888 -0.89797616004944
vn -0.35795044898987 -0.35367178916931 -0.86416882276535
vn -0.38268354535103 0.00000000187287 -0.9238795042038
vn -0.37711504101753 -0.16997238993645 -0.91043597459793
vn 0.10859422385693 -0.60795366764069 -0.7865110039711
vn -0.3114247918129 -0.58115744590759 -0.75184482336044
vn 0 1 0
vn -0.92387962341309 -0.00000000093219 -0.3826832473278
vn -0.91931319236755 -0.0993010699749 -0.38079196214676
vn -0.92153030633926 -0.07126841694117 -0.38171020150185
vn 0.32164099812508 -0.54183006286621 -0.77650970220566
vn 0.31142434477806 -0.58115756511688 -0.75184488296509
vn 0 1 0
vn -0.31645250320435 0.56230348348618 0.76398473978043
vn -0.30468663573265 0.60505390167236 0.73557859659195
vn -0.10603103786707 0.63167768716812 0.76794582605362
vn -0.34774497151375 0.41744595766068 0.83953100442886
vn -0.00576792610809 0.57066351175308 0.82116371393204
vn -0.3716496527195 0.23839953541756 0.89724141359329
vn -0.00488137593493 0.41610875725746 0.9093017578125
vn 0.38268354535103 0 0.9238795042038
vn 0.37164953351021 0.2383995205164 0.89724147319794
vn 0.37698170542717 0.17197988927364 0.91011410951614
vn 0.35687685012817 0.36100399494171 0.86157709360123
vn 0.32737022638321 0.51786822080612 0.79034245014191
vn 0.30468642711639 0.60505390167236 0.73557865619659
vn 0 1 0
vn 0.34949278831482 -0.40735816955566 -0.84375
vn -0.38268354535103 -0.00000000187301 0.9238795042038
vn -0.37698170542717 0.17197991907597 0.91011410951614
vn 0.37195399403572 -0.23513634502888 -0.89797616004944
vn -0.88638204336166 0.2820046544075 0.36715149879456
vn -0.87781304121017 0.31182986497879 0.36360204219818
vn -0.87781304121017 0.31182986497879 0.36360204219818
vn 0.92387938499451 0.00000000093222 0.38268378376961
vn 0.91897600889206 0.10289146006107 0.38065257668495
vn 0.92138487100601 0.07343582808971 0.38165053725243
vn 0.9067018032074 0.19193837046623 0.37556818127632
vn 0.91165369749069 0.1621455103159 0.37761941552162
vn 0.88638204336166 0.2820046544075 0.36715149879456
vn 0.89409351348877 0.25187474489212 0.37034568190575
vn 0.87781304121017 0.31182986497879 0.36360204219818
vn 0.87781304121017 0.31182986497879 0.36360204219818
vn 0.38268354535103 0 -0.9238795042038
vn 0.37711504101753 -0.16997238993645 -0.91043597459793
vn -0.9067018032074 0.19193838536739 0.37556818127632
vn -0.89409351348877 0.2518747150898 0.37034571170807
vn -0.91897600889206 0.10289146006107 0.38065257668495
vn -0.91165369749069 0.16214552521706 0.37761941552162
vn -0.92387938499451 0 0.38268378376961
vn -0.92138487100601 0.07343581318855 0.3816505074501
vn -0.90897595882416 -0.17889335751534 -0.37651011347771
vn -0.91298669576645 -0.15310668945312 -0.37817138433456
vn 0.92387962341309 0 -0.3826832473278
vn 0.9193132519722 -0.0993010699749 -0.38079193234444
vn 0.92153030633926 -0.07126840949059 -0.38171017169952
vn 0.90897595882416 -0.17889335751534 -0.37651011347771
vn 0.91298669576645 -0.15310667455196 -0.37817138433456
vn 0.89466482400894 -0.24948680400848 -0.37058219313622
vn 0.89974683523178 -0.22706796228886 -0.37268725037575
vn 0.88910913467407 -0.27176091074944 -0.36828103661537
vn 0.88910919427872 -0.27176088094711 -0.36828100681305
vn -0.89466482400894 -0.24948680400848 -0.37058219313622
vn -0.89974683523178 -0.22706799209118 -0.37268725037575
vn -0.88910919427872 -0.27176088094711 -0.36828103661537
vn -0.88910919427872 -0.27176088094711 -0.36828100681305
vn 0.00452331034467 0.40700721740723 -0.91341376304626
vn -0.35795044898987 0.35367178916931 -0.86416882276535
vn -0.33115127682686 0.50118505954742 -0.79947006702423
vn -0.37195399403572 0.23513634502888 -0.89797616004944
vn -0.37711504101753 0.16997238993645 -0.91043597459793
vn -0.38268354535103 0 -0.9238795042038
vn 0.0050321999006 0.55189204216003 -0.83390039205551
vn -0.3114247918129 0.58115744590759 -0.75184482336044
vn 0 -1 0
vn -0.92387968301773 0 -0.38268312811852
vn -0.92153030633926 0.07126840949059 -0.38171017169952
vn 0.32164099812508 0.54183006286621 -0.77650970220566
vn 0.10859422385693 0.60795366764069 -0.7865110039711
vn -0.31645250320435 -0.56230348348618 0.76398473978043
vn -0.0057679368183 -0.57066357135773 0.82116371393204
vn -0.10603103041649 -0.63167768716812 0.76794576644897
vn -0.34774497151375 -0.41744595766068 0.83953100442886
vn -0.00488138617948 -0.41610875725746 0.9093017578125
vn -0.3716496527195 -0.23839953541756 0.89724141359329
vn -0.37698170542717 -0.17197991907597 0.91011410951614
vn 0.38268357515335 0 0.92387944459915
vn 0.37698170542717 -0.17197988927364 0.91011410951614
vn 0.37164950370789 -0.2383995205164 0.89724147319794
vn 0.35687685012817 -0.36100402474403 0.86157703399658
vn 0.32737022638321 -0.51786822080612 0.79034245014191
vn 0.30468642711639 -0.60505390167236 0.73557865619659
vn 0.34949278831482 0.40735816955566 -0.84375
vn -0.38268357515335 0 0.92387944459915
vn 0.37195399403572 0.23513634502888 -0.89797616004944
vn 0.37711504101753 0.16997238993645 -0.91043597459793
vn -0.88638204336166 -0.2820046544075 0.36715149879456
vn -0.89409351348877 -0.2518747150898 0.37034571170807
vn -0.87781304121017 -0.31182986497879 0.36360204219818
vn 0.92387932538986 0 0.38268387317657
vn 0.92138487100601 -0.07343582808971 0.3816505074501
vn 0.91897600889206 -0.10289146006107 0.38065257668495
vn 0.91165369749069 -0.1621455103159 0.37761941552162
vn 0.9067018032074 -0.19193837046623 0.37556818127632
vn 0.89409351348877 -0.2518747150898 0.37034571170807
vn 0.88638204336166 -0.2820046544075 0.36715149879456
vn 0.87781304121017 -0.31182986497879 0.36360204219818
vn -0.9067018032074 -0.19193838536739 0.37556818127632
vn -0.91165369749069 -0.16214552521706 0.37761941552162
vn -0.91897600889206 -0.10289146006107 0.38065257668495
vn -0.92138487100601 -0.07343581318855 0.3816505074501
vn -0.92387932538986 0 0.38268387317657
vn -0.91931319236755 0.09930106252432 -0.38079196214676
vn -0.91298669576645 0.15310667455196 -0.37817138433456
vn 0.92387968301773 0 -0.38268312811852
vn 0.92153030633926 0.07126840949059 -0.38171017169952
vn 0.91931319236755 0.09930106252432 -0.38079193234444
vn 0.91298669576645 0.15310667455196 -0.37817138433456
vn 0.90897595882416 0.17889334261417 -0.37651008367538
vn 0.89974683523178 0.22706796228886 -0.37268725037575
vn 0.89466482400894 0.24948681890965 -0.37058219313622
vn 0.88910919427872 0.27176088094711 -0.36828100681305
vn -0.90897595882416 0.17889334261417 -0.37651008367538
vn -0.89974683523178 0.22706799209118 -0.37268725037575
vn -0.89466482400894 0.24948681890965 -0.37058219313622
vn -0.88910919427872 0.27176088094711 -0.36828100681305
vn 0.31142434477806 0.58115756511688 -0.75184488296509
vn -0.30468663573265 -0.60505390167236 0.73557859659195
vn -0.87781304121017 -0.31182986497879 0.36360204219818
vn 0.87781304121017 -0.31182986497879 0.36360204219818
vn 0.88910913467407 0.27176091074944 -0.36828103661537
vn -0.88910919427872 0.27176088094711 -0.36828103661537
# 136 normals

vt 0.9200439453125 0.60679626464844 1
vt 0.9200439453125 0.71319580078125 1
vt 0.92501831054688 0.71319580078125 1
vt 0 1 0
vt 0.9200439453125 0.50039672851562 1
vt 0.92501831054688 0.60679626464844 1
vt 0.9200439453125 0.39399719238281 1
vt 0.92501831054688 0.50039672851562 1
vt 0.9200439453125 0.81959915161133 1
vt 0.92501831054688 0.81959915161133 1
vt 0.93699645996094 0.81959915161133 1
vt 76.99996185302734 1 0
vt 0.92501831054688 0.39399719238281 1
vt 0.93699645996094 0.50039672851562 1
vt 76.5 1 0
vt 0.94898986816406 0.81959915161133 1
vt 0.95394897460938 0.81959915161133 1
vt 100000 1 0
vt 0.94898986816406 0.71319580078125 1
vt 0.94898986816406 0.60679626464844 1
vt 0.95394897460938 0.71319580078125 1
vt 0.94898986816406 0.50039672851562 1
vt 0.95394897460938 0.60679626464844 1
vt 0.95394897460938 0.39399719238281 1
vt 0.95394897460938 0.50039672851562 1
vt 0.94898986816406 0.39399719238281 1
vt 0 1 0
vt 73.13277435302734 -17.72655868530273 0
vt 0.93699645996094 0.71319580078125 1
vt 0.93699645996094 0.60679626464844 1
vt 73.07875061035156 -17.93693923950195 0
vt 78.292724609375 1 0
vt 76.99129486083984 0.95604252815247 0
vt 0.93699645996094 0.39399719238281 1
vt -100000 100001 0
vt -508.2421875 1.00032985210419 -100000
vt 32 -253.99993896484375 0
vt 31.46299934387207 -253.99993896484375 0
vt 30.7601375579834 -253.99993896484375 0
vt 32.19593811035156 -253.99993896484375 0
vt 30.18592643737793 -235.27337646484375 0
vt 78.03591156005859 1 0
vt -508.25 380.9921875 -100000
vt -254.125 92153 -100000
vt 32.33748626708984 -253.99993896484375 0
vt 32.25 -253.99993896484375 0
vt 32.10161209106445 -253.99993896484375 0
vt 32.12186813354492 -253.99993896484375 0
vt 28.625 -253.99993896484375 0
vt -1.73779296875 -99999 65536
vt -93922.25 1 0
vt 0 -0.69660186767578 0
vt 0 -0.875 0
vt 100000 100001 0
vt 0 -2.30078125 0
vt 26.13123893737793 -254 0
vt 0 -0.74980163574219 0
vt 76.99999237060547 1 0
vt 0.02506113052368 -101.650390625 0.00313264131546
vt -0.02303921431303 1.00002193450928 0
vt -100000 1 0
vt 0.02734375 0.99993896484375 98468
# 62 texture coordinates

o String.1
usemtl CupidBow
f 41/3/3 3/2/2 12/1/1
f 40/6/6 12/1/1 15/5/5
f 33/8/8 15/5/5 22/7/7
f 34/10/10 1/9/9 3/2/2
f 34/10/11 2/11/11 1/9/11
f 25/14/14 33/8/13 31/13/12
f 1/9/11 2/11/11 39/10/11
f 1/9/9 39/10/16 38/3/15
f 11/17/11 2/11/11 4/16/17
f 11/17/20 4/16/19 5/19/18
f 10/21/22 5/19/18 6/20/21
f 9/23/24 6/20/21 13/22/23
f 18/22/27 8/25/26 7/24/25
f 19/20/28 9/23/24 8/25/26
f 20/19/29 10/21/22 9/23/24
f 21/16/30 11/17/20 10/21/22
f 21/16/31 2/11/11 11/17/11
f 3/2/2 38/3/15 37/6/32
f 8/25/34 13/22/23 14/26/33
f 12/1/1 37/6/32 36/8/35
f 4/16/17 2/11/11 16/11/11
f 4/16/38 16/11/37 23/29/36
f 27/14/41 18/22/40 17/26/39
f 28/30/43 19/20/42 18/22/40
f 29/29/45 20/19/44 19/20/42
f 30/11/47 21/16/46 20/19/44
f 30/11/11 2/11/11 21/16/31
f 15/5/49 36/8/35 35/13/48
f 5/19/51 23/29/36 24/30/50
f 6/20/53 24/30/50 25/14/52
f 13/22/55 25/14/52 32/34/54
f 24/30/57 40/6/56 33/8/13
f 36/8/60 27/14/59 26/34/58
f 37/6/62 28/30/61 27/14/59
f 38/3/64 29/29/63 28/30/61
f 39/10/66 30/11/65 29/29/63
f 39/10/11 2/11/11 30/11/11
f 23/29/68 41/3/67 40/6/56
f 16/11/11 2/11/11 34/10/11
f 16/11/70 34/10/69 41/3/67
f 74/3/73 73/6/72 52/1/71
f 73/6/72 67/8/75 54/5/74
f 67/8/75 31/13/76 22/7/7
f 68/10/78 74/3/73 44/2/77
f 43/11/79 68/10/79 42/9/79
f 62/14/81 32/34/80 31/13/12
f 43/11/79 42/9/79 72/10/79
f 42/9/83 44/2/77 71/3/82
f 43/11/79 51/17/79 45/16/79
f 51/17/86 50/21/85 46/19/84
f 50/21/85 49/23/88 47/20/87
f 49/23/88 48/25/90 53/22/89
f 56/22/92 17/26/91 7/24/25
f 57/20/94 56/22/92 48/25/93
f 58/19/95 57/20/94 49/23/88
f 59/16/96 58/19/95 50/21/85
f 43/11/79 59/16/79 51/17/79
f 44/2/77 52/1/71 70/6/97
f 48/25/90 7/24/98 14/26/33
f 52/1/71 54/5/100 69/8/99
f 43/11/79 45/16/79 55/11/79
f 45/16/103 46/19/102 60/29/101
f 63/14/105 26/34/104 17/26/39
f 64/30/107 63/14/105 56/22/106
f 65/29/109 64/30/107 57/20/108
f 66/11/111 65/29/109 58/19/110
f 43/11/79 66/11/79 59/16/79
f 54/5/100 22/7/48 35/13/48
f 46/19/102 47/20/113 61/30/112
f 47/20/113 53/22/115 62/14/114
f 53/22/115 14/26/116 32/34/54
f 61/30/118 62/14/81 67/8/117
f 69/8/120 35/13/119 26/34/58
f 70/6/122 69/8/120 63/14/121
f 71/3/124 70/6/122 64/30/123
f 72/10/126 71/3/124 65/29/125
f 43/11/79 72/10/79 66/11/79
f 60/29/128 61/30/118 73/6/127
f 43/11/79 55/11/79 68/10/79
f 55/11/130 60/29/128 74/3/129
f 40/6/6 41/3/3 12/1/1
f 33/8/8 40/6/6 15/5/5
f 31/13/76 33/8/8 22/7/7
f 41/3/3 34/10/10 3/2/2
f 32/34/80 25/14/14 31/13/12
f 3/2/2 1/9/9 38/3/15
f 10/21/22 11/17/20 5/19/18
f 9/23/24 10/21/22 6/20/21
f 8/25/34 9/23/24 13/22/23
f 17/26/91 18/22/27 7/24/25
f 18/22/27 19/20/28 8/25/26
f 19/20/28 20/19/29 9/23/24
f 20/19/29 21/16/30 10/21/22
f 12/1/1 3/2/2 37/6/32
f 7/24/98 8/25/34 14/26/33
f 15/5/49 12/1/1 36/8/35
f 5/19/51 4/16/38 23/29/36
f 26/34/104 27/14/41 17/26/39
f 27/14/41 28/30/43 18/22/40
f 28/30/43 29/29/45 19/20/42
f 29/29/45 30/11/47 20/19/44
f 22/7/48 15/5/49 35/13/48
f 6/20/53 5/19/51 24/30/50
f 13/22/55 6/20/53 25/14/52
f 14/26/116 13/22/55 32/34/54
f 25/14/14 24/30/57 33/8/13
f 35/13/119 36/8/60 26/34/58
f 36/8/60 37/6/62 27/14/59
f 37/6/62 38/3/64 28/30/61
f 38/3/64 39/10/66 29/29/63
f 24/30/57 23/29/68 40/6/56
f 23/29/68 16/11/70 41/3/67
f 44/2/77 74/3/73 52/1/71
f 52/1/71 73/6/72 54/5/74
f 54/5/74 67/8/75 22/7/7
f 42/9/83 68/10/78 44/2/77
f 67/8/117 62/14/81 31/13/12
f 72/10/131 42/9/83 71/3/82
f 45/16/132 51/17/86 46/19/84
f 46/19/84 50/21/85 47/20/87
f 47/20/87 49/23/88 53/22/89
f 48/25/93 56/22/92 7/24/25
f 49/23/88 57/20/94 48/25/93
f 50/21/85 58/19/95 49/23/88
f 51/17/86 59/16/96 50/21/85
f 71/3/82 44/2/77 70/6/97
f 53/22/89 48/25/90 14/26/33
f 70/6/97 52/1/71 69/8/99
f 55/11/133 45/16/103 60/29/101
f 56/22/106 63/14/105 17/26/39
f 57/20/108 64/30/107 56/22/106
f 58/19/110 65/29/109 57/20/108
f 59/16/134 66/11/111 58/19/110
f 69/8/99 54/5/100 35/13/48
f 60/29/101 46/19/102 61/30/112
f 61/30/112 47/20/113 62/14/114
f 62/14/114 53/22/115 32/34/54
f 73/6/127 61/30/118 67/8/117
f 63/14/121 69/8/120 26/34/58
f 64/30/123 70/6/122 63/14/121
f 65/29/125 71/3/124 64/30/123
f 66/11/135 72/10/126 65/29/125
f 74/3/129 60/29/128 73/6/127
f 68/10/136 55/11/130 74/3/129

