# WaveFront *.obj file (generated by CINEMA 4D)

v 0 1.17528486251831 -0.02700824663043
v 0 1.17528486251831 -0.00014448302682
v 0 0.88146364688873 0.21761764585972
v -0.01899554952979 1.17528486251831 0.01885106787086
v -0.02093754895031 0.88146364688873 0.26816534996033
v -0.02057930454612 0.58764243125916 0.51517939567566
v 0 0 1.02047979831696
v 0 0.29382121562958 0.77051723003387
v 0 0.58764243125916 0.52370363473892
v 0 0.88146364688873 0.27683797478676
v 0 1.17528486251831 0.02671928144991
v 0 0.58764243125916 0.4654965698719
v -0.02018425613642 0.29382121562958 0.76215666532516
v -0.02201584167778 0 1.0113605260849
v 0 0.29382121562958 0.71342754364014
v -0.02686376497149 1.17528486251831 -0.00014448302682
v 0.02201584167778 0 1.0113605260849
v 0.02018425613642 0.29382121562958 0.76215666532516
v 0.02057930454612 0.58764243125916 0.51517939567566
v 0.02093754895031 0.88146364688873 0.26816534996033
v 0.01899554952979 1.17528486251831 0.01885106787086
v 0 0 0.95820957422256
v -0.02961016446352 0.88146364688873 0.24722780287266
v -0.02910353057086 0.58764243125916 0.49460008740425
v -0.0285448487848 0.29382121562958 0.74197238683701
v 0.03113510273397 0 0.98934465646744
v 0.0285448487848 0.29382121562958 0.74197238683701
v 0.02910353057086 0.58764243125916 0.49460008740425
v 0.02961016446352 0.88146364688873 0.24722780287266
v 0.02686376497149 1.17528486251831 -0.00014448302682
v -0.02201584167778 0 0.96732884645462
v -0.03113510273397 0 0.98934465646744
v -0.02018425613642 0.29382121562958 0.72178810834885
v -0.01899554952979 1.17528486251831 -0.01914003305137
v 0.02201584167778 0 0.96732884645462
v 0.02018425613642 0.29382121562958 0.72178810834885
v 0.02057930454612 0.58764243125916 0.47402077913284
v 0.02093754895031 0.88146364688873 0.22629025578499
v 0.01899554952979 1.17528486251831 -0.01914003305137
v -0.02057930454612 0.58764243125916 0.47402077913284
v -0.02093754895031 0.88146364688873 0.22629025578499
v 0 -1.17528486251831 -0.02700824663043
v 0 -1.17528486251831 -0.00014448302682
v 0 -0.88146364688873 0.21761764585972
v -0.01899554952979 -1.17528486251831 0.01885106787086
v -0.02093754895031 -0.88146364688873 0.26816534996033
v -0.02057930454612 -0.58764243125916 0.51517939567566
v 0 -0.29382121562958 0.77051723003387
v 0 -0.58764243125916 0.52370363473892
v 0 -0.88146364688873 0.27683797478676
v 0 -1.17528486251831 0.02671928144991
v 0 -0.58764243125916 0.4654965698719
v -0.02018425613642 -0.29382121562958 0.76215666532516
v 0 -0.29382121562958 0.71342754364014
v -0.02686376497149 -1.17528486251831 -0.00014448302682
v 0.02018425613642 -0.29382121562958 0.76215666532516
v 0.02057930454612 -0.58764243125916 0.51517939567566
v 0.02093754895031 -0.88146364688873 0.26816534996033
v 0.01899554952979 -1.17528486251831 0.01885106787086
v -0.02961016446352 -0.88146364688873 0.24722780287266
v -0.02910353057086 -0.58764243125916 0.49460008740425
v -0.0285448487848 -0.29382121562958 0.74197238683701
v 0.0285448487848 -0.29382121562958 0.74197238683701
v 0.02910353057086 -0.58764243125916 0.49460008740425
v 0.02961016446352 -0.88146364688873 0.24722780287266
v 0.02686376497149 -1.17528486251831 -0.00014448302682
v -0.02018425613642 -0.29382121562958 0.72178810834885
v -0.01899554952979 -1.17528486251831 -0.01914003305137
v 0.02018425613642 -0.29382121562958 0.72178810834885
v 0.02057930454612 -0.58764243125916 0.47402077913284
v 0.02093754895031 -0.88146364688873 0.22629025578499
v 0.01899554952979 -1.17528486251831 -0.01914003305137
v -0.02057930454612 -0.58764243125916 0.47402077913284
v -0.02093754895031 -0.88146364688873 0.22629025578499
# 74 vertices

vn -0.00000427221812 -0.64486074447632 -0.76430010795593
vn -0.00026192347286 -0.64233303070068 -0.76642560958862
vn -0.30233198404312 -0.6130650639534 -0.72989493608475
vn 0 0 0
vn 0.00025386252673 -0.64249283075333 -0.76629167795181
vn -0.30181494355202 -0.61480116844177 -0.72864753007889
vn -0.10548914968967 -0.63650667667389 -0.76402312517166
vn -0.30277514457703 -0.61156916618347 -0.73096537590027
vn 0.10551645606756 -0.63626497983932 -0.76422065496445
vn -0.30332964658737 -0.60969138145447 -0.73230290412903
vn 0 1 0
vn -0.92387944459915 0 -0.38268360495567
vn -0.87976258993149 -0.30532541871071 -0.36440938711166
vn -0.88060349225998 -0.30247160792351 -0.36475795507431
vn 0.30283153057098 -0.61137956380844 -0.73110061883926
vn 0.30332887172699 -0.60969150066376 -0.73230308294296
vn 0 1 0
vn -0.30130192637444 0.61651986837387 0.72740662097931
vn -0.30080154538155 0.61818540096283 0.72619915008545
vn -0.10456018149853 0.64465284347534 0.75729113817215
vn -0.30230635404587 0.61315375566483 0.72983103990555
vn -0.00026165141026 0.64574557542801 0.7635526061058
vn -0.30183976888657 0.61471831798553 0.72870719432831
vn -0.00000394984136 0.64323765039444 0.76566660404205
vn 0.10458678752184 0.64441758394241 0.75748765468597
vn 0.000253220991 0.64558827877045 0.76368564367294
vn 0.30135688185692 0.61633402109146 0.7275413274765
vn 0.30231392383575 0.61312693357468 0.72985047101974
vn 0.30180090665817 0.61485159397125 0.72861087322235
vn 0.30080166459084 0.61818540096283 0.72619915008545
vn 0 1 0
vn 0.30182340741158 -0.61477434635162 -0.72866666316986
vn -0.30087289214134 0.61794698238373 0.7263725399971
vn 0.3022917509079 -0.61319988965988 -0.72979837656021
vn -0.87801784276962 0.31115341186523 0.36368691921234
vn -0.87712758779526 0.31408140063286 0.36331808567047
vn -0.87712758779526 0.31408143043518 0.36331811547279
vn 0.92387974262238 0 0.38268291950226
vn 0.8789701461792 0.30798774957657 0.36408114433289
vn 0.87811714410782 0.31082564592361 0.36372756958008
vn 0.87978744506836 0.30524131655693 0.36441984772682
vn 0.87980139255524 0.30519422888756 0.36442562937737
vn 0.87801796197891 0.31115332245827 0.36368682980537
vn 0.87889993190765 0.30822226405144 0.36405211687088
vn 0.87712758779526 0.31408140063286 0.36331808567047
vn 0.87712758779526 0.31408143043518 0.36331811547279
vn 0.3032577931881 -0.60993576049805 -0.73212909698486
vn -0.87978744506836 0.30524131655693 0.36441984772682
vn -0.87889981269836 0.30822241306305 0.36405226588249
vn -0.87897020578384 0.3079876601696 0.36408099532127
vn -0.87980145215988 0.30519413948059 0.36442548036575
vn -0.92387974262238 0 0.38268288969994
vn -0.87811714410782 0.31082561612129 0.36372753977776
vn -0.87894171476364 -0.30808266997337 -0.36406943202019
vn -0.87892764806747 -0.30812963843346 -0.364063590765
vn 0.92387944459915 -0.00000000780934 -0.38268360495567
vn 0.87976258993149 -0.30532541871071 -0.36440938711166
vn 0.88060355186462 -0.30247160792351 -0.36475792527199
vn 0.87894171476364 -0.3080826997757 -0.36406943202019
vn 0.87892764806747 -0.30812963843346 -0.364063590765
vn 0.88070058822632 -0.30214044451714 -0.36479806900024
vn 0.87983238697052 -0.30508953332901 -0.36443838477135
vn 0.8815603852272 -0.29918846487999 -0.36515420675278
vn 0.8815603852272 -0.29918843507767 -0.3651542365551
vn -0.88070058822632 -0.30214044451714 -0.36479803919792
vn -0.87983238697052 -0.30508953332901 -0.36443838477135
vn -0.8815603852272 -0.29918846487999 -0.36515420675278
vn -0.8815603852272 -0.29918846487999 -0.36515420675278
vn -0.00000427742816 0.64486074447632 -0.76430010795593
vn -0.30181494355202 0.61480116844177 -0.72864753007889
vn -0.30233201384544 0.6130650639534 -0.72989493608475
vn 0.00025386773632 0.64249283075333 -0.76629161834717
vn -0.30277514457703 0.61156916618347 -0.73096537590027
vn -0.10548914968967 0.63650667667389 -0.76402312517166
vn -0.30325818061829 0.6099357008934 -0.73212903738022
vn -0.00026192347286 0.64233297109604 -0.76642560958862
vn -0.30332964658737 0.60969138145447 -0.73230290412903
vn 0 -1 0
vn -0.92387932538986 0 -0.38268393278122
vn -0.88060349225998 0.30247160792351 -0.36475795507431
vn 0.30283153057098 0.61137956380844 -0.73110061883926
vn 0.10551645606756 0.63626497983932 -0.76422065496445
vn -0.30130192637444 -0.61651986837387 0.72740662097931
vn -0.00026165664895 -0.64574563503265 0.76355254650116
vn -0.10456018149853 -0.64465284347534 0.75729113817215
vn -0.30230635404587 -0.61315375566483 0.72983103990555
vn -0.00000395505231 -0.64323765039444 0.76566660404205
vn -0.30183976888657 -0.61471831798553 0.72870719432831
vn 0.000253220991 -0.64558827877045 0.76368564367294
vn 0.10458678752184 -0.64441758394241 0.75748765468597
vn 0.30087369680405 -0.61794680356979 0.72637236118317
vn 0.3013568520546 -0.61633396148682 0.72754138708115
vn 0.30231392383575 -0.61312693357468 0.72985047101974
vn 0.30180090665817 -0.61485159397125 0.72861087322235
vn 0.30080166459084 -0.61818540096283 0.72619915008545
vn 0.30182340741158 0.61477434635162 -0.72866666316986
vn -0.30087289214134 -0.61794698238373 0.7263725399971
vn 0.3022917509079 0.61319988965988 -0.72979837656021
vn -0.87801784276962 -0.31115341186523 0.36368691921234
vn -0.87889981269836 -0.30822241306305 0.36405226588249
vn -0.87712758779526 -0.31408143043518 0.36331811547279
vn 0.92387968301773 0 0.38268303871155
vn 0.87811714410782 -0.31082564592361 0.36372756958008
vn 0.8789701461792 -0.30798771977425 0.36408111453056
vn 0.87980139255524 -0.30519416928291 0.36442556977272
vn 0.87978744506836 -0.30524131655693 0.36441984772682
vn 0.87889987230301 -0.30822229385376 0.36405217647552
vn 0.87801796197891 -0.31115332245827 0.36368682980537
vn 0.87712758779526 -0.31408143043518 0.36331811547279
vn 0.3032577931881 0.60993576049805 -0.73212909698486
vn -0.87978744506836 -0.30524131655693 0.36441984772682
vn -0.87980145215988 -0.30519413948059 0.36442548036575
vn -0.87897020578384 -0.3079876601696 0.36408099532127
vn -0.87811714410782 -0.31082561612129 0.36372753977776
vn -0.92387968301773 0 0.38268303871155
vn -0.87976258993149 0.30532541871071 -0.36440938711166
vn -0.87892764806747 0.30812963843346 -0.364063590765
vn 0.92387932538986 0 -0.38268393278122
vn 0.88060349225998 0.30247160792351 -0.36475795507431
vn 0.87976258993149 0.30532541871071 -0.36440938711166
vn 0.87892764806747 0.30812963843346 -0.364063590765
vn 0.87894171476364 0.3080826997757 -0.36406940221786
vn 0.87983238697052 0.30508953332901 -0.36443838477135
vn 0.88070058822632 0.30214041471481 -0.36479803919792
vn 0.8815603852272 0.29918843507767 -0.3651542365551
vn -0.87894171476364 0.30808266997337 -0.36406940221786
vn -0.87983238697052 0.30508953332901 -0.36443838477135
vn -0.88070058822632 0.30214041471481 -0.36479803919792
vn -0.8815603852272 0.29918846487999 -0.36515420675278
vn -0.30325818061829 -0.6099357008934 -0.73212903738022
vn 0.30087369680405 0.61794680356979 0.72637236118317
vn 0.30332887172699 0.60969150066376 -0.73230308294296
vn -0.30080154538155 -0.61818540096283 0.72619915008545
vn -0.87712758779526 -0.31408140063286 0.36331808567047
vn 0.87712758779526 -0.31408140063286 0.36331808567047
vn 0.8815603852272 0.29918846487999 -0.36515420675278
vn -0.8815603852272 0.29918846487999 -0.36515420675278
# 137 normals

vt 0.9200439453125 0.60679626464844 1
vt 0.9200439453125 0.71319580078125 1
vt 0.92501831054688 0.71319580078125 1
vt 0 1 0
vt 0.9200439453125 0.50039672851562 1
vt 0.92501831054688 0.60679626464844 1
vt 0.9200439453125 0.39399719238281 1
vt 0.92501831054688 0.50039672851562 1
vt 0.9200439453125 0.81959915161133 1
vt 0.92501831054688 0.81959915161133 1
vt 0.93699645996094 0.81959915161133 1
vt 76.99996185302734 1 0
vt 0.92501831054688 0.39399719238281 1
vt 0.93699645996094 0.50039672851562 1
vt 76.5 1 0
vt 0.94898986816406 0.81959915161133 1
vt 0.95394897460938 0.81959915161133 1
vt 100000 1 0
vt 0.94898986816406 0.71319580078125 1
vt 0.94898986816406 0.60679626464844 1
vt 0.95394897460938 0.71319580078125 1
vt 0.94898986816406 0.50039672851562 1
vt 0.95394897460938 0.60679626464844 1
vt 0.95394897460938 0.39399719238281 1
vt 0.95394897460938 0.50039672851562 1
vt 0.94898986816406 0.39399719238281 1
vt -100000 100001 0
vt 26.12019920349121 -254 0
vt 0.93699645996094 0.71319580078125 1
vt 26.13123893737793 -254 0
vt 0.93699645996094 0.60679626464844 1
vt 26.13387298583984 -254 0
vt 25.0692253112793 -254 0
vt 51.47028732299805 -126.78315734863281 0
vt 77.22371673583984 1 0
vt 0.93699645996094 0.39399719238281 1
vt -508.2421875 1.00032985210419 -100000
vt 32 -253.99993896484375 0
vt 31.46299934387207 -253.99993896484375 0
vt 30.7601375579834 -253.99993896484375 0
vt 32.19593811035156 -253.99993896484375 0
vt 30.18592643737793 -235.27337646484375 0
vt 78.03591156005859 1 0
vt -508.25 380.9921875 -100000
vt -254.125 92153 -100000
vt 32.33748626708984 -253.99993896484375 0
vt 32.25 -253.99993896484375 0
vt 32.10161209106445 -253.99993896484375 0
vt 32.12186813354492 -253.99993896484375 0
vt 28.625 -253.99993896484375 0
vt -1.73782348632812 100001 65536
vt -93939.8125 1 0
vt 73.13277435302734 -17.72655868530273 0
vt 73.07875061035156 -17.93693923950195 0
vt 78.292724609375 1 0
vt 76.99129486083984 0.95604252815247 0
vt 76.99999237060547 1 0
vt 0.01566171646118 -101.650390625 0.00195771455765
vt 0.01566123962402 -101.1484375 0.00195771455765
vt 77 1 0
# 60 texture coordinates

o String.3
usemtl CupidBow
f 41/3/3 3/2/2 12/1/1
f 40/6/6 12/1/1 15/5/5
f 33/8/8 15/5/5 22/7/7
f 34/10/10 1/9/9 3/2/2
f 34/10/11 2/11/11 1/9/11
f 25/14/14 33/8/13 31/13/12
f 1/9/11 2/11/11 39/10/11
f 1/9/9 39/10/16 38/3/15
f 11/17/11 2/11/11 4/16/17
f 11/17/20 4/16/19 5/19/18
f 10/21/22 5/19/18 6/20/21
f 9/23/24 6/20/21 13/22/23
f 18/22/27 8/25/26 7/24/25
f 19/20/28 9/23/24 8/25/26
f 20/19/29 10/21/22 9/23/24
f 21/16/30 11/17/20 10/21/22
f 21/16/31 2/11/11 11/17/11
f 3/2/2 38/3/15 37/6/32
f 8/25/26 13/22/23 14/26/33
f 12/1/1 37/6/32 36/8/34
f 4/16/17 2/11/11 16/11/11
f 4/16/37 16/11/36 23/29/35
f 27/14/40 18/22/39 17/26/38
f 28/31/42 19/20/41 18/22/39
f 29/29/44 20/19/43 19/20/41
f 30/11/46 21/16/45 20/19/43
f 30/11/11 2/11/11 21/16/31
f 15/5/5 36/8/34 35/13/47
f 5/19/49 23/29/35 24/31/48
f 6/20/51 24/31/48 25/14/50
f 13/22/53 25/14/50 32/36/52
f 24/31/55 40/6/54 33/8/13
f 36/8/58 27/14/57 26/36/56
f 37/6/60 28/31/59 27/14/57
f 38/3/62 29/29/61 28/31/59
f 39/10/64 30/11/63 29/29/61
f 39/10/11 2/11/11 30/11/11
f 23/29/66 41/3/65 40/6/54
f 16/11/11 2/11/11 34/10/11
f 16/11/68 34/10/67 41/3/65
f 74/3/71 73/6/70 52/1/69
f 73/6/70 67/8/73 54/5/72
f 67/8/73 31/13/75 22/7/74
f 68/10/77 74/3/71 44/2/76
f 43/11/78 68/10/78 42/9/78
f 62/14/80 32/36/79 31/13/12
f 43/11/78 42/9/78 72/10/78
f 42/9/82 44/2/76 71/3/81
f 43/11/78 51/17/78 45/16/78
f 51/17/85 50/21/84 46/19/83
f 50/21/84 49/23/87 47/20/86
f 49/23/87 48/25/89 53/22/88
f 56/22/92 17/26/91 7/24/90
f 57/20/93 56/22/92 48/25/89
f 58/19/94 57/20/93 49/23/87
f 59/16/95 58/19/94 50/21/84
f 43/11/78 59/16/78 51/17/78
f 44/2/76 52/1/69 70/6/96
f 48/25/89 7/24/90 14/26/97
f 52/1/69 54/5/72 69/8/98
f 43/11/78 45/16/78 55/11/78
f 45/16/101 46/19/100 60/29/99
f 63/14/103 26/36/102 17/26/38
f 64/31/105 63/14/103 56/22/104
f 65/29/107 64/31/105 57/20/106
f 66/11/109 65/29/107 58/19/108
f 43/11/78 66/11/78 59/16/78
f 54/5/72 22/7/74 35/13/110
f 46/19/100 47/20/112 61/31/111
f 47/20/112 53/22/114 62/14/113
f 53/22/114 14/26/115 32/36/52
f 61/31/117 62/14/80 67/8/116
f 69/8/119 35/13/118 26/36/56
f 70/6/121 69/8/119 63/14/120
f 71/3/123 70/6/121 64/31/122
f 72/10/125 71/3/123 65/29/124
f 43/11/78 72/10/78 66/11/78
f 60/29/127 61/31/117 73/6/126
f 43/11/78 55/11/78 68/10/78
f 55/11/129 60/29/127 74/3/128
f 40/6/6 41/3/3 12/1/1
f 33/8/8 40/6/6 15/5/5
f 31/13/130 33/8/8 22/7/7
f 41/3/3 34/10/10 3/2/2
f 32/36/79 25/14/14 31/13/12
f 3/2/2 1/9/9 38/3/15
f 10/21/22 11/17/20 5/19/18
f 9/23/24 10/21/22 6/20/21
f 8/25/26 9/23/24 13/22/23
f 17/26/131 18/22/27 7/24/25
f 18/22/27 19/20/28 8/25/26
f 19/20/28 20/19/29 9/23/24
f 20/19/29 21/16/30 10/21/22
f 12/1/1 3/2/2 37/6/32
f 7/24/25 8/25/26 14/26/33
f 15/5/5 12/1/1 36/8/34
f 5/19/49 4/16/37 23/29/35
f 26/36/102 27/14/40 17/26/38
f 27/14/40 28/31/42 18/22/39
f 28/31/42 29/29/44 19/20/41
f 29/29/44 30/11/46 20/19/43
f 22/7/7 15/5/5 35/13/47
f 6/20/51 5/19/49 24/31/48
f 13/22/53 6/20/51 25/14/50
f 14/26/115 13/22/53 32/36/52
f 25/14/14 24/31/55 33/8/13
f 35/13/118 36/8/58 26/36/56
f 36/8/58 37/6/60 27/14/57
f 37/6/60 38/3/62 28/31/59
f 38/3/62 39/10/64 29/29/61
f 24/31/55 23/29/66 40/6/54
f 23/29/66 16/11/68 41/3/65
f 44/2/76 74/3/71 52/1/69
f 52/1/69 73/6/70 54/5/72
f 54/5/72 67/8/73 22/7/74
f 42/9/82 68/10/77 44/2/76
f 67/8/116 62/14/80 31/13/12
f 72/10/132 42/9/82 71/3/81
f 45/16/133 51/17/85 46/19/83
f 46/19/83 50/21/84 47/20/86
f 47/20/86 49/23/87 53/22/88
f 48/25/89 56/22/92 7/24/90
f 49/23/87 57/20/93 48/25/89
f 50/21/84 58/19/94 49/23/87
f 51/17/85 59/16/95 50/21/84
f 71/3/81 44/2/76 70/6/96
f 53/22/88 48/25/89 14/26/97
f 70/6/96 52/1/69 69/8/98
f 55/11/134 45/16/101 60/29/99
f 56/22/104 63/14/103 17/26/38
f 57/20/106 64/31/105 56/22/104
f 58/19/108 65/29/107 57/20/106
f 59/16/135 66/11/109 58/19/108
f 69/8/98 54/5/72 35/13/110
f 60/29/99 46/19/100 61/31/111
f 61/31/111 47/20/112 62/14/113
f 62/14/113 53/22/114 32/36/52
f 73/6/126 61/31/117 67/8/116
f 63/14/120 69/8/119 26/36/56
f 64/31/122 70/6/121 63/14/120
f 65/29/124 71/3/123 64/31/122
f 66/11/136 72/10/125 65/29/124
f 74/3/128 60/29/127 73/6/126
f 68/10/137 55/11/129 74/3/128

