# WaveFront *.obj file (generated by CINEMA 4D)

v 0 1.17528486251831 -0.02700824663043
v 0 1.17528486251831 -0.00014448302682
v 0 0.88146364688873 0.22666408121586
v -0.01899554952979 1.17528486251831 0.01885106787086
v -0.02147350460291 0.88146364688873 0.27850571274757
v -0.0205686185509 0.58764243125916 0.48801809549332
v 0 0 0.77540689706802
v 0 0.29382121562958 0.65823084115982
v 0 0.58764243125916 0.49653789401054
v 0 0.88146364688873 0.28740030527115
v 0 1.17528486251831 0.02671928144991
v 0 0.58764243125916 0.43836104869843
v -0.01917919889092 0.29382121562958 0.65028655529022
v -0.01937546022236 0 0.76738131046295
v 0 0.29382121562958 0.60398387908936
v -0.02686376497149 1.17528486251831 -0.00014448302682
v 0.01937546022236 0 0.76738131046295
v 0.01917919889092 0.29382121562958 0.65028655529022
v 0.0205686185509 0.58764243125916 0.48801809549332
v 0.02147350460291 0.88146364688873 0.27850571274757
v 0.01899554952979 1.17528486251831 0.01885106787086
v 0 0 0.72060483694077
v -0.03036812134087 0.88146364688873 0.25703218579292
v -0.02908842079341 0.58764243125916 0.46744948625565
v -0.02712348289788 0.29382121562958 0.63110738992691
v 0.02740103937685 0 0.74800586700439
v 0.02712348289788 0.29382121562958 0.63110738992691
v 0.02908842079341 0.58764243125916 0.46744948625565
v 0.03036812134087 0.88146364688873 0.25703218579292
v 0.02686376497149 1.17528486251831 -0.00014448302682
v -0.01937546022236 0 0.72863036394119
v -0.02740103937685 0 0.74800586700439
v -0.01917919889092 0.29382121562958 0.61192816495895
v -0.01899554952979 1.17528486251831 -0.01914003305137
v 0.01937546022236 0 0.72863036394119
v 0.01917919889092 0.29382121562958 0.61192816495895
v 0.0205686185509 0.58764243125916 0.44688084721565
v 0.02147350460291 0.88146364688873 0.23555868864059
v 0.01899554952979 1.17528486251831 -0.01914003305137
v -0.0205686185509 0.58764243125916 0.44688084721565
v -0.02147350460291 0.88146364688873 0.23555868864059
v 0 -1.17528486251831 -0.02700824663043
v 0 -1.17528486251831 -0.00014448302682
v 0 -0.88146364688873 0.22666408121586
v -0.01899554952979 -1.17528486251831 0.01885106787086
v -0.02147350460291 -0.88146364688873 0.27850571274757
v -0.0205686185509 -0.58764243125916 0.48801809549332
v 0 -0.29382121562958 0.65823084115982
v 0 -0.58764243125916 0.49653789401054
v 0 -0.88146364688873 0.28740030527115
v 0 -1.17528486251831 0.02671928144991
v 0 -0.58764243125916 0.43836104869843
v -0.01917919889092 -0.29382121562958 0.65028655529022
v 0 -0.29382121562958 0.60398387908936
v -0.02686376497149 -1.17528486251831 -0.00014448302682
v 0.01917919889092 -0.29382121562958 0.65028655529022
v 0.0205686185509 -0.58764243125916 0.48801809549332
v 0.02147350460291 -0.88146364688873 0.27850571274757
v 0.01899554952979 -1.17528486251831 0.01885106787086
v -0.03036812134087 -0.88146364688873 0.25703218579292
v -0.02908842079341 -0.58764243125916 0.46744948625565
v -0.02712348289788 -0.29382121562958 0.63110738992691
v 0.02712348289788 -0.29382121562958 0.63110738992691
v 0.02908842079341 -0.58764243125916 0.46744948625565
v 0.03036812134087 -0.88146364688873 0.25703218579292
v 0.02686376497149 -1.17528486251831 -0.00014448302682
v -0.01917919889092 -0.29382121562958 0.61192816495895
v -0.01899554952979 -1.17528486251831 -0.01914003305137
v 0.01917919889092 -0.29382121562958 0.61192816495895
v 0.0205686185509 -0.58764243125916 0.44688084721565
v 0.02147350460291 -0.88146364688873 0.23555868864059
v 0.01899554952979 -1.17528486251831 -0.01914003305137
v -0.0205686185509 -0.58764243125916 0.44688084721565
v -0.02147350460291 -0.88146364688873 0.23555868864059
# 74 vertices

vn 0.00368649791926 -0.53881448507309 -0.8424164056778
vn 0.00340142077766 -0.61974227428436 -0.7847980260849
vn -0.31235384941101 -0.57774060964584 -0.75408941507339
vn 0 0 0
vn 0.00354300206527 -0.43120735883713 -0.90224587917328
vn -0.33288836479187 -0.49326464533806 -0.80366367101669
vn -0.35928779840469 -0.34428083896637 -0.86740010976791
vn -0.35331311821938 -0.384192019701 -0.85297495126724
vn 0.10394340008497 -0.64995843172073 -0.75282788276672
vn -0.29916998744011 -0.62356793880463 -0.72226053476334
vn 0 1 0
vn -0.92387980222702 0.00000000376773 -0.38268283009529
vn -0.90654408931732 -0.19281032681465 -0.37550237774849
vn -0.91022729873657 -0.17127831280231 -0.37702786922455
vn 0.30588456988335 -0.60091072320938 -0.73847198486328
vn 0.2991691827774 -0.62356817722321 -0.72226071357727
vn 0 1 0
vn -0.30426171422005 0.60651016235352 0.73455446958542
vn -0.29596391320229 0.63392925262451 0.71452015638351
vn -0.1027350127697 0.66015028953552 0.74407470226288
vn -0.32732090353966 0.51808083057404 0.79022353887558
vn -0.00417168904096 0.62283217906952 0.78234434127808
vn -0.34764418005943 0.41801977157593 0.83928722143173
vn -0.00378255406395 0.53208523988724 0.84668231010437
vn 0.35908591747284 0.34572395682335 0.86690956354141
vn -0.00320190074854 0.42729264497757 0.90410768985748
vn 0.35364013910294 0.38213670253754 0.85376238822937
vn 0.33445870876312 0.48595708608627 0.80745470523834
vn 0.3121979534626 0.57831490039825 0.75371372699738
vn 0.29596358537674 0.63392931222916 0.7145202755928
vn 0 1 0
vn 0.32592809200287 -0.52404373884201 -0.78686022758484
vn -0.35908591747284 0.34572398662567 0.86690956354141
vn 0.34667700529099 -0.42346912622452 -0.83695220947266
vn -0.87984889745712 0.3050340116024 0.36444503068924
vn -0.87310153245926 0.32695975899696 0.36165043711662
vn -0.8731015920639 0.32695966959 0.36165028810501
vn 0.92387938499451 0.00000000376871 0.38268384337425
vn 0.90782207250595 0.18562991917133 0.37603271007538
vn 0.91066646575928 0.16851861774921 0.37721094489098
vn 0.89654463529587 0.2414513528347 0.37136092782021
vn 0.90080326795578 0.22210581600666 0.3731252849102
vn 0.87984889745712 0.30503398180008 0.36444506049156
vn 0.88612943887711 0.28293362259865 0.36704662442207
vn 0.87310153245926 0.32695978879929 0.36165043711662
vn 0.8731015920639 0.32695966959 0.36165031790733
vn 0.35928779840469 -0.34428083896637 -0.86740010976791
vn -0.89654463529587 0.2414513528347 0.37136092782021
vn -0.88612943887711 0.28293362259865 0.36704662442207
vn -0.90782207250595 0.18562991917133 0.3760327398777
vn -0.90080326795578 0.22210578620434 0.3731252849102
vn -0.92387932538986 -0.00000000376871 0.3826839029789
vn -0.91066646575928 0.16851860284805 0.3772109746933
vn -0.8945170044899 -0.25010707974434 -0.37052097916603
vn -0.89862608909607 -0.23220971226692 -0.37222272157669
vn 0.92387980222702 0.00000000376773 -0.38268283009529
vn 0.90654408931732 -0.19281031191349 -0.37550228834152
vn 0.91022729873657 -0.17127831280231 -0.37702786922455
vn 0.89451706409454 -0.25010702013969 -0.37052088975906
vn 0.89862614870071 -0.23220966756344 -0.37222272157669
vn 0.88281846046448 -0.2948100566864 -0.36567547917366
vn 0.88654935359955 -0.28138795495033 -0.36722078919411
vn 0.87891507148743 -0.30817148089409 -0.36405849456787
vn 0.87891507148743 -0.30817154049873 -0.36405855417252
vn -0.88281846046448 -0.2948100566864 -0.36567547917366
vn -0.88654935359955 -0.28138795495033 -0.36722078919411
vn -0.87891507148743 -0.30817148089409 -0.36405849456787
vn -0.87891507148743 -0.30817154049873 -0.36405855417252
vn 0.00368649791926 0.53881448507309 -0.8424164056778
vn -0.33288836479187 0.49326464533806 -0.80366367101669
vn -0.31235387921333 0.57774066925049 -0.75408935546875
vn 0.00354300206527 0.43120735883713 -0.90224587917328
vn -0.35331311821938 0.384192019701 -0.85297495126724
vn -0.35928779840469 0.34428083896637 -0.86740010976791
vn -0.35928675532341 0.34428089857101 -0.86740052700043
vn 0.00340141542256 0.61974227428436 -0.7847980260849
vn -0.29916998744011 0.62356793880463 -0.72226053476334
vn 0 -1 0
vn -0.92387980222702 0 -0.38268274068832
vn -0.91022729873657 0.17127834260464 -0.37702786922455
vn 0.30588456988335 0.60091072320938 -0.73847198486328
vn 0.10394340008497 0.64995843172073 -0.75282788276672
vn -0.30426171422005 -0.60651016235352 0.73455446958542
vn -0.00417169928551 -0.62283211946487 0.78234440088272
vn -0.1027350127697 -0.66015028953552 0.74407470226288
vn -0.32732090353966 -0.51808083057404 0.79022353887558
vn -0.00378255941905 -0.53208529949188 0.84668231010437
vn -0.34764418005943 -0.41801977157593 0.83928722143173
vn -0.00320190074854 -0.42729264497757 0.90410768985748
vn 0.35908591747284 -0.34572395682335 0.86690956354141
vn 0.35908606648445 -0.34572395682335 0.86690956354141
vn 0.35364010930061 -0.38213664293289 0.85376238822937
vn 0.33445870876312 -0.4859571158886 0.8074546456337
vn 0.31219792366028 -0.57831490039825 0.75371372699738
vn 0.29596358537674 -0.63392931222916 0.7145202755928
vn 0.32592809200287 0.52404373884201 -0.78686022758484
vn -0.35908591747284 -0.34572398662567 0.86690956354141
vn -0.35908603668213 -0.34572395682335 0.86690956354141
vn 0.34667700529099 0.42346912622452 -0.83695220947266
vn -0.87984889745712 -0.3050340116024 0.36444503068924
vn -0.88612943887711 -0.28293362259865 0.36704662442207
vn -0.8731015920639 -0.32695966959 0.36165028810501
vn 0.92387938499451 0 0.38268372416496
vn 0.91066646575928 -0.16851860284805 0.37721094489098
vn 0.90782207250595 -0.18562990427017 0.37603271007538
vn 0.90080326795578 -0.22210581600666 0.3731252849102
vn 0.89654463529587 -0.2414513528347 0.37136092782021
vn 0.88612943887711 -0.28293362259865 0.36704662442207
vn 0.87984889745712 -0.30503398180008 0.36444503068924
vn 0.8731015920639 -0.32695966959 0.36165031790733
vn 0.35928779840469 0.34428083896637 -0.86740010976791
vn 0.35928672552109 0.34428104758263 -0.86740046739578
vn -0.89654463529587 -0.2414513528347 0.37136092782021
vn -0.90080326795578 -0.22210578620434 0.3731252849102
vn -0.90782207250595 -0.18562991917133 0.3760327398777
vn -0.91066646575928 -0.16851860284805 0.3772109746933
vn -0.92387938499451 0 0.38268372416496
vn -0.90654408931732 0.19281032681465 -0.37550231814384
vn -0.89862608909607 0.23220971226692 -0.37222272157669
vn 0.92387980222702 0 -0.38268274068832
vn 0.91022729873657 0.17127831280231 -0.37702786922455
vn 0.90654408931732 0.19281028211117 -0.37550228834152
vn 0.89862614870071 0.23220966756344 -0.37222272157669
vn 0.89451706409454 0.25010702013969 -0.37052088975906
vn 0.88654935359955 0.28138795495033 -0.36722078919411
vn 0.88281852006912 0.2948100566864 -0.36567547917366
vn 0.87891507148743 0.30817154049873 -0.36405855417252
vn -0.8945170044899 0.25010707974434 -0.37052097916603
vn -0.88654935359955 0.28138795495033 -0.36722078919411
vn -0.88281852006912 0.2948100566864 -0.36567547917366
vn -0.87891507148743 0.30817154049873 -0.36405855417252
vn -0.35928675532341 -0.34428089857101 -0.86740052700043
vn 0.35908606648445 0.34572395682335 0.86690956354141
vn -0.35908603668213 0.34572395682335 0.86690956354141
vn 0.35928672552109 -0.34428104758263 -0.86740046739578
vn 0.2991691827774 0.62356817722321 -0.72226071357727
vn -0.29596391320229 -0.63392925262451 0.71452015638351
vn -0.87310153245926 -0.32695975899696 0.36165043711662
vn 0.87310153245926 -0.32695978879929 0.36165043711662
vn 0.87891507148743 0.30817148089409 -0.36405849456787
vn -0.87891507148743 0.30817148089409 -0.36405849456787
# 141 normals

vt 0.9200439453125 0.60679626464844 1
vt 0.9200439453125 0.71319580078125 1
vt 0.92501831054688 0.71319580078125 1
vt 0 1 0
vt 0.9200439453125 0.50039672851562 1
vt 0.92501831054688 0.60679626464844 1
vt 0.9200439453125 0.39399719238281 1
vt 0.92501831054688 0.50039672851562 1
vt 0.9200439453125 0.81959915161133 1
vt 0.92501831054688 0.81959915161133 1
vt 0.93699645996094 0.81959915161133 1
vt 0.92501831054688 0.39399719238281 1
vt 0.93699645996094 0.50039672851562 1
vt 0.94898986816406 0.81959915161133 1
vt 0.95394897460938 0.81959915161133 1
vt 100000 1 0
vt 0.94898986816406 0.71319580078125 1
vt 0.94898986816406 0.60679626464844 1
vt 0.95394897460938 0.71319580078125 1
vt 0.94898986816406 0.50039672851562 1
vt 0.95394897460938 0.60679626464844 1
vt 0.95394897460938 0.39399719238281 1
vt 0.95394897460938 0.50039672851562 1
vt 0.94898986816406 0.39399719238281 1
vt 0.93699645996094 0.71319580078125 1
vt 0.93699645996094 0.60679626464844 1
vt 0.93699645996094 0.39399719238281 1
vt -1.73782348632812 100001 65536
vt -93939.8125 1 0
# 29 texture coordinates

o String.2
usemtl CupidBow
f 41/3/3 3/2/2 12/1/1
f 40/6/6 12/1/1 15/5/5
f 33/8/8 15/5/5 22/7/7
f 34/10/10 1/9/9 3/2/2
f 34/10/11 2/11/11 1/9/11
f 25/13/14 33/8/13 31/12/12
f 1/9/11 2/11/11 39/10/11
f 1/9/9 39/10/16 38/3/15
f 11/15/11 2/11/11 4/14/17
f 11/15/20 4/14/19 5/17/18
f 10/19/22 5/17/18 6/18/21
f 9/21/24 6/18/21 13/20/23
f 18/20/27 8/23/26 7/22/25
f 19/18/28 9/21/24 8/23/26
f 20/17/29 10/19/22 9/21/24
f 21/14/30 11/15/20 10/19/22
f 21/14/31 2/11/11 11/15/11
f 3/2/2 38/3/15 37/6/32
f 8/23/26 13/20/23 14/24/33
f 12/1/1 37/6/32 36/8/34
f 4/14/17 2/11/11 16/11/11
f 4/14/37 16/11/36 23/25/35
f 27/13/40 18/20/39 17/24/38
f 28/26/42 19/18/41 18/20/39
f 29/25/44 20/17/43 19/18/41
f 30/11/46 21/14/45 20/17/43
f 30/11/11 2/11/11 21/14/31
f 15/5/5 36/8/34 35/12/47
f 5/17/49 23/25/35 24/26/48
f 6/18/51 24/26/48 25/13/50
f 13/20/53 25/13/50 32/27/52
f 24/26/55 40/6/54 33/8/13
f 36/8/58 27/13/57 26/27/56
f 37/6/60 28/26/59 27/13/57
f 38/3/62 29/25/61 28/26/59
f 39/10/64 30/11/63 29/25/61
f 39/10/11 2/11/11 30/11/11
f 23/25/66 41/3/65 40/6/54
f 16/11/11 2/11/11 34/10/11
f 16/11/68 34/10/67 41/3/65
f 74/3/71 73/6/70 52/1/69
f 73/6/70 67/8/73 54/5/72
f 67/8/73 31/12/75 22/7/74
f 68/10/77 74/3/71 44/2/76
f 43/11/78 68/10/78 42/9/78
f 62/13/80 32/27/79 31/12/12
f 43/11/78 42/9/78 72/10/78
f 42/9/82 44/2/76 71/3/81
f 43/11/78 51/15/78 45/14/78
f 51/15/85 50/19/84 46/17/83
f 50/19/84 49/21/87 47/18/86
f 49/21/87 48/23/89 53/20/88
f 56/20/92 17/24/91 7/22/90
f 57/18/93 56/20/92 48/23/89
f 58/17/94 57/18/93 49/21/87
f 59/14/95 58/17/94 50/19/84
f 43/11/78 59/14/78 51/15/78
f 44/2/76 52/1/69 70/6/96
f 48/23/89 7/22/98 14/24/97
f 52/1/69 54/5/72 69/8/99
f 43/11/78 45/14/78 55/11/78
f 45/14/102 46/17/101 60/25/100
f 63/13/104 26/27/103 17/24/38
f 64/26/106 63/13/104 56/20/105
f 65/25/108 64/26/106 57/18/107
f 66/11/110 65/25/108 58/17/109
f 43/11/78 66/11/78 59/14/78
f 54/5/72 22/7/112 35/12/111
f 46/17/101 47/18/114 61/26/113
f 47/18/114 53/20/116 62/13/115
f 53/20/116 14/24/117 32/27/52
f 61/26/119 62/13/80 67/8/118
f 69/8/121 35/12/120 26/27/56
f 70/6/123 69/8/121 63/13/122
f 71/3/125 70/6/123 64/26/124
f 72/10/127 71/3/125 65/25/126
f 43/11/78 72/10/78 66/11/78
f 60/25/129 61/26/119 73/6/128
f 43/11/78 55/11/78 68/10/78
f 55/11/131 60/25/129 74/3/130
f 40/6/6 41/3/3 12/1/1
f 33/8/8 40/6/6 15/5/5
f 31/12/132 33/8/8 22/7/7
f 41/3/3 34/10/10 3/2/2
f 32/27/79 25/13/14 31/12/12
f 3/2/2 1/9/9 38/3/15
f 10/19/22 11/15/20 5/17/18
f 9/21/24 10/19/22 6/18/21
f 8/23/26 9/21/24 13/20/23
f 17/24/133 18/20/27 7/22/25
f 18/20/27 19/18/28 8/23/26
f 19/18/28 20/17/29 9/21/24
f 20/17/29 21/14/30 10/19/22
f 12/1/1 3/2/2 37/6/32
f 7/22/134 8/23/26 14/24/33
f 15/5/5 12/1/1 36/8/34
f 5/17/49 4/14/37 23/25/35
f 26/27/103 27/13/40 17/24/38
f 27/13/40 28/26/42 18/20/39
f 28/26/42 29/25/44 19/18/41
f 29/25/44 30/11/46 20/17/43
f 22/7/135 15/5/5 35/12/47
f 6/18/51 5/17/49 24/26/48
f 13/20/53 6/18/51 25/13/50
f 14/24/117 13/20/53 32/27/52
f 25/13/14 24/26/55 33/8/13
f 35/12/120 36/8/58 26/27/56
f 36/8/58 37/6/60 27/13/57
f 37/6/60 38/3/62 28/26/59
f 38/3/62 39/10/64 29/25/61
f 24/26/55 23/25/66 40/6/54
f 23/25/66 16/11/68 41/3/65
f 44/2/76 74/3/71 52/1/69
f 52/1/69 73/6/70 54/5/72
f 54/5/72 67/8/73 22/7/74
f 42/9/82 68/10/77 44/2/76
f 67/8/118 62/13/80 31/12/12
f 72/10/136 42/9/82 71/3/81
f 45/14/137 51/15/85 46/17/83
f 46/17/83 50/19/84 47/18/86
f 47/18/86 49/21/87 53/20/88
f 48/23/89 56/20/92 7/22/90
f 49/21/87 57/18/93 48/23/89
f 50/19/84 58/17/94 49/21/87
f 51/15/85 59/14/95 50/19/84
f 71/3/81 44/2/76 70/6/96
f 53/20/88 48/23/89 14/24/97
f 70/6/96 52/1/69 69/8/99
f 55/11/138 45/14/102 60/25/100
f 56/20/105 63/13/104 17/24/38
f 57/18/107 64/26/106 56/20/105
f 58/17/109 65/25/108 57/18/107
f 59/14/139 66/11/110 58/17/109
f 69/8/99 54/5/72 35/12/111
f 60/25/100 46/17/101 61/26/113
f 61/26/113 47/18/114 62/13/115
f 62/13/115 53/20/116 32/27/52
f 73/6/128 61/26/119 67/8/118
f 63/13/122 69/8/121 26/27/56
f 64/26/124 70/6/123 63/13/122
f 65/25/126 71/3/125 64/26/124
f 66/11/140 72/10/127 65/25/126
f 74/3/130 60/25/129 73/6/128
f 68/10/141 55/11/131 74/3/130

