# WaveFront *.obj file (generated by CINEMA 4D)

v 0 1.17528486251831 -0.02700824663043
v 0 1.17528486251831 -0.00014448302682
v 0 0.88146364688873 -0.02700824663043
v -0.01899554952979 1.17528486251831 0.01885106787086
v -0.01899554952979 0.88146364688873 0.01885106787086
v -0.01899554952979 0.58764243125916 0.01885106787086
v 0 0 0.02671928144991
v 0 0.29382121562958 0.02671928144991
v 0 0.58764243125916 0.02671928144991
v 0 0.88146364688873 0.02671928144991
v 0 1.17528486251831 0.02671928144991
v 0 0.58764243125916 -0.02700824663043
v -0.01899554952979 0.29382121562958 0.01885106787086
v -0.01899554952979 0 0.01885106787086
v 0 0.29382121562958 -0.02700824663043
v -0.02686376497149 1.17528486251831 -0.00014448302682
v 0.01899554952979 0 0.01885106787086
v 0.01899554952979 0.29382121562958 0.01885106787086
v 0.01899554952979 0.58764243125916 0.01885106787086
v 0.01899554952979 0.88146364688873 0.01885106787086
v 0.01899554952979 1.17528486251831 0.01885106787086
v 0 0 -0.02700824663043
v -0.02686376497149 0.88146364688873 -0.00014448302682
v -0.02686376497149 0.58764243125916 -0.00014448302682
v -0.02686376497149 0.29382121562958 -0.00014448302682
v 0.02686376497149 0 -0.00014448302682
v 0.02686376497149 0.29382121562958 -0.00014448302682
v 0.02686376497149 0.58764243125916 -0.00014448302682
v 0.02686376497149 0.88146364688873 -0.00014448302682
v 0.02686376497149 1.17528486251831 -0.00014448302682
v -0.01899554952979 0 -0.01914003305137
v -0.02686376497149 0 -0.00014448302682
v -0.01899554952979 0.29382121562958 -0.01914003305137
v -0.01899554952979 1.17528486251831 -0.01914003305137
v 0.01899554952979 0 -0.01914003305137
v 0.01899554952979 0.29382121562958 -0.01914003305137
v 0.01899554952979 0.58764243125916 -0.01914003305137
v 0.01899554952979 0.88146364688873 -0.01914003305137
v 0.01899554952979 1.17528486251831 -0.01914003305137
v -0.01899554952979 0.58764243125916 -0.01914003305137
v -0.01899554952979 0.88146364688873 -0.01914003305137
v 0 -1.17528486251831 -0.02700824663043
v 0 -1.17528486251831 -0.00014448302682
v 0 -0.88146364688873 -0.02700824663043
v -0.01899554952979 -1.17528486251831 0.01885106787086
v -0.01899554952979 -0.88146364688873 0.01885106787086
v -0.01899554952979 -0.58764243125916 0.01885106787086
v 0 -0.29382121562958 0.02671928144991
v 0 -0.58764243125916 0.02671928144991
v 0 -0.88146364688873 0.02671928144991
v 0 -1.17528486251831 0.02671928144991
v 0 -0.58764243125916 -0.02700824663043
v -0.01899554952979 -0.29382121562958 0.01885106787086
v 0 -0.29382121562958 -0.02700824663043
v -0.02686376497149 -1.17528486251831 -0.00014448302682
v 0.01899554952979 -0.29382121562958 0.01885106787086
v 0.01899554952979 -0.58764243125916 0.01885106787086
v 0.01899554952979 -0.88146364688873 0.01885106787086
v 0.01899554952979 -1.17528486251831 0.01885106787086
v -0.02686376497149 -0.88146364688873 -0.00014448302682
v -0.02686376497149 -0.58764243125916 -0.00014448302682
v -0.02686376497149 -0.29382121562958 -0.00014448302682
v 0.02686376497149 -0.29382121562958 -0.00014448302682
v 0.02686376497149 -0.58764243125916 -0.00014448302682
v 0.02686376497149 -0.88146364688873 -0.00014448302682
v 0.02686376497149 -1.17528486251831 -0.00014448302682
v -0.01899554952979 -0.29382121562958 -0.01914003305137
v -0.01899554952979 -1.17528486251831 -0.01914003305137
v 0.01899554952979 -0.29382121562958 -0.01914003305137
v 0.01899554952979 -0.58764243125916 -0.01914003305137
v 0.01899554952979 -0.88146364688873 -0.01914003305137
v 0.01899554952979 -1.17528486251831 -0.01914003305137
v -0.01899554952979 -0.58764243125916 -0.01914003305137
v -0.01899554952979 -0.88146364688873 -0.01914003305137
# 74 vertices

vn -0.38268345594406 0 -0.9238795042038
vn 0 0 0
vn -0.38268342614174 0 -0.92387956380844
vn 0 1 0
vn -0.9238795042038 0 -0.38268345594406
vn -0.9238795042038 0 -0.38268345594406
vn 0.38268345594406 0 -0.9238795042038
vn 0.38268342614174 0 -0.92387956380844
vn 0.38268342614174 0 -0.92387956380844
vn 0 1 0
vn -0.38268345594406 0 0.9238795042038
vn -0.38268342614174 0 0.92387956380844
vn 0.38268342614174 0 0.92387956380844
vn 0.38268345594406 0 0.9238795042038
vn 0 1 0
vn -0.9238795042038 0 0.38268345594406
vn -0.9238795042038 0 0.38268342614174
vn -0.9238795042038 0 0.38268345594406
vn 0.9238795042038 0 0.38268345594406
vn 0.9238795042038 0 0.38268345594406
vn 0.9238795042038 0 0.38268342614174
vn 0.9238795042038 0 -0.38268345594406
vn 0.9238795042038 0 -0.38268345594406
vn 0.9238795042038 0 -0.38268345594406
vn 0 -1 0
vn -0.38268342614174 0 0.92387956380844
vn -0.9238795042038 0 0.38268342614174
# 27 normals

vt 0.9200439453125 0.60679626464844 1
vt 0.9200439453125 0.71319580078125 1
vt 0.92501831054688 0.71319580078125 1
vt 0.00003051757812 -0.03048706054688 16
vt 0.9200439453125 0.50039672851562 1
vt 0.92501831054688 0.60679626464844 1
vt 0.02506113052368 -99.140625 0.00313264131546
vt 0.9200439453125 0.39399719238281 1
vt 0.92501831054688 0.50039672851562 1
vt 0.02506113052368 -101.650390625 0.00313264131546
vt 0.9200439453125 0.81959915161133 1
vt 0.92501831054688 0.81959915161133 1
vt 0.93699645996094 0.81959915161133 1
vt 0.92501831054688 0.39399719238281 1
vt 0.93699645996094 0.50039672851562 1
vt 0.94898986816406 0.81959915161133 1
vt 0.95394897460938 0.81959915161133 1
vt 821.20782470703125 0.81419271230698 0
vt 0.94898986816406 0.71319580078125 1
vt 0.94898986816406 0.60679626464844 1
vt 0.95394897460938 0.71319580078125 1
vt 0.94898986816406 0.50039672851562 1
vt 0.95394897460938 0.60679626464844 1
vt 0.95394897460938 0.39399719238281 1
vt 0.95394897460938 0.50039672851562 1
vt 0.44607543945312 -29214 470.8671875
vt 0.11691093444824 -118.716796875 442.7265625
vt 0.94898986816406 0.39399719238281 1
vt 100000 0.81413143873215 0
vt 0.93699645996094 0.71319580078125 1
vt 0.93699645996094 0.60679626464844 1
vt 0.01204228401184 -101.650390625 0.00018142908812
vt 0.18578478693962 -3042.89013671875 0
vt 0.18578431010246 -99999 0
vt 0.02408075332642 -94.12109375 0.00019579008222
vt 0.93699645996094 0.39399719238281 1
vt 0.46764373779297 -29875.5 478.8671875
vt 0.46764373779297 -30646.5 478.8671875
vt 0.01253056526184 -26277.5 0.00036292523146
vt 0.23382186889648 0.99988585710526 448.75
vt 0.1858187764883 0.81421566009521 0
vt 0.21911764144897 0.81421566009521 0
vt 0.05206108093262 -94.12109375 0.05845546722412
vt 0.46764373779297 -30633.5 478.8671875
vt 0.02506113052368 -97.1328125 0.00313264131546
vt 0.02506113052368 -101.650390625 0.00304073095322
vt 0.46764373779297 -30646.5 452.8671875
vt 51015.30078125 0.81421566009521 0
vt 100000 0.81421518325806 0
vt 0.18578431010246 -783.9725341796875 0
vt 0.46743774414062 -27177 478.8671875
vt 0.18578431010246 0.81421566009521 0
vt 0.01216077804565 -24350 0.00039158016443
vt 100000 0.81417739391327 0
vt 0.18578445911407 -99999 0
vt 0.18578431010246 -47.56078338623047 0
vt 48.56468963623047 -99999 0
vt 0.02506113052368 -101.650390625 0.00308668613434
vt 0.02506113052368 -101.1484375 0.00313264131546
vt 0.18578442931175 0.81421566009521 0
vt 0.18578431010246 -12688.560546875 0
vt 0.02506113052368 -101.650390625 0.00305634737015
vt 0.02506113052368 -101.650390625 0.00311732292175
vt 0.01246929168701 0.99844133853912 0.000045360066
vt 100000 -99999 0
vt 0.18579579889774 0.81421566009521 0
# 66 texture coordinates

o String
usemtl CupidBow
f 41/3/1 3/2/1 12/1/1
f 40/6/1 12/1/1 15/5/1
f 33/9/1 15/5/1 22/8/3
f 34/12/3 1/11/3 3/2/1
f 34/12/4 2/13/4 1/11/4
f 25/15/6 33/9/6 31/14/5
f 1/11/4 2/13/4 39/12/4
f 1/11/9 39/12/8 38/3/7
f 11/17/4 2/13/4 4/16/10
f 11/17/12 4/16/12 5/19/11
f 10/21/11 5/19/11 6/20/11
f 9/23/11 6/20/11 13/22/11
f 18/22/14 8/25/14 7/24/13
f 19/20/14 9/23/14 8/25/14
f 20/19/14 10/21/14 9/23/14
f 21/16/13 11/17/13 10/21/14
f 21/16/15 2/13/4 11/17/4
f 3/2/7 38/3/7 37/6/7
f 8/25/11 13/22/11 14/28/12
f 12/1/7 37/6/7 36/9/7
f 4/16/10 2/13/4 16/13/4
f 4/16/18 16/13/17 23/30/16
f 27/15/20 18/22/20 17/28/19
f 28/31/20 19/20/20 18/22/20
f 29/30/20 20/19/20 19/20/20
f 30/13/19 21/16/21 20/19/20
f 30/13/4 2/13/4 21/16/15
f 15/5/7 36/9/7 35/14/9
f 5/19/16 23/30/16 24/31/16
f 6/20/16 24/31/16 25/15/16
f 13/22/16 25/15/16 32/36/18
f 24/31/6 40/6/6 33/9/6
f 36/9/23 27/15/23 26/36/22
f 37/6/23 28/31/23 27/15/23
f 38/3/23 29/30/23 28/31/23
f 39/12/22 30/13/24 29/30/23
f 39/12/4 2/13/4 30/13/4
f 23/30/6 41/3/6 40/6/6
f 16/13/4 2/13/4 34/12/4
f 16/13/5 34/12/5 41/3/6
f 74/3/1 73/6/1 52/1/1
f 73/6/1 67/9/1 54/5/1
f 67/9/1 31/14/3 22/8/3
f 68/12/3 74/3/1 44/2/1
f 43/13/25 68/12/25 42/11/25
f 62/15/6 32/36/5 31/14/5
f 43/13/25 42/11/25 72/12/25
f 42/11/9 44/2/7 71/3/7
f 43/13/25 51/17/25 45/16/25
f 51/17/12 50/21/11 46/19/11
f 50/21/11 49/23/11 47/20/11
f 49/23/11 48/25/11 53/22/11
f 56/22/14 17/28/13 7/24/13
f 57/20/14 56/22/14 48/25/14
f 58/19/14 57/20/14 49/23/14
f 59/16/13 58/19/14 50/21/14
f 43/13/25 59/16/25 51/17/25
f 44/2/7 52/1/7 70/6/7
f 48/25/11 7/24/12 14/28/12
f 52/1/7 54/5/7 69/9/7
f 43/13/25 45/16/25 55/13/25
f 45/16/18 46/19/16 60/30/16
f 63/15/20 26/36/19 17/28/19
f 64/31/20 63/15/20 56/22/20
f 65/30/20 64/31/20 57/20/20
f 66/13/19 65/30/20 58/19/20
f 43/13/25 66/13/25 59/16/25
f 54/5/7 22/8/9 35/14/9
f 46/19/16 47/20/16 61/31/16
f 47/20/16 53/22/16 62/15/16
f 53/22/16 14/28/18 32/36/18
f 61/31/6 62/15/6 67/9/6
f 69/9/23 35/14/22 26/36/22
f 70/6/23 69/9/23 63/15/23
f 71/3/23 70/6/23 64/31/23
f 72/12/22 71/3/23 65/30/23
f 43/13/25 72/12/25 66/13/25
f 60/30/6 61/31/6 73/6/6
f 43/13/25 55/13/25 68/12/25
f 55/13/5 60/30/6 74/3/6
f 40/6/1 41/3/1 12/1/1
f 33/9/1 40/6/1 15/5/1
f 31/14/3 33/9/1 22/8/3
f 41/3/1 34/12/3 3/2/1
f 32/36/5 25/15/6 31/14/5
f 3/2/7 1/11/9 38/3/7
f 10/21/11 11/17/12 5/19/11
f 9/23/11 10/21/11 6/20/11
f 8/25/11 9/23/11 13/22/11
f 17/28/13 18/22/14 7/24/13
f 18/22/14 19/20/14 8/25/14
f 19/20/14 20/19/14 9/23/14
f 20/19/14 21/16/13 10/21/14
f 12/1/7 3/2/7 37/6/7
f 7/24/12 8/25/11 14/28/12
f 15/5/7 12/1/7 36/9/7
f 5/19/16 4/16/18 23/30/16
f 26/36/19 27/15/20 17/28/19
f 27/15/20 28/31/20 18/22/20
f 28/31/20 29/30/20 19/20/20
f 29/30/20 30/13/19 20/19/20
f 22/8/9 15/5/7 35/14/9
f 6/20/16 5/19/16 24/31/16
f 13/22/16 6/20/16 25/15/16
f 14/28/18 13/22/16 32/36/18
f 25/15/6 24/31/6 33/9/6
f 35/14/22 36/9/23 26/36/22
f 36/9/23 37/6/23 27/15/23
f 37/6/23 38/3/23 28/31/23
f 38/3/23 39/12/22 29/30/23
f 24/31/6 23/30/6 40/6/6
f 23/30/6 16/13/5 41/3/6
f 44/2/1 74/3/1 52/1/1
f 52/1/1 73/6/1 54/5/1
f 54/5/1 67/9/1 22/8/3
f 42/11/3 68/12/3 44/2/1
f 67/9/6 62/15/6 31/14/5
f 72/12/9 42/11/9 71/3/7
f 45/16/26 51/17/12 46/19/11
f 46/19/11 50/21/11 47/20/11
f 47/20/11 49/23/11 53/22/11
f 48/25/14 56/22/14 7/24/13
f 49/23/14 57/20/14 48/25/14
f 50/21/14 58/19/14 49/23/14
f 51/17/13 59/16/13 50/21/14
f 71/3/7 44/2/7 70/6/7
f 53/22/11 48/25/11 14/28/12
f 70/6/7 52/1/7 69/9/7
f 55/13/27 45/16/18 60/30/16
f 56/22/20 63/15/20 17/28/19
f 57/20/20 64/31/20 56/22/20
f 58/19/20 65/30/20 57/20/20
f 59/16/21 66/13/19 58/19/20
f 69/9/7 54/5/7 35/14/9
f 60/30/16 46/19/16 61/31/16
f 61/31/16 47/20/16 62/15/16
f 62/15/16 53/22/16 32/36/18
f 73/6/6 61/31/6 67/9/6
f 63/15/23 69/9/23 26/36/22
f 64/31/23 70/6/23 63/15/23
f 65/30/23 71/3/23 64/31/23
f 66/13/22 72/12/22 65/30/23
f 74/3/6 60/30/6 73/6/6
f 68/12/5 55/13/5 74/3/6

