# Blender v2.83.0 OBJ File: 'Dog_Ears.blend'
# www.blender.org
mtllib Dog_Ears.mtl
o dog_ears_Plane
v 1.017962 7.925482 3.761941
v 3.230041 7.603722 3.761941
v 1.017962 7.925482 3.449577
v 3.230041 7.603722 3.449577
v 0.948223 7.940980 3.761941
v 3.338524 7.580475 3.761941
v 3.099143 7.697072 4.541256
v 4.514368 7.965394 4.589071
v 2.150259 7.794662 3.761941
v 3.846963 7.595524 4.562017
v 1.046685 9.406414 3.682179
v 3.982584 8.413033 3.682179
v 2.560857 9.050605 3.682179
v 4.855021 8.989557 4.387691
v 2.137629 8.815138 4.332764
v 3.448382 8.755165 4.413109
v 0.972220 8.794416 3.703624
v 3.579265 7.895588 3.761941
v 2.355557 8.472252 3.694134
v 4.535939 9.532747 3.799163
v 2.759167 9.537607 3.682198
v 1.311036 10.036847 3.728300
v 1.893582 9.492927 4.141278
v 4.786576 9.760056 4.191241
v 3.231393 9.343663 4.238636
v 0.972220 8.794416 3.391260
v 0.948223 7.940980 3.449577
v 2.150258 7.794662 3.449577
v 3.338524 7.580475 3.449577
v 4.809551 9.061894 4.593300
v 4.427043 8.022653 4.694134
v 3.837098 7.678781 4.670358
v 3.104363 7.780314 4.684391
v 1.939561 9.623142 4.342427
v 4.554086 9.525116 3.503541
v 2.780328 9.613361 3.423752
v 3.441374 8.842360 4.642443
v 1.347976 10.104097 3.496370
v 1.046685 9.406414 3.369815
v 3.579265 7.895588 3.449577
v 3.982584 8.413033 3.369816
v 2.355558 8.472251 3.358084
v 2.560857 9.050605 3.330420
v 4.709970 9.819178 4.323366
v 2.172837 8.916657 4.561791
v 3.223718 9.431739 4.536540
v 1.480587 10.203281 3.894319
v 1.649394 10.049538 3.997894
v 4.576055 10.032770 4.062724
v 4.476187 10.005996 3.903015
v 3.069734 9.782101 4.002084
v 2.980276 9.796351 3.876920
v 1.775528 10.172880 4.071866
v 1.689460 10.484989 3.680729
v 4.359735 10.130059 3.588582
v 4.355246 10.343561 3.901248
v 2.953437 10.114901 3.697032
v 2.994915 10.053370 3.987720
v -0.948223 7.940980 3.761941
v -3.338524 7.580475 3.761941
v -3.099143 7.697072 4.541256
v -4.514368 7.965394 4.589071
v -2.150259 7.794662 3.761941
v -3.846963 7.595524 4.562017
v -1.046685 9.406414 3.682179
v -3.982584 8.413033 3.682179
v -2.560857 9.050605 3.682179
v -4.855021 8.989557 4.387691
v -2.137629 8.815138 4.332764
v -3.448382 8.755165 4.413109
v -0.972220 8.794416 3.703624
v -3.579265 7.895588 3.761941
v -2.355557 8.472252 3.694134
v -4.535939 9.532747 3.799163
v -2.759167 9.537607 3.682198
v -1.311036 10.036847 3.728300
v -1.893582 9.492927 4.141278
v -4.786576 9.760056 4.191241
v -3.231393 9.343663 4.238636
v -0.972220 8.794416 3.391260
v -0.948223 7.940980 3.449577
v -2.150258 7.794662 3.449577
v -3.338524 7.580475 3.449577
v -4.809551 9.061894 4.593300
v -4.427043 8.022653 4.694134
v -3.837098 7.678781 4.670358
v -3.104363 7.780314 4.684391
v -1.939561 9.623142 4.342427
v -4.554086 9.525116 3.503541
v -2.780328 9.613361 3.423752
v -3.441374 8.842360 4.642443
v -1.347976 10.104097 3.496370
v -1.046685 9.406414 3.369815
v -3.579265 7.895588 3.449577
v -3.982584 8.413033 3.369816
v -2.355558 8.472251 3.358084
v -2.560857 9.050605 3.330420
v -4.709970 9.819178 4.323366
v -2.172837 8.916657 4.561791
v -3.223718 9.431739 4.536540
v -1.480587 10.203281 3.894319
v -1.649394 10.049538 3.997894
v -4.576055 10.032770 4.062724
v -4.476187 10.005996 3.903015
v -3.069734 9.782101 4.002084
v -2.980276 9.796351 3.876920
v -1.775528 10.172880 4.071866
v -1.689460 10.484989 3.680729
v -4.359735 10.130059 3.588582
v -4.355246 10.343561 3.901248
v -2.953437 10.114901 3.697032
v -2.994915 10.053370 3.987720
vt 0.807554 0.150860
vt 0.695404 0.145241
vt 0.736325 0.072513
vt 0.817552 0.205455
vt 0.826315 0.252401
vt 0.696395 0.232480
vt 0.423568 0.256257
vt 0.449592 0.264557
vt 0.432679 0.288317
vt 0.847573 0.070806
vt 0.912063 0.166627
vt 0.978432 0.350362
vt 0.970548 0.397648
vt 0.858551 0.391543
vt 0.853783 0.341090
vt 0.753723 0.416867
vt 0.929378 0.221820
vt 0.686229 0.205307
vt 0.861449 0.448204
vt 0.767245 0.445003
vt 0.954447 0.461849
vt 0.973758 0.297865
vt 0.848214 0.296155
vt 0.730144 0.370809
vt 0.625799 0.213907
vt 0.608036 0.218182
vt 0.631436 0.189890
vt 0.965887 0.276216
vt 0.548610 0.130716
vt 0.569601 0.053070
vt 0.609307 0.073774
vt 0.525629 0.231072
vt 0.536852 0.171731
vt 0.522446 0.295056
vt 0.524794 0.251882
vt 0.611586 0.240377
vt 0.466074 0.141721
vt 0.522003 0.064765
vt 0.514787 0.379771
vt 0.416347 0.373151
vt 0.419433 0.333509
vt 0.615185 0.394912
vt 0.518717 0.336792
vt 0.449935 0.192967
vt 0.604734 0.423915
vt 0.510890 0.431488
vt 0.419352 0.435161
vt 0.624111 0.347120
vt 0.648136 0.350001
vt 0.638631 0.402646
vt 0.646298 0.260695
vt 0.627944 0.271293
vt 0.420249 0.458924
vt 0.398472 0.328682
vt 0.394108 0.373720
vt 0.570562 0.043209
vt 0.617471 0.067665
vt 0.628052 0.432248
vt 0.512370 0.455446
vt 0.648136 0.136283
vt 0.633393 0.140128
vt 0.642988 0.191950
vt 0.432718 0.185684
vt 0.450759 0.131598
vt 0.517318 0.053707
vt 0.443688 0.236618
vt 0.951191 0.263232
vt 0.416398 0.280709
vt 0.833380 0.264454
vt 0.697662 0.281567
vt 0.703149 0.246132
vt 0.624121 0.229182
vt 0.429200 0.234533
vt 0.807554 0.150860
vt 0.791946 0.053991
vt 0.736325 0.072513
vt 0.696395 0.232480
vt 0.826315 0.252401
vt 0.817552 0.205455
vt 0.423568 0.256257
vt 0.416398 0.280709
vt 0.432679 0.288317
vt 0.912063 0.166627
vt 0.847573 0.070806
vt 0.858551 0.391543
vt 0.970548 0.397648
vt 0.978432 0.350362
vt 0.753723 0.416867
vt 0.853783 0.341090
vt 0.929378 0.221820
vt 0.686229 0.205307
vt 0.767245 0.445003
vt 0.861449 0.448204
vt 0.954447 0.461849
vt 0.973758 0.297865
vt 0.730144 0.370809
vt 0.848214 0.296155
vt 0.625799 0.213907
vt 0.642988 0.191950
vt 0.631436 0.189890
vt 0.965887 0.276216
vt 0.548610 0.130716
vt 0.633393 0.140128
vt 0.609307 0.073774
vt 0.536852 0.171731
vt 0.525629 0.231072
vt 0.608036 0.218182
vt 0.522446 0.295056
vt 0.627944 0.271293
vt 0.611586 0.240377
vt 0.522003 0.064765
vt 0.466074 0.141721
vt 0.419433 0.333509
vt 0.416347 0.373151
vt 0.514787 0.379771
vt 0.518717 0.336792
vt 0.615185 0.394912
vt 0.449935 0.192967
vt 0.510890 0.431488
vt 0.604734 0.423915
vt 0.419352 0.435161
vt 0.624111 0.347120
vt 0.449592 0.264557
vt 0.638631 0.402646
vt 0.648136 0.350001
vt 0.646298 0.260695
vt 0.624121 0.229182
vt 0.420249 0.458924
vt 0.512370 0.455446
vt 0.398472 0.328682
vt 0.394108 0.373720
vt 0.396177 0.437501
vt 0.617471 0.067665
vt 0.570562 0.043209
vt 0.628052 0.432248
vt 0.606618 0.448106
vt 0.648136 0.136283
vt 0.450759 0.131598
vt 0.432718 0.185684
vt 0.569601 0.053070
vt 0.517318 0.053707
vt 0.443688 0.236618
vt 0.951191 0.263232
vt 0.697662 0.281567
vt 0.833380 0.264454
vt 0.703149 0.246132
vt 0.524794 0.251882
vt 0.429200 0.234533
vt 0.791946 0.053991
vt 0.396177 0.437501
vt 0.606618 0.448106
vt 0.695404 0.145241
vn 0.0152 -0.1978 -0.9801
vn 0.1092 -0.4405 -0.8911
vn -0.7637 0.6385 0.0953
vn 0.0543 -0.1377 -0.9890
vn 0.0146 0.0332 0.9993
vn -0.0391 0.0345 0.9986
vn 0.0415 -0.2578 -0.9653
vn 0.0428 -0.2694 -0.9621
vn 0.0170 0.0945 0.9954
vn 0.0117 0.0961 0.9953
vn -0.0156 -0.0664 0.9977
vn -0.0000 -0.0000 1.0000
vn 0.7879 0.6086 0.0939
vn -0.1806 -0.5962 0.7822
vn -0.0453 0.0086 0.9989
vn -0.0882 0.6408 0.7626
vn -0.0721 0.4963 -0.8652
vn -0.0599 0.0584 0.9965
vn -0.0312 -0.0312 -0.9990
vn 0.0446 -0.0635 -0.9970
vn -0.1058 0.2628 0.9590
vn 0.0859 0.2068 0.9746
vn -0.0229 -0.1270 -0.9916
vn -0.0395 -0.0670 -0.9970
vn 0.0149 0.1722 -0.9849
vn 0.0858 0.1303 -0.9877
vn 0.0814 0.3742 -0.9238
vn 0.7887 -0.6148 0.0000
vn 0.9529 0.2990 0.0508
vn -0.1208 -0.9927 0.0000
vn -0.9927 0.1208 0.0000
vn -0.9996 0.0281 0.0000
vn 0.3462 -0.6725 0.6542
vn 0.7946 -0.6071 0.0000
vn -0.1774 -0.9841 0.0000
vn 0.9027 -0.3025 0.3061
vn 0.8815 0.2571 0.3961
vn -0.9298 -0.2616 0.2589
vn -0.1242 -0.7922 0.5975
vn -0.7399 -0.5695 0.3582
vn 0.1062 0.4644 0.8792
vn -0.0478 -0.2688 -0.9620
vn -0.9157 0.4008 -0.0296
vn 0.8894 -0.4571 0.0000
vn -0.0555 -0.5697 0.8200
vn -0.1851 -0.9825 0.0204
vn 0.1613 -0.9848 0.0642
vn 0.1088 0.9755 0.1910
vn -0.2072 0.8065 -0.5537
vn -0.3085 0.7093 0.6339
vn 0.9205 0.3287 -0.2112
vn -0.8774 -0.2856 0.3855
vn -0.0930 -0.0953 -0.9911
vn -0.1092 -0.4405 -0.8911
vn 0.7361 0.6724 0.0777
vn -0.0543 -0.1377 -0.9890
vn -0.0146 0.0332 0.9993
vn 0.0391 0.0345 0.9986
vn -0.0415 -0.2578 -0.9653
vn -0.0428 -0.2694 -0.9621
vn -0.0170 0.0945 0.9954
vn -0.0226 0.0675 0.9975
vn 0.0156 -0.0664 0.9977
vn -0.7490 0.6465 0.1450
vn 0.1806 -0.5962 0.7822
vn -0.0215 0.0887 0.9958
vn 0.0882 0.6408 0.7626
vn -0.0521 0.1554 -0.9865
vn 0.0599 0.0584 0.9965
vn 0.0312 -0.0312 -0.9990
vn -0.0446 -0.0635 -0.9970
vn 0.1058 0.2628 0.9590
vn -0.0859 0.2068 0.9746
vn 0.0229 -0.1270 -0.9916
vn 0.0157 -0.1291 -0.9915
vn -0.0149 0.1722 -0.9849
vn -0.0858 0.1303 -0.9877
vn -0.0814 0.3742 -0.9238
vn -0.7887 -0.6148 0.0000
vn -0.9434 0.1802 -0.2783
vn 0.1208 -0.9927 0.0000
vn 0.9927 0.1208 0.0000
vn 0.9996 0.0281 0.0000
vn -0.3462 -0.6725 0.6542
vn -0.7946 -0.6071 0.0000
vn 0.1774 -0.9841 0.0000
vn -0.7333 -0.1121 0.6706
vn -0.9768 0.1302 0.1702
vn 0.9298 -0.2616 0.2589
vn 0.1242 -0.7922 0.5975
vn 0.7399 -0.5695 0.3582
vn -0.1062 0.4644 0.8792
vn 0.0478 -0.2688 -0.9620
vn 0.9222 0.3867 0.0000
vn -0.8918 -0.4476 0.0663
vn 0.0555 -0.5697 0.8200
vn 0.1942 -0.6858 -0.7014
vn -0.1393 -0.9678 -0.2097
vn -0.1088 0.9755 0.1910
vn 0.2072 0.8065 -0.5537
vn 0.5148 0.0123 0.8572
vn -0.9205 0.3287 -0.2112
vn 0.8774 -0.2856 0.3855
vn 0.0930 -0.0953 -0.9911
vn 0.0732 -0.3784 -0.9228
vn -0.7361 0.6724 0.0777
vn 0.0107 -0.1237 -0.9923
vn 0.0045 0.0191 0.9998
vn 0.0508 0.1133 0.9923
vn 0.0467 -0.2681 -0.9623
vn 0.0233 -0.2450 -0.9692
vn -0.0407 0.0311 0.9987
vn 0.0226 0.0675 0.9975
vn 0.0279 -0.0114 0.9995
vn -0.0657 -0.0715 0.9953
vn 0.7490 0.6465 0.1450
vn -0.1318 -0.5217 0.8429
vn 0.0215 0.0887 0.9958
vn -0.0448 0.6079 0.7928
vn 0.0521 0.1554 -0.9865
vn 0.0236 0.0320 0.9992
vn -0.0343 -0.0356 -0.9988
vn -0.0304 -0.1291 -0.9912
vn -0.0535 0.1574 0.9861
vn -0.0196 0.3334 0.9426
vn 0.0548 -0.0419 -0.9976
vn -0.0157 -0.1291 -0.9915
vn 0.0053 0.1616 -0.9868
vn 0.0494 0.0942 -0.9943
vn 0.1392 0.4363 -0.8890
vn 0.9434 0.1802 -0.2783
vn 0.3915 -0.7120 0.5828
vn 0.7333 -0.1121 0.6706
vn 0.9768 0.1302 0.1702
vn -0.9197 -0.1985 0.3387
vn -0.1092 -0.8575 0.5027
vn -0.7390 -0.5665 0.3647
vn -0.0156 0.6585 0.7524
vn 0.0116 -0.4715 -0.8818
vn -0.9222 0.3867 0.0000
vn 0.8918 -0.4476 0.0663
vn 0.0128 -0.2128 0.9770
vn -0.1942 -0.6858 -0.7014
vn 0.1393 -0.9678 -0.2097
vn 0.2225 0.7853 0.5777
vn 0.0054 0.9785 0.2063
vn -0.5148 0.0123 0.8572
vn 0.7919 0.2809 -0.5423
vn -0.6260 0.1860 0.7573
vn -0.0152 -0.1978 -0.9801
vn -0.0732 -0.3784 -0.9228
vn 0.7637 0.6385 0.0953
vn -0.0107 -0.1237 -0.9923
vn -0.0045 0.0191 0.9998
vn -0.0508 0.1133 0.9923
vn -0.0467 -0.2681 -0.9623
vn -0.0233 -0.2450 -0.9692
vn 0.0407 0.0311 0.9987
vn -0.0117 0.0961 0.9953
vn -0.0279 -0.0114 0.9995
vn 0.0657 -0.0715 0.9953
vn -0.7879 0.6086 0.0939
vn 0.1318 -0.5217 0.8429
vn 0.0453 0.0086 0.9989
vn 0.0448 0.6079 0.7928
vn 0.0721 0.4963 -0.8652
vn -0.0236 0.0320 0.9992
vn 0.0343 -0.0356 -0.9988
vn 0.0304 -0.1291 -0.9912
vn 0.0535 0.1574 0.9861
vn 0.0196 0.3334 0.9426
vn -0.0548 -0.0419 -0.9976
vn 0.0395 -0.0670 -0.9970
vn -0.0053 0.1616 -0.9868
vn -0.0494 0.0942 -0.9943
vn -0.1392 0.4363 -0.8890
vn -0.9529 0.2990 0.0508
vn -0.3915 -0.7120 0.5828
vn -0.9027 -0.3025 0.3061
vn -0.8815 0.2571 0.3961
vn 0.9197 -0.1985 0.3387
vn 0.1092 -0.8575 0.5027
vn 0.7390 -0.5665 0.3647
vn 0.0156 0.6585 0.7524
vn -0.0116 -0.4715 -0.8818
vn 0.9157 0.4008 -0.0296
vn -0.8894 -0.4571 0.0000
vn -0.0128 -0.2128 0.9770
vn 0.1851 -0.9825 0.0204
vn -0.1613 -0.9848 0.0642
vn -0.2225 0.7853 0.5777
vn -0.0054 0.9785 0.2063
vn 0.3085 0.7093 0.6339
vn -0.7919 0.2809 -0.5423
vn 0.6260 0.1860 0.7573
usemtl Material.002
s off
f 16/1/1 14/2/1 8/3/1
f 25/4/2 51/5/2 49/6/2
f 47/7/3 54/8/3 38/9/3
f 7/10/4 15/11/4 16/1/4
f 11/12/5 17/13/5 19/14/5
f 13/15/6 19/14/6 18/16/6
f 15/11/7 23/17/7 25/4/7
f 16/1/8 25/4/8 24/18/8
f 19/14/9 9/19/9 6/20/9
f 5/21/10 9/19/10 19/14/10
f 22/22/11 11/12/11 13/15/11
f 21/23/12 13/15/12 12/24/12
f 49/25/13 56/26/13 44/27/13
f 47/28/14 22/22/14 21/23/14
f 37/29/15 32/30/15 31/31/15
f 56/26/16 58/32/16 46/33/16
f 36/34/17 57/35/17 55/36/17
f 37/29/18 45/37/18 33/38/18
f 42/39/19 26/40/19 39/41/19
f 40/42/20 42/39/20 43/43/20
f 46/33/21 34/44/21 45/37/21
f 44/27/22 46/33/22 37/29/22
f 29/45/23 28/46/23 42/39/23
f 27/47/24 26/40/24 42/39/24
f 43/43/25 39/41/25 38/9/25
f 41/48/26 43/43/26 36/34/26
f 36/34/27 38/9/27 54/8/27
f 12/49/28 18/50/28 40/42/28
f 20/51/29 35/52/29 55/36/29
f 5/53/30 27/47/30 28/46/30
f 11/54/31 39/41/31 26/40/31
f 17/55/32 26/40/32 27/47/32
f 10/56/33 8/57/33 31/31/33
f 18/50/34 6/58/34 29/45/34
f 9/59/35 28/46/35 29/45/35
f 14/60/36 30/61/36 31/31/36
f 24/62/37 44/27/37 30/61/37
f 23/63/38 15/64/38 45/37/38
f 7/65/39 10/56/39 32/30/39
f 15/64/40 7/65/40 33/38/40
f 58/32/41 53/66/41 34/44/41
f 23/17/42 48/67/42 51/5/42
f 22/68/43 38/9/43 39/41/43
f 12/49/44 41/48/44 35/52/44
f 52/69/45 21/23/45 20/70/45
f 52/69/46 51/5/46 48/67/46
f 50/71/47 49/6/47 51/5/47
f 53/66/48 58/32/48 57/35/48
f 58/32/49 56/26/49 55/36/49
f 53/66/50 54/8/50 47/7/50
f 50/72/51 55/36/51 56/26/51
f 48/73/52 23/63/52 34/44/52
f 70/74/53 64/75/53 62/76/53
f 103/77/54 105/78/54 79/79/54
f 101/80/55 76/81/55 92/82/55
f 70/74/56 69/83/56 61/84/56
f 73/85/57 71/86/57 65/87/57
f 72/88/58 73/85/58 67/89/58
f 79/79/59 77/90/59 69/83/59
f 78/91/60 79/79/60 70/74/60
f 60/92/61 63/93/61 73/85/61
f 59/94/62 71/86/62 73/85/62
f 67/89/63 65/87/63 76/95/63
f 66/96/12 67/89/12 75/97/12
f 103/98/64 78/99/64 98/100/64
f 75/97/65 76/95/65 101/101/65
f 91/102/66 84/103/66 85/104/66
f 100/105/67 112/106/67 110/107/67
f 90/108/68 89/109/68 109/110/68
f 87/111/69 99/112/69 91/102/69
f 93/113/70 80/114/70 96/115/70
f 97/116/71 96/115/71 94/117/71
f 99/112/72 88/118/72 100/105/72
f 91/102/73 100/105/73 98/100/73
f 96/115/74 82/119/74 83/120/74
f 81/121/75 82/119/75 96/115/75
f 92/82/76 93/113/76 97/116/76
f 90/108/77 97/116/77 95/122/77
f 108/123/78 92/82/78 90/108/78
f 94/117/79 72/124/79 66/125/79
f 74/126/80 104/127/80 109/110/80
f 59/128/81 63/129/81 82/119/81
f 65/130/82 71/131/82 80/114/82
f 71/131/83 59/132/83 81/121/83
f 85/104/84 62/133/84 64/134/84
f 83/120/85 60/135/85 72/124/85
f 63/129/86 60/136/86 83/120/86
f 68/137/87 62/133/87 85/104/87
f 78/99/88 68/137/88 84/103/88
f 99/112/89 69/138/89 77/139/89
f 86/140/90 64/134/90 61/141/90
f 87/111/91 61/141/91 69/138/91
f 88/118/92 107/142/92 112/106/92
f 105/78/93 102/143/93 77/90/93
f 76/81/94 65/130/94 93/113/94
f 66/125/95 74/126/95 89/109/95
f 74/144/96 75/97/96 106/145/96
f 106/145/97 101/101/97 102/143/97
f 104/146/98 106/145/98 105/78/98
f 111/147/99 112/106/99 107/142/99
f 109/110/100 110/107/100 112/106/100
f 107/142/101 102/148/101 101/80/101
f 110/107/102 109/110/102 104/127/102
f 88/118/103 77/139/103 102/148/103
f 16/1/104 8/3/104 10/149/104
f 25/4/105 49/6/105 24/18/105
f 47/7/106 38/9/106 22/68/106
f 7/10/107 16/1/107 10/149/107
f 11/12/108 19/14/108 13/15/108
f 13/15/109 18/16/109 12/24/109
f 15/11/110 25/4/110 16/1/110
f 16/1/111 24/18/111 14/2/111
f 19/14/112 6/20/112 18/16/112
f 5/21/113 19/14/113 17/13/113
f 22/22/114 13/15/114 21/23/114
f 21/23/115 12/24/115 20/70/115
f 49/25/116 44/27/116 24/62/116
f 47/28/117 21/23/117 52/69/117
f 37/29/118 31/31/118 30/61/118
f 56/26/119 46/33/119 44/27/119
f 36/34/120 55/36/120 35/52/120
f 37/29/121 33/38/121 32/30/121
f 42/39/122 39/41/122 43/43/122
f 40/42/123 43/43/123 41/48/123
f 46/33/124 45/37/124 37/29/124
f 44/27/125 37/29/125 30/61/125
f 29/45/126 42/39/126 40/42/126
f 27/47/127 42/39/127 28/46/127
f 43/43/128 38/9/128 36/34/128
f 41/48/129 36/34/129 35/52/129
f 36/34/130 54/8/130 57/35/130
f 12/49/28 40/42/28 41/48/28
f 20/51/131 55/36/131 50/72/131
f 5/53/30 28/46/30 9/59/30
f 11/54/31 26/40/31 17/55/31
f 17/55/32 27/47/32 5/150/32
f 10/56/132 31/31/132 32/30/132
f 18/50/34 29/45/34 40/42/34
f 9/59/35 29/45/35 6/151/35
f 14/60/133 31/31/133 8/57/133
f 24/62/134 30/61/134 14/60/134
f 23/63/135 45/37/135 34/44/135
f 7/65/136 32/30/136 33/38/136
f 15/64/137 33/38/137 45/37/137
f 58/32/138 34/44/138 46/33/138
f 23/17/139 51/5/139 25/4/139
f 22/68/140 39/41/140 11/54/140
f 12/49/141 35/52/141 20/51/141
f 52/69/142 20/70/142 50/71/142
f 52/69/143 48/67/143 47/28/143
f 50/71/144 51/5/144 52/69/144
f 53/66/145 57/35/145 54/8/145
f 58/32/146 55/36/146 57/35/146
f 53/66/147 47/7/147 48/73/147
f 50/72/148 56/26/148 49/25/148
f 48/73/149 34/44/149 53/66/149
f 70/74/150 62/76/150 68/152/150
f 103/77/151 79/79/151 78/91/151
f 101/80/152 92/82/152 108/123/152
f 70/74/153 61/84/153 64/75/153
f 73/85/154 65/87/154 67/89/154
f 72/88/155 67/89/155 66/96/155
f 79/79/156 69/83/156 70/74/156
f 78/91/157 70/74/157 68/152/157
f 60/92/158 73/85/158 72/88/158
f 59/94/159 73/85/159 63/93/159
f 67/89/160 76/95/160 75/97/160
f 66/96/161 75/97/161 74/144/161
f 103/98/162 98/100/162 110/107/162
f 75/97/163 101/101/163 106/145/163
f 91/102/164 85/104/164 86/140/164
f 100/105/165 110/107/165 98/100/165
f 90/108/166 109/110/166 111/147/166
f 87/111/167 91/102/167 86/140/167
f 93/113/168 96/115/168 97/116/168
f 97/116/169 94/117/169 95/122/169
f 99/112/170 100/105/170 91/102/170
f 91/102/171 98/100/171 84/103/171
f 96/115/172 83/120/172 94/117/172
f 81/121/173 96/115/173 80/114/173
f 92/82/174 97/116/174 90/108/174
f 90/108/175 95/122/175 89/109/175
f 108/123/176 90/108/176 111/147/176
f 94/117/79 66/125/79 95/122/79
f 74/126/177 109/110/177 89/109/177
f 59/128/81 82/119/81 81/121/81
f 65/130/82 80/114/82 93/113/82
f 71/131/83 81/121/83 80/114/83
f 85/104/178 64/134/178 86/140/178
f 83/120/85 72/124/85 94/117/85
f 63/129/86 83/120/86 82/119/86
f 68/137/179 85/104/179 84/103/179
f 78/99/180 84/103/180 98/100/180
f 99/112/181 77/139/181 88/118/181
f 86/140/182 61/141/182 87/111/182
f 87/111/183 69/138/183 99/112/183
f 88/118/184 112/106/184 100/105/184
f 105/78/185 77/90/185 79/79/185
f 76/81/186 93/113/186 92/82/186
f 66/125/187 89/109/187 95/122/187
f 74/144/188 106/145/188 104/146/188
f 106/145/189 102/143/189 105/78/189
f 104/146/190 105/78/190 103/77/190
f 111/147/191 107/142/191 108/123/191
f 109/110/192 112/106/192 111/147/192
f 107/142/193 101/80/193 108/123/193
f 110/107/194 104/127/194 103/98/194
f 88/118/195 102/148/195 107/142/195
l 3 1
l 4 2
