# Blender v2.90.1 OBJ File: 'Ice_Bow.blend'
# www.blender.org
mtllib ice_bow_string_01.mtl
o bow_string_01_bow_string_01_Cylinder.001
v -0.010675 -1.310241 0.088046
v 0.010675 -1.310241 0.088046
v 0.010675 -1.324713 0.103742
v 0.000000 -1.307243 0.084795
v 0.015097 -1.317476 0.095894
v 0.000000 -1.327710 0.106993
v -0.010675 -1.324713 0.103742
v -0.015097 -1.317476 0.095894
v 0.000000 1.306205 0.085259
v 0.010675 1.019274 0.085028
v 0.000000 1.019274 0.080606
v 0.010675 1.309337 0.088381
v 0.015097 1.019274 0.095702
v 0.015097 1.316898 0.095916
v 0.010675 1.019274 0.106377
v 0.010675 1.324459 0.103451
v 0.000000 1.019274 0.110799
v -0.000000 1.327591 0.106573
v -0.010675 1.019274 0.106377
v -0.010675 1.324459 0.103451
v -0.015097 1.019274 0.095702
v -0.015097 1.316898 0.095916
v -0.010675 1.019274 0.085028
v -0.010675 1.309337 0.088381
v 0.000000 -0.339758 0.080606
v -0.010675 -0.339758 0.085028
v -0.015097 -0.339758 0.095702
v -0.010675 -0.339758 0.106377
v 0.000000 -0.339758 0.110799
v 0.010675 -0.000000 0.106377
v 0.010675 -0.339758 0.106377
v 0.015097 -0.000000 0.095702
v 0.015097 -0.339758 0.095702
v 0.010675 -0.000000 0.085028
v 0.010675 -0.339758 0.085028
v 0.000000 -0.679516 0.080606
v 0.010675 -1.019274 0.085028
v 0.000000 -1.019274 0.080606
v 0.010675 -0.679516 0.085028
v 0.015097 -1.019274 0.095702
v 0.015097 -0.679516 0.095702
v 0.010675 -1.019274 0.106377
v 0.010675 -0.679516 0.106377
v 0.000000 -1.019274 0.110799
v 0.000000 -0.679516 0.110799
v -0.010675 -1.019274 0.106377
v -0.010675 -0.679516 0.106377
v -0.015097 -1.019274 0.095702
v -0.015097 -0.679516 0.095702
v -0.010675 -1.019274 0.085028
v -0.010675 -0.679516 0.085028
v -0.010675 0.679516 0.085028
v 0.000000 0.339758 0.080606
v -0.010675 0.339758 0.085028
v -0.015097 0.679516 0.095702
v -0.015097 0.339758 0.095702
v -0.010675 0.679516 0.106377
v -0.010675 0.339758 0.106377
v 0.000000 0.679516 0.110799
v 0.000000 0.339758 0.110799
v 0.010675 0.679516 0.106377
v 0.010675 0.339758 0.106377
v 0.015097 0.679516 0.095702
v 0.015097 0.339758 0.095702
v 0.010675 0.679516 0.085028
v 0.010675 0.339758 0.085028
v 0.000000 0.679516 0.080606
v -0.010675 -0.000000 0.085028
v 0.000000 -0.000000 0.080606
v -0.015097 -0.000000 0.095702
v -0.010675 -0.000000 0.106377
v 0.000000 -0.000000 0.110799
vt 0.019978 0.015313
vt 0.019978 0.015313
vt 0.012355 0.015313
vt 0.021556 0.015313
vt 0.016166 0.015313
vt 0.010776 0.015313
vt 0.012355 0.015313
vt 0.016166 0.015313
vt 0.021556 0.985794
vt 0.019978 0.864484
vt 0.021556 0.864484
vt 0.019978 0.985795
vt 0.016166 0.864484
vt 0.016166 0.985795
vt 0.012355 0.864484
vt 0.012355 0.985795
vt 0.010776 0.864484
vt 0.010776 0.985795
vt 0.012355 0.864484
vt 0.012355 0.985795
vt 0.016166 0.864484
vt 0.016166 0.985795
vt 0.019978 0.864484
vt 0.019978 0.985795
vt 0.019978 0.500554
vt 0.021556 0.379244
vt 0.019978 0.379244
vt 0.016166 0.500554
vt 0.016166 0.379244
vt 0.012355 0.500554
vt 0.012355 0.379244
vt 0.010776 0.500554
vt 0.010776 0.379244
vt 0.012355 0.500554
vt 0.012355 0.379244
vt 0.016166 0.500554
vt 0.016166 0.379244
vt 0.019978 0.500554
vt 0.019978 0.379244
vt 0.021556 0.500554
vt 0.021556 0.257934
vt 0.019978 0.136623
vt 0.021556 0.136623
vt 0.019978 0.257934
vt 0.016166 0.136623
vt 0.016166 0.257934
vt 0.012355 0.136623
vt 0.012355 0.257934
vt 0.010776 0.136623
vt 0.010776 0.257934
vt 0.012355 0.136623
vt 0.012355 0.257934
vt 0.016166 0.136623
vt 0.016166 0.257934
vt 0.019978 0.136623
vt 0.019978 0.257934
vt 0.019978 0.743174
vt 0.021556 0.621864
vt 0.019978 0.621864
vt 0.016166 0.743174
vt 0.016166 0.621864
vt 0.012355 0.743174
vt 0.012355 0.621864
vt 0.010776 0.743174
vt 0.010776 0.621864
vt 0.012355 0.743174
vt 0.012355 0.621864
vt 0.016166 0.743174
vt 0.016166 0.621864
vt 0.019978 0.743174
vt 0.019978 0.621864
vt 0.021556 0.743174
vn 0.0000 -0.7352 -0.6779
vn 0.0000 -0.7352 -0.6778
vn 0.0018 0.0139 -0.9999
vn 0.7059 0.0052 -0.7083
vn 0.0007 0.0070 -1.0000
vn 0.6982 0.0046 -0.7159
vn 1.0000 0.0011 -0.0008
vn 0.9675 0.0040 0.2528
vn 0.7061 0.0024 0.7081
vn 0.5016 0.0111 0.8650
vn -0.0006 0.0058 1.0000
vn -0.0010 0.0117 0.9999
vn -0.7061 0.0044 0.7081
vn -0.5000 0.0066 0.8660
vn -1.0000 0.0010 0.0005
vn 0.0000 0.7059 -0.7083
vn -0.9661 0.0014 0.2582
vn -0.7059 0.0030 -0.7083
vn -0.6953 0.0100 -0.7186
vn -0.7071 0.0000 -0.7071
vn -0.0000 0.0000 -1.0000
vn -1.0000 -0.0000 -0.0000
vn -0.7071 -0.0000 0.7071
vn -0.0000 -0.0000 1.0000
vn 0.7071 -0.0000 0.7071
vn 1.0000 0.0000 -0.0000
vn 0.7071 0.0000 -0.7071
vn 0.7060 -0.0027 -0.7082
vn -0.0006 -0.0062 -1.0000
vn 1.0000 -0.0009 0.0005
vn 0.7062 -0.0040 0.7080
vn 0.0005 -0.0053 1.0000
vn -0.7062 -0.0021 0.7080
vn -1.0000 -0.0010 -0.0007
vn -0.7060 -0.0047 -0.7082
vn -0.0016 -0.0125 -0.9999
vn -0.7058 -0.0042 -0.7084
vn -0.9727 -0.0034 0.2320
vn -0.5191 -0.0099 0.8546
vn 0.0009 -0.0105 0.9999
vn 0.5178 -0.0058 0.8555
vn 0.9716 -0.0013 0.2365
vn 0.7035 -0.0089 -0.7107
usemtl None.001
s off
f 1/1/1 2/2/1 3/3/1
f 1/1/1 4/4/1 2/2/1
f 2/2/1 5/5/1 3/3/1
f 3/3/2 6/6/2 7/7/2
f 7/7/1 8/8/1 3/3/1
f 8/8/1 1/1/1 3/3/1
s 1
f 9/9/3 10/10/4 11/11/5
f 12/12/6 13/13/7 10/10/4
f 14/14/8 15/15/9 13/13/7
f 16/16/10 17/17/11 15/15/9
f 18/18/12 19/19/13 17/17/11
f 20/20/14 21/21/15 19/19/13
f 16/16/16 14/14/16 22/22/16
f 22/22/17 23/23/18 21/21/15
f 24/24/19 11/11/5 23/23/18
f 68/25/20 25/26/21 26/27/20
f 70/28/22 26/27/20 27/29/22
f 71/30/23 27/29/22 28/31/23
f 72/32/24 28/31/23 29/33/24
f 30/34/25 29/33/24 31/35/25
f 32/36/26 31/35/25 33/37/26
f 34/38/27 33/37/26 35/39/27
f 69/40/21 35/39/27 25/26/21
f 36/41/21 37/42/28 38/43/29
f 39/44/27 40/45/30 37/42/28
f 41/46/26 42/47/31 40/45/30
f 43/48/25 44/49/32 42/47/31
f 45/50/24 46/51/33 44/49/32
f 47/52/23 48/53/34 46/51/33
f 49/54/22 50/55/35 48/53/34
f 51/56/20 38/43/29 50/55/35
f 52/57/20 53/58/21 54/59/20
f 55/60/22 54/59/20 56/61/22
f 57/62/23 56/61/22 58/63/23
f 59/64/24 58/63/23 60/65/24
f 61/66/25 60/65/24 62/67/25
f 63/68/26 62/67/25 64/69/26
f 65/70/27 64/69/26 66/71/27
f 67/72/21 66/71/27 53/58/21
f 25/26/21 39/44/27 36/41/21
f 35/39/27 41/46/26 39/44/27
f 33/37/26 43/48/25 41/46/26
f 31/35/25 45/50/24 43/48/25
f 29/33/24 47/52/23 45/50/24
f 28/31/23 49/54/22 47/52/23
f 27/29/22 51/56/20 49/54/22
f 26/27/20 36/41/21 51/56/20
f 53/58/21 34/38/27 69/40/21
f 66/71/27 32/36/26 34/38/27
f 64/69/26 30/34/25 32/36/26
f 62/67/25 72/32/24 30/34/25
f 60/65/24 71/30/23 72/32/24
f 58/63/23 70/28/22 71/30/23
f 56/61/22 68/25/20 70/28/22
f 54/59/20 69/40/21 68/25/20
f 50/55/35 4/4/36 1/1/37
f 48/53/34 1/1/37 8/8/38
f 46/51/33 8/8/38 7/7/39
f 44/49/32 7/7/39 6/6/40
f 42/47/31 6/6/40 3/3/41
f 40/45/30 3/3/41 5/5/42
f 37/42/28 5/5/42 2/2/43
f 38/43/29 2/2/43 4/4/36
f 23/23/18 67/72/21 52/57/20
f 21/21/15 52/57/20 55/60/22
f 19/19/13 55/60/22 57/62/23
f 17/17/11 57/62/23 59/64/24
f 15/15/9 59/64/24 61/66/25
f 13/13/7 61/66/25 63/68/26
f 10/10/4 63/68/26 65/70/27
f 11/11/5 65/70/27 67/72/21
f 9/9/3 12/12/6 10/10/4
f 12/12/6 14/14/8 13/13/7
f 14/14/8 16/16/10 15/15/9
f 16/16/10 18/18/12 17/17/11
f 18/18/12 20/20/14 19/19/13
f 20/20/14 22/22/17 21/21/15
f 14/14/16 12/12/16 22/22/16
f 12/12/16 9/9/16 22/22/16
f 9/9/16 24/24/16 22/22/16
f 22/22/16 20/20/16 18/18/16
f 18/18/16 16/16/16 22/22/16
f 22/22/17 24/24/19 23/23/18
f 24/24/19 9/9/3 11/11/5
f 68/25/20 69/40/21 25/26/21
f 70/28/22 68/25/20 26/27/20
f 71/30/23 70/28/22 27/29/22
f 72/32/24 71/30/23 28/31/23
f 30/34/25 72/32/24 29/33/24
f 32/36/26 30/34/25 31/35/25
f 34/38/27 32/36/26 33/37/26
f 69/40/21 34/38/27 35/39/27
f 36/41/21 39/44/27 37/42/28
f 39/44/27 41/46/26 40/45/30
f 41/46/26 43/48/25 42/47/31
f 43/48/25 45/50/24 44/49/32
f 45/50/24 47/52/23 46/51/33
f 47/52/23 49/54/22 48/53/34
f 49/54/22 51/56/20 50/55/35
f 51/56/20 36/41/21 38/43/29
f 52/57/20 67/72/21 53/58/21
f 55/60/22 52/57/20 54/59/20
f 57/62/23 55/60/22 56/61/22
f 59/64/24 57/62/23 58/63/23
f 61/66/25 59/64/24 60/65/24
f 63/68/26 61/66/25 62/67/25
f 65/70/27 63/68/26 64/69/26
f 67/72/21 65/70/27 66/71/27
f 25/26/21 35/39/27 39/44/27
f 35/39/27 33/37/26 41/46/26
f 33/37/26 31/35/25 43/48/25
f 31/35/25 29/33/24 45/50/24
f 29/33/24 28/31/23 47/52/23
f 28/31/23 27/29/22 49/54/22
f 27/29/22 26/27/20 51/56/20
f 26/27/20 25/26/21 36/41/21
f 53/58/21 66/71/27 34/38/27
f 66/71/27 64/69/26 32/36/26
f 64/69/26 62/67/25 30/34/25
f 62/67/25 60/65/24 72/32/24
f 60/65/24 58/63/23 71/30/23
f 58/63/23 56/61/22 70/28/22
f 56/61/22 54/59/20 68/25/20
f 54/59/20 53/58/21 69/40/21
f 50/55/35 38/43/29 4/4/36
f 48/53/34 50/55/35 1/1/37
f 46/51/33 48/53/34 8/8/38
f 44/49/32 46/51/33 7/7/39
f 42/47/31 44/49/32 6/6/40
f 40/45/30 42/47/31 3/3/41
f 37/42/28 40/45/30 5/5/42
f 38/43/29 37/42/28 2/2/43
f 23/23/18 11/11/5 67/72/21
f 21/21/15 23/23/18 52/57/20
f 19/19/13 21/21/15 55/60/22
f 17/17/11 19/19/13 57/62/23
f 15/15/9 17/17/11 59/64/24
f 13/13/7 15/15/9 61/66/25
f 10/10/4 13/13/7 63/68/26
f 11/11/5 10/10/4 65/70/27
