# Blender v2.90.1 OBJ File: 'Ice_Bow.blend'
# www.blender.org
mtllib ice_bow_string_04.mtl
o bow_string_04_bow_string_04_Cylinder.006
v -0.010675 -1.308778 0.086460
v 0.010675 -1.308778 0.086460
v 0.010675 -1.323532 0.102461
v 0.000000 -1.305722 0.083145
v 0.015097 -1.316154 0.094460
v 0.000000 -1.326587 0.105776
v -0.010675 -1.323532 0.102461
v -0.015097 -1.316154 0.094460
v 0.000000 1.304615 0.083675
v 0.010675 1.019274 0.175364
v 0.000000 1.019274 0.170857
v 0.010675 1.307808 0.086857
v 0.015097 1.019274 0.186245
v 0.015097 1.315516 0.094539
v 0.010675 1.019274 0.197127
v 0.010675 1.323225 0.102221
v 0.000000 1.019274 0.201634
v -0.000000 1.326418 0.105404
v -0.010675 1.019274 0.197127
v -0.010675 1.323225 0.102221
v -0.015097 1.019274 0.186245
v -0.015097 1.315516 0.094539
v -0.010675 1.019274 0.175364
v -0.010675 1.307808 0.086857
v 0.000000 -0.339758 0.375566
v -0.010675 -0.339758 0.380109
v -0.015097 -0.339758 0.391084
v -0.010675 -0.339758 0.402052
v 0.000000 -0.339758 0.406589
v 0.010675 -0.000000 0.513942
v 0.010675 -0.339758 0.402052
v 0.015097 -0.339758 0.391084
v 0.010675 -0.000000 0.492432
v 0.010675 -0.339758 0.380109
v 0.000000 -0.679516 0.263353
v 0.010675 -1.019274 0.175364
v 0.000000 -1.019274 0.170857
v 0.010675 -0.679516 0.267884
v 0.015097 -1.019274 0.186245
v 0.015097 -0.679516 0.278825
v 0.010675 -1.019274 0.197126
v 0.010675 -0.679516 0.289767
v 0.000000 -1.019274 0.201634
v 0.000000 -0.679516 0.294300
v -0.010675 -1.019274 0.197126
v -0.010675 -0.679516 0.289767
v -0.015097 -1.019274 0.186245
v -0.015097 -0.679516 0.278825
v -0.010675 -1.019274 0.175364
v -0.010675 -0.679516 0.267884
v -0.010675 0.679516 0.267885
v 0.000000 0.339758 0.375566
v -0.010675 0.339758 0.380109
v -0.015097 0.679516 0.278826
v -0.015097 0.339758 0.391084
v -0.010675 0.679516 0.289767
v -0.010675 0.339758 0.402052
v 0.000000 0.679516 0.294300
v 0.000000 0.339758 0.406589
v 0.010675 0.679516 0.289767
v 0.010675 0.339758 0.402052
v 0.015097 0.679516 0.278826
v 0.015097 0.339758 0.391084
v 0.010675 0.679516 0.267885
v 0.010675 0.339758 0.380109
v 0.000000 0.679516 0.263353
v -0.010675 -0.000000 0.513942
v 0.015097 -0.000000 0.503188
v -0.010675 -0.000000 0.492432
v 0.000000 -0.000000 0.487977
v -0.015097 -0.000000 0.503188
v 0.000000 -0.000000 0.518398
vt 0.019978 0.015313
vt 0.019978 0.015313
vt 0.012355 0.015313
vt 0.021556 0.015313
vt 0.016166 0.015313
vt 0.010776 0.015313
vt 0.012355 0.015313
vt 0.016166 0.015313
vt 0.021556 0.985794
vt 0.019978 0.864484
vt 0.021556 0.864484
vt 0.019978 0.985795
vt 0.016166 0.864484
vt 0.016166 0.985795
vt 0.012355 0.864484
vt 0.012355 0.985795
vt 0.010776 0.864484
vt 0.010776 0.985795
vt 0.012355 0.864484
vt 0.012355 0.985795
vt 0.016166 0.864484
vt 0.016166 0.985795
vt 0.019978 0.864484
vt 0.019978 0.985795
vt 0.019978 0.500554
vt 0.021556 0.379244
vt 0.019978 0.379244
vt 0.016166 0.500554
vt 0.016166 0.379244
vt 0.012355 0.500554
vt 0.012355 0.379244
vt 0.010776 0.500554
vt 0.010776 0.379244
vt 0.012355 0.500554
vt 0.012355 0.379244
vt 0.016166 0.500554
vt 0.016166 0.379244
vt 0.019978 0.500554
vt 0.019978 0.379244
vt 0.021556 0.500554
vt 0.021556 0.257934
vt 0.019978 0.136623
vt 0.021556 0.136623
vt 0.019978 0.257934
vt 0.016166 0.136623
vt 0.016166 0.257934
vt 0.012355 0.136623
vt 0.012355 0.257934
vt 0.010776 0.136623
vt 0.010776 0.257934
vt 0.012355 0.136623
vt 0.012355 0.257934
vt 0.016166 0.136623
vt 0.016166 0.257934
vt 0.019978 0.136623
vt 0.019978 0.257934
vt 0.019978 0.743174
vt 0.021556 0.621864
vt 0.019978 0.621864
vt 0.016166 0.743174
vt 0.016166 0.621864
vt 0.012355 0.743174
vt 0.012355 0.621864
vt 0.010776 0.743174
vt 0.010776 0.621864
vt 0.012355 0.743174
vt 0.012355 0.621864
vt 0.016166 0.743174
vt 0.016166 0.621864
vt 0.019978 0.743174
vt 0.019978 0.621864
vt 0.021556 0.743174
vn 0.0000 -0.7352 -0.6779
vn 0.0004 -0.2927 -0.9562
vn 0.7036 -0.1974 -0.6826
vn 0.0002 -0.2788 -0.9604
vn 0.7348 -0.1996 -0.6483
vn 1.0000 0.0026 0.0038
vn 0.9916 0.0389 0.1234
vn 0.6994 0.2004 0.6860
vn 0.6128 0.2361 0.7542
vn -0.0001 0.2796 0.9601
vn -0.0002 0.2985 0.9544
vn -0.6994 0.2008 0.6860
vn -0.6126 0.2352 0.7546
vn -1.0000 0.0028 0.0042
vn -0.0000 0.7059 -0.7083
vn -0.9915 0.0389 0.1243
vn -0.7035 -0.1979 -0.6826
vn -0.7345 -0.1986 -0.6489
vn -0.7496 0.0001 -0.6619
vn 0.0000 0.3138 -0.9495
vn -0.7009 0.2237 -0.6772
vn -0.9971 -0.0000 0.0768
vn -1.0000 -0.0000 0.0002
vn -0.6726 -0.0001 0.7400
vn -0.7007 -0.2235 0.6776
vn -0.0000 -0.0000 1.0000
vn -0.0000 -0.3132 0.9497
vn 0.6726 0.0001 0.7400
vn 0.7007 -0.2236 0.6775
vn 0.9971 0.0000 0.0768
vn 1.0000 0.0000 0.0001
vn 0.7496 -0.0001 -0.6619
vn 0.7009 0.2239 -0.6772
vn -0.0000 -0.0000 -1.0000
vn -0.0000 0.2865 -0.9581
vn 0.7036 0.1979 -0.6825
vn -0.0002 0.2790 -0.9603
vn 0.6992 0.2062 -0.6845
vn 1.0000 -0.0027 0.0041
vn 1.0000 0.0039 -0.0062
vn 0.6995 -0.2004 0.6860
vn 0.7055 -0.2045 0.6785
vn 0.0001 -0.2791 0.9603
vn 0.0000 -0.2904 0.9569
vn -0.6995 -0.2001 0.6860
vn -0.7055 -0.2045 0.6785
vn -1.0000 -0.0025 0.0038
vn -1.0000 0.0039 -0.0062
vn -0.7036 0.1975 -0.6826
vn -0.6993 0.2061 -0.6845
vn -0.6992 -0.2062 -0.6845
vn -0.0000 -0.3138 -0.9495
vn -0.7009 -0.2239 -0.6772
vn -1.0000 -0.0039 -0.0062
vn -1.0000 -0.0000 0.0001
vn -0.7055 0.2045 0.6785
vn -0.7007 0.2236 0.6775
vn -0.0000 0.2904 0.9569
vn 0.0000 0.3132 0.9497
vn 0.7055 0.2045 0.6785
vn 0.7007 0.2235 0.6776
vn 1.0000 -0.0039 -0.0062
vn 1.0000 0.0000 0.0002
vn 0.6993 -0.2061 -0.6845
vn 0.7009 -0.2237 -0.6772
vn 0.0000 -0.2865 -0.9581
vn -0.0003 0.2932 -0.9561
vn -0.7358 0.1993 -0.6472
vn -0.9932 -0.0348 0.1110
vn -0.6247 -0.2324 0.7455
vn 0.0002 -0.2974 0.9547
vn 0.6245 -0.2317 0.7458
vn 0.9931 -0.0348 0.1115
vn 0.7356 0.1985 -0.6476
usemtl None.004
s off
f 1/1/1 2/2/1 3/3/1
f 1/1/1 4/4/1 2/2/1
f 2/2/1 5/5/1 3/3/1
f 3/3/1 6/6/1 7/7/1
f 7/7/1 8/8/1 3/3/1
f 8/8/1 1/1/1 3/3/1
s 1
f 9/9/2 10/10/3 11/11/4
f 12/12/5 13/13/6 10/10/3
f 14/14/7 15/15/8 13/13/6
f 16/16/9 17/17/10 15/15/8
f 18/18/11 19/19/12 17/17/10
f 20/20/13 21/21/14 19/19/12
f 16/16/15 14/14/15 22/22/15
f 22/22/16 23/23/17 21/21/14
f 24/24/18 11/11/4 23/23/17
f 69/25/19 25/26/20 26/27/21
f 71/28/22 26/27/21 27/29/23
f 67/30/24 27/29/23 28/31/25
f 72/32/26 28/31/25 29/33/27
f 30/34/28 29/33/27 31/35/29
f 68/36/30 31/35/29 32/37/31
f 33/38/32 32/37/31 34/39/33
f 70/40/34 34/39/33 25/26/20
f 35/41/35 36/42/36 37/43/37
f 38/44/38 39/45/39 36/42/36
f 40/46/40 41/47/41 39/45/39
f 42/48/42 43/49/43 41/47/41
f 44/50/44 45/51/45 43/49/43
f 46/52/46 47/53/47 45/51/45
f 48/54/48 49/55/49 47/53/47
f 50/56/50 37/43/37 49/55/49
f 51/57/51 52/58/52 53/59/53
f 54/60/54 53/59/53 55/61/55
f 56/62/56 55/61/55 57/63/57
f 58/64/58 57/63/57 59/65/59
f 60/66/60 59/65/59 61/67/61
f 62/68/62 61/67/61 63/69/63
f 64/70/64 63/69/63 65/71/65
f 66/72/66 65/71/65 52/58/52
f 25/26/20 38/44/38 35/41/35
f 34/39/33 40/46/40 38/44/38
f 32/37/31 42/48/42 40/46/40
f 31/35/29 44/50/44 42/48/42
f 29/33/27 46/52/46 44/50/44
f 28/31/25 48/54/48 46/52/46
f 27/29/23 50/56/50 48/54/48
f 26/27/21 35/41/35 50/56/50
f 52/58/52 33/38/32 70/40/34
f 65/71/65 68/36/30 33/38/32
f 63/69/63 30/34/28 68/36/30
f 61/67/61 72/32/26 30/34/28
f 59/65/59 67/30/24 72/32/26
f 57/63/57 71/28/22 67/30/24
f 55/61/55 69/25/19 71/28/22
f 53/59/53 70/40/34 69/25/19
f 49/55/49 4/4/67 1/1/68
f 47/53/47 1/1/68 8/8/69
f 45/51/45 8/8/69 7/7/70
f 43/49/43 7/7/70 6/6/71
f 41/47/41 6/6/71 3/3/72
f 39/45/39 3/3/72 5/5/73
f 36/42/36 5/5/73 2/2/74
f 37/43/37 2/2/74 4/4/67
f 23/23/17 66/72/66 51/57/51
f 21/21/14 51/57/51 54/60/54
f 19/19/12 54/60/54 56/62/56
f 17/17/10 56/62/56 58/64/58
f 15/15/8 58/64/58 60/66/60
f 13/13/6 60/66/60 62/68/62
f 10/10/3 62/68/62 64/70/64
f 11/11/4 64/70/64 66/72/66
f 9/9/2 12/12/5 10/10/3
f 12/12/5 14/14/7 13/13/6
f 14/14/7 16/16/9 15/15/8
f 16/16/9 18/18/11 17/17/10
f 18/18/11 20/20/13 19/19/12
f 20/20/13 22/22/16 21/21/14
f 14/14/15 12/12/15 22/22/15
f 12/12/15 9/9/15 22/22/15
f 9/9/15 24/24/15 22/22/15
f 22/22/15 20/20/15 18/18/15
f 18/18/15 16/16/15 22/22/15
f 22/22/16 24/24/18 23/23/17
f 24/24/18 9/9/2 11/11/4
f 69/25/19 70/40/34 25/26/20
f 71/28/22 69/25/19 26/27/21
f 67/30/24 71/28/22 27/29/23
f 72/32/26 67/30/24 28/31/25
f 30/34/28 72/32/26 29/33/27
f 68/36/30 30/34/28 31/35/29
f 33/38/32 68/36/30 32/37/31
f 70/40/34 33/38/32 34/39/33
f 35/41/35 38/44/38 36/42/36
f 38/44/38 40/46/40 39/45/39
f 40/46/40 42/48/42 41/47/41
f 42/48/42 44/50/44 43/49/43
f 44/50/44 46/52/46 45/51/45
f 46/52/46 48/54/48 47/53/47
f 48/54/48 50/56/50 49/55/49
f 50/56/50 35/41/35 37/43/37
f 51/57/51 66/72/66 52/58/52
f 54/60/54 51/57/51 53/59/53
f 56/62/56 54/60/54 55/61/55
f 58/64/58 56/62/56 57/63/57
f 60/66/60 58/64/58 59/65/59
f 62/68/62 60/66/60 61/67/61
f 64/70/64 62/68/62 63/69/63
f 66/72/66 64/70/64 65/71/65
f 25/26/20 34/39/33 38/44/38
f 34/39/33 32/37/31 40/46/40
f 32/37/31 31/35/29 42/48/42
f 31/35/29 29/33/27 44/50/44
f 29/33/27 28/31/25 46/52/46
f 28/31/25 27/29/23 48/54/48
f 27/29/23 26/27/21 50/56/50
f 26/27/21 25/26/20 35/41/35
f 52/58/52 65/71/65 33/38/32
f 65/71/65 63/69/63 68/36/30
f 63/69/63 61/67/61 30/34/28
f 61/67/61 59/65/59 72/32/26
f 59/65/59 57/63/57 67/30/24
f 57/63/57 55/61/55 71/28/22
f 55/61/55 53/59/53 69/25/19
f 53/59/53 52/58/52 70/40/34
f 49/55/49 37/43/37 4/4/67
f 47/53/47 49/55/49 1/1/68
f 45/51/45 47/53/47 8/8/69
f 43/49/43 45/51/45 7/7/70
f 41/47/41 43/49/43 6/6/71
f 39/45/39 41/47/41 3/3/72
f 36/42/36 39/45/39 5/5/73
f 37/43/37 36/42/36 2/2/74
f 23/23/17 11/11/4 66/72/66
f 21/21/14 23/23/17 51/57/51
f 19/19/12 21/21/14 54/60/54
f 17/17/10 19/19/12 56/62/56
f 15/15/8 17/17/10 58/64/58
f 13/13/6 15/15/8 60/66/60
f 10/10/3 13/13/6 62/68/62
f 11/11/4 10/10/3 64/70/64
