# Blender v2.90.1 OBJ File: 'Ice_Bow.blend'
# www.blender.org
mtllib ice_bow_string_03.mtl
o bow_string_03_bow_string_03_Cylinder.005
v -0.010675 -1.312212 0.090185
v 0.010675 -1.312212 0.090185
v 0.010675 -1.326760 0.105963
v 0.000000 -1.309200 0.086917
v 0.015097 -1.319486 0.098074
v 0.000000 -1.329773 0.109231
v -0.010675 -1.326760 0.105963
v -0.015097 -1.319486 0.098074
v 0.000000 1.308249 0.087296
v 0.010675 1.019274 0.145938
v 0.000000 1.019274 0.141494
v 0.010675 1.311397 0.090434
v 0.015097 1.019274 0.156668
v 0.015097 1.318998 0.098009
v 0.010675 1.019274 0.167399
v 0.010675 1.326599 0.105584
v 0.000000 1.019274 0.171844
v -0.000000 1.329747 0.108721
v -0.010675 1.019274 0.167399
v -0.010675 1.326599 0.105584
v -0.015097 1.019274 0.156668
v -0.015097 1.318998 0.098009
v -0.010675 1.019274 0.145938
v -0.010675 1.311397 0.090434
v 0.000000 -0.339758 0.266833
v -0.010675 -0.339758 0.271283
v -0.015097 -0.339758 0.282030
v -0.010675 -0.339758 0.292772
v 0.000000 -0.339758 0.297216
v 0.010675 -0.000000 0.360046
v 0.010675 -0.339758 0.292772
v 0.015097 -0.339758 0.282030
v 0.010675 -0.000000 0.338649
v 0.010675 -0.339758 0.271283
v 0.000000 -0.679516 0.199496
v 0.010675 -1.019274 0.145938
v 0.000000 -1.019274 0.141493
v 0.010675 -0.679516 0.203945
v 0.015097 -1.019274 0.156668
v 0.015097 -0.679516 0.214689
v 0.010675 -1.019274 0.167399
v 0.010675 -0.679516 0.225432
v 0.000000 -1.019274 0.171844
v 0.000000 -0.679516 0.229883
v -0.010675 -1.019274 0.167399
v -0.010675 -0.679516 0.225432
v -0.015097 -1.019274 0.156668
v -0.015097 -0.679516 0.214689
v -0.010675 -1.019274 0.145938
v -0.010675 -0.679516 0.203945
v -0.010675 0.679516 0.203945
v 0.000000 0.339758 0.266833
v -0.010675 0.339758 0.271283
v -0.015097 0.679516 0.214689
v -0.015097 0.339758 0.282031
v -0.010675 0.679516 0.225433
v -0.010675 0.339758 0.292772
v 0.000000 0.679516 0.229883
v 0.000000 0.339758 0.297216
v 0.010675 0.679516 0.225433
v 0.010675 0.339758 0.292772
v 0.015097 0.679516 0.214689
v 0.015097 0.339758 0.282031
v 0.010675 0.679516 0.203945
v 0.010675 0.339758 0.271283
v 0.000000 0.679516 0.199496
v -0.010675 -0.000000 0.360046
v 0.015097 -0.000000 0.349348
v -0.010675 -0.000000 0.338649
v 0.000000 -0.000000 0.334218
v -0.015097 -0.000000 0.349348
v 0.000000 -0.000000 0.364478
vt 0.019978 0.015313
vt 0.019978 0.015313
vt 0.012355 0.015313
vt 0.021556 0.015313
vt 0.016166 0.015313
vt 0.010776 0.015313
vt 0.012355 0.015313
vt 0.016166 0.015313
vt 0.021556 0.985794
vt 0.019978 0.864484
vt 0.021556 0.864484
vt 0.019978 0.985795
vt 0.016166 0.864484
vt 0.016166 0.985795
vt 0.012355 0.864484
vt 0.012355 0.985795
vt 0.010776 0.864484
vt 0.010776 0.985795
vt 0.012355 0.864484
vt 0.012355 0.985795
vt 0.016166 0.864484
vt 0.016166 0.985795
vt 0.019978 0.864484
vt 0.019978 0.985795
vt 0.019978 0.500554
vt 0.021556 0.379244
vt 0.019978 0.379244
vt 0.016166 0.500554
vt 0.016166 0.379244
vt 0.012355 0.500554
vt 0.012355 0.379244
vt 0.010776 0.500554
vt 0.010776 0.379244
vt 0.012355 0.500554
vt 0.012355 0.379244
vt 0.016166 0.500554
vt 0.016166 0.379244
vt 0.019978 0.500554
vt 0.019978 0.379244
vt 0.021556 0.500554
vt 0.021556 0.257934
vt 0.019978 0.136623
vt 0.021556 0.136623
vt 0.019978 0.257934
vt 0.016166 0.136623
vt 0.016166 0.257934
vt 0.012355 0.136623
vt 0.012355 0.257934
vt 0.010776 0.136623
vt 0.010776 0.257934
vt 0.012355 0.136623
vt 0.012355 0.257934
vt 0.016166 0.136623
vt 0.016166 0.257934
vt 0.019978 0.136623
vt 0.019978 0.257934
vt 0.019978 0.743174
vt 0.021556 0.621864
vt 0.019978 0.621864
vt 0.016166 0.743174
vt 0.016166 0.621864
vt 0.012355 0.743174
vt 0.012355 0.621864
vt 0.010776 0.743174
vt 0.010776 0.621864
vt 0.012355 0.743174
vt 0.012355 0.621864
vt 0.016166 0.743174
vt 0.016166 0.621864
vt 0.019978 0.743174
vt 0.019978 0.621864
vt 0.021556 0.743174
vn 0.0000 -0.7352 -0.6779
vn 0.0000 -0.7352 -0.6778
vn 0.0009 -0.1855 -0.9826
vn 0.7053 -0.1253 -0.6978
vn 0.0004 -0.1773 -0.9842
vn 0.7252 -0.1301 -0.6761
vn 1.0000 0.0015 0.0025
vn 0.9858 0.0339 0.1644
vn 0.7022 0.1297 0.7001
vn 0.5761 0.1625 0.8011
vn -0.0003 0.1827 0.9832
vn -0.0005 0.1982 0.9802
vn -0.7021 0.1307 0.6999
vn -0.5755 0.1604 0.8019
vn -1.0000 0.0018 0.0032
vn -0.0000 0.7059 -0.7083
vn -0.9855 0.0335 0.1665
vn -0.7052 -0.1265 -0.6976
vn -0.7244 -0.1278 -0.6775
vn -0.7322 0.0000 -0.6811
vn 0.0000 0.1945 -0.9809
vn -0.7039 0.1381 -0.6967
vn -0.9989 -0.0000 0.0475
vn -1.0000 -0.0000 0.0001
vn -0.6847 -0.0000 0.7288
vn -0.7037 -0.1381 0.6970
vn -0.0000 -0.0000 1.0000
vn -0.0000 -0.1943 0.9809
vn 0.6847 0.0000 0.7288
vn 0.7037 -0.1381 0.6970
vn 0.9989 0.0000 0.0475
vn 1.0000 -0.0000 0.0001
vn 0.7322 -0.0000 -0.6811
vn 0.7039 0.1381 -0.6967
vn 0.0000 0.0000 -1.0000
vn -0.0000 0.1808 -0.9835
vn 0.7053 0.1265 -0.6976
vn -0.0003 0.1775 -0.9841
vn 0.7029 0.1290 -0.6995
vn 1.0000 -0.0016 0.0031
vn 1.0000 0.0012 -0.0032
vn 0.7023 -0.1301 0.6999
vn 0.7061 -0.1285 0.6964
vn 0.0002 -0.1820 0.9833
vn -0.0000 -0.1820 0.9833
vn -0.7023 -0.1293 0.7000
vn -0.7061 -0.1285 0.6964
vn -1.0000 -0.0014 0.0025
vn -1.0000 0.0012 -0.0032
vn -0.7053 0.1255 -0.6977
vn -0.7029 0.1290 -0.6995
vn -0.7029 -0.1290 -0.6995
vn -0.0000 -0.1945 -0.9809
vn -0.7039 -0.1381 -0.6967
vn -1.0000 -0.0012 -0.0032
vn -0.7061 0.1285 0.6964
vn -0.7037 0.1381 0.6970
vn 0.0000 0.1820 0.9833
vn 0.0000 0.1943 0.9809
vn 0.7061 0.1285 0.6964
vn 0.7037 0.1381 0.6970
vn 1.0000 -0.0012 -0.0032
vn 0.7029 -0.1290 -0.6995
vn 0.7039 -0.1381 -0.6967
vn 0.0000 -0.1808 -0.9835
vn -0.0007 0.1860 -0.9826
vn -0.7281 0.1294 -0.6731
vn -0.9883 -0.0306 0.1497
vn -0.5897 -0.1593 0.7917
vn 0.0004 -0.1968 0.9804
vn 0.5893 -0.1576 0.7924
vn 0.9880 -0.0303 0.1514
vn 0.7275 0.1275 -0.6742
usemtl None.003
s off
f 1/1/1 2/2/1 3/3/1
f 1/1/2 4/4/2 2/2/2
f 2/2/1 5/5/1 3/3/1
f 3/3/1 6/6/1 7/7/1
f 7/7/2 8/8/2 3/3/2
f 8/8/1 1/1/1 3/3/1
s 1
f 9/9/3 10/10/4 11/11/5
f 12/12/6 13/13/7 10/10/4
f 14/14/8 15/15/9 13/13/7
f 16/16/10 17/17/11 15/15/9
f 18/18/12 19/19/13 17/17/11
f 20/20/14 21/21/15 19/19/13
f 16/16/16 14/14/16 22/22/16
f 22/22/17 23/23/18 21/21/15
f 24/24/19 11/11/5 23/23/18
f 69/25/20 25/26/21 26/27/22
f 71/28/23 26/27/22 27/29/24
f 67/30/25 27/29/24 28/31/26
f 72/32/27 28/31/26 29/33/28
f 30/34/29 29/33/28 31/35/30
f 68/36/31 31/35/30 32/37/32
f 33/38/33 32/37/32 34/39/34
f 70/40/35 34/39/34 25/26/21
f 35/41/36 36/42/37 37/43/38
f 38/44/39 39/45/40 36/42/37
f 40/46/41 41/47/42 39/45/40
f 42/48/43 43/49/44 41/47/42
f 44/50/45 45/51/46 43/49/44
f 46/52/47 47/53/48 45/51/46
f 48/54/49 49/55/50 47/53/48
f 50/56/51 37/43/38 49/55/50
f 51/57/52 52/58/53 53/59/54
f 54/60/55 53/59/54 55/61/24
f 56/62/56 55/61/24 57/63/57
f 58/64/58 57/63/57 59/65/59
f 60/66/60 59/65/59 61/67/61
f 62/68/62 61/67/61 63/69/32
f 64/70/63 63/69/32 65/71/64
f 66/72/65 65/71/64 52/58/53
f 25/26/21 38/44/39 35/41/36
f 34/39/34 40/46/41 38/44/39
f 32/37/32 42/48/43 40/46/41
f 31/35/30 44/50/45 42/48/43
f 29/33/28 46/52/47 44/50/45
f 28/31/26 48/54/49 46/52/47
f 27/29/24 50/56/51 48/54/49
f 26/27/22 35/41/36 50/56/51
f 52/58/53 33/38/33 70/40/35
f 65/71/64 68/36/31 33/38/33
f 63/69/32 30/34/29 68/36/31
f 61/67/61 72/32/27 30/34/29
f 59/65/59 67/30/25 72/32/27
f 57/63/57 71/28/23 67/30/25
f 55/61/24 69/25/20 71/28/23
f 53/59/54 70/40/35 69/25/20
f 49/55/50 4/4/66 1/1/67
f 47/53/48 1/1/67 8/8/68
f 45/51/46 8/8/68 7/7/69
f 43/49/44 7/7/69 6/6/70
f 41/47/42 6/6/70 3/3/71
f 39/45/40 3/3/71 5/5/72
f 36/42/37 5/5/72 2/2/73
f 37/43/38 2/2/73 4/4/66
f 23/23/18 66/72/65 51/57/52
f 21/21/15 51/57/52 54/60/55
f 19/19/13 54/60/55 56/62/56
f 17/17/11 56/62/56 58/64/58
f 15/15/9 58/64/58 60/66/60
f 13/13/7 60/66/60 62/68/62
f 10/10/4 62/68/62 64/70/63
f 11/11/5 64/70/63 66/72/65
f 9/9/3 12/12/6 10/10/4
f 12/12/6 14/14/8 13/13/7
f 14/14/8 16/16/10 15/15/9
f 16/16/10 18/18/12 17/17/11
f 18/18/12 20/20/14 19/19/13
f 20/20/14 22/22/17 21/21/15
f 14/14/16 12/12/16 22/22/16
f 12/12/16 9/9/16 22/22/16
f 9/9/16 24/24/16 22/22/16
f 22/22/16 20/20/16 18/18/16
f 18/18/16 16/16/16 22/22/16
f 22/22/17 24/24/19 23/23/18
f 24/24/19 9/9/3 11/11/5
f 69/25/20 70/40/35 25/26/21
f 71/28/23 69/25/20 26/27/22
f 67/30/25 71/28/23 27/29/24
f 72/32/27 67/30/25 28/31/26
f 30/34/29 72/32/27 29/33/28
f 68/36/31 30/34/29 31/35/30
f 33/38/33 68/36/31 32/37/32
f 70/40/35 33/38/33 34/39/34
f 35/41/36 38/44/39 36/42/37
f 38/44/39 40/46/41 39/45/40
f 40/46/41 42/48/43 41/47/42
f 42/48/43 44/50/45 43/49/44
f 44/50/45 46/52/47 45/51/46
f 46/52/47 48/54/49 47/53/48
f 48/54/49 50/56/51 49/55/50
f 50/56/51 35/41/36 37/43/38
f 51/57/52 66/72/65 52/58/53
f 54/60/55 51/57/52 53/59/54
f 56/62/56 54/60/55 55/61/24
f 58/64/58 56/62/56 57/63/57
f 60/66/60 58/64/58 59/65/59
f 62/68/62 60/66/60 61/67/61
f 64/70/63 62/68/62 63/69/32
f 66/72/65 64/70/63 65/71/64
f 25/26/21 34/39/34 38/44/39
f 34/39/34 32/37/32 40/46/41
f 32/37/32 31/35/30 42/48/43
f 31/35/30 29/33/28 44/50/45
f 29/33/28 28/31/26 46/52/47
f 28/31/26 27/29/24 48/54/49
f 27/29/24 26/27/22 50/56/51
f 26/27/22 25/26/21 35/41/36
f 52/58/53 65/71/64 33/38/33
f 65/71/64 63/69/32 68/36/31
f 63/69/32 61/67/61 30/34/29
f 61/67/61 59/65/59 72/32/27
f 59/65/59 57/63/57 67/30/25
f 57/63/57 55/61/24 71/28/23
f 55/61/24 53/59/54 69/25/20
f 53/59/54 52/58/53 70/40/35
f 49/55/50 37/43/38 4/4/66
f 47/53/48 49/55/50 1/1/67
f 45/51/46 47/53/48 8/8/68
f 43/49/44 45/51/46 7/7/69
f 41/47/42 43/49/44 6/6/70
f 39/45/40 41/47/42 3/3/71
f 36/42/37 39/45/40 5/5/72
f 37/43/38 36/42/37 2/2/73
f 23/23/18 11/11/5 66/72/65
f 21/21/15 23/23/18 51/57/52
f 19/19/13 21/21/15 54/60/55
f 17/17/11 19/19/13 56/62/56
f 15/15/9 17/17/11 58/64/58
f 13/13/7 15/15/9 60/66/60
f 10/10/4 13/13/7 62/68/62
f 11/11/5 10/10/4 64/70/63
