# Blender v2.82 (sub 7) OBJ File: 'dragon_bow.blend'
# www.blender.org
mtllib dragon_shoot_03.mtl
o bow_string_03_bow_string.006
v -0.001399 1.488850 0.073844
v 0.001399 1.488850 0.073844
v 0.002799 1.488850 0.076283
v 0.001399 1.488850 0.078722
v -0.001399 1.488850 0.078722
v -0.002799 1.488850 0.076283
v -0.003750 1.377178 0.083593
v 0.003750 1.377178 0.083593
v 0.007500 1.377178 0.090131
v 0.003750 1.377178 0.096666
v -0.003750 1.377178 0.096666
v -0.007500 1.377178 0.090131
v -0.005000 1.260306 0.102881
v 0.005000 1.260306 0.102881
v 0.010000 1.260306 0.111578
v 0.005000 1.260306 0.120271
v -0.005000 1.260306 0.120271
v -0.010000 1.260306 0.111578
v -0.005000 1.124043 0.132608
v 0.005000 1.124043 0.132608
v 0.010000 1.124043 0.141266
v 0.005000 1.124043 0.149919
v -0.005000 1.124043 0.149919
v -0.010000 1.124043 0.141266
v -0.005000 0.974297 0.167695
v 0.005000 0.974297 0.167695
v 0.010000 0.974297 0.176296
v 0.005000 0.974297 0.184892
v -0.005000 0.974297 0.184892
v -0.010000 0.974297 0.176296
v -0.005000 0.816977 0.203153
v 0.005000 0.816977 0.203153
v 0.010000 0.816977 0.211685
v 0.005000 0.816977 0.220212
v -0.005000 0.816977 0.220212
v -0.010000 0.816977 0.211685
v -0.005000 0.657993 0.233975
v 0.005000 0.657993 0.233975
v 0.010000 0.657993 0.242456
v 0.005000 0.657993 0.250933
v -0.005000 0.657993 0.250933
v -0.010000 0.657993 0.242456
v -0.005000 0.503251 0.257414
v 0.005000 0.503251 0.257414
v 0.010000 0.503251 0.265860
v 0.005000 0.503251 0.274302
v -0.005000 0.503251 0.274302
v -0.010000 0.503251 0.265860
v -0.005000 0.358662 0.277148
v 0.005000 0.358662 0.277148
v 0.010000 0.358662 0.285573
v 0.005000 0.358662 0.294004
v -0.005000 0.358662 0.294004
v -0.010000 0.358662 0.285573
v -0.005000 0.230134 0.293606
v 0.005000 0.230134 0.293606
v 0.010000 0.230134 0.302041
v 0.005000 0.230134 0.310485
v -0.005000 0.230134 0.310485
v -0.010000 0.230134 0.302041
v -0.005000 0.123575 0.304976
v 0.005000 0.123575 0.304976
v 0.010000 0.123575 0.313489
v 0.005000 0.123575 0.322048
v -0.005000 0.123575 0.322048
v -0.010000 0.123575 0.313489
v -0.005000 0.044894 0.311185
v 0.005000 0.044894 0.311185
v 0.010000 0.044894 0.319845
v 0.005000 0.044894 0.328494
v -0.005000 0.044894 0.328494
v -0.010000 0.044894 0.319845
v -0.005000 -0.000000 0.313770
v 0.005000 -0.000000 0.313770
v 0.010000 -0.000000 0.322431
v 0.005000 0.000000 0.331091
v -0.005000 0.000000 0.331091
v -0.010000 -0.000000 0.322431
v -0.005000 -0.045211 0.311165
v 0.005000 -0.045211 0.311165
v 0.010000 -0.045211 0.319825
v 0.005000 -0.045211 0.328473
v -0.005000 -0.045211 0.328473
v -0.010000 -0.045211 0.319825
v -0.005000 -0.124805 0.304862
v 0.005000 -0.124805 0.304862
v 0.010000 -0.124805 0.313374
v 0.005000 -0.124805 0.321930
v -0.005000 -0.124805 0.321930
v -0.010000 -0.124805 0.313374
v -0.005000 -0.232819 0.293286
v 0.005000 -0.232819 0.293286
v 0.010000 -0.232819 0.301720
v 0.005000 -0.232819 0.310163
v -0.005000 -0.232819 0.310163
v -0.010000 -0.232819 0.301720
v -0.005000 -0.363292 0.276526
v 0.005000 -0.363292 0.276526
v 0.010000 -0.363292 0.284951
v 0.005000 -0.363292 0.293382
v -0.005000 -0.363292 0.293382
v -0.010000 -0.363292 0.284951
v -0.005000 -0.510259 0.256424
v 0.005000 -0.510259 0.256424
v 0.010000 -0.510259 0.264870
v 0.005000 -0.510259 0.273314
v -0.005000 -0.510259 0.273314
v -0.010000 -0.510259 0.264870
v -0.005000 -0.667758 0.232275
v 0.005000 -0.667758 0.232275
v 0.010000 -0.667758 0.240759
v 0.005000 -0.667758 0.249239
v -0.005000 -0.667758 0.249239
v -0.010000 -0.667758 0.240759
v -0.005000 -0.829826 0.200414
v 0.005000 -0.829826 0.200414
v 0.010000 -0.829826 0.208952
v 0.005000 -0.829826 0.217485
v -0.005000 -0.829826 0.217485
v -0.010000 -0.829826 0.208952
v -0.005000 -0.990500 0.163889
v 0.005000 -0.990500 0.163889
v 0.010000 -0.990500 0.172498
v 0.005000 -0.990500 0.181100
v -0.005000 -0.990500 0.181100
v -0.010000 -0.990500 0.172498
v -0.005000 -1.143818 0.128087
v 0.005000 -1.143818 0.128087
v 0.010000 -1.143818 0.136752
v 0.005000 -1.143818 0.145412
v -0.005000 -1.143818 0.145412
v -0.010000 -1.143818 0.136752
v -0.005000 -1.283816 0.098193
v 0.005000 -1.283816 0.098193
v 0.010000 -1.283816 0.106896
v 0.005000 -1.283816 0.115594
v -0.005000 -1.283816 0.115594
v -0.010000 -1.283816 0.106896
v -0.003750 -1.404531 0.079388
v 0.003750 -1.404531 0.079388
v 0.007500 -1.404531 0.085925
v 0.003750 -1.404531 0.092461
v -0.003750 -1.404531 0.092461
v -0.007500 -1.404531 0.085925
v -0.001330 -1.492640 0.073753
v 0.001330 -1.492640 0.073753
v 0.002661 -1.492640 0.076069
v 0.001330 -1.492640 0.078384
v -0.001330 -1.492640 0.078384
v -0.002661 -1.492640 0.076069
vt 0.980257 0.487553
vt 0.976100 0.502205
vt 0.978871 0.502205
vt 0.980257 0.487553
vt 0.978871 0.502205
vt 0.976100 0.502205
vt 0.973329 0.502205
vt 0.976100 0.487553
vt 0.971943 0.487553
vt 0.973329 0.502205
vt 0.976100 0.487553
vt 0.981643 0.468854
vt 0.981643 0.468854
vt 0.971943 0.487553
vt 0.976100 0.468854
vt 0.970557 0.468854
vt 0.976100 0.468854
vt 0.981643 0.447051
vt 0.981643 0.447051
vt 0.970557 0.468854
vt 0.976100 0.447051
vt 0.970557 0.447051
vt 0.976100 0.447051
vt 0.981643 0.423092
vt 0.981643 0.423092
vt 0.970557 0.447051
vt 0.976100 0.423092
vt 0.970557 0.423092
vt 0.976100 0.423092
vt 0.981643 0.397921
vt 0.981643 0.397921
vt 0.970557 0.423092
vt 0.976100 0.397921
vt 0.970557 0.397921
vt 0.976100 0.397921
vt 0.981643 0.372483
vt 0.981643 0.372483
vt 0.970557 0.397921
vt 0.976100 0.372483
vt 0.970557 0.372483
vt 0.976100 0.372483
vt 0.981643 0.347725
vt 0.981643 0.347725
vt 0.970557 0.372483
vt 0.976100 0.347725
vt 0.970557 0.347725
vt 0.976100 0.347725
vt 0.981643 0.324591
vt 0.981643 0.324591
vt 0.970557 0.347725
vt 0.976100 0.324591
vt 0.970557 0.324591
vt 0.976100 0.324591
vt 0.981643 0.304026
vt 0.981643 0.304026
vt 0.970557 0.324591
vt 0.976100 0.304026
vt 0.970557 0.304026
vt 0.976100 0.304026
vt 0.981642 0.286977
vt 0.981642 0.286977
vt 0.970557 0.304026
vt 0.976100 0.286977
vt 0.970557 0.286977
vt 0.976100 0.286977
vt 0.981642 0.274388
vt 0.981642 0.274388
vt 0.970557 0.286977
vt 0.976100 0.274388
vt 0.970557 0.274388
vt 0.976100 0.274388
vt 0.981642 0.267205
vt 0.981642 0.267205
vt 0.970557 0.274388
vt 0.976100 0.267205
vt 0.970557 0.267205
vt 0.976100 0.267205
vt 0.976100 0.259971
vt 0.981642 0.259971
vt 0.976100 0.259971
vt 0.970557 0.259971
vt 0.970557 0.267205
vt 0.970557 0.259971
vt 0.981642 0.259971
vt 0.976100 0.247236
vt 0.981642 0.247236
vt 0.976100 0.247236
vt 0.970557 0.247236
vt 0.970557 0.247236
vt 0.981642 0.247236
vt 0.976100 0.229953
vt 0.981642 0.229953
vt 0.976100 0.229953
vt 0.970557 0.229953
vt 0.970557 0.229953
vt 0.981642 0.229953
vt 0.976100 0.209078
vt 0.981642 0.209078
vt 0.976100 0.209078
vt 0.970557 0.209078
vt 0.970557 0.209078
vt 0.981642 0.209078
vt 0.976100 0.185563
vt 0.981642 0.185563
vt 0.976100 0.185563
vt 0.970557 0.185563
vt 0.970557 0.185563
vt 0.981642 0.185563
vt 0.976100 0.160363
vt 0.981642 0.160363
vt 0.976100 0.160363
vt 0.970557 0.160363
vt 0.970557 0.160363
vt 0.981642 0.160363
vt 0.976100 0.134432
vt 0.981642 0.134432
vt 0.976100 0.134432
vt 0.970557 0.134432
vt 0.970557 0.134432
vt 0.981642 0.134432
vt 0.976100 0.108725
vt 0.981642 0.108725
vt 0.976100 0.108725
vt 0.970557 0.108725
vt 0.970557 0.108725
vt 0.981642 0.108725
vt 0.976100 0.084194
vt 0.981642 0.084194
vt 0.976100 0.084194
vt 0.970557 0.084194
vt 0.970557 0.084194
vt 0.981642 0.084194
vt 0.976100 0.061794
vt 0.981642 0.061794
vt 0.976100 0.061794
vt 0.970557 0.061794
vt 0.970557 0.061794
vt 0.981642 0.061794
vt 0.976100 0.042480
vt 0.980257 0.042480
vt 0.976100 0.042480
vt 0.971943 0.042480
vt 0.971943 0.042480
vt 0.980257 0.042480
vt 0.976100 0.027205
vt 0.978871 0.027205
vt 0.976100 0.027205
vt 0.973329 0.027205
vt 0.973329 0.027205
vt 0.978871 0.027205
vn -0.4964 -0.1000 -0.8623
vn -0.7807 0.6241 -0.0310
vn -0.3930 0.5848 -0.7096
vn 0.4964 -0.1000 -0.8623
vn 0.3930 0.5848 -0.7096
vn 0.7807 0.6241 -0.0310
vn 0.3881 0.6645 0.6386
vn 0.9995 0.0286 -0.0102
vn -0.5011 0.1625 0.8500
vn -0.3881 0.6645 0.6386
vn -0.9995 0.0286 -0.0102
vn -0.4957 -0.1597 -0.8537
vn 0.4957 -0.1597 -0.8537
vn 0.5011 0.1625 0.8500
vn 0.9999 0.0084 -0.0056
vn -0.4985 0.1805 0.8478
vn -0.9999 0.0084 -0.0056
vn -0.4942 -0.1915 -0.8479
vn 0.4942 -0.1915 -0.8479
vn 0.4985 0.1805 0.8478
vn 1.0000 -0.0012 -0.0023
vn -0.4961 0.1914 0.8469
vn -1.0000 -0.0012 -0.0023
vn -0.4944 -0.1948 -0.8471
vn 0.4944 -0.1948 -0.8471
vn 0.4961 0.1914 0.8469
vn 1.0000 0.0005 0.0014
vn -0.4931 0.1941 0.8480
vn -1.0000 0.0005 0.0014
vn -0.4951 -0.1786 -0.8502
vn 0.4951 -0.1786 -0.8502
vn 0.4931 0.1941 0.8480
vn 1.0000 0.0019 0.0048
vn -0.4910 0.1776 0.8528
vn -1.0000 0.0019 0.0048
vn -0.4960 -0.1482 -0.8556
vn 0.4960 -0.1482 -0.8556
vn 0.4910 0.1776 0.8528
vn 1.0000 0.0022 0.0066
vn -0.4905 0.1472 0.8589
vn -1.0000 0.0022 0.0066
vn -0.4943 -0.1240 -0.8604
vn 0.4943 -0.1240 -0.8604
vn 0.4905 0.1472 0.8589
vn 1.0000 0.0006 0.0024
vn -0.4923 0.1236 0.8616
vn -1.0000 0.0006 0.0024
vn -0.4937 -0.1141 -0.8621
vn 0.4937 -0.1141 -0.8621
vn 0.4923 0.1236 0.8616
vn 1.0000 0.0003 0.0012
vn -0.4927 0.1140 0.8627
vn -1.0000 0.0003 0.0012
vn -0.4951 -0.1015 -0.8629
vn 0.4951 -0.1015 -0.8629
vn 0.4927 0.1140 0.8627
vn 1.0000 0.0009 0.0031
vn -0.4927 0.1019 0.8642
vn -1.0000 0.0009 0.0031
vn -0.4978 -0.0804 -0.8636
vn 0.4978 -0.0804 -0.8636
vn 0.4927 0.1019 0.8642
vn 1.0000 0.0011 0.0033
vn -0.4952 0.0820 0.8649
vn -1.0000 0.0011 0.0033
vn -0.5009 -0.0593 -0.8635
vn 0.5009 -0.0593 -0.8635
vn 0.4952 0.0820 0.8649
vn 1.0000 0.0007 0.0040
vn -0.4977 0.0603 0.8653
vn -1.0000 0.0007 0.0040
vn -0.5081 0.0000 -0.8613
vn 0.5081 0.0000 -0.8613
vn 0.4977 0.0603 0.8653
vn 0.9998 0.0000 0.0183
vn -0.4922 0.0000 0.8705
vn -0.9998 0.0000 0.0183
vn -1.0000 -0.0007 0.0041
vn 0.5009 0.0594 -0.8635
vn 1.0000 -0.0007 0.0041
vn 0.4976 -0.0604 0.8653
vn 0.4922 0.0000 0.8705
vn -0.4976 -0.0604 0.8653
vn -0.5009 0.0594 -0.8635
vn -1.0000 -0.0011 0.0033
vn 0.4977 0.0808 -0.8636
vn 1.0000 -0.0011 0.0033
vn 0.4952 -0.0823 0.8649
vn -0.4952 -0.0823 0.8649
vn -0.4977 0.0808 -0.8636
vn -1.0000 -0.0009 0.0031
vn 0.4951 0.1018 -0.8628
vn 1.0000 -0.0009 0.0031
vn 0.4926 -0.1023 0.8642
vn -0.4926 -0.1023 0.8642
vn -0.4951 0.1018 -0.8628
vn -1.0000 -0.0003 0.0011
vn 0.4937 0.1144 -0.8621
vn 1.0000 -0.0003 0.0011
vn 0.4927 -0.1143 0.8626
vn -0.4927 -0.1143 0.8626
vn -0.4937 0.1144 -0.8621
vn -1.0000 -0.0007 0.0026
vn 0.4944 0.1249 -0.8602
vn 1.0000 -0.0007 0.0026
vn 0.4921 -0.1245 0.8615
vn -0.4921 -0.1245 0.8615
vn -0.4944 0.1249 -0.8602
vn -1.0000 -0.0023 0.0067
vn 0.4960 0.1501 -0.8552
vn 1.0000 -0.0023 0.0067
vn 0.4904 -0.1491 0.8586
vn -0.4904 -0.1491 0.8586
vn -0.4960 0.1501 -0.8552
vn -1.0000 -0.0019 0.0047
vn 0.4951 0.1805 -0.8498
vn 1.0000 -0.0019 0.0047
vn 0.4911 -0.1795 0.8524
vn -0.4911 -0.1795 0.8524
vn -0.4951 0.1805 -0.8498
vn -1.0000 -0.0003 0.0010
vn 0.4944 0.1952 -0.8470
vn 1.0000 -0.0003 0.0010
vn 0.4934 -0.1946 0.8477
vn -0.4934 -0.1946 0.8477
vn -0.4944 0.1952 -0.8470
vn -1.0000 0.0014 -0.0028
vn 0.4943 0.1892 -0.8484
vn 1.0000 0.0014 -0.0028
vn 0.4966 -0.1892 0.8471
vn -0.4966 -0.1892 0.8471
vn -0.4943 0.1892 -0.8484
vn -0.9999 -0.0078 -0.0063
vn 0.4956 0.1541 -0.8547
vn 0.9999 -0.0078 -0.0063
vn 0.4993 -0.1744 0.8487
vn -0.4993 -0.1744 0.8487
vn -0.4956 0.1541 -0.8547
vn -0.9993 -0.0346 -0.0107
vn 0.4966 0.0845 -0.8638
vn 0.9993 -0.0346 -0.0107
vn 0.5013 -0.1590 0.8505
vn -0.5013 -0.1590 0.8505
vn -0.4966 0.0845 -0.8638
vn -0.7767 -0.6292 -0.0280
vn 0.3909 -0.5938 -0.7032
vn 0.7767 -0.6292 -0.0280
vn 0.3861 -0.6655 0.6388
vn -0.3861 -0.6655 0.6388
vn -0.3909 -0.5938 -0.7033
usemtl Material.003
s 1
f 7/1/1 6/2/2 1/3/3
f 8/4/4 1/3/3 2/5/5
f 3/6/6 8/4/4 2/5/5
f 4/7/7 9/8/8 3/6/6
f 11/9/9 4/7/7 5/10/10
f 12/11/11 5/10/10 6/2/2
f 13/12/12 12/11/11 7/1/1
f 14/13/13 7/1/1 8/4/4
f 9/8/8 14/13/13 8/4/4
f 10/14/14 15/15/15 9/8/8
f 17/16/16 10/14/14 11/9/9
f 18/17/17 11/9/9 12/11/11
f 19/18/18 18/17/17 13/12/12
f 20/19/19 13/12/12 14/13/13
f 15/15/15 20/19/19 14/13/13
f 16/20/20 21/21/21 15/15/15
f 23/22/22 16/20/20 17/16/16
f 24/23/23 17/16/16 18/17/17
f 25/24/24 24/23/23 19/18/18
f 26/25/25 19/18/18 20/19/19
f 21/21/21 26/25/25 20/19/19
f 22/26/26 27/27/27 21/21/21
f 29/28/28 22/26/26 23/22/22
f 30/29/29 23/22/22 24/23/23
f 31/30/30 30/29/29 25/24/24
f 32/31/31 25/24/24 26/25/25
f 27/27/27 32/31/31 26/25/25
f 28/32/32 33/33/33 27/27/27
f 35/34/34 28/32/32 29/28/28
f 36/35/35 29/28/28 30/29/29
f 37/36/36 36/35/35 31/30/30
f 38/37/37 31/30/30 32/31/31
f 33/33/33 38/37/37 32/31/31
f 34/38/38 39/39/39 33/33/33
f 41/40/40 34/38/38 35/34/34
f 42/41/41 35/34/34 36/35/35
f 43/42/42 42/41/41 37/36/36
f 44/43/43 37/36/36 38/37/37
f 39/39/39 44/43/43 38/37/37
f 40/44/44 45/45/45 39/39/39
f 47/46/46 40/44/44 41/40/40
f 48/47/47 41/40/40 42/41/41
f 49/48/48 48/47/47 43/42/42
f 50/49/49 43/42/42 44/43/43
f 45/45/45 50/49/49 44/43/43
f 46/50/50 51/51/51 45/45/45
f 53/52/52 46/50/50 47/46/46
f 54/53/53 47/46/46 48/47/47
f 55/54/54 54/53/53 49/48/48
f 56/55/55 49/48/48 50/49/49
f 51/51/51 56/55/55 50/49/49
f 52/56/56 57/57/57 51/51/51
f 59/58/58 52/56/56 53/52/52
f 60/59/59 53/52/52 54/53/53
f 61/60/60 60/59/59 55/54/54
f 62/61/61 55/54/54 56/55/55
f 57/57/57 62/61/61 56/55/55
f 58/62/62 63/63/63 57/57/57
f 65/64/64 58/62/62 59/58/58
f 66/65/65 59/58/58 60/59/59
f 67/66/66 66/65/65 61/60/60
f 68/67/67 61/60/60 62/61/61
f 63/63/63 68/67/67 62/61/61
f 64/68/68 69/69/69 63/63/63
f 71/70/70 64/68/68 65/64/64
f 72/71/71 65/64/64 66/65/65
f 73/72/72 72/71/71 67/66/66
f 74/73/73 67/66/66 68/67/67
f 69/69/69 74/73/73 68/67/67
f 70/74/74 75/75/75 69/69/69
f 77/76/76 70/74/74 71/70/70
f 78/77/77 71/70/70 72/71/71
f 73/72/72 84/78/78 78/77/77
f 80/79/79 73/72/72 74/73/73
f 81/80/80 74/73/73 75/75/75
f 82/81/81 75/75/75 76/82/82
f 83/83/83 76/82/82 77/76/76
f 78/77/77 83/83/83 77/76/76
f 79/84/84 90/85/85 84/78/78
f 86/86/86 79/84/84 80/79/79
f 87/87/87 80/79/79 81/80/80
f 88/88/88 81/80/80 82/81/81
f 89/89/89 82/81/81 83/83/83
f 84/78/78 89/89/89 83/83/83
f 85/90/90 96/91/91 90/85/85
f 92/92/92 85/90/90 86/86/86
f 93/93/93 86/86/86 87/87/87
f 94/94/94 87/87/87 88/88/88
f 95/95/95 88/88/88 89/89/89
f 90/85/85 95/95/95 89/89/89
f 91/96/96 102/97/97 96/91/91
f 98/98/98 91/96/96 92/92/92
f 99/99/99 92/92/92 93/93/93
f 100/100/100 93/93/93 94/94/94
f 101/101/101 94/94/94 95/95/95
f 96/91/91 101/101/101 95/95/95
f 97/102/102 108/103/103 102/97/97
f 104/104/104 97/102/102 98/98/98
f 105/105/105 98/98/98 99/99/99
f 106/106/106 99/99/99 100/100/100
f 107/107/107 100/100/100 101/101/101
f 102/97/97 107/107/107 101/101/101
f 103/108/108 114/109/109 108/103/103
f 110/110/110 103/108/108 104/104/104
f 111/111/111 104/104/104 105/105/105
f 112/112/112 105/105/105 106/106/106
f 113/113/113 106/106/106 107/107/107
f 108/103/103 113/113/113 107/107/107
f 109/114/114 120/115/115 114/109/109
f 116/116/116 109/114/114 110/110/110
f 117/117/117 110/110/110 111/111/111
f 118/118/118 111/111/111 112/112/112
f 119/119/119 112/112/112 113/113/113
f 114/109/109 119/119/119 113/113/113
f 115/120/120 126/121/121 120/115/115
f 122/122/122 115/120/120 116/116/116
f 123/123/123 116/116/116 117/117/117
f 124/124/124 117/117/117 118/118/118
f 125/125/125 118/118/118 119/119/119
f 120/115/115 125/125/125 119/119/119
f 121/126/126 132/127/127 126/121/121
f 128/128/128 121/126/126 122/122/122
f 129/129/129 122/122/122 123/123/123
f 130/130/130 123/123/123 124/124/124
f 131/131/131 124/124/124 125/125/125
f 126/121/121 131/131/131 125/125/125
f 127/132/132 138/133/133 132/127/127
f 134/134/134 127/132/132 128/128/128
f 135/135/135 128/128/128 129/129/129
f 136/136/136 129/129/129 130/130/130
f 137/137/137 130/130/130 131/131/131
f 132/127/127 137/137/137 131/131/131
f 133/138/138 144/139/139 138/133/133
f 140/140/140 133/138/138 134/134/134
f 141/141/141 134/134/134 135/135/135
f 142/142/142 135/135/135 136/136/136
f 137/137/137 142/142/142 136/136/136
f 138/133/133 143/143/143 137/137/137
f 139/144/144 150/145/145 144/139/139
f 146/146/146 139/144/144 140/140/140
f 147/147/147 140/140/140 141/141/141
f 148/148/148 141/141/141 142/142/142
f 149/149/149 142/142/142 143/143/143
f 144/139/139 149/149/149 143/143/143
f 2/5/5 1/3/3 6/2/2
f 6/2/2 5/10/10 2/5/5
f 5/10/10 4/7/7 2/5/5
f 4/7/7 3/6/6 2/5/5
f 145/150/150 146/146/146 147/147/147
f 147/147/147 148/148/148 145/150/150
f 148/148/148 149/149/149 145/150/150
f 149/149/149 150/145/145 145/150/150
f 7/1/1 12/11/11 6/2/2
f 8/4/4 7/1/1 1/3/3
f 3/6/6 9/8/8 8/4/4
f 4/7/7 10/14/14 9/8/8
f 11/9/9 10/14/14 4/7/7
f 12/11/11 11/9/9 5/10/10
f 13/12/12 18/17/17 12/11/11
f 14/13/13 13/12/12 7/1/1
f 9/8/8 15/15/15 14/13/13
f 10/14/14 16/20/20 15/15/15
f 17/16/16 16/20/20 10/14/14
f 18/17/17 17/16/16 11/9/9
f 19/18/18 24/23/23 18/17/17
f 20/19/19 19/18/18 13/12/12
f 15/15/15 21/21/21 20/19/19
f 16/20/20 22/26/26 21/21/21
f 23/22/22 22/26/26 16/20/20
f 24/23/23 23/22/22 17/16/16
f 25/24/24 30/29/29 24/23/23
f 26/25/25 25/24/24 19/18/18
f 21/21/21 27/27/27 26/25/25
f 22/26/26 28/32/32 27/27/27
f 29/28/28 28/32/32 22/26/26
f 30/29/29 29/28/28 23/22/22
f 31/30/30 36/35/35 30/29/29
f 32/31/31 31/30/30 25/24/24
f 27/27/27 33/33/33 32/31/31
f 28/32/32 34/38/38 33/33/33
f 35/34/34 34/38/38 28/32/32
f 36/35/35 35/34/34 29/28/28
f 37/36/36 42/41/41 36/35/35
f 38/37/37 37/36/36 31/30/30
f 33/33/33 39/39/39 38/37/37
f 34/38/38 40/44/44 39/39/39
f 41/40/40 40/44/44 34/38/38
f 42/41/41 41/40/40 35/34/34
f 43/42/42 48/47/47 42/41/41
f 44/43/43 43/42/42 37/36/36
f 39/39/39 45/45/45 44/43/43
f 40/44/44 46/50/50 45/45/45
f 47/46/46 46/50/50 40/44/44
f 48/47/47 47/46/46 41/40/40
f 49/48/48 54/53/53 48/47/47
f 50/49/49 49/48/48 43/42/42
f 45/45/45 51/51/51 50/49/49
f 46/50/50 52/56/56 51/51/51
f 53/52/52 52/56/56 46/50/50
f 54/53/53 53/52/52 47/46/46
f 55/54/54 60/59/59 54/53/53
f 56/55/55 55/54/54 49/48/48
f 51/51/51 57/57/57 56/55/55
f 52/56/56 58/62/62 57/57/57
f 59/58/58 58/62/62 52/56/56
f 60/59/59 59/58/58 53/52/52
f 61/60/60 66/65/65 60/59/59
f 62/61/61 61/60/60 55/54/54
f 57/57/57 63/63/63 62/61/61
f 58/62/62 64/68/68 63/63/63
f 65/64/64 64/68/68 58/62/62
f 66/65/65 65/64/64 59/58/58
f 67/66/66 72/71/71 66/65/65
f 68/67/67 67/66/66 61/60/60
f 63/63/63 69/69/69 68/67/67
f 64/68/68 70/74/74 69/69/69
f 71/70/70 70/74/74 64/68/68
f 72/71/71 71/70/70 65/64/64
f 73/72/72 78/77/77 72/71/71
f 74/73/73 73/72/72 67/66/66
f 69/69/69 75/75/75 74/73/73
f 70/74/74 76/82/82 75/75/75
f 77/76/76 76/82/82 70/74/74
f 78/77/77 77/76/76 71/70/70
f 73/72/72 79/84/84 84/78/78
f 80/79/79 79/84/84 73/72/72
f 81/80/80 80/79/79 74/73/73
f 82/81/81 81/80/80 75/75/75
f 83/83/83 82/81/81 76/82/82
f 78/77/77 84/78/78 83/83/83
f 79/84/84 85/90/90 90/85/85
f 86/86/86 85/90/90 79/84/84
f 87/87/87 86/86/86 80/79/79
f 88/88/88 87/87/87 81/80/80
f 89/89/89 88/88/88 82/81/81
f 84/78/78 90/85/85 89/89/89
f 85/90/90 91/96/96 96/91/91
f 92/92/92 91/96/96 85/90/90
f 93/93/93 92/92/92 86/86/86
f 94/94/94 93/93/93 87/87/87
f 95/95/95 94/94/94 88/88/88
f 90/85/85 96/91/91 95/95/95
f 91/96/96 97/102/102 102/97/97
f 98/98/98 97/102/102 91/96/96
f 99/99/99 98/98/98 92/92/92
f 100/100/100 99/99/99 93/93/93
f 101/101/101 100/100/100 94/94/94
f 96/91/91 102/97/97 101/101/101
f 97/102/102 103/108/108 108/103/103
f 104/104/104 103/108/108 97/102/102
f 105/105/105 104/104/104 98/98/98
f 106/106/106 105/105/105 99/99/99
f 107/107/107 106/106/106 100/100/100
f 102/97/97 108/103/103 107/107/107
f 103/108/108 109/114/114 114/109/109
f 110/110/110 109/114/114 103/108/108
f 111/111/111 110/110/110 104/104/104
f 112/112/112 111/111/111 105/105/105
f 113/113/113 112/112/112 106/106/106
f 108/103/103 114/109/109 113/113/113
f 109/114/114 115/120/120 120/115/115
f 116/116/116 115/120/120 109/114/114
f 117/117/117 116/116/116 110/110/110
f 118/118/118 117/117/117 111/111/111
f 119/119/119 118/118/118 112/112/112
f 114/109/109 120/115/115 119/119/119
f 115/120/120 121/126/126 126/121/121
f 122/122/122 121/126/126 115/120/120
f 123/123/123 122/122/122 116/116/116
f 124/124/124 123/123/123 117/117/117
f 125/125/125 124/124/124 118/118/118
f 120/115/115 126/121/121 125/125/125
f 121/126/126 127/132/132 132/127/127
f 128/128/128 127/132/132 121/126/126
f 129/129/129 128/128/128 122/122/122
f 130/130/130 129/129/129 123/123/123
f 131/131/131 130/130/130 124/124/124
f 126/121/121 132/127/127 131/131/131
f 127/132/132 133/138/138 138/133/133
f 134/134/134 133/138/138 127/132/132
f 135/135/135 134/134/134 128/128/128
f 136/136/136 135/135/135 129/129/129
f 137/137/137 136/136/136 130/130/130
f 132/127/127 138/133/133 137/137/137
f 133/138/138 139/144/144 144/139/139
f 140/140/140 139/144/144 133/138/138
f 141/141/141 140/140/140 134/134/134
f 142/142/142 141/141/141 135/135/135
f 137/137/137 143/143/143 142/142/142
f 138/133/133 144/139/139 143/143/143
f 139/144/144 145/150/150 150/145/145
f 146/146/146 145/150/150 139/144/144
f 147/147/147 146/146/146 140/140/140
f 148/148/148 147/147/147 141/141/141
f 149/149/149 148/148/148 142/142/142
f 144/139/139 150/145/145 149/149/149
