# WaveFront *.obj file (generated by CINEMA 4D)

v 1.41613912582397 7.83690786361694 2.44715094566345
v 1.98897540569305 7.89049911499023 2.67820644378662
v 2.20337724685669 14.38862323760986 0.57406455278397
v 2.04602646827698 13.81187915802002 0.75954377651215
v 1.90554738044739 13.22980690002441 0.94246512651443
v 1.78206694126129 12.64291667938232 1.12265646457672
v 1.67569661140442 12.05172061920166 1.29995119571686
v 1.58653163909912 11.45673942565918 1.4741884469986
v 1.51465106010437 10.85849475860596 1.64521312713623
v 1.46011769771576 10.2575159072876 1.81287634372711
v 1.42297792434692 9.65433311462402 1.97703504562378
v 1.40326178073883 9.04947948455811 2.1375527381897
v 1.40098321437836 8.44349193572998 2.29429912567139
v -1.87038087844849 7.95521354675293 2.95721793174744
v -1.88986492156982 8.56549263000488 2.84459376335144
v -1.92034304141998 9.17292594909668 2.72118735313416
v -1.96180427074432 9.77718734741211 2.58707857131958
v -2.01423048973083 10.37795352935791 2.44235038757324
v -2.07759666442871 10.9749002456665 2.2870888710022
v -2.15187048912048 11.56770420074463 2.12138247489929
v -2.23701190948486 12.15604496002197 1.94532227516174
v -2.3329746723175 12.73960494995117 1.75900220870972
v -2.43970441818237 13.31806659698486 1.56251871585846
v -2.55714082717896 13.89111423492432 1.35597085952759
v -2.68521523475647 14.45843505859375 1.13945984840393
v 2.80576634407043 14.3312463760376 0.85550010204315
v -1.29754459857941 7.90162181854248 2.72616243362427
v -1.27338838577271 8.51849269866943 2.59335970878601
v -1.26844561100006 9.13447380065918 2.45259070396423
v -1.28273272514343 9.74881458282471 2.30402207374573
v -1.31624031066895 10.3607702255249 2.14783120155334
v -1.36893355846405 10.96959400177002 1.98420560359955
v -1.44075202941895 11.57454872131348 1.81334221363068
v -1.53160953521729 12.17490005493164 1.63544821739197
v -1.64139485359192 12.76991844177246 1.45073962211609
v -1.76997137069702 13.35888385772705 1.25944197177887
v -1.91717731952667 13.94108295440674 1.0617892742157
v -2.08282613754272 14.51581192016602 0.85802435874939
v 2.68598985671997 13.76190948486328 1.05372536182404
v 2.57528042793274 13.18898963928223 1.24554193019867
v 2.47364664077759 12.61260318756104 1.43091905117035
v 2.381098985672 12.03286647796631 1.60982525348663
v 2.29765009880066 11.44989395141602 1.78222858905792
v 2.22331428527832 10.86380004882812 1.94809651374817
v 2.15810775756836 10.27470016479492 2.1073956489563
v 2.10204935073853 9.68270587921143 2.26009154319763
v 2.05515933036804 9.08793163299561 2.40614938735962
v 2.01745963096619 8.49049186706543 2.54553318023682
v 2.08282613754272 14.51581192016602 0.85802435874939
v 1.91717731952667 13.94108295440674 1.0617892742157
v 1.76997137069702 13.35888385772705 1.25944197177887
v 1.64139485359192 12.76991844177246 1.45073962211609
v 1.53160953521729 12.17490005493164 1.63544821739197
v 1.44075202941895 11.57454872131348 1.81334221363068
v 1.36893355846405 10.96959400177002 1.98420560359955
v 1.31624031066895 10.3607702255249 2.14783120155334
v 1.28273272514343 9.74881458282471 2.30402207374573
v 1.26844561100006 9.13447380065918 2.45259070396423
v 1.27338838577271 8.51849269866943 2.59335970878601
v 1.29754459857941 7.90162181854248 2.72616243362427
v 2.68521523475647 14.45843505859375 1.13945984840393
v 2.55714082717896 13.89111423492432 1.35597085952759
v 2.43970441818237 13.31806659698486 1.56251871585846
v 2.3329746723175 12.73960494995117 1.75900220870972
v 2.23701190948486 12.15604496002197 1.94532227516174
v 2.15187048912048 11.56770420074463 2.12138247489929
v 2.07759666442871 10.9749002456665 2.2870888710022
v 2.01423048973083 10.37795352935791 2.44235038757324
v 1.96180427074432 9.77718734741211 2.58707857131958
v 1.92034304141998 9.17292594909668 2.72118735313416
v 1.88986492156982 8.56549263000488 2.84459376335144
v 1.87038087844849 7.95521354675293 2.95721793174744
v -1.41613912582397 7.83690786361694 2.44715094566345
v -1.98897540569305 7.89049911499023 2.67820644378662
v -2.20337724685669 14.38862323760986 0.57406455278397
v -2.04602646827698 13.81187915802002 0.75954377651215
v -1.90554738044739 13.22980690002441 0.94246512651443
v -1.78206694126129 12.64291667938232 1.12265646457672
v -1.67569661140442 12.05172061920166 1.29995119571686
v -1.58653163909912 11.45673942565918 1.4741884469986
v -1.51465106010437 10.85849475860596 1.64521312713623
v -1.46011769771576 10.2575159072876 1.81287634372711
v -1.42297792434692 9.65433311462402 1.97703504562378
v -1.40326178073883 9.04947948455811 2.1375527381897
v -1.40098321437836 8.44349193572998 2.29429912567139
v -2.80576634407043 14.3312463760376 0.85550010204315
v -2.68598985671997 13.76190948486328 1.05372536182404
v -2.57528042793274 13.18898963928223 1.24554193019867
v -2.47364664077759 12.61260318756104 1.43091905117035
v -2.381098985672 12.03286647796631 1.60982525348663
v -2.29765009880066 11.44989395141602 1.78222858905792
v -2.22331428527832 10.86380004882812 1.94809651374817
v -2.15810775756836 10.27470016479492 2.1073956489563
v -2.10204935073853 9.68270587921143 2.26009154319763
v -2.05515933036804 9.08793163299561 2.40614938735962
v -2.01745963096619 8.49049186706543 2.54553318023682
# 96 vertices

vn 0.90014696121216 -0.09609609097242 0.42485409975052
vn 0.89723563194275 -0.10678325593472 0.42844554781914
vn 0 0 0
vn -0.9119268655777 0.0448150485754 -0.40789821743965
vn -0.9134983420372 0.03581365942955 -0.40526312589645
vn 0.90551370382309 -0.07459745556116 0.41770821809769
vn 0 1 0
vn -0.91494923830032 0.02684501186013 -0.40267515182495
vn 0.91020673513412 -0.05281542986631 0.41077277064323
vn 0.38255879282951 0.21670310199261 0.89815843105316
vn 0.38238281011581 0.22469209134579 0.89626830816269
vn -0.91633778810501 0.01778174005449 -0.40001103281975
vn 0.91422861814499 -0.03090764209628 0.40401819348335
vn -0.99818962812424 0.06014584004879 0
vn 0.38182243704796 0.24072501063347 0.89233577251434
vn -0.91757810115814 0.00881294999272 -0.39745780825615
vn 0.91757810115814 -0.00881294999272 0.39745780825615
vn 0.38092634081841 0.25666978955269 0.88826560974121
vn -0.91876631975174 -0.00018750970776 -0.39480170607567
vn 0.92021548748016 0.01343836542219 0.3911814391613
vn 0.37973800301552 0.27251383662224 0.88404482603073
vn -0.91983550786972 -0.00915647950023 -0.39219734072685
vn 0.92220532894135 0.03581319376826 0.38503867387772
vn 0.37814775109291 0.28829860687256 0.87970918416977
vn -0.92080271244049 -0.0182191748172 -0.38960283994675
vn 0.92345875501633 0.0583158172667 0.37924030423164
vn 0.37621247768402 0.30398893356323 0.87524563074112
vn -0.92168265581131 -0.02734453231096 -0.38697984814644
vn 0.92405962944031 0.08097123354673 0.37357395887375
vn 0 1 0
vn 0.37391114234924 0.31966042518616 0.87063634395599
vn -0.92244893312454 -0.03647043928504 -0.38439279794693
vn 0.92396473884583 0.10360030829906 0.36817955970764
vn 0.37126934528351 0.33517372608185 0.86592012643814
vn -0.92280048131943 -0.04106474667788 -0.38308346271515
vn 0.92367190122604 0.11500584334135 0.36551856994629
vn 0.36827450990677 0.35064834356308 0.86105728149414
vn -0.91112595796585 0.04928299039602 -0.40917071700096
vn -0.23392184078693 -0.92049884796143 0.31298959255219
vn 0.36495956778526 0.3659596145153 0.85608297586441
vn -0.36495956778526 0.3659596145153 0.85608297586441
vn -0.36317557096481 0.37358236312866 0.85354536771774
vn -0.36827450990677 0.35064834356308 0.86105728149414
vn 0.36317557096481 0.37358236312866 0.85354536771774
vn -0.37126934528351 0.33517372608185 0.86592012643814
vn -0.37391114234924 0.31966042518616 0.87063634395599
vn -0.37621247768402 0.30398893356323 0.87524563074112
vn -0.37814775109291 0.28829860687256 0.87970918416977
vn -0.37973800301552 0.27251383662224 0.88404482603073
vn -0.38092634081841 0.25666978955269 0.88826560974121
vn -0.38182243704796 0.24072501063347 0.89233577251434
vn -0.38238281011581 0.22469209134579 0.89626830816269
vn -0.38255879282951 0.21670310199261 0.89815843105316
vn -0.90014696121216 -0.09609609097242 0.42485409975052
vn -0.89723563194275 -0.10678325593472 0.42844554781914
vn 0.9119268655777 0.0448150485754 -0.40789821743965
vn 0.9134983420372 0.03581365942955 -0.40526312589645
vn -0.90551370382309 -0.07459745556116 0.41770821809769
vn 0.91494923830032 0.02684501186013 -0.40267515182495
vn -0.91020673513412 -0.05281542986631 0.41077277064323
vn 0.91633778810501 0.01778174005449 -0.40001103281975
vn -0.91422861814499 -0.03090764209628 0.40401819348335
vn 0.91757810115814 0.00881294999272 -0.39745780825615
vn -0.91757810115814 -0.00881294999272 0.39745780825615
vn 0.91876631975174 -0.00018750970776 -0.39480170607567
vn -0.92021548748016 0.01343836542219 0.3911814391613
vn 0.91983550786972 -0.00915647950023 -0.39219734072685
vn -0.92220532894135 0.03581319376826 0.38503867387772
vn 0.92080271244049 -0.0182191748172 -0.38960283994675
vn -0.92345875501633 0.0583158172667 0.37924030423164
vn 0.92168265581131 -0.02734453231096 -0.38697984814644
vn -0.92405962944031 0.08097123354673 0.37357395887375
vn 0.92244893312454 -0.03647043928504 -0.38439279794693
vn -0.92396473884583 0.10360030829906 0.36817955970764
vn 0.92280048131943 -0.04106474667788 -0.38308346271515
vn 1 0 0
vn -0.92367190122604 0.11500584334135 0.36551856994629
vn 0.91112595796585 0.04928299039602 -0.40917071700096
vn 0.23392184078693 -0.92049884796143 0.31298959255219
vn 1 0 0
vn -0.0489005856216 0.99880367517471 0
# 81 normals

vt 0.89999389648438 0.15385437011719 0
vt 0.79998779296875 0.07693481445312 0
vt 0.79998779296875 0.15385437011719 0
vt 0 1 0
vt 0.99998474121094 0.23077392578125 0
vt 0.99998474121094 0.15385437011719 0
vt 0.89999389648438 0.23077392578125 0
vt 0.79998779296875 0.23077392578125 0
vt 0.99998474121094 0.30769348144531 0
vt 0.89999389648438 0.30769348144531 0
vt 0.79998779296875 0.30769348144531 0
vt 0.19999694824219 1.00005638599396 0
vt 0.19999694824219 0.9230785369873 0
vt 0.29999542236328 0.9230785369873 0
vt 0.99998474121094 0.38462829589844 0
vt 0.89999389648438 0.38462829589844 0
vt 0.79998779296875 0.38462829589844 0
vt 0.19999694824219 0.84615707397461 0
vt 0.29999542236328 0.84615707397461 0
vt 0.99998474121094 0.4615478515625 0
vt 0.89999389648438 0.4615478515625 0
vt 0.79998779296875 0.4615478515625 0
vt 0.19999694824219 0.76923370361328 0
vt 0.29999542236328 0.76923370361328 0
vt 0.99998474121094 0.53846740722656 0
vt 0.89999389648438 0.53846740722656 0
vt 0.79998779296875 0.53846740722656 0
vt 0.19999694824219 0.69231414794922 0
vt 0.29999542236328 0.69231414794922 0
vt 0.99998474121094 0.61538696289062 0
vt 0.89999389648438 0.61538696289062 0
vt 0.79998779296875 0.61538696289062 0
vt 0.19999694824219 0.61538696289062 0
vt 0.29999542236328 0.61538696289062 0
vt 0.99998474121094 0.69231414794922 0
vt 0.89999389648438 0.69231414794922 0
vt 0.79998779296875 0.69231414794922 0
vt 0.19999694824219 0.53846740722656 0
vt 0.29999542236328 0.53846740722656 0
vt 0.99998474121094 0.76923370361328 0
vt 0.89999389648438 0.76923370361328 0
vt 0.79998779296875 0.76923370361328 0
vt 0.19999694824219 0.4615478515625 0
vt 0.29999542236328 0.4615478515625 0
vt 0.99998474121094 0.84615707397461 0
vt 0.89999389648438 0.84615707397461 0
vt 0.79998779296875 0.84615707397461 0
vt 0.19999694824219 0.38462829589844 0
vt 0.29999542236328 0.38462829589844 0
vt 0.99998474121094 0.9230785369873 0
vt 0.89999389648438 0.9230785369873 0
vt 0.79998779296875 0.9230785369873 0
vt 0.19999694824219 0.30769348144531 0
vt 0.29999542236328 0.30769348144531 0
vt 0.89999389648438 0.07693481445312 0
vt 0.99998474121094 0.07693481445312 0
vt 0.90000915527344 0.00004577636719 0
vt 0.80000305175781 0.07695007324219 0
vt 0.90000915527344 0.07695007324219 0
vt 0.19999694824219 0.23077392578125 0
vt 0.29999542236328 0.23077392578125 0
vt 0.29999542236328 0.15385437011719 0
vt 0.19999694824219 0.15385437011719 0
vt 0.80000305175781 0.00004577636719 0
vt 0.29999542236328 1.00005638599396 0
# 65 texture coordinates

o bunnyears
usemtl Mat
f 4/3/1 3/2/2 50/1/1
f 39/6/4 40/5/5 62/1/4
f 5/8/6 4/3/1 51/7/6
f 40/5/5 41/9/8 63/7/5
f 6/11/9 5/8/6 52/10/9
f 85/14/11 96/13/11 74/12/10
f 41/9/8 42/15/12 64/10/8
f 7/17/13 6/11/9 53/16/13
f 84/19/15 95/18/15 96/13/11
f 42/15/12 43/20/16 65/16/12
f 8/22/17 7/17/13 54/21/17
f 83/24/18 94/23/18 95/18/15
f 43/20/16 44/25/19 66/21/16
f 9/27/20 8/22/17 55/26/20
f 82/29/21 93/28/21 94/23/18
f 44/25/19 45/30/22 67/26/19
f 10/32/23 9/27/20 56/31/23
f 81/34/24 92/33/24 93/28/21
f 45/30/22 46/35/25 68/31/22
f 11/37/26 10/32/23 57/36/26
f 80/39/27 91/38/27 92/33/24
f 46/35/25 47/40/28 69/36/25
f 12/42/29 11/37/26 58/41/29
f 79/44/31 90/43/31 91/38/27
f 47/40/28 48/45/32 70/41/28
f 13/47/33 12/42/29 59/46/33
f 78/49/34 89/48/34 90/43/31
f 48/45/32 2/50/35 71/46/32
f 1/52/36 13/47/33 60/51/36
f 77/54/37 88/53/37 89/48/34
f 26/56/38 39/6/4 61/55/38
f 3/59/39 26/58/39 49/57/39
f 76/61/40 87/60/40 88/53/37
f 26/63/42 3/62/42 39/60/41
f 39/60/41 4/61/41 40/53/43
f 75/62/44 86/63/44 87/60/40
f 40/53/43 5/54/43 41/48/45
f 41/48/45 6/49/45 42/43/46
f 42/43/46 7/44/46 43/38/47
f 43/38/47 8/39/47 44/33/48
f 44/33/48 9/34/48 45/28/49
f 45/28/49 10/29/49 46/23/50
f 46/23/50 11/24/50 47/18/51
f 47/18/51 12/19/51 48/13/52
f 48/13/52 13/14/52 2/12/53
f 38/55/55 75/2/55 37/1/54
f 23/7/57 88/5/57 24/1/56
f 37/1/54 76/3/54 36/7/58
f 22/10/59 89/9/59 23/7/57
f 36/7/58 77/8/58 35/10/60
f 21/16/61 90/15/61 22/10/59
f 35/10/60 78/11/60 34/16/62
f 20/21/63 91/20/63 21/16/61
f 34/16/62 79/17/62 33/21/64
f 19/26/65 92/25/65 20/21/63
f 33/21/64 80/22/64 32/26/66
f 18/31/67 93/30/67 19/26/65
f 32/26/66 81/27/66 31/31/68
f 17/36/69 94/35/69 18/31/67
f 31/31/68 82/32/68 30/36/70
f 16/41/71 95/40/71 17/36/69
f 30/36/70 83/37/70 29/41/72
f 15/46/73 96/45/73 16/41/71
f 29/41/72 84/42/72 28/46/74
f 14/51/75 74/50/75 15/46/73
f 28/46/74 85/47/74 27/51/77
f 24/1/56 87/6/56 25/55/78
f 25/64/79 86/58/79 38/57/79
f 76/61/40 75/62/44 87/60/40
f 77/54/37 76/61/40 88/53/37
f 78/49/34 77/54/37 89/48/34
f 79/44/31 78/49/34 90/43/31
f 80/39/27 79/44/31 91/38/27
f 81/34/24 80/39/27 92/33/24
f 82/29/21 81/34/24 93/28/21
f 83/24/18 82/29/21 94/23/18
f 84/19/15 83/24/18 95/18/15
f 85/14/11 84/19/15 96/13/11
f 73/65/10 85/14/11 74/12/10
f 3/2/2 49/55/2 50/1/1
f 40/5/5 63/7/5 62/1/4
f 4/3/1 50/1/1 51/7/6
f 41/9/8 64/10/8 63/7/5
f 5/8/6 51/7/6 52/10/9
f 42/15/12 65/16/12 64/10/8
f 6/11/9 52/10/9 53/16/13
f 43/20/16 66/21/16 65/16/12
f 7/17/13 53/16/13 54/21/17
f 44/25/19 67/26/19 66/21/16
f 8/22/17 54/21/17 55/26/20
f 45/30/22 68/31/22 67/26/19
f 9/27/20 55/26/20 56/31/23
f 46/35/25 69/36/25 68/31/22
f 10/32/23 56/31/23 57/36/26
f 47/40/28 70/41/28 69/36/25
f 11/37/26 57/36/26 58/41/29
f 48/45/32 71/46/32 70/41/28
f 12/42/29 58/41/29 59/46/33
f 2/50/35 72/51/35 71/46/32
f 13/47/33 59/46/33 60/51/36
f 39/6/4 62/1/4 61/55/38
f 26/58/39 61/64/39 49/57/39
f 3/62/42 4/61/41 39/60/41
f 86/58/79 75/59/79 38/57/79
f 87/6/56 86/56/78 25/55/78
f 85/47/74 73/52/77 27/51/77
f 74/50/75 96/45/73 15/46/73
f 84/42/72 85/47/74 28/46/74
f 96/45/73 95/40/71 16/41/71
f 83/37/70 84/42/72 29/41/72
f 95/40/71 94/35/69 17/36/69
f 82/32/68 83/37/70 30/36/70
f 94/35/69 93/30/67 18/31/67
f 81/27/66 82/32/68 31/31/68
f 93/30/67 92/25/65 19/26/65
f 80/22/64 81/27/66 32/26/66
f 92/25/65 91/20/63 20/21/63
f 79/17/62 80/22/64 33/21/64
f 91/20/63 90/15/61 21/16/61
f 78/11/60 79/17/62 34/16/62
f 90/15/61 89/9/59 22/10/59
f 77/8/58 78/11/60 35/10/60
f 89/9/59 88/5/57 23/7/57
f 76/3/54 77/8/58 36/7/58
f 88/5/57 87/6/56 24/1/56
f 75/2/55 76/3/54 37/1/54
f 4/61/41 5/54/43 40/53/43
f 5/54/43 6/49/45 41/48/45
f 13/14/52 1/65/53 2/12/53
f 6/49/45 7/44/46 42/43/46
f 7/44/46 8/39/47 43/38/47
f 12/19/51 13/14/52 48/13/52
f 8/39/47 9/34/48 44/33/48
f 9/34/48 10/29/49 45/28/49
f 11/24/50 12/19/51 47/18/51
f 10/29/49 11/24/50 46/23/50

