# Blender v2.90.0 OBJ File: 'witch_hat.blend'
# www.blender.org
mtllib witch_hat_chroma.mtl
o witch_hat_chroma_geo_witch_hat_export.001
v 0.004335 8.790368 4.527310
v -4.518486 9.292903 4.527311
v 0.004335 9.292904 4.527310
v 0.004335 9.292904 4.024774
v 4.527157 9.292905 4.527310
v -4.015952 9.292903 4.024775
v 4.024621 9.292904 4.024774
v 0.004334 8.790368 -4.518334
v 0.004334 8.287832 -4.518333
v -4.518488 9.292904 -4.518334
v -4.015953 9.292904 -4.015798
v 0.004334 9.292904 -4.015798
v 0.004334 9.292904 -4.518334
v 4.527157 9.292905 -4.518334
v 4.024621 9.292905 -4.015798
v 0.004335 8.287832 4.527311
v -4.518486 8.287831 4.527311
v 4.527157 8.287832 4.527310
v -4.518487 8.287832 -4.518333
v 4.527157 8.287833 -4.518334
vt 0.944056 0.566667
vt 0.881119 0.566667
vt 0.881119 0.600000
vt 0.174825 0.233333
vt 0.167832 0.200000
vt 0.167832 0.800000
vt 0.734266 0.733333
vt 0.608392 0.666667
vt 0.608392 0.733333
vt 0.818182 0.566667
vt 0.608392 0.666667
vt 0.734266 0.733333
vt 0.608392 0.733333
vt 0.881119 0.600000
vt 0.881119 0.633333
vt 0.818182 0.633333
vt 0.286713 0.233333
vt 0.286713 0.766667
vt 0.293706 0.800000
vt 0.944056 0.633333
vt 0.881119 0.633333
vt 0.944056 0.633333
vt 0.230769 0.233333
vt 0.230769 0.200000
vt 0.230769 0.800000
vt 0.174825 0.766667
vt 0.230769 0.766667
vt 0.734266 0.666667
vt 0.818182 0.633333
vt 0.734266 0.666667
vt 0.818182 0.566667
vt 0.881119 0.566667
vt 0.293706 0.200000
vt 0.944056 0.566667
vn -0.0000 0.0000 1.0000
vn -0.0000 1.0000 -0.0000
vn 1.0000 0.0000 -0.0000
vn -1.0000 -0.0000 0.0000
vn -0.0000 -0.0000 -1.0000
usemtl Material.001
s 1
f 5/1/1 3/2/1 1/3/1
f 11/4/2 10/5/2 2/6/2
f 20/7/3 5/8/3 18/9/3
f 1/3/1 3/2/1 2/10/1
f 2/11/4 19/12/4 17/13/4
f 8/14/5 9/15/5 19/16/5
f 15/17/2 7/18/2 5/19/2
f 20/20/5 9/15/5 8/14/5
f 16/21/1 18/22/1 1/3/1
f 18/22/1 5/1/1 1/3/1
f 11/4/2 12/23/2 13/24/2
f 2/6/2 3/25/2 6/26/2
f 3/25/2 4/27/2 6/26/2
f 11/4/2 13/24/2 10/5/2
f 2/6/2 6/26/2 11/4/2
f 20/7/3 14/28/3 5/8/3
f 2/10/1 17/29/1 1/3/1
f 17/29/1 16/21/1 1/3/1
f 2/11/4 10/30/4 19/12/4
f 19/16/5 10/31/5 8/14/5
f 10/31/5 13/32/5 8/14/5
f 14/33/2 13/24/2 15/17/2
f 13/24/2 12/23/2 15/17/2
f 4/27/2 3/25/2 7/18/2
f 3/25/2 5/19/2 7/18/2
f 14/33/2 15/17/2 5/19/2
f 8/14/5 13/32/5 14/34/5
f 14/34/5 20/20/5 8/14/5
