# WaveFront *.obj file (generated by CINEMA 4D)

v -0.01492797024548 -1.164959192276 0.01493118237704
v 0.01493104081601 -1.164959192276 0.01493118237704
v 0.01492797024548 1.164959192276 -0.01492782868445
v -0.01493104081601 1.164959192276 -0.01492782868445
v -0.01493104081601 0 0.5459498167038
v 0.01492797024548 0 0.5459498167038
v 0.01492797024548 1.164959192276 0.01493118237704
v 0.01492797024548 0 0.57580882310867
v -0.01492797024548 1.164959192276 0.01493118237704
v -0.01492797024548 0 0.57580882310867
v 0.01492797024548 -1.164959192276 -0.01492782868445
v -0.01493104081601 -1.164959192276 -0.01492782868445
# 12 vertices

vn -1 -0.00001650363083 0.00010283562005
vn -1 -0.0000495109125 0.0001028356055
vn -1 0.00001650366175 0.00010283567826
vn 0 0 0
vn 0 -0.43379759788513 0.90101033449173
vn 0 -0.43379759788513 0.90101033449173
vn 0 0.43379762768745 -0.90101033449173
vn 0 0.43379762768745 -0.90101033449173
vn 1 0.00001738225001 -0.00003427857882
vn 1 0.0000260733741 -0.00005141786824
vn 1 0.00000087859166 0
vn 0 -1 0
vn 0 -1 0
vn 0 1 0
vn -1 0.00004951095616 0.00010283569281
vn 1 0 0
vn 0 -0.43379762768745 -0.90101033449173
vn 0 0.43379759788513 0.90101033449173
vn -1 -0.00004951089068 0.00010283556185
vn 0 -0.43379762768745 0.90101033449173
vn 1 0.00004951097435 -0.00010283573647
vn 0 -1 0
vn 0 1 0
vn -1 0.00004951097435 0.00010283573647
# 24 normals

vt 1 0 0
vt 0.97010803222656 0.52896118164062 0
vt 0.97010803222656 0 0
vt 0 1 0
vt 1 0.52896118164062 0
# 5 texture coordinates

o fin.3
usemtl Mat
f 5/3/3 12/2/2 10/1/1
f 10/1/6 1/5/5 8/1/5
f 6/3/8 11/2/7 5/3/7
f 8/1/11 2/5/10 6/3/9
f 2/5/13 1/5/12 11/2/12
f 9/5/14 7/5/14 4/2/14
f 10/1/1 9/5/15 5/3/3
f 6/3/9 3/2/16 8/1/11
f 4/2/17 3/2/17 5/3/17
f 7/5/18 9/5/18 8/1/18
f 12/2/2 1/5/19 10/1/1
f 1/5/5 2/5/20 8/1/5
f 11/2/7 12/2/7 5/3/7
f 2/5/10 11/2/21 6/3/9
f 1/5/12 12/2/22 11/2/12
f 7/5/14 3/2/23 4/2/14
f 9/5/15 4/2/24 5/3/3
f 3/2/16 7/5/16 8/1/11
f 3/2/17 6/3/17 5/3/17
f 9/5/18 10/1/18 8/1/18

