# Blender v2.82 (sub 7) OBJ File: 'Nether_Bow.blend'
# www.blender.org
mtllib Nether_Bow_String_01.mtl
o bow_string_01_bow_string.004
v -0.001373 1.460827 0.068149
v 0.001373 1.460827 0.068149
v 0.002746 1.460827 0.070527
v 0.001373 1.460827 0.072905
v -0.001373 1.460827 0.072905
v -0.002746 1.460827 0.070527
v -0.003679 1.351258 0.062213
v 0.003679 1.351258 0.062213
v 0.007359 1.351258 0.068586
v 0.003679 1.351258 0.074959
v -0.003679 1.351258 0.074959
v -0.007359 1.351258 0.068586
v -0.004906 1.236585 0.060089
v 0.004906 1.236585 0.060089
v 0.009812 1.236585 0.068586
v 0.004906 1.236585 0.077083
v -0.004906 1.236585 0.077083
v -0.009812 1.236585 0.068586
v -0.004906 1.102887 0.060089
v 0.004906 1.102887 0.060089
v 0.009812 1.102887 0.068586
v 0.004906 1.102887 0.077083
v -0.004906 1.102887 0.077083
v -0.009812 1.102887 0.068586
v -0.004906 0.955959 0.060089
v 0.004906 0.955959 0.060089
v 0.009812 0.955959 0.068586
v 0.004906 0.955959 0.077083
v -0.004906 0.955959 0.077083
v -0.009812 0.955959 0.068586
v -0.004906 0.801601 0.060089
v 0.004906 0.801601 0.060089
v 0.009812 0.801601 0.068586
v 0.004906 0.801601 0.077083
v -0.004906 0.801601 0.077083
v -0.009812 0.801601 0.068586
v -0.004906 0.645608 0.060089
v 0.004906 0.645608 0.060089
v 0.009812 0.645608 0.068586
v 0.004906 0.645608 0.077083
v -0.004906 0.645608 0.077083
v -0.009812 0.645608 0.068586
v -0.004906 0.493779 0.060089
v 0.004906 0.493779 0.060089
v 0.009812 0.493779 0.068586
v 0.004906 0.493779 0.077083
v -0.004906 0.493779 0.077083
v -0.009812 0.493779 0.068586
v -0.004906 0.351912 0.060089
v 0.004906 0.351912 0.060089
v 0.009812 0.351912 0.068586
v 0.004906 0.351912 0.077083
v -0.004906 0.351912 0.077083
v -0.009812 0.351912 0.068586
v -0.004906 0.225802 0.060089
v 0.004906 0.225802 0.060089
v 0.009812 0.225802 0.068586
v 0.004906 0.225802 0.077083
v -0.004906 0.225802 0.077083
v -0.009812 0.225802 0.068586
v -0.004906 0.121249 0.060089
v 0.004906 0.121249 0.060089
v 0.009812 0.121249 0.068586
v 0.004906 0.121249 0.077083
v -0.004906 0.121249 0.077083
v -0.009812 0.121249 0.068586
v -0.004906 0.044049 0.060089
v 0.004906 0.044049 0.060089
v 0.009812 0.044049 0.068586
v 0.004906 0.044049 0.077083
v -0.004906 0.044049 0.077083
v -0.009812 0.044049 0.068586
v -0.004906 -0.000000 0.060089
v 0.004906 -0.000000 0.060089
v 0.009812 -0.000000 0.068586
v 0.004906 0.000000 0.077083
v -0.004906 0.000000 0.077083
v -0.009812 -0.000000 0.068586
v -0.004906 -0.044360 0.060089
v 0.004906 -0.044360 0.060089
v 0.009812 -0.044360 0.068586
v 0.004906 -0.044360 0.077083
v -0.004906 -0.044360 0.077083
v -0.009812 -0.044360 0.068586
v -0.004906 -0.122456 0.060089
v 0.004906 -0.122456 0.060089
v 0.009812 -0.122456 0.068586
v 0.004906 -0.122456 0.077083
v -0.004906 -0.122456 0.077083
v -0.009812 -0.122456 0.068586
v -0.004906 -0.228437 0.060089
v 0.004906 -0.228437 0.060089
v 0.009812 -0.228437 0.068586
v 0.004906 -0.228437 0.077083
v -0.004906 -0.228437 0.077083
v -0.009812 -0.228437 0.068586
v -0.004906 -0.356454 0.060089
v 0.004906 -0.356454 0.060089
v 0.009812 -0.356454 0.068586
v 0.004906 -0.356454 0.077083
v -0.004906 -0.356454 0.077083
v -0.009812 -0.356454 0.068586
v -0.004906 -0.500655 0.060089
v 0.004906 -0.500655 0.060089
v 0.009812 -0.500655 0.068586
v 0.004906 -0.500655 0.077083
v -0.004906 -0.500655 0.077083
v -0.009812 -0.500655 0.068586
v -0.004906 -0.655190 0.060089
v 0.004906 -0.655190 0.060089
v 0.009812 -0.655190 0.068586
v 0.004906 -0.655190 0.077083
v -0.004906 -0.655190 0.077083
v -0.009812 -0.655190 0.068586
v -0.004906 -0.814208 0.060089
v 0.004906 -0.814208 0.060089
v 0.009812 -0.814208 0.068586
v 0.004906 -0.814208 0.077083
v -0.004906 -0.814208 0.077083
v -0.009812 -0.814208 0.068586
v -0.004906 -0.971858 0.060089
v 0.004906 -0.971858 0.060089
v 0.009812 -0.971858 0.068586
v 0.004906 -0.971858 0.077083
v -0.004906 -0.971858 0.077083
v -0.009812 -0.971858 0.068586
v -0.004906 -1.122290 0.060089
v 0.004906 -1.122290 0.060089
v 0.009812 -1.122290 0.068586
v 0.004906 -1.122290 0.077083
v -0.004906 -1.122290 0.077083
v -0.009812 -1.122290 0.068586
v -0.004906 -1.259652 0.060089
v 0.004906 -1.259652 0.060089
v 0.009812 -1.259652 0.068586
v 0.004906 -1.259652 0.077083
v -0.004906 -1.259652 0.077083
v -0.009812 -1.259652 0.068586
v -0.003679 -1.378096 0.062213
v 0.003679 -1.378096 0.062213
v 0.007359 -1.378096 0.068586
v 0.003679 -1.378096 0.074959
v -0.003679 -1.378096 0.074959
v -0.007359 -1.378096 0.068586
v -0.001305 -1.464547 0.069881
v 0.001305 -1.464547 0.069881
v 0.002611 -1.464547 0.072141
v 0.001305 -1.464547 0.074402
v -0.001305 -1.464547 0.074402
v -0.002611 -1.464547 0.072141
vt 0.980257 0.487553
vt 0.976100 0.502205
vt 0.978871 0.502205
vt 0.980257 0.487553
vt 0.978871 0.502205
vt 0.976100 0.487553
vt 0.976100 0.502205
vt 0.971943 0.487553
vt 0.973329 0.502205
vt 0.971943 0.487553
vt 0.973329 0.502205
vt 0.976100 0.487553
vt 0.981643 0.468854
vt 0.981643 0.468854
vt 0.976100 0.468854
vt 0.970557 0.468854
vt 0.970557 0.468854
vt 0.976100 0.468854
vt 0.981643 0.447051
vt 0.981643 0.447051
vt 0.976100 0.447051
vt 0.970557 0.447051
vt 0.970557 0.447051
vt 0.976100 0.447051
vt 0.981643 0.423092
vt 0.981643 0.423092
vt 0.976100 0.423092
vt 0.970557 0.423092
vt 0.970557 0.423092
vt 0.976100 0.423092
vt 0.981643 0.397921
vt 0.981643 0.397921
vt 0.976100 0.397921
vt 0.970557 0.397921
vt 0.970557 0.397921
vt 0.976100 0.397921
vt 0.981643 0.372483
vt 0.981643 0.372483
vt 0.976100 0.372483
vt 0.970557 0.372483
vt 0.970557 0.372483
vt 0.976100 0.372483
vt 0.981643 0.347725
vt 0.981643 0.347725
vt 0.976100 0.347725
vt 0.970557 0.347725
vt 0.970557 0.347725
vt 0.976100 0.347725
vt 0.981643 0.324591
vt 0.981643 0.324591
vt 0.976100 0.324591
vt 0.970557 0.324591
vt 0.970557 0.324591
vt 0.976100 0.324591
vt 0.981643 0.304026
vt 0.981643 0.304026
vt 0.976100 0.304026
vt 0.970557 0.304026
vt 0.970557 0.304026
vt 0.976100 0.304026
vt 0.981642 0.286977
vt 0.981642 0.286977
vt 0.976100 0.286977
vt 0.970557 0.286977
vt 0.970557 0.286977
vt 0.976100 0.286977
vt 0.981642 0.274388
vt 0.981642 0.274388
vt 0.976100 0.274388
vt 0.970557 0.274388
vt 0.970557 0.274388
vt 0.976100 0.274388
vt 0.981642 0.267205
vt 0.981642 0.267205
vt 0.976100 0.267205
vt 0.970557 0.267205
vt 0.970557 0.267205
vt 0.976100 0.267205
vt 0.981642 0.259971
vt 0.981642 0.259971
vt 0.976100 0.259971
vt 0.970557 0.259971
vt 0.970557 0.259971
vt 0.976100 0.259971
vt 0.981642 0.247236
vt 0.981642 0.247236
vt 0.976100 0.247236
vt 0.970557 0.247236
vt 0.970557 0.247236
vt 0.976100 0.247236
vt 0.981642 0.229953
vt 0.981642 0.229953
vt 0.976100 0.229953
vt 0.970557 0.229953
vt 0.970557 0.229953
vt 0.976100 0.229953
vt 0.981642 0.209078
vt 0.981642 0.209078
vt 0.976100 0.209078
vt 0.970557 0.209078
vt 0.970557 0.209078
vt 0.976100 0.209078
vt 0.981642 0.185563
vt 0.981642 0.185563
vt 0.976100 0.185563
vt 0.970557 0.185563
vt 0.970557 0.185563
vt 0.976100 0.185563
vt 0.981642 0.160363
vt 0.981642 0.160363
vt 0.976100 0.160363
vt 0.970557 0.160363
vt 0.970557 0.160363
vt 0.976100 0.160363
vt 0.981642 0.134432
vt 0.981642 0.134432
vt 0.976100 0.134432
vt 0.970557 0.134432
vt 0.970557 0.134432
vt 0.976100 0.134432
vt 0.981642 0.108725
vt 0.981642 0.108725
vt 0.976100 0.108725
vt 0.970557 0.108725
vt 0.970557 0.108725
vt 0.976100 0.108725
vt 0.981642 0.084194
vt 0.981642 0.084194
vt 0.976100 0.084194
vt 0.970557 0.084194
vt 0.970557 0.084194
vt 0.976100 0.084194
vt 0.981642 0.061794
vt 0.981642 0.061794
vt 0.976100 0.061794
vt 0.970557 0.061794
vt 0.970557 0.061794
vt 0.976100 0.061794
vt 0.980257 0.042480
vt 0.980257 0.042480
vt 0.976100 0.042480
vt 0.971943 0.042480
vt 0.971943 0.042480
vt 0.976100 0.042480
vt 0.978871 0.027205
vt 0.978871 0.027205
vt 0.976100 0.027205
vt 0.973329 0.027205
vt 0.973329 0.027205
vt 0.976100 0.027205
vn -0.4984 0.0392 -0.8660
vn -0.7800 0.6257 0.0045
vn -0.3896 0.6314 -0.6704
vn 0.4984 0.0392 -0.8660
vn 0.3896 0.6314 -0.6704
vn 0.9995 0.0316 -0.0027
vn 0.7800 0.6257 0.0045
vn 0.5010 0.0240 0.8651
vn 0.3903 0.6200 0.6806
vn -0.5010 0.0240 0.8651
vn -0.3903 0.6200 0.6806
vn -0.9995 0.0316 -0.0027
vn -0.5000 0.0107 -0.8660
vn 0.5000 0.0107 -0.8660
vn 0.9999 0.0107 0.0000
vn 0.5000 0.0107 0.8660
vn -0.5000 0.0107 0.8660
vn -0.9999 0.0107 0.0000
vn -0.5000 0.0000 -0.8660
vn 0.5000 0.0000 -0.8660
vn 1.0000 0.0000 0.0000
vn 0.5000 0.0000 0.8660
vn -0.5000 0.0000 0.8660
vn -1.0000 0.0000 0.0000
vn -0.5000 -0.0103 -0.8660
vn 0.5000 -0.0103 -0.8660
vn 0.9999 -0.0103 0.0000
vn 0.5000 -0.0103 0.8660
vn -0.5000 -0.0103 0.8660
vn -0.9999 -0.0103 0.0000
vn -0.4966 -0.0549 -0.8662
vn 0.4966 -0.0549 -0.8662
vn 0.9992 -0.0378 -0.0063
vn 0.5027 -0.0201 0.8642
vn -0.5027 -0.0201 0.8642
vn -0.9992 -0.0378 -0.0063
vn -0.3872 -0.6436 -0.6601
vn 0.3872 -0.6436 -0.6601
vn 0.7763 -0.6303 0.0104
vn 0.3889 -0.6172 0.6840
vn -0.3889 -0.6172 0.6840
vn -0.7763 -0.6303 0.0104
usemtl Material.003
s 1
f 7/1/1 6/2/2 1/3/3
f 8/4/4 1/3/3 2/5/5
f 9/6/6 2/5/5 3/7/7
f 10/8/8 3/7/7 4/9/9
f 11/10/10 4/9/9 5/11/11
f 12/12/12 5/11/11 6/2/2
f 13/13/13 12/12/12 7/1/1
f 14/14/14 7/1/1 8/4/4
f 15/15/15 8/4/4 9/6/6
f 16/16/16 9/6/6 10/8/8
f 17/17/17 10/8/8 11/10/10
f 18/18/18 11/10/10 12/12/12
f 19/19/19 18/18/18 13/13/13
f 20/20/20 13/13/13 14/14/14
f 21/21/21 14/14/14 15/15/15
f 22/22/22 15/15/15 16/16/16
f 23/23/23 16/16/16 17/17/17
f 24/24/24 17/17/17 18/18/18
f 25/25/19 24/24/24 19/19/19
f 26/26/20 19/19/19 20/20/20
f 27/27/21 20/20/20 21/21/21
f 28/28/22 21/21/21 22/22/22
f 29/29/23 22/22/22 23/23/23
f 30/30/24 23/23/23 24/24/24
f 31/31/19 30/30/24 25/25/19
f 32/32/20 25/25/19 26/26/20
f 33/33/21 26/26/20 27/27/21
f 34/34/22 27/27/21 28/28/22
f 35/35/23 28/28/22 29/29/23
f 36/36/24 29/29/23 30/30/24
f 37/37/19 36/36/24 31/31/19
f 38/38/20 31/31/19 32/32/20
f 39/39/21 32/32/20 33/33/21
f 40/40/22 33/33/21 34/34/22
f 41/41/23 34/34/22 35/35/23
f 42/42/24 35/35/23 36/36/24
f 43/43/19 42/42/24 37/37/19
f 44/44/20 37/37/19 38/38/20
f 45/45/21 38/38/20 39/39/21
f 46/46/22 39/39/21 40/40/22
f 47/47/23 40/40/22 41/41/23
f 48/48/24 41/41/23 42/42/24
f 49/49/19 48/48/24 43/43/19
f 50/50/20 43/43/19 44/44/20
f 51/51/21 44/44/20 45/45/21
f 52/52/22 45/45/21 46/46/22
f 53/53/23 46/46/22 47/47/23
f 54/54/24 47/47/23 48/48/24
f 55/55/19 54/54/24 49/49/19
f 56/56/20 49/49/19 50/50/20
f 57/57/21 50/50/20 51/51/21
f 58/58/22 51/51/21 52/52/22
f 59/59/23 52/52/22 53/53/23
f 60/60/24 53/53/23 54/54/24
f 61/61/19 60/60/24 55/55/19
f 62/62/20 55/55/19 56/56/20
f 63/63/21 56/56/20 57/57/21
f 64/64/22 57/57/21 58/58/22
f 65/65/23 58/58/22 59/59/23
f 66/66/24 59/59/23 60/60/24
f 67/67/19 66/66/24 61/61/19
f 68/68/20 61/61/19 62/62/20
f 69/69/21 62/62/20 63/63/21
f 70/70/22 63/63/21 64/64/22
f 71/71/23 64/64/22 65/65/23
f 72/72/24 65/65/23 66/66/24
f 73/73/19 72/72/24 67/67/19
f 74/74/20 67/67/19 68/68/20
f 75/75/21 68/68/20 69/69/21
f 76/76/22 69/69/21 70/70/22
f 77/77/23 70/70/22 71/71/23
f 78/78/24 71/71/23 72/72/24
f 79/79/19 78/78/24 73/73/19
f 80/80/20 73/73/19 74/74/20
f 81/81/21 74/74/20 75/75/21
f 82/82/22 75/75/21 76/76/22
f 83/83/23 76/76/22 77/77/23
f 84/84/24 77/77/23 78/78/24
f 85/85/19 84/84/24 79/79/19
f 86/86/20 79/79/19 80/80/20
f 87/87/21 80/80/20 81/81/21
f 88/88/22 81/81/21 82/82/22
f 89/89/23 82/82/22 83/83/23
f 90/90/24 83/83/23 84/84/24
f 91/91/19 90/90/24 85/85/19
f 92/92/20 85/85/19 86/86/20
f 93/93/21 86/86/20 87/87/21
f 94/94/22 87/87/21 88/88/22
f 95/95/23 88/88/22 89/89/23
f 96/96/24 89/89/23 90/90/24
f 97/97/19 96/96/24 91/91/19
f 98/98/20 91/91/19 92/92/20
f 99/99/21 92/92/20 93/93/21
f 100/100/22 93/93/21 94/94/22
f 101/101/23 94/94/22 95/95/23
f 102/102/24 95/95/23 96/96/24
f 103/103/19 102/102/24 97/97/19
f 104/104/20 97/97/19 98/98/20
f 105/105/21 98/98/20 99/99/21
f 106/106/22 99/99/21 100/100/22
f 107/107/23 100/100/22 101/101/23
f 108/108/24 101/101/23 102/102/24
f 109/109/19 108/108/24 103/103/19
f 110/110/20 103/103/19 104/104/20
f 111/111/21 104/104/20 105/105/21
f 112/112/22 105/105/21 106/106/22
f 113/113/23 106/106/22 107/107/23
f 114/114/24 107/107/23 108/108/24
f 115/115/19 114/114/24 109/109/19
f 116/116/20 109/109/19 110/110/20
f 117/117/21 110/110/20 111/111/21
f 118/118/22 111/111/21 112/112/22
f 119/119/23 112/112/22 113/113/23
f 120/120/24 113/113/23 114/114/24
f 121/121/19 120/120/24 115/115/19
f 122/122/20 115/115/19 116/116/20
f 123/123/21 116/116/20 117/117/21
f 124/124/22 117/117/21 118/118/22
f 125/125/23 118/118/22 119/119/23
f 126/126/24 119/119/23 120/120/24
f 127/127/19 126/126/24 121/121/19
f 128/128/20 121/121/19 122/122/20
f 129/129/21 122/122/20 123/123/21
f 130/130/22 123/123/21 124/124/22
f 131/131/23 124/124/22 125/125/23
f 132/132/24 125/125/23 126/126/24
f 133/133/25 132/132/24 127/127/19
f 134/134/26 127/127/19 128/128/20
f 135/135/27 128/128/20 129/129/21
f 136/136/28 129/129/21 130/130/22
f 137/137/29 130/130/22 131/131/23
f 138/138/30 131/131/23 132/132/24
f 139/139/31 138/138/30 133/133/25
f 140/140/32 133/133/25 134/134/26
f 141/141/33 134/134/26 135/135/27
f 142/142/34 135/135/27 136/136/28
f 143/143/35 136/136/28 137/137/29
f 144/144/36 137/137/29 138/138/30
f 145/145/37 144/144/36 139/139/31
f 146/146/38 139/139/31 140/140/32
f 147/147/39 140/140/32 141/141/33
f 148/148/40 141/141/33 142/142/34
f 149/149/41 142/142/34 143/143/35
f 150/150/42 143/143/35 144/144/36
f 2/5/5 1/3/3 6/2/2
f 6/2/2 5/11/11 2/5/5
f 5/11/11 4/9/9 2/5/5
f 4/9/9 3/7/7 2/5/5
f 145/145/37 146/146/38 147/147/39
f 147/147/39 148/148/40 145/145/37
f 148/148/40 149/149/41 145/145/37
f 149/149/41 150/150/42 145/145/37
f 7/1/1 12/12/12 6/2/2
f 8/4/4 7/1/1 1/3/3
f 9/6/6 8/4/4 2/5/5
f 10/8/8 9/6/6 3/7/7
f 11/10/10 10/8/8 4/9/9
f 12/12/12 11/10/10 5/11/11
f 13/13/13 18/18/18 12/12/12
f 14/14/14 13/13/13 7/1/1
f 15/15/15 14/14/14 8/4/4
f 16/16/16 15/15/15 9/6/6
f 17/17/17 16/16/16 10/8/8
f 18/18/18 17/17/17 11/10/10
f 19/19/19 24/24/24 18/18/18
f 20/20/20 19/19/19 13/13/13
f 21/21/21 20/20/20 14/14/14
f 22/22/22 21/21/21 15/15/15
f 23/23/23 22/22/22 16/16/16
f 24/24/24 23/23/23 17/17/17
f 25/25/19 30/30/24 24/24/24
f 26/26/20 25/25/19 19/19/19
f 27/27/21 26/26/20 20/20/20
f 28/28/22 27/27/21 21/21/21
f 29/29/23 28/28/22 22/22/22
f 30/30/24 29/29/23 23/23/23
f 31/31/19 36/36/24 30/30/24
f 32/32/20 31/31/19 25/25/19
f 33/33/21 32/32/20 26/26/20
f 34/34/22 33/33/21 27/27/21
f 35/35/23 34/34/22 28/28/22
f 36/36/24 35/35/23 29/29/23
f 37/37/19 42/42/24 36/36/24
f 38/38/20 37/37/19 31/31/19
f 39/39/21 38/38/20 32/32/20
f 40/40/22 39/39/21 33/33/21
f 41/41/23 40/40/22 34/34/22
f 42/42/24 41/41/23 35/35/23
f 43/43/19 48/48/24 42/42/24
f 44/44/20 43/43/19 37/37/19
f 45/45/21 44/44/20 38/38/20
f 46/46/22 45/45/21 39/39/21
f 47/47/23 46/46/22 40/40/22
f 48/48/24 47/47/23 41/41/23
f 49/49/19 54/54/24 48/48/24
f 50/50/20 49/49/19 43/43/19
f 51/51/21 50/50/20 44/44/20
f 52/52/22 51/51/21 45/45/21
f 53/53/23 52/52/22 46/46/22
f 54/54/24 53/53/23 47/47/23
f 55/55/19 60/60/24 54/54/24
f 56/56/20 55/55/19 49/49/19
f 57/57/21 56/56/20 50/50/20
f 58/58/22 57/57/21 51/51/21
f 59/59/23 58/58/22 52/52/22
f 60/60/24 59/59/23 53/53/23
f 61/61/19 66/66/24 60/60/24
f 62/62/20 61/61/19 55/55/19
f 63/63/21 62/62/20 56/56/20
f 64/64/22 63/63/21 57/57/21
f 65/65/23 64/64/22 58/58/22
f 66/66/24 65/65/23 59/59/23
f 67/67/19 72/72/24 66/66/24
f 68/68/20 67/67/19 61/61/19
f 69/69/21 68/68/20 62/62/20
f 70/70/22 69/69/21 63/63/21
f 71/71/23 70/70/22 64/64/22
f 72/72/24 71/71/23 65/65/23
f 73/73/19 78/78/24 72/72/24
f 74/74/20 73/73/19 67/67/19
f 75/75/21 74/74/20 68/68/20
f 76/76/22 75/75/21 69/69/21
f 77/77/23 76/76/22 70/70/22
f 78/78/24 77/77/23 71/71/23
f 79/79/19 84/84/24 78/78/24
f 80/80/20 79/79/19 73/73/19
f 81/81/21 80/80/20 74/74/20
f 82/82/22 81/81/21 75/75/21
f 83/83/23 82/82/22 76/76/22
f 84/84/24 83/83/23 77/77/23
f 85/85/19 90/90/24 84/84/24
f 86/86/20 85/85/19 79/79/19
f 87/87/21 86/86/20 80/80/20
f 88/88/22 87/87/21 81/81/21
f 89/89/23 88/88/22 82/82/22
f 90/90/24 89/89/23 83/83/23
f 91/91/19 96/96/24 90/90/24
f 92/92/20 91/91/19 85/85/19
f 93/93/21 92/92/20 86/86/20
f 94/94/22 93/93/21 87/87/21
f 95/95/23 94/94/22 88/88/22
f 96/96/24 95/95/23 89/89/23
f 97/97/19 102/102/24 96/96/24
f 98/98/20 97/97/19 91/91/19
f 99/99/21 98/98/20 92/92/20
f 100/100/22 99/99/21 93/93/21
f 101/101/23 100/100/22 94/94/22
f 102/102/24 101/101/23 95/95/23
f 103/103/19 108/108/24 102/102/24
f 104/104/20 103/103/19 97/97/19
f 105/105/21 104/104/20 98/98/20
f 106/106/22 105/105/21 99/99/21
f 107/107/23 106/106/22 100/100/22
f 108/108/24 107/107/23 101/101/23
f 109/109/19 114/114/24 108/108/24
f 110/110/20 109/109/19 103/103/19
f 111/111/21 110/110/20 104/104/20
f 112/112/22 111/111/21 105/105/21
f 113/113/23 112/112/22 106/106/22
f 114/114/24 113/113/23 107/107/23
f 115/115/19 120/120/24 114/114/24
f 116/116/20 115/115/19 109/109/19
f 117/117/21 116/116/20 110/110/20
f 118/118/22 117/117/21 111/111/21
f 119/119/23 118/118/22 112/112/22
f 120/120/24 119/119/23 113/113/23
f 121/121/19 126/126/24 120/120/24
f 122/122/20 121/121/19 115/115/19
f 123/123/21 122/122/20 116/116/20
f 124/124/22 123/123/21 117/117/21
f 125/125/23 124/124/22 118/118/22
f 126/126/24 125/125/23 119/119/23
f 127/127/19 132/132/24 126/126/24
f 128/128/20 127/127/19 121/121/19
f 129/129/21 128/128/20 122/122/20
f 130/130/22 129/129/21 123/123/21
f 131/131/23 130/130/22 124/124/22
f 132/132/24 131/131/23 125/125/23
f 133/133/25 138/138/30 132/132/24
f 134/134/26 133/133/25 127/127/19
f 135/135/27 134/134/26 128/128/20
f 136/136/28 135/135/27 129/129/21
f 137/137/29 136/136/28 130/130/22
f 138/138/30 137/137/29 131/131/23
f 139/139/31 144/144/36 138/138/30
f 140/140/32 139/139/31 133/133/25
f 141/141/33 140/140/32 134/134/26
f 142/142/34 141/141/33 135/135/27
f 143/143/35 142/142/34 136/136/28
f 144/144/36 143/143/35 137/137/29
f 145/145/37 150/150/42 144/144/36
f 146/146/38 145/145/37 139/139/31
f 147/147/39 146/146/38 140/140/32
f 148/148/40 147/147/39 141/141/33
f 149/149/41 148/148/40 142/142/34
f 150/150/42 149/149/41 143/143/35
